<svg xmlns="http://www.w3.org/2000/svg" xmlns:xlink="http://www.w3.org/1999/xlink" contentStyleType="text/css" data-diagram-type="STATE" height="712px" preserveAspectRatio="none" style="width:467px;height:712px;background:#FFFFFF55;" version="1.1" viewBox="0 0 467 712" width="467px" zoomAndPan="magnify"><defs><style type="text/css">@import url('https://fonts.googleapis.com/css?family=Roboto:400,100,100italic,300,300italic,400italic,500,500italic,700,700italic,900,900italic');</style></defs><g><rect fill="#FFFFFF" fill-opacity="0.33333" height="712" style="stroke:none;stroke-width:1;" width="467" x="0" y="0"/><rect fill="#FFFFFF" height="40" rx="4" ry="4" style="stroke:#000000;stroke-width:1;" width="50" x="119.06" y="7"/><text fill="#000000" font-family="Roboto,sans-serif" font-size="12" lengthAdjust="spacing" textLength="37.125" x="125.4975" y="31.1016">READY</text><rect fill="#FFFFFF" height="40" rx="4" ry="4" style="stroke:#000000;stroke-width:1;" width="68.0605" x="25.03" y="124"/><text fill="#000000" font-family="Roboto,sans-serif" font-size="12" lengthAdjust="spacing" textLength="58.0605" x="30.03" y="148.1016">WRITING &#8224;</text><rect fill="#FFFFFF" height="40" rx="4" ry="4" style="stroke:#000000;stroke-width:1;" width="75.0215" x="21.55" y="241"/><text fill="#000000" font-family="Roboto,sans-serif" font-size="12" lengthAdjust="spacing" textLength="65.0215" x="26.55" y="265.1016">CANDIDATE</text><rect fill="#FFFFFF" height="40" rx="4" ry="4" style="stroke:#000000;stroke-width:1;" width="63.127" x="81.49" y="371"/><text fill="#000000" font-family="Roboto,sans-serif" font-size="12" lengthAdjust="spacing" textLength="53.127" x="86.49" y="395.1016">STAGED *</text><rect fill="#FFFFFF" height="40" rx="4" ry="4" style="stroke:#000000;stroke-width:1;" width="58.7031" x="187.71" y="241"/><text fill="#000000" font-family="Roboto,sans-serif" font-size="12" lengthAdjust="spacing" textLength="48.7031" x="192.71" y="265.1016">FAILED &#8225;</text><rect fill="#FFFFFF" height="40" rx="4" ry="4" style="stroke:#000000;stroke-width:1;" width="75.4668" x="386.32" y="371"/><text fill="#000000" font-family="Roboto,sans-serif" font-size="12" lengthAdjust="spacing" textLength="65.4668" x="391.32" y="395.1016">REJECTED *</text><rect fill="#FFFFFF" height="40" rx="4" ry="4" style="stroke:#000000;stroke-width:1;" width="50.2539" x="256.93" y="371"/><text fill="#000000" font-family="Roboto,sans-serif" font-size="12" lengthAdjust="spacing" textLength="40.2539" x="261.93" y="395.1016">TRIAL *</text><rect fill="#FFFFFF" height="40" rx="4" ry="4" style="stroke:#000000;stroke-width:1;" width="72.7305" x="245.69" y="488"/><text fill="#000000" font-family="Roboto,sans-serif" font-size="12" lengthAdjust="spacing" textLength="62.7305" x="250.69" y="512.1016">UPDATED &#8225;</text><rect fill="#FFFFFF" height="40" rx="4" ry="4" style="stroke:#000000;stroke-width:1;" width="50" x="391.06" y="488"/><text fill="#000000" font-family="Roboto,sans-serif" font-size="12" lengthAdjust="spacing" textLength="37.125" x="397.4975" y="512.1016">READY</text><!--link Start to Writing--><g class="link" data-entity-1="Start" data-entity-2="Writing" data-source-line="30" data-uid="lnk2" id="link_Start_Writing"><path d="M129.83,47.25 C114.14,68.48 92.6069,97.6153 76.8969,118.8653" fill="none" id="Start-to-Writing" style="stroke:#0000FF;stroke-width:1;"/><polygon fill="#0000FF" points="73.33,123.69,81.8967,118.8309,76.3024,119.6694,75.4638,114.0751,73.33,123.69" style="stroke:#0000FF;stroke-width:1;"/><text fill="#000000" font-family="Roboto Mono,monospace" font-size="12" lengthAdjust="spacing" textLength="36.0059" x="107.65" y="90.5742">start</text></g><!--link Writing to Writing--><g class="link" data-entity-1="Writing" data-entity-2="Writing" data-source-line="31" data-uid="lnk3" id="link_Writing_Writing"><path d="M93.51,133.45 C111.65,131.74 128.09,135.26 128.09,144 C128.09,152.74 117.6235,156.8231 99.4835,155.1131" fill="none" id="Writing-to-Writing" style="stroke:#0000FF;stroke-width:1;"/><polygon fill="#0000FF" points="93.51,154.55,102.0949,159.377,98.4879,155.0193,102.8457,151.4123,93.51,154.55" style="stroke:#0000FF;stroke-width:1;"/><text fill="#000000" font-family="Roboto Mono,monospace" font-size="12" lengthAdjust="spacing" textLength="36.0059" x="134.09" y="149.0742">write</text></g><!--link Writing to Candidate--><g class="link" data-entity-1="Writing" data-entity-2="Candidate" data-source-line="32" data-uid="lnk4" id="link_Writing_Candidate"><path d="M59.06,164.25 C59.06,185.48 59.06,213.44 59.06,234.69" fill="none" id="Writing-to-Candidate" style="stroke:#0000FF;stroke-width:1;"/><polygon fill="#0000FF" points="59.06,240.69,63.06,231.69,59.06,235.69,55.06,231.69,59.06,240.69" style="stroke:#0000FF;stroke-width:1;"/><text fill="#000000" font-family="Roboto Mono,monospace" font-size="12" lengthAdjust="spacing" textLength="43.207" x="60.06" y="207.5742">finish</text></g><!--link Writing to Failed--><g class="link" data-entity-1="Writing" data-entity-2="Failed" data-source-line="33" data-uid="lnk5" id="link_Writing_Failed"><path d="M85.5,164.25 C114.67,185.48 156.4787,215.9095 185.6787,237.1595" fill="none" id="Writing-to-Failed" style="stroke:#0000FF;stroke-width:1;"/><polygon fill="#0000FF" points="190.53,240.69,185.6067,232.16,186.4872,237.7479,180.8993,238.6285,190.53,240.69" style="stroke:#0000FF;stroke-width:1;"/><text fill="#000000" font-family="Roboto Mono,monospace" font-size="12" lengthAdjust="spacing" textLength="43.207" x="148.52" y="207.5742">cancel</text></g><!--link Candidate to Staged--><g class="link" data-entity-1="Candidate" data-entity-2="Staged" data-source-line="34" data-uid="lnk6" id="link_Candidate_Staged"><path d="M37.59,281.24 C22.15,297.49 6,321.21 18.06,341 C31.67,363.34 53.3806,374.1584 75.2806,380.9684" fill="none" id="Candidate-to-Staged" style="stroke:#8B0000;stroke-width:1;"/><polygon fill="#8B0000" points="81.01,382.75,73.6037,376.258,76.2355,381.2653,71.2282,383.8972,81.01,382.75" style="stroke:#8B0000;stroke-width:1;"/><text fill="#000000" font-family="Roboto Mono,monospace" font-size="12" lengthAdjust="spacing" textLength="50.4082" x="19.06" y="331.0742">install</text></g><!--link Candidate to Failed--><g class="link" data-entity-1="Candidate" data-entity-2="Failed" data-source-line="35" data-uid="lnk7" id="link_Candidate_Failed"><path d="M96.9,261 C124.66,261 155.81,261 181.42,261" fill="none" id="Candidate-to-Failed" style="stroke:#0000FF;stroke-width:1;"/><polygon fill="#0000FF" points="187.42,261,178.42,257,182.42,261,178.42,265,187.42,261" style="stroke:#0000FF;stroke-width:1;"/><text fill="#000000" font-family="Roboto Mono,monospace" font-size="12" lengthAdjust="spacing" textLength="43.207" x="120.64" y="254.5742">cancel</text></g><!--link Staged to Trial--><g class="link" data-entity-1="Staged" data-entity-2="Trial" data-source-line="37" data-uid="lnk8" id="link_Staged_Trial"><path d="M144.85,391 C177.16,391 220.61,391 250.48,391" fill="none" id="Staged-to-Trial" style="stroke:#8B0000;stroke-width:1;stroke-dasharray:7.0,7.0;"/><polygon fill="#8B0000" points="256.48,391,247.48,387,251.48,391,247.48,395,256.48,391" style="stroke:#8B0000;stroke-width:1;"/><text fill="#000000" font-family="Roboto,sans-serif" font-size="12" font-weight="bold" lengthAdjust="spacing" textLength="35.2324" x="182.113" y="370.1328">reboot</text><text fill="#000000" font-family="Roboto,sans-serif" font-size="12" lengthAdjust="spacing" textLength="2.9063" x="217.3454" y="370.1328">:</text><text fill="#000000" font-family="Roboto,sans-serif" font-size="12" font-style="italic" lengthAdjust="spacing" textLength="76.8047" x="162.78" y="384.1953">install success</text></g><!--reverse link Failed to Staged--><g class="link" data-entity-1="Failed" data-entity-2="Staged" data-source-line="38" data-uid="lnk10" id="link_Failed_Staged"><path d="M181.3756,267.9536 C156.0156,273.6436 126.94,284.69 110.06,311 C98.71,328.67 102,353.44 106.48,370.51" fill="none" id="Failed-backto-Staged" style="stroke:#8B0000;stroke-width:1;stroke-dasharray:7.0,7.0;"/><polygon fill="#8B0000" points="187.23,266.64,177.5726,264.7074,182.3513,267.7346,179.324,272.5133,187.23,266.64" style="stroke:#8B0000;stroke-width:1;"/><text fill="#000000" font-family="Roboto,sans-serif" font-size="12" font-weight="bold" lengthAdjust="spacing" textLength="35.2324" x="123.3852" y="323.1328">reboot</text><text fill="#000000" font-family="Roboto,sans-serif" font-size="12" lengthAdjust="spacing" textLength="2.9063" x="158.6176" y="323.1328">:</text><text fill="#000000" font-family="Roboto,sans-serif" font-size="12" font-style="italic" lengthAdjust="spacing" textLength="62.7891" x="111.06" y="337.1953">install failed</text></g><!--reverse link Failed to Staged--><g class="link" data-entity-1="Failed" data-entity-2="Staged" data-source-line="39" data-uid="lnk12" id="link_Failed_Staged"><path d="M208.3172,286.9281 C201.8672,303.8881 192.98,322.98 178.06,341 C168.68,352.32 156.2,362.53 144.68,370.66" fill="none" id="Failed-backto-Staged-1" style="stroke:#8B0000;stroke-width:1;"/><polygon fill="#8B0000" points="210.45,281.32,203.512,288.3103,208.6727,285.9934,210.9895,291.1541,210.45,281.32" style="stroke:#8B0000;stroke-width:1;"/><text fill="#000000" font-family="Roboto Mono,monospace" font-size="12" lengthAdjust="spacing" textLength="43.207" x="197.39" y="331.0742">reject</text></g><!--link Trial to Updated--><g class="link" data-entity-1="Trial" data-entity-2="Updated" data-source-line="41" data-uid="lnk13" id="link_Trial_Updated"><path d="M282.06,411.25 C282.06,432.48 282.06,460.44 282.06,481.69" fill="none" id="Trial-to-Updated" style="stroke:#8B0000;stroke-width:1;"/><polygon fill="#8B0000" points="282.06,487.69,286.06,478.69,282.06,482.69,278.06,478.69,282.06,487.69" style="stroke:#8B0000;stroke-width:1;"/><text fill="#000000" font-family="Roboto Mono,monospace" font-size="12" lengthAdjust="spacing" textLength="43.207" x="283.06" y="454.5742">accept</text></g><!--reverse link Start to Failed--><g class="link" data-entity-1="Start" data-entity-2="Failed" data-source-line="43" data-uid="lnk15" id="link_Start_Failed"><path d="M153.1657,52.9005 C164.3257,83.6705 184.33,140.29 200.06,194 C204.61,209.56 209.16,227.37 212.4,240.56" fill="none" id="Start-backto-Failed" style="stroke:#0000FF;stroke-width:1;"/><polygon fill="#0000FF" points="151.12,47.26,150.4283,57.0845,152.8248,51.9604,157.9489,54.3569,151.12,47.26" style="stroke:#0000FF;stroke-width:1;"/><text fill="#000000" font-family="Roboto Mono,monospace" font-size="12" lengthAdjust="spacing" textLength="36.0059" x="191.76" y="149.0742">clean</text></g><!--link Trial to Rejected--><g class="link" data-entity-1="Trial" data-entity-2="Rejected" data-source-line="44" data-uid="lnk16" id="link_Trial_Rejected"><path d="M307.44,391 C329.3,391 355.16,391 380.06,391" fill="none" id="Trial-to-Rejected" style="stroke:#8B0000;stroke-width:1;"/><polygon fill="#8B0000" points="386.06,391,377.06,387,381.06,391,377.06,395,386.06,391" style="stroke:#8B0000;stroke-width:1;"/><text fill="#000000" font-family="Roboto Mono,monospace" font-size="12" lengthAdjust="spacing" textLength="43.207" x="325.25" y="384.5742">reject</text></g><!--reverse link Failed to Rejected--><g class="link" data-entity-1="Failed" data-entity-2="Rejected" data-source-line="45" data-uid="lnk18" id="link_Failed_Rejected"><path d="M252.0426,275.264 C274.3426,284.164 299.78,295.51 325.06,311 C353.93,328.69 383.89,353.69 403.18,370.8" fill="none" id="Failed-backto-Rejected" style="stroke:#8B0000;stroke-width:1;stroke-dasharray:7.0,7.0;"/><polygon fill="#8B0000" points="246.47,273.04,253.3462,280.0911,251.1138,274.8934,256.3116,272.661,246.47,273.04" style="stroke:#8B0000;stroke-width:1;"/><text fill="#000000" font-family="Roboto,sans-serif" font-size="12" font-weight="bold" lengthAdjust="spacing" textLength="35.2324" x="367.3854" y="323.1328">reboot</text><text fill="#000000" font-family="Roboto,sans-serif" font-size="12" lengthAdjust="spacing" textLength="2.9063" x="402.6178" y="323.1328">:</text><text fill="#000000" font-family="Roboto,sans-serif" font-size="12" font-style="italic" lengthAdjust="spacing" textLength="41.1094" x="365.9" y="337.1953">rollback</text></g><!--link Trial to Failed--><g class="link" data-entity-1="Trial" data-entity-2="Failed" data-source-line="47" data-uid="lnk19" id="link_Trial_Failed"><path d="M280.24,370.82 C278.03,354.18 273.24,329.87 263.06,311 C257.07,299.91 252.235,293.6598 243.685,285.2798" fill="none" id="Trial-to-Failed" style="stroke:#8B0000;stroke-width:1;stroke-dasharray:7.0,7.0;"/><polygon fill="#8B0000" points="239.4,281.08,243.0277,290.2364,242.9709,284.5799,248.6274,284.5231,239.4,281.08" style="stroke:#8B0000;stroke-width:1;"/><text fill="#000000" font-family="Roboto,sans-serif" font-size="12" font-weight="bold" lengthAdjust="spacing" textLength="35.2324" x="276.6454" y="323.1328">reboot</text><text fill="#000000" font-family="Roboto,sans-serif" font-size="12" lengthAdjust="spacing" textLength="2.9063" x="311.8778" y="323.1328">:</text><text fill="#000000" font-family="Roboto,sans-serif" font-size="12" font-style="italic" lengthAdjust="spacing" textLength="41.1094" x="275.16" y="337.1953">rollback</text></g><!--link Updated to End--><g class="link" data-entity-1="Updated" data-entity-2="End" data-source-line="49" data-uid="lnk20" id="link_Updated_End"><path d="M318.67,508 C341.61,508 364.58,508 384.93,508" fill="none" id="Updated-to-End" style="stroke:#0000FF;stroke-width:1;"/><polygon fill="#0000FF" points="390.93,508,381.93,504,385.93,508,381.93,512,390.93,508" style="stroke:#0000FF;stroke-width:1;"/><text fill="#000000" font-family="Roboto Mono,monospace" font-size="12" lengthAdjust="spacing" textLength="36.0059" x="336.74" y="501.5742">clean</text></g><rect fill="#E8E8E8" height="147.1445" rx="4" ry="4" style="stroke:#000000;stroke-width:1;" width="312.2148" x="70.786" y="545"/><text fill="#000000" font-family="Roboto,sans-serif" font-size="12" font-weight="bold" lengthAdjust="spacing" textLength="61.2188" x="75.786" y="561.1328">Transitions</text><text fill="#0000FF" font-family="Roboto Mono,monospace" font-size="12" lengthAdjust="spacing" text-decoration="line-through" textLength="21.6035" x="75.786" y="576.6367">&#8212;&#8212;&#8212;</text><text fill="#000000" font-family="Roboto,sans-serif" font-size="12" lengthAdjust="spacing" textLength="161.4316" x="100.3661" y="576.959">Applies to a single component</text><text fill="#8B0000" font-family="Roboto Mono,monospace" font-size="12" lengthAdjust="spacing" text-decoration="line-through" textLength="21.6035" x="75.786" y="592.4629">&#8212;&#8212;&#8212;</text><text fill="#000000" font-family="Roboto,sans-serif" font-size="12" lengthAdjust="spacing" textLength="138.7266" x="100.3661" y="592.7852">Applies to all components</text><text fill="#000000" font-family="Roboto Mono,monospace" font-size="12" lengthAdjust="spacing" textLength="21.6035" x="75.786" y="608.2891">---</text><text fill="#000000" font-family="Roboto,sans-serif" font-size="12" lengthAdjust="spacing" textLength="79.8691" x="100.3661" y="608.6113">Transition over</text><text fill="#000000" font-family="Roboto,sans-serif" font-size="12" font-weight="bold" lengthAdjust="spacing" textLength="35.2324" x="183.2118" y="608.6113">reboot</text><text fill="#000000" font-family="Roboto,sans-serif" font-size="12" lengthAdjust="spacing" textLength="3.1641" x="218.4442" y="608.6113">.</text><text fill="#000000" font-family="Roboto,sans-serif" font-size="12" lengthAdjust="spacing" textLength="2.9766" x="75.786" y="622.6738">&#160;</text><text fill="#000000" font-family="Roboto,sans-serif" font-size="12" font-weight="bold" lengthAdjust="spacing" textLength="77.4375" x="75.786" y="636.7363">Volatile states</text><text fill="#000000" font-family="Roboto Mono,monospace" font-size="12" lengthAdjust="spacing" textLength="7.2012" x="82.9871" y="652.2402">*</text><text fill="#000000" font-family="Roboto,sans-serif" font-size="12" lengthAdjust="spacing" textLength="41.0684" x="100.3661" y="652.5625">Always:</text><text fill="#000000" font-family="Roboto,sans-serif" font-size="12" font-weight="bold" lengthAdjust="spacing" textLength="35.2324" x="144.411" y="652.5625">reboot</text><text fill="#000000" font-family="Roboto,sans-serif" font-size="12" lengthAdjust="spacing" textLength="104.5371" x="182.62" y="652.5625">transition as shown</text><text fill="#000000" font-family="Roboto Mono,monospace" font-size="12" lengthAdjust="spacing" textLength="7.2012" x="82.9871" y="668.0664">&#8224;</text><text fill="#000000" font-family="Roboto,sans-serif" font-size="12" lengthAdjust="spacing" textLength="47.6602" x="100.3661" y="668.3887">Optional:</text><text fill="#000000" font-family="Roboto,sans-serif" font-size="12" font-weight="bold" lengthAdjust="spacing" textLength="35.2324" x="151.0028" y="668.3887">reboot</text><text fill="#000000" font-family="Roboto,sans-serif" font-size="12" lengthAdjust="spacing" textLength="80.7246" x="189.2118" y="668.3887">is equivalent to</text><text fill="#000000" font-family="Roboto Mono,monospace" font-size="12" lengthAdjust="spacing" textLength="43.207" x="272.9129" y="668.0664">cancel</text><text fill="#000000" font-family="Roboto,sans-serif" font-size="12" lengthAdjust="spacing" textLength="19.9219" x="319.0965" y="668.3887">and</text><text fill="#000000" font-family="Roboto Mono,monospace" font-size="12" lengthAdjust="spacing" textLength="36.0059" x="341.995" y="668.0664">clean</text><text fill="#000000" font-family="Roboto Mono,monospace" font-size="12" lengthAdjust="spacing" textLength="7.2012" x="82.9871" y="683.8926">&#8225;</text><text fill="#000000" font-family="Roboto,sans-serif" font-size="12" lengthAdjust="spacing" textLength="47.6602" x="100.3661" y="684.2148">Optional:</text><text fill="#000000" font-family="Roboto,sans-serif" font-size="12" font-weight="bold" lengthAdjust="spacing" textLength="35.2324" x="151.0028" y="684.2148">reboot</text><text fill="#000000" font-family="Roboto,sans-serif" font-size="12" lengthAdjust="spacing" textLength="80.7246" x="189.2118" y="684.2148">is equivalent to</text><text fill="#000000" font-family="Roboto Mono,monospace" font-size="12" lengthAdjust="spacing" textLength="36.0059" x="272.9129" y="683.8926">clean</text></g></svg>