<svg xmlns="http://www.w3.org/2000/svg" xmlns:xlink="http://www.w3.org/1999/xlink" contentStyleType="text/css" data-diagram-type="STATE" height="681px" preserveAspectRatio="none" style="width:344px;height:681px;background:#FFFFFF55;" version="1.1" viewBox="0 0 344 681" width="344px" zoomAndPan="magnify"><defs><style type="text/css">@import url('https://fonts.googleapis.com/css?family=Roboto:400,100,100italic,300,300italic,400italic,500,500italic,700,700italic,900,900italic');</style></defs><g><rect fill="#FFFFFF" fill-opacity="0.33333" height="681" style="stroke:none;stroke-width:1;" width="344" x="0" y="0"/><rect fill="#FFFFFF" height="40" rx="4" ry="4" style="stroke:#000000;stroke-width:1;" width="50" x="138.3624" y="7"/><text fill="#000000" font-family="Roboto,sans-serif" font-size="12" lengthAdjust="spacing" textLength="37.125" x="144.7999" y="31.1016">READY</text><rect fill="#FFFFFF" height="40" rx="4" ry="4" style="stroke:#000000;stroke-width:1;" width="68.0605" x="44.3324" y="124"/><text fill="#000000" font-family="Roboto,sans-serif" font-size="12" lengthAdjust="spacing" textLength="58.0605" x="49.3324" y="148.1016">WRITING &#8224;</text><rect fill="#FFFFFF" height="40" rx="4" ry="4" style="stroke:#000000;stroke-width:1;" width="75.0215" x="40.8524" y="241"/><text fill="#000000" font-family="Roboto,sans-serif" font-size="12" lengthAdjust="spacing" textLength="65.0215" x="45.8524" y="265.1016">CANDIDATE</text><rect fill="#FFFFFF" height="40" rx="4" ry="4" style="stroke:#000000;stroke-width:1;" width="58.7031" x="195.0124" y="241"/><text fill="#000000" font-family="Roboto,sans-serif" font-size="12" lengthAdjust="spacing" textLength="48.7031" x="200.0124" y="265.1016">FAILED &#8225;</text><rect fill="#FFFFFF" height="40" rx="4" ry="4" style="stroke:#000000;stroke-width:1;" width="50" x="126.3624" y="372"/><text fill="#000000" font-family="Roboto,sans-serif" font-size="12" lengthAdjust="spacing" textLength="32.1094" x="135.3077" y="396.1016">TRIAL</text><rect fill="#FFFFFF" height="40" rx="4" ry="4" style="stroke:#000000;stroke-width:1;" width="72.7305" x="115.0024" y="489"/><text fill="#000000" font-family="Roboto,sans-serif" font-size="12" lengthAdjust="spacing" textLength="62.7305" x="120.0024" y="513.1016">UPDATED &#8225;</text><rect fill="#FFFFFF" height="40" rx="4" ry="4" style="stroke:#000000;stroke-width:1;" width="50" x="260.3624" y="489"/><text fill="#000000" font-family="Roboto,sans-serif" font-size="12" lengthAdjust="spacing" textLength="37.125" x="266.7999" y="513.1016">READY</text><!--link Start to Writing--><g class="link" data-entity-1="Start" data-entity-2="Writing" data-source-line="29" data-uid="lnk2" id="link_Start_Writing"><path d="M149.1324,47.25 C133.4424,68.48 111.9093,97.6153 96.1993,118.8653" fill="none" id="Start-to-Writing" style="stroke:#0000FF;stroke-width:1;"/><polygon fill="#0000FF" points="92.6324,123.69,101.1992,118.8309,95.6048,119.6694,94.7663,114.0751,92.6324,123.69" style="stroke:#0000FF;stroke-width:1;"/><text fill="#000000" font-family="Roboto Mono,monospace" font-size="12" lengthAdjust="spacing" textLength="36.0059" x="126.9524" y="90.5742">start</text></g><!--link Writing to Writing--><g class="link" data-entity-1="Writing" data-entity-2="Writing" data-source-line="30" data-uid="lnk3" id="link_Writing_Writing"><path d="M112.8124,133.45 C130.9524,131.74 147.3924,135.26 147.3924,144 C147.3924,152.74 136.9259,156.8231 118.7859,155.1131" fill="none" id="Writing-to-Writing" style="stroke:#0000FF;stroke-width:1;"/><polygon fill="#0000FF" points="112.8124,154.55,121.3973,159.377,117.7904,155.0193,122.1481,151.4123,112.8124,154.55" style="stroke:#0000FF;stroke-width:1;"/><text fill="#000000" font-family="Roboto Mono,monospace" font-size="12" lengthAdjust="spacing" textLength="36.0059" x="153.3924" y="149.0742">write</text></g><!--link Writing to Candidate--><g class="link" data-entity-1="Writing" data-entity-2="Candidate" data-source-line="31" data-uid="lnk4" id="link_Writing_Candidate"><path d="M78.3624,164.25 C78.3624,185.48 78.3624,213.44 78.3624,234.69" fill="none" id="Writing-to-Candidate" style="stroke:#0000FF;stroke-width:1;"/><polygon fill="#0000FF" points="78.3624,240.69,82.3624,231.69,78.3624,235.69,74.3624,231.69,78.3624,240.69" style="stroke:#0000FF;stroke-width:1;"/><text fill="#000000" font-family="Roboto Mono,monospace" font-size="12" lengthAdjust="spacing" textLength="43.207" x="79.3624" y="207.5742">finish</text></g><!--link Writing to Failed--><g class="link" data-entity-1="Writing" data-entity-2="Failed" data-source-line="32" data-uid="lnk5" id="link_Writing_Failed"><path d="M102.8024,164.25 C129.7524,185.48 168.1489,215.7275 195.1289,236.9775" fill="none" id="Writing-to-Failed" style="stroke:#0000FF;stroke-width:1;"/><polygon fill="#0000FF" points="199.8424,240.69,195.2471,231.9789,195.9145,237.5963,190.2971,238.2636,199.8424,240.69" style="stroke:#0000FF;stroke-width:1;"/><text fill="#000000" font-family="Roboto Mono,monospace" font-size="12" lengthAdjust="spacing" textLength="43.207" x="161.1024" y="207.5742">cancel</text></g><!--link Candidate to Trial--><g class="link" data-entity-1="Candidate" data-entity-2="Trial" data-source-line="33" data-uid="lnk6" id="link_Candidate_Trial"><path d="M79.3924,281.32 C81.0424,298.32 85.3124,323.23 96.3624,342 C103.6924,354.45 110.5653,361.7394 121.2053,370.1494" fill="none" id="Candidate-to-Trial" style="stroke:#8B0000;stroke-width:1;"/><polygon fill="#8B0000" points="125.9124,373.87,121.3321,365.151,121.9898,370.7695,116.3713,371.4272,125.9124,373.87" style="stroke:#8B0000;stroke-width:1;"/><text fill="#000000" font-family="Roboto Mono,monospace" font-size="12" lengthAdjust="spacing" textLength="50.4082" x="109.1075" y="324.5742">install</text><text fill="#000000" font-family="Roboto,sans-serif" font-size="12" lengthAdjust="spacing" textLength="2.9063" x="159.5157" y="324.8965">:</text><text fill="#000000" font-family="Roboto,sans-serif" font-size="12" font-style="italic" lengthAdjust="spacing" textLength="76.8047" x="97.3624" y="338.959">install success</text></g><!--link Candidate to Failed--><g class="link" data-entity-1="Candidate" data-entity-2="Failed" data-source-line="34" data-uid="lnk7" id="link_Candidate_Failed"><path d="M116.3424,261 C140.8424,261 166.2424,261 188.8724,261" fill="none" id="Candidate-to-Failed" style="stroke:#0000FF;stroke-width:1;"/><polygon fill="#0000FF" points="194.8724,261,185.8724,257,189.8724,261,185.8724,265,194.8724,261" style="stroke:#0000FF;stroke-width:1;"/><text fill="#000000" font-family="Roboto Mono,monospace" font-size="12" lengthAdjust="spacing" textLength="43.207" x="133.9424" y="254.5742">cancel</text></g><!--link Trial to Updated--><g class="link" data-entity-1="Trial" data-entity-2="Updated" data-source-line="36" data-uid="lnk8" id="link_Trial_Updated"><path d="M151.3624,412.25 C151.3624,433.48 151.3624,461.44 151.3624,482.69" fill="none" id="Trial-to-Updated" style="stroke:#8B0000;stroke-width:1;"/><polygon fill="#8B0000" points="151.3624,488.69,155.3624,479.69,151.3624,483.69,147.3624,479.69,151.3624,488.69" style="stroke:#8B0000;stroke-width:1;"/><text fill="#000000" font-family="Roboto Mono,monospace" font-size="12" lengthAdjust="spacing" textLength="43.207" x="152.3624" y="455.5742">accept</text></g><!--reverse link Start to Failed--><g class="link" data-entity-1="Start" data-entity-2="Failed" data-source-line="38" data-uid="lnk10" id="link_Start_Failed"><path d="M172.6616,52.9519 C179.7416,72.2219 188.4924,97.11 196.3624,124 C205.3524,154.73 206.9524,162.63 213.3624,194 C216.5524,209.59 219.4824,227.4 221.5124,240.58" fill="none" id="Start-backto-Failed" style="stroke:#0000FF;stroke-width:1;"/><polygon fill="#0000FF" points="170.5924,47.32,169.9417,57.1473,172.3168,52.0133,177.4509,54.3884,170.5924,47.32" style="stroke:#0000FF;stroke-width:1;"/><text fill="#000000" font-family="Roboto Mono,monospace" font-size="12" lengthAdjust="spacing" textLength="36.0059" x="208.0524" y="149.0742">clean</text></g><!--reverse link Failed to Trial--><g class="link" data-entity-1="Failed" data-entity-2="Trial" data-source-line="39" data-uid="lnk12" id="link_Failed_Trial"><path d="M210.4778,286.5321 C196.7178,310.8521 176.1624,347.17 162.3624,371.56" fill="none" id="Failed-backto-Trial" style="stroke:#8B0000;stroke-width:1;"/><polygon fill="#8B0000" points="213.4324,281.31,205.5191,287.1734,210.9702,285.6617,212.4819,291.1129,213.4324,281.31" style="stroke:#8B0000;stroke-width:1;"/><text fill="#000000" font-family="Roboto Mono,monospace" font-size="12" lengthAdjust="spacing" textLength="43.207" x="197.5524" y="331.5742">reject</text></g><!--link Updated to End--><g class="link" data-entity-1="Updated" data-entity-2="End" data-source-line="41" data-uid="lnk13" id="link_Updated_End"><path d="M187.9824,509 C210.9124,509 233.8824,509 254.2424,509" fill="none" id="Updated-to-End" style="stroke:#0000FF;stroke-width:1;"/><polygon fill="#0000FF" points="260.2424,509,251.2424,505,255.2424,509,251.2424,513,260.2424,509" style="stroke:#0000FF;stroke-width:1;"/><text fill="#000000" font-family="Roboto Mono,monospace" font-size="12" lengthAdjust="spacing" textLength="36.0059" x="206.0424" y="502.5742">clean</text></g><rect fill="#E8E8E8" height="115.4922" rx="4" ry="4" style="stroke:#000000;stroke-width:1;" width="312.2148" x="12" y="546"/><text fill="#000000" font-family="Roboto,sans-serif" font-size="12" font-weight="bold" lengthAdjust="spacing" textLength="61.2188" x="17" y="562.1328">Transitions</text><text fill="#0000FF" font-family="Roboto Mono,monospace" font-size="12" lengthAdjust="spacing" text-decoration="line-through" textLength="21.6035" x="17" y="577.6367">&#8212;&#8212;&#8212;</text><text fill="#000000" font-family="Roboto,sans-serif" font-size="12" lengthAdjust="spacing" textLength="161.4316" x="41.5801" y="577.959">Applies to a single component</text><text fill="#8B0000" font-family="Roboto Mono,monospace" font-size="12" lengthAdjust="spacing" text-decoration="line-through" textLength="21.6035" x="17" y="593.4629">&#8212;&#8212;&#8212;</text><text fill="#000000" font-family="Roboto,sans-serif" font-size="12" lengthAdjust="spacing" textLength="138.7266" x="41.5801" y="593.7852">Applies to all components</text><text fill="#000000" font-family="Roboto,sans-serif" font-size="12" lengthAdjust="spacing" textLength="2.9766" x="17" y="607.8477">&#160;</text><text fill="#000000" font-family="Roboto,sans-serif" font-size="12" font-weight="bold" lengthAdjust="spacing" textLength="77.4375" x="17" y="621.9102">Volatile states</text><text fill="#000000" font-family="Roboto Mono,monospace" font-size="12" lengthAdjust="spacing" textLength="7.2012" x="24.2012" y="637.4141">&#8224;</text><text fill="#000000" font-family="Roboto,sans-serif" font-size="12" lengthAdjust="spacing" textLength="47.6602" x="41.5801" y="637.7363">Optional:</text><text fill="#000000" font-family="Roboto,sans-serif" font-size="12" font-weight="bold" lengthAdjust="spacing" textLength="35.2324" x="92.2168" y="637.7363">reboot</text><text fill="#000000" font-family="Roboto,sans-serif" font-size="12" lengthAdjust="spacing" textLength="80.7246" x="130.4258" y="637.7363">is equivalent to</text><text fill="#000000" font-family="Roboto Mono,monospace" font-size="12" lengthAdjust="spacing" textLength="43.207" x="214.127" y="637.4141">cancel</text><text fill="#000000" font-family="Roboto,sans-serif" font-size="12" lengthAdjust="spacing" textLength="19.9219" x="260.3105" y="637.7363">and</text><text fill="#000000" font-family="Roboto Mono,monospace" font-size="12" lengthAdjust="spacing" textLength="36.0059" x="283.209" y="637.4141">clean</text><text fill="#000000" font-family="Roboto Mono,monospace" font-size="12" lengthAdjust="spacing" textLength="7.2012" x="24.2012" y="653.2402">&#8225;</text><text fill="#000000" font-family="Roboto,sans-serif" font-size="12" lengthAdjust="spacing" textLength="47.6602" x="41.5801" y="653.5625">Optional:</text><text fill="#000000" font-family="Roboto,sans-serif" font-size="12" font-weight="bold" lengthAdjust="spacing" textLength="35.2324" x="92.2168" y="653.5625">reboot</text><text fill="#000000" font-family="Roboto,sans-serif" font-size="12" lengthAdjust="spacing" textLength="80.7246" x="130.4258" y="653.5625">is equivalent to</text><text fill="#000000" font-family="Roboto Mono,monospace" font-size="12" lengthAdjust="spacing" textLength="36.0059" x="214.127" y="653.2402">clean</text></g></svg>