<svg xmlns="http://www.w3.org/2000/svg" xmlns:xlink="http://www.w3.org/1999/xlink" contentStyleType="text/css" data-diagram-type="STATE" height="697px" preserveAspectRatio="none" style="width:337px;height:697px;background:#FFFFFF55;" version="1.1" viewBox="0 0 337 697" width="337px" zoomAndPan="magnify"><defs><style type="text/css">@import url('https://fonts.googleapis.com/css?family=Roboto:400,100,100italic,300,300italic,400italic,500,500italic,700,700italic,900,900italic');</style></defs><g><rect fill="#FFFFFF" fill-opacity="0.33333" height="697" style="stroke:none;stroke-width:1;" width="337" x="0" y="0"/><rect fill="#FFFFFF" height="40" rx="4" ry="4" style="stroke:#000000;stroke-width:1;" width="50" x="136.4665" y="7"/><text fill="#000000" font-family="Roboto,sans-serif" font-size="12" lengthAdjust="spacing" textLength="37.125" x="142.904" y="31.1016">READY</text><rect fill="#FFFFFF" height="40" rx="4" ry="4" style="stroke:#000000;stroke-width:1;" width="68.0605" x="42.4365" y="124"/><text fill="#000000" font-family="Roboto,sans-serif" font-size="12" lengthAdjust="spacing" textLength="58.0605" x="47.4365" y="148.1016">WRITING &#8224;</text><rect fill="#FFFFFF" height="40" rx="4" ry="4" style="stroke:#000000;stroke-width:1;" width="84.6191" x="34.1565" y="241"/><text fill="#000000" font-family="Roboto,sans-serif" font-size="12" lengthAdjust="spacing" textLength="74.6191" x="39.1565" y="265.1016">CANDIDATE &#8224;</text><rect fill="#FFFFFF" height="40" rx="4" ry="4" style="stroke:#000000;stroke-width:1;" width="58.7031" x="198.1165" y="241"/><text fill="#000000" font-family="Roboto,sans-serif" font-size="12" lengthAdjust="spacing" textLength="48.7031" x="203.1165" y="265.1016">FAILED &#8225;</text><rect fill="#FFFFFF" height="40" rx="4" ry="4" style="stroke:#000000;stroke-width:1;" width="50.2539" x="126.3365" y="372"/><text fill="#000000" font-family="Roboto,sans-serif" font-size="12" lengthAdjust="spacing" textLength="40.2539" x="131.3365" y="396.1016">TRIAL *</text><rect fill="#FFFFFF" height="40" rx="4" ry="4" style="stroke:#000000;stroke-width:1;" width="72.7305" x="115.0965" y="489"/><text fill="#000000" font-family="Roboto,sans-serif" font-size="12" lengthAdjust="spacing" textLength="62.7305" x="120.0965" y="513.1016">UPDATED &#8225;</text><rect fill="#FFFFFF" height="40" rx="4" ry="4" style="stroke:#000000;stroke-width:1;" width="50" x="260.4665" y="489"/><text fill="#000000" font-family="Roboto,sans-serif" font-size="12" lengthAdjust="spacing" textLength="37.125" x="266.904" y="513.1016">READY</text><!--link Start to Writing--><g class="link" data-entity-1="Start" data-entity-2="Writing" data-source-line="30" data-uid="lnk2" id="link_Start_Writing"><path d="M147.2365,47.25 C131.5465,68.48 110.0134,97.6153 94.3034,118.8653" fill="none" id="Start-to-Writing" style="stroke:#0000FF;stroke-width:1;"/><polygon fill="#0000FF" points="90.7365,123.69,99.3033,118.8309,93.7089,119.6694,92.8704,114.0751,90.7365,123.69" style="stroke:#0000FF;stroke-width:1;"/><text fill="#000000" font-family="Roboto Mono,monospace" font-size="12" lengthAdjust="spacing" textLength="36.0059" x="125.0565" y="90.5742">start</text></g><!--link Writing to Writing--><g class="link" data-entity-1="Writing" data-entity-2="Writing" data-source-line="31" data-uid="lnk3" id="link_Writing_Writing"><path d="M110.9165,133.45 C129.0565,131.74 145.4965,135.26 145.4965,144 C145.4965,152.74 135.03,156.8231 116.89,155.1131" fill="none" id="Writing-to-Writing" style="stroke:#0000FF;stroke-width:1;"/><polygon fill="#0000FF" points="110.9165,154.55,119.5014,159.377,115.8945,155.0193,120.2522,151.4123,110.9165,154.55" style="stroke:#0000FF;stroke-width:1;"/><text fill="#000000" font-family="Roboto Mono,monospace" font-size="12" lengthAdjust="spacing" textLength="36.0059" x="151.4965" y="149.0742">write</text></g><!--link Writing to Candidate--><g class="link" data-entity-1="Writing" data-entity-2="Candidate" data-source-line="32" data-uid="lnk4" id="link_Writing_Candidate"><path d="M76.4665,164.25 C76.4665,185.48 76.4665,213.44 76.4665,234.69" fill="none" id="Writing-to-Candidate" style="stroke:#0000FF;stroke-width:1;"/><polygon fill="#0000FF" points="76.4665,240.69,80.4665,231.69,76.4665,235.69,72.4665,231.69,76.4665,240.69" style="stroke:#0000FF;stroke-width:1;"/><text fill="#000000" font-family="Roboto Mono,monospace" font-size="12" lengthAdjust="spacing" textLength="43.207" x="77.4665" y="207.5742">finish</text></g><!--link Writing to Failed--><g class="link" data-entity-1="Writing" data-entity-2="Failed" data-source-line="33" data-uid="lnk5" id="link_Writing_Failed"><path d="M101.7365,164.25 C129.6165,185.48 169.4333,215.8045 197.3333,237.0545" fill="none" id="Writing-to-Failed" style="stroke:#0000FF;stroke-width:1;"/><polygon fill="#0000FF" points="202.1065,240.69,197.3704,232.0547,198.1289,237.6604,192.5231,238.4189,202.1065,240.69" style="stroke:#0000FF;stroke-width:1;"/><text fill="#000000" font-family="Roboto Mono,monospace" font-size="12" lengthAdjust="spacing" textLength="43.207" x="162.0065" y="207.5742">cancel</text></g><!--link Candidate to Trial--><g class="link" data-entity-1="Candidate" data-entity-2="Trial" data-source-line="34" data-uid="lnk6" id="link_Candidate_Trial"><path d="M78.3965,281.31 C80.7965,298.31 86.0665,323.22 97.4665,342 C104.6865,353.91 111.0375,360.8249 121.2175,369.1749" fill="none" id="Candidate-to-Trial" style="stroke:#8B0000;stroke-width:1;"/><polygon fill="#8B0000" points="125.8565,372.98,121.4347,364.1796,121.9906,369.8091,116.3612,370.365,125.8565,372.98" style="stroke:#8B0000;stroke-width:1;"/><text fill="#000000" font-family="Roboto Mono,monospace" font-size="12" lengthAdjust="spacing" textLength="50.4082" x="110.2116" y="324.5742">install</text><text fill="#000000" font-family="Roboto,sans-serif" font-size="12" lengthAdjust="spacing" textLength="2.9063" x="160.6198" y="324.8965">:</text><text fill="#000000" font-family="Roboto,sans-serif" font-size="12" font-style="italic" lengthAdjust="spacing" textLength="76.8047" x="98.4665" y="338.959">install success</text></g><!--link Candidate to Failed--><g class="link" data-entity-1="Candidate" data-entity-2="Failed" data-source-line="35" data-uid="lnk7" id="link_Candidate_Failed"><path d="M118.9265,261 C144.0565,261 169.2565,261 191.7465,261" fill="none" id="Candidate-to-Failed" style="stroke:#0000FF;stroke-width:1;"/><polygon fill="#0000FF" points="197.7465,261,188.7465,257,192.7465,261,188.7465,265,197.7465,261" style="stroke:#0000FF;stroke-width:1;"/><text fill="#000000" font-family="Roboto Mono,monospace" font-size="12" lengthAdjust="spacing" textLength="43.207" x="136.9465" y="254.5742">cancel</text></g><!--link Trial to Updated--><g class="link" data-entity-1="Trial" data-entity-2="Updated" data-source-line="37" data-uid="lnk8" id="link_Trial_Updated"><path d="M151.4665,412.25 C151.4665,433.48 151.4665,461.44 151.4665,482.69" fill="none" id="Trial-to-Updated" style="stroke:#8B0000;stroke-width:1;"/><polygon fill="#8B0000" points="151.4665,488.69,155.4665,479.69,151.4665,483.69,147.4665,479.69,151.4665,488.69" style="stroke:#8B0000;stroke-width:1;"/><text fill="#000000" font-family="Roboto Mono,monospace" font-size="12" lengthAdjust="spacing" textLength="43.207" x="152.4665" y="455.5742">accept</text></g><!--reverse link Start to Failed--><g class="link" data-entity-1="Start" data-entity-2="Failed" data-source-line="39" data-uid="lnk10" id="link_Start_Failed"><path d="M170.7379,53.0484 C181.9179,83.7784 201.4665,140.03 214.4665,194 C218.2165,209.55 221.6765,227.36 224.0765,240.56" fill="none" id="Start-backto-Failed" style="stroke:#0000FF;stroke-width:1;"/><polygon fill="#0000FF" points="168.6865,47.41,168.0046,57.2352,170.396,52.1087,175.5225,54.5001,168.6865,47.41" style="stroke:#0000FF;stroke-width:1;"/><text fill="#000000" font-family="Roboto Mono,monospace" font-size="12" lengthAdjust="spacing" textLength="36.0059" x="207.4365" y="149.0742">clean</text></g><!--reverse link Failed to Trial--><g class="link" data-entity-1="Failed" data-entity-2="Trial" data-source-line="40" data-uid="lnk12" id="link_Failed_Trial"><path d="M213.0406,286.4794 C198.7106,310.7994 177.2865,347.17 162.9265,371.56" fill="none" id="Failed-backto-Trial" style="stroke:#8B0000;stroke-width:1;"/><polygon fill="#8B0000" points="216.0865,281.31,208.0714,287.0334,213.5482,285.6178,214.9639,291.0947,216.0865,281.31" style="stroke:#8B0000;stroke-width:1;"/><text fill="#000000" font-family="Roboto Mono,monospace" font-size="12" lengthAdjust="spacing" textLength="43.207" x="199.5065" y="331.5742">reject</text></g><!--link Updated to End--><g class="link" data-entity-1="Updated" data-entity-2="End" data-source-line="42" data-uid="lnk13" id="link_Updated_End"><path d="M188.0865,509 C211.0165,509 233.9865,509 254.3365,509" fill="none" id="Updated-to-End" style="stroke:#0000FF;stroke-width:1;"/><polygon fill="#0000FF" points="260.3365,509,251.3365,505,255.3365,509,251.3365,513,260.3365,509" style="stroke:#0000FF;stroke-width:1;"/><text fill="#000000" font-family="Roboto Mono,monospace" font-size="12" lengthAdjust="spacing" textLength="36.0059" x="206.1465" y="502.5742">clean</text></g><rect fill="#E8E8E8" height="131.3184" rx="4" ry="4" style="stroke:#000000;stroke-width:1;" width="305.623" x="12" y="546"/><text fill="#000000" font-family="Roboto,sans-serif" font-size="12" font-weight="bold" lengthAdjust="spacing" textLength="61.2188" x="17" y="562.1328">Transitions</text><text fill="#0000FF" font-family="Roboto Mono,monospace" font-size="12" lengthAdjust="spacing" text-decoration="line-through" textLength="21.6035" x="17" y="577.6367">&#8212;&#8212;&#8212;</text><text fill="#000000" font-family="Roboto,sans-serif" font-size="12" lengthAdjust="spacing" textLength="161.4316" x="41.5801" y="577.959">Applies to a single component</text><text fill="#8B0000" font-family="Roboto Mono,monospace" font-size="12" lengthAdjust="spacing" text-decoration="line-through" textLength="21.6035" x="17" y="593.4629">&#8212;&#8212;&#8212;</text><text fill="#000000" font-family="Roboto,sans-serif" font-size="12" lengthAdjust="spacing" textLength="138.7266" x="41.5801" y="593.7852">Applies to all components</text><text fill="#000000" font-family="Roboto,sans-serif" font-size="12" lengthAdjust="spacing" textLength="2.9766" x="17" y="607.8477">&#160;</text><text fill="#000000" font-family="Roboto,sans-serif" font-size="12" font-weight="bold" lengthAdjust="spacing" textLength="77.4375" x="17" y="621.9102">Volatile states</text><text fill="#000000" font-family="Roboto Mono,monospace" font-size="12" lengthAdjust="spacing" textLength="7.2012" x="24.2012" y="637.4141">*</text><text fill="#000000" font-family="Roboto,sans-serif" font-size="12" lengthAdjust="spacing" textLength="41.0684" x="41.5801" y="637.7363">Always:</text><text fill="#000000" font-family="Roboto,sans-serif" font-size="12" font-weight="bold" lengthAdjust="spacing" textLength="35.2324" x="85.625" y="637.7363">reboot</text><text fill="#000000" font-family="Roboto,sans-serif" font-size="12" lengthAdjust="spacing" textLength="80.7246" x="123.834" y="637.7363">is equivalent to</text><text fill="#000000" font-family="Roboto Mono,monospace" font-size="12" lengthAdjust="spacing" textLength="43.207" x="207.5352" y="637.4141">reject</text><text fill="#000000" font-family="Roboto,sans-serif" font-size="12" lengthAdjust="spacing" textLength="19.9219" x="253.7188" y="637.7363">and</text><text fill="#000000" font-family="Roboto Mono,monospace" font-size="12" lengthAdjust="spacing" textLength="36.0059" x="276.6172" y="637.4141">clean</text><text fill="#000000" font-family="Roboto Mono,monospace" font-size="12" lengthAdjust="spacing" textLength="7.2012" x="24.2012" y="653.2402">&#8224;</text><text fill="#000000" font-family="Roboto,sans-serif" font-size="12" lengthAdjust="spacing" textLength="41.0684" x="41.5801" y="653.5625">Always:</text><text fill="#000000" font-family="Roboto,sans-serif" font-size="12" font-weight="bold" lengthAdjust="spacing" textLength="35.2324" x="85.625" y="653.5625">reboot</text><text fill="#000000" font-family="Roboto,sans-serif" font-size="12" lengthAdjust="spacing" textLength="80.7246" x="123.834" y="653.5625">is equivalent to</text><text fill="#000000" font-family="Roboto Mono,monospace" font-size="12" lengthAdjust="spacing" textLength="43.207" x="207.5352" y="653.2402">cancel</text><text fill="#000000" font-family="Roboto,sans-serif" font-size="12" lengthAdjust="spacing" textLength="19.9219" x="253.7188" y="653.5625">and</text><text fill="#000000" font-family="Roboto Mono,monospace" font-size="12" lengthAdjust="spacing" textLength="36.0059" x="276.6172" y="653.2402">clean</text><text fill="#000000" font-family="Roboto Mono,monospace" font-size="12" lengthAdjust="spacing" textLength="7.2012" x="24.2012" y="669.0664">&#8225;</text><text fill="#000000" font-family="Roboto,sans-serif" font-size="12" lengthAdjust="spacing" textLength="41.0684" x="41.5801" y="669.3887">Always:</text><text fill="#000000" font-family="Roboto,sans-serif" font-size="12" font-weight="bold" lengthAdjust="spacing" textLength="35.2324" x="85.625" y="669.3887">reboot</text><text fill="#000000" font-family="Roboto,sans-serif" font-size="12" lengthAdjust="spacing" textLength="80.7246" x="123.834" y="669.3887">is equivalent to</text><text fill="#000000" font-family="Roboto Mono,monospace" font-size="12" lengthAdjust="spacing" textLength="36.0059" x="207.5352" y="669.0664">clean</text></g></svg>