<?xml version="1.0" encoding="UTF-8" standalone="no"?><svg xmlns="http://www.w3.org/2000/svg" xmlns:xlink="http://www.w3.org/1999/xlink" contentStyleType="text/css" height="623px" preserveAspectRatio="none" style="width:361px;height:623px;background:#FFFFFF;" version="1.1" viewBox="0 0 361 623" width="361px" zoomAndPan="magnify"><defs/><g><rect fill="#FFFFFF" height="40" rx="12.5" ry="12.5" style="stroke:#000000;stroke-width:1.0;" width="50" x="175.5" y="7"/><text fill="#000000" font-family="Lato,sans-serif" font-size="12" lengthAdjust="spacing" textLength="40" x="180.5" y="31.6414">READY</text><rect fill="#FFFFFF" height="40" rx="12.5" ry="12.5" style="stroke:#000000;stroke-width:1.0;" width="72" x="78.5" y="123"/><text fill="#000000" font-family="Lato,sans-serif" font-size="12" lengthAdjust="spacing" textLength="62" x="83.5" y="147.6414">WRITING †</text><rect fill="#FFFFFF" height="40" rx="12.5" ry="12.5" style="stroke:#000000;stroke-width:1.0;" width="88" x="70.5" y="239"/><text fill="#000000" font-family="Lato,sans-serif" font-size="12" lengthAdjust="spacing" textLength="78" x="75.5" y="263.6414">CANDIDATE †</text><rect fill="#FFFFFF" height="40" rx="12.5" ry="12.5" style="stroke:#000000;stroke-width:1.0;" width="60" x="237.5" y="239"/><text fill="#000000" font-family="Lato,sans-serif" font-size="12" lengthAdjust="spacing" textLength="50" x="242.5" y="263.6414">FAILED ‡</text><rect fill="#FFFFFF" height="40" rx="12.5" ry="12.5" style="stroke:#000000;stroke-width:1.0;" width="75" x="77" y="369"/><text fill="#000000" font-family="Lato,sans-serif" font-size="12" lengthAdjust="spacing" textLength="65" x="82" y="393.6414">UPDATED ‡</text><rect fill="#FFFFFF" height="40" rx="12.5" ry="12.5" style="stroke:#000000;stroke-width:1.0;" width="50" x="89.5" y="485"/><text fill="#000000" font-family="Lato,sans-serif" font-size="12" lengthAdjust="spacing" textLength="40" x="94.5" y="509.6414">READY</text><!--MD5=[28b091a9324bc665227cbdd5c64568c5]
link Start to Writing--><g id="link_Start_Writing"><path d="M186.11,47.08 C171.22,66.81 147.97,97.63 132.03,118.76 " fill="none" id="Start-to-Writing" style="stroke:#0000FF;stroke-width:1.0;"/><polygon fill="#0000FF" points="128.94,122.86,137.5591,118.0945,131.956,118.872,131.1784,113.2689,128.94,122.86" style="stroke:#0000FF;stroke-width:1.0;"/><text fill="#000000" font-family="Consolas,Menlo,monospace" font-size="12" lengthAdjust="spacing" textLength="35" x="164.5" y="89.9883">start</text></g><!--MD5=[809ec20dfa1295c4642186e63aa045f8]
link Writing to Writing--><g id="link_Writing_Writing"><path d="M150.67,132.48 C169.03,130.94 185.5,134.45 185.5,143 C185.5,150.75 171.98,154.36 155.77,153.82 " fill="none" id="Writing-to-Writing" style="stroke:#0000FF;stroke-width:1.0;"/><polygon fill="#0000FF" points="150.67,153.52,159.4264,158.0284,155.6618,153.8061,159.8841,150.0415,150.67,153.52" style="stroke:#0000FF;stroke-width:1.0;"/><text fill="#000000" font-family="Consolas,Menlo,monospace" font-size="12" lengthAdjust="spacing" textLength="35" x="191.5" y="147.9883">write</text></g><!--MD5=[c452d5c1487cc0f2a16ec09e1ebeb498]
link Writing to Candidate--><g id="link_Writing_Candidate"><path d="M114.5,163.08 C114.5,182.48 114.5,212.61 114.5,233.7 " fill="none" id="Writing-to-Candidate" style="stroke:#0000FF;stroke-width:1.0;"/><polygon fill="#0000FF" points="114.5,238.86,118.5,229.86,114.5,233.86,110.5,229.86,114.5,238.86" style="stroke:#0000FF;stroke-width:1.0;"/><text fill="#000000" font-family="Consolas,Menlo,monospace" font-size="12" lengthAdjust="spacing" textLength="42" x="115.5" y="205.9883">finish</text></g><!--MD5=[1e580f2a5c35a06e4aed74591dc8f2d0]
link Writing to Failed--><g id="link_Writing_Failed"><path d="M140.11,163.08 C167.03,183.14 209.33,214.66 237.72,235.81 " fill="none" id="Writing-to-Failed" style="stroke:#0000FF;stroke-width:1.0;"/><polygon fill="#0000FF" points="241.81,238.86,236.9903,230.271,237.8031,235.8692,232.205,236.682,241.81,238.86" style="stroke:#0000FF;stroke-width:1.0;"/><text fill="#000000" font-family="Consolas,Menlo,monospace" font-size="12" lengthAdjust="spacing" textLength="42" x="200.5" y="205.9883">cancel</text></g><!--MD5=[39663e6301ccb4f092a8fe255e191b3e]
link Candidate to Updated--><g id="link_Candidate_Updated"><path d="M114.5,279.16 C114.5,301.69 114.5,339.11 114.5,363.67 " fill="none" id="Candidate-to-Updated" style="stroke:#8B0000;stroke-width:1.0;"/><polygon fill="#8B0000" points="114.5,368.71,118.5,359.71,114.5,363.71,110.5,359.71,114.5,368.71" style="stroke:#8B0000;stroke-width:1.0;"/><text fill="#000000" font-family="Consolas,Menlo,monospace" font-size="12" lengthAdjust="spacing" textLength="49" x="124" y="322.3296">install</text><text fill="#000000" font-family="Lato,sans-serif" font-size="12" lengthAdjust="spacing" textLength="3" x="173" y="321.8375">:</text><text fill="#000000" font-family="Lato,sans-serif" font-size="12" font-style="italic" lengthAdjust="spacing" textLength="69" x="115.5" y="336.2296">install success</text></g><!--MD5=[6e8b06a321fbf587dbbb055d0b4e0f9e]
link Candidate to Failed--><g id="link_Candidate_Failed"><path d="M158.75,259 C182.12,259 210.4,259 232.27,259 " fill="none" id="Candidate-to-Failed" style="stroke:#0000FF;stroke-width:1.0;"/><polygon fill="#0000FF" points="237.39,259,228.39,255,232.39,259,228.39,263,237.39,259" style="stroke:#0000FF;stroke-width:1.0;"/><text fill="#000000" font-family="Consolas,Menlo,monospace" font-size="12" lengthAdjust="spacing" textLength="42" x="177" y="252.9883">cancel</text></g><!--MD5=[71ab68107f7e180decc84935bd3705da]
reverse link Start to Failed--><g id="link_Start_Failed"><path d="M209.56,52.29 C216.53,71.38 226.17,98.71 233.5,123 C242.78,153.75 243.66,161.85 251.5,193 C255.39,208.44 259.69,225.97 262.86,238.93 " fill="none" id="Start-backto-Failed" style="stroke:#0000FF;stroke-width:1.0;"/><polygon fill="#0000FF" points="207.67,47.13,207.0057,56.9564,209.3879,51.8256,214.5187,54.2078,207.67,47.13" style="stroke:#0000FF;stroke-width:1.0;"/><text fill="#000000" font-family="Consolas,Menlo,monospace" font-size="12" lengthAdjust="spacing" textLength="35" x="244.5" y="147.9883">clean</text></g><!--MD5=[43a8c4662c8a2715cf5aeba88f635b26]
link Updated to End--><g id="link_Updated_End"><path d="M114.5,409.08 C114.5,428.48 114.5,458.61 114.5,479.7 " fill="none" id="Updated-to-End" style="stroke:#0000FF;stroke-width:1.0;"/><polygon fill="#0000FF" points="114.5,484.86,118.5,475.86,114.5,479.86,110.5,475.86,114.5,484.86" style="stroke:#0000FF;stroke-width:1.0;"/><text fill="#000000" font-family="Consolas,Menlo,monospace" font-size="12" lengthAdjust="spacing" textLength="35" x="115.5" y="451.9883">clean</text></g><rect fill="#DDDDDD" height="69.5684" id="_legend" rx="7.5" ry="7.5" style="stroke:#000000;stroke-width:1.0;" width="337" x="8" y="538"/><text fill="#0000FF" font-family="Consolas,Menlo,monospace" font-size="12" lengthAdjust="spacing" text-decoration="line-through" textLength="21" x="14" y="556.3296">———</text><text fill="#000000" font-family="Lato,sans-serif" font-size="12" lengthAdjust="spacing" textLength="229" x="37" y="555.8375">Blue transitions apply to a single component</text><text fill="#8B0000" font-family="Consolas,Menlo,monospace" font-size="12" lengthAdjust="spacing" text-decoration="line-through" textLength="21" x="14" y="570.7217">———</text><text fill="#000000" font-family="Lato,sans-serif" font-size="12" lengthAdjust="spacing" textLength="205" x="37" y="570.2296">Red transitions apply to all components</text><text fill="#000000" font-family="Consolas,Menlo,monospace" font-size="12" lengthAdjust="spacing" textLength="7" x="21" y="585.1138">†</text><text fill="#000000" font-family="Lato,sans-serif" font-size="12" lengthAdjust="spacing" textLength="80" x="37" y="584.6217">Transient state:</text><text fill="#000000" font-family="Lato,sans-serif" font-size="12" font-weight="bold" lengthAdjust="spacing" textLength="37" x="119" y="584.6217">reboot</text><text fill="#000000" font-family="Lato,sans-serif" font-size="12" lengthAdjust="spacing" textLength="78" x="158" y="584.6217">is equivalent to</text><text fill="#000000" font-family="Consolas,Menlo,monospace" font-size="12" lengthAdjust="spacing" textLength="42" x="238" y="585.1138">cancel</text><text fill="#000000" font-family="Lato,sans-serif" font-size="12" lengthAdjust="spacing" textLength="20" x="282" y="584.6217">and</text><text fill="#000000" font-family="Consolas,Menlo,monospace" font-size="12" lengthAdjust="spacing" textLength="35" x="304" y="585.1138">clean</text><text fill="#000000" font-family="Consolas,Menlo,monospace" font-size="12" lengthAdjust="spacing" textLength="7" x="21" y="599.5059">‡</text><text fill="#000000" font-family="Lato,sans-serif" font-size="12" lengthAdjust="spacing" textLength="80" x="37" y="599.0138">Transient state:</text><text fill="#000000" font-family="Lato,sans-serif" font-size="12" font-weight="bold" lengthAdjust="spacing" textLength="37" x="119" y="599.0138">reboot</text><text fill="#000000" font-family="Lato,sans-serif" font-size="12" lengthAdjust="spacing" textLength="78" x="158" y="599.0138">is equivalent to</text><text fill="#000000" font-family="Consolas,Menlo,monospace" font-size="12" lengthAdjust="spacing" textLength="35" x="238" y="599.5059">clean</text></g></svg>