<svg xmlns="http://www.w3.org/2000/svg" xmlns:xlink="http://www.w3.org/1999/xlink" contentStyleType="text/css" data-diagram-type="STATE" height="564px" preserveAspectRatio="none" style="width:344px;height:564px;background:#FFFFFF55;" version="1.1" viewBox="0 0 344 564" width="344px" zoomAndPan="magnify"><defs><style type="text/css">@import url('https://fonts.googleapis.com/css?family=Roboto:400,100,100italic,300,300italic,400italic,500,500italic,700,700italic,900,900italic');</style></defs><g><rect fill="#FFFFFF" fill-opacity="0.33333" height="564" style="stroke:none;stroke-width:1;" width="344" x="0" y="0"/><rect fill="#FFFFFF" height="40" rx="4" ry="4" style="stroke:#000000;stroke-width:1;" width="50" x="166.6859" y="7"/><text fill="#000000" font-family="Roboto,sans-serif" font-size="12" lengthAdjust="spacing" textLength="37.125" x="173.1234" y="31.1016">READY</text><rect fill="#FFFFFF" height="40" rx="4" ry="4" style="stroke:#000000;stroke-width:1;" width="68.0605" x="72.6559" y="124"/><text fill="#000000" font-family="Roboto,sans-serif" font-size="12" lengthAdjust="spacing" textLength="58.0605" x="77.6559" y="148.1016">WRITING &#8224;</text><rect fill="#FFFFFF" height="40" rx="4" ry="4" style="stroke:#000000;stroke-width:1;" width="75.0215" x="69.1759" y="241"/><text fill="#000000" font-family="Roboto,sans-serif" font-size="12" lengthAdjust="spacing" textLength="65.0215" x="74.1759" y="265.1016">CANDIDATE</text><rect fill="#FFFFFF" height="40" rx="4" ry="4" style="stroke:#000000;stroke-width:1;" width="58.7031" x="223.3359" y="241"/><text fill="#000000" font-family="Roboto,sans-serif" font-size="12" lengthAdjust="spacing" textLength="48.7031" x="228.3359" y="265.1016">FAILED &#8225;</text><rect fill="#FFFFFF" height="40" rx="4" ry="4" style="stroke:#000000;stroke-width:1;" width="72.7305" x="70.3259" y="372"/><text fill="#000000" font-family="Roboto,sans-serif" font-size="12" lengthAdjust="spacing" textLength="62.7305" x="75.3259" y="396.1016">UPDATED &#8225;</text><rect fill="#FFFFFF" height="40" rx="4" ry="4" style="stroke:#000000;stroke-width:1;" width="50" x="215.6859" y="372"/><text fill="#000000" font-family="Roboto,sans-serif" font-size="12" lengthAdjust="spacing" textLength="37.125" x="222.1234" y="396.1016">READY</text><!--link Start to Writing--><g class="link" data-entity-1="Start" data-entity-2="Writing" data-source-line="27" data-uid="lnk2" id="link_Start_Writing"><path d="M177.4559,47.25 C161.7659,68.48 140.2327,97.6153 124.5227,118.8653" fill="none" id="Start-to-Writing" style="stroke:#0000FF;stroke-width:1;"/><polygon fill="#0000FF" points="120.9559,123.69,129.5226,118.8309,123.9282,119.6694,123.0897,114.0751,120.9559,123.69" style="stroke:#0000FF;stroke-width:1;"/><text fill="#000000" font-family="Roboto Mono,monospace" font-size="12" lengthAdjust="spacing" textLength="36.0059" x="155.2759" y="90.5742">start</text></g><!--link Writing to Writing--><g class="link" data-entity-1="Writing" data-entity-2="Writing" data-source-line="28" data-uid="lnk3" id="link_Writing_Writing"><path d="M141.1359,133.45 C159.2759,131.74 175.7159,135.26 175.7159,144 C175.7159,152.74 165.2494,156.8231 147.1094,155.1131" fill="none" id="Writing-to-Writing" style="stroke:#0000FF;stroke-width:1;"/><polygon fill="#0000FF" points="141.1359,154.55,149.7207,159.377,146.1138,155.0193,150.4715,151.4123,141.1359,154.55" style="stroke:#0000FF;stroke-width:1;"/><text fill="#000000" font-family="Roboto Mono,monospace" font-size="12" lengthAdjust="spacing" textLength="36.0059" x="181.7159" y="149.0742">write</text></g><!--link Writing to Candidate--><g class="link" data-entity-1="Writing" data-entity-2="Candidate" data-source-line="29" data-uid="lnk4" id="link_Writing_Candidate"><path d="M106.6859,164.25 C106.6859,185.48 106.6859,213.44 106.6859,234.69" fill="none" id="Writing-to-Candidate" style="stroke:#0000FF;stroke-width:1;"/><polygon fill="#0000FF" points="106.6859,240.69,110.6859,231.69,106.6859,235.69,102.6859,231.69,106.6859,240.69" style="stroke:#0000FF;stroke-width:1;"/><text fill="#000000" font-family="Roboto Mono,monospace" font-size="12" lengthAdjust="spacing" textLength="43.207" x="107.6859" y="207.5742">finish</text></g><!--link Writing to Failed--><g class="link" data-entity-1="Writing" data-entity-2="Failed" data-source-line="30" data-uid="lnk5" id="link_Writing_Failed"><path d="M131.1259,164.25 C158.0759,185.48 196.4723,215.7275 223.4523,236.9775" fill="none" id="Writing-to-Failed" style="stroke:#0000FF;stroke-width:1;"/><polygon fill="#0000FF" points="228.1659,240.69,223.5705,231.9789,224.2379,237.5963,218.6206,238.2636,228.1659,240.69" style="stroke:#0000FF;stroke-width:1;"/><text fill="#000000" font-family="Roboto Mono,monospace" font-size="12" lengthAdjust="spacing" textLength="43.207" x="189.4259" y="207.5742">cancel</text></g><!--link Candidate to Updated--><g class="link" data-entity-1="Candidate" data-entity-2="Updated" data-source-line="31" data-uid="lnk6" id="link_Candidate_Updated"><path d="M106.6859,281.31 C106.6859,305.63 106.6859,341.17 106.6859,365.56" fill="none" id="Candidate-to-Updated" style="stroke:#8B0000;stroke-width:1;"/><polygon fill="#8B0000" points="106.6859,371.56,110.6859,362.56,106.6859,366.56,102.6859,362.56,106.6859,371.56" style="stroke:#8B0000;stroke-width:1;"/><text fill="#000000" font-family="Roboto Mono,monospace" font-size="12" lengthAdjust="spacing" textLength="50.4082" x="119.431" y="324.5742">install</text><text fill="#000000" font-family="Roboto,sans-serif" font-size="12" lengthAdjust="spacing" textLength="2.9063" x="169.8392" y="324.8965">:</text><text fill="#000000" font-family="Roboto,sans-serif" font-size="12" font-style="italic" lengthAdjust="spacing" textLength="76.8047" x="107.6859" y="338.959">install success</text></g><!--link Candidate to Failed--><g class="link" data-entity-1="Candidate" data-entity-2="Failed" data-source-line="32" data-uid="lnk7" id="link_Candidate_Failed"><path d="M144.6659,261 C169.1659,261 194.5659,261 217.1959,261" fill="none" id="Candidate-to-Failed" style="stroke:#0000FF;stroke-width:1;"/><polygon fill="#0000FF" points="223.1959,261,214.1959,257,218.1959,261,214.1959,265,223.1959,261" style="stroke:#0000FF;stroke-width:1;"/><text fill="#000000" font-family="Roboto Mono,monospace" font-size="12" lengthAdjust="spacing" textLength="43.207" x="162.2659" y="254.5742">cancel</text></g><!--reverse link Start to Failed--><g class="link" data-entity-1="Start" data-entity-2="Failed" data-source-line="34" data-uid="lnk9" id="link_Start_Failed"><path d="M200.9851,52.9519 C208.0651,72.2219 216.8159,97.11 224.6859,124 C233.6759,154.73 235.2759,162.63 241.6859,194 C244.8759,209.59 247.8059,227.4 249.8359,240.58" fill="none" id="Start-backto-Failed" style="stroke:#0000FF;stroke-width:1;"/><polygon fill="#0000FF" points="198.9159,47.32,198.2651,57.1473,200.6402,52.0133,205.7743,54.3884,198.9159,47.32" style="stroke:#0000FF;stroke-width:1;"/><text fill="#000000" font-family="Roboto Mono,monospace" font-size="12" lengthAdjust="spacing" textLength="36.0059" x="236.3759" y="149.0742">clean</text></g><!--link Updated to End--><g class="link" data-entity-1="Updated" data-entity-2="End" data-source-line="36" data-uid="lnk10" id="link_Updated_End"><path d="M143.3059,392 C166.2359,392 189.2059,392 209.5659,392" fill="none" id="Updated-to-End" style="stroke:#0000FF;stroke-width:1;"/><polygon fill="#0000FF" points="215.5659,392,206.5659,388,210.5659,392,206.5659,396,215.5659,392" style="stroke:#0000FF;stroke-width:1;"/><text fill="#000000" font-family="Roboto Mono,monospace" font-size="12" lengthAdjust="spacing" textLength="36.0059" x="161.3659" y="385.5742">clean</text></g><rect fill="#E8E8E8" height="115.4922" rx="4" ry="4" style="stroke:#000000;stroke-width:1;" width="312.2148" x="12" y="429"/><text fill="#000000" font-family="Roboto,sans-serif" font-size="12" font-weight="bold" lengthAdjust="spacing" textLength="61.2188" x="17" y="445.1328">Transitions</text><text fill="#0000FF" font-family="Roboto Mono,monospace" font-size="12" lengthAdjust="spacing" text-decoration="line-through" textLength="21.6035" x="17" y="460.6367">&#8212;&#8212;&#8212;</text><text fill="#000000" font-family="Roboto,sans-serif" font-size="12" lengthAdjust="spacing" textLength="161.4316" x="41.5801" y="460.959">Applies to a single component</text><text fill="#8B0000" font-family="Roboto Mono,monospace" font-size="12" lengthAdjust="spacing" text-decoration="line-through" textLength="21.6035" x="17" y="476.4629">&#8212;&#8212;&#8212;</text><text fill="#000000" font-family="Roboto,sans-serif" font-size="12" lengthAdjust="spacing" textLength="138.7266" x="41.5801" y="476.7852">Applies to all components</text><text fill="#000000" font-family="Roboto,sans-serif" font-size="12" lengthAdjust="spacing" textLength="2.9766" x="17" y="490.8477">&#160;</text><text fill="#000000" font-family="Roboto,sans-serif" font-size="12" font-weight="bold" lengthAdjust="spacing" textLength="77.4375" x="17" y="504.9102">Volatile states</text><text fill="#000000" font-family="Roboto Mono,monospace" font-size="12" lengthAdjust="spacing" textLength="7.2012" x="24.2012" y="520.4141">&#8224;</text><text fill="#000000" font-family="Roboto,sans-serif" font-size="12" lengthAdjust="spacing" textLength="47.6602" x="41.5801" y="520.7363">Optional:</text><text fill="#000000" font-family="Roboto,sans-serif" font-size="12" font-weight="bold" lengthAdjust="spacing" textLength="35.2324" x="92.2168" y="520.7363">reboot</text><text fill="#000000" font-family="Roboto,sans-serif" font-size="12" lengthAdjust="spacing" textLength="80.7246" x="130.4258" y="520.7363">is equivalent to</text><text fill="#000000" font-family="Roboto Mono,monospace" font-size="12" lengthAdjust="spacing" textLength="43.207" x="214.127" y="520.4141">cancel</text><text fill="#000000" font-family="Roboto,sans-serif" font-size="12" lengthAdjust="spacing" textLength="19.9219" x="260.3105" y="520.7363">and</text><text fill="#000000" font-family="Roboto Mono,monospace" font-size="12" lengthAdjust="spacing" textLength="36.0059" x="283.209" y="520.4141">clean</text><text fill="#000000" font-family="Roboto Mono,monospace" font-size="12" lengthAdjust="spacing" textLength="7.2012" x="24.2012" y="536.2402">&#8225;</text><text fill="#000000" font-family="Roboto,sans-serif" font-size="12" lengthAdjust="spacing" textLength="47.6602" x="41.5801" y="536.5625">Optional:</text><text fill="#000000" font-family="Roboto,sans-serif" font-size="12" font-weight="bold" lengthAdjust="spacing" textLength="35.2324" x="92.2168" y="536.5625">reboot</text><text fill="#000000" font-family="Roboto,sans-serif" font-size="12" lengthAdjust="spacing" textLength="80.7246" x="130.4258" y="536.5625">is equivalent to</text><text fill="#000000" font-family="Roboto Mono,monospace" font-size="12" lengthAdjust="spacing" textLength="36.0059" x="214.127" y="536.2402">clean</text></g></svg>