<svg xmlns="http://www.w3.org/2000/svg" xmlns:xlink="http://www.w3.org/1999/xlink" contentStyleType="text/css" data-diagram-type="STATE" height="666px" preserveAspectRatio="none" style="width:328px;height:666px;background:#FFFFFF55;" version="1.1" viewBox="0 0 328 666" width="328px" zoomAndPan="magnify"><defs/><g><rect fill="#FFFFFF" fill-opacity="0.33333" height="666" style="stroke:none;stroke-width:1;" width="328" x="0" y="0"/><rect fill="#FFFFFF" height="40" rx="4" ry="4" style="stroke:#000000;stroke-width:1;" width="50" x="133.186" y="7"/><text fill="#000000" font-family="Lato,sans-serif" font-size="12" lengthAdjust="spacing" textLength="39.186" x="138.593" y="31.644">READY</text><rect fill="#FFFFFF" height="40" rx="4" ry="4" style="stroke:#000000;stroke-width:1;" width="71.71" x="39.326" y="121"/><text fill="#000000" font-family="Lato,sans-serif" font-size="12" lengthAdjust="spacing" textLength="61.71" x="44.326" y="145.644">WRITING &#8224;</text><rect fill="#FFFFFF" height="40" rx="4" ry="4" style="stroke:#000000;stroke-width:1;" width="79.054" x="35.656" y="235"/><text fill="#000000" font-family="Lato,sans-serif" font-size="12" lengthAdjust="spacing" textLength="69.054" x="40.656" y="259.644">CANDIDATE</text><rect fill="#FFFFFF" height="40" rx="4" ry="4" style="stroke:#000000;stroke-width:1;" width="60.52" x="186.926" y="235"/><text fill="#000000" font-family="Lato,sans-serif" font-size="12" lengthAdjust="spacing" textLength="50.52" x="191.926" y="259.644">FAILED &#8225;</text><rect fill="#FFFFFF" height="40" rx="4" ry="4" style="stroke:#000000;stroke-width:1;" width="50" x="120.186" y="365"/><text fill="#000000" font-family="Lato,sans-serif" font-size="12" lengthAdjust="spacing" textLength="32.25" x="129.061" y="389.644">TRIAL</text><rect fill="#FFFFFF" height="40" rx="4" ry="4" style="stroke:#000000;stroke-width:1;" width="76.456" x="106.956" y="479"/><text fill="#000000" font-family="Lato,sans-serif" font-size="12" lengthAdjust="spacing" textLength="66.456" x="111.956" y="503.644">UPDATED &#8225;</text><rect fill="#FFFFFF" height="40" rx="4" ry="4" style="stroke:#000000;stroke-width:1;" width="50" x="250.186" y="479"/><text fill="#000000" font-family="Lato,sans-serif" font-size="12" lengthAdjust="spacing" textLength="39.186" x="255.593" y="503.644">READY</text><!--link Start to Writing--><g class="link" data-entity-1="Start" data-entity-2="Writing" data-source-line="29" data-uid="lnk2" id="link_Start_Writing"><path d="M143.916,47.25 C128.716,67.77 108.3474,95.2387 93.1174,115.7987" fill="none" id="Start-to-Writing" style="stroke:#0000FF;stroke-width:1;"/><polygon fill="#0000FF" points="89.546,120.62,98.1173,115.769,92.5222,116.6022,91.6889,111.0071,89.546,120.62" style="stroke:#0000FF;stroke-width:1;"/><text fill="#000000" font-family="Inconsolata,monospace" font-size="12" lengthAdjust="spacing" textLength="30" x="122.656" y="88.308">start</text></g><!--link Writing to Writing--><g class="link" data-entity-1="Writing" data-entity-2="Writing" data-source-line="30" data-uid="lnk3" id="link_Writing_Writing"><path d="M111.276,130.66 C129.606,129.15 146.036,132.59 146.036,141 C146.036,149.41 135.5857,153.3426 117.2557,151.8326" fill="none" id="Writing-to-Writing" style="stroke:#0000FF;stroke-width:1;"/><polygon fill="#0000FF" points="111.276,151.34,119.9172,156.0654,116.2591,151.7505,120.574,148.0924,111.276,151.34" style="stroke:#0000FF;stroke-width:1;"/><text fill="#000000" font-family="Inconsolata,monospace" font-size="12" lengthAdjust="spacing" textLength="30" x="152.036" y="145.308">write</text></g><!--link Writing to Candidate--><g class="link" data-entity-1="Writing" data-entity-2="Candidate" data-source-line="31" data-uid="lnk4" id="link_Writing_Candidate"><path d="M75.186,161.25 C75.186,181.77 75.186,208.06 75.186,228.62" fill="none" id="Writing-to-Candidate" style="stroke:#0000FF;stroke-width:1;"/><polygon fill="#0000FF" points="75.186,234.62,79.186,225.62,75.186,229.62,71.186,225.62,75.186,234.62" style="stroke:#0000FF;stroke-width:1;"/><text fill="#000000" font-family="Inconsolata,monospace" font-size="12" lengthAdjust="spacing" textLength="36" x="76.186" y="202.308">finish</text></g><!--link Writing to Failed--><g class="link" data-entity-1="Writing" data-entity-2="Failed" data-source-line="32" data-uid="lnk5" id="link_Writing_Failed"><path d="M99.596,161.25 C125.606,181.77 161.8348,210.3445 187.9048,230.9045" fill="none" id="Writing-to-Failed" style="stroke:#0000FF;stroke-width:1;"/><polygon fill="#0000FF" points="192.616,234.62,188.0262,225.906,188.69,231.5238,183.0722,232.1876,192.616,234.62" style="stroke:#0000FF;stroke-width:1;"/><text fill="#000000" font-family="Inconsolata,monospace" font-size="12" lengthAdjust="spacing" textLength="36" x="155.686" y="202.308">cancel</text></g><!--link Candidate to Trial--><g class="link" data-entity-1="Candidate" data-entity-2="Trial" data-source-line="33" data-uid="lnk6" id="link_Candidate_Trial"><path d="M77.096,275.29 C79.426,292 84.466,316.36 95.186,335 C101.546,346.06 106.6524,352.2684 115.7124,360.4884" fill="none" id="Candidate-to-Trial" style="stroke:#8B0000;stroke-width:1;"/><polygon fill="#8B0000" points="120.156,364.52,116.1783,355.5101,116.453,361.1603,110.8028,361.435,120.156,364.52" style="stroke:#8B0000;stroke-width:1;"/><text fill="#000000" font-family="Inconsolata,monospace" font-size="12" lengthAdjust="spacing" textLength="42" x="108.645" y="318.12">install</text><text fill="#000000" font-family="Lato,sans-serif" font-size="12" lengthAdjust="spacing" textLength="3" x="150.645" y="317.844">:</text><text fill="#000000" font-family="Lato,sans-serif" font-size="12" font-style="italic" lengthAdjust="spacing" textLength="69.918" x="96.186" y="332.244">install success</text></g><!--link Candidate to Failed--><g class="link" data-entity-1="Candidate" data-entity-2="Failed" data-source-line="34" data-uid="lnk7" id="link_Candidate_Failed"><path d="M115.116,255 C137.756,255 159.646,255 180.546,255" fill="none" id="Candidate-to-Failed" style="stroke:#0000FF;stroke-width:1;"/><polygon fill="#0000FF" points="186.546,255,177.546,251,181.546,255,177.546,259,186.546,255" style="stroke:#0000FF;stroke-width:1;"/><text fill="#000000" font-family="Inconsolata,monospace" font-size="12" lengthAdjust="spacing" textLength="36" x="132.816" y="249.308">cancel</text></g><!--link Trial to Updated--><g class="link" data-entity-1="Trial" data-entity-2="Updated" data-source-line="36" data-uid="lnk8" id="link_Trial_Updated"><path d="M145.186,405.25 C145.186,425.77 145.186,452.06 145.186,472.62" fill="none" id="Trial-to-Updated" style="stroke:#8B0000;stroke-width:1;"/><polygon fill="#8B0000" points="145.186,478.62,149.186,469.62,145.186,473.62,141.186,469.62,145.186,478.62" style="stroke:#8B0000;stroke-width:1;"/><text fill="#000000" font-family="Inconsolata,monospace" font-size="12" lengthAdjust="spacing" textLength="36" x="146.186" y="446.308">accept</text></g><!--reverse link Start to Failed--><g class="link" data-entity-1="Start" data-entity-2="Failed" data-source-line="38" data-uid="lnk10" id="link_Start_Failed"><path d="M167.0278,53.1002 C173.4978,71.8002 181.246,95.28 188.186,121 C199.016,161.16 208.656,208.96 213.626,234.92" fill="none" id="Start-backto-Failed" style="stroke:#0000FF;stroke-width:1;"/><polygon fill="#0000FF" points="165.066,47.43,164.2286,57.2432,166.7009,52.1552,171.7889,54.6274,165.066,47.43" style="stroke:#0000FF;stroke-width:1;"/><text fill="#000000" font-family="Inconsolata,monospace" font-size="12" lengthAdjust="spacing" textLength="30" x="198.726" y="145.308">clean</text></g><!--reverse link Failed to Trial--><g class="link" data-entity-1="Failed" data-entity-2="Trial" data-source-line="39" data-uid="lnk12" id="link_Failed_Trial"><path d="M203.3048,280.6697 C189.6948,304.8697 169.536,340.71 155.986,364.8" fill="none" id="Failed-backto-Trial" style="stroke:#8B0000;stroke-width:1;"/><polygon fill="#8B0000" points="206.246,275.44,198.3478,281.3238,203.795,279.7981,205.3207,285.2453,206.246,275.44" style="stroke:#8B0000;stroke-width:1;"/><text fill="#000000" font-family="Inconsolata,monospace" font-size="12" lengthAdjust="spacing" textLength="36" x="188.636" y="324.308">reject</text></g><!--link Updated to End--><g class="link" data-entity-1="Updated" data-entity-2="End" data-source-line="41" data-uid="lnk13" id="link_Updated_End"><path d="M183.836,499 C205.236,499 225.236,499 244.016,499" fill="none" id="Updated-to-End" style="stroke:#0000FF;stroke-width:1;"/><polygon fill="#0000FF" points="250.016,499,241.016,495,245.016,499,241.016,503,250.016,499" style="stroke:#0000FF;stroke-width:1;"/><text fill="#000000" font-family="Inconsolata,monospace" font-size="12" lengthAdjust="spacing" textLength="30" x="201.796" y="493.308">clean</text></g><rect fill="#E8E8E8" height="110.8" rx="4" ry="4" style="stroke:#000000;stroke-width:1;" width="296.842" x="12" y="536"/><text fill="#000000" font-family="Lato,sans-serif" font-size="12" font-weight="bold" lengthAdjust="spacing" textLength="59.304" x="17" y="552.844">Transitions</text><text fill="#0000FF" font-family="Inconsolata,monospace" font-size="12" lengthAdjust="spacing" text-decoration="line-through" textLength="18" x="17" y="567.52">&#8212;&#8212;&#8212;</text><text fill="#000000" font-family="Lato,sans-serif" font-size="12" lengthAdjust="spacing" textLength="158.322" x="38.072" y="567.244">Applies to a single component</text><text fill="#8B0000" font-family="Inconsolata,monospace" font-size="12" lengthAdjust="spacing" text-decoration="line-through" textLength="18" x="17" y="581.92">&#8212;&#8212;&#8212;</text><text fill="#000000" font-family="Lato,sans-serif" font-size="12" lengthAdjust="spacing" textLength="135.93" x="38.072" y="581.644">Applies to all components</text><text fill="#000000" font-family="Lato,sans-serif" font-size="12" lengthAdjust="spacing" textLength="3.072" x="17" y="596.044">&#160;</text><text fill="#000000" font-family="Lato,sans-serif" font-size="12" font-weight="bold" lengthAdjust="spacing" textLength="76.092" x="17" y="610.444">Volatile states</text><text fill="#000000" font-family="Inconsolata,monospace" font-size="12" lengthAdjust="spacing" textLength="6" x="23" y="625.12">&#8224;</text><text fill="#000000" font-family="Lato,sans-serif" font-size="12" lengthAdjust="spacing" textLength="48.81" x="38.072" y="624.844">Optional:</text><text fill="#000000" font-family="Lato,sans-serif" font-size="12" font-weight="bold" lengthAdjust="spacing" textLength="35.946" x="89.954" y="624.844">reboot</text><text fill="#000000" font-family="Lato,sans-serif" font-size="12" lengthAdjust="spacing" textLength="80.274" x="128.972" y="624.844">is equivalent to</text><text fill="#000000" font-family="Inconsolata,monospace" font-size="12" lengthAdjust="spacing" textLength="36" x="212.318" y="625.12">cancel</text><text fill="#000000" font-family="Lato,sans-serif" font-size="12" lengthAdjust="spacing" textLength="19.38" x="251.39" y="624.844">and</text><text fill="#000000" font-family="Inconsolata,monospace" font-size="12" lengthAdjust="spacing" textLength="30" x="273.842" y="625.12">clean</text><text fill="#000000" font-family="Inconsolata,monospace" font-size="12" lengthAdjust="spacing" textLength="6" x="23" y="639.52">&#8225;</text><text fill="#000000" font-family="Lato,sans-serif" font-size="12" lengthAdjust="spacing" textLength="48.81" x="38.072" y="639.244">Optional:</text><text fill="#000000" font-family="Lato,sans-serif" font-size="12" font-weight="bold" lengthAdjust="spacing" textLength="35.946" x="89.954" y="639.244">reboot</text><text fill="#000000" font-family="Lato,sans-serif" font-size="12" lengthAdjust="spacing" textLength="80.274" x="128.972" y="639.244">is equivalent to</text><text fill="#000000" font-family="Inconsolata,monospace" font-size="12" lengthAdjust="spacing" textLength="30" x="212.318" y="639.52">clean</text></g></svg>