<svg xmlns="http://www.w3.org/2000/svg" xmlns:xlink="http://www.w3.org/1999/xlink" contentStyleType="text/css" data-diagram-type="STATE" height="564px" preserveAspectRatio="none" style="width:337px;height:564px;background:#FFFFFF55;" version="1.1" viewBox="0 0 337 564" width="337px" zoomAndPan="magnify"><defs><style type="text/css">@import url('https://fonts.googleapis.com/css?family=Roboto:400,100,100italic,300,300italic,400italic,500,500italic,700,700italic,900,900italic');</style></defs><g><rect fill="#FFFFFF" fill-opacity="0.33333" height="564" style="stroke:none;stroke-width:1;" width="337" x="0" y="0"/><rect fill="#FFFFFF" height="40" rx="4" ry="4" style="stroke:#000000;stroke-width:1;" width="50" x="163.29" y="7"/><text fill="#000000" font-family="Roboto,sans-serif" font-size="12" lengthAdjust="spacing" textLength="37.125" x="169.7275" y="31.1016">READY</text><rect fill="#FFFFFF" height="40" rx="4" ry="4" style="stroke:#000000;stroke-width:1;" width="68.0605" x="69.26" y="124"/><text fill="#000000" font-family="Roboto,sans-serif" font-size="12" lengthAdjust="spacing" textLength="58.0605" x="74.26" y="148.1016">WRITING &#8224;</text><rect fill="#FFFFFF" height="40" rx="4" ry="4" style="stroke:#000000;stroke-width:1;" width="84.6191" x="60.98" y="241"/><text fill="#000000" font-family="Roboto,sans-serif" font-size="12" lengthAdjust="spacing" textLength="74.6191" x="65.98" y="265.1016">CANDIDATE &#8224;</text><rect fill="#FFFFFF" height="40" rx="4" ry="4" style="stroke:#000000;stroke-width:1;" width="58.7031" x="224.94" y="241"/><text fill="#000000" font-family="Roboto,sans-serif" font-size="12" lengthAdjust="spacing" textLength="48.7031" x="229.94" y="265.1016">FAILED &#8225;</text><rect fill="#FFFFFF" height="40" rx="4" ry="4" style="stroke:#000000;stroke-width:1;" width="72.7305" x="66.92" y="372"/><text fill="#000000" font-family="Roboto,sans-serif" font-size="12" lengthAdjust="spacing" textLength="62.7305" x="71.92" y="396.1016">UPDATED &#8225;</text><rect fill="#FFFFFF" height="40" rx="4" ry="4" style="stroke:#000000;stroke-width:1;" width="50" x="212.29" y="372"/><text fill="#000000" font-family="Roboto,sans-serif" font-size="12" lengthAdjust="spacing" textLength="37.125" x="218.7275" y="396.1016">READY</text><!--link Start to Writing--><g class="link" data-entity-1="Start" data-entity-2="Writing" data-source-line="27" data-uid="lnk2" id="link_Start_Writing"><path d="M174.06,47.25 C158.37,68.48 136.8368,97.6153 121.1268,118.8653" fill="none" id="Start-to-Writing" style="stroke:#0000FF;stroke-width:1;"/><polygon fill="#0000FF" points="117.56,123.69,126.1267,118.8309,120.5323,119.6694,119.6938,114.0751,117.56,123.69" style="stroke:#0000FF;stroke-width:1;"/><text fill="#000000" font-family="Roboto Mono,monospace" font-size="12" lengthAdjust="spacing" textLength="36.0059" x="151.88" y="90.5742">start</text></g><!--link Writing to Writing--><g class="link" data-entity-1="Writing" data-entity-2="Writing" data-source-line="28" data-uid="lnk3" id="link_Writing_Writing"><path d="M137.74,133.45 C155.88,131.74 172.32,135.26 172.32,144 C172.32,152.74 161.8535,156.8231 143.7135,155.1131" fill="none" id="Writing-to-Writing" style="stroke:#0000FF;stroke-width:1;"/><polygon fill="#0000FF" points="137.74,154.55,146.3248,159.377,142.7179,155.0193,147.0756,151.4123,137.74,154.55" style="stroke:#0000FF;stroke-width:1;"/><text fill="#000000" font-family="Roboto Mono,monospace" font-size="12" lengthAdjust="spacing" textLength="36.0059" x="178.32" y="149.0742">write</text></g><!--link Writing to Candidate--><g class="link" data-entity-1="Writing" data-entity-2="Candidate" data-source-line="29" data-uid="lnk4" id="link_Writing_Candidate"><path d="M103.29,164.25 C103.29,185.48 103.29,213.44 103.29,234.69" fill="none" id="Writing-to-Candidate" style="stroke:#0000FF;stroke-width:1;"/><polygon fill="#0000FF" points="103.29,240.69,107.29,231.69,103.29,235.69,99.29,231.69,103.29,240.69" style="stroke:#0000FF;stroke-width:1;"/><text fill="#000000" font-family="Roboto Mono,monospace" font-size="12" lengthAdjust="spacing" textLength="43.207" x="104.29" y="207.5742">finish</text></g><!--link Writing to Failed--><g class="link" data-entity-1="Writing" data-entity-2="Failed" data-source-line="30" data-uid="lnk5" id="link_Writing_Failed"><path d="M128.56,164.25 C156.44,185.48 196.2568,215.8045 224.1568,237.0545" fill="none" id="Writing-to-Failed" style="stroke:#0000FF;stroke-width:1;"/><polygon fill="#0000FF" points="228.93,240.69,224.1938,232.0547,224.9523,237.6604,219.3465,238.4189,228.93,240.69" style="stroke:#0000FF;stroke-width:1;"/><text fill="#000000" font-family="Roboto Mono,monospace" font-size="12" lengthAdjust="spacing" textLength="43.207" x="188.83" y="207.5742">cancel</text></g><!--link Candidate to Updated--><g class="link" data-entity-1="Candidate" data-entity-2="Updated" data-source-line="31" data-uid="lnk6" id="link_Candidate_Updated"><path d="M103.29,281.31 C103.29,305.63 103.29,341.17 103.29,365.56" fill="none" id="Candidate-to-Updated" style="stroke:#8B0000;stroke-width:1;"/><polygon fill="#8B0000" points="103.29,371.56,107.29,362.56,103.29,366.56,99.29,362.56,103.29,371.56" style="stroke:#8B0000;stroke-width:1;"/><text fill="#000000" font-family="Roboto Mono,monospace" font-size="12" lengthAdjust="spacing" textLength="50.4082" x="116.0351" y="324.5742">install</text><text fill="#000000" font-family="Roboto,sans-serif" font-size="12" lengthAdjust="spacing" textLength="2.9063" x="166.4433" y="324.8965">:</text><text fill="#000000" font-family="Roboto,sans-serif" font-size="12" font-style="italic" lengthAdjust="spacing" textLength="76.8047" x="104.29" y="338.959">install success</text></g><!--link Candidate to Failed--><g class="link" data-entity-1="Candidate" data-entity-2="Failed" data-source-line="32" data-uid="lnk7" id="link_Candidate_Failed"><path d="M145.75,261 C170.88,261 196.08,261 218.57,261" fill="none" id="Candidate-to-Failed" style="stroke:#0000FF;stroke-width:1;"/><polygon fill="#0000FF" points="224.57,261,215.57,257,219.57,261,215.57,265,224.57,261" style="stroke:#0000FF;stroke-width:1;"/><text fill="#000000" font-family="Roboto Mono,monospace" font-size="12" lengthAdjust="spacing" textLength="43.207" x="163.77" y="254.5742">cancel</text></g><!--reverse link Start to Failed--><g class="link" data-entity-1="Start" data-entity-2="Failed" data-source-line="34" data-uid="lnk9" id="link_Start_Failed"><path d="M197.5613,53.0484 C208.7413,83.7784 228.29,140.03 241.29,194 C245.04,209.55 248.5,227.36 250.9,240.56" fill="none" id="Start-backto-Failed" style="stroke:#0000FF;stroke-width:1;"/><polygon fill="#0000FF" points="195.51,47.41,194.828,57.2352,197.2194,52.1087,202.3459,54.5001,195.51,47.41" style="stroke:#0000FF;stroke-width:1;"/><text fill="#000000" font-family="Roboto Mono,monospace" font-size="12" lengthAdjust="spacing" textLength="36.0059" x="234.26" y="149.0742">clean</text></g><!--link Updated to End--><g class="link" data-entity-1="Updated" data-entity-2="End" data-source-line="36" data-uid="lnk10" id="link_Updated_End"><path d="M139.91,392 C162.84,392 185.81,392 206.16,392" fill="none" id="Updated-to-End" style="stroke:#0000FF;stroke-width:1;"/><polygon fill="#0000FF" points="212.16,392,203.16,388,207.16,392,203.16,396,212.16,392" style="stroke:#0000FF;stroke-width:1;"/><text fill="#000000" font-family="Roboto Mono,monospace" font-size="12" lengthAdjust="spacing" textLength="36.0059" x="157.97" y="385.5742">clean</text></g><rect fill="#E8E8E8" height="115.4922" rx="4" ry="4" style="stroke:#000000;stroke-width:1;" width="305.623" x="12" y="429"/><text fill="#000000" font-family="Roboto,sans-serif" font-size="12" font-weight="bold" lengthAdjust="spacing" textLength="61.2188" x="17" y="445.1328">Transitions</text><text fill="#0000FF" font-family="Roboto Mono,monospace" font-size="12" lengthAdjust="spacing" text-decoration="line-through" textLength="21.6035" x="17" y="460.6367">&#8212;&#8212;&#8212;</text><text fill="#000000" font-family="Roboto,sans-serif" font-size="12" lengthAdjust="spacing" textLength="161.4316" x="41.5801" y="460.959">Applies to a single component</text><text fill="#8B0000" font-family="Roboto Mono,monospace" font-size="12" lengthAdjust="spacing" text-decoration="line-through" textLength="21.6035" x="17" y="476.4629">&#8212;&#8212;&#8212;</text><text fill="#000000" font-family="Roboto,sans-serif" font-size="12" lengthAdjust="spacing" textLength="138.7266" x="41.5801" y="476.7852">Applies to all components</text><text fill="#000000" font-family="Roboto,sans-serif" font-size="12" lengthAdjust="spacing" textLength="2.9766" x="17" y="490.8477">&#160;</text><text fill="#000000" font-family="Roboto,sans-serif" font-size="12" font-weight="bold" lengthAdjust="spacing" textLength="77.4375" x="17" y="504.9102">Volatile states</text><text fill="#000000" font-family="Roboto Mono,monospace" font-size="12" lengthAdjust="spacing" textLength="7.2012" x="24.2012" y="520.4141">&#8224;</text><text fill="#000000" font-family="Roboto,sans-serif" font-size="12" lengthAdjust="spacing" textLength="41.0684" x="41.5801" y="520.7363">Always:</text><text fill="#000000" font-family="Roboto,sans-serif" font-size="12" font-weight="bold" lengthAdjust="spacing" textLength="35.2324" x="85.625" y="520.7363">reboot</text><text fill="#000000" font-family="Roboto,sans-serif" font-size="12" lengthAdjust="spacing" textLength="80.7246" x="123.834" y="520.7363">is equivalent to</text><text fill="#000000" font-family="Roboto Mono,monospace" font-size="12" lengthAdjust="spacing" textLength="43.207" x="207.5352" y="520.4141">cancel</text><text fill="#000000" font-family="Roboto,sans-serif" font-size="12" lengthAdjust="spacing" textLength="19.9219" x="253.7188" y="520.7363">and</text><text fill="#000000" font-family="Roboto Mono,monospace" font-size="12" lengthAdjust="spacing" textLength="36.0059" x="276.6172" y="520.4141">clean</text><text fill="#000000" font-family="Roboto Mono,monospace" font-size="12" lengthAdjust="spacing" textLength="7.2012" x="24.2012" y="536.2402">&#8225;</text><text fill="#000000" font-family="Roboto,sans-serif" font-size="12" lengthAdjust="spacing" textLength="41.0684" x="41.5801" y="536.5625">Always:</text><text fill="#000000" font-family="Roboto,sans-serif" font-size="12" font-weight="bold" lengthAdjust="spacing" textLength="35.2324" x="85.625" y="536.5625">reboot</text><text fill="#000000" font-family="Roboto,sans-serif" font-size="12" lengthAdjust="spacing" textLength="80.7246" x="123.834" y="536.5625">is equivalent to</text><text fill="#000000" font-family="Roboto Mono,monospace" font-size="12" lengthAdjust="spacing" textLength="36.0059" x="207.5352" y="536.2402">clean</text></g></svg>