<svg xmlns="http://www.w3.org/2000/svg" xmlns:xlink="http://www.w3.org/1999/xlink" contentStyleType="text/css" data-diagram-type="STATE" height="595px" preserveAspectRatio="none" style="width:337px;height:595px;background:#FFFFFF55;" version="1.1" viewBox="0 0 337 595" width="337px" zoomAndPan="magnify"><defs><style type="text/css">@import url('https://fonts.googleapis.com/css?family=Roboto:400,100,100italic,300,300italic,400italic,500,500italic,700,700italic,900,900italic');</style></defs><g><rect fill="#FFFFFF" fill-opacity="0.33333" height="595" style="stroke:none;stroke-width:1;" width="337" x="0" y="0"/><rect fill="#FFFFFF" height="40" rx="4" ry="4" style="stroke:#000000;stroke-width:1;" width="50" x="88.9165" y="7"/><text fill="#000000" font-family="Roboto,sans-serif" font-size="12" lengthAdjust="spacing" textLength="37.125" x="95.354" y="31.1016">READY</text><rect fill="#FFFFFF" height="40" rx="4" ry="4" style="stroke:#000000;stroke-width:1;" width="68.0605" x="79.8865" y="124"/><text fill="#000000" font-family="Roboto,sans-serif" font-size="12" lengthAdjust="spacing" textLength="58.0605" x="84.8865" y="148.1016">WRITING &#8224;</text><rect fill="#FFFFFF" height="40" rx="4" ry="4" style="stroke:#000000;stroke-width:1;" width="84.6191" x="71.6065" y="254"/><text fill="#000000" font-family="Roboto,sans-serif" font-size="12" lengthAdjust="spacing" textLength="74.6191" x="76.6065" y="278.1016">CANDIDATE &#8224;</text><rect fill="#FFFFFF" height="40" rx="4" ry="4" style="stroke:#000000;stroke-width:1;" width="63.127" x="82.3465" y="371"/><text fill="#000000" font-family="Roboto,sans-serif" font-size="12" lengthAdjust="spacing" textLength="53.127" x="87.3465" y="395.1016">STAGED *</text><rect fill="#FFFFFF" height="40" rx="4" ry="4" style="stroke:#000000;stroke-width:1;" width="58.7031" x="235.5665" y="254"/><text fill="#000000" font-family="Roboto,sans-serif" font-size="12" lengthAdjust="spacing" textLength="48.7031" x="240.5665" y="278.1016">FAILED &#8225;</text><rect fill="#FFFFFF" height="40" rx="4" ry="4" style="stroke:#000000;stroke-width:1;" width="50" x="257.9165" y="371"/><text fill="#000000" font-family="Roboto,sans-serif" font-size="12" lengthAdjust="spacing" textLength="37.125" x="264.354" y="395.1016">READY</text><!--link Start to Writing--><g class="link" data-entity-1="Start" data-entity-2="Writing" data-source-line="29" data-uid="lnk2" id="link_Start_Writing"><path d="M113.9165,47.25 C113.9165,68.48 113.9165,96.44 113.9165,117.69" fill="none" id="Start-to-Writing" style="stroke:#0000FF;stroke-width:1;"/><polygon fill="#0000FF" points="113.9165,123.69,117.9165,114.69,113.9165,118.69,109.9165,114.69,113.9165,123.69" style="stroke:#0000FF;stroke-width:1;"/><text fill="#000000" font-family="Roboto Mono,monospace" font-size="12" lengthAdjust="spacing" textLength="36.0059" x="114.9165" y="90.5742">start</text></g><!--link Writing to Writing--><g class="link" data-entity-1="Writing" data-entity-2="Writing" data-source-line="30" data-uid="lnk3" id="link_Writing_Writing"><path d="M148.3665,133.45 C166.5065,131.74 182.9465,135.26 182.9465,144 C182.9465,152.74 172.48,156.8231 154.34,155.1131" fill="none" id="Writing-to-Writing" style="stroke:#0000FF;stroke-width:1;"/><polygon fill="#0000FF" points="148.3665,154.55,156.9514,159.377,153.3445,155.0193,157.7022,151.4123,148.3665,154.55" style="stroke:#0000FF;stroke-width:1;"/><text fill="#000000" font-family="Roboto Mono,monospace" font-size="12" lengthAdjust="spacing" textLength="36.0059" x="188.9465" y="149.0742">write</text></g><!--link Writing to Candidate--><g class="link" data-entity-1="Writing" data-entity-2="Candidate" data-source-line="31" data-uid="lnk4" id="link_Writing_Candidate"><path d="M113.9165,164.44 C113.9165,188.64 113.9165,223.71 113.9165,247.8" fill="none" id="Writing-to-Candidate" style="stroke:#0000FF;stroke-width:1;"/><polygon fill="#0000FF" points="113.9165,253.8,117.9165,244.8,113.9165,248.8,109.9165,244.8,113.9165,253.8" style="stroke:#0000FF;stroke-width:1;"/><text fill="#000000" font-family="Roboto Mono,monospace" font-size="12" lengthAdjust="spacing" textLength="43.207" x="114.9165" y="214.0742">finish</text></g><!--link Writing to Failed--><g class="link" data-entity-1="Writing" data-entity-2="Failed" data-source-line="32" data-uid="lnk5" id="link_Writing_Failed"><path d="M136.8465,164.44 C165.3965,188.64 209.2702,225.8296 237.6802,249.9196" fill="none" id="Writing-to-Failed" style="stroke:#0000FF;stroke-width:1;"/><polygon fill="#0000FF" points="242.2565,253.8,237.979,244.9285,238.443,250.5663,232.8052,251.0302,242.2565,253.8" style="stroke:#0000FF;stroke-width:1;"/><text fill="#000000" font-family="Roboto Mono,monospace" font-size="12" lengthAdjust="spacing" textLength="43.207" x="203.9365" y="214.0742">cancel</text></g><!--link Candidate to Failed--><g class="link" data-entity-1="Candidate" data-entity-2="Failed" data-source-line="33" data-uid="lnk6" id="link_Candidate_Failed"><path d="M156.3765,274 C181.4965,274 206.7065,274 229.1965,274" fill="none" id="Candidate-to-Failed" style="stroke:#0000FF;stroke-width:1;"/><polygon fill="#0000FF" points="235.1965,274,226.1965,270,230.1965,274,226.1965,278,235.1965,274" style="stroke:#0000FF;stroke-width:1;"/><text fill="#000000" font-family="Roboto Mono,monospace" font-size="12" lengthAdjust="spacing" textLength="43.207" x="174.3965" y="267.5742">cancel</text></g><!--link Candidate to Staged--><g class="link" data-entity-1="Candidate" data-entity-2="Staged" data-source-line="34" data-uid="lnk7" id="link_Candidate_Staged"><path d="M113.9165,294.25 C113.9165,315.48 113.9165,343.44 113.9165,364.69" fill="none" id="Candidate-to-Staged" style="stroke:#8B0000;stroke-width:1;"/><polygon fill="#8B0000" points="113.9165,370.69,117.9165,361.69,113.9165,365.69,109.9165,361.69,113.9165,370.69" style="stroke:#8B0000;stroke-width:1;"/><text fill="#000000" font-family="Roboto Mono,monospace" font-size="12" lengthAdjust="spacing" textLength="50.4082" x="114.9165" y="337.5742">install</text></g><!--link Staged to End--><g class="link" data-entity-1="Staged" data-entity-2="End" data-source-line="36" data-uid="lnk8" id="link_Staged_End"><path d="M145.7065,391 C178.1165,391 221.7565,391 251.6065,391" fill="none" id="Staged-to-End" style="stroke:#8B0000;stroke-width:1;stroke-dasharray:7.0,7.0;"/><polygon fill="#8B0000" points="257.6065,391,248.6065,387,252.6065,391,248.6065,395,257.6065,391" style="stroke:#8B0000;stroke-width:1;"/><text fill="#000000" font-family="Roboto,sans-serif" font-size="12" font-weight="bold" lengthAdjust="spacing" textLength="35.2324" x="183.0295" y="370.1328">reboot</text><text fill="#000000" font-family="Roboto,sans-serif" font-size="12" lengthAdjust="spacing" textLength="2.9063" x="218.262" y="370.1328">:</text><text fill="#000000" font-family="Roboto,sans-serif" font-size="12" font-style="italic" lengthAdjust="spacing" textLength="76.8047" x="163.6965" y="384.1953">install success</text></g><!--reverse link Start to Staged--><g class="link" data-entity-1="Start" data-entity-2="Staged" data-source-line="37" data-uid="lnk10" id="link_Start_Staged"><path d="M98.7509,52.3737 C87.2809,71.3337 73.2265,96.27 61.9165,124 C49.6965,153.96 46.4065,161.96 41.9165,194 C35.7065,238.33 37.9665,252.17 53.9165,294 C64.8365,322.65 84.7265,352.03 98.5965,370.61" fill="none" id="Start-backto-Staged" style="stroke:#8B0000;stroke-width:1;stroke-dasharray:7.0,7.0;"/><polygon fill="#8B0000" points="101.8565,47.24,93.7756,52.8701,99.2685,51.5181,100.6205,57.011,101.8565,47.24" style="stroke:#8B0000;stroke-width:1;"/><text fill="#000000" font-family="Roboto,sans-serif" font-size="12" font-weight="bold" lengthAdjust="spacing" textLength="35.2324" x="55.2417" y="206.1328">reboot</text><text fill="#000000" font-family="Roboto,sans-serif" font-size="12" lengthAdjust="spacing" textLength="2.9063" x="90.4741" y="206.1328">:</text><text fill="#000000" font-family="Roboto,sans-serif" font-size="12" font-style="italic" lengthAdjust="spacing" textLength="62.7891" x="42.9165" y="220.1953">install failed</text></g><!--reverse link Failed to Staged--><g class="link" data-entity-1="Failed" data-entity-2="Staged" data-source-line="38" data-uid="lnk12" id="link_Failed_Staged"><path d="M234.8636,297.8858 C206.9936,319.1158 167.1765,349.44 139.2665,370.69" fill="none" id="Failed-backto-Staged" style="stroke:#8B0000;stroke-width:1;"/><polygon fill="#8B0000" points="239.6365,294.25,230.0532,296.5217,235.6591,297.2798,234.901,302.8857,239.6365,294.25" style="stroke:#8B0000;stroke-width:1;"/><text fill="#000000" font-family="Roboto Mono,monospace" font-size="12" lengthAdjust="spacing" textLength="43.207" x="199.4565" y="337.5742">reject</text></g><!--reverse link Start to Failed--><g class="link" data-entity-1="Start" data-entity-2="Failed" data-source-line="40" data-uid="lnk14" id="link_Start_Failed"><path d="M144.171,45.6897 C170.771,62.2397 207.1365,88.48 231.9165,124 C259.7265,163.88 264.6265,223.14 265.1665,253.51" fill="none" id="Start-backto-Failed" style="stroke:#0000FF;stroke-width:1;"/><polygon fill="#0000FF" points="139.0765,42.52,144.6051,50.6708,143.3219,45.1614,148.8313,43.8782,139.0765,42.52" style="stroke:#0000FF;stroke-width:1;"/><text fill="#000000" font-family="Roboto Mono,monospace" font-size="12" lengthAdjust="spacing" textLength="36.0059" x="251.9965" y="149.0742">clean</text></g><rect fill="#E8E8E8" height="147.1445" rx="4" ry="4" style="stroke:#000000;stroke-width:1;" width="305.623" x="12" y="428"/><text fill="#000000" font-family="Roboto,sans-serif" font-size="12" font-weight="bold" lengthAdjust="spacing" textLength="61.2188" x="17" y="444.1328">Transitions</text><text fill="#0000FF" font-family="Roboto Mono,monospace" font-size="12" lengthAdjust="spacing" text-decoration="line-through" textLength="21.6035" x="17" y="459.6367">&#8212;&#8212;&#8212;</text><text fill="#000000" font-family="Roboto,sans-serif" font-size="12" lengthAdjust="spacing" textLength="161.4316" x="41.5801" y="459.959">Applies to a single component</text><text fill="#8B0000" font-family="Roboto Mono,monospace" font-size="12" lengthAdjust="spacing" text-decoration="line-through" textLength="21.6035" x="17" y="475.4629">&#8212;&#8212;&#8212;</text><text fill="#000000" font-family="Roboto,sans-serif" font-size="12" lengthAdjust="spacing" textLength="138.7266" x="41.5801" y="475.7852">Applies to all components</text><text fill="#000000" font-family="Roboto Mono,monospace" font-size="12" lengthAdjust="spacing" textLength="21.6035" x="17" y="491.2891">---</text><text fill="#000000" font-family="Roboto,sans-serif" font-size="12" lengthAdjust="spacing" textLength="79.8691" x="41.5801" y="491.6113">Transition over</text><text fill="#000000" font-family="Roboto,sans-serif" font-size="12" font-weight="bold" lengthAdjust="spacing" textLength="35.2324" x="124.4258" y="491.6113">reboot</text><text fill="#000000" font-family="Roboto,sans-serif" font-size="12" lengthAdjust="spacing" textLength="2.9766" x="17" y="505.6738">&#160;</text><text fill="#000000" font-family="Roboto,sans-serif" font-size="12" font-weight="bold" lengthAdjust="spacing" textLength="77.4375" x="17" y="519.7363">Volatile states</text><text fill="#000000" font-family="Roboto Mono,monospace" font-size="12" lengthAdjust="spacing" textLength="7.2012" x="24.2012" y="535.2402">*</text><text fill="#000000" font-family="Roboto,sans-serif" font-size="12" lengthAdjust="spacing" textLength="41.0684" x="41.5801" y="535.5625">Always:</text><text fill="#000000" font-family="Roboto,sans-serif" font-size="12" font-weight="bold" lengthAdjust="spacing" textLength="35.2324" x="85.625" y="535.5625">reboot</text><text fill="#000000" font-family="Roboto,sans-serif" font-size="12" lengthAdjust="spacing" textLength="104.5371" x="123.834" y="535.5625">transition as shown</text><text fill="#000000" font-family="Roboto Mono,monospace" font-size="12" lengthAdjust="spacing" textLength="7.2012" x="24.2012" y="551.0664">&#8224;</text><text fill="#000000" font-family="Roboto,sans-serif" font-size="12" lengthAdjust="spacing" textLength="41.0684" x="41.5801" y="551.3887">Always:</text><text fill="#000000" font-family="Roboto,sans-serif" font-size="12" font-weight="bold" lengthAdjust="spacing" textLength="35.2324" x="85.625" y="551.3887">reboot</text><text fill="#000000" font-family="Roboto,sans-serif" font-size="12" lengthAdjust="spacing" textLength="80.7246" x="123.834" y="551.3887">is equivalent to</text><text fill="#000000" font-family="Roboto Mono,monospace" font-size="12" lengthAdjust="spacing" textLength="43.207" x="207.5352" y="551.0664">cancel</text><text fill="#000000" font-family="Roboto,sans-serif" font-size="12" lengthAdjust="spacing" textLength="19.9219" x="253.7188" y="551.3887">and</text><text fill="#000000" font-family="Roboto Mono,monospace" font-size="12" lengthAdjust="spacing" textLength="36.0059" x="276.6172" y="551.0664">clean</text><text fill="#000000" font-family="Roboto Mono,monospace" font-size="12" lengthAdjust="spacing" textLength="7.2012" x="24.2012" y="566.8926">&#8225;</text><text fill="#000000" font-family="Roboto,sans-serif" font-size="12" lengthAdjust="spacing" textLength="41.0684" x="41.5801" y="567.2148">Always:</text><text fill="#000000" font-family="Roboto,sans-serif" font-size="12" font-weight="bold" lengthAdjust="spacing" textLength="35.2324" x="85.625" y="567.2148">reboot</text><text fill="#000000" font-family="Roboto,sans-serif" font-size="12" lengthAdjust="spacing" textLength="80.7246" x="123.834" y="567.2148">is equivalent to</text><text fill="#000000" font-family="Roboto Mono,monospace" font-size="12" lengthAdjust="spacing" textLength="36.0059" x="207.5352" y="566.8926">clean</text></g></svg>