<svg xmlns="http://www.w3.org/2000/svg" xmlns:xlink="http://www.w3.org/1999/xlink" contentStyleType="text/css" data-diagram-type="STATE" height="595px" preserveAspectRatio="none" style="width:481px;height:595px;background:#FFFFFF55;" version="1.1" viewBox="0 0 481 595" width="481px" zoomAndPan="magnify"><defs><style type="text/css">@import url('https://fonts.googleapis.com/css?family=Roboto:400,100,100italic,300,300italic,400italic,500,500italic,700,700italic,900,900italic');</style></defs><g><rect fill="#FFFFFF" fill-opacity="0.33333" height="595" style="stroke:none;stroke-width:1;" width="481" x="0" y="0"/><rect fill="#FFFFFF" height="40" rx="4" ry="4" style="stroke:#000000;stroke-width:1;" width="50" x="104.51" y="7"/><text fill="#000000" font-family="Roboto,sans-serif" font-size="12" lengthAdjust="spacing" textLength="37.125" x="110.9475" y="31.1016">READY</text><rect fill="#FFFFFF" height="40" rx="4" ry="4" style="stroke:#000000;stroke-width:1;" width="68.0605" x="10.48" y="124"/><text fill="#000000" font-family="Roboto,sans-serif" font-size="12" lengthAdjust="spacing" textLength="58.0605" x="15.48" y="148.1016">WRITING &#8224;</text><rect fill="#FFFFFF" height="40" rx="4" ry="4" style="stroke:#000000;stroke-width:1;" width="75.0215" x="7" y="241"/><text fill="#000000" font-family="Roboto,sans-serif" font-size="12" lengthAdjust="spacing" textLength="65.0215" x="12" y="265.1016">CANDIDATE</text><rect fill="#FFFFFF" height="40" rx="4" ry="4" style="stroke:#000000;stroke-width:1;" width="63.127" x="104.95" y="371"/><text fill="#000000" font-family="Roboto,sans-serif" font-size="12" lengthAdjust="spacing" textLength="53.127" x="109.95" y="395.1016">STAGED *</text><rect fill="#FFFFFF" height="40" rx="4" ry="4" style="stroke:#000000;stroke-width:1;" width="58.7031" x="161.16" y="241"/><text fill="#000000" font-family="Roboto,sans-serif" font-size="12" lengthAdjust="spacing" textLength="48.7031" x="166.16" y="265.1016">FAILED &#8225;</text><rect fill="#FFFFFF" height="40" rx="4" ry="4" style="stroke:#000000;stroke-width:1;" width="72.7305" x="280.15" y="371"/><text fill="#000000" font-family="Roboto,sans-serif" font-size="12" lengthAdjust="spacing" textLength="62.7305" x="285.15" y="395.1016">UPDATED &#8225;</text><rect fill="#FFFFFF" height="40" rx="4" ry="4" style="stroke:#000000;stroke-width:1;" width="50" x="425.51" y="371"/><text fill="#000000" font-family="Roboto,sans-serif" font-size="12" lengthAdjust="spacing" textLength="37.125" x="431.9475" y="395.1016">READY</text><!--link Start to Writing--><g class="link" data-entity-1="Start" data-entity-2="Writing" data-source-line="30" data-uid="lnk2" id="link_Start_Writing"><path d="M115.28,47.25 C99.59,68.48 78.0569,97.6153 62.3469,118.8653" fill="none" id="Start-to-Writing" style="stroke:#0000FF;stroke-width:1;"/><polygon fill="#0000FF" points="58.78,123.69,67.3467,118.8309,61.7524,119.6694,60.9138,114.0751,58.78,123.69" style="stroke:#0000FF;stroke-width:1;"/><text fill="#000000" font-family="Roboto Mono,monospace" font-size="12" lengthAdjust="spacing" textLength="36.0059" x="93.1" y="90.5742">start</text></g><!--link Writing to Writing--><g class="link" data-entity-1="Writing" data-entity-2="Writing" data-source-line="31" data-uid="lnk3" id="link_Writing_Writing"><path d="M78.96,133.45 C97.1,131.74 113.54,135.26 113.54,144 C113.54,152.74 103.0735,156.8231 84.9335,155.1131" fill="none" id="Writing-to-Writing" style="stroke:#0000FF;stroke-width:1;"/><polygon fill="#0000FF" points="78.96,154.55,87.5449,159.377,83.9379,155.0193,88.2957,151.4123,78.96,154.55" style="stroke:#0000FF;stroke-width:1;"/><text fill="#000000" font-family="Roboto Mono,monospace" font-size="12" lengthAdjust="spacing" textLength="36.0059" x="119.54" y="149.0742">write</text></g><!--link Writing to Candidate--><g class="link" data-entity-1="Writing" data-entity-2="Candidate" data-source-line="32" data-uid="lnk4" id="link_Writing_Candidate"><path d="M44.51,164.25 C44.51,185.48 44.51,213.44 44.51,234.69" fill="none" id="Writing-to-Candidate" style="stroke:#0000FF;stroke-width:1;"/><polygon fill="#0000FF" points="44.51,240.69,48.51,231.69,44.51,235.69,40.51,231.69,44.51,240.69" style="stroke:#0000FF;stroke-width:1;"/><text fill="#000000" font-family="Roboto Mono,monospace" font-size="12" lengthAdjust="spacing" textLength="43.207" x="45.51" y="207.5742">finish</text></g><!--link Writing to Failed--><g class="link" data-entity-1="Writing" data-entity-2="Failed" data-source-line="33" data-uid="lnk5" id="link_Writing_Failed"><path d="M68.95,164.25 C95.9,185.48 134.2965,215.7275 161.2765,236.9775" fill="none" id="Writing-to-Failed" style="stroke:#0000FF;stroke-width:1;"/><polygon fill="#0000FF" points="165.99,240.69,161.3947,231.9789,162.062,237.5963,156.4447,238.2636,165.99,240.69" style="stroke:#0000FF;stroke-width:1;"/><text fill="#000000" font-family="Roboto Mono,monospace" font-size="12" lengthAdjust="spacing" textLength="43.207" x="127.25" y="207.5742">cancel</text></g><!--link Candidate to Failed--><g class="link" data-entity-1="Candidate" data-entity-2="Failed" data-source-line="34" data-uid="lnk6" id="link_Candidate_Failed"><path d="M82.49,261 C106.99,261 132.39,261 155.02,261" fill="none" id="Candidate-to-Failed" style="stroke:#0000FF;stroke-width:1;"/><polygon fill="#0000FF" points="161.02,261,152.02,257,156.02,261,152.02,265,161.02,261" style="stroke:#0000FF;stroke-width:1;"/><text fill="#000000" font-family="Roboto Mono,monospace" font-size="12" lengthAdjust="spacing" textLength="43.207" x="100.09" y="254.5742">cancel</text></g><!--link Candidate to Staged--><g class="link" data-entity-1="Candidate" data-entity-2="Staged" data-source-line="35" data-uid="lnk7" id="link_Candidate_Staged"><path d="M45.59,281.46 C47.38,298.51 52.1,323.26 64.51,341 C74.57,355.37 85.0909,363.785 99.2909,371.965" fill="none" id="Candidate-to-Staged" style="stroke:#8B0000;stroke-width:1;"/><polygon fill="#8B0000" points="104.49,374.96,98.688,367.0015,100.1574,372.4642,94.6948,373.9336,104.49,374.96" style="stroke:#8B0000;stroke-width:1;"/><text fill="#000000" font-family="Roboto Mono,monospace" font-size="12" lengthAdjust="spacing" textLength="50.4082" x="65.51" y="331.0742">install</text></g><!--link Staged to Updated--><g class="link" data-entity-1="Staged" data-entity-2="Updated" data-source-line="37" data-uid="lnk8" id="link_Staged_Updated"><path d="M168.28,391 C199.46,391 241,391 273.79,391" fill="none" id="Staged-to-Updated" style="stroke:#8B0000;stroke-width:1;stroke-dasharray:7.0,7.0;"/><polygon fill="#8B0000" points="279.79,391,270.79,387,274.79,391,270.79,395,279.79,391" style="stroke:#8B0000;stroke-width:1;"/><text fill="#000000" font-family="Roboto,sans-serif" font-size="12" font-weight="bold" lengthAdjust="spacing" textLength="35.2324" x="205.443" y="370.1328">reboot</text><text fill="#000000" font-family="Roboto,sans-serif" font-size="12" lengthAdjust="spacing" textLength="2.9063" x="240.6754" y="370.1328">:</text><text fill="#000000" font-family="Roboto,sans-serif" font-size="12" font-style="italic" lengthAdjust="spacing" textLength="76.8047" x="186.11" y="384.1953">install success</text></g><!--reverse link Failed to Staged--><g class="link" data-entity-1="Failed" data-entity-2="Staged" data-source-line="38" data-uid="lnk10" id="link_Failed_Staged"><path d="M192.0894,287.4079 C192.5294,303.9679 191.14,322.06 182.51,341 C177.38,352.26 168.62,362.59 160.1,370.84" fill="none" id="Failed-backto-Staged" style="stroke:#8B0000;stroke-width:1;stroke-dasharray:7.0,7.0;"/><polygon fill="#8B0000" points="191.93,281.41,188.1705,290.5131,192.0628,286.4082,196.1676,290.3006,191.93,281.41" style="stroke:#8B0000;stroke-width:1;"/><text fill="#000000" font-family="Roboto,sans-serif" font-size="12" font-weight="bold" lengthAdjust="spacing" textLength="35.2324" x="203.7352" y="323.1328">reboot</text><text fill="#000000" font-family="Roboto,sans-serif" font-size="12" lengthAdjust="spacing" textLength="2.9063" x="238.9676" y="323.1328">:</text><text fill="#000000" font-family="Roboto,sans-serif" font-size="12" font-style="italic" lengthAdjust="spacing" textLength="62.7891" x="191.41" y="337.1953">install failed</text></g><!--reverse link Failed to Staged--><g class="link" data-entity-1="Failed" data-entity-2="Staged" data-source-line="39" data-uid="lnk12" id="link_Failed_Staged"><path d="M155.9181,281.1885 C143.8381,289.3485 136.15,297.16 129.51,311 C120.46,329.87 124.63,354.18 129.5,370.82" fill="none" id="Failed-backto-Staged-1" style="stroke:#8B0000;stroke-width:1;"/><polygon fill="#8B0000" points="160.89,277.83,151.1931,279.5532,156.7467,280.6288,155.6711,286.1824,160.89,277.83" style="stroke:#8B0000;stroke-width:1;"/><text fill="#000000" font-family="Roboto Mono,monospace" font-size="12" lengthAdjust="spacing" textLength="43.207" x="130.51" y="331.0742">reject</text></g><!--reverse link Start to Failed--><g class="link" data-entity-1="Start" data-entity-2="Failed" data-source-line="41" data-uid="lnk14" id="link_Start_Failed"><path d="M138.8092,52.9519 C145.8892,72.2219 154.64,97.11 162.51,124 C171.5,154.73 173.1,162.63 179.51,194 C182.7,209.59 185.63,227.4 187.66,240.58" fill="none" id="Start-backto-Failed" style="stroke:#0000FF;stroke-width:1;"/><polygon fill="#0000FF" points="136.74,47.32,136.0892,57.1473,138.4644,52.0133,143.5984,54.3884,136.74,47.32" style="stroke:#0000FF;stroke-width:1;"/><text fill="#000000" font-family="Roboto Mono,monospace" font-size="12" lengthAdjust="spacing" textLength="36.0059" x="174.2" y="149.0742">clean</text></g><!--link Updated to End--><g class="link" data-entity-1="Updated" data-entity-2="End" data-source-line="43" data-uid="lnk15" id="link_Updated_End"><path d="M353.13,391 C376.06,391 399.03,391 419.39,391" fill="none" id="Updated-to-End" style="stroke:#0000FF;stroke-width:1;"/><polygon fill="#0000FF" points="425.39,391,416.39,387,420.39,391,416.39,395,425.39,391" style="stroke:#0000FF;stroke-width:1;"/><text fill="#000000" font-family="Roboto Mono,monospace" font-size="12" lengthAdjust="spacing" textLength="36.0059" x="371.19" y="384.5742">clean</text></g><rect fill="#E8E8E8" height="147.1445" rx="4" ry="4" style="stroke:#000000;stroke-width:1;" width="312.2148" x="77.6476" y="428"/><text fill="#000000" font-family="Roboto,sans-serif" font-size="12" font-weight="bold" lengthAdjust="spacing" textLength="61.2188" x="82.6476" y="444.1328">Transitions</text><text fill="#0000FF" font-family="Roboto Mono,monospace" font-size="12" lengthAdjust="spacing" text-decoration="line-through" textLength="21.6035" x="82.6476" y="459.6367">&#8212;&#8212;&#8212;</text><text fill="#000000" font-family="Roboto,sans-serif" font-size="12" lengthAdjust="spacing" textLength="161.4316" x="107.2277" y="459.959">Applies to a single component</text><text fill="#8B0000" font-family="Roboto Mono,monospace" font-size="12" lengthAdjust="spacing" text-decoration="line-through" textLength="21.6035" x="82.6476" y="475.4629">&#8212;&#8212;&#8212;</text><text fill="#000000" font-family="Roboto,sans-serif" font-size="12" lengthAdjust="spacing" textLength="138.7266" x="107.2277" y="475.7852">Applies to all components</text><text fill="#000000" font-family="Roboto Mono,monospace" font-size="12" lengthAdjust="spacing" textLength="21.6035" x="82.6476" y="491.2891">---</text><text fill="#000000" font-family="Roboto,sans-serif" font-size="12" lengthAdjust="spacing" textLength="79.8691" x="107.2277" y="491.6113">Transition over</text><text fill="#000000" font-family="Roboto,sans-serif" font-size="12" font-weight="bold" lengthAdjust="spacing" textLength="35.2324" x="190.0734" y="491.6113">reboot</text><text fill="#000000" font-family="Roboto,sans-serif" font-size="12" lengthAdjust="spacing" textLength="3.1641" x="225.3058" y="491.6113">.</text><text fill="#000000" font-family="Roboto,sans-serif" font-size="12" lengthAdjust="spacing" textLength="2.9766" x="82.6476" y="505.6738">&#160;</text><text fill="#000000" font-family="Roboto,sans-serif" font-size="12" font-weight="bold" lengthAdjust="spacing" textLength="77.4375" x="82.6476" y="519.7363">Volatile states</text><text fill="#000000" font-family="Roboto Mono,monospace" font-size="12" lengthAdjust="spacing" textLength="7.2012" x="89.8488" y="535.2402">*</text><text fill="#000000" font-family="Roboto,sans-serif" font-size="12" lengthAdjust="spacing" textLength="41.0684" x="107.2277" y="535.5625">Always:</text><text fill="#000000" font-family="Roboto,sans-serif" font-size="12" font-weight="bold" lengthAdjust="spacing" textLength="35.2324" x="151.2726" y="535.5625">reboot</text><text fill="#000000" font-family="Roboto,sans-serif" font-size="12" lengthAdjust="spacing" textLength="104.5371" x="189.4816" y="535.5625">transition as shown</text><text fill="#000000" font-family="Roboto Mono,monospace" font-size="12" lengthAdjust="spacing" textLength="7.2012" x="89.8488" y="551.0664">&#8224;</text><text fill="#000000" font-family="Roboto,sans-serif" font-size="12" lengthAdjust="spacing" textLength="47.6602" x="107.2277" y="551.3887">Optional:</text><text fill="#000000" font-family="Roboto,sans-serif" font-size="12" font-weight="bold" lengthAdjust="spacing" textLength="35.2324" x="157.8644" y="551.3887">reboot</text><text fill="#000000" font-family="Roboto,sans-serif" font-size="12" lengthAdjust="spacing" textLength="80.7246" x="196.0734" y="551.3887">is equivalent to</text><text fill="#000000" font-family="Roboto Mono,monospace" font-size="12" lengthAdjust="spacing" textLength="43.207" x="279.7745" y="551.0664">cancel</text><text fill="#000000" font-family="Roboto,sans-serif" font-size="12" lengthAdjust="spacing" textLength="19.9219" x="325.9581" y="551.3887">and</text><text fill="#000000" font-family="Roboto Mono,monospace" font-size="12" lengthAdjust="spacing" textLength="36.0059" x="348.8566" y="551.0664">clean</text><text fill="#000000" font-family="Roboto Mono,monospace" font-size="12" lengthAdjust="spacing" textLength="7.2012" x="89.8488" y="566.8926">&#8225;</text><text fill="#000000" font-family="Roboto,sans-serif" font-size="12" lengthAdjust="spacing" textLength="47.6602" x="107.2277" y="567.2148">Optional:</text><text fill="#000000" font-family="Roboto,sans-serif" font-size="12" font-weight="bold" lengthAdjust="spacing" textLength="35.2324" x="157.8644" y="567.2148">reboot</text><text fill="#000000" font-family="Roboto,sans-serif" font-size="12" lengthAdjust="spacing" textLength="80.7246" x="196.0734" y="567.2148">is equivalent to</text><text fill="#000000" font-family="Roboto Mono,monospace" font-size="12" lengthAdjust="spacing" textLength="36.0059" x="279.7745" y="566.8926">clean</text></g></svg>