<svg xmlns="http://www.w3.org/2000/svg" xmlns:xlink="http://www.w3.org/1999/xlink" contentStyleType="text/css" data-diagram-type="STATE" height="712px" preserveAspectRatio="none" style="width:445px;height:712px;background:#FFFFFF55;" version="1.1" viewBox="0 0 445 712" width="445px" zoomAndPan="magnify"><defs><style type="text/css">@import url('https://fonts.googleapis.com/css?family=Roboto:400,100,100italic,300,300italic,400italic,500,500italic,700,700italic,900,900italic');</style></defs><g><rect fill="#FFFFFF" fill-opacity="0.33333" height="712" style="stroke:none;stroke-width:1;" width="445" x="0" y="0"/><rect fill="#FFFFFF" height="40" rx="4" ry="4" style="stroke:#000000;stroke-width:1;" width="50" x="57.09" y="7"/><text fill="#000000" font-family="Roboto,sans-serif" font-size="12" lengthAdjust="spacing" textLength="37.125" x="63.5275" y="31.1016">READY</text><rect fill="#FFFFFF" height="40" rx="4" ry="4" style="stroke:#000000;stroke-width:1;" width="68.0605" x="48.06" y="124"/><text fill="#000000" font-family="Roboto,sans-serif" font-size="12" lengthAdjust="spacing" textLength="58.0605" x="53.06" y="148.1016">WRITING &#8224;</text><rect fill="#FFFFFF" height="40" rx="4" ry="4" style="stroke:#000000;stroke-width:1;" width="84.6191" x="48.78" y="254"/><text fill="#000000" font-family="Roboto,sans-serif" font-size="12" lengthAdjust="spacing" textLength="74.6191" x="53.78" y="278.1016">CANDIDATE &#8224;</text><rect fill="#FFFFFF" height="40" rx="4" ry="4" style="stroke:#000000;stroke-width:1;" width="63.127" x="59.52" y="371"/><text fill="#000000" font-family="Roboto,sans-serif" font-size="12" lengthAdjust="spacing" textLength="53.127" x="64.52" y="395.1016">STAGED *</text><rect fill="#FFFFFF" height="40" rx="4" ry="4" style="stroke:#000000;stroke-width:1;" width="58.7031" x="212.74" y="254"/><text fill="#000000" font-family="Roboto,sans-serif" font-size="12" lengthAdjust="spacing" textLength="48.7031" x="217.74" y="278.1016">FAILED &#8225;</text><rect fill="#FFFFFF" height="40" rx="4" ry="4" style="stroke:#000000;stroke-width:1;" width="75.4668" x="364.35" y="371"/><text fill="#000000" font-family="Roboto,sans-serif" font-size="12" lengthAdjust="spacing" textLength="65.4668" x="369.35" y="395.1016">REJECTED *</text><rect fill="#FFFFFF" height="40" rx="4" ry="4" style="stroke:#000000;stroke-width:1;" width="50.2539" x="234.96" y="371"/><text fill="#000000" font-family="Roboto,sans-serif" font-size="12" lengthAdjust="spacing" textLength="40.2539" x="239.96" y="395.1016">TRIAL *</text><rect fill="#FFFFFF" height="40" rx="4" ry="4" style="stroke:#000000;stroke-width:1;" width="72.7305" x="223.72" y="488"/><text fill="#000000" font-family="Roboto,sans-serif" font-size="12" lengthAdjust="spacing" textLength="62.7305" x="228.72" y="512.1016">UPDATED &#8225;</text><rect fill="#FFFFFF" height="40" rx="4" ry="4" style="stroke:#000000;stroke-width:1;" width="50" x="369.09" y="488"/><text fill="#000000" font-family="Roboto,sans-serif" font-size="12" lengthAdjust="spacing" textLength="37.125" x="375.5275" y="512.1016">READY</text><!--link Start to Writing--><g class="link" data-entity-1="Start" data-entity-2="Writing" data-source-line="32" data-uid="lnk2" id="link_Start_Writing"><path d="M82.09,47.25 C82.09,68.48 82.09,96.44 82.09,117.69" fill="none" id="Start-to-Writing" style="stroke:#0000FF;stroke-width:1;"/><polygon fill="#0000FF" points="82.09,123.69,86.09,114.69,82.09,118.69,78.09,114.69,82.09,123.69" style="stroke:#0000FF;stroke-width:1;"/><text fill="#000000" font-family="Roboto Mono,monospace" font-size="12" lengthAdjust="spacing" textLength="36.0059" x="83.09" y="90.5742">start</text></g><!--link Writing to Writing--><g class="link" data-entity-1="Writing" data-entity-2="Writing" data-source-line="33" data-uid="lnk3" id="link_Writing_Writing"><path d="M116.54,133.45 C134.68,131.74 151.12,135.26 151.12,144 C151.12,152.74 140.6535,156.8231 122.5135,155.1131" fill="none" id="Writing-to-Writing" style="stroke:#0000FF;stroke-width:1;"/><polygon fill="#0000FF" points="116.54,154.55,125.1249,159.377,121.5179,155.0193,125.8757,151.4123,116.54,154.55" style="stroke:#0000FF;stroke-width:1;"/><text fill="#000000" font-family="Roboto Mono,monospace" font-size="12" lengthAdjust="spacing" textLength="36.0059" x="157.12" y="149.0742">write</text></g><!--link Writing to Candidate--><g class="link" data-entity-1="Writing" data-entity-2="Candidate" data-source-line="34" data-uid="lnk4" id="link_Writing_Candidate"><path d="M83.45,164.44 C85.16,188.64 87.6176,223.7249 89.3176,247.8149" fill="none" id="Writing-to-Candidate" style="stroke:#0000FF;stroke-width:1;"/><polygon fill="#0000FF" points="89.74,253.8,93.0965,244.5408,89.388,248.8124,85.1164,245.1039,89.74,253.8" style="stroke:#0000FF;stroke-width:1;"/><text fill="#000000" font-family="Roboto Mono,monospace" font-size="12" lengthAdjust="spacing" textLength="43.207" x="88.39" y="214.0742">finish</text></g><!--link Writing to Failed--><g class="link" data-entity-1="Writing" data-entity-2="Failed" data-source-line="35" data-uid="lnk5" id="link_Writing_Failed"><path d="M106.39,164.44 C136.55,188.57 182.9954,225.7211 213.1354,249.8411" fill="none" id="Writing-to-Failed" style="stroke:#0000FF;stroke-width:1;"/><polygon fill="#0000FF" points="217.82,253.59,213.2924,244.8435,213.9162,250.4659,208.2938,251.0897,217.82,253.59" style="stroke:#0000FF;stroke-width:1;"/><text fill="#000000" font-family="Roboto Mono,monospace" font-size="12" lengthAdjust="spacing" textLength="43.207" x="177.42" y="214.0742">cancel</text></g><!--link Candidate to Staged--><g class="link" data-entity-1="Candidate" data-entity-2="Staged" data-source-line="36" data-uid="lnk6" id="link_Candidate_Staged"><path d="M91.09,294.25 C91.09,315.48 91.09,343.44 91.09,364.69" fill="none" id="Candidate-to-Staged" style="stroke:#8B0000;stroke-width:1;"/><polygon fill="#8B0000" points="91.09,370.69,95.09,361.69,91.09,365.69,87.09,361.69,91.09,370.69" style="stroke:#8B0000;stroke-width:1;"/><text fill="#000000" font-family="Roboto Mono,monospace" font-size="12" lengthAdjust="spacing" textLength="50.4082" x="92.09" y="337.5742">install</text></g><!--link Candidate to Failed--><g class="link" data-entity-1="Candidate" data-entity-2="Failed" data-source-line="37" data-uid="lnk7" id="link_Candidate_Failed"><path d="M133.55,274 C158.67,274 183.87,274 206.37,274" fill="none" id="Candidate-to-Failed" style="stroke:#0000FF;stroke-width:1;"/><polygon fill="#0000FF" points="212.37,274,203.37,270,207.37,274,203.37,278,212.37,274" style="stroke:#0000FF;stroke-width:1;"/><text fill="#000000" font-family="Roboto Mono,monospace" font-size="12" lengthAdjust="spacing" textLength="43.207" x="151.57" y="267.5742">cancel</text></g><!--link Staged to Trial--><g class="link" data-entity-1="Staged" data-entity-2="Trial" data-source-line="39" data-uid="lnk8" id="link_Staged_Trial"><path d="M122.87,391 C155.19,391 198.64,391 228.51,391" fill="none" id="Staged-to-Trial" style="stroke:#8B0000;stroke-width:1;stroke-dasharray:7.0,7.0;"/><polygon fill="#8B0000" points="234.51,391,225.51,387,229.51,391,225.51,395,234.51,391" style="stroke:#8B0000;stroke-width:1;"/><text fill="#000000" font-family="Roboto,sans-serif" font-size="12" font-weight="bold" lengthAdjust="spacing" textLength="35.2324" x="160.133" y="370.1328">reboot</text><text fill="#000000" font-family="Roboto,sans-serif" font-size="12" lengthAdjust="spacing" textLength="2.9063" x="195.3654" y="370.1328">:</text><text fill="#000000" font-family="Roboto,sans-serif" font-size="12" font-style="italic" lengthAdjust="spacing" textLength="76.8047" x="140.8" y="384.1953">install success</text></g><!--link Staged to Start--><g class="link" data-entity-1="Staged" data-entity-2="Start" data-source-line="40" data-uid="lnk9" id="link_Staged_Start"><path d="M76.48,370.79 C62.91,352.1 43.06,322.44 31.09,294 C18.67,264.49 17.89,255.79 14.09,224 C6,156.41 43.6925,86.848 65.6625,52.418" fill="none" id="Staged-to-Start" style="stroke:#8B0000;stroke-width:1;stroke-dasharray:7.0,7.0;"/><polygon fill="#8B0000" points="68.89,47.36,60.6767,52.7953,66.2004,51.575,67.4207,57.0986,68.89,47.36" style="stroke:#8B0000;stroke-width:1;"/><text fill="#000000" font-family="Roboto,sans-serif" font-size="12" font-weight="bold" lengthAdjust="spacing" textLength="35.2324" x="27.4152" y="206.1328">reboot</text><text fill="#000000" font-family="Roboto,sans-serif" font-size="12" lengthAdjust="spacing" textLength="2.9063" x="62.6476" y="206.1328">:</text><text fill="#000000" font-family="Roboto,sans-serif" font-size="12" font-style="italic" lengthAdjust="spacing" textLength="62.7891" x="15.09" y="220.1953">install failed</text></g><!--reverse link Failed to Staged--><g class="link" data-entity-1="Failed" data-entity-2="Staged" data-source-line="41" data-uid="lnk11" id="link_Failed_Staged"><path d="M212.0371,297.8858 C184.1671,319.1158 144.35,349.44 116.44,370.69" fill="none" id="Failed-backto-Staged" style="stroke:#8B0000;stroke-width:1;"/><polygon fill="#8B0000" points="216.81,294.25,207.2267,296.5217,212.8325,297.2798,212.0744,302.8857,216.81,294.25" style="stroke:#8B0000;stroke-width:1;"/><text fill="#000000" font-family="Roboto Mono,monospace" font-size="12" lengthAdjust="spacing" textLength="43.207" x="176.63" y="337.5742">reject</text></g><!--link Trial to Updated--><g class="link" data-entity-1="Trial" data-entity-2="Updated" data-source-line="43" data-uid="lnk12" id="link_Trial_Updated"><path d="M260.09,411.25 C260.09,432.48 260.09,460.44 260.09,481.69" fill="none" id="Trial-to-Updated" style="stroke:#8B0000;stroke-width:1;"/><polygon fill="#8B0000" points="260.09,487.69,264.09,478.69,260.09,482.69,256.09,478.69,260.09,487.69" style="stroke:#8B0000;stroke-width:1;"/><text fill="#000000" font-family="Roboto Mono,monospace" font-size="12" lengthAdjust="spacing" textLength="43.207" x="261.09" y="454.5742">accept</text></g><!--reverse link Start to Failed--><g class="link" data-entity-1="Start" data-entity-2="Failed" data-source-line="45" data-uid="lnk14" id="link_Start_Failed"><path d="M112.3584,46.3825 C138.6084,63.2425 174.37,89.48 200.09,124 C229.63,163.66 238.4,223.28 241,253.68" fill="none" id="Start-backto-Failed" style="stroke:#0000FF;stroke-width:1;"/><polygon fill="#0000FF" points="107.31,43.14,112.7209,51.3693,111.517,45.8421,117.0442,44.6382,107.31,43.14" style="stroke:#0000FF;stroke-width:1;"/><text fill="#000000" font-family="Roboto Mono,monospace" font-size="12" lengthAdjust="spacing" textLength="36.0059" x="222.11" y="149.0742">clean</text></g><!--link Trial to Rejected--><g class="link" data-entity-1="Trial" data-entity-2="Rejected" data-source-line="46" data-uid="lnk15" id="link_Trial_Rejected"><path d="M285.47,391 C307.33,391 333.19,391 358.09,391" fill="none" id="Trial-to-Rejected" style="stroke:#8B0000;stroke-width:1;"/><polygon fill="#8B0000" points="364.09,391,355.09,387,359.09,391,355.09,395,364.09,391" style="stroke:#8B0000;stroke-width:1;"/><text fill="#000000" font-family="Roboto Mono,monospace" font-size="12" lengthAdjust="spacing" textLength="43.207" x="303.28" y="384.5742">reject</text></g><!--link Rejected to Start--><g class="link" data-entity-1="Rejected" data-entity-2="Start" data-source-line="47" data-uid="lnk16" id="link_Rejected_Start"><path d="M398.9,370.69 C392.54,334.77 376.47,255.7 349.09,194 C334.08,160.19 327.74,152.43 304.09,124 C284.58,100.55 280.61,92.05 254.09,77 C206.29,49.88 148.2876,37.7691 113.3876,32.2991" fill="none" id="Rejected-to-Start" style="stroke:#8B0000;stroke-width:1;stroke-dasharray:7.0,7.0;"/><polygon fill="#8B0000" points="107.46,31.37,115.7321,36.7153,112.3997,32.1442,116.9708,28.8118,107.46,31.37" style="stroke:#8B0000;stroke-width:1;"/><text fill="#000000" font-family="Roboto,sans-serif" font-size="12" font-weight="bold" lengthAdjust="spacing" textLength="35.2324" x="363.4454" y="206.1328">reboot</text><text fill="#000000" font-family="Roboto,sans-serif" font-size="12" lengthAdjust="spacing" textLength="2.9063" x="398.6778" y="206.1328">:</text><text fill="#000000" font-family="Roboto,sans-serif" font-size="12" font-style="italic" lengthAdjust="spacing" textLength="41.1094" x="361.96" y="220.1953">rollback</text></g><!--link Trial to Start--><g class="link" data-entity-1="Trial" data-entity-2="Start" data-source-line="49" data-uid="lnk17" id="link_Trial_Start"><path d="M267.81,370.53 C274.96,351.4 285.07,321.21 289.09,294 C300.22,218.63 309.8,187.08 267.09,124 C229.35,68.27 154.6297,44.2178 113.3897,34.4878" fill="none" id="Trial-to-Start" style="stroke:#8B0000;stroke-width:1;stroke-dasharray:7.0,7.0;"/><polygon fill="#8B0000" points="107.55,33.11,115.391,39.0698,112.4164,34.2582,117.228,31.2836,107.55,33.11" style="stroke:#8B0000;stroke-width:1;"/><text fill="#000000" font-family="Roboto,sans-serif" font-size="12" font-weight="bold" lengthAdjust="spacing" textLength="35.2324" x="301.0454" y="206.1328">reboot</text><text fill="#000000" font-family="Roboto,sans-serif" font-size="12" lengthAdjust="spacing" textLength="2.9063" x="336.2778" y="206.1328">:</text><text fill="#000000" font-family="Roboto,sans-serif" font-size="12" font-style="italic" lengthAdjust="spacing" textLength="41.1094" x="299.56" y="220.1953">rollback</text></g><!--link Updated to End--><g class="link" data-entity-1="Updated" data-entity-2="End" data-source-line="51" data-uid="lnk18" id="link_Updated_End"><path d="M296.7,508 C319.64,508 342.6,508 362.96,508" fill="none" id="Updated-to-End" style="stroke:#0000FF;stroke-width:1;"/><polygon fill="#0000FF" points="368.96,508,359.96,504,363.96,508,359.96,512,368.96,508" style="stroke:#0000FF;stroke-width:1;"/><text fill="#000000" font-family="Roboto Mono,monospace" font-size="12" lengthAdjust="spacing" textLength="36.0059" x="314.77" y="501.5742">clean</text></g><rect fill="#E8E8E8" height="147.1445" rx="4" ry="4" style="stroke:#000000;stroke-width:1;" width="305.623" x="63.0969" y="545"/><text fill="#000000" font-family="Roboto,sans-serif" font-size="12" font-weight="bold" lengthAdjust="spacing" textLength="61.2188" x="68.0969" y="561.1328">Transitions</text><text fill="#0000FF" font-family="Roboto Mono,monospace" font-size="12" lengthAdjust="spacing" text-decoration="line-through" textLength="21.6035" x="68.0969" y="576.6367">&#8212;&#8212;&#8212;</text><text fill="#000000" font-family="Roboto,sans-serif" font-size="12" lengthAdjust="spacing" textLength="161.4316" x="92.677" y="576.959">Applies to a single component</text><text fill="#8B0000" font-family="Roboto Mono,monospace" font-size="12" lengthAdjust="spacing" text-decoration="line-through" textLength="21.6035" x="68.0969" y="592.4629">&#8212;&#8212;&#8212;</text><text fill="#000000" font-family="Roboto,sans-serif" font-size="12" lengthAdjust="spacing" textLength="138.7266" x="92.677" y="592.7852">Applies to all components</text><text fill="#000000" font-family="Roboto Mono,monospace" font-size="12" lengthAdjust="spacing" textLength="21.6035" x="68.0969" y="608.2891">---</text><text fill="#000000" font-family="Roboto,sans-serif" font-size="12" lengthAdjust="spacing" textLength="79.8691" x="92.677" y="608.6113">Transition over</text><text fill="#000000" font-family="Roboto,sans-serif" font-size="12" font-weight="bold" lengthAdjust="spacing" textLength="35.2324" x="175.5227" y="608.6113">reboot</text><text fill="#000000" font-family="Roboto,sans-serif" font-size="12" lengthAdjust="spacing" textLength="2.9766" x="68.0969" y="622.6738">&#160;</text><text fill="#000000" font-family="Roboto,sans-serif" font-size="12" font-weight="bold" lengthAdjust="spacing" textLength="77.4375" x="68.0969" y="636.7363">Volatile states</text><text fill="#000000" font-family="Roboto Mono,monospace" font-size="12" lengthAdjust="spacing" textLength="7.2012" x="75.298" y="652.2402">*</text><text fill="#000000" font-family="Roboto,sans-serif" font-size="12" lengthAdjust="spacing" textLength="41.0684" x="92.677" y="652.5625">Always:</text><text fill="#000000" font-family="Roboto,sans-serif" font-size="12" font-weight="bold" lengthAdjust="spacing" textLength="35.2324" x="136.7219" y="652.5625">reboot</text><text fill="#000000" font-family="Roboto,sans-serif" font-size="12" lengthAdjust="spacing" textLength="104.5371" x="174.9309" y="652.5625">transition as shown</text><text fill="#000000" font-family="Roboto Mono,monospace" font-size="12" lengthAdjust="spacing" textLength="7.2012" x="75.298" y="668.0664">&#8224;</text><text fill="#000000" font-family="Roboto,sans-serif" font-size="12" lengthAdjust="spacing" textLength="41.0684" x="92.677" y="668.3887">Always:</text><text fill="#000000" font-family="Roboto,sans-serif" font-size="12" font-weight="bold" lengthAdjust="spacing" textLength="35.2324" x="136.7219" y="668.3887">reboot</text><text fill="#000000" font-family="Roboto,sans-serif" font-size="12" lengthAdjust="spacing" textLength="80.7246" x="174.9309" y="668.3887">is equivalent to</text><text fill="#000000" font-family="Roboto Mono,monospace" font-size="12" lengthAdjust="spacing" textLength="43.207" x="258.632" y="668.0664">cancel</text><text fill="#000000" font-family="Roboto,sans-serif" font-size="12" lengthAdjust="spacing" textLength="19.9219" x="304.8156" y="668.3887">and</text><text fill="#000000" font-family="Roboto Mono,monospace" font-size="12" lengthAdjust="spacing" textLength="36.0059" x="327.7141" y="668.0664">clean</text><text fill="#000000" font-family="Roboto Mono,monospace" font-size="12" lengthAdjust="spacing" textLength="7.2012" x="75.298" y="683.8926">&#8225;</text><text fill="#000000" font-family="Roboto,sans-serif" font-size="12" lengthAdjust="spacing" textLength="41.0684" x="92.677" y="684.2148">Always:</text><text fill="#000000" font-family="Roboto,sans-serif" font-size="12" font-weight="bold" lengthAdjust="spacing" textLength="35.2324" x="136.7219" y="684.2148">reboot</text><text fill="#000000" font-family="Roboto,sans-serif" font-size="12" lengthAdjust="spacing" textLength="80.7246" x="174.9309" y="684.2148">is equivalent to</text><text fill="#000000" font-family="Roboto Mono,monospace" font-size="12" lengthAdjust="spacing" textLength="36.0059" x="258.632" y="683.8926">clean</text></g></svg>