<svg xmlns="http://www.w3.org/2000/svg" xmlns:xlink="http://www.w3.org/1999/xlink" contentStyleType="text/css" data-diagram-type="DESCRIPTION" height="241px" preserveAspectRatio="none" style="width:639px;height:241px;background:#FFFFFF55;" version="1.1" viewBox="0 0 639 241" width="639px" zoomAndPan="magnify"><defs/><g><rect fill="#FFFFFF" fill-opacity="0.33333" height="241" style="stroke:none;stroke-width:1;" width="639" x="0" y="0"/><g class="cluster" data-entity="##2" data-source-line="14" data-uid="ent0003" id="cluster_##2"><rect fill="#FFFFFF" fill-opacity="0.56471" height="102" style="stroke:#8B0000;stroke-width:1;stroke-dasharray:7.0,7.0;" width="299.7" x="7" y="7"/><text fill="#000000" font-family="Lato,sans-serif" font-size="11" font-style="italic" lengthAdjust="spacing" textLength="107.063" x="103.3185" y="19.857">&#171;Application boundary&#187;</text></g><g class="cluster" data-entity="##6" data-source-line="14" data-uid="ent0007" id="cluster_##6"><rect fill="#FFFFFF" fill-opacity="0.56471" height="92" style="stroke:#8B0000;stroke-width:1;stroke-dasharray:7.0,7.0;" width="298.59" x="334.7" y="75"/><text fill="#000000" font-family="Lato,sans-serif" font-size="11" font-style="italic" lengthAdjust="spacing" textLength="127.8145" x="420.0878" y="87.857">&#171;Data protection boundary&#187;</text></g><g class="cluster" data-entity="##10" data-source-line="14" data-uid="ent0011" id="cluster_##10"><rect fill="#FFFFFF" fill-opacity="0.56471" height="102" style="stroke:#8B0000;stroke-width:1;stroke-dasharray:7.0,7.0;" width="299.7" x="7" y="133"/><text fill="#000000" font-family="Lato,sans-serif" font-size="11" font-style="italic" lengthAdjust="spacing" textLength="107.063" x="103.3185" y="145.857">&#171;Application boundary&#187;</text></g><!--entity caller1--><g class="entity" data-entity="caller1" data-source-line="16" data-uid="ent0004" id="entity_caller1"><rect fill="#7D868C" height="34.4" rx="4" ry="4" width="89.696" x="23" y="48.8"/><text fill="#FFFFFF" font-family="Lato,sans-serif" font-size="12" lengthAdjust="spacing" textLength="69.696" x="33" y="70.644">Application 1</text></g><!--entity api1--><g class="entity" data-entity="api1" data-source-line="17" data-uid="ent0005" id="entity_api1"><ellipse cx="231.7" cy="66" fill="#95D600" rx="8" ry="8" style="stroke:#7D868C;stroke-width:1;"/><text fill="#000000" font-family="Lato,sans-serif" font-size="12" font-weight="bold" lengthAdjust="spacing" textLength="102.828" x="180.286" y="94.844">Secure Storage API</text></g><!--entity service--><g class="entity" data-entity="service" data-source-line="20" data-uid="ent0008" id="entity_service"><rect fill="#0091BD" height="34.4" rx="4" ry="4" width="100.634" x="350.7" y="111.8"/><text fill="#FFFFFF" font-family="Lato,sans-serif" font-size="12" lengthAdjust="spacing" textLength="80.634" x="360.7" y="133.644">Storage service</text></g><!--entity store--><g class="entity" data-entity="store" data-source-line="21" data-uid="ent0009" id="entity_store"><path d="M511.33,117.3 C511.33,107.3 564.311,107.3 564.311,107.3 C564.311,107.3 617.292,107.3 617.292,117.3 L617.292,140.7 C617.292,150.7 564.311,150.7 564.311,150.7 C564.311,150.7 511.33,150.7 511.33,140.7 L511.33,117.3" fill="#E5ECEB" style="stroke:#7D868C;stroke-width:1;"/><path d="M511.33,117.3 C511.33,127.3 564.311,127.3 564.311,127.3 C564.311,127.3 617.292,127.3 617.292,117.3" fill="none" style="stroke:#7D868C;stroke-width:1;"/><text fill="#000000" font-family="Lato,sans-serif" font-size="12" lengthAdjust="spacing" textLength="85.962" x="521.33" y="143.144">Storage medium</text></g><!--entity api2--><g class="entity" data-entity="api2" data-source-line="24" data-uid="ent0012" id="entity_api2"><ellipse cx="231.7" cy="192" fill="#95D600" rx="8" ry="8" style="stroke:#7D868C;stroke-width:1;"/><text fill="#000000" font-family="Lato,sans-serif" font-size="12" font-weight="bold" lengthAdjust="spacing" textLength="102.828" x="180.286" y="220.844">Secure Storage API</text></g><!--entity caller2--><g class="entity" data-entity="caller2" data-source-line="25" data-uid="ent0013" id="entity_caller2"><rect fill="#7D868C" height="34.4" rx="4" ry="4" width="89.696" x="23" y="174.8"/><text fill="#FFFFFF" font-family="Lato,sans-serif" font-size="12" lengthAdjust="spacing" textLength="69.696" x="33" y="196.644">Application 2</text></g><!--link caller1 to api1--><g class="link" data-entity-1="caller1" data-entity-2="api1" data-source-line="28" data-uid="lnk14" id="link_caller1_api1"><path d="M113.07,66 C151.26,66 203.28,66 222.84,66" fill="none" id="caller1-api1" style="stroke:#000000;stroke-width:1;"/></g><!--link api1 to service--><g class="link" data-entity-1="api1" data-entity-2="service" data-source-line="29" data-uid="lnk15" id="link_api1_service"><path d="M240.32,68.87 C259.95,76.26 307.8345,94.2968 347.5345,109.2368" fill="none" id="api1-to-service" style="stroke:#000000;stroke-width:1;"/><polygon fill="#000000" points="353.15,111.35,346.1355,104.4364,348.4704,109.589,343.3179,111.9238,353.15,111.35" style="stroke:#000000;stroke-width:1;"/></g><!--link service to store--><g class="link" data-entity-1="service" data-entity-2="store" data-source-line="30" data-uid="lnk16" id="link_service_store"><path d="M457.72,129 C476.51,129 485.95,129 504.97,129" fill="none" id="service-store" style="stroke:#000000;stroke-width:1;"/><polygon fill="#000000" points="451.72,129,460.72,133,456.72,129,460.72,125,451.72,129" style="stroke:#000000;stroke-width:1;"/><polygon fill="#000000" points="510.97,129,501.97,125,505.97,129,501.97,133,510.97,129" style="stroke:#000000;stroke-width:1;"/></g><!--link caller2 to api2--><g class="link" data-entity-1="caller2" data-entity-2="api2" data-source-line="31" data-uid="lnk17" id="link_caller2_api2"><path d="M113.07,192 C151.26,192 203.28,192 222.84,192" fill="none" id="caller2-api2" style="stroke:#000000;stroke-width:1;"/></g><!--link api2 to service--><g class="link" data-entity-1="api2" data-entity-2="service" data-source-line="32" data-uid="lnk18" id="link_api2_service"><path d="M240.32,189.13 C259.95,181.74 307.8345,163.7032 347.5345,148.7632" fill="none" id="api2-to-service" style="stroke:#000000;stroke-width:1;"/><polygon fill="#000000" points="353.15,146.65,343.3179,146.0762,348.4704,148.411,346.1355,153.5636,353.15,146.65" style="stroke:#000000;stroke-width:1;"/></g></g></svg>