<svg xmlns="http://www.w3.org/2000/svg" xmlns:xlink="http://www.w3.org/1999/xlink" contentStyleType="text/css" data-diagram-type="DESCRIPTION" height="189px" preserveAspectRatio="none" style="width:664px;height:189px;background:#FFFFFF55;" version="1.1" viewBox="0 0 664 189" width="664px" zoomAndPan="magnify"><defs/><g><rect fill="#FFFFFF" fill-opacity="0.33333" height="189" style="stroke:none;stroke-width:1;" width="664" x="0" y="0"/><g class="cluster" data-entity="##2" data-source-line="14" data-uid="ent0003" id="cluster_##2"><rect fill="#FFFFFF" fill-opacity="0.56471" height="176" style="stroke:#8B0000;stroke-width:1;stroke-dasharray:7.0,7.0;" width="651.15" x="7" y="7"/><text fill="#000000" font-family="Lato,sans-serif" font-size="11" font-style="italic" lengthAdjust="spacing" textLength="39.7815" x="312.6842" y="19.857">&#171;Device&#187;</text></g><!--cluster Platform Root of Trust--><g class="cluster" data-entity="Platform Root of Trust" data-source-line="16" data-uid="ent0006" id="cluster_Platform Root of Trust"><rect fill="#FFFFFF" fill-opacity="0.56471" height="112" style="stroke:#8B0000;stroke-width:1;stroke-dasharray:7.0,7.0;" width="282.49" x="351.66" y="47"/><text fill="#000000" font-family="Lato,sans-serif" font-size="11" font-style="italic" lengthAdjust="spacing" textLength="76.6865" x="454.5618" y="59.857">&#171;trust boundary&#187;</text><text fill="#000000" font-family="Lato,sans-serif" font-size="11" font-weight="bold" lengthAdjust="spacing" textLength="110.715" x="437.5475" y="73.057">Platform Root of Trust</text></g><!--entity caller--><g class="entity" data-entity="caller" data-source-line="16" data-uid="ent0004" id="entity_caller"><rect fill="#7D868C" height="34.4" rx="4" ry="4" width="79.664" x="23" y="98.8"/><text fill="#FFFFFF" font-family="Lato,sans-serif" font-size="12" lengthAdjust="spacing" textLength="59.664" x="33" y="120.644">Application</text></g><!--entity api--><g class="entity" data-entity="api" data-source-line="17" data-uid="ent0005" id="entity_api"><ellipse cx="222.66" cy="116" fill="#95D600" rx="8" ry="8" style="stroke:#7D868C;stroke-width:1;"/><text fill="#000000" font-family="Lato,sans-serif" font-size="12" font-weight="bold" lengthAdjust="spacing" textLength="102.828" x="171.246" y="144.844">Secure Storage API</text></g><!--entity service--><g class="entity" data-entity="service" data-source-line="19" data-uid="ent0007" id="entity_service"><rect fill="#0091BD" height="48.8" rx="4" ry="4" width="60.524" x="367.66" y="91.6"/><text fill="#FFFFFF" font-family="Lato,sans-serif" font-size="12" lengthAdjust="spacing" textLength="40.524" x="377.66" y="113.444">Storage</text><text fill="#FFFFFF" font-family="Lato,sans-serif" font-size="12" lengthAdjust="spacing" textLength="37.038" x="377.66" y="127.844">service</text></g><!--entity store--><g class="entity" data-entity="store" data-source-line="20" data-uid="ent0008" id="entity_store"><path d="M512.19,102.3 C512.19,92.3 565.171,92.3 565.171,92.3 C565.171,92.3 618.152,92.3 618.152,102.3 L618.152,125.7 C618.152,135.7 565.171,135.7 565.171,135.7 C565.171,135.7 512.19,135.7 512.19,125.7 L512.19,102.3" fill="#E5ECEB" style="stroke:#7D868C;stroke-width:1;"/><path d="M512.19,102.3 C512.19,112.3 565.171,112.3 565.171,112.3 C565.171,112.3 618.152,112.3 618.152,102.3" fill="none" style="stroke:#7D868C;stroke-width:1;"/><text fill="#000000" font-family="Lato,sans-serif" font-size="12" lengthAdjust="spacing" textLength="85.962" x="522.19" y="128.144">Storage medium</text></g><!--link caller to api--><g class="link" data-entity-1="caller" data-entity-2="api" data-source-line="24" data-uid="lnk9" id="link_caller_api"><path d="M102.85,116 C140.27,116 193.95,116 213.85,116" fill="none" id="caller-api" style="stroke:#000000;stroke-width:1;"/></g><!--link api to service--><g class="link" data-entity-1="api" data-entity-2="service" data-source-line="25" data-uid="lnk10" id="link_api_service"><path d="M231.56,116 C255.26,116 320.67,116 361.48,116" fill="none" id="api-to-service" style="stroke:#000000;stroke-width:1;"/><polygon fill="#000000" points="367.48,116,358.48,112,362.48,116,358.48,120,367.48,116" style="stroke:#000000;stroke-width:1;"/><text fill="#000000" font-family="Lato,sans-serif" font-size="12" lengthAdjust="spacing" textLength="22.872" x="312.66" y="112.844">DF1</text></g><!--link service to store--><g class="link" data-entity-1="service" data-entity-2="store" data-source-line="26" data-uid="lnk11" id="link_service_store"><path d="M434.4696,115.5673 C457.5796,115.2873 478.3105,115.0441 505.8305,114.7041" fill="none" id="service-store" style="stroke:#000000;stroke-width:1;"/><polygon fill="#000000" points="428.47,115.64,437.5178,119.5307,433.4696,115.5794,437.4209,111.5313,428.47,115.64" style="stroke:#000000;stroke-width:1;"/><polygon fill="#000000" points="511.83,114.63,502.7813,110.7415,506.8304,114.6918,502.8801,118.7409,511.83,114.63" style="stroke:#000000;stroke-width:1;"/><text fill="#000000" font-family="Lato,sans-serif" font-size="12" lengthAdjust="spacing" textLength="22.872" x="459.19" y="111.844">DF2</text></g></g></svg>