<svg xmlns="http://www.w3.org/2000/svg" xmlns:xlink="http://www.w3.org/1999/xlink" contentStyleType="text/css" data-diagram-type="DESCRIPTION" height="182px" preserveAspectRatio="none" style="width:708px;height:182px;background:#FFFFFF55;" version="1.1" viewBox="0 0 708 182" width="708px" zoomAndPan="magnify"><defs/><g><rect fill="#FFFFFF" fill-opacity="0.33333" height="182" style="stroke:none;stroke-width:1;" width="708" x="0" y="0"/><g class="cluster" data-entity="##2" data-source-line="14" data-uid="ent0003" id="cluster_##2"><rect fill="#FFFFFF" fill-opacity="0.56471" height="169" style="stroke:#8B0000;stroke-width:1;stroke-dasharray:7.0,7.0;" width="695.26" x="7" y="7"/><text fill="#000000" font-family="Lato,sans-serif" font-size="11" font-style="italic" lengthAdjust="spacing" textLength="39.7815" x="334.7392" y="19.857">&#171;Device&#187;</text></g><!--cluster Platform Root of Trust--><g class="cluster" data-entity="Platform Root of Trust" data-source-line="16" data-uid="ent0006" id="cluster_Platform Root of Trust"><rect fill="#FFFFFF" fill-opacity="0.56471" height="95" style="stroke:#8B0000;stroke-width:1;stroke-dasharray:7.0,7.0;" width="132.64" x="351.66" y="52"/><text fill="#000000" font-family="Lato,sans-serif" font-size="11" font-style="italic" lengthAdjust="spacing" textLength="76.6865" x="379.6368" y="64.857">&#171;trust boundary&#187;</text><text fill="#000000" font-family="Lato,sans-serif" font-size="11" font-weight="bold" lengthAdjust="spacing" textLength="110.715" x="362.6225" y="78.057">Platform Root of Trust</text></g><!--cluster Secure Element--><g class="cluster" data-entity="Secure Element" data-source-line="16" data-uid="ent0008" id="cluster_Secure Element"><rect fill="#FFFFFF" fill-opacity="0.56471" height="105" style="stroke:#8B0000;stroke-width:1;stroke-dasharray:7.0,7.0;" width="137.96" x="540.3" y="47"/><text fill="#000000" font-family="Lato,sans-serif" font-size="11" font-style="italic" lengthAdjust="spacing" textLength="76.6865" x="570.9368" y="59.857">&#171;trust boundary&#187;</text><text fill="#000000" font-family="Lato,sans-serif" font-size="11" font-weight="bold" lengthAdjust="spacing" textLength="76.3785" x="571.0907" y="73.057">Secure Element</text></g><!--entity caller--><g class="entity" data-entity="caller" data-source-line="16" data-uid="ent0004" id="entity_caller"><rect fill="#7D868C" height="34.4" rx="4" ry="4" width="79.664" x="23" y="96.8"/><text fill="#FFFFFF" font-family="Lato,sans-serif" font-size="12" lengthAdjust="spacing" textLength="59.664" x="33" y="118.644">Application</text></g><!--entity api--><g class="entity" data-entity="api" data-source-line="17" data-uid="ent0005" id="entity_api"><ellipse cx="222.66" cy="114" fill="#95D600" rx="8" ry="8" style="stroke:#7D868C;stroke-width:1;"/><text fill="#000000" font-family="Lato,sans-serif" font-size="12" font-weight="bold" lengthAdjust="spacing" textLength="102.828" x="171.246" y="142.844">Secure Storage API</text></g><!--entity service--><g class="entity" data-entity="service" data-source-line="19" data-uid="ent0007" id="entity_service"><rect fill="#0091BD" height="34.4" rx="4" ry="4" width="100.634" x="367.66" y="96.8"/><text fill="#FFFFFF" font-family="Lato,sans-serif" font-size="12" lengthAdjust="spacing" textLength="80.634" x="377.66" y="118.644">Storage service</text></g><!--entity store--><g class="entity" data-entity="store" data-source-line="22" data-uid="ent0009" id="entity_store"><path d="M556.3,102.3 C556.3,92.3 609.281,92.3 609.281,92.3 C609.281,92.3 662.262,92.3 662.262,102.3 L662.262,125.7 C662.262,135.7 609.281,135.7 609.281,135.7 C609.281,135.7 556.3,135.7 556.3,125.7 L556.3,102.3" fill="#E5ECEB" style="stroke:#7D868C;stroke-width:1;"/><path d="M556.3,102.3 C556.3,112.3 609.281,112.3 609.281,112.3 C609.281,112.3 662.262,112.3 662.262,102.3" fill="none" style="stroke:#7D868C;stroke-width:1;"/><text fill="#000000" font-family="Lato,sans-serif" font-size="12" lengthAdjust="spacing" textLength="85.962" x="566.3" y="128.144">Storage medium</text></g><!--link caller to api--><g class="link" data-entity-1="caller" data-entity-2="api" data-source-line="26" data-uid="lnk10" id="link_caller_api"><path d="M102.85,114 C140.27,114 193.95,114 213.85,114" fill="none" id="caller-api" style="stroke:#000000;stroke-width:1;"/></g><!--link api to service--><g class="link" data-entity-1="api" data-entity-2="service" data-source-line="27" data-uid="lnk11" id="link_api_service"><path d="M231.48,114 C254.02,114 314.48,114 361.38,114" fill="none" id="api-to-service" style="stroke:#000000;stroke-width:1;"/><polygon fill="#000000" points="367.38,114,358.38,110,362.38,114,358.38,118,367.38,114" style="stroke:#000000;stroke-width:1;"/><text fill="#000000" font-family="Lato,sans-serif" font-size="12" lengthAdjust="spacing" textLength="22.872" x="312.66" y="110.844">DF1</text></g><!--link service to store--><g class="link" data-entity-1="service" data-entity-2="store" data-source-line="28" data-uid="lnk12" id="link_service_store"><path d="M474.72,114 C501.55,114 522.66,114 549.9,114" fill="none" id="service-store" style="stroke:#000000;stroke-width:1;"/><polygon fill="#000000" points="468.72,114,477.72,118,473.72,114,477.72,110,468.72,114" style="stroke:#000000;stroke-width:1;"/><polygon fill="#000000" points="555.9,114,546.9,110,550.9,114,546.9,118,555.9,114" style="stroke:#000000;stroke-width:1;"/><text fill="#000000" font-family="Lato,sans-serif" font-size="12" lengthAdjust="spacing" textLength="22.872" x="501.3" y="110.844">DF5</text></g></g></svg>