<?xml version="1.0" encoding="UTF-8" standalone="no"?><svg xmlns="http://www.w3.org/2000/svg" xmlns:xlink="http://www.w3.org/1999/xlink" contentStyleType="text/css" height="182px" preserveAspectRatio="none" style="width:709px;height:182px;background:#FFFFFF55;" version="1.1" viewBox="0 0 709 182" width="709px" zoomAndPan="magnify"><defs/><g><g id="cluster_##2"><rect fill="#FFFFFF" fill-opacity="0.56471" height="169" rx="2.5" ry="2.5" style="stroke:#8B0000;stroke-width:1.0;stroke-dasharray:7.0,7.0;" width="696" x="7" y="7"/><text fill="#000000" font-family="Lato,sans-serif" font-size="11" font-style="italic" lengthAdjust="spacing" textLength="41" x="334.5" y="19.8435">«Device»</text></g><!--MD5=[aec96949da387e78ae944f502a40a29a]
cluster Platform Root of Trust--><g id="cluster_Platform Root of Trust"><rect fill="#FFFFFF" fill-opacity="0.56471" height="95" rx="2.5" ry="2.5" style="stroke:#8B0000;stroke-width:1.0;stroke-dasharray:7.0,7.0;" width="131" x="354" y="52"/><text fill="#000000" font-family="Lato,sans-serif" font-size="11" font-style="italic" lengthAdjust="spacing" textLength="79" x="380" y="64.8435">«trust boundary»</text><text fill="#000000" font-family="Lato,sans-serif" font-size="11" font-weight="bold" lengthAdjust="spacing" textLength="110" x="364.5" y="78.0271">Platform Root of Trust</text></g><!--MD5=[d6fe12631c3c851bc87d627adf87f6c5]
cluster Secure Element--><g id="cluster_Secure Element"><rect fill="#FFFFFF" fill-opacity="0.56471" height="105" rx="2.5" ry="2.5" style="stroke:#8B0000;stroke-width:1.0;stroke-dasharray:7.0,7.0;" width="137" x="542" y="47"/><text fill="#000000" font-family="Lato,sans-serif" font-size="11" font-style="italic" lengthAdjust="spacing" textLength="79" x="571" y="59.8435">«trust boundary»</text><text fill="#000000" font-family="Lato,sans-serif" font-size="11" font-weight="bold" lengthAdjust="spacing" textLength="76" x="572.5" y="73.0271">Secure Element</text></g><!--MD5=[199196004143ad81764c15ef5a1e7d18]
entity caller--><g id="elem_caller"><rect fill="#7D868C" height="34.3921" rx="2.5" ry="2.5" style="stroke:#000000;stroke-width:0.0;" width="81" x="23" y="97"/><text fill="#FFFFFF" font-family="Lato,sans-serif" font-size="12" lengthAdjust="spacing" textLength="61" x="33" y="118.8375">Application</text></g><!--MD5=[e2307af040e3f87d22824e7603ca28ec]
entity api--><g id="elem_api"><ellipse cx="224" cy="114" fill="#95D600" rx="8" ry="8" style="stroke:#7D868C;stroke-width:1.0;"/><text fill="#000000" font-family="Lato,sans-serif" font-size="12" font-weight="bold" lengthAdjust="spacing" textLength="102" x="173" y="142.8375">Secure Storage API</text></g><!--MD5=[38bfa9dc6018363cafe15f923a4b8db9]
entity service--><g id="elem_service"><rect fill="#0091BD" height="34.3921" rx="2.5" ry="2.5" style="stroke:#000000;stroke-width:0.0;" width="99" x="370" y="97"/><text fill="#FFFFFF" font-family="Lato,sans-serif" font-size="12" lengthAdjust="spacing" textLength="79" x="380" y="118.8375">Storage service</text></g><!--MD5=[0686720d71d32ea68f81164171d509ce]
entity store--><g id="elem_store"><path d="M558,102.5 C558,92.5 610.5,92.5 610.5,92.5 C610.5,92.5 663,92.5 663,102.5 L663,125.8921 C663,135.8921 610.5,135.8921 610.5,135.8921 C610.5,135.8921 558,135.8921 558,125.8921 L558,102.5 " fill="#E5ECEB" style="stroke:#7D868C;stroke-width:1.0;"/><path d="M558,102.5 C558,112.5 610.5,112.5 610.5,112.5 C610.5,112.5 663,112.5 663,102.5 " fill="none" style="stroke:#7D868C;stroke-width:1.0;"/><text fill="#000000" font-family="Lato,sans-serif" font-size="12" lengthAdjust="spacing" textLength="85" x="568" y="128.3375">Storage medium</text></g><!--MD5=[a2305c5d0ff17a079d97a2d45501c866]
link caller to api--><g id="link_caller_api"><path d="M104.09,114 C141.5,114 194.8,114 214.9,114 " fill="none" id="caller-api" style="stroke:#000000;stroke-width:1.0;"/></g><!--MD5=[1c521d26b07f62f1c62f7b4ad904b4ec]
link api to service--><g id="link_api_service"><path d="M233.31,114 C255.6,114 318.13,114 364.4,114 " fill="none" id="api-to-service" style="stroke:#000000;stroke-width:1.0;"/><polygon fill="#000000" points="369.67,114,360.67,110,364.67,114,360.67,118,369.67,114" style="stroke:#000000;stroke-width:1.0;"/><text fill="#000000" font-family="Lato,sans-serif" font-size="12" lengthAdjust="spacing" textLength="23" x="314" y="110.8375">DF1</text></g><!--MD5=[ed03d9e8372767f52fa40155923214fd]
link service to store--><g id="link_service_store"><path d="M474.33,114 C498.76,114 527.66,114 552.46,114 " fill="none" id="service-store" style="stroke:#000000;stroke-width:1.0;"/><polygon fill="#000000" points="557.68,114,548.68,110,552.68,114,548.68,118,557.68,114" style="stroke:#000000;stroke-width:1.0;"/><polygon fill="#000000" points="469.17,114,478.17,118,474.17,114,478.17,110,469.17,114" style="stroke:#000000;stroke-width:1.0;"/><text fill="#000000" font-family="Lato,sans-serif" font-size="12" lengthAdjust="spacing" textLength="23" x="502" y="110.8375">DF5</text></g></g></svg>