<svg xmlns="http://www.w3.org/2000/svg" xmlns:xlink="http://www.w3.org/1999/xlink" contentStyleType="text/css" data-diagram-type="DESCRIPTION" height="268px" preserveAspectRatio="none" style="width:535px;height:268px;background:#FFFFFF55;" version="1.1" viewBox="0 0 535 268" width="535px" zoomAndPan="magnify"><defs><style type="text/css">@import url('https://fonts.googleapis.com/css?family=Roboto:400,100,100italic,300,300italic,400italic,500,500italic,700,700italic,900,900italic');</style></defs><g><rect fill="#FFFFFF" fill-opacity="0.33333" height="268" style="stroke:none;stroke-width:1;" width="535" x="0" y="0"/><g class="cluster" data-entity="##3" data-source-line="15" data-uid="ent0004" id="cluster_##3"><rect fill="#FFFFFF" fill-opacity="0.56471" height="255.12" style="stroke:#8B0000;stroke-width:1;stroke-dasharray:7.0,7.0;" width="401" x="128.53" y="7"/><text fill="#000000" font-family="Roboto,sans-serif" font-size="11" font-style="italic" lengthAdjust="spacing" textLength="92.5493" x="282.7553" y="19.2051">&#171;System boundary&#187;</text></g><g class="cluster" data-entity="##6" data-source-line="15" data-uid="ent0007" id="cluster_##6"><rect fill="#FFFFFF" fill-opacity="0.56471" height="90.06" style="stroke:#8B0000;stroke-width:1;stroke-dasharray:7.0,7.0;" width="295" x="210.53" y="148.06"/><text fill="#000000" font-family="Roboto,sans-serif" font-size="11" font-style="italic" lengthAdjust="spacing" textLength="135.98" x="290.04" y="160.2651">&#171;Cryptoprocessor boundary&#187;</text></g><!--entity app--><g class="entity" data-entity="app" data-source-line="9" data-uid="ent0005" id="entity_app"><rect fill="#FFFFFF" height="34.0625" rx="35" ry="35" style="stroke:#000000;stroke-width:1;" width="80.2637" x="217.4" y="38"/><text fill="#000000" font-family="Roboto,sans-serif" font-size="12" lengthAdjust="spacing" textLength="60.2637" x="227.4" y="59.1328">Application</text></g><!--entity nvm--><g class="entity" data-entity="nvm" data-source-line="14" data-uid="ent0010" id="entity_nvm"><path d="M144.19,189.06 C144.19,179.06 167.5289,179.06 167.5289,179.06 C167.5289,179.06 190.8677,179.06 190.8677,189.06 L190.8677,212.1225 C190.8677,222.1225 167.5289,222.1225 167.5289,222.1225 C167.5289,222.1225 144.19,222.1225 144.19,212.1225 L144.19,189.06" fill="#FFFFFF" style="stroke:#000000;stroke-width:1;"/><path d="M144.19,189.06 C144.19,199.06 167.5289,199.06 167.5289,199.06 C167.5289,199.06 190.8677,199.06 190.8677,189.06" fill="none" style="stroke:#000000;stroke-width:1;"/><text fill="#000000" font-family="Roboto,sans-serif" font-size="12" lengthAdjust="spacing" textLength="26.6777" x="154.19" y="214.1928">NVM</text></g><!--entity crypto--><g class="entity" data-entity="crypto" data-source-line="11" data-uid="ent0008" id="entity_crypto"><rect fill="#FFFFFF" height="34.0625" rx="35" ry="35" style="stroke:#000000;stroke-width:1;" width="108.6523" x="226.2" y="183.56"/><text fill="#000000" font-family="Roboto,sans-serif" font-size="12" lengthAdjust="spacing" textLength="88.6523" x="236.2" y="204.6928">Cryptoprocessor</text></g><!--entity keys--><g class="entity" data-entity="keys" data-source-line="12" data-uid="ent0009" id="entity_keys"><path d="M419.09,189.06 C419.09,179.06 454.5255,179.06 454.5255,179.06 C454.5255,179.06 489.9611,179.06 489.9611,189.06 L489.9611,212.1225 C489.9611,222.1225 454.5255,222.1225 454.5255,222.1225 C454.5255,222.1225 419.09,222.1225 419.09,212.1225 L419.09,189.06" fill="#FFFFFF" style="stroke:#000000;stroke-width:1;"/><path d="M419.09,189.06 C419.09,199.06 454.5255,199.06 454.5255,199.06 C454.5255,199.06 489.9611,199.06 489.9611,189.06" fill="none" style="stroke:#000000;stroke-width:1;"/><text fill="#000000" font-family="Roboto,sans-serif" font-size="12" lengthAdjust="spacing" textLength="50.8711" x="429.09" y="214.1928">Key Store</text></g><!--entity ext--><g class="entity" data-entity="ext" data-source-line="7" data-uid="ent0002" id="entity_ext"><rect fill="#FFFFFF" height="34.0625" rx="4" ry="4" style="stroke:#000000;stroke-width:1;" width="105.0547" x="7" y="38"/><text fill="#000000" font-family="Roboto,sans-serif" font-size="12" lengthAdjust="spacing" textLength="85.0547" x="17" y="59.1328">External system</text></g><!--link ext to app--><g class="link" data-entity-1="ext" data-entity-2="app" data-source-line="17" data-uid="lnk11" id="link_ext_app"><path d="M118.33,55.03 C151.21,55.03 180.85,55.03 211.1,55.03" fill="none" id="ext-app" style="stroke:#000000;stroke-width:1;"/><polygon fill="#000000" points="112.33,55.03,121.33,59.03,117.33,55.03,121.33,51.03,112.33,55.03" style="stroke:#000000;stroke-width:1;"/><polygon fill="#000000" points="217.1,55.03,208.1,51.03,212.1,55.03,208.1,59.03,217.1,55.03" style="stroke:#000000;stroke-width:1;"/><text fill="#000000" font-family="Roboto,sans-serif" font-size="12" lengthAdjust="spacing" textLength="53.1445" x="138.23" y="48.1628">ciphertext</text></g><!--link app to nvm--><g class="link" data-entity-1="app" data-entity-2="nvm" data-source-line="18" data-uid="lnk12" id="link_app_nvm"><path d="M227.1383,75.9309 C216.4983,83.8109 209.59,90.5 201.53,102.06 C185.11,125.59 177.214,151.939 172.644,172.799" fill="none" id="app-nvm" style="stroke:#000000;stroke-width:1;"/><polygon fill="#000000" points="231.96,72.36,222.3469,74.502,227.9419,75.3358,227.1081,80.9308,231.96,72.36" style="stroke:#000000;stroke-width:1;"/><polygon fill="#000000" points="171.36,178.66,177.1934,170.7245,172.43,173.7758,169.3787,169.0125,171.36,178.66" style="stroke:#000000;stroke-width:1;"/><text fill="#000000" font-family="Roboto,sans-serif" font-size="12" lengthAdjust="spacing" textLength="53.1445" x="202.53" y="121.1928">ciphertext</text></g><!--link nvm to crypto--><!--link app to crypto--><g class="link" data-entity-1="app" data-entity-2="crypto" data-source-line="21" data-uid="lnk14" id="link_app_crypto"><path d="M260.17,72.49 C264.6,100.19 272.5499,149.8257 276.9699,177.3857" fill="none" id="app-to-crypto" style="stroke:#000000;stroke-width:1;"/><polygon fill="#000000" points="277.92,183.31,280.4443,173.7901,277.1282,178.3731,272.5453,175.057,277.92,183.31" style="stroke:#000000;stroke-width:1;"/><text fill="#000000" font-family="Roboto,sans-serif" font-size="12" lengthAdjust="spacing" textLength="56.7012" x="270.03" y="114.1928">Crypto API</text><text fill="#000000" font-family="Roboto,sans-serif" font-size="12" lengthAdjust="spacing" textLength="18.6445" x="289.0583" y="128.2553">call</text></g><!--reverse link app to crypto--><g class="link" data-entity-1="app" data-entity-2="crypto" data-source-line="22" data-uid="lnk15" id="link_app_crypto"><path d="M303.0852,73.4244 C316.9552,80.6244 325.65,88.08 333.53,102.06 C349.51,130.43 321.3,163.85 300.27,183.28" fill="none" id="app-backto-crypto" style="stroke:#000000;stroke-width:1;"/><polygon fill="#000000" points="297.76,70.66,303.905,78.3567,302.1977,72.9636,307.5908,71.2564,297.76,70.66" style="stroke:#000000;stroke-width:1;"/><text fill="#000000" font-family="Roboto,sans-serif" font-size="12" lengthAdjust="spacing" textLength="49.3887" x="339.22" y="121.1928">response</text></g><!--link crypto to keys--><g class="link" data-entity-1="crypto" data-entity-2="keys" data-source-line="23" data-uid="lnk16" id="link_crypto_keys"><path d="M335.1,200.59 C362.41,200.59 388.69,200.59 412.81,200.59" fill="none" id="crypto-to-keys" style="stroke:#000000;stroke-width:1;"/><polygon fill="#000000" points="418.81,200.59,409.81,196.59,413.81,200.59,409.81,204.59,418.81,200.59" style="stroke:#000000;stroke-width:1;"/><text fill="#000000" font-family="Roboto,sans-serif" font-size="12" lengthAdjust="spacing" textLength="48.4922" x="352.97" y="193.7228">store key</text></g><!--reverse link crypto to keys--><g class="link" data-entity-1="crypto" data-entity-2="keys" data-source-line="24" data-uid="lnk17" id="link_crypto_keys"><path d="M341.1544,217.9922 C361.4844,222.0422 378.85,223.16 399.97,219.59 C406.2,218.53 412.67,216.85 418.88,214.91" fill="none" id="crypto-backto-keys" style="stroke:#000000;stroke-width:1;"/><polygon fill="#000000" points="335.27,216.82,343.3151,222.5013,340.1736,217.7969,344.8781,214.6554,335.27,216.82" style="stroke:#000000;stroke-width:1;"/><text fill="#000000" font-family="Roboto,sans-serif" font-size="12" lengthAdjust="spacing" textLength="44.1563" x="354.97" y="215.7228">load key</text></g></g></svg>