<svg xmlns="http://www.w3.org/2000/svg" xmlns:xlink="http://www.w3.org/1999/xlink" contentStyleType="text/css" data-diagram-type="DESCRIPTION" height="270px" preserveAspectRatio="none" style="width:535px;height:270px;background:#FFFFFF55;" version="1.1" viewBox="0 0 535 270" width="535px" zoomAndPan="magnify"><defs/><g><rect fill="#FFFFFF" fill-opacity="0.33333" height="270" style="stroke:none;stroke-width:1;" width="535" x="0" y="0"/><g class="cluster" data-entity="##3" data-source-line="14" data-uid="ent0004" id="cluster_##3"><rect fill="#FFFFFF" fill-opacity="0.56471" height="257.8" style="stroke:#8B0000;stroke-width:1;stroke-dasharray:7.0,7.0;" width="403" x="126.78" y="7"/><text fill="#000000" font-family="Lato,sans-serif" font-size="11" font-style="italic" lengthAdjust="spacing" textLength="87.9835" x="284.2883" y="19.857">&#171;System boundary&#187;</text></g><g class="cluster" data-entity="##6" data-source-line="14" data-uid="ent0007" id="cluster_##6"><rect fill="#FFFFFF" fill-opacity="0.56471" height="91.4" style="stroke:#8B0000;stroke-width:1;stroke-dasharray:7.0,7.0;" width="296" x="209.78" y="149.4"/><text fill="#000000" font-family="Lato,sans-serif" font-size="11" font-style="italic" lengthAdjust="spacing" textLength="130.0475" x="292.7562" y="162.257">&#171;Cryptoprocessor boundary&#187;</text></g><!--entity app--><g class="entity" data-entity="app" data-source-line="9" data-uid="ent0005" id="entity_app"><rect fill="#FFFFFF" height="34.4" rx="35" ry="35" style="stroke:#000000;stroke-width:1;" width="79.664" x="215.95" y="39"/><text fill="#000000" font-family="Lato,sans-serif" font-size="12" lengthAdjust="spacing" textLength="59.664" x="225.95" y="60.844">Application</text></g><!--entity nvm--><g class="entity" data-entity="nvm" data-source-line="14" data-uid="ent0010" id="entity_nvm"><path d="M142.57,191.4 C142.57,181.4 166.784,181.4 166.784,181.4 C166.784,181.4 190.998,181.4 190.998,191.4 L190.998,214.8 C190.998,224.8 166.784,224.8 166.784,224.8 C166.784,224.8 142.57,224.8 142.57,214.8 L142.57,191.4" fill="#FFFFFF" style="stroke:#000000;stroke-width:1;"/><path d="M142.57,191.4 C142.57,201.4 166.784,201.4 166.784,201.4 C166.784,201.4 190.998,201.4 190.998,191.4" fill="none" style="stroke:#000000;stroke-width:1;"/><text fill="#000000" font-family="Lato,sans-serif" font-size="12" lengthAdjust="spacing" textLength="28.428" x="152.57" y="217.244">NVM</text></g><!--entity crypto--><g class="entity" data-entity="crypto" data-source-line="11" data-uid="ent0008" id="entity_crypto"><rect fill="#FFFFFF" height="34.4" rx="35" ry="35" style="stroke:#000000;stroke-width:1;" width="107.93" x="225.82" y="185.9"/><text fill="#000000" font-family="Lato,sans-serif" font-size="12" lengthAdjust="spacing" textLength="87.93" x="235.82" y="207.744">Cryptoprocessor</text></g><!--entity keys--><g class="entity" data-entity="keys" data-source-line="12" data-uid="ent0009" id="entity_keys"><path d="M417.85,191.4 C417.85,181.4 453.782,181.4 453.782,181.4 C453.782,181.4 489.714,181.4 489.714,191.4 L489.714,214.8 C489.714,224.8 453.782,224.8 453.782,224.8 C453.782,224.8 417.85,224.8 417.85,214.8 L417.85,191.4" fill="#FFFFFF" style="stroke:#000000;stroke-width:1;"/><path d="M417.85,191.4 C417.85,201.4 453.782,201.4 453.782,201.4 C453.782,201.4 489.714,201.4 489.714,191.4" fill="none" style="stroke:#000000;stroke-width:1;"/><text fill="#000000" font-family="Lato,sans-serif" font-size="12" lengthAdjust="spacing" textLength="51.864" x="427.85" y="217.244">Key Store</text></g><!--entity ext--><g class="entity" data-entity="ext" data-source-line="7" data-uid="ent0002" id="entity_ext"><rect fill="#FFFFFF" height="34.4" rx="4" ry="4" style="stroke:#000000;stroke-width:1;" width="103.562" x="7" y="39"/><text fill="#000000" font-family="Lato,sans-serif" font-size="12" lengthAdjust="spacing" textLength="83.562" x="17" y="60.844">External system</text></g><!--link ext to app--><g class="link" data-entity-1="ext" data-entity-2="app" data-source-line="17" data-uid="lnk11" id="link_ext_app"><path d="M117.06,56.2 C149.77,56.2 179.28,56.2 209.45,56.2" fill="none" id="ext-app" style="stroke:#000000;stroke-width:1;"/><polygon fill="#000000" points="111.06,56.2,120.06,60.2,116.06,56.2,120.06,52.2,111.06,56.2" style="stroke:#000000;stroke-width:1;"/><polygon fill="#000000" points="215.45,56.2,206.45,52.2,210.45,56.2,206.45,60.2,215.45,56.2" style="stroke:#000000;stroke-width:1;"/><text fill="#000000" font-family="Lato,sans-serif" font-size="12" lengthAdjust="spacing" textLength="53.652" x="136.76" y="50.044">ciphertext</text></g><!--link app to nvm--><g class="link" data-entity-1="app" data-entity-2="nvm" data-source-line="18" data-uid="lnk12" id="link_app_nvm"><path d="M225.6055,77.5238 C215.2255,85.4238 208.62,91.99 200.78,103.4 C184.36,127.3 176.4518,154.0163 171.8818,175.0863" fill="none" id="app-nvm" style="stroke:#000000;stroke-width:1;"/><polygon fill="#000000" points="230.38,73.89,220.7958,76.1577,226.4013,76.9181,225.6408,82.5236,230.38,73.89" style="stroke:#000000;stroke-width:1;"/><polygon fill="#000000" points="170.61,180.95,176.4268,173.0024,171.6698,176.0636,168.6086,171.3066,170.61,180.95" style="stroke:#000000;stroke-width:1;"/><text fill="#000000" font-family="Lato,sans-serif" font-size="12" lengthAdjust="spacing" textLength="53.652" x="201.78" y="123.244">ciphertext</text></g><!--link nvm to crypto--><!--link app to crypto--><g class="link" data-entity-1="app" data-entity-2="crypto" data-source-line="21" data-uid="lnk14" id="link_app_crypto"><path d="M258.53,73.82 C263.16,101.77 271.4691,151.9307 276.0791,179.7507" fill="none" id="app-to-crypto" style="stroke:#000000;stroke-width:1;"/><polygon fill="#000000" points="277.06,185.67,279.5349,176.1372,276.2426,180.7373,271.6425,177.445,277.06,185.67" style="stroke:#000000;stroke-width:1;"/><text fill="#000000" font-family="Lato,sans-serif" font-size="12" lengthAdjust="spacing" textLength="58.164" x="268.78" y="116.244">Crypto API</text><text fill="#000000" font-family="Lato,sans-serif" font-size="12" lengthAdjust="spacing" textLength="17.358" x="289.183" y="130.644">call</text></g><!--reverse link app to crypto--><g class="link" data-entity-1="app" data-entity-2="crypto" data-source-line="22" data-uid="lnk15" id="link_app_crypto"><path d="M301.1975,73.7212 C315.8275,80.9612 325.44,88.77 333.78,103.4 C350.13,132.08 321.36,165.91 299.92,185.59" fill="none" id="app-backto-crypto" style="stroke:#000000;stroke-width:1;"/><polygon fill="#000000" points="295.82,71.06,302.1122,78.6368,300.3013,73.2777,305.6605,71.4668,295.82,71.06" style="stroke:#000000;stroke-width:1;"/><text fill="#000000" font-family="Lato,sans-serif" font-size="12" lengthAdjust="spacing" textLength="47.658" x="339.59" y="123.244">response</text></g><!--link crypto to keys--><g class="link" data-entity-1="crypto" data-entity-2="keys" data-source-line="23" data-uid="lnk16" id="link_crypto_keys"><path d="M333.88,203.1 C361.12,203.1 387.4,203.1 411.6,203.1" fill="none" id="crypto-to-keys" style="stroke:#000000;stroke-width:1;"/><polygon fill="#000000" points="417.6,203.1,408.6,199.1,412.6,203.1,408.6,207.1,417.6,203.1" style="stroke:#000000;stroke-width:1;"/><text fill="#000000" font-family="Lato,sans-serif" font-size="12" lengthAdjust="spacing" textLength="48.696" x="351.8" y="196.944">store key</text></g><!--reverse link crypto to keys--><g class="link" data-entity-1="crypto" data-entity-2="keys" data-source-line="24" data-uid="lnk17" id="link_crypto_keys"><path d="M339.9027,220.4106 C360.2327,224.4906 377.65,225.65 398.8,222.1 C404.97,221.06 411.38,219.41 417.55,217.51" fill="none" id="crypto-backto-keys" style="stroke:#000000;stroke-width:1;"/><polygon fill="#000000" points="334.02,219.23,342.057,224.9227,338.9223,220.2138,343.6311,217.0791,334.02,219.23" style="stroke:#000000;stroke-width:1;"/><text fill="#000000" font-family="Lato,sans-serif" font-size="12" lengthAdjust="spacing" textLength="44.01" x="353.8" y="218.944">load key</text></g></g></svg>