<svg xmlns="http://www.w3.org/2000/svg" xmlns:xlink="http://www.w3.org/1999/xlink" contentStyleType="text/css" data-diagram-type="DESCRIPTION" height="452px" preserveAspectRatio="none" style="width:535px;height:452px;background:#FFFFFF55;" version="1.1" viewBox="0 0 535 452" width="535px" zoomAndPan="magnify"><defs><style type="text/css">@import url('https://fonts.googleapis.com/css?family=Roboto:400,100,100italic,300,300italic,400italic,500,500italic,700,700italic,900,900italic');</style></defs><g><rect fill="#FFFFFF" fill-opacity="0.33333" height="452" style="stroke:none;stroke-width:1;" width="535" x="0" y="0"/><g class="cluster" data-entity="##4" data-source-line="15" data-uid="ent0005" id="cluster_##4"><rect fill="#FFFFFF" fill-opacity="0.56471" height="439.19" style="stroke:#8B0000;stroke-width:1;stroke-dasharray:7.0,7.0;" width="401" x="128.53" y="7"/><text fill="#000000" font-family="Roboto,sans-serif" font-size="11" font-style="italic" lengthAdjust="spacing" textLength="92.5493" x="282.7553" y="19.2051">&#171;System boundary&#187;</text></g><g class="cluster" data-entity="##6" data-source-line="15" data-uid="ent0007" id="cluster_##6"><rect fill="#FFFFFF" fill-opacity="0.56471" height="81.07" style="stroke:#8B0000;stroke-width:1;stroke-dasharray:7.0,7.0;" width="126" x="194.53" y="46"/><text fill="#000000" font-family="Roboto,sans-serif" font-size="11" font-style="italic" lengthAdjust="spacing" textLength="110.7466" x="202.1567" y="58.2051">&#171;Application boundary&#187;</text></g><g class="cluster" data-entity="##10" data-source-line="15" data-uid="ent0011" id="cluster_##10"><rect fill="#FFFFFF" fill-opacity="0.56471" height="81.06" style="stroke:#8B0000;stroke-width:1;stroke-dasharray:7.0,7.0;" width="144" x="193.53" y="341.13"/><text fill="#000000" font-family="Roboto,sans-serif" font-size="11" font-style="italic" lengthAdjust="spacing" textLength="110.7466" x="210.1567" y="353.3351">&#171;Application boundary&#187;</text></g><g class="cluster" data-entity="##13" data-source-line="15" data-uid="ent0014" id="cluster_##13"><rect fill="#FFFFFF" fill-opacity="0.56471" height="90.06" style="stroke:#8B0000;stroke-width:1;stroke-dasharray:7.0,7.0;" width="295" x="210.53" y="189.07"/><text fill="#000000" font-family="Roboto,sans-serif" font-size="11" font-style="italic" lengthAdjust="spacing" textLength="135.98" x="290.04" y="201.2751">&#171;Cryptoprocessor boundary&#187;</text></g><!--entity nvm--><g class="entity" data-entity="nvm" data-source-line="13" data-uid="ent0009" id="entity_nvm"><path d="M144.19,230.07 C144.19,220.07 167.5289,220.07 167.5289,220.07 C167.5289,220.07 190.8677,220.07 190.8677,230.07 L190.8677,253.1325 C190.8677,263.1325 167.5289,263.1325 167.5289,263.1325 C167.5289,263.1325 144.19,263.1325 144.19,253.1325 L144.19,230.07" fill="#FFFFFF" style="stroke:#000000;stroke-width:1;"/><path d="M144.19,230.07 C144.19,240.07 167.5289,240.07 167.5289,240.07 C167.5289,240.07 190.8677,240.07 190.8677,230.07" fill="none" style="stroke:#000000;stroke-width:1;"/><text fill="#000000" font-family="Roboto,sans-serif" font-size="12" lengthAdjust="spacing" textLength="26.6777" x="154.19" y="255.2028">NVM</text></g><!--entity app--><g class="entity" data-entity="app" data-source-line="11" data-uid="ent0008" id="entity_app"><rect fill="#FFFFFF" height="34.0625" rx="35" ry="35" style="stroke:#000000;stroke-width:1;" width="80.2637" x="217.4" y="77"/><text fill="#000000" font-family="Roboto,sans-serif" font-size="12" lengthAdjust="spacing" textLength="60.2637" x="227.4" y="98.1328">Application</text></g><!--entity app2--><g class="entity" data-entity="app2" data-source-line="15" data-uid="ent0012" id="entity_app2"><rect fill="#FFFFFF" height="34.0625" rx="35" ry="35" style="stroke:#000000;stroke-width:1;" width="111.1602" x="209.95" y="372.13"/><text fill="#000000" font-family="Roboto,sans-serif" font-size="12" lengthAdjust="spacing" textLength="91.1602" x="219.95" y="393.2628">Other application</text></g><!--entity crypto--><g class="entity" data-entity="crypto" data-source-line="18" data-uid="ent0015" id="entity_crypto"><rect fill="#FFFFFF" height="34.0625" rx="35" ry="35" style="stroke:#000000;stroke-width:1;" width="108.6523" x="226.2" y="224.57"/><text fill="#000000" font-family="Roboto,sans-serif" font-size="12" lengthAdjust="spacing" textLength="88.6523" x="236.2" y="245.7028">Cryptoprocessor</text></g><!--entity keys--><g class="entity" data-entity="keys" data-source-line="19" data-uid="ent0016" id="entity_keys"><path d="M419.09,230.07 C419.09,220.07 454.5255,220.07 454.5255,220.07 C454.5255,220.07 489.9611,220.07 489.9611,230.07 L489.9611,253.1325 C489.9611,263.1325 454.5255,263.1325 454.5255,263.1325 C454.5255,263.1325 419.09,263.1325 419.09,253.1325 L419.09,230.07" fill="#FFFFFF" style="stroke:#000000;stroke-width:1;"/><path d="M419.09,230.07 C419.09,240.07 454.5255,240.07 454.5255,240.07 C454.5255,240.07 489.9611,240.07 489.9611,230.07" fill="none" style="stroke:#000000;stroke-width:1;"/><text fill="#000000" font-family="Roboto,sans-serif" font-size="12" lengthAdjust="spacing" textLength="50.8711" x="429.09" y="255.2028">Key Store</text></g><!--entity ext--><g class="entity" data-entity="ext" data-source-line="7" data-uid="ent0002" id="entity_ext"><rect fill="#FFFFFF" height="34.0625" rx="4" ry="4" style="stroke:#000000;stroke-width:1;" width="105.0547" x="7" y="77"/><text fill="#000000" font-family="Roboto,sans-serif" font-size="12" lengthAdjust="spacing" textLength="85.0547" x="17" y="98.1328">External system</text></g><!--entity ext2--><g class="entity" data-entity="ext2" data-source-line="8" data-uid="ent0003" id="entity_ext2"><rect fill="#FFFFFF" height="34.0625" rx="4" ry="4" style="stroke:#000000;stroke-width:1;" width="105.0547" x="7" y="372.13"/><text fill="#000000" font-family="Roboto,sans-serif" font-size="12" lengthAdjust="spacing" textLength="85.0547" x="17" y="393.2628">External system</text></g><!--link ext to app--><g class="link" data-entity-1="ext" data-entity-2="app" data-source-line="23" data-uid="lnk17" id="link_ext_app"><path d="M118.33,94.03 C151.21,94.03 180.85,94.03 211.1,94.03" fill="none" id="ext-app" style="stroke:#000000;stroke-width:1;"/><polygon fill="#000000" points="112.33,94.03,121.33,98.03,117.33,94.03,121.33,90.03,112.33,94.03" style="stroke:#000000;stroke-width:1;"/><polygon fill="#000000" points="217.1,94.03,208.1,90.03,212.1,94.03,208.1,98.03,217.1,94.03" style="stroke:#000000;stroke-width:1;"/><text fill="#000000" font-family="Roboto,sans-serif" font-size="12" lengthAdjust="spacing" textLength="53.1445" x="138.23" y="87.1628">ciphertext</text></g><!--link ext2 to app2--><g class="link" data-entity-1="ext2" data-entity-2="app2" data-source-line="24" data-uid="lnk18" id="link_ext2_app2"><path d="M118.31,389.16 C148.11,389.16 173.34,389.16 203.64,389.16" fill="none" id="ext2-app2" style="stroke:#000000;stroke-width:1;"/><polygon fill="#000000" points="112.31,389.16,121.31,393.16,117.31,389.16,121.31,385.16,112.31,389.16" style="stroke:#000000;stroke-width:1;"/><polygon fill="#000000" points="209.64,389.16,200.64,385.16,204.64,389.16,200.64,393.16,209.64,389.16" style="stroke:#000000;stroke-width:1;"/><text fill="#000000" font-family="Roboto,sans-serif" font-size="12" lengthAdjust="spacing" textLength="53.1445" x="134.5" y="382.2928">ciphertext</text></g><!--link app to nvm--><g class="link" data-entity-1="app" data-entity-2="nvm" data-source-line="25" data-uid="lnk19" id="link_app_nvm"><path d="M228.8872,115.2207 C218.1672,123.6207 210.82,130.92 202.53,143.07 C186.3,166.84 178.0757,193.1622 173.1457,213.9322" fill="none" id="app-nvm" style="stroke:#000000;stroke-width:1;"/><polygon fill="#000000" points="233.61,111.52,224.0587,113.9225,229.6743,114.6039,228.9929,120.2196,233.61,111.52" style="stroke:#000000;stroke-width:1;"/><polygon fill="#000000" points="171.76,219.77,177.7304,211.9371,172.9147,214.9052,169.9466,210.0895,171.76,219.77" style="stroke:#000000;stroke-width:1;"/><text fill="#000000" font-family="Roboto,sans-serif" font-size="12" lengthAdjust="spacing" textLength="53.1445" x="203.53" y="162.2028">ciphertext</text></g><!--link nvm to app2--><g class="link" data-entity-1="nvm" data-entity-2="app2" data-source-line="26" data-uid="lnk20" id="link_nvm_app2"><path d="M177.1289,269.202 C183.7689,286.512 192.33,305.68 205.53,325.13 C217.4,342.63 229.8496,355.7398 242.6696,367.7398" fill="none" id="nvm-app2" style="stroke:#000000;stroke-width:1;"/><polygon fill="#000000" points="174.98,263.6,174.4687,273.4356,176.7707,268.2683,181.938,270.5704,174.98,263.6" style="stroke:#000000;stroke-width:1;"/><polygon fill="#000000" points="247.05,371.84,243.2129,362.7694,243.3997,368.4231,237.7459,368.6099,247.05,371.84" style="stroke:#000000;stroke-width:1;"/><text fill="#000000" font-family="Roboto,sans-serif" font-size="12" lengthAdjust="spacing" textLength="53.1445" x="206.53" y="314.2628">ciphertext</text></g><!--link nvm to crypto--><!--link ext to ext2--><!--link app to crypto--><g class="link" data-entity-1="app" data-entity-2="crypto" data-source-line="30" data-uid="lnk23" id="link_app_crypto"><path d="M260.12,111.45 C264.56,139.55 272.6336,190.6235 277.0436,218.5335" fill="none" id="app-to-crypto" style="stroke:#000000;stroke-width:1;"/><polygon fill="#000000" points="277.98,224.46,280.5263,214.946,277.1996,219.5213,272.6244,216.1946,277.98,224.46" style="stroke:#000000;stroke-width:1;"/><text fill="#000000" font-family="Roboto,sans-serif" font-size="12" lengthAdjust="spacing" textLength="56.7012" x="270.72" y="155.2028">Crypto API</text><text fill="#000000" font-family="Roboto,sans-serif" font-size="12" lengthAdjust="spacing" textLength="18.6445" x="289.7483" y="169.2653">call</text></g><!--reverse link app to crypto--><g class="link" data-entity-1="app" data-entity-2="crypto" data-source-line="31" data-uid="lnk24" id="link_app_crypto"><path d="M303.0691,113.5599 C316.9491,121.1199 325.69,128.85 333.53,143.07 C349.24,171.59 321.11,204.96 300.18,224.34" fill="none" id="app-backto-crypto" style="stroke:#000000;stroke-width:1;"/><polygon fill="#000000" points="297.8,110.69,303.7904,118.5076,302.1909,113.0816,307.617,111.4821,297.8,110.69" style="stroke:#000000;stroke-width:1;"/><text fill="#000000" font-family="Roboto,sans-serif" font-size="12" lengthAdjust="spacing" textLength="49.3887" x="339.1" y="162.2028">response</text></g><!--link crypto to keys--><g class="link" data-entity-1="crypto" data-entity-2="keys" data-source-line="32" data-uid="lnk25" id="link_crypto_keys"><path d="M335.1,241.6 C362.41,241.6 388.69,241.6 412.81,241.6" fill="none" id="crypto-to-keys" style="stroke:#000000;stroke-width:1;"/><polygon fill="#000000" points="418.81,241.6,409.81,237.6,413.81,241.6,409.81,245.6,418.81,241.6" style="stroke:#000000;stroke-width:1;"/><text fill="#000000" font-family="Roboto,sans-serif" font-size="12" lengthAdjust="spacing" textLength="48.4922" x="352.97" y="234.7328">store key</text></g><!--reverse link crypto to keys--><g class="link" data-entity-1="crypto" data-entity-2="keys" data-source-line="33" data-uid="lnk26" id="link_crypto_keys"><path d="M341.1544,259.0022 C361.4844,263.0522 378.85,264.17 399.97,260.6 C406.2,259.54 412.67,257.86 418.88,255.91" fill="none" id="crypto-backto-keys" style="stroke:#000000;stroke-width:1;"/><polygon fill="#000000" points="335.27,257.83,343.3151,263.5113,340.1736,258.8069,344.8781,255.6654,335.27,257.83" style="stroke:#000000;stroke-width:1;"/><text fill="#000000" font-family="Roboto,sans-serif" font-size="12" lengthAdjust="spacing" textLength="44.1563" x="354.97" y="256.7328">load key</text></g><!--reverse link crypto to app2--><g class="link" data-entity-1="crypto" data-entity-2="app2" data-source-line="34" data-uid="lnk27" id="link_crypto_app2"><path d="M276.1315,264.9867 C274.1915,275.3067 272.95,283 271.53,295.13 C268.39,321.81 266.8,353.01 266.07,371.64" fill="none" id="crypto-backto-app2" style="stroke:#000000;stroke-width:1;"/><polygon fill="#000000" points="277.24,259.09,271.6461,267.1961,276.3163,264.0039,279.5084,268.6741,277.24,259.09" style="stroke:#000000;stroke-width:1;"/><text fill="#000000" font-family="Roboto,sans-serif" font-size="12" lengthAdjust="spacing" textLength="56.7012" x="272.53" y="307.2628">Crypto API</text><text fill="#000000" font-family="Roboto,sans-serif" font-size="12" lengthAdjust="spacing" textLength="18.6445" x="291.5583" y="321.3253">call</text></g><!--link crypto to app2--><g class="link" data-entity-1="crypto" data-entity-2="app2" data-source-line="35" data-uid="lnk28" id="link_crypto_app2"><path d="M304.17,258.94 C315.33,268.13 327.5,280.66 333.53,295.13 C338.66,307.43 338.86,312.91 333.53,325.13 C325.03,344.6 312.0652,357.2248 296.8052,368.3048" fill="none" id="crypto-to-app2" style="stroke:#000000;stroke-width:1;"/><polygon fill="#000000" points="291.95,371.83,301.5829,369.7789,295.996,368.8923,296.8826,363.3054,291.95,371.83" style="stroke:#000000;stroke-width:1;"/><text fill="#000000" font-family="Roboto,sans-serif" font-size="12" lengthAdjust="spacing" textLength="49.3887" x="338.45" y="314.2628">response</text></g></g></svg>