<?xml version="1.0" encoding="UTF-8" standalone="no"?><svg xmlns="http://www.w3.org/2000/svg" xmlns:xlink="http://www.w3.org/1999/xlink" contentStyleType="text/css" height="265px" preserveAspectRatio="none" style="width:705px;height:265px;background:#FFFFFF;" version="1.1" viewBox="0 0 705 265" width="705px" zoomAndPan="magnify"><defs/><g><g id="cluster_##3"><rect fill="#FFFFFF" fill-opacity="0.56471" height="252" rx="2.5" ry="2.5" style="stroke:#8B0000;stroke-width:1.0;stroke-dasharray:7.0,7.0;" width="516" x="183" y="7"/><text fill="#000000" font-family="Lato,sans-serif" font-size="11" font-style="italic" lengthAdjust="spacing" textLength="89" x="396.5" y="19.8435">«System boundary»</text></g><g id="cluster_##6"><rect fill="#FFFFFF" fill-opacity="0.56471" height="91" rx="2.5" ry="2.5" style="stroke:#8B0000;stroke-width:1.0;stroke-dasharray:7.0,7.0;" width="296" x="379" y="47"/><text fill="#000000" font-family="Lato,sans-serif" font-size="11" font-style="italic" lengthAdjust="spacing" textLength="133" x="460.5" y="59.8435">«Cryptoprocessor boundary»</text></g><!--MD5=[4541fb81c80c07473fe4b07432ef0971]
entity app--><g id="elem_app"><rect fill="#FFFFFF" height="34.3921" rx="35" ry="35" style="stroke:#000000;stroke-width:1.0;" width="81" x="199.5" y="83.5"/><text fill="#000000" font-family="Lato,sans-serif" font-size="12" lengthAdjust="spacing" textLength="61" x="209.5" y="105.3375">Application</text></g><!--MD5=[a21d1e8c45edd0a89909a726cff5f3be]
entity nvm--><g id="elem_nvm"><path d="M216,210 C216,200 240,200 240,200 C240,200 264,200 264,210 L264,233.3921 C264,243.3921 240,243.3921 240,243.3921 C240,243.3921 216,243.3921 216,233.3921 L216,210 " fill="#FFFFFF" style="stroke:#000000;stroke-width:1.0;"/><path d="M216,210 C216,220 240,220 240,220 C240,220 264,220 264,210 " fill="none" style="stroke:#000000;stroke-width:1.0;"/><text fill="#000000" font-family="Lato,sans-serif" font-size="12" lengthAdjust="spacing" textLength="28" x="226" y="235.8375">NVM</text></g><!--MD5=[6cc4354bc172bfab4bc5d504e938f9dd]
entity crypto--><g id="elem_crypto"><rect fill="#FFFFFF" height="34.3921" rx="35" ry="35" style="stroke:#000000;stroke-width:1.0;" width="110" x="395" y="83.5"/><text fill="#000000" font-family="Lato,sans-serif" font-size="12" lengthAdjust="spacing" textLength="90" x="405" y="105.3375">Cryptoprocessor</text></g><!--MD5=[885534b20a890cf314c9a5b140ec18ce]
entity keys--><g id="elem_keys"><path d="M589,89 C589,79 624,79 624,79 C624,79 659,79 659,89 L659,112.3921 C659,122.3921 624,122.3921 624,122.3921 C624,122.3921 589,122.3921 589,112.3921 L589,89 " fill="#FFFFFF" style="stroke:#000000;stroke-width:1.0;"/><path d="M589,89 C589,99 624,99 624,99 C624,99 659,99 659,89 " fill="none" style="stroke:#000000;stroke-width:1.0;"/><text fill="#000000" font-family="Lato,sans-serif" font-size="12" lengthAdjust="spacing" textLength="50" x="599" y="114.8375">Key Store</text></g><!--MD5=[7c6cc8532223f11e77b82be6cbdb2ea3]
entity ext--><g id="elem_ext"><rect fill="#FFFFFF" height="34.3921" rx="2.5" ry="2.5" style="stroke:#000000;stroke-width:1.0;" width="102" x="7" y="83.5"/><text fill="#000000" font-family="Lato,sans-serif" font-size="12" lengthAdjust="spacing" textLength="82" x="17" y="105.3375">External system</text></g><!--MD5=[914486b73b535f0c4ac49a8d72533c21]
link ext to app--><g id="link_ext_app"><path d="M114.25,100.5 C139.92,100.5 169.92,100.5 194.19,100.5 " fill="none" id="ext-app" style="stroke:#000000;stroke-width:1.0;"/><polygon fill="#000000" points="199.27,100.5,190.27,96.5,194.27,100.5,190.27,104.5,199.27,100.5" style="stroke:#000000;stroke-width:1.0;"/><polygon fill="#000000" points="109.18,100.5,118.18,104.5,114.18,100.5,118.18,96.5,109.18,100.5" style="stroke:#000000;stroke-width:1.0;"/><text fill="#000000" font-family="Lato,sans-serif" font-size="12" lengthAdjust="spacing" textLength="54" x="127.25" y="94.3375">ciphertext</text></g><!--MD5=[4bd16bda29b8a051ff3f15cdb247d6db]
link app to crypto--><g id="link_app_crypto"><path d="M280.74,100.5 C311.66,100.5 354.67,100.5 389.59,100.5 " fill="none" id="app-to-crypto" style="stroke:#000000;stroke-width:1.0;"/><polygon fill="#000000" points="394.68,100.5,385.68,96.5,389.68,100.5,385.68,104.5,394.68,100.5" style="stroke:#000000;stroke-width:1.0;"/><text fill="#000000" font-family="Lato,sans-serif" font-size="12" lengthAdjust="spacing" textLength="78" x="298.75" y="94.3375">Crypto API call</text></g><!--MD5=[9f3f5bfaeffb73b5d37908f968ab49ea]
reverse link app to crypto--><g id="link_app_crypto"><path d="M285.7,114.33 C294.59,116.48 303.9,118.36 312.75,119.5 C339.83,122.98 369.88,119.64 394.94,114.84 " fill="none" id="app-backto-crypto" style="stroke:#000000;stroke-width:1.0;"/><polygon fill="#000000" points="280.81,113.11,288.5879,119.1519,285.6641,114.3092,290.5067,111.3854,280.81,113.11" style="stroke:#000000;stroke-width:1.0;"/><text fill="#000000" font-family="Lato,sans-serif" font-size="12" lengthAdjust="spacing" textLength="48" x="313.75" y="116.3375">response</text></g><!--MD5=[d97952a852c713a1d6ef7ab17551ef04]
link crypto to keys--><g id="link_crypto_keys"><path d="M505.05,100.5 C530.6,100.5 560.42,100.5 583.81,100.5 " fill="none" id="crypto-to-keys" style="stroke:#000000;stroke-width:1.0;"/><polygon fill="#000000" points="589,100.5,580,96.5,584,100.5,580,104.5,589,100.5" style="stroke:#000000;stroke-width:1.0;"/><text fill="#000000" font-family="Lato,sans-serif" font-size="12" lengthAdjust="spacing" textLength="47" x="523.5" y="94.3375">store key</text></g><!--MD5=[ead8b9a19e59888a5f7d56172008e43b]
reverse link crypto to keys--><g id="link_crypto_keys"><path d="M510.35,117.79 C529.3,121.15 550.28,122.75 569.5,119.5 C575.92,118.41 582.6,116.65 588.98,114.63 " fill="none" id="crypto-backto-keys" style="stroke:#000000;stroke-width:1.0;"/><polygon fill="#000000" points="505.07,116.8,513.1708,122.4015,509.9831,117.7283,514.6562,114.5406,505.07,116.8" style="stroke:#000000;stroke-width:1.0;"/><text fill="#000000" font-family="Lato,sans-serif" font-size="12" lengthAdjust="spacing" textLength="43" x="525.5" y="116.3375">load key</text></g><!--MD5=[0ee8252cc19ab4efcd3d1c5bb6f5b4c7]
link app to nvm--><g id="link_app_nvm"><path d="M240,122.55 C240,142.76 240,173.31 240,194.91 " fill="none" id="app-nvm" style="stroke:#000000;stroke-width:1.0;"/><polygon fill="#000000" points="240,199.92,244,190.92,240,194.92,236,190.92,240,199.92" style="stroke:#000000;stroke-width:1.0;"/><polygon fill="#000000" points="240,117.55,236,126.55,240,122.55,244,126.55,240,117.55" style="stroke:#000000;stroke-width:1.0;"/><text fill="#000000" font-family="Lato,sans-serif" font-size="12" lengthAdjust="spacing" textLength="54" x="241" y="166.8375">ciphertext</text></g></g></svg>