<svg xmlns="http://www.w3.org/2000/svg" xmlns:xlink="http://www.w3.org/1999/xlink" contentStyleType="text/css" data-diagram-type="DESCRIPTION" height="222px" preserveAspectRatio="none" style="width:681px;height:222px;background:#FFFFFF55;" version="1.1" viewBox="0 0 681 222" width="681px" zoomAndPan="magnify"><defs><style type="text/css">@import url('https://fonts.googleapis.com/css?family=Roboto:400,100,100italic,300,300italic,400italic,500,500italic,700,700italic,900,900italic');</style></defs><g><rect fill="#FFFFFF" fill-opacity="0.33333" height="222" style="stroke:none;stroke-width:1;" width="681" x="0" y="0"/><g class="cluster" data-entity="##3" data-source-line="15" data-uid="ent0004" id="cluster_##3"><rect fill="#FFFFFF" fill-opacity="0.56471" height="209.12" style="stroke:#8B0000;stroke-width:1;stroke-dasharray:7.0,7.0;" width="490" x="185.53" y="7"/><text fill="#000000" font-family="Roboto,sans-serif" font-size="11" font-style="italic" lengthAdjust="spacing" textLength="92.5493" x="384.2553" y="19.2051">&#171;System boundary&#187;</text></g><!--entity app--><g class="entity" data-entity="app" data-source-line="9" data-uid="ent0005" id="entity_app"><rect fill="#FFFFFF" height="34.0625" rx="35" ry="35" style="stroke:#000000;stroke-width:1;" width="80.2637" x="201.4" y="42.5"/><text fill="#000000" font-family="Roboto,sans-serif" font-size="12" lengthAdjust="spacing" textLength="60.2637" x="211.4" y="63.6328">Application</text></g><!--entity crypto--><g class="entity" data-entity="crypto" data-source-line="10" data-uid="ent0006" id="entity_crypto"><rect fill="#FFFFFF" height="34.0625" rx="35" ry="35" style="stroke:#000000;stroke-width:1;" width="108.6523" x="396.2" y="42.5"/><text fill="#000000" font-family="Roboto,sans-serif" font-size="12" lengthAdjust="spacing" textLength="88.6523" x="406.2" y="63.6328">Cryptoprocessor</text></g><!--entity keys--><g class="entity" data-entity="keys" data-source-line="11" data-uid="ent0007" id="entity_keys"><path d="M589.09,48 C589.09,38 624.5255,38 624.5255,38 C624.5255,38 659.9611,38 659.9611,48 L659.9611,71.0625 C659.9611,81.0625 624.5255,81.0625 624.5255,81.0625 C624.5255,81.0625 589.09,81.0625 589.09,71.0625 L589.09,48" fill="#FFFFFF" style="stroke:#000000;stroke-width:1;"/><path d="M589.09,48 C589.09,58 624.5255,58 624.5255,58 C624.5255,58 659.9611,58 659.9611,48" fill="none" style="stroke:#000000;stroke-width:1;"/><text fill="#000000" font-family="Roboto,sans-serif" font-size="12" lengthAdjust="spacing" textLength="50.8711" x="599.09" y="73.1328">Key Store</text></g><!--entity nvm--><g class="entity" data-entity="nvm" data-source-line="12" data-uid="ent0008" id="entity_nvm"><path d="M218.19,167.06 C218.19,157.06 241.5289,157.06 241.5289,157.06 C241.5289,157.06 264.8677,157.06 264.8677,167.06 L264.8677,190.1225 C264.8677,200.1225 241.5289,200.1225 241.5289,200.1225 C241.5289,200.1225 218.19,200.1225 218.19,190.1225 L218.19,167.06" fill="#FFFFFF" style="stroke:#000000;stroke-width:1;"/><path d="M218.19,167.06 C218.19,177.06 241.5289,177.06 241.5289,177.06 C241.5289,177.06 264.8677,177.06 264.8677,167.06" fill="none" style="stroke:#000000;stroke-width:1;"/><text fill="#000000" font-family="Roboto,sans-serif" font-size="12" lengthAdjust="spacing" textLength="26.6777" x="228.19" y="192.1928">NVM</text></g><!--entity ext--><g class="entity" data-entity="ext" data-source-line="7" data-uid="ent0002" id="entity_ext"><rect fill="#FFFFFF" height="34.0625" rx="4" ry="4" style="stroke:#000000;stroke-width:1;" width="105.0547" x="7" y="42.5"/><text fill="#000000" font-family="Roboto,sans-serif" font-size="12" lengthAdjust="spacing" textLength="85.0547" x="17" y="63.6328">External system</text></g><!--link ext to app--><g class="link" data-entity-1="ext" data-entity-2="app" data-source-line="15" data-uid="lnk9" id="link_ext_app"><path d="M118.17,59.53 C146.51,59.53 168.94,59.53 195.15,59.53" fill="none" id="ext-app" style="stroke:#000000;stroke-width:1;"/><polygon fill="#000000" points="112.17,59.53,121.17,63.53,117.17,59.53,121.17,55.53,112.17,59.53" style="stroke:#000000;stroke-width:1;"/><polygon fill="#000000" points="201.15,59.53,192.15,55.53,196.15,59.53,192.15,63.53,201.15,59.53" style="stroke:#000000;stroke-width:1;"/><text fill="#000000" font-family="Roboto,sans-serif" font-size="12" lengthAdjust="spacing" textLength="53.1445" x="130.23" y="52.6628">ciphertext</text></g><!--link app to crypto--><g class="link" data-entity-1="app" data-entity-2="crypto" data-source-line="16" data-uid="lnk10" id="link_app_crypto"><path d="M281.82,59.53 C314.21,59.53 354.02,59.53 389.73,59.53" fill="none" id="app-to-crypto" style="stroke:#000000;stroke-width:1;"/><polygon fill="#000000" points="395.73,59.53,386.73,55.53,390.73,59.53,386.73,63.53,395.73,59.53" style="stroke:#000000;stroke-width:1;"/><text fill="#000000" font-family="Roboto,sans-serif" font-size="12" lengthAdjust="spacing" textLength="78.3223" x="299.93" y="52.6628">Crypto API call</text></g><!--reverse link app to crypto--><g class="link" data-entity-1="app" data-entity-2="crypto" data-source-line="17" data-uid="lnk11" id="link_app_crypto"><path d="M287.6572,73.6387 C297.8572,76.2887 303.06,77.18 313.43,78.53 C340.6,82.05 370.75,78.67 395.85,73.84" fill="none" id="app-backto-crypto" style="stroke:#000000;stroke-width:1;"/><polygon fill="#000000" points="281.85,72.13,289.555,78.2646,286.6893,73.3873,291.5666,70.5216,281.85,72.13" style="stroke:#000000;stroke-width:1;"/><text fill="#000000" font-family="Roboto,sans-serif" font-size="12" lengthAdjust="spacing" textLength="49.3887" x="314.43" y="74.6628">response</text></g><!--link crypto to keys--><g class="link" data-entity-1="crypto" data-entity-2="keys" data-source-line="18" data-uid="lnk12" id="link_crypto_keys"><path d="M505.1,59.53 C532.41,59.53 558.69,59.53 582.81,59.53" fill="none" id="crypto-to-keys" style="stroke:#000000;stroke-width:1;"/><polygon fill="#000000" points="588.81,59.53,579.81,55.53,583.81,59.53,579.81,63.53,588.81,59.53" style="stroke:#000000;stroke-width:1;"/><text fill="#000000" font-family="Roboto,sans-serif" font-size="12" lengthAdjust="spacing" textLength="48.4922" x="522.97" y="52.6628">store key</text></g><!--reverse link crypto to keys--><g class="link" data-entity-1="crypto" data-entity-2="keys" data-source-line="19" data-uid="lnk13" id="link_crypto_keys"><path d="M511.1544,76.9322 C531.4844,80.9822 548.85,82.1 569.97,78.53 C576.2,77.47 582.67,75.79 588.88,73.84" fill="none" id="crypto-backto-keys" style="stroke:#000000;stroke-width:1;"/><polygon fill="#000000" points="505.27,75.76,513.3151,81.4413,510.1736,76.7369,514.8781,73.5954,505.27,75.76" style="stroke:#000000;stroke-width:1;"/><text fill="#000000" font-family="Roboto,sans-serif" font-size="12" lengthAdjust="spacing" textLength="44.1563" x="524.97" y="74.6628">load key</text></g><!--link app to nvm--><g class="link" data-entity-1="app" data-entity-2="nvm" data-source-line="20" data-uid="lnk14" id="link_app_nvm"><path d="M241.53,83.05 C241.53,103.97 241.53,128.04 241.53,150.81" fill="none" id="app-nvm" style="stroke:#000000;stroke-width:1;"/><polygon fill="#000000" points="241.53,77.05,237.53,86.05,241.53,82.05,245.53,86.05,241.53,77.05" style="stroke:#000000;stroke-width:1;"/><polygon fill="#000000" points="241.53,156.81,245.53,147.81,241.53,151.81,237.53,147.81,241.53,156.81" style="stroke:#000000;stroke-width:1;"/><text fill="#000000" font-family="Roboto,sans-serif" font-size="12" lengthAdjust="spacing" textLength="53.1445" x="242.53" y="123.1928">ciphertext</text></g></g></svg>