<?xml version="1.0" encoding="UTF-8" standalone="no"?><svg xmlns="http://www.w3.org/2000/svg" xmlns:xlink="http://www.w3.org/1999/xlink" contentStyleType="text/css" height="198px" preserveAspectRatio="none" style="width:455px;height:198px;background:#FFFFFF;" version="1.1" viewBox="0 0 455 198" width="455px" zoomAndPan="magnify"><defs/><g><!--MD5=[07074073229a58b98d86dbf75a12e332]
cluster Internet--><g id="cluster_Internet"><path d="M147.9258,15.4971 C149.8785,9.4539 155.346,9.1112 158.8107,13.9904 C162.0763,9.8477 166.7419,9.615 169.3724,14.716 C172.4775,9.1293 177.0239,9.0659 181.0241,13.6952 C182.94,8.5219 187.761,9.1359 190.5115,12.7991 C193.8001,7.4493 197.2143,6.103 201.5106,11.7953 C205.031,6.2259 209.5713,6 213.3733,11.4934 C216.4895,7.9053 220.8507,8.3391 223.0744,12.5968 C227.2768,7.8729 231.3487,8.9315 234.2325,14.0862 C237.7393,7.8215 242.9753,8.2261 246.3263,14.2397 C250.5027,10.0659 254.1904,9.8967 256.6615,15.9611 C263.1061,18.5425 262.9474,24.5796 257.5085,27.9971 C262.5722,29.9532 262.1225,34.2885 258.6952,37.3249 C266.2669,39.5378 265.9488,46.0375 260.7245,50.2582 C264.6643,54.9994 264.9726,58.8103 258.6246,61.6561 C263.6603,64.3984 263.943,69.2809 258.3462,71.7294 C264.0628,75.5204 263.2563,80.2132 258.1206,83.8014 C254.7214,89.6509 250.411,89.4572 247.1641,83.6581 C243.3417,89.495 239.4186,89.2237 235.359,83.9092 C231.8969,89.3646 228.3257,88.9532 224.1914,84.6809 C220.3657,90.2359 216.7005,88.922 213.5515,83.994 C209.9003,89.9486 206.1638,90.2137 202.3754,84.1213 C199.6458,89.5408 194.9673,88.4368 192.094,84.2755 C188.4257,89.9428 183.2408,91.0659 179.5256,84.323 C176.565,88.2949 172.2181,88.8128 169.4858,84.0602 C166.2823,88.3263 161.4721,88.1664 158.7269,83.5078 C155.824,88.1437 150.9799,88.3802 147.6862,83.9856 C140.6961,80.6211 139.2796,76.8303 145.3827,71.1213 C139.6038,69.5515 136.9777,66.9243 140.9768,61.0689 C134.1598,58.9171 133.4971,53.2261 138.803,48.9074 C134.7052,44.2319 136.3546,39.4672 142.672,38.7647 C137.0585,34.0846 138.4916,29.0947 145.232,27.1338 C140.9674,22.8234 141.1024,17.2408 147.9258,15.4971 " fill="#FFFFFF" style="stroke:#7D868C;stroke-width:1.0;"/><text fill="#000000" font-family="Lato,sans-serif" font-size="12" font-weight="bold" lengthAdjust="spacing" textLength="45" x="178.5" y="31.6597">Internet</text></g><g id="cluster_##6"><rect fill="#FFFFFF" fill-opacity="0.56471" height="185" rx="2.5" ry="2.5" style="stroke:#8B0000;stroke-width:1.0;stroke-dasharray:7.0,7.0;" width="132" x="317" y="7.8222"/><text fill="#000000" font-family="Lato,sans-serif" font-size="11" font-style="italic" lengthAdjust="spacing" textLength="41" x="362.5" y="20.6657">«Device»</text></g><!--MD5=[dd82451e1dd92fe3da01853750f49ff6]
entity server--><g id="elem_server"><rect fill="#7D868C" height="34.3921" rx="2.5" ry="2.5" style="stroke:#000000;stroke-width:0.0;" width="94" x="154" y="39.8222"/><text fill="#FFFFFF" font-family="Lato,sans-serif" font-size="12" lengthAdjust="spacing" textLength="74" x="164" y="61.6597">Update server</text></g><!--MD5=[4a65e84059005d12693a083370a06717]
entity client--><g id="elem_client"><rect fill="#0091BD" height="34.3921" rx="2.5" ry="2.5" style="stroke:#000000;stroke-width:0.0;" width="90" x="337" y="39.8222"/><text fill="#FFFFFF" font-family="Lato,sans-serif" font-size="12" lengthAdjust="spacing" textLength="70" x="347" y="61.6597">Update client</text></g><!--MD5=[0686720d71d32ea68f81164171d509ce]
entity store--><g id="elem_store"><path d="M333,143.8222 C333,133.8222 383,133.8222 383,133.8222 C383,133.8222 433,133.8222 433,143.8222 L433,167.2143 C433,177.2143 383,177.2143 383,177.2143 C383,177.2143 333,177.2143 333,167.2143 L333,143.8222 " fill="#E5ECEB" style="stroke:#7D868C;stroke-width:1.0;"/><path d="M333,143.8222 C333,153.8222 383,153.8222 383,153.8222 C383,153.8222 433,153.8222 433,143.8222 " fill="none" style="stroke:#7D868C;stroke-width:1.0;"/><text fill="#000000" font-family="Lato,sans-serif" font-size="12" lengthAdjust="spacing" textLength="80" x="343" y="169.6597">Firmware store</text></g><!--MD5=[047b2bc0105c3139e3e48092a86620e4]
entity creator--><g id="elem_creator"><rect fill="#002B49" height="34.3921" rx="2.5" ry="2.5" style="stroke:#000000;stroke-width:0.0;" width="112" x="7" y="39.8222"/><text fill="#FFFFFF" font-family="Lato,sans-serif" font-size="12" lengthAdjust="spacing" textLength="92" x="17" y="61.6597">Firmware creator</text></g><!--MD5=[71457ea29a5a3cf1aa4f13fecb197da8]
entity tls--><g id="elem_tls"><ellipse cx="292" cy="56.8222" fill="#E5ECEB" rx="8" ry="8" style="stroke:#7D868C;stroke-width:1.0;"/><text fill="#000000" font-family="Lato,sans-serif" font-size="12" lengthAdjust="spacing" textLength="35" x="274" y="85.6597">MQTT</text><text fill="#000000" font-family="Lato,sans-serif" font-size="12" lengthAdjust="spacing" textLength="30" x="276" y="100.0518">CoAP</text><text fill="#000000" font-family="Lato,sans-serif" font-size="12" lengthAdjust="spacing" textLength="36" x="274" y="114.4438">HTTPS</text><text fill="#000000" font-family="Lato,sans-serif" font-size="12" lengthAdjust="spacing" textLength="9" x="286" y="128.8359">...</text></g><!--MD5=[41bc4e4e6fea70a93be6da1129fc717b]
link creator to server--><g id="link_creator_server"><path d="M119.06,56.8222 C128.97,56.8222 138.87,56.8222 148.77,56.8222 " fill="none" id="creator-to-server" style="stroke:#000000;stroke-width:1.0;"/><polygon fill="#000000" points="153.95,56.8222,144.95,52.8222,148.95,56.8222,144.95,60.8222,153.95,56.8222" style="stroke:#000000;stroke-width:1.0;"/></g><!--MD5=[e4ba6bd3088feaf6592114192c23d752]
reverse link server to tls--><g id="link_server_tls"><path d="M253.4,56.8222 C263.19,56.8222 272.98,56.8222 282.78,56.8222 " fill="none" id="server-backto-tls" style="stroke:#000000;stroke-width:1.0;"/><polygon fill="#000000" points="248.28,56.8222,257.28,60.8222,253.28,56.8222,257.28,52.8222,248.28,56.8222" style="stroke:#000000;stroke-width:1.0;"/></g><!--MD5=[0416c271e414555717e9210f2f4947bc]
link tls to client--><g id="link_tls_client"><path d="M301.14,56.8222 C311.36,56.8222 321.59,56.8222 331.81,56.8222 " fill="none" id="tls-to-client" style="stroke:#000000;stroke-width:1.0;"/><polygon fill="#000000" points="336.83,56.8222,327.83,52.8222,331.83,56.8222,327.83,60.8222,336.83,56.8222" style="stroke:#000000;stroke-width:1.0;"/></g><!--MD5=[4be2d5391588a90175fb99da80f29870]
link client to store--><g id="link_client_store"><path d="M382.17,74.1922 C382.32,89.0022 382.55,111.0822 382.73,128.3122 " fill="none" id="client-to-store" style="stroke:#000000;stroke-width:1.0;"/><polygon fill="#000000" points="382.78,133.4822,386.7027,124.4482,382.7371,128.4824,378.703,124.5168,382.78,133.4822" style="stroke:#000000;stroke-width:1.0;"/></g></g></svg>