<svg xmlns="http://www.w3.org/2000/svg" xmlns:xlink="http://www.w3.org/1999/xlink" contentStyleType="text/css" data-diagram-type="STATE" height="695px" preserveAspectRatio="none" style="width:447px;height:695px;background:#FFFFFF55;" version="1.1" viewBox="0 0 447 695" width="447px" zoomAndPan="magnify"><defs/><g><rect fill="#FFFFFF" fill-opacity="0.33333" height="695" style="stroke:none;stroke-width:1;" width="447" x="0" y="0"/><rect fill="#FFFFFF" height="40" rx="4" ry="4" style="stroke:#000000;stroke-width:1;" width="50" x="110.36" y="7"/><text fill="#000000" font-family="Lato,sans-serif" font-size="12" lengthAdjust="spacing" textLength="39.186" x="115.767" y="31.644">READY</text><rect fill="#FFFFFF" height="40" rx="4" ry="4" style="stroke:#000000;stroke-width:1;" width="71.71" x="16.5" y="121"/><text fill="#000000" font-family="Lato,sans-serif" font-size="12" lengthAdjust="spacing" textLength="61.71" x="21.5" y="145.644">WRITING &#8224;</text><rect fill="#FFFFFF" height="40" rx="4" ry="4" style="stroke:#000000;stroke-width:1;" width="79.054" x="12.83" y="235"/><text fill="#000000" font-family="Lato,sans-serif" font-size="12" lengthAdjust="spacing" textLength="69.054" x="17.83" y="259.644">CANDIDATE</text><rect fill="#FFFFFF" height="40" rx="4" ry="4" style="stroke:#000000;stroke-width:1;" width="64.714" x="72" y="365"/><text fill="#000000" font-family="Lato,sans-serif" font-size="12" lengthAdjust="spacing" textLength="54.714" x="77" y="389.644">STAGED *</text><rect fill="#FFFFFF" height="40" rx="4" ry="4" style="stroke:#000000;stroke-width:1;" width="60.52" x="176.1" y="235"/><text fill="#000000" font-family="Lato,sans-serif" font-size="12" lengthAdjust="spacing" textLength="50.52" x="181.1" y="259.644">FAILED &#8225;</text><rect fill="#FFFFFF" height="40" rx="4" ry="4" style="stroke:#000000;stroke-width:1;" width="75.778" x="365.47" y="365"/><text fill="#000000" font-family="Lato,sans-serif" font-size="12" lengthAdjust="spacing" textLength="65.778" x="370.47" y="389.644">REJECTED *</text><rect fill="#FFFFFF" height="40" rx="4" ry="4" style="stroke:#000000;stroke-width:1;" width="50.422" x="242.15" y="365"/><text fill="#000000" font-family="Lato,sans-serif" font-size="12" lengthAdjust="spacing" textLength="40.422" x="247.15" y="389.644">TRIAL *</text><rect fill="#FFFFFF" height="40" rx="4" ry="4" style="stroke:#000000;stroke-width:1;" width="76.456" x="229.13" y="479"/><text fill="#000000" font-family="Lato,sans-serif" font-size="12" lengthAdjust="spacing" textLength="66.456" x="234.13" y="503.644">UPDATED &#8225;</text><rect fill="#FFFFFF" height="40" rx="4" ry="4" style="stroke:#000000;stroke-width:1;" width="50" x="372.36" y="479"/><text fill="#000000" font-family="Lato,sans-serif" font-size="12" lengthAdjust="spacing" textLength="39.186" x="377.767" y="503.644">READY</text><!--link Start to Writing--><g class="link" data-entity-1="Start" data-entity-2="Writing" data-source-line="30" data-uid="lnk2" id="link_Start_Writing"><path d="M121.09,47.25 C105.89,67.77 85.5214,95.2387 70.2914,115.7987" fill="none" id="Start-to-Writing" style="stroke:#0000FF;stroke-width:1;"/><polygon fill="#0000FF" points="66.72,120.62,75.2913,115.769,69.6962,116.6022,68.8629,111.0071,66.72,120.62" style="stroke:#0000FF;stroke-width:1;"/><text fill="#000000" font-family="Inconsolata,monospace" font-size="12" lengthAdjust="spacing" textLength="30" x="99.83" y="88.308">start</text></g><!--link Writing to Writing--><g class="link" data-entity-1="Writing" data-entity-2="Writing" data-source-line="31" data-uid="lnk3" id="link_Writing_Writing"><path d="M88.45,130.66 C106.78,129.15 123.21,132.59 123.21,141 C123.21,149.41 112.7597,153.3426 94.4297,151.8326" fill="none" id="Writing-to-Writing" style="stroke:#0000FF;stroke-width:1;"/><polygon fill="#0000FF" points="88.45,151.34,97.0912,156.0654,93.4331,151.7505,97.748,148.0924,88.45,151.34" style="stroke:#0000FF;stroke-width:1;"/><text fill="#000000" font-family="Inconsolata,monospace" font-size="12" lengthAdjust="spacing" textLength="30" x="129.21" y="145.308">write</text></g><!--link Writing to Candidate--><g class="link" data-entity-1="Writing" data-entity-2="Candidate" data-source-line="32" data-uid="lnk4" id="link_Writing_Candidate"><path d="M52.36,161.25 C52.36,181.77 52.36,208.06 52.36,228.62" fill="none" id="Writing-to-Candidate" style="stroke:#0000FF;stroke-width:1;"/><polygon fill="#0000FF" points="52.36,234.62,56.36,225.62,52.36,229.62,48.36,225.62,52.36,234.62" style="stroke:#0000FF;stroke-width:1;"/><text fill="#000000" font-family="Inconsolata,monospace" font-size="12" lengthAdjust="spacing" textLength="36" x="53.36" y="202.308">finish</text></g><!--link Writing to Failed--><g class="link" data-entity-1="Writing" data-entity-2="Failed" data-source-line="33" data-uid="lnk5" id="link_Writing_Failed"><path d="M78.83,161.25 C107.04,181.77 146.5876,210.531 174.8576,231.091" fill="none" id="Writing-to-Failed" style="stroke:#0000FF;stroke-width:1;"/><polygon fill="#0000FF" points="179.71,234.62,174.7841,226.0915,175.6663,231.6791,170.0787,232.5614,179.71,234.62" style="stroke:#0000FF;stroke-width:1;"/><text fill="#000000" font-family="Inconsolata,monospace" font-size="12" lengthAdjust="spacing" textLength="36" x="139.58" y="202.308">cancel</text></g><!--link Candidate to Staged--><g class="link" data-entity-1="Candidate" data-entity-2="Staged" data-source-line="34" data-uid="lnk6" id="link_Candidate_Staged"><path d="M33.48,275.42 C19.97,291.79 6,315.57 17.36,335 C29.08,355.05 46.7545,365.4266 66.2845,372.7766" fill="none" id="Candidate-to-Staged" style="stroke:#8B0000;stroke-width:1;"/><polygon fill="#8B0000" points="71.9,374.89,64.8857,367.9763,67.2204,373.1289,62.0679,375.4636,71.9,374.89" style="stroke:#8B0000;stroke-width:1;"/><text fill="#000000" font-family="Inconsolata,monospace" font-size="12" lengthAdjust="spacing" textLength="42" x="18.36" y="324.308">install</text></g><!--link Candidate to Failed--><g class="link" data-entity-1="Candidate" data-entity-2="Failed" data-source-line="35" data-uid="lnk7" id="link_Candidate_Failed"><path d="M92.02,255 C118.22,255 146.03,255 170.07,255" fill="none" id="Candidate-to-Failed" style="stroke:#0000FF;stroke-width:1;"/><polygon fill="#0000FF" points="176.07,255,167.07,251,171.07,255,167.07,259,176.07,255" style="stroke:#0000FF;stroke-width:1;"/><text fill="#000000" font-family="Inconsolata,monospace" font-size="12" lengthAdjust="spacing" textLength="36" x="115.99" y="249.308">cancel</text></g><!--link Staged to Trial--><g class="link" data-entity-1="Staged" data-entity-2="Trial" data-source-line="37" data-uid="lnk8" id="link_Staged_Trial"><path d="M136.95,385 C167.8,385 207.47,385 235.77,385" fill="none" id="Staged-to-Trial" style="stroke:#8B0000;stroke-width:1;stroke-dasharray:7.0,7.0;"/><polygon fill="#8B0000" points="241.77,385,232.77,381,236.77,385,232.77,389,241.77,385" style="stroke:#8B0000;stroke-width:1;"/><text fill="#000000" font-family="Lato,sans-serif" font-size="12" font-weight="bold" lengthAdjust="spacing" textLength="35.946" x="170.416" y="364.844">reboot</text><text fill="#000000" font-family="Lato,sans-serif" font-size="12" lengthAdjust="spacing" textLength="3" x="206.362" y="364.844">:</text><text fill="#000000" font-family="Lato,sans-serif" font-size="12" font-style="italic" lengthAdjust="spacing" textLength="69.918" x="154.93" y="379.244">install success</text></g><!--reverse link Failed to Staged--><g class="link" data-entity-1="Failed" data-entity-2="Staged" data-source-line="38" data-uid="lnk10" id="link_Failed_Staged"><path d="M170.2521,262.4254 C145.4321,268.3154 117.67,279.38 101.36,305 C90.08,322.71 93.35,347.47 97.81,364.53" fill="none" id="Failed-backto-Staged" style="stroke:#8B0000;stroke-width:1;stroke-dasharray:7.0,7.0;"/><polygon fill="#8B0000" points="176.09,261.04,166.4096,259.2262,171.2251,262.1945,168.2568,267.01,176.09,261.04" style="stroke:#8B0000;stroke-width:1;"/><text fill="#000000" font-family="Lato,sans-serif" font-size="12" font-weight="bold" lengthAdjust="spacing" textLength="35.946" x="112.908" y="317.844">reboot</text><text fill="#000000" font-family="Lato,sans-serif" font-size="12" lengthAdjust="spacing" textLength="3" x="148.854" y="317.844">:</text><text fill="#000000" font-family="Lato,sans-serif" font-size="12" font-style="italic" lengthAdjust="spacing" textLength="60.042" x="102.36" y="332.244">install failed</text></g><!--reverse link Failed to Staged--><g class="link" data-entity-1="Failed" data-entity-2="Staged" data-source-line="39" data-uid="lnk12" id="link_Failed_Staged"><path d="M197.5312,280.872 C191.0412,297.792 182.15,316.86 167.36,335 C158.25,346.17 146.14,356.35 134.98,364.5" fill="none" id="Failed-backto-Staged-1" style="stroke:#8B0000;stroke-width:1;"/><polygon fill="#8B0000" points="199.68,275.27,192.7222,282.2405,197.8894,279.9384,200.1915,285.1056,199.68,275.27" style="stroke:#8B0000;stroke-width:1;"/><text fill="#000000" font-family="Inconsolata,monospace" font-size="12" lengthAdjust="spacing" textLength="36" x="186.59" y="324.308">reject</text></g><!--link Trial to Updated--><g class="link" data-entity-1="Trial" data-entity-2="Updated" data-source-line="41" data-uid="lnk13" id="link_Trial_Updated"><path d="M267.36,405.25 C267.36,425.77 267.36,452.06 267.36,472.62" fill="none" id="Trial-to-Updated" style="stroke:#8B0000;stroke-width:1;"/><polygon fill="#8B0000" points="267.36,478.62,271.36,469.62,267.36,473.62,263.36,469.62,267.36,478.62" style="stroke:#8B0000;stroke-width:1;"/><text fill="#000000" font-family="Inconsolata,monospace" font-size="12" lengthAdjust="spacing" textLength="36" x="268.36" y="446.308">accept</text></g><!--reverse link Start to Failed--><g class="link" data-entity-1="Start" data-entity-2="Failed" data-source-line="43" data-uid="lnk15" id="link_Start_Failed"><path d="M143.4982,52.915 C149.6182,71.705 157.29,95.44 165.36,121 C178.08,161.33 192.57,208.67 200.46,234.59" fill="none" id="Start-backto-Failed" style="stroke:#0000FF;stroke-width:1;"/><polygon fill="#0000FF" points="141.64,47.21,140.6239,57.0063,143.1885,51.9642,148.2306,54.5288,141.64,47.21" style="stroke:#0000FF;stroke-width:1;"/><text fill="#000000" font-family="Inconsolata,monospace" font-size="12" lengthAdjust="spacing" textLength="30" x="178.4" y="145.308">clean</text></g><!--link Trial to Rejected--><g class="link" data-entity-1="Trial" data-entity-2="Rejected" data-source-line="44" data-uid="lnk16" id="link_Trial_Rejected"><path d="M292.94,385 C313.25,385 335.97,385 359.03,385" fill="none" id="Trial-to-Rejected" style="stroke:#8B0000;stroke-width:1;"/><polygon fill="#8B0000" points="365.03,385,356.03,381,360.03,385,356.03,389,365.03,385" style="stroke:#8B0000;stroke-width:1;"/><text fill="#000000" font-family="Inconsolata,monospace" font-size="12" lengthAdjust="spacing" textLength="36" x="311.02" y="379.308">reject</text></g><!--reverse link Failed to Rejected--><g class="link" data-entity-1="Failed" data-entity-2="Rejected" data-source-line="45" data-uid="lnk18" id="link_Failed_Rejected"><path d="M242.2091,271.4076 C262.2891,280.4676 283.39,290.95 305.36,305 C333.52,323.02 363.03,347.72 382.21,364.67" fill="none" id="Failed-backto-Rejected" style="stroke:#8B0000;stroke-width:1;stroke-dasharray:7.0,7.0;"/><polygon fill="#8B0000" points="236.74,268.94,243.2985,276.2875,241.2976,270.9964,246.5887,268.9954,236.74,268.94" style="stroke:#8B0000;stroke-width:1;"/><text fill="#000000" font-family="Lato,sans-serif" font-size="12" font-weight="bold" lengthAdjust="spacing" textLength="35.946" x="345.831" y="317.844">reboot</text><text fill="#000000" font-family="Lato,sans-serif" font-size="12" lengthAdjust="spacing" textLength="3" x="381.777" y="317.844">:</text><text fill="#000000" font-family="Lato,sans-serif" font-size="12" font-style="italic" lengthAdjust="spacing" textLength="39.348" x="345.63" y="332.244">rollback</text></g><!--link Trial to Failed--><g class="link" data-entity-1="Trial" data-entity-2="Failed" data-source-line="47" data-uid="lnk19" id="link_Trial_Failed"><path d="M264.22,364.7 C261.03,348.19 255.13,324.15 245.36,305 C239.92,294.35 235.8464,288.3627 228.5364,279.8027" fill="none" id="Trial-to-Failed" style="stroke:#8B0000;stroke-width:1;stroke-dasharray:7.0,7.0;"/><polygon fill="#8B0000" points="224.64,275.24,227.4428,284.6816,227.887,279.0422,233.5264,279.4864,224.64,275.24" style="stroke:#8B0000;stroke-width:1;"/><text fill="#000000" font-family="Lato,sans-serif" font-size="12" font-weight="bold" lengthAdjust="spacing" textLength="35.946" x="257.981" y="317.844">reboot</text><text fill="#000000" font-family="Lato,sans-serif" font-size="12" lengthAdjust="spacing" textLength="3" x="293.927" y="317.844">:</text><text fill="#000000" font-family="Lato,sans-serif" font-size="12" font-style="italic" lengthAdjust="spacing" textLength="39.348" x="257.78" y="332.244">rollback</text></g><!--link Updated to End--><g class="link" data-entity-1="Updated" data-entity-2="End" data-source-line="49" data-uid="lnk20" id="link_Updated_End"><path d="M306.01,499 C327.41,499 347.41,499 366.19,499" fill="none" id="Updated-to-End" style="stroke:#0000FF;stroke-width:1;"/><polygon fill="#0000FF" points="372.19,499,363.19,495,367.19,499,363.19,503,372.19,499" style="stroke:#0000FF;stroke-width:1;"/><text fill="#000000" font-family="Inconsolata,monospace" font-size="12" lengthAdjust="spacing" textLength="30" x="323.97" y="493.308">clean</text></g><rect fill="#E8E8E8" height="139.6" rx="4" ry="4" style="stroke:#000000;stroke-width:1;" width="296.842" x="68.203" y="536"/><text fill="#000000" font-family="Lato,sans-serif" font-size="12" font-weight="bold" lengthAdjust="spacing" textLength="59.304" x="73.203" y="552.844">Transitions</text><text fill="#0000FF" font-family="Inconsolata,monospace" font-size="12" lengthAdjust="spacing" text-decoration="line-through" textLength="18" x="73.203" y="567.52">&#8212;&#8212;&#8212;</text><text fill="#000000" font-family="Lato,sans-serif" font-size="12" lengthAdjust="spacing" textLength="158.322" x="94.275" y="567.244">Applies to a single component</text><text fill="#8B0000" font-family="Inconsolata,monospace" font-size="12" lengthAdjust="spacing" text-decoration="line-through" textLength="18" x="73.203" y="581.92">&#8212;&#8212;&#8212;</text><text fill="#000000" font-family="Lato,sans-serif" font-size="12" lengthAdjust="spacing" textLength="135.93" x="94.275" y="581.644">Applies to all components</text><text fill="#000000" font-family="Inconsolata,monospace" font-size="12" lengthAdjust="spacing" textLength="18" x="73.203" y="596.32">---</text><text fill="#000000" font-family="Lato,sans-serif" font-size="12" lengthAdjust="spacing" textLength="79.644" x="94.275" y="596.044">Transition over</text><text fill="#000000" font-family="Lato,sans-serif" font-size="12" font-weight="bold" lengthAdjust="spacing" textLength="35.946" x="176.991" y="596.044">reboot</text><text fill="#000000" font-family="Lato,sans-serif" font-size="12" lengthAdjust="spacing" textLength="2.832" x="212.937" y="596.044">.</text><text fill="#000000" font-family="Lato,sans-serif" font-size="12" lengthAdjust="spacing" textLength="3.072" x="73.203" y="610.444">&#160;</text><text fill="#000000" font-family="Lato,sans-serif" font-size="12" font-weight="bold" lengthAdjust="spacing" textLength="76.092" x="73.203" y="624.844">Volatile states</text><text fill="#000000" font-family="Inconsolata,monospace" font-size="12" lengthAdjust="spacing" textLength="6" x="79.203" y="639.52">*</text><text fill="#000000" font-family="Lato,sans-serif" font-size="12" lengthAdjust="spacing" textLength="40.728" x="94.275" y="639.244">Always:</text><text fill="#000000" font-family="Lato,sans-serif" font-size="12" font-weight="bold" lengthAdjust="spacing" textLength="35.946" x="138.075" y="639.244">reboot</text><text fill="#000000" font-family="Lato,sans-serif" font-size="12" lengthAdjust="spacing" textLength="102.21" x="177.093" y="639.244">transition as shown</text><text fill="#000000" font-family="Inconsolata,monospace" font-size="12" lengthAdjust="spacing" textLength="6" x="79.203" y="653.92">&#8224;</text><text fill="#000000" font-family="Lato,sans-serif" font-size="12" lengthAdjust="spacing" textLength="48.81" x="94.275" y="653.644">Optional:</text><text fill="#000000" font-family="Lato,sans-serif" font-size="12" font-weight="bold" lengthAdjust="spacing" textLength="35.946" x="146.157" y="653.644">reboot</text><text fill="#000000" font-family="Lato,sans-serif" font-size="12" lengthAdjust="spacing" textLength="80.274" x="185.175" y="653.644">is equivalent to</text><text fill="#000000" font-family="Inconsolata,monospace" font-size="12" lengthAdjust="spacing" textLength="36" x="268.521" y="653.92">cancel</text><text fill="#000000" font-family="Lato,sans-serif" font-size="12" lengthAdjust="spacing" textLength="19.38" x="307.593" y="653.644">and</text><text fill="#000000" font-family="Inconsolata,monospace" font-size="12" lengthAdjust="spacing" textLength="30" x="330.045" y="653.92">clean</text><text fill="#000000" font-family="Inconsolata,monospace" font-size="12" lengthAdjust="spacing" textLength="6" x="79.203" y="668.32">&#8225;</text><text fill="#000000" font-family="Lato,sans-serif" font-size="12" lengthAdjust="spacing" textLength="48.81" x="94.275" y="668.044">Optional:</text><text fill="#000000" font-family="Lato,sans-serif" font-size="12" font-weight="bold" lengthAdjust="spacing" textLength="35.946" x="146.157" y="668.044">reboot</text><text fill="#000000" font-family="Lato,sans-serif" font-size="12" lengthAdjust="spacing" textLength="80.274" x="185.175" y="668.044">is equivalent to</text><text fill="#000000" font-family="Inconsolata,monospace" font-size="12" lengthAdjust="spacing" textLength="30" x="268.521" y="668.32">clean</text></g></svg>