<?xml version="1.0" encoding="UTF-8" standalone="no"?><svg xmlns="http://www.w3.org/2000/svg" xmlns:xlink="http://www.w3.org/1999/xlink" contentStyleType="text/css" height="234px" preserveAspectRatio="none" style="width:875px;height:234px;background:#FFFFFF;" version="1.1" viewBox="0 0 875 234" width="875px" zoomAndPan="magnify"><defs/><g><!--MD5=[07074073229a58b98d86dbf75a12e332]
cluster Internet--><g id="cluster_Internet"><path d="M147.9258,32.675 C149.8785,26.6317 155.346,26.289 158.8107,31.1682 C162.0763,27.0255 166.7419,26.7928 169.3724,31.8939 C172.4775,26.3071 177.0239,26.2437 181.0241,30.873 C182.94,25.6997 187.761,26.3138 190.5115,29.9769 C193.8001,24.6271 197.2143,23.2809 201.5106,28.9731 C205.031,23.4038 209.5713,23.1778 213.3733,28.6712 C216.4895,25.0831 220.8507,25.517 223.0744,29.7747 C227.2768,25.0507 231.3487,26.1093 234.2325,31.264 C237.7393,24.9993 242.9753,25.404 246.3263,31.4175 C250.5027,27.2437 254.1904,27.0745 256.6615,33.139 C263.1061,35.7203 262.9474,41.7574 257.5085,45.1749 C262.5722,47.131 262.1225,51.4663 258.6952,54.5027 C266.2669,56.7156 265.9488,63.2154 260.7245,67.4361 C264.6643,72.1772 264.9726,75.9882 258.6246,78.8339 C263.6603,81.5762 263.943,86.4587 258.3462,88.9072 C264.0628,92.6983 263.2563,97.391 258.1206,100.9792 C254.7214,106.8287 250.411,106.6351 247.1641,100.836 C243.3417,106.6728 239.4186,106.4016 235.359,101.087 C231.8969,106.5424 228.3257,106.131 224.1914,101.8587 C220.3657,107.4138 216.7005,106.0998 213.5515,101.1718 C209.9003,107.1264 206.1638,107.3915 202.3754,101.2991 C199.6458,106.7187 194.9673,105.6146 192.094,101.4533 C188.4257,107.1206 183.2408,108.2437 179.5256,101.5008 C176.565,105.4727 172.2181,105.9906 169.4858,101.238 C166.2823,105.5042 161.4721,105.3443 158.7269,100.6856 C155.824,105.3216 150.9799,105.5581 147.6862,101.1635 C140.6961,97.7989 139.2796,94.0081 145.3827,88.2991 C139.6038,86.7293 136.9777,84.1022 140.9768,78.2468 C134.1598,76.0949 133.4971,70.4039 138.803,66.0852 C134.7052,61.4097 136.3546,56.645 142.672,55.9425 C137.0585,51.2625 138.4916,46.2725 145.232,44.3116 C140.9674,40.0012 141.1024,34.4186 147.9258,32.675 " fill="#FFFFFF" style="stroke:#7D868C;stroke-width:1.0;"/><text fill="#000000" font-family="Lato,sans-serif" font-size="12" font-weight="bold" lengthAdjust="spacing" textLength="45" x="178.5" y="48.8375">Internet</text></g><g id="cluster_##6"><rect fill="#FFFFFF" fill-opacity="0.56471" height="221" rx="2.5" ry="2.5" style="stroke:#8B0000;stroke-width:1.0;stroke-dasharray:7.0,7.0;" width="546" x="323" y="7"/><text fill="#000000" font-family="Lato,sans-serif" font-size="11" font-style="italic" lengthAdjust="spacing" textLength="41" x="575.5" y="19.8435">«Device»</text></g><!--MD5=[dd82451e1dd92fe3da01853750f49ff6]
entity server--><g id="elem_server"><rect fill="#7D868C" height="34.3921" rx="2.5" ry="2.5" style="stroke:#000000;stroke-width:0.0;" width="94" x="154" y="57"/><text fill="#FFFFFF" font-family="Lato,sans-serif" font-size="12" lengthAdjust="spacing" textLength="74" x="164" y="78.8375">Update server</text></g><!--MD5=[4a65e84059005d12693a083370a06717]
entity client--><g id="elem_client"><rect fill="#7D868C" height="34.3921" rx="2.5" ry="2.5" style="stroke:#000000;stroke-width:0.0;" width="90" x="339" y="57"/><text fill="#FFFFFF" font-family="Lato,sans-serif" font-size="12" lengthAdjust="spacing" textLength="70" x="349" y="78.8375">Update client</text></g><!--MD5=[e2307af040e3f87d22824e7603ca28ec]
entity api--><g id="elem_api"><ellipse cx="473" cy="74" fill="#95D600" rx="8" ry="8" style="stroke:#7D868C;stroke-width:1.0;"/><text fill="#000000" font-family="Lato,sans-serif" font-size="12" font-weight="bold" lengthAdjust="spacing" textLength="51" x="445.5" y="102.8375">Firmware</text><text fill="#000000" font-family="Lato,sans-serif" font-size="12" font-weight="bold" lengthAdjust="spacing" textLength="63" x="441.5" y="117.2296">Update API</text></g><!--MD5=[38bfa9dc6018363cafe15f923a4b8db9]
entity service--><g id="elem_service"><rect fill="#0091BD" height="34.3921" rx="2.5" ry="2.5" style="stroke:#000000;stroke-width:0.0;" width="98" x="517" y="57"/><text fill="#FFFFFF" font-family="Lato,sans-serif" font-size="12" lengthAdjust="spacing" textLength="78" x="527" y="78.8375">Update service</text></g><!--MD5=[0686720d71d32ea68f81164171d509ce]
entity store--><g id="elem_store"><path d="M578,179 C578,169 628,169 628,169 C628,169 678,169 678,179 L678,202.3921 C678,212.3921 628,212.3921 628,212.3921 C628,212.3921 578,212.3921 578,202.3921 L578,179 " fill="#E5ECEB" style="stroke:#7D868C;stroke-width:1.0;"/><path d="M578,179 C578,189 628,189 628,189 C628,189 678,189 678,179 " fill="none" style="stroke:#7D868C;stroke-width:1.0;"/><text fill="#000000" font-family="Lato,sans-serif" font-size="12" lengthAdjust="spacing" textLength="80" x="588" y="204.8375">Firmware store</text></g><!--MD5=[f9240c011011a8880de7611d65d98344]
entity bootloader--><g id="elem_bootloader"><rect fill="#0091BD" height="34.3921" rx="2.5" ry="2.5" style="stroke:#000000;stroke-width:0.0;" width="80" x="650" y="57"/><text fill="#FFFFFF" font-family="Lato,sans-serif" font-size="12" lengthAdjust="spacing" textLength="60" x="660" y="78.8375">Bootloader</text></g><!--MD5=[a1d80d162cf33dbf0d7c31b4bedbc473]
entity anchor--><g id="elem_anchor"><text fill="#000000" font-family="Lato,sans-serif" font-size="30" lengthAdjust="spacing" textLength="24" x="775" y="78.6088">    </text><path d="M813.75,57.4985 C810.3,57.4985 807.5,60.2985 807.5,63.7485 C807.5,64.1485 807.5,64.5485 807.575,64.9235 L800,72.4985 L800,77.4985 L807.5,77.4985 L807.5,72.4985 L812.5,72.4985 L812.5,69.9985 L812.575,69.9235 C812.95,69.9985 813.35,69.9985 813.75,69.9985 C817.2,69.9985 820,67.1985 820,63.7485 C820,60.2985 817.2,57.4985 813.75,57.4985 M815,59.9985 C816.375,59.9985 817.5,61.1235 817.5,62.4985 C817.5,63.8735 816.375,64.9985 815,64.9985 C813.625,64.9985 812.5,63.8735 812.5,62.4985 C812.5,61.1235 813.625,59.9985 815,59.9985 " fill="#000000" style="stroke:;stroke-width:0.0;stroke-dasharray:;"/><text fill="#000000" font-family="Lato,sans-serif" font-size="12" lengthAdjust="spacing" textLength="68" x="775" y="96.836">Trust anchor</text></g><!--MD5=[047b2bc0105c3139e3e48092a86620e4]
entity creator--><g id="elem_creator"><rect fill="#002B49" height="34.3921" rx="2.5" ry="2.5" style="stroke:#000000;stroke-width:0.0;" width="112" x="7" y="57"/><text fill="#FFFFFF" font-family="Lato,sans-serif" font-size="12" lengthAdjust="spacing" textLength="92" x="17" y="78.8375">Firmware creator</text></g><!--MD5=[71457ea29a5a3cf1aa4f13fecb197da8]
entity tls--><g id="elem_tls"><ellipse cx="295" cy="74" fill="#E5ECEB" rx="8" ry="8" style="stroke:#7D868C;stroke-width:1.0;"/><text fill="#000000" font-family="Lato,sans-serif" font-size="12" lengthAdjust="spacing" textLength="35" x="277" y="102.8375">MQTT</text><text fill="#000000" font-family="Lato,sans-serif" font-size="12" lengthAdjust="spacing" textLength="30" x="279" y="117.2296">CoAP</text><text fill="#000000" font-family="Lato,sans-serif" font-size="12" lengthAdjust="spacing" textLength="36" x="277" y="131.6217">HTTPS</text><text fill="#000000" font-family="Lato,sans-serif" font-size="12" lengthAdjust="spacing" textLength="9" x="289" y="146.0138">...</text></g><!--MD5=[21b7ecfcf7fc031bbfae6c4dcbc60101]
entity drive--><g id="elem_drive"><path d="M146.5,179 C146.5,169 199,169 199,169 C199,169 251.5,169 251.5,179 L251.5,202.3921 C251.5,212.3921 199,212.3921 199,212.3921 C199,212.3921 146.5,212.3921 146.5,202.3921 L146.5,179 " fill="#E5ECEB" style="stroke:#7D868C;stroke-width:1.0;"/><path d="M146.5,179 C146.5,189 199,189 199,189 C199,189 251.5,189 251.5,179 " fill="none" style="stroke:#7D868C;stroke-width:1.0;"/><text fill="#000000" font-family="Lato,sans-serif" font-size="12" lengthAdjust="spacing" textLength="85" x="156.5" y="204.8375">External storage</text></g><!--MD5=[da1724a428b973c6b1d18fe742b038c0]
entity usb--><g id="elem_usb"><ellipse cx="296" cy="190.5" fill="#E5ECEB" rx="8" ry="8" style="stroke:#7D868C;stroke-width:1.0;"/><text fill="#000000" font-family="Lato,sans-serif" font-size="12" lengthAdjust="spacing" textLength="23" x="284.5" y="219.3375">USB</text></g><!--MD5=[41bc4e4e6fea70a93be6da1129fc717b]
link creator to server--><g id="link_creator_server"><path d="M119.06,74 C128.97,74 138.87,74 148.77,74 " fill="none" id="creator-to-server" style="stroke:#000000;stroke-width:1.0;"/><polygon fill="#000000" points="153.95,74,144.95,70,148.95,74,144.95,78,153.95,74" style="stroke:#000000;stroke-width:1.0;"/></g><!--MD5=[e4ba6bd3088feaf6592114192c23d752]
reverse link server to tls--><g id="link_server_tls"><path d="M253.02,74 C263.96,74 274.89,74 285.82,74 " fill="none" id="server-backto-tls" style="stroke:#000000;stroke-width:1.0;"/><polygon fill="#000000" points="248,74,257,78,253,74,257,70,248,74" style="stroke:#000000;stroke-width:1.0;"/></g><!--MD5=[0416c271e414555717e9210f2f4947bc]
link tls to client--><g id="link_tls_client"><path d="M304.04,74 C313.88,74 323.72,74 333.56,74 " fill="none" id="tls-to-client" style="stroke:#000000;stroke-width:1.0;"/><polygon fill="#000000" points="338.71,74,329.71,70,333.71,74,329.71,78,338.71,74" style="stroke:#000000;stroke-width:1.0;"/></g><!--MD5=[d4ad1d5275391ca8d3acb292d4b26dc5]
link client to api--><g id="link_client_api"><path d="M429.2,74 C440.72,74 452.24,74 463.76,74 " fill="none" id="client-api" style="stroke:#000000;stroke-width:1.0;"/></g><!--MD5=[1c521d26b07f62f1c62f7b4ad904b4ec]
link api to service--><g id="link_api_service"><path d="M482.08,74 C491.95,74 501.81,74 511.67,74 " fill="none" id="api-to-service" style="stroke:#000000;stroke-width:1.0;"/><polygon fill="#000000" points="516.83,74,507.83,70,511.83,74,507.83,78,516.83,74" style="stroke:#000000;stroke-width:1.0;"/></g><!--MD5=[ed03d9e8372767f52fa40155923214fd]
link service to store--><g id="link_service_store"><path d="M574.88,91.41 C585.2,110.46 602.33,142.1 614.34,164.28 " fill="none" id="service-to-store" style="stroke:#000000;stroke-width:1.0;"/><polygon fill="#000000" points="616.82,168.86,616.0331,159.0426,614.4308,164.4678,609.0056,162.8654,616.82,168.86" style="stroke:#000000;stroke-width:1.0;"/></g><!--MD5=[b2c3693cc77b3eda2064568fff50fa14]
link service to bootloader--><!--MD5=[00736459551cbf36f84ac77ffa3c6a29]
link bootloader to store--><g id="link_bootloader_store"><path d="M681.12,91.41 C670.8,110.46 653.67,142.1 641.66,164.28 " fill="none" id="bootloader-to-store" style="stroke:#000000;stroke-width:1.0;"/><polygon fill="#000000" points="639.18,168.86,646.9944,162.8654,641.5692,164.4678,639.9669,159.0426,639.18,168.86" style="stroke:#000000;stroke-width:1.0;"/></g><!--MD5=[466027522076a6f4dd292722ab549de4]
link bootloader to anchor--><g id="link_bootloader_anchor"><path d="M730.44,74 C740.2,74 749.95,74 759.71,74 " fill="none" id="bootloader-to-anchor" style="stroke:#000000;stroke-width:1.0;"/><polygon fill="#000000" points="764.81,74,755.81,70,759.81,74,755.81,78,764.81,74" style="stroke:#000000;stroke-width:1.0;"/></g><!--MD5=[c2aa579362803675f46289a72c8d2879]
link server to drive--><!--MD5=[b76118640a6f6a1566b71531a71b9623]
link tls to usb--><!--MD5=[74138036f02b3cbe6e83d129192b84fb]
reverse link drive to usb--><g id="link_drive_usb"><path d="M256.91,190.5 C266.94,190.5 276.97,190.5 287,190.5 " fill="none" id="drive-backto-usb" style="stroke:#000000;stroke-width:1.0;"/><polygon fill="#000000" points="251.67,190.5,260.67,194.5,256.67,190.5,260.67,186.5,251.67,190.5" style="stroke:#000000;stroke-width:1.0;"/></g><!--MD5=[d81fc795d1ad58bed17a8bde54dd15ca]
link usb to client--><g id="link_usb_client"><path d="M302.3,181.3 C315.92,163.58 348.46,121.24 368.12,95.67 " fill="none" id="usb-to-client" style="stroke:#000000;stroke-width:1.0;"/><polygon fill="#000000" points="371.39,91.41,362.7223,96.0867,368.3332,95.3667,369.0531,100.9776,371.39,91.41" style="stroke:#000000;stroke-width:1.0;"/></g></g></svg>