<?xml version="1.0" encoding="UTF-8" standalone="no"?><svg xmlns="http://www.w3.org/2000/svg" xmlns:xlink="http://www.w3.org/1999/xlink" contentStyleType="text/css" height="710px" preserveAspectRatio="none" style="width:288px;height:710px;background:#FFFFFF;" version="1.1" viewBox="0 0 288 710" width="288px" zoomAndPan="magnify"><defs/><g><rect fill="#FFFFFF" height="40" rx="12.5" ry="12.5" style="stroke:#000000;stroke-width:1.0;" width="50" x="141.5" y="7"/><text fill="#000000" font-family="Lato,sans-serif" font-size="12" lengthAdjust="spacing" textLength="40" x="146.5" y="31.6414">READY</text><rect fill="#FFFFFF" height="40" rx="12.5" ry="12.5" style="stroke:#000000;stroke-width:1.0;" width="63" x="51" y="123"/><text fill="#000000" font-family="Lato,sans-serif" font-size="12" lengthAdjust="spacing" textLength="53" x="56" y="147.6414">WRITING</text><rect fill="#FFFFFF" height="40" rx="12.5" ry="12.5" style="stroke:#000000;stroke-width:1.0;" width="79" x="43" y="239"/><text fill="#000000" font-family="Lato,sans-serif" font-size="12" lengthAdjust="spacing" textLength="69" x="48" y="263.6414">CANDIDATE</text><rect fill="#FFFFFF" height="40" rx="12.5" ry="12.5" style="stroke:#000000;stroke-width:1.0;" width="51" x="201" y="239"/><text fill="#000000" font-family="Lato,sans-serif" font-size="12" lengthAdjust="spacing" textLength="41" x="206" y="263.6414">FAILED</text><rect fill="#FFFFFF" height="40" rx="12.5" ry="12.5" style="stroke:#000000;stroke-width:1.0;" width="50" x="128.5" y="369"/><text fill="#000000" font-family="Lato,sans-serif" font-size="12" lengthAdjust="spacing" textLength="33" x="137" y="393.6414">TRIAL</text><rect fill="#FFFFFF" height="40" rx="12.5" ry="12.5" style="stroke:#000000;stroke-width:1.0;" width="66" x="120.5" y="485"/><text fill="#000000" font-family="Lato,sans-serif" font-size="12" lengthAdjust="spacing" textLength="56" x="125.5" y="509.6414">UPDATED</text><rect fill="#FFFFFF" height="40" rx="12.5" ry="12.5" style="stroke:#000000;stroke-width:1.0;" width="50" x="128.5" y="601"/><text fill="#000000" font-family="Lato,sans-serif" font-size="12" lengthAdjust="spacing" textLength="40" x="133.5" y="625.6414">READY</text><!--MD5=[c97380125423de60894e9813730c5eee]
link Start to Staging--><g id="link_Start_Staging"><path d="M152.44,47.08 C137.9,66.81 115.19,97.63 99.62,118.76 " fill="none" id="Start-to-Staging" style="stroke:#0000FF;stroke-width:1.0;"/><polygon fill="#0000FF" points="96.61,122.86,105.1714,117.9914,99.5779,118.8362,98.7332,113.2427,96.61,122.86" style="stroke:#0000FF;stroke-width:1.0;"/><text fill="#000000" font-family="Consolas,Menlo,monospace" font-size="12" lengthAdjust="spacing" textLength="35" x="131.5" y="89.9883">start</text></g><!--MD5=[0b0aafcdfecf859159d0f59d797aa148]
link Staging to Staging--><g id="link_Staging_Staging"><path d="M114.32,132.68 C132.33,130.67 149,134.11 149,143 C149,151.06 135.31,154.64 119.33,153.74 " fill="none" id="Staging-to-Staging" style="stroke:#0000FF;stroke-width:1.0;"/><polygon fill="#0000FF" points="114.32,153.32,122.9444,158.0761,119.3016,153.7482,123.6295,150.1055,114.32,153.32" style="stroke:#0000FF;stroke-width:1.0;"/><text fill="#000000" font-family="Consolas,Menlo,monospace" font-size="12" lengthAdjust="spacing" textLength="35" x="155" y="147.9883">write</text></g><!--MD5=[99c0e08106d1440140b42f50458793ab]
link Staging to Candidate--><g id="link_Staging_Candidate"><path d="M82.5,163.08 C82.5,182.48 82.5,212.61 82.5,233.7 " fill="none" id="Staging-to-Candidate" style="stroke:#0000FF;stroke-width:1.0;"/><polygon fill="#0000FF" points="82.5,238.86,86.5,229.86,82.5,233.86,78.5,229.86,82.5,238.86" style="stroke:#0000FF;stroke-width:1.0;"/><text fill="#000000" font-family="Consolas,Menlo,monospace" font-size="12" lengthAdjust="spacing" textLength="42" x="83.5" y="205.9883">finish</text></g><!--MD5=[5385c45c5e18a6878cdeccd1eaad970d]
link Staging to Failed--><g id="link_Staging_Failed"><path d="M106.6,163.08 C131.83,183.06 171.43,214.4 198.15,235.55 " fill="none" id="Staging-to-Failed" style="stroke:#0000FF;stroke-width:1.0;"/><polygon fill="#0000FF" points="202.32,238.86,197.7326,230.1448,198.3949,235.7627,192.7769,236.425,202.32,238.86" style="stroke:#0000FF;stroke-width:1.0;"/><text fill="#000000" font-family="Consolas,Menlo,monospace" font-size="12" lengthAdjust="spacing" textLength="42" x="164.5" y="205.9883">cancel</text></g><!--MD5=[6d1fd97014b2c0f8d7e9b50d4978e990]
link Candidate to Trial--><g id="link_Candidate_Trial"><path d="M84.7,279.29 C87.27,296.01 92.64,320.36 103.5,339 C109.13,348.66 117.16,357.7 125.15,365.32 " fill="none" id="Candidate-to-Trial" style="stroke:#8B0000;stroke-width:1.0;"/><polygon fill="#8B0000" points="129.06,368.94,125.1745,359.89,125.3915,365.5427,119.7388,365.7596,129.06,368.94" style="stroke:#8B0000;stroke-width:1.0;"/><text fill="#000000" font-family="Consolas,Menlo,monospace" font-size="12" lengthAdjust="spacing" textLength="49" x="113" y="322.3296">install</text><text fill="#000000" font-family="Lato,sans-serif" font-size="12" lengthAdjust="spacing" textLength="3" x="162" y="321.8375">:</text><text fill="#000000" font-family="Lato,sans-serif" font-size="12" font-style="italic" lengthAdjust="spacing" textLength="69" x="104.5" y="336.2296">install success</text></g><!--MD5=[6e8b06a321fbf587dbbb055d0b4e0f9e]
link Candidate to Failed--><g id="link_Candidate_Failed"><path d="M122.23,259 C145.5,259 174.45,259 195.94,259 " fill="none" id="Candidate-to-Failed" style="stroke:#0000FF;stroke-width:1.0;"/><polygon fill="#0000FF" points="200.95,259,191.95,255,195.95,259,191.95,263,200.95,259" style="stroke:#0000FF;stroke-width:1.0;"/><text fill="#000000" font-family="Consolas,Menlo,monospace" font-size="12" lengthAdjust="spacing" textLength="42" x="140.5" y="252.9883">cancel</text></g><!--MD5=[4d415c9b773123c37ce42f12237de1fc]
link Trial to Updated--><g id="link_Trial_Updated"><path d="M153.5,409.08 C153.5,428.48 153.5,458.61 153.5,479.7 " fill="none" id="Trial-to-Updated" style="stroke:#8B0000;stroke-width:1.0;"/><polygon fill="#8B0000" points="153.5,484.86,157.5,475.86,153.5,479.86,149.5,475.86,153.5,484.86" style="stroke:#8B0000;stroke-width:1.0;"/><text fill="#000000" font-family="Consolas,Menlo,monospace" font-size="12" lengthAdjust="spacing" textLength="42" x="154.5" y="451.9883">accept</text></g><!--MD5=[71ab68107f7e180decc84935bd3705da]
reverse link Start to Failed--><g id="link_Start_Failed"><path d="M174.8,51.95 C185.57,83.8 204.3,142.03 215.5,193 C218.87,208.31 221.78,225.85 223.76,238.85 " fill="none" id="Start-backto-Failed" style="stroke:#0000FF;stroke-width:1.0;"/><polygon fill="#0000FF" points="173.15,47.07,172.2722,56.8797,174.7654,51.8019,179.8432,54.295,173.15,47.07" style="stroke:#0000FF;stroke-width:1.0;"/><text fill="#000000" font-family="Consolas,Menlo,monospace" font-size="12" lengthAdjust="spacing" textLength="35" x="209.5" y="147.9883">clean</text></g><!--MD5=[2342b74c4d04e9b5c4d79a33eddc597c]
reverse link Failed to Trial--><g id="link_Failed_Trial"><path d="M213.06,283.57 C199.09,308.07 177.49,345.93 164.5,368.71 " fill="none" id="Failed-backto-Trial" style="stroke:#8B0000;stroke-width:1.0;"/><polygon fill="#8B0000" points="215.57,279.16,207.6421,285.0037,213.097,283.5056,214.5951,288.9605,215.57,279.16" style="stroke:#8B0000;stroke-width:1.0;"/><text fill="#000000" font-family="Consolas,Menlo,monospace" font-size="12" lengthAdjust="spacing" textLength="42" x="198.5" y="328.9883">reject</text></g><!--MD5=[43a8c4662c8a2715cf5aeba88f635b26]
link Updated to End--><g id="link_Updated_End"><path d="M153.5,525.08 C153.5,544.48 153.5,574.61 153.5,595.7 " fill="none" id="Updated-to-End" style="stroke:#0000FF;stroke-width:1.0;"/><polygon fill="#0000FF" points="153.5,600.86,157.5,591.86,153.5,595.86,149.5,591.86,153.5,600.86" style="stroke:#0000FF;stroke-width:1.0;"/><text fill="#000000" font-family="Consolas,Menlo,monospace" font-size="12" lengthAdjust="spacing" textLength="35" x="154.5" y="567.9883">clean</text></g><rect fill="#DDDDDD" height="40.7842" id="_legend" rx="7.5" ry="7.5" style="stroke:#000000;stroke-width:1.0;" width="264" x="8" y="654"/><text fill="#0000FF" font-family="Consolas,Menlo,monospace" font-size="12" lengthAdjust="spacing" text-decoration="line-through" textLength="21" x="14" y="672.3296">———</text><text fill="#000000" font-family="Lato,sans-serif" font-size="12" lengthAdjust="spacing" textLength="229" x="37" y="671.8375">Blue transitions apply to a single component</text><text fill="#8B0000" font-family="Consolas,Menlo,monospace" font-size="12" lengthAdjust="spacing" text-decoration="line-through" textLength="21" x="14" y="686.7217">———</text><text fill="#000000" font-family="Lato,sans-serif" font-size="12" lengthAdjust="spacing" textLength="208" x="37" y="686.2296">Red transitions apply to all compoments</text></g></svg>