<svg xmlns="http://www.w3.org/2000/svg" xmlns:xlink="http://www.w3.org/1999/xlink" contentStyleType="text/css" data-diagram-type="STATE" height="681px" preserveAspectRatio="none" style="width:320px;height:681px;background:#FFFFFF55;" version="1.1" viewBox="0 0 320 681" width="320px" zoomAndPan="magnify"><defs/><g><rect fill="#FFFFFF" fill-opacity="0.33333" height="681" style="stroke:none;stroke-width:1;" width="320" x="0" y="0"/><rect fill="#FFFFFF" height="40" rx="4" ry="4" style="stroke:#000000;stroke-width:1;" width="50" x="130.15" y="7"/><text fill="#000000" font-family="Lato,sans-serif" font-size="12" lengthAdjust="spacing" textLength="39.186" x="135.557" y="31.644">READY</text><rect fill="#FFFFFF" height="40" rx="4" ry="4" style="stroke:#000000;stroke-width:1;" width="71.71" x="36.3" y="121"/><text fill="#000000" font-family="Lato,sans-serif" font-size="12" lengthAdjust="spacing" textLength="61.71" x="41.3" y="145.644">WRITING &#8224;</text><rect fill="#FFFFFF" height="40" rx="4" ry="4" style="stroke:#000000;stroke-width:1;" width="89.086" x="27.61" y="235"/><text fill="#000000" font-family="Lato,sans-serif" font-size="12" lengthAdjust="spacing" textLength="79.086" x="32.61" y="259.644">CANDIDATE &#8224;</text><rect fill="#FFFFFF" height="40" rx="4" ry="4" style="stroke:#000000;stroke-width:1;" width="60.52" x="188.89" y="235"/><text fill="#000000" font-family="Lato,sans-serif" font-size="12" lengthAdjust="spacing" textLength="50.52" x="193.89" y="259.644">FAILED &#8225;</text><rect fill="#FFFFFF" height="40" rx="4" ry="4" style="stroke:#000000;stroke-width:1;" width="50.422" x="119.94" y="365"/><text fill="#000000" font-family="Lato,sans-serif" font-size="12" lengthAdjust="spacing" textLength="40.422" x="124.94" y="389.644">TRIAL *</text><rect fill="#FFFFFF" height="40" rx="4" ry="4" style="stroke:#000000;stroke-width:1;" width="76.456" x="106.92" y="479"/><text fill="#000000" font-family="Lato,sans-serif" font-size="12" lengthAdjust="spacing" textLength="66.456" x="111.92" y="503.644">UPDATED &#8225;</text><rect fill="#FFFFFF" height="40" rx="4" ry="4" style="stroke:#000000;stroke-width:1;" width="50" x="250.15" y="479"/><text fill="#000000" font-family="Lato,sans-serif" font-size="12" lengthAdjust="spacing" textLength="39.186" x="255.557" y="503.644">READY</text><!--link Start to Writing--><g class="link" data-entity-1="Start" data-entity-2="Writing" data-source-line="30" data-uid="lnk2" id="link_Start_Writing"><path d="M140.88,47.25 C125.68,67.77 105.3229,95.2398 90.0829,115.7998" fill="none" id="Start-to-Writing" style="stroke:#0000FF;stroke-width:1;"/><polygon fill="#0000FF" points="86.51,120.62,95.0829,115.7717,89.4874,116.6032,88.656,111.0078,86.51,120.62" style="stroke:#0000FF;stroke-width:1;"/><text fill="#000000" font-family="Inconsolata,monospace" font-size="12" lengthAdjust="spacing" textLength="30" x="119.62" y="88.308">start</text></g><!--link Writing to Writing--><g class="link" data-entity-1="Writing" data-entity-2="Writing" data-source-line="31" data-uid="lnk3" id="link_Writing_Writing"><path d="M108.25,130.66 C126.57,129.15 143.01,132.59 143.01,141 C143.01,149.41 132.5497,153.3429 114.2297,151.8329" fill="none" id="Writing-to-Writing" style="stroke:#0000FF;stroke-width:1;"/><polygon fill="#0000FF" points="108.25,151.34,116.891,156.0658,113.2331,151.7507,117.5482,148.0928,108.25,151.34" style="stroke:#0000FF;stroke-width:1;"/><text fill="#000000" font-family="Inconsolata,monospace" font-size="12" lengthAdjust="spacing" textLength="30" x="149.01" y="145.308">write</text></g><!--link Writing to Candidate--><g class="link" data-entity-1="Writing" data-entity-2="Candidate" data-source-line="32" data-uid="lnk4" id="link_Writing_Candidate"><path d="M72.15,161.25 C72.15,181.77 72.15,208.06 72.15,228.62" fill="none" id="Writing-to-Candidate" style="stroke:#0000FF;stroke-width:1;"/><polygon fill="#0000FF" points="72.15,234.62,76.15,225.62,72.15,229.62,68.15,225.62,72.15,234.62" style="stroke:#0000FF;stroke-width:1;"/><text fill="#000000" font-family="Inconsolata,monospace" font-size="12" lengthAdjust="spacing" textLength="36" x="73.15" y="202.308">finish</text></g><!--link Writing to Failed--><g class="link" data-entity-1="Writing" data-entity-2="Failed" data-source-line="33" data-uid="lnk5" id="link_Writing_Failed"><path d="M97.42,161.25 C124.35,181.77 161.9571,210.4242 188.9471,230.9842" fill="none" id="Writing-to-Failed" style="stroke:#0000FF;stroke-width:1;"/><polygon fill="#0000FF" points="193.72,234.62,188.9845,225.9843,189.7426,231.5901,184.1367,232.3482,193.72,234.62" style="stroke:#0000FF;stroke-width:1;"/><text fill="#000000" font-family="Inconsolata,monospace" font-size="12" lengthAdjust="spacing" textLength="36" x="155.45" y="202.308">cancel</text></g><!--link Candidate to Trial--><g class="link" data-entity-1="Candidate" data-entity-2="Trial" data-source-line="34" data-uid="lnk6" id="link_Candidate_Trial"><path d="M75.27,275.27 C78.59,291.97 84.95,316.31 96.15,335 C102.71,345.94 107.8473,352.1329 116.7573,360.4229" fill="none" id="Candidate-to-Trial" style="stroke:#8B0000;stroke-width:1;"/><polygon fill="#8B0000" points="121.15,364.51,117.2856,355.4509,117.4894,361.1041,111.8362,361.3079,121.15,364.51" style="stroke:#8B0000;stroke-width:1;"/><text fill="#000000" font-family="Inconsolata,monospace" font-size="12" lengthAdjust="spacing" textLength="42" x="109.609" y="318.12">install</text><text fill="#000000" font-family="Lato,sans-serif" font-size="12" lengthAdjust="spacing" textLength="3" x="151.609" y="317.844">:</text><text fill="#000000" font-family="Lato,sans-serif" font-size="12" font-style="italic" lengthAdjust="spacing" textLength="69.918" x="97.15" y="332.244">install success</text></g><!--link Candidate to Failed--><g class="link" data-entity-1="Candidate" data-entity-2="Failed" data-source-line="35" data-uid="lnk7" id="link_Candidate_Failed"><path d="M117.06,255 C140.19,255 161.8,255 182.48,255" fill="none" id="Candidate-to-Failed" style="stroke:#0000FF;stroke-width:1;"/><polygon fill="#0000FF" points="188.48,255,179.48,251,183.48,255,179.48,259,188.48,255" style="stroke:#0000FF;stroke-width:1;"/><text fill="#000000" font-family="Inconsolata,monospace" font-size="12" lengthAdjust="spacing" textLength="36" x="134.79" y="249.308">cancel</text></g><!--link Trial to Updated--><g class="link" data-entity-1="Trial" data-entity-2="Updated" data-source-line="37" data-uid="lnk8" id="link_Trial_Updated"><path d="M145.15,405.25 C145.15,425.77 145.15,452.06 145.15,472.62" fill="none" id="Trial-to-Updated" style="stroke:#8B0000;stroke-width:1;"/><polygon fill="#8B0000" points="145.15,478.62,149.15,469.62,145.15,473.62,141.15,469.62,145.15,478.62" style="stroke:#8B0000;stroke-width:1;"/><text fill="#000000" font-family="Inconsolata,monospace" font-size="12" lengthAdjust="spacing" textLength="36" x="146.15" y="446.308">accept</text></g><!--reverse link Start to Failed--><g class="link" data-entity-1="Start" data-entity-2="Failed" data-source-line="39" data-uid="lnk10" id="link_Start_Failed"><path d="M163.7474,53.1754 C170.0674,71.9154 177.76,95.41 185.15,121 C196.73,161.07 208.36,208.51 214.57,234.52" fill="none" id="Start-backto-Failed" style="stroke:#0000FF;stroke-width:1;"/><polygon fill="#0000FF" points="161.83,47.49,160.9158,57.2963,163.4278,52.2278,168.4963,54.7398,161.83,47.49" style="stroke:#0000FF;stroke-width:1;"/><text fill="#000000" font-family="Inconsolata,monospace" font-size="12" lengthAdjust="spacing" textLength="30" x="196.73" y="145.308">clean</text></g><!--reverse link Failed to Trial--><g class="link" data-entity-1="Failed" data-entity-2="Trial" data-source-line="40" data-uid="lnk12" id="link_Failed_Trial"><path d="M204.9071,280.6345 C190.9171,304.8345 170.18,340.71 156.26,364.8" fill="none" id="Failed-backto-Trial" style="stroke:#8B0000;stroke-width:1;"/><polygon fill="#8B0000" points="207.91,275.44,199.9427,281.2298,205.4076,279.7687,206.8686,285.2336,207.91,275.44" style="stroke:#8B0000;stroke-width:1;"/><text fill="#000000" font-family="Inconsolata,monospace" font-size="12" lengthAdjust="spacing" textLength="36" x="189.78" y="324.308">reject</text></g><!--link Updated to End--><g class="link" data-entity-1="Updated" data-entity-2="End" data-source-line="42" data-uid="lnk13" id="link_Updated_End"><path d="M183.81,499 C205.21,499 225.21,499 243.98,499" fill="none" id="Updated-to-End" style="stroke:#0000FF;stroke-width:1;"/><polygon fill="#0000FF" points="249.98,499,240.98,495,244.98,499,240.98,503,249.98,499" style="stroke:#0000FF;stroke-width:1;"/><text fill="#000000" font-family="Inconsolata,monospace" font-size="12" lengthAdjust="spacing" textLength="30" x="201.77" y="493.308">clean</text></g><rect fill="#E8E8E8" height="125.2" rx="4" ry="4" style="stroke:#000000;stroke-width:1;" width="288.76" x="12" y="536"/><text fill="#000000" font-family="Lato,sans-serif" font-size="12" font-weight="bold" lengthAdjust="spacing" textLength="59.304" x="17" y="552.844">Transitions</text><text fill="#0000FF" font-family="Inconsolata,monospace" font-size="12" lengthAdjust="spacing" text-decoration="line-through" textLength="18" x="17" y="567.52">&#8212;&#8212;&#8212;</text><text fill="#000000" font-family="Lato,sans-serif" font-size="12" lengthAdjust="spacing" textLength="158.322" x="38.072" y="567.244">Applies to a single component</text><text fill="#8B0000" font-family="Inconsolata,monospace" font-size="12" lengthAdjust="spacing" text-decoration="line-through" textLength="18" x="17" y="581.92">&#8212;&#8212;&#8212;</text><text fill="#000000" font-family="Lato,sans-serif" font-size="12" lengthAdjust="spacing" textLength="135.93" x="38.072" y="581.644">Applies to all components</text><text fill="#000000" font-family="Lato,sans-serif" font-size="12" lengthAdjust="spacing" textLength="3.072" x="17" y="596.044">&#160;</text><text fill="#000000" font-family="Lato,sans-serif" font-size="12" font-weight="bold" lengthAdjust="spacing" textLength="76.092" x="17" y="610.444">Volatile states</text><text fill="#000000" font-family="Inconsolata,monospace" font-size="12" lengthAdjust="spacing" textLength="6" x="23" y="625.12">*</text><text fill="#000000" font-family="Lato,sans-serif" font-size="12" lengthAdjust="spacing" textLength="40.728" x="38.072" y="624.844">Always:</text><text fill="#000000" font-family="Lato,sans-serif" font-size="12" font-weight="bold" lengthAdjust="spacing" textLength="35.946" x="81.872" y="624.844">reboot</text><text fill="#000000" font-family="Lato,sans-serif" font-size="12" lengthAdjust="spacing" textLength="80.274" x="120.89" y="624.844">is equivalent to</text><text fill="#000000" font-family="Inconsolata,monospace" font-size="12" lengthAdjust="spacing" textLength="36" x="204.236" y="625.12">reject</text><text fill="#000000" font-family="Lato,sans-serif" font-size="12" lengthAdjust="spacing" textLength="19.38" x="243.308" y="624.844">and</text><text fill="#000000" font-family="Inconsolata,monospace" font-size="12" lengthAdjust="spacing" textLength="30" x="265.76" y="625.12">clean</text><text fill="#000000" font-family="Inconsolata,monospace" font-size="12" lengthAdjust="spacing" textLength="6" x="23" y="639.52">&#8224;</text><text fill="#000000" font-family="Lato,sans-serif" font-size="12" lengthAdjust="spacing" textLength="40.728" x="38.072" y="639.244">Always:</text><text fill="#000000" font-family="Lato,sans-serif" font-size="12" font-weight="bold" lengthAdjust="spacing" textLength="35.946" x="81.872" y="639.244">reboot</text><text fill="#000000" font-family="Lato,sans-serif" font-size="12" lengthAdjust="spacing" textLength="80.274" x="120.89" y="639.244">is equivalent to</text><text fill="#000000" font-family="Inconsolata,monospace" font-size="12" lengthAdjust="spacing" textLength="36" x="204.236" y="639.52">cancel</text><text fill="#000000" font-family="Lato,sans-serif" font-size="12" lengthAdjust="spacing" textLength="19.38" x="243.308" y="639.244">and</text><text fill="#000000" font-family="Inconsolata,monospace" font-size="12" lengthAdjust="spacing" textLength="30" x="265.76" y="639.52">clean</text><text fill="#000000" font-family="Inconsolata,monospace" font-size="12" lengthAdjust="spacing" textLength="6" x="23" y="653.92">&#8225;</text><text fill="#000000" font-family="Lato,sans-serif" font-size="12" lengthAdjust="spacing" textLength="40.728" x="38.072" y="653.644">Always:</text><text fill="#000000" font-family="Lato,sans-serif" font-size="12" font-weight="bold" lengthAdjust="spacing" textLength="35.946" x="81.872" y="653.644">reboot</text><text fill="#000000" font-family="Lato,sans-serif" font-size="12" lengthAdjust="spacing" textLength="80.274" x="120.89" y="653.644">is equivalent to</text><text fill="#000000" font-family="Inconsolata,monospace" font-size="12" lengthAdjust="spacing" textLength="30" x="204.236" y="653.92">clean</text></g></svg>