<svg xmlns="http://www.w3.org/2000/svg" xmlns:xlink="http://www.w3.org/1999/xlink" contentStyleType="text/css" data-diagram-type="STATE" height="552px" preserveAspectRatio="none" style="width:320px;height:552px;background:#FFFFFF55;" version="1.1" viewBox="0 0 320 552" width="320px" zoomAndPan="magnify"><defs/><g><rect fill="#FFFFFF" fill-opacity="0.33333" height="552" style="stroke:none;stroke-width:1;" width="320" x="0" y="0"/><rect fill="#FFFFFF" height="40" rx="4" ry="4" style="stroke:#000000;stroke-width:1;" width="50" x="155.52" y="7"/><text fill="#000000" font-family="Lato,sans-serif" font-size="12" lengthAdjust="spacing" textLength="39.186" x="160.927" y="31.644">READY</text><rect fill="#FFFFFF" height="40" rx="4" ry="4" style="stroke:#000000;stroke-width:1;" width="71.71" x="61.67" y="121"/><text fill="#000000" font-family="Lato,sans-serif" font-size="12" lengthAdjust="spacing" textLength="61.71" x="66.67" y="145.644">WRITING &#8224;</text><rect fill="#FFFFFF" height="40" rx="4" ry="4" style="stroke:#000000;stroke-width:1;" width="89.086" x="52.98" y="235"/><text fill="#000000" font-family="Lato,sans-serif" font-size="12" lengthAdjust="spacing" textLength="79.086" x="57.98" y="259.644">CANDIDATE &#8224;</text><rect fill="#FFFFFF" height="40" rx="4" ry="4" style="stroke:#000000;stroke-width:1;" width="60.52" x="214.26" y="235"/><text fill="#000000" font-family="Lato,sans-serif" font-size="12" lengthAdjust="spacing" textLength="50.52" x="219.26" y="259.644">FAILED &#8225;</text><rect fill="#FFFFFF" height="40" rx="4" ry="4" style="stroke:#000000;stroke-width:1;" width="76.456" x="59.29" y="365"/><text fill="#000000" font-family="Lato,sans-serif" font-size="12" lengthAdjust="spacing" textLength="66.456" x="64.29" y="389.644">UPDATED &#8225;</text><rect fill="#FFFFFF" height="40" rx="4" ry="4" style="stroke:#000000;stroke-width:1;" width="50" x="202.52" y="365"/><text fill="#000000" font-family="Lato,sans-serif" font-size="12" lengthAdjust="spacing" textLength="39.186" x="207.927" y="389.644">READY</text><!--link Start to Writing--><g class="link" data-entity-1="Start" data-entity-2="Writing" data-source-line="27" data-uid="lnk2" id="link_Start_Writing"><path d="M166.25,47.25 C151.05,67.77 130.6929,95.2398 115.4529,115.7998" fill="none" id="Start-to-Writing" style="stroke:#0000FF;stroke-width:1;"/><polygon fill="#0000FF" points="111.88,120.62,120.4529,115.7717,114.8574,116.6032,114.026,111.0078,111.88,120.62" style="stroke:#0000FF;stroke-width:1;"/><text fill="#000000" font-family="Inconsolata,monospace" font-size="12" lengthAdjust="spacing" textLength="30" x="144.99" y="88.308">start</text></g><!--link Writing to Writing--><g class="link" data-entity-1="Writing" data-entity-2="Writing" data-source-line="28" data-uid="lnk3" id="link_Writing_Writing"><path d="M133.62,130.66 C151.94,129.15 168.38,132.59 168.38,141 C168.38,149.41 157.9197,153.3429 139.5997,151.8329" fill="none" id="Writing-to-Writing" style="stroke:#0000FF;stroke-width:1;"/><polygon fill="#0000FF" points="133.62,151.34,142.261,156.0658,138.6031,151.7507,142.9182,148.0928,133.62,151.34" style="stroke:#0000FF;stroke-width:1;"/><text fill="#000000" font-family="Inconsolata,monospace" font-size="12" lengthAdjust="spacing" textLength="30" x="174.38" y="145.308">write</text></g><!--link Writing to Candidate--><g class="link" data-entity-1="Writing" data-entity-2="Candidate" data-source-line="29" data-uid="lnk4" id="link_Writing_Candidate"><path d="M97.52,161.25 C97.52,181.77 97.52,208.06 97.52,228.62" fill="none" id="Writing-to-Candidate" style="stroke:#0000FF;stroke-width:1;"/><polygon fill="#0000FF" points="97.52,234.62,101.52,225.62,97.52,229.62,93.52,225.62,97.52,234.62" style="stroke:#0000FF;stroke-width:1;"/><text fill="#000000" font-family="Inconsolata,monospace" font-size="12" lengthAdjust="spacing" textLength="36" x="98.52" y="202.308">finish</text></g><!--link Writing to Failed--><g class="link" data-entity-1="Writing" data-entity-2="Failed" data-source-line="30" data-uid="lnk5" id="link_Writing_Failed"><path d="M122.79,161.25 C149.72,181.77 187.3271,210.4242 214.3171,230.9842" fill="none" id="Writing-to-Failed" style="stroke:#0000FF;stroke-width:1;"/><polygon fill="#0000FF" points="219.09,234.62,214.3545,225.9843,215.1126,231.5901,209.5067,232.3482,219.09,234.62" style="stroke:#0000FF;stroke-width:1;"/><text fill="#000000" font-family="Inconsolata,monospace" font-size="12" lengthAdjust="spacing" textLength="36" x="180.82" y="202.308">cancel</text></g><!--link Candidate to Updated--><g class="link" data-entity-1="Candidate" data-entity-2="Updated" data-source-line="31" data-uid="lnk6" id="link_Candidate_Updated"><path d="M97.52,275.44 C97.52,299.64 97.52,334.71 97.52,358.8" fill="none" id="Candidate-to-Updated" style="stroke:#8B0000;stroke-width:1;"/><polygon fill="#8B0000" points="97.52,364.8,101.52,355.8,97.52,359.8,93.52,355.8,97.52,364.8" style="stroke:#8B0000;stroke-width:1;"/><text fill="#000000" font-family="Inconsolata,monospace" font-size="12" lengthAdjust="spacing" textLength="42" x="110.979" y="318.12">install</text><text fill="#000000" font-family="Lato,sans-serif" font-size="12" lengthAdjust="spacing" textLength="3" x="152.979" y="317.844">:</text><text fill="#000000" font-family="Lato,sans-serif" font-size="12" font-style="italic" lengthAdjust="spacing" textLength="69.918" x="98.52" y="332.244">install success</text></g><!--link Candidate to Failed--><g class="link" data-entity-1="Candidate" data-entity-2="Failed" data-source-line="32" data-uid="lnk7" id="link_Candidate_Failed"><path d="M142.43,255 C165.56,255 187.17,255 207.85,255" fill="none" id="Candidate-to-Failed" style="stroke:#0000FF;stroke-width:1;"/><polygon fill="#0000FF" points="213.85,255,204.85,251,208.85,255,204.85,259,213.85,255" style="stroke:#0000FF;stroke-width:1;"/><text fill="#000000" font-family="Inconsolata,monospace" font-size="12" lengthAdjust="spacing" textLength="36" x="160.16" y="249.308">cancel</text></g><!--reverse link Start to Failed--><g class="link" data-entity-1="Start" data-entity-2="Failed" data-source-line="34" data-uid="lnk9" id="link_Start_Failed"><path d="M189.1174,53.1754 C195.4374,71.9154 203.13,95.41 210.52,121 C222.1,161.07 233.73,208.51 239.94,234.52" fill="none" id="Start-backto-Failed" style="stroke:#0000FF;stroke-width:1;"/><polygon fill="#0000FF" points="187.2,47.49,186.2858,57.2963,188.7978,52.2278,193.8663,54.7398,187.2,47.49" style="stroke:#0000FF;stroke-width:1;"/><text fill="#000000" font-family="Inconsolata,monospace" font-size="12" lengthAdjust="spacing" textLength="30" x="222.1" y="145.308">clean</text></g><!--link Updated to End--><g class="link" data-entity-1="Updated" data-entity-2="End" data-source-line="36" data-uid="lnk10" id="link_Updated_End"><path d="M136.18,385 C157.58,385 177.58,385 196.35,385" fill="none" id="Updated-to-End" style="stroke:#0000FF;stroke-width:1;"/><polygon fill="#0000FF" points="202.35,385,193.35,381,197.35,385,193.35,389,202.35,385" style="stroke:#0000FF;stroke-width:1;"/><text fill="#000000" font-family="Inconsolata,monospace" font-size="12" lengthAdjust="spacing" textLength="30" x="154.14" y="379.308">clean</text></g><rect fill="#E8E8E8" height="110.8" rx="4" ry="4" style="stroke:#000000;stroke-width:1;" width="288.76" x="12" y="422"/><text fill="#000000" font-family="Lato,sans-serif" font-size="12" font-weight="bold" lengthAdjust="spacing" textLength="59.304" x="17" y="438.844">Transitions</text><text fill="#0000FF" font-family="Inconsolata,monospace" font-size="12" lengthAdjust="spacing" text-decoration="line-through" textLength="18" x="17" y="453.52">&#8212;&#8212;&#8212;</text><text fill="#000000" font-family="Lato,sans-serif" font-size="12" lengthAdjust="spacing" textLength="158.322" x="38.072" y="453.244">Applies to a single component</text><text fill="#8B0000" font-family="Inconsolata,monospace" font-size="12" lengthAdjust="spacing" text-decoration="line-through" textLength="18" x="17" y="467.92">&#8212;&#8212;&#8212;</text><text fill="#000000" font-family="Lato,sans-serif" font-size="12" lengthAdjust="spacing" textLength="135.93" x="38.072" y="467.644">Applies to all components</text><text fill="#000000" font-family="Lato,sans-serif" font-size="12" lengthAdjust="spacing" textLength="3.072" x="17" y="482.044">&#160;</text><text fill="#000000" font-family="Lato,sans-serif" font-size="12" font-weight="bold" lengthAdjust="spacing" textLength="76.092" x="17" y="496.444">Volatile states</text><text fill="#000000" font-family="Inconsolata,monospace" font-size="12" lengthAdjust="spacing" textLength="6" x="23" y="511.12">&#8224;</text><text fill="#000000" font-family="Lato,sans-serif" font-size="12" lengthAdjust="spacing" textLength="40.728" x="38.072" y="510.844">Always:</text><text fill="#000000" font-family="Lato,sans-serif" font-size="12" font-weight="bold" lengthAdjust="spacing" textLength="35.946" x="81.872" y="510.844">reboot</text><text fill="#000000" font-family="Lato,sans-serif" font-size="12" lengthAdjust="spacing" textLength="80.274" x="120.89" y="510.844">is equivalent to</text><text fill="#000000" font-family="Inconsolata,monospace" font-size="12" lengthAdjust="spacing" textLength="36" x="204.236" y="511.12">cancel</text><text fill="#000000" font-family="Lato,sans-serif" font-size="12" lengthAdjust="spacing" textLength="19.38" x="243.308" y="510.844">and</text><text fill="#000000" font-family="Inconsolata,monospace" font-size="12" lengthAdjust="spacing" textLength="30" x="265.76" y="511.12">clean</text><text fill="#000000" font-family="Inconsolata,monospace" font-size="12" lengthAdjust="spacing" textLength="6" x="23" y="525.52">&#8225;</text><text fill="#000000" font-family="Lato,sans-serif" font-size="12" lengthAdjust="spacing" textLength="40.728" x="38.072" y="525.244">Always:</text><text fill="#000000" font-family="Lato,sans-serif" font-size="12" font-weight="bold" lengthAdjust="spacing" textLength="35.946" x="81.872" y="525.244">reboot</text><text fill="#000000" font-family="Lato,sans-serif" font-size="12" lengthAdjust="spacing" textLength="80.274" x="120.89" y="525.244">is equivalent to</text><text fill="#000000" font-family="Inconsolata,monospace" font-size="12" lengthAdjust="spacing" textLength="30" x="204.236" y="525.52">clean</text></g></svg>