<svg xmlns="http://www.w3.org/2000/svg" xmlns:xlink="http://www.w3.org/1999/xlink" contentStyleType="text/css" data-diagram-type="STATE" height="581px" preserveAspectRatio="none" style="width:320px;height:581px;background:#FFFFFF55;" version="1.1" viewBox="0 0 320 581" width="320px" zoomAndPan="magnify"><defs/><g><rect fill="#FFFFFF" fill-opacity="0.33333" height="581" style="stroke:none;stroke-width:1;" width="320" x="0" y="0"/><rect fill="#FFFFFF" height="40" rx="4" ry="4" style="stroke:#000000;stroke-width:1;" width="50" x="77.63" y="7"/><text fill="#000000" font-family="Lato,sans-serif" font-size="12" lengthAdjust="spacing" textLength="39.186" x="83.037" y="31.644">READY</text><rect fill="#FFFFFF" height="40" rx="4" ry="4" style="stroke:#000000;stroke-width:1;" width="71.71" x="66.77" y="121"/><text fill="#000000" font-family="Lato,sans-serif" font-size="12" lengthAdjust="spacing" textLength="61.71" x="71.77" y="145.644">WRITING &#8224;</text><rect fill="#FFFFFF" height="40" rx="4" ry="4" style="stroke:#000000;stroke-width:1;" width="89.086" x="63.08" y="251"/><text fill="#000000" font-family="Lato,sans-serif" font-size="12" lengthAdjust="spacing" textLength="79.086" x="68.08" y="275.644">CANDIDATE &#8224;</text><rect fill="#FFFFFF" height="40" rx="4" ry="4" style="stroke:#000000;stroke-width:1;" width="64.714" x="75.27" y="365"/><text fill="#000000" font-family="Lato,sans-serif" font-size="12" lengthAdjust="spacing" textLength="54.714" x="80.27" y="389.644">STAGED *</text><rect fill="#FFFFFF" height="40" rx="4" ry="4" style="stroke:#000000;stroke-width:1;" width="60.52" x="224.37" y="251"/><text fill="#000000" font-family="Lato,sans-serif" font-size="12" lengthAdjust="spacing" textLength="50.52" x="229.37" y="275.644">FAILED &#8225;</text><rect fill="#FFFFFF" height="40" rx="4" ry="4" style="stroke:#000000;stroke-width:1;" width="50" x="245.63" y="365"/><text fill="#000000" font-family="Lato,sans-serif" font-size="12" lengthAdjust="spacing" textLength="39.186" x="251.037" y="389.644">READY</text><!--link Start to Writing--><g class="link" data-entity-1="Start" data-entity-2="Writing" data-source-line="29" data-uid="lnk2" id="link_Start_Writing"><path d="M102.63,47.25 C102.63,67.77 102.63,94.06 102.63,114.62" fill="none" id="Start-to-Writing" style="stroke:#0000FF;stroke-width:1;"/><polygon fill="#0000FF" points="102.63,120.62,106.63,111.62,102.63,115.62,98.63,111.62,102.63,120.62" style="stroke:#0000FF;stroke-width:1;"/><text fill="#000000" font-family="Inconsolata,monospace" font-size="12" lengthAdjust="spacing" textLength="30" x="103.63" y="88.308">start</text></g><!--link Writing to Writing--><g class="link" data-entity-1="Writing" data-entity-2="Writing" data-source-line="30" data-uid="lnk3" id="link_Writing_Writing"><path d="M138.72,130.66 C157.05,129.15 173.48,132.59 173.48,141 C173.48,149.41 163.0297,153.3426 144.6997,151.8326" fill="none" id="Writing-to-Writing" style="stroke:#0000FF;stroke-width:1;"/><polygon fill="#0000FF" points="138.72,151.34,147.3612,156.0654,143.7031,151.7505,148.018,148.0924,138.72,151.34" style="stroke:#0000FF;stroke-width:1;"/><text fill="#000000" font-family="Inconsolata,monospace" font-size="12" lengthAdjust="spacing" textLength="30" x="179.48" y="145.308">write</text></g><!--link Writing to Candidate--><g class="link" data-entity-1="Writing" data-entity-2="Candidate" data-source-line="31" data-uid="lnk4" id="link_Writing_Candidate"><path d="M103.38,161.44 C104.33,185.64 105.6961,220.7146 106.6361,244.8046" fill="none" id="Writing-to-Candidate" style="stroke:#0000FF;stroke-width:1;"/><polygon fill="#0000FF" points="106.87,250.8,110.516,241.6509,106.6751,245.8038,102.5221,241.9628,106.87,250.8" style="stroke:#0000FF;stroke-width:1;"/><text fill="#000000" font-family="Inconsolata,monospace" font-size="12" lengthAdjust="spacing" textLength="36" x="106.57" y="210.308">finish</text></g><!--link Writing to Failed--><g class="link" data-entity-1="Writing" data-entity-2="Failed" data-source-line="32" data-uid="lnk5" id="link_Writing_Failed"><path d="M125.71,161.44 C154.45,185.64 198.631,222.8446 227.231,246.9346" fill="none" id="Writing-to-Failed" style="stroke:#0000FF;stroke-width:1;"/><polygon fill="#0000FF" points="231.82,250.8,227.5134,241.9426,227.9958,247.5789,222.3596,248.0613,231.82,250.8" style="stroke:#0000FF;stroke-width:1;"/><text fill="#000000" font-family="Inconsolata,monospace" font-size="12" lengthAdjust="spacing" textLength="36" x="193.24" y="210.308">cancel</text></g><!--link Candidate to Failed--><g class="link" data-entity-1="Candidate" data-entity-2="Failed" data-source-line="33" data-uid="lnk6" id="link_Candidate_Failed"><path d="M152.53,271 C175.66,271 197.28,271 217.95,271" fill="none" id="Candidate-to-Failed" style="stroke:#0000FF;stroke-width:1;"/><polygon fill="#0000FF" points="223.95,271,214.95,267,218.95,271,214.95,275,223.95,271" style="stroke:#0000FF;stroke-width:1;"/><text fill="#000000" font-family="Inconsolata,monospace" font-size="12" lengthAdjust="spacing" textLength="36" x="170.27" y="265.308">cancel</text></g><!--link Candidate to Staged--><g class="link" data-entity-1="Candidate" data-entity-2="Staged" data-source-line="34" data-uid="lnk7" id="link_Candidate_Staged"><path d="M107.63,291.25 C107.63,311.77 107.63,338.06 107.63,358.62" fill="none" id="Candidate-to-Staged" style="stroke:#8B0000;stroke-width:1;"/><polygon fill="#8B0000" points="107.63,364.62,111.63,355.62,107.63,359.62,103.63,355.62,107.63,364.62" style="stroke:#8B0000;stroke-width:1;"/><text fill="#000000" font-family="Inconsolata,monospace" font-size="12" lengthAdjust="spacing" textLength="42" x="108.63" y="332.308">install</text></g><!--link Staged to End--><g class="link" data-entity-1="Staged" data-entity-2="End" data-source-line="36" data-uid="lnk8" id="link_Staged_End"><path d="M140.22,385 C171.16,385 211.01,385 239.3,385" fill="none" id="Staged-to-End" style="stroke:#8B0000;stroke-width:1;stroke-dasharray:7.0,7.0;"/><polygon fill="#8B0000" points="245.3,385,236.3,381,240.3,385,236.3,389,245.3,385" style="stroke:#8B0000;stroke-width:1;"/><text fill="#000000" font-family="Lato,sans-serif" font-size="12" font-weight="bold" lengthAdjust="spacing" textLength="35.946" x="173.786" y="364.844">reboot</text><text fill="#000000" font-family="Lato,sans-serif" font-size="12" lengthAdjust="spacing" textLength="3" x="209.732" y="364.844">:</text><text fill="#000000" font-family="Lato,sans-serif" font-size="12" font-style="italic" lengthAdjust="spacing" textLength="69.918" x="158.3" y="379.244">install success</text></g><!--reverse link Start to Staged--><g class="link" data-entity-1="Start" data-entity-2="Staged" data-source-line="37" data-uid="lnk10" id="link_Start_Staged"><path d="M85.8772,52.4491 C73.8572,70.6791 59.89,94.09 49.63,121 C33.6,162.99 31.13,176.19 34.63,221 C37.08,252.4 34.18,261.66 45.63,291 C56.49,318.84 76.72,346.84 91.11,364.73" fill="none" id="Start-backto-Staged" style="stroke:#8B0000;stroke-width:1;stroke-dasharray:7.0,7.0;"/><polygon fill="#8B0000" points="89.18,47.44,80.8864,52.7519,86.4277,51.6143,87.5652,57.1556,89.18,47.44" style="stroke:#8B0000;stroke-width:1;"/><text fill="#000000" font-family="Lato,sans-serif" font-size="12" font-weight="bold" lengthAdjust="spacing" textLength="35.946" x="46.178" y="203.844">reboot</text><text fill="#000000" font-family="Lato,sans-serif" font-size="12" lengthAdjust="spacing" textLength="3" x="82.124" y="203.844">:</text><text fill="#000000" font-family="Lato,sans-serif" font-size="12" font-style="italic" lengthAdjust="spacing" textLength="60.042" x="35.63" y="218.244">install failed</text></g><!--reverse link Failed to Staged--><g class="link" data-entity-1="Failed" data-entity-2="Staged" data-source-line="38" data-uid="lnk12" id="link_Failed_Staged"><path d="M224.5782,294.8873 C197.6582,315.4073 160.04,344.06 133.06,364.62" fill="none" id="Failed-backto-Staged" style="stroke:#8B0000;stroke-width:1;"/><polygon fill="#8B0000" points="229.35,291.25,219.7675,293.5248,225.3735,294.2811,224.6172,299.8872,229.35,291.25" style="stroke:#8B0000;stroke-width:1;"/><text fill="#000000" font-family="Inconsolata,monospace" font-size="12" lengthAdjust="spacing" textLength="36" x="190.93" y="332.308">reject</text></g><!--reverse link Start to Failed--><g class="link" data-entity-1="Start" data-entity-2="Failed" data-source-line="40" data-uid="lnk14" id="link_Start_Failed"><path d="M132.8138,45.8726 C158.3838,62.0126 192.39,87.02 215.63,121 C243.4,161.61 251.4,220.82 253.7,250.91" fill="none" id="Start-backto-Failed" style="stroke:#0000FF;stroke-width:1;"/><polygon fill="#0000FF" points="127.74,42.67,133.2156,50.8564,131.9682,45.3388,137.4858,44.0914,127.74,42.67" style="stroke:#0000FF;stroke-width:1;"/><text fill="#000000" font-family="Inconsolata,monospace" font-size="12" lengthAdjust="spacing" textLength="30" x="236.34" y="145.308">clean</text></g><rect fill="#E8E8E8" height="139.6" rx="4" ry="4" style="stroke:#000000;stroke-width:1;" width="288.76" x="12" y="422"/><text fill="#000000" font-family="Lato,sans-serif" font-size="12" font-weight="bold" lengthAdjust="spacing" textLength="59.304" x="17" y="438.844">Transitions</text><text fill="#0000FF" font-family="Inconsolata,monospace" font-size="12" lengthAdjust="spacing" text-decoration="line-through" textLength="18" x="17" y="453.52">&#8212;&#8212;&#8212;</text><text fill="#000000" font-family="Lato,sans-serif" font-size="12" lengthAdjust="spacing" textLength="158.322" x="38.072" y="453.244">Applies to a single component</text><text fill="#8B0000" font-family="Inconsolata,monospace" font-size="12" lengthAdjust="spacing" text-decoration="line-through" textLength="18" x="17" y="467.92">&#8212;&#8212;&#8212;</text><text fill="#000000" font-family="Lato,sans-serif" font-size="12" lengthAdjust="spacing" textLength="135.93" x="38.072" y="467.644">Applies to all components</text><text fill="#000000" font-family="Inconsolata,monospace" font-size="12" lengthAdjust="spacing" textLength="18" x="17" y="482.32">---</text><text fill="#000000" font-family="Lato,sans-serif" font-size="12" lengthAdjust="spacing" textLength="79.644" x="38.072" y="482.044">Transition over</text><text fill="#000000" font-family="Lato,sans-serif" font-size="12" font-weight="bold" lengthAdjust="spacing" textLength="35.946" x="120.788" y="482.044">reboot</text><text fill="#000000" font-family="Lato,sans-serif" font-size="12" lengthAdjust="spacing" textLength="3.072" x="17" y="496.444">&#160;</text><text fill="#000000" font-family="Lato,sans-serif" font-size="12" font-weight="bold" lengthAdjust="spacing" textLength="76.092" x="17" y="510.844">Volatile states</text><text fill="#000000" font-family="Inconsolata,monospace" font-size="12" lengthAdjust="spacing" textLength="6" x="23" y="525.52">*</text><text fill="#000000" font-family="Lato,sans-serif" font-size="12" lengthAdjust="spacing" textLength="40.728" x="38.072" y="525.244">Always:</text><text fill="#000000" font-family="Lato,sans-serif" font-size="12" font-weight="bold" lengthAdjust="spacing" textLength="35.946" x="81.872" y="525.244">reboot</text><text fill="#000000" font-family="Lato,sans-serif" font-size="12" lengthAdjust="spacing" textLength="102.21" x="120.89" y="525.244">transition as shown</text><text fill="#000000" font-family="Inconsolata,monospace" font-size="12" lengthAdjust="spacing" textLength="6" x="23" y="539.92">&#8224;</text><text fill="#000000" font-family="Lato,sans-serif" font-size="12" lengthAdjust="spacing" textLength="40.728" x="38.072" y="539.644">Always:</text><text fill="#000000" font-family="Lato,sans-serif" font-size="12" font-weight="bold" lengthAdjust="spacing" textLength="35.946" x="81.872" y="539.644">reboot</text><text fill="#000000" font-family="Lato,sans-serif" font-size="12" lengthAdjust="spacing" textLength="80.274" x="120.89" y="539.644">is equivalent to</text><text fill="#000000" font-family="Inconsolata,monospace" font-size="12" lengthAdjust="spacing" textLength="36" x="204.236" y="539.92">cancel</text><text fill="#000000" font-family="Lato,sans-serif" font-size="12" lengthAdjust="spacing" textLength="19.38" x="243.308" y="539.644">and</text><text fill="#000000" font-family="Inconsolata,monospace" font-size="12" lengthAdjust="spacing" textLength="30" x="265.76" y="539.92">clean</text><text fill="#000000" font-family="Inconsolata,monospace" font-size="12" lengthAdjust="spacing" textLength="6" x="23" y="554.32">&#8225;</text><text fill="#000000" font-family="Lato,sans-serif" font-size="12" lengthAdjust="spacing" textLength="40.728" x="38.072" y="554.044">Always:</text><text fill="#000000" font-family="Lato,sans-serif" font-size="12" font-weight="bold" lengthAdjust="spacing" textLength="35.946" x="81.872" y="554.044">reboot</text><text fill="#000000" font-family="Lato,sans-serif" font-size="12" lengthAdjust="spacing" textLength="80.274" x="120.89" y="554.044">is equivalent to</text><text fill="#000000" font-family="Inconsolata,monospace" font-size="12" lengthAdjust="spacing" textLength="30" x="204.236" y="554.32">clean</text></g></svg>