<svg xmlns="http://www.w3.org/2000/svg" xmlns:xlink="http://www.w3.org/1999/xlink" contentStyleType="text/css" data-diagram-type="STATE" height="581px" preserveAspectRatio="none" style="width:467px;height:581px;background:#FFFFFF55;" version="1.1" viewBox="0 0 467 581" width="467px" zoomAndPan="magnify"><defs/><g><rect fill="#FFFFFF" fill-opacity="0.33333" height="581" style="stroke:none;stroke-width:1;" width="467" x="0" y="0"/><rect fill="#FFFFFF" height="40" rx="4" ry="4" style="stroke:#000000;stroke-width:1;" width="50" x="104.53" y="7"/><text fill="#000000" font-family="Lato,sans-serif" font-size="12" lengthAdjust="spacing" textLength="39.186" x="109.937" y="31.644">READY</text><rect fill="#FFFFFF" height="40" rx="4" ry="4" style="stroke:#000000;stroke-width:1;" width="71.71" x="10.67" y="121"/><text fill="#000000" font-family="Lato,sans-serif" font-size="12" lengthAdjust="spacing" textLength="61.71" x="15.67" y="145.644">WRITING &#8224;</text><rect fill="#FFFFFF" height="40" rx="4" ry="4" style="stroke:#000000;stroke-width:1;" width="79.054" x="7" y="235"/><text fill="#000000" font-family="Lato,sans-serif" font-size="12" lengthAdjust="spacing" textLength="69.054" x="12" y="259.644">CANDIDATE</text><rect fill="#FFFFFF" height="40" rx="4" ry="4" style="stroke:#000000;stroke-width:1;" width="64.714" x="98.17" y="365"/><text fill="#000000" font-family="Lato,sans-serif" font-size="12" lengthAdjust="spacing" textLength="54.714" x="103.17" y="389.644">STAGED *</text><rect fill="#FFFFFF" height="40" rx="4" ry="4" style="stroke:#000000;stroke-width:1;" width="60.52" x="158.27" y="235"/><text fill="#000000" font-family="Lato,sans-serif" font-size="12" lengthAdjust="spacing" textLength="50.52" x="163.27" y="259.644">FAILED &#8225;</text><rect fill="#FFFFFF" height="40" rx="4" ry="4" style="stroke:#000000;stroke-width:1;" width="76.456" x="268.3" y="365"/><text fill="#000000" font-family="Lato,sans-serif" font-size="12" lengthAdjust="spacing" textLength="66.456" x="273.3" y="389.644">UPDATED &#8225;</text><rect fill="#FFFFFF" height="40" rx="4" ry="4" style="stroke:#000000;stroke-width:1;" width="50" x="411.53" y="365"/><text fill="#000000" font-family="Lato,sans-serif" font-size="12" lengthAdjust="spacing" textLength="39.186" x="416.937" y="389.644">READY</text><!--link Start to Writing--><g class="link" data-entity-1="Start" data-entity-2="Writing" data-source-line="30" data-uid="lnk2" id="link_Start_Writing"><path d="M115.26,47.25 C100.06,67.77 79.6914,95.2387 64.4614,115.7987" fill="none" id="Start-to-Writing" style="stroke:#0000FF;stroke-width:1;"/><polygon fill="#0000FF" points="60.89,120.62,69.4613,115.769,63.8662,116.6022,63.0329,111.0071,60.89,120.62" style="stroke:#0000FF;stroke-width:1;"/><text fill="#000000" font-family="Inconsolata,monospace" font-size="12" lengthAdjust="spacing" textLength="30" x="94" y="88.308">start</text></g><!--link Writing to Writing--><g class="link" data-entity-1="Writing" data-entity-2="Writing" data-source-line="31" data-uid="lnk3" id="link_Writing_Writing"><path d="M82.62,130.66 C100.95,129.15 117.38,132.59 117.38,141 C117.38,149.41 106.9297,153.3426 88.5997,151.8326" fill="none" id="Writing-to-Writing" style="stroke:#0000FF;stroke-width:1;"/><polygon fill="#0000FF" points="82.62,151.34,91.2612,156.0654,87.6031,151.7505,91.918,148.0924,82.62,151.34" style="stroke:#0000FF;stroke-width:1;"/><text fill="#000000" font-family="Inconsolata,monospace" font-size="12" lengthAdjust="spacing" textLength="30" x="123.38" y="145.308">write</text></g><!--link Writing to Candidate--><g class="link" data-entity-1="Writing" data-entity-2="Candidate" data-source-line="32" data-uid="lnk4" id="link_Writing_Candidate"><path d="M46.53,161.25 C46.53,181.77 46.53,208.06 46.53,228.62" fill="none" id="Writing-to-Candidate" style="stroke:#0000FF;stroke-width:1;"/><polygon fill="#0000FF" points="46.53,234.62,50.53,225.62,46.53,229.62,42.53,225.62,46.53,234.62" style="stroke:#0000FF;stroke-width:1;"/><text fill="#000000" font-family="Inconsolata,monospace" font-size="12" lengthAdjust="spacing" textLength="36" x="47.53" y="202.308">finish</text></g><!--link Writing to Failed--><g class="link" data-entity-1="Writing" data-entity-2="Failed" data-source-line="33" data-uid="lnk5" id="link_Writing_Failed"><path d="M70.94,161.25 C96.95,181.77 133.1788,210.3445 159.2488,230.9045" fill="none" id="Writing-to-Failed" style="stroke:#0000FF;stroke-width:1;"/><polygon fill="#0000FF" points="163.96,234.62,159.3702,225.906,160.034,231.5238,154.4162,232.1876,163.96,234.62" style="stroke:#0000FF;stroke-width:1;"/><text fill="#000000" font-family="Inconsolata,monospace" font-size="12" lengthAdjust="spacing" textLength="36" x="127.03" y="202.308">cancel</text></g><!--link Candidate to Failed--><g class="link" data-entity-1="Candidate" data-entity-2="Failed" data-source-line="34" data-uid="lnk6" id="link_Candidate_Failed"><path d="M86.46,255 C109.1,255 130.99,255 151.89,255" fill="none" id="Candidate-to-Failed" style="stroke:#0000FF;stroke-width:1;"/><polygon fill="#0000FF" points="157.89,255,148.89,251,152.89,255,148.89,259,157.89,255" style="stroke:#0000FF;stroke-width:1;"/><text fill="#000000" font-family="Inconsolata,monospace" font-size="12" lengthAdjust="spacing" textLength="36" x="104.16" y="249.308">cancel</text></g><!--link Candidate to Staged--><g class="link" data-entity-1="Candidate" data-entity-2="Staged" data-source-line="35" data-uid="lnk7" id="link_Candidate_Staged"><path d="M47.53,275.31 C49.22,292.26 53.69,316.95 65.53,335 C73.66,347.41 81.1029,354.4996 92.8929,362.5396" fill="none" id="Candidate-to-Staged" style="stroke:#8B0000;stroke-width:1;"/><polygon fill="#8B0000" points="97.85,365.92,92.668,357.5447,93.7191,363.103,88.1607,364.1541,97.85,365.92" style="stroke:#8B0000;stroke-width:1;"/><text fill="#000000" font-family="Inconsolata,monospace" font-size="12" lengthAdjust="spacing" textLength="42" x="66.53" y="324.308">install</text></g><!--link Staged to Updated--><g class="link" data-entity-1="Staged" data-entity-2="Updated" data-source-line="37" data-uid="lnk8" id="link_Staged_Updated"><path d="M163.22,385 C192.84,385 230.53,385 261.87,385" fill="none" id="Staged-to-Updated" style="stroke:#8B0000;stroke-width:1;stroke-dasharray:7.0,7.0;"/><polygon fill="#8B0000" points="267.87,385,258.87,381,262.87,385,258.87,389,267.87,385" style="stroke:#8B0000;stroke-width:1;"/><text fill="#000000" font-family="Lato,sans-serif" font-size="12" font-weight="bold" lengthAdjust="spacing" textLength="35.946" x="196.576" y="364.844">reboot</text><text fill="#000000" font-family="Lato,sans-serif" font-size="12" lengthAdjust="spacing" textLength="3" x="232.522" y="364.844">:</text><text fill="#000000" font-family="Lato,sans-serif" font-size="12" font-style="italic" lengthAdjust="spacing" textLength="69.918" x="181.09" y="379.244">install success</text></g><!--reverse link Failed to Staged--><g class="link" data-entity-1="Failed" data-entity-2="Staged" data-source-line="38" data-uid="lnk10" id="link_Failed_Staged"><path d="M185.3882,281.2434 C182.9082,297.7434 178.87,315.86 169.53,335 C164.28,345.75 156.34,356.31 148.99,364.85" fill="none" id="Failed-backto-Staged" style="stroke:#8B0000;stroke-width:1;stroke-dasharray:7.0,7.0;"/><polygon fill="#8B0000" points="186.28,275.31,180.9867,283.6155,185.5368,280.2545,188.8979,284.8046,186.28,275.31" style="stroke:#8B0000;stroke-width:1;"/><text fill="#000000" font-family="Lato,sans-serif" font-size="12" font-weight="bold" lengthAdjust="spacing" textLength="35.946" x="191.608" y="317.844">reboot</text><text fill="#000000" font-family="Lato,sans-serif" font-size="12" lengthAdjust="spacing" textLength="3" x="227.554" y="317.844">:</text><text fill="#000000" font-family="Lato,sans-serif" font-size="12" font-style="italic" lengthAdjust="spacing" textLength="60.042" x="181.06" y="332.244">install failed</text></g><!--reverse link Failed to Staged--><g class="link" data-entity-1="Failed" data-entity-2="Staged" data-source-line="39" data-uid="lnk12" id="link_Failed_Staged"><path d="M152.9238,273.9206 C139.7638,282.0406 130.84,290.33 123.53,305 C114.19,323.73 118.41,348.07 123.38,364.75" fill="none" id="Failed-backto-Staged-1" style="stroke:#8B0000;stroke-width:1;"/><polygon fill="#8B0000" points="158.03,270.77,148.2702,272.0918,153.7748,273.3955,152.4711,278.9001,158.03,270.77" style="stroke:#8B0000;stroke-width:1;"/><text fill="#000000" font-family="Inconsolata,monospace" font-size="12" lengthAdjust="spacing" textLength="36" x="124.53" y="324.308">reject</text></g><!--reverse link Start to Failed--><g class="link" data-entity-1="Start" data-entity-2="Failed" data-source-line="41" data-uid="lnk14" id="link_Start_Failed"><path d="M138.3718,53.1002 C144.8418,71.8002 152.59,95.28 159.53,121 C170.36,161.16 180,208.96 184.97,234.92" fill="none" id="Start-backto-Failed" style="stroke:#0000FF;stroke-width:1;"/><polygon fill="#0000FF" points="136.41,47.43,135.5726,57.2432,138.0449,52.1552,143.1329,54.6274,136.41,47.43" style="stroke:#0000FF;stroke-width:1;"/><text fill="#000000" font-family="Inconsolata,monospace" font-size="12" lengthAdjust="spacing" textLength="30" x="170.07" y="145.308">clean</text></g><!--link Updated to End--><g class="link" data-entity-1="Updated" data-entity-2="End" data-source-line="43" data-uid="lnk15" id="link_Updated_End"><path d="M345.18,385 C366.58,385 386.58,385 405.36,385" fill="none" id="Updated-to-End" style="stroke:#0000FF;stroke-width:1;"/><polygon fill="#0000FF" points="411.36,385,402.36,381,406.36,385,402.36,389,411.36,385" style="stroke:#0000FF;stroke-width:1;"/><text fill="#000000" font-family="Inconsolata,monospace" font-size="12" lengthAdjust="spacing" textLength="30" x="363.14" y="379.308">clean</text></g><rect fill="#E8E8E8" height="139.6" rx="4" ry="4" style="stroke:#000000;stroke-width:1;" width="296.842" x="78.344" y="422"/><text fill="#000000" font-family="Lato,sans-serif" font-size="12" font-weight="bold" lengthAdjust="spacing" textLength="59.304" x="83.344" y="438.844">Transitions</text><text fill="#0000FF" font-family="Inconsolata,monospace" font-size="12" lengthAdjust="spacing" text-decoration="line-through" textLength="18" x="83.344" y="453.52">&#8212;&#8212;&#8212;</text><text fill="#000000" font-family="Lato,sans-serif" font-size="12" lengthAdjust="spacing" textLength="158.322" x="104.416" y="453.244">Applies to a single component</text><text fill="#8B0000" font-family="Inconsolata,monospace" font-size="12" lengthAdjust="spacing" text-decoration="line-through" textLength="18" x="83.344" y="467.92">&#8212;&#8212;&#8212;</text><text fill="#000000" font-family="Lato,sans-serif" font-size="12" lengthAdjust="spacing" textLength="135.93" x="104.416" y="467.644">Applies to all components</text><text fill="#000000" font-family="Inconsolata,monospace" font-size="12" lengthAdjust="spacing" textLength="18" x="83.344" y="482.32">---</text><text fill="#000000" font-family="Lato,sans-serif" font-size="12" lengthAdjust="spacing" textLength="79.644" x="104.416" y="482.044">Transition over</text><text fill="#000000" font-family="Lato,sans-serif" font-size="12" font-weight="bold" lengthAdjust="spacing" textLength="35.946" x="187.132" y="482.044">reboot</text><text fill="#000000" font-family="Lato,sans-serif" font-size="12" lengthAdjust="spacing" textLength="2.832" x="223.078" y="482.044">.</text><text fill="#000000" font-family="Lato,sans-serif" font-size="12" lengthAdjust="spacing" textLength="3.072" x="83.344" y="496.444">&#160;</text><text fill="#000000" font-family="Lato,sans-serif" font-size="12" font-weight="bold" lengthAdjust="spacing" textLength="76.092" x="83.344" y="510.844">Volatile states</text><text fill="#000000" font-family="Inconsolata,monospace" font-size="12" lengthAdjust="spacing" textLength="6" x="89.344" y="525.52">*</text><text fill="#000000" font-family="Lato,sans-serif" font-size="12" lengthAdjust="spacing" textLength="40.728" x="104.416" y="525.244">Always:</text><text fill="#000000" font-family="Lato,sans-serif" font-size="12" font-weight="bold" lengthAdjust="spacing" textLength="35.946" x="148.216" y="525.244">reboot</text><text fill="#000000" font-family="Lato,sans-serif" font-size="12" lengthAdjust="spacing" textLength="102.21" x="187.234" y="525.244">transition as shown</text><text fill="#000000" font-family="Inconsolata,monospace" font-size="12" lengthAdjust="spacing" textLength="6" x="89.344" y="539.92">&#8224;</text><text fill="#000000" font-family="Lato,sans-serif" font-size="12" lengthAdjust="spacing" textLength="48.81" x="104.416" y="539.644">Optional:</text><text fill="#000000" font-family="Lato,sans-serif" font-size="12" font-weight="bold" lengthAdjust="spacing" textLength="35.946" x="156.298" y="539.644">reboot</text><text fill="#000000" font-family="Lato,sans-serif" font-size="12" lengthAdjust="spacing" textLength="80.274" x="195.316" y="539.644">is equivalent to</text><text fill="#000000" font-family="Inconsolata,monospace" font-size="12" lengthAdjust="spacing" textLength="36" x="278.662" y="539.92">cancel</text><text fill="#000000" font-family="Lato,sans-serif" font-size="12" lengthAdjust="spacing" textLength="19.38" x="317.734" y="539.644">and</text><text fill="#000000" font-family="Inconsolata,monospace" font-size="12" lengthAdjust="spacing" textLength="30" x="340.186" y="539.92">clean</text><text fill="#000000" font-family="Inconsolata,monospace" font-size="12" lengthAdjust="spacing" textLength="6" x="89.344" y="554.32">&#8225;</text><text fill="#000000" font-family="Lato,sans-serif" font-size="12" lengthAdjust="spacing" textLength="48.81" x="104.416" y="554.044">Optional:</text><text fill="#000000" font-family="Lato,sans-serif" font-size="12" font-weight="bold" lengthAdjust="spacing" textLength="35.946" x="156.298" y="554.044">reboot</text><text fill="#000000" font-family="Lato,sans-serif" font-size="12" lengthAdjust="spacing" textLength="80.274" x="195.316" y="554.044">is equivalent to</text><text fill="#000000" font-family="Inconsolata,monospace" font-size="12" lengthAdjust="spacing" textLength="30" x="278.662" y="554.32">clean</text></g></svg>