<svg xmlns="http://www.w3.org/2000/svg" xmlns:xlink="http://www.w3.org/1999/xlink" contentStyleType="text/css" data-diagram-type="SEQUENCE" height="1489px" preserveAspectRatio="none" style="width:857px;height:1489px;background:#FFFFFF55;" version="1.1" viewBox="0 0 857 1489" width="857px" zoomAndPan="magnify"><defs/><g><rect fill="#FFFFFF" fill-opacity="0.33333" height="1489" style="stroke:none;stroke-width:1;" width="857" x="0" y="0"/><rect fill="#FFFFFF" fill-opacity="0.50196" height="99.788" rx="4" ry="4" style="stroke:#808080;stroke-width:1;" width="683.425" x="10" y="252.576"/><rect fill="#FFFFFF" fill-opacity="0.50196" height="820.104" rx="4" ry="4" style="stroke:#808080;stroke-width:1;" width="644.639" x="205.58" y="533.14"/><path d="M205.58,576.128 L850.219,576.128 L850.219,642.316 A4,4 0 0 1 846.219,646.316 L209.58,646.316 A4,4 0 0 1 205.58,642.316 L205.58,576.128" fill="#FFFFFF" fill-opacity="0.50196" style="stroke:none;stroke-width:1;"/><path d="M205.58,646.316 L850.219,646.316 L850.219,1349.244 A4,4 0 0 1 846.219,1353.244 L209.58,1353.244 A4,4 0 0 1 205.58,1349.244 L205.58,646.316" fill="#FFFFFF" fill-opacity="0.50196" style="stroke:none;stroke-width:1;"/><rect fill="#FFFFFF" fill-opacity="0.50196" height="116.8" rx="4" ry="4" style="stroke:#808080;stroke-width:1;" width="250.87" x="579.349" y="806.892"/><path d="M579.349,851.692 L830.219,851.692 L830.219,919.692 A4,4 0 0 1 826.219,923.692 L583.349,923.692 A4,4 0 0 1 579.349,919.692 L579.349,851.692" fill="#FFFFFF" fill-opacity="0.50196" style="stroke:none;stroke-width:1;"/><rect fill="#FFFFFF" fill-opacity="0.50196" height="380.152" rx="4" ry="4" style="stroke:#808080;stroke-width:1;" width="624.639" x="215.58" y="966.092"/><rect fill="#FFFFFF" fill-opacity="0.50196" height="308.352" rx="4" ry="4" style="stroke:#808080;stroke-width:1;" width="604.639" x="225.58" y="1030.892"/><path d="M225.58,1102.28 L830.219,1102.28 L830.219,1335.244 A4,4 0 0 1 826.219,1339.244 L229.58,1339.244 A4,4 0 0 1 225.58,1335.244 L225.58,1102.28" fill="#FFFFFF" fill-opacity="0.50196" style="stroke:none;stroke-width:1;"/><g><title>Update server</title><rect fill="#000000" fill-opacity="0.00000" height="1447.632" width="8" x="60.371" y="34.4"/><line style="stroke:#808080;stroke-width:0.5;stroke-dasharray:5.0,5.0;" x1="64" x2="64" y1="34.4" y2="1482.032"/></g><g><title>Update client</title><rect fill="#000000" fill-opacity="0.00000" height="1447.632" width="8" x="273.941" y="34.4"/><line style="stroke:#808080;stroke-width:0.5;stroke-dasharray:5.0,5.0;" x1="277.58" x2="277.58" y1="34.4" y2="1482.032"/></g><g><title>Update service</title><rect fill="#000000" fill-opacity="0.00000" height="1447.632" width="8" x="489.941" y="34.4"/><line style="stroke:#808080;stroke-width:0.5;stroke-dasharray:5.0,5.0;" x1="493.449" x2="493.449" y1="34.4" y2="1482.032"/></g><g><title>Firmware store</title><rect fill="#000000" fill-opacity="0.00000" height="1447.632" width="8" x="632.387" y="34.4"/><line style="stroke:#808080;stroke-width:0.5;stroke-dasharray:5.0,5.0;" x1="636.349" x2="636.349" y1="34.4" y2="1482.032"/></g><g><title>Bootloader</title><rect fill="#000000" fill-opacity="0.00000" height="1447.632" width="8" x="779.873" y="34.4"/><line style="stroke:#808080;stroke-width:0.5;stroke-dasharray:5.0,5.0;" x1="783.527" x2="783.527" y1="34.4" y2="1482.032"/></g><g class="participant participant-head" data-participant="server"><rect fill="#FFFFFF" height="28.4" rx="4" ry="4" style="stroke:#000000;stroke-width:1;" width="88.742" x="20" y="5"/><text fill="#000000" font-family="Lato,sans-serif" font-size="12" lengthAdjust="spacing" textLength="74.742" x="27" y="23.844">Update server</text></g><g class="participant participant-head" data-participant="client"><rect fill="#FFFFFF" height="28.4" rx="4" ry="4" style="stroke:#000000;stroke-width:1;" width="84.722" x="235.58" y="5"/><text fill="#000000" font-family="Lato,sans-serif" font-size="12" lengthAdjust="spacing" textLength="70.722" x="242.58" y="23.844">Update client</text></g><g class="participant participant-head" data-participant="service"><rect fill="#FFFFFF" height="28.4" rx="4" ry="4" style="stroke:#000000;stroke-width:1;" width="92.984" x="447.449" y="5"/><text fill="#000000" font-family="Lato,sans-serif" font-size="12" lengthAdjust="spacing" textLength="78.984" x="454.449" y="23.844">Update service</text></g><g class="participant participant-head" data-participant="store"><rect fill="#FFFFFF" height="28.4" rx="4" ry="4" style="stroke:#000000;stroke-width:1;" width="94.076" x="589.349" y="5"/><text fill="#000000" font-family="Lato,sans-serif" font-size="12" lengthAdjust="spacing" textLength="80.076" x="596.349" y="23.844">Firmware store</text></g><g class="participant participant-head" data-participant="boot"><rect fill="#FFFFFF" height="28.4" rx="4" ry="4" style="stroke:#000000;stroke-width:1;" width="72.692" x="747.527" y="5"/><text fill="#000000" font-family="Lato,sans-serif" font-size="12" lengthAdjust="spacing" textLength="58.692" x="754.527" y="23.844">Bootloader</text></g><path d="M585,53.4 L585,69.4 A4,4 0 0 0 589,73.4 L683,73.4 A4,4 0 0 0 687,69.4 L687,59.4 L677,49.4 L589,49.4 A4,4 0 0 0 585,53.4" fill="#E8E8E8" style="stroke:#7D868C;stroke-width:1;"/><path d="M677,49.4 L677,57.4 A2,2 0 0 0 679,59.4 L687,59.4 L677,49.4" fill="#E8E8E8" style="stroke:#7D868C;stroke-width:1;"/><text fill="#000000" font-family="Lato,sans-serif" font-size="12" lengthAdjust="spacing" textLength="81.486" x="591" y="66.244">In READY state</text><g class="message" data-participant-1="server" data-participant-2="client"><line style="stroke:#000000;stroke-width:1;" x1="275.941" x2="265.941" y1="99.2" y2="95.2"/><line style="stroke:#000000;stroke-width:1;" x1="275.941" x2="265.941" y1="99.2" y2="103.2"/><line style="stroke:#000000;stroke-width:1;" x1="64.371" x2="276.941" y1="99.2" y2="99.2"/><text fill="#000000" font-family="Lato,sans-serif" font-size="12" lengthAdjust="spacing" textLength="189.57" x="71.371" y="94.644">Get information about a component</text></g><g class="message" data-participant-1="client" data-participant-2="service"><polygon fill="#000000" points="481.941,121.788,491.941,125.788,481.941,129.788" style="stroke:#000000;stroke-width:1;"/><line style="stroke:#000000;stroke-width:1;" x1="277.941" x2="487.941" y1="125.788" y2="125.788"/><text fill="#000000" font-family="Inconsolata,monospace" font-size="12" lengthAdjust="spacing" textLength="162" x="284.941" y="121.508">psa_fwu_query(component_id)</text></g><g class="message" data-participant-1="client" data-participant-2="server"><line style="stroke:#000000;stroke-width:1;" x1="65.371" x2="75.371" y1="154.188" y2="150.188"/><line style="stroke:#000000;stroke-width:1;" x1="65.371" x2="75.371" y1="154.188" y2="158.188"/><line style="stroke:#000000;stroke-width:1;stroke-dasharray:2.0,2.0;" x1="64.371" x2="276.941" y1="154.188" y2="154.188"/><text fill="#000000" font-family="Lato,sans-serif" font-size="12" lengthAdjust="spacing" textLength="114.54" x="81.371" y="149.632">Firmware information</text></g><g class="message" data-participant-1="server" data-participant-2="client"><line style="stroke:#000000;stroke-width:1;" x1="275.941" x2="265.941" y1="182.588" y2="178.588"/><line style="stroke:#000000;stroke-width:1;" x1="275.941" x2="265.941" y1="182.588" y2="186.588"/><line style="stroke:#000000;stroke-width:1;" x1="64.371" x2="276.941" y1="182.588" y2="182.588"/><text fill="#000000" font-family="Lato,sans-serif" font-size="12" lengthAdjust="spacing" textLength="173.322" x="71.371" y="178.032">Notify that an update is available</text></g><g class="message" data-participant-1="client" data-participant-2="service"><polygon fill="#000000" points="481.941,205.176,491.941,209.176,481.941,213.176" style="stroke:#000000;stroke-width:1;"/><line style="stroke:#000000;stroke-width:1;" x1="277.941" x2="487.941" y1="209.176" y2="209.176"/><text fill="#000000" font-family="Inconsolata,monospace" font-size="12" lengthAdjust="spacing" textLength="162" x="284.941" y="204.896">psa_fwu_start(component_id)</text></g><g class="message" data-participant-1="service" data-participant-2="store"><line style="stroke:#000000;stroke-width:1;" x1="634.387" x2="624.387" y1="237.576" y2="233.576"/><line style="stroke:#000000;stroke-width:1;" x1="634.387" x2="624.387" y1="237.576" y2="241.576"/><line style="stroke:#000000;stroke-width:1;" x1="493.941" x2="635.387" y1="237.576" y2="237.576"/><text fill="#000000" font-family="Lato,sans-serif" font-size="12" lengthAdjust="spacing" textLength="101.07" x="500.941" y="233.02">Set WRITING state</text></g><path d="M14,252.576 L78.166,252.576 L78.166,258.976 L68.166,268.976 L10,268.976 L10,256.576 A4,4 0 0 1 14,252.576" fill="#F0F0F0" style="stroke:#808080;stroke-width:1.5;"/><rect fill="none" height="99.788" rx="4" ry="4" style="stroke:#808080;stroke-width:1;" width="683.425" x="10" y="252.576"/><text fill="#000000" font-family="Lato,sans-serif" font-size="12" lengthAdjust="spacing" textLength="23.166" x="25" y="265.42">loop</text><text fill="#000000" font-family="Lato,sans-serif" font-size="11" font-weight="bold" lengthAdjust="spacing" textLength="141.526" x="93.166" y="265.433">[while image is downloading]</text><g class="message" data-participant-1="server" data-participant-2="client"><line style="stroke:#000000;stroke-width:1;" x1="275.941" x2="265.941" y1="289.376" y2="285.376"/><line style="stroke:#000000;stroke-width:1;" x1="275.941" x2="265.941" y1="289.376" y2="293.376"/><line style="stroke:#000000;stroke-width:1;" x1="64.371" x2="276.941" y1="289.376" y2="289.376"/><text fill="#000000" font-family="Lato,sans-serif" font-size="12" lengthAdjust="spacing" textLength="134.07" x="71.371" y="284.82">Download block of image</text></g><g class="message" data-participant-1="client" data-participant-2="service"><polygon fill="#000000" points="481.941,311.964,491.941,315.964,481.941,319.964" style="stroke:#000000;stroke-width:1;"/><line style="stroke:#000000;stroke-width:1;" x1="277.941" x2="487.941" y1="315.964" y2="315.964"/><text fill="#000000" font-family="Inconsolata,monospace" font-size="12" lengthAdjust="spacing" textLength="192" x="284.941" y="311.684">psa_fwu_write(component_id, ...)</text></g><g class="message" data-participant-1="service" data-participant-2="store"><line style="stroke:#000000;stroke-width:1;" x1="634.387" x2="624.387" y1="344.364" y2="340.364"/><line style="stroke:#000000;stroke-width:1;" x1="634.387" x2="624.387" y1="344.364" y2="348.364"/><line style="stroke:#000000;stroke-width:1;" x1="493.941" x2="635.387" y1="344.364" y2="344.364"/><text fill="#000000" font-family="Lato,sans-serif" font-size="12" lengthAdjust="spacing" textLength="110.106" x="500.941" y="339.808">Write block to image</text></g><g class="message" data-participant-1="client" data-participant-2="service"><polygon fill="#000000" points="481.941,373.952,491.941,377.952,481.941,381.952" style="stroke:#000000;stroke-width:1;"/><line style="stroke:#000000;stroke-width:1;" x1="277.941" x2="487.941" y1="377.952" y2="377.952"/><text fill="#000000" font-family="Inconsolata,monospace" font-size="12" lengthAdjust="spacing" textLength="168" x="284.941" y="373.672">psa_fwu_finish(component_id)</text></g><g class="message" data-participant-1="service" data-participant-2="store"><line style="stroke:#000000;stroke-width:1;" x1="634.387" x2="624.387" y1="406.352" y2="402.352"/><line style="stroke:#000000;stroke-width:1;" x1="634.387" x2="624.387" y1="406.352" y2="410.352"/><line style="stroke:#000000;stroke-width:1;" x1="493.941" x2="635.387" y1="406.352" y2="406.352"/><text fill="#000000" font-family="Lato,sans-serif" font-size="12" lengthAdjust="spacing" textLength="118.446" x="500.941" y="401.796">Set CANDIDATE state</text></g><g class="message" data-participant-1="client" data-participant-2="server"><line style="stroke:#000000;stroke-width:1;" x1="65.371" x2="75.371" y1="434.752" y2="430.752"/><line style="stroke:#000000;stroke-width:1;" x1="65.371" x2="75.371" y1="434.752" y2="438.752"/><line style="stroke:#000000;stroke-width:1;stroke-dasharray:2.0,2.0;" x1="64.371" x2="276.941" y1="434.752" y2="434.752"/><text fill="#000000" font-family="Lato,sans-serif" font-size="12" lengthAdjust="spacing" textLength="143.1" x="81.371" y="430.196">Report download complete</text></g><g class="message" data-participant-1="server" data-participant-2="client"><line style="stroke:#000000;stroke-width:1;" x1="275.941" x2="265.941" y1="463.152" y2="459.152"/><line style="stroke:#000000;stroke-width:1;" x1="275.941" x2="265.941" y1="463.152" y2="467.152"/><line style="stroke:#000000;stroke-width:1;" x1="64.371" x2="276.941" y1="463.152" y2="463.152"/><text fill="#000000" font-family="Lato,sans-serif" font-size="12" lengthAdjust="spacing" textLength="128.592" x="71.371" y="458.596">Request to apply update</text></g><g class="message" data-participant-1="client" data-participant-2="service"><polygon fill="#000000" points="481.941,485.74,491.941,489.74,481.941,493.74" style="stroke:#000000;stroke-width:1;"/><line style="stroke:#000000;stroke-width:1;" x1="277.941" x2="487.941" y1="489.74" y2="489.74"/><text fill="#000000" font-family="Inconsolata,monospace" font-size="12" lengthAdjust="spacing" textLength="102" x="284.941" y="485.46">psa_fwu_install()</text></g><g class="message" data-participant-1="service" data-participant-2="store"><line style="stroke:#000000;stroke-width:1;" x1="634.387" x2="624.387" y1="518.14" y2="514.14"/><line style="stroke:#000000;stroke-width:1;" x1="634.387" x2="624.387" y1="518.14" y2="522.14"/><line style="stroke:#000000;stroke-width:1;" x1="493.941" x2="635.387" y1="518.14" y2="518.14"/><text fill="#000000" font-family="Lato,sans-serif" font-size="12" lengthAdjust="spacing" textLength="67.236" x="500.941" y="513.584">Check image</text></g><path d="M209.58,533.14 L263.678,533.14 L263.678,539.54 L253.678,549.54 L205.58,549.54 L205.58,537.14 A4,4 0 0 1 209.58,533.14" fill="#F0F0F0" style="stroke:#808080;stroke-width:1.5;"/><rect fill="none" height="820.104" rx="4" ry="4" style="stroke:#808080;stroke-width:1;" width="644.639" x="205.58" y="533.14"/><text fill="#000000" font-family="Lato,sans-serif" font-size="12" lengthAdjust="spacing" textLength="13.098" x="220.58" y="545.984">alt</text><text fill="#000000" font-family="Lato,sans-serif" font-size="11" font-weight="bold" lengthAdjust="spacing" textLength="105.7485" x="278.678" y="545.997">[dependency needed]</text><g class="message" data-participant-1="service" data-participant-2="client"><polygon fill="#000000" points="288.941,564.128,278.941,568.128,288.941,572.128" style="stroke:#000000;stroke-width:1;"/><line style="stroke:#000000;stroke-width:1;stroke-dasharray:2.0,2.0;" x1="282.941" x2="492.941" y1="568.128" y2="568.128"/><text fill="#000000" font-family="Inconsolata,monospace" font-size="12" lengthAdjust="spacing" textLength="162" x="294.941" y="563.848">PSA_ERROR_DEPENDENCY_NEEDED</text></g><line style="stroke:#808080;stroke-width:1;stroke-dasharray:2.0,2.0;" x1="205.58" x2="850.219" y1="577.128" y2="577.128"/><text fill="#000000" font-family="Lato,sans-serif" font-size="11" font-weight="bold" lengthAdjust="spacing" textLength="137.0765" x="210.58" y="587.985">[fail firmware image checks]</text><g class="message" data-participant-1="service" data-participant-2="store"><line style="stroke:#000000;stroke-width:1;" x1="634.387" x2="624.387" y1="611.728" y2="607.728"/><line style="stroke:#000000;stroke-width:1;" x1="634.387" x2="624.387" y1="611.728" y2="615.728"/><line style="stroke:#000000;stroke-width:1;" x1="493.941" x2="635.387" y1="611.728" y2="611.728"/><text fill="#000000" font-family="Lato,sans-serif" font-size="12" lengthAdjust="spacing" textLength="89.88" x="500.941" y="607.172">Set FAILED state</text></g><g class="message" data-participant-1="service" data-participant-2="client"><polygon fill="#000000" points="288.941,634.316,278.941,638.316,288.941,642.316" style="stroke:#000000;stroke-width:1;"/><line style="stroke:#000000;stroke-width:1;stroke-dasharray:2.0,2.0;" x1="282.941" x2="492.941" y1="638.316" y2="638.316"/><text fill="#000000" font-family="Inconsolata,monospace" font-size="12" lengthAdjust="spacing" textLength="156" x="294.941" y="634.036">PSA_ERROR_INVALID_ARGUMENT</text></g><line style="stroke:#808080;stroke-width:1;stroke-dasharray:2.0,2.0;" x1="205.58" x2="850.219" y1="647.316" y2="647.316"/><text fill="#000000" font-family="Lato,sans-serif" font-size="11" font-weight="bold" lengthAdjust="spacing" textLength="110.0385" x="210.58" y="658.173">[all dependencies met]</text><g class="message" data-participant-1="service" data-participant-2="store"><line style="stroke:#000000;stroke-width:1;" x1="634.387" x2="624.387" y1="681.916" y2="677.916"/><line style="stroke:#000000;stroke-width:1;" x1="634.387" x2="624.387" y1="681.916" y2="685.916"/><line style="stroke:#000000;stroke-width:1;" x1="493.941" x2="635.387" y1="681.916" y2="681.916"/><text fill="#000000" font-family="Lato,sans-serif" font-size="12" lengthAdjust="spacing" textLength="95.934" x="500.941" y="677.36">Set STAGED state</text></g><g class="message" data-participant-1="service" data-participant-2="client"><polygon fill="#000000" points="288.941,704.504,278.941,708.504,288.941,712.504" style="stroke:#000000;stroke-width:1;"/><line style="stroke:#000000;stroke-width:1;stroke-dasharray:2.0,2.0;" x1="282.941" x2="492.941" y1="708.504" y2="708.504"/><text fill="#000000" font-family="Inconsolata,monospace" font-size="12" lengthAdjust="spacing" textLength="108" x="294.941" y="704.224">PSA_SUCCESS_REBOOT</text></g><g class="message" data-participant-1="client" data-participant-2="service"><polygon fill="#000000" points="481.941,731.092,491.941,735.092,481.941,739.092" style="stroke:#000000;stroke-width:1;"/><line style="stroke:#000000;stroke-width:1;" x1="277.941" x2="487.941" y1="735.092" y2="735.092"/><text fill="#000000" font-family="Inconsolata,monospace" font-size="12" lengthAdjust="spacing" textLength="144" x="284.941" y="730.812">psa_fwu_request_reboot()</text></g><g class="message" data-participant-1="service" data-participant-2="boot"><line style="stroke:#000000;stroke-width:1;" x1="781.873" x2="771.873" y1="763.492" y2="759.492"/><line style="stroke:#000000;stroke-width:1;" x1="781.873" x2="771.873" y1="763.492" y2="767.492"/><line style="stroke:#000000;stroke-width:1;" x1="493.941" x2="782.873" y1="763.492" y2="763.492"/><text fill="#000000" font-family="Lato,sans-serif" font-size="12" lengthAdjust="spacing" textLength="81.504" x="500.941" y="758.936">System restarts</text></g><g class="message" data-participant-1="boot" data-participant-2="store"><line style="stroke:#000000;stroke-width:1;" x1="637.387" x2="647.387" y1="791.892" y2="787.892"/><line style="stroke:#000000;stroke-width:1;" x1="637.387" x2="647.387" y1="791.892" y2="795.892"/><line style="stroke:#000000;stroke-width:1;" x1="636.387" x2="782.873" y1="791.892" y2="791.892"/><text fill="#000000" font-family="Lato,sans-serif" font-size="12" lengthAdjust="spacing" textLength="91.992" x="653.387" y="787.336">Verify new image</text></g><path d="M583.349,806.892 L637.447,806.892 L637.447,813.292 L627.447,823.292 L579.349,823.292 L579.349,810.892 A4,4 0 0 1 583.349,806.892" fill="#F0F0F0" style="stroke:#808080;stroke-width:1.5;"/><rect fill="none" height="116.8" rx="4" ry="4" style="stroke:#808080;stroke-width:1;" width="250.87" x="579.349" y="806.892"/><text fill="#000000" font-family="Lato,sans-serif" font-size="12" lengthAdjust="spacing" textLength="13.098" x="594.349" y="819.736">alt</text><text fill="#000000" font-family="Lato,sans-serif" font-size="11" font-weight="bold" lengthAdjust="spacing" textLength="85.0685" x="652.447" y="819.749">[verification fails]</text><g class="message" data-participant-1="boot" data-participant-2="store"><line style="stroke:#000000;stroke-width:1;" x1="637.387" x2="647.387" y1="843.692" y2="839.692"/><line style="stroke:#000000;stroke-width:1;" x1="637.387" x2="647.387" y1="843.692" y2="847.692"/><line style="stroke:#000000;stroke-width:1;" x1="636.387" x2="782.873" y1="843.692" y2="843.692"/><text fill="#000000" font-family="Lato,sans-serif" font-size="12" lengthAdjust="spacing" textLength="89.88" x="653.387" y="839.136">Set FAILED state</text></g><line style="stroke:#808080;stroke-width:1;stroke-dasharray:2.0,2.0;" x1="579.349" x2="830.219" y1="852.692" y2="852.692"/><text fill="#000000" font-family="Lato,sans-serif" font-size="11" font-weight="bold" lengthAdjust="spacing" textLength="109.648" x="584.349" y="863.549">[verification succeeds]</text><g class="message" data-participant-1="boot" data-participant-2="store"><line style="stroke:#000000;stroke-width:1;" x1="637.387" x2="647.387" y1="887.292" y2="883.292"/><line style="stroke:#000000;stroke-width:1;" x1="637.387" x2="647.387" y1="887.292" y2="891.292"/><line style="stroke:#000000;stroke-width:1;" x1="636.387" x2="782.873" y1="887.292" y2="887.292"/><text fill="#000000" font-family="Lato,sans-serif" font-size="12" lengthAdjust="spacing" textLength="91.074" x="653.387" y="882.736">Install new image</text></g><g class="message" data-participant-1="boot" data-participant-2="store"><line style="stroke:#000000;stroke-width:1;" x1="637.387" x2="647.387" y1="915.692" y2="911.692"/><line style="stroke:#000000;stroke-width:1;" x1="637.387" x2="647.387" y1="915.692" y2="919.692"/><line style="stroke:#000000;stroke-width:1;" x1="636.387" x2="782.873" y1="915.692" y2="915.692"/><text fill="#000000" font-family="Lato,sans-serif" font-size="12" lengthAdjust="spacing" textLength="81.642" x="653.387" y="911.136">Set TRIAL state</text></g><g class="message" data-participant-1="boot" data-participant-2="client"><polygon fill="#000000" points="288.941,947.092,278.941,951.092,288.941,955.092" style="stroke:#000000;stroke-width:1;"/><line style="stroke:#000000;stroke-width:1;" x1="282.941" x2="782.873" y1="951.092" y2="951.092"/><text fill="#000000" font-family="Lato,sans-serif" font-size="12" lengthAdjust="spacing" textLength="60.03" x="294.941" y="946.536">Boot image</text></g><path d="M219.58,966.092 L273.678,966.092 L273.678,972.492 L263.678,982.492 L215.58,982.492 L215.58,970.092 A4,4 0 0 1 219.58,966.092" fill="#F0F0F0" style="stroke:#808080;stroke-width:1.5;"/><rect fill="none" height="380.152" rx="4" ry="4" style="stroke:#808080;stroke-width:1;" width="624.639" x="215.58" y="966.092"/><text fill="#000000" font-family="Lato,sans-serif" font-size="12" lengthAdjust="spacing" textLength="13.098" x="230.58" y="978.936">alt</text><text fill="#000000" font-family="Lato,sans-serif" font-size="11" font-weight="bold" lengthAdjust="spacing" textLength="136.4275" x="288.678" y="978.949">[Component in TRIAL state]</text><g class="message" data-participant-1="client" data-participant-2="client"><line style="stroke:#000000;stroke-width:1;" x1="277.941" x2="319.941" y1="1002.892" y2="1002.892"/><line style="stroke:#000000;stroke-width:1;" x1="319.941" x2="319.941" y1="1002.892" y2="1015.892"/><line style="stroke:#000000;stroke-width:1;" x1="277.941" x2="319.941" y1="1015.892" y2="1015.892"/><line style="stroke:#000000;stroke-width:1;" x1="278.941" x2="288.941" y1="1015.892" y2="1011.892"/><line style="stroke:#000000;stroke-width:1;" x1="278.941" x2="288.941" y1="1015.892" y2="1019.892"/><text fill="#000000" font-family="Lato,sans-serif" font-size="12" lengthAdjust="spacing" textLength="126.522" x="284.941" y="998.336">Test image functionality</text></g><path d="M229.58,1030.892 L283.678,1030.892 L283.678,1037.292 L273.678,1047.292 L225.58,1047.292 L225.58,1034.892 A4,4 0 0 1 229.58,1030.892" fill="#F0F0F0" style="stroke:#808080;stroke-width:1.5;"/><rect fill="none" height="308.352" rx="4" ry="4" style="stroke:#808080;stroke-width:1;" width="604.639" x="225.58" y="1030.892"/><text fill="#000000" font-family="Lato,sans-serif" font-size="12" lengthAdjust="spacing" textLength="13.098" x="240.58" y="1043.736">alt</text><text fill="#000000" font-family="Lato,sans-serif" font-size="11" font-weight="bold" lengthAdjust="spacing" textLength="138.1545" x="298.678" y="1043.749">[update is working properly]</text><g class="message" data-participant-1="client" data-participant-2="service"><polygon fill="#000000" points="481.941,1061.88,491.941,1065.88,481.941,1069.88" style="stroke:#000000;stroke-width:1;"/><line style="stroke:#000000;stroke-width:1;" x1="277.941" x2="487.941" y1="1065.88" y2="1065.88"/><text fill="#000000" font-family="Inconsolata,monospace" font-size="12" lengthAdjust="spacing" textLength="96" x="284.941" y="1061.6">psa_fwu_accept()</text></g><g class="message" data-participant-1="service" data-participant-2="boot"><line style="stroke:#000000;stroke-width:1;" x1="781.873" x2="771.873" y1="1094.28" y2="1090.28"/><line style="stroke:#000000;stroke-width:1;" x1="781.873" x2="771.873" y1="1094.28" y2="1098.28"/><line style="stroke:#000000;stroke-width:1;" x1="493.941" x2="782.873" y1="1094.28" y2="1094.28"/><text fill="#000000" font-family="Lato,sans-serif" font-size="12" lengthAdjust="spacing" textLength="105.816" x="500.941" y="1089.724">Set UPDATED state</text></g><line style="stroke:#808080;stroke-width:1;stroke-dasharray:2.0,2.0;" x1="225.58" x2="830.219" y1="1103.28" y2="1103.28"/><text fill="#000000" font-family="Lato,sans-serif" font-size="11" font-weight="bold" lengthAdjust="spacing" textLength="63.1565" x="230.58" y="1114.137">[testing fails]</text><g class="message" data-participant-1="client" data-participant-2="service"><polygon fill="#000000" points="481.941,1132.068,491.941,1136.068,481.941,1140.068" style="stroke:#000000;stroke-width:1;"/><line style="stroke:#000000;stroke-width:1;" x1="277.941" x2="487.941" y1="1136.068" y2="1136.068"/><text fill="#000000" font-family="Inconsolata,monospace" font-size="12" lengthAdjust="spacing" textLength="96" x="284.941" y="1131.788">psa_fwu_reject()</text></g><g class="message" data-participant-1="service" data-participant-2="boot"><line style="stroke:#000000;stroke-width:1;" x1="781.873" x2="771.873" y1="1164.468" y2="1160.468"/><line style="stroke:#000000;stroke-width:1;" x1="781.873" x2="771.873" y1="1164.468" y2="1168.468"/><line style="stroke:#000000;stroke-width:1;" x1="493.941" x2="782.873" y1="1164.468" y2="1164.468"/><text fill="#000000" font-family="Lato,sans-serif" font-size="12" lengthAdjust="spacing" textLength="106.998" x="500.941" y="1159.912">Set REJECTED state</text></g><g class="message" data-participant-1="service" data-participant-2="client"><polygon fill="#000000" points="288.941,1187.056,278.941,1191.056,288.941,1195.056" style="stroke:#000000;stroke-width:1;"/><line style="stroke:#000000;stroke-width:1;stroke-dasharray:2.0,2.0;" x1="282.941" x2="492.941" y1="1191.056" y2="1191.056"/><text fill="#000000" font-family="Inconsolata,monospace" font-size="12" lengthAdjust="spacing" textLength="108" x="294.941" y="1186.776">PSA_SUCCESS_REBOOT</text></g><g class="message" data-participant-1="client" data-participant-2="service"><polygon fill="#000000" points="481.941,1213.644,491.941,1217.644,481.941,1221.644" style="stroke:#000000;stroke-width:1;"/><line style="stroke:#000000;stroke-width:1;" x1="277.941" x2="487.941" y1="1217.644" y2="1217.644"/><text fill="#000000" font-family="Inconsolata,monospace" font-size="12" lengthAdjust="spacing" textLength="144" x="284.941" y="1213.364">psa_fwu_request_reboot()</text></g><g class="message" data-participant-1="service" data-participant-2="boot"><line style="stroke:#000000;stroke-width:1;" x1="781.873" x2="771.873" y1="1246.044" y2="1242.044"/><line style="stroke:#000000;stroke-width:1;" x1="781.873" x2="771.873" y1="1246.044" y2="1250.044"/><line style="stroke:#000000;stroke-width:1;" x1="493.941" x2="782.873" y1="1246.044" y2="1246.044"/><text fill="#000000" font-family="Lato,sans-serif" font-size="12" lengthAdjust="spacing" textLength="81.504" x="500.941" y="1241.488">System restarts</text></g><g class="message" data-participant-1="boot" data-participant-2="store"><line style="stroke:#000000;stroke-width:1;" x1="637.387" x2="647.387" y1="1274.444" y2="1270.444"/><line style="stroke:#000000;stroke-width:1;" x1="637.387" x2="647.387" y1="1274.444" y2="1278.444"/><line style="stroke:#000000;stroke-width:1;" x1="636.387" x2="782.873" y1="1274.444" y2="1274.444"/><text fill="#000000" font-family="Lato,sans-serif" font-size="12" lengthAdjust="spacing" textLength="123.486" x="653.387" y="1269.888">Restore previous image</text></g><g class="message" data-participant-1="boot" data-participant-2="store"><line style="stroke:#000000;stroke-width:1;" x1="637.387" x2="647.387" y1="1302.844" y2="1298.844"/><line style="stroke:#000000;stroke-width:1;" x1="637.387" x2="647.387" y1="1302.844" y2="1306.844"/><line style="stroke:#000000;stroke-width:1;" x1="636.387" x2="782.873" y1="1302.844" y2="1302.844"/><text fill="#000000" font-family="Lato,sans-serif" font-size="12" lengthAdjust="spacing" textLength="89.88" x="653.387" y="1298.288">Set FAILED state</text></g><g class="message" data-participant-1="boot" data-participant-2="client"><polygon fill="#000000" points="288.941,1327.244,278.941,1331.244,288.941,1335.244" style="stroke:#000000;stroke-width:1;"/><line style="stroke:#000000;stroke-width:1;" x1="282.941" x2="782.873" y1="1331.244" y2="1331.244"/><text fill="#000000" font-family="Lato,sans-serif" font-size="12" lengthAdjust="spacing" textLength="60.03" x="294.941" y="1326.688">Boot image</text></g><g class="message" data-participant-1="client" data-participant-2="server"><line style="stroke:#000000;stroke-width:1;" x1="65.371" x2="75.371" y1="1380.644" y2="1376.644"/><line style="stroke:#000000;stroke-width:1;" x1="65.371" x2="75.371" y1="1380.644" y2="1384.644"/><line style="stroke:#000000;stroke-width:1;" x1="64.371" x2="276.941" y1="1380.644" y2="1380.644"/><text fill="#000000" font-family="Lato,sans-serif" font-size="12" lengthAdjust="spacing" textLength="110.586" x="81.371" y="1376.088">Report update status</text></g><g class="message" data-participant-1="client" data-participant-2="service"><polygon fill="#000000" points="481.941,1403.232,491.941,1407.232,481.941,1411.232" style="stroke:#000000;stroke-width:1;"/><line style="stroke:#000000;stroke-width:1;" x1="277.941" x2="487.941" y1="1407.232" y2="1407.232"/><text fill="#000000" font-family="Inconsolata,monospace" font-size="12" lengthAdjust="spacing" textLength="162" x="284.941" y="1402.952">psa_fwu_clean(component_id)</text></g><g class="message" data-participant-1="service" data-participant-2="store"><line style="stroke:#000000;stroke-width:1;" x1="634.387" x2="624.387" y1="1435.632" y2="1431.632"/><line style="stroke:#000000;stroke-width:1;" x1="634.387" x2="624.387" y1="1435.632" y2="1439.632"/><line style="stroke:#000000;stroke-width:1;" x1="493.941" x2="635.387" y1="1435.632" y2="1435.632"/><text fill="#000000" font-family="Lato,sans-serif" font-size="12" lengthAdjust="spacing" textLength="84.576" x="500.941" y="1431.076">Erase store area</text></g><g class="message" data-participant-1="service" data-participant-2="store"><line style="stroke:#000000;stroke-width:1;" x1="634.387" x2="624.387" y1="1464.032" y2="1460.032"/><line style="stroke:#000000;stroke-width:1;" x1="634.387" x2="624.387" y1="1464.032" y2="1468.032"/><line style="stroke:#000000;stroke-width:1;" x1="493.941" x2="635.387" y1="1464.032" y2="1464.032"/><text fill="#000000" font-family="Lato,sans-serif" font-size="12" lengthAdjust="spacing" textLength="88.578" x="500.941" y="1459.476">Set READY state</text></g></g></svg>