<?xml version="1.0" encoding="UTF-8" standalone="no"?><svg xmlns="http://www.w3.org/2000/svg" xmlns:xlink="http://www.w3.org/1999/xlink" contentStyleType="text/css" height="1509px" preserveAspectRatio="none" style="width:882px;height:1509px;background:#FFFFFF;" version="1.1" viewBox="0 0 882 1509" width="882px" zoomAndPan="magnify"><defs/><g><rect fill="#FFFFFF" height="101.2271" style="stroke:#808080;stroke-width:1.0;" width="709" x="10" y="255.4541"/><rect fill="#FFFFFF" height="831.5903" style="stroke:#808080;stroke-width:1.0;" width="671" x="204" y="540.3511"/><rect fill="#FFFFFF" height="71.6265" style="stroke:none;stroke-width:1.0;" width="671" x="204" y="584.7939"/><rect fill="#FFFFFF" height="715.521" style="stroke:none;stroke-width:1.0;" width="671" x="204" y="656.4204"/><rect fill="#FFFFFF" height="116.752" style="stroke:#808080;stroke-width:1.0;" width="250" x="605" y="819.8818"/><rect fill="#FFFFFF" height="71.9678" style="stroke:none;stroke-width:1.0;" width="250" x="605" y="864.666"/><rect fill="#FFFFFF" height="385.9155" style="stroke:#808080;stroke-width:1.0;" width="651" x="214" y="979.0259"/><rect fill="#FFFFFF" height="314.1313" style="stroke:#808080;stroke-width:1.0;" width="631" x="224" y="1043.8101"/><rect fill="#FFFFFF" height="241.2964" style="stroke:none;stroke-width:1.0;" width="631" x="224" y="1116.645"/><line style="stroke:#808080;stroke-width:0.5;stroke-dasharray:5.0,5.0;" x1="64" x2="64" y1="34.3921" y2="1502.1685"/><line style="stroke:#808080;stroke-width:0.5;stroke-dasharray:5.0,5.0;" x1="276" x2="276" y1="34.3921" y2="1502.1685"/><line style="stroke:#808080;stroke-width:0.5;stroke-dasharray:5.0,5.0;" x1="524" x2="524" y1="34.3921" y2="1502.1685"/><line style="stroke:#808080;stroke-width:0.5;stroke-dasharray:5.0,5.0;" x1="662" x2="662" y1="34.3921" y2="1502.1685"/><line style="stroke:#808080;stroke-width:0.5;stroke-dasharray:5.0,5.0;" x1="808" x2="808" y1="34.3921" y2="1502.1685"/><rect fill="#FFFFFF" height="28.3921" rx="2.5" ry="2.5" style="stroke:#000000;stroke-width:1.0;" width="88" x="20" y="5"/><text fill="#000000" font-family="Lato,sans-serif" font-size="12" lengthAdjust="spacing" textLength="74" x="27" y="23.8375">Update server</text><rect fill="#FFFFFF" height="28.3921" rx="2.5" ry="2.5" style="stroke:#000000;stroke-width:1.0;" width="84" x="234" y="5"/><text fill="#000000" font-family="Lato,sans-serif" font-size="12" lengthAdjust="spacing" textLength="70" x="241" y="23.8375">Update client</text><rect fill="#FFFFFF" height="28.3921" rx="2.5" ry="2.5" style="stroke:#000000;stroke-width:1.0;" width="92" x="478" y="5"/><text fill="#000000" font-family="Lato,sans-serif" font-size="12" lengthAdjust="spacing" textLength="78" x="485" y="23.8375">Update service</text><rect fill="#FFFFFF" height="28.3921" rx="2.5" ry="2.5" style="stroke:#000000;stroke-width:1.0;" width="94" x="615" y="5"/><text fill="#000000" font-family="Lato,sans-serif" font-size="12" lengthAdjust="spacing" textLength="80" x="622" y="23.8375">Firmware store</text><rect fill="#FFFFFF" height="28.3921" rx="2.5" ry="2.5" style="stroke:#000000;stroke-width:1.0;" width="74" x="771" y="5"/><text fill="#000000" font-family="Lato,sans-serif" font-size="12" lengthAdjust="spacing" textLength="60" x="778" y="23.8375">Bootloader</text><path d="M611,49.3921 L611,73.3921 L712,73.3921 L712,59.3921 L702,49.3921 L611,49.3921 " fill="#E8E8E8" style="stroke:#181818;stroke-width:1.0;"/><path d="M702,49.3921 L702,59.3921 L712,59.3921 L702,49.3921 " fill="#E8E8E8" style="stroke:#181818;stroke-width:1.0;"/><text fill="#000000" font-family="Lato,sans-serif" font-size="12" lengthAdjust="spacing" textLength="80" x="617" y="66.2296">In READY state</text><line style="stroke:#000000;stroke-width:1.0;" x1="274" x2="264" y1="99.1763" y2="95.1763"/><line style="stroke:#000000;stroke-width:1.0;" x1="274" x2="264" y1="99.1763" y2="103.1763"/><line style="stroke:#000000;stroke-width:1.0;" x1="64" x2="275" y1="99.1763" y2="99.1763"/><text fill="#000000" font-family="Lato,sans-serif" font-size="12" lengthAdjust="spacing" textLength="188" x="71" y="94.6217">Get information about a component</text><polygon fill="#000000" points="512,123.2271,522,127.2271,512,131.2271" style="stroke:#000000;stroke-width:1.0;"/><line style="stroke:#000000;stroke-width:1.0;" x1="276" x2="518" y1="127.2271" y2="127.2271"/><text fill="#000000" font-family="Consolas,Menlo,monospace" font-size="12" lengthAdjust="spacing" textLength="189" x="283" y="123.1646">psa_fwu_query(component_id)</text><line style="stroke:#000000;stroke-width:1.0;" x1="65" x2="75" y1="155.6191" y2="151.6191"/><line style="stroke:#000000;stroke-width:1.0;" x1="65" x2="75" y1="155.6191" y2="159.6191"/><line style="stroke:#000000;stroke-width:1.0;stroke-dasharray:2.0,2.0;" x1="64" x2="275" y1="155.6191" y2="155.6191"/><text fill="#000000" font-family="Lato,sans-serif" font-size="12" lengthAdjust="spacing" textLength="116" x="81" y="151.0645">Firmware information</text><line style="stroke:#000000;stroke-width:1.0;" x1="274" x2="264" y1="184.0112" y2="180.0112"/><line style="stroke:#000000;stroke-width:1.0;" x1="274" x2="264" y1="184.0112" y2="188.0112"/><line style="stroke:#000000;stroke-width:1.0;" x1="64" x2="275" y1="184.0112" y2="184.0112"/><text fill="#000000" font-family="Lato,sans-serif" font-size="12" lengthAdjust="spacing" textLength="168" x="71" y="179.4566">Notify that an update is available</text><polygon fill="#000000" points="512,208.062,522,212.062,512,216.062" style="stroke:#000000;stroke-width:1.0;"/><line style="stroke:#000000;stroke-width:1.0;" x1="276" x2="518" y1="212.062" y2="212.062"/><text fill="#000000" font-family="Consolas,Menlo,monospace" font-size="12" lengthAdjust="spacing" textLength="189" x="283" y="207.9995">psa_fwu_start(component_id)</text><line style="stroke:#000000;stroke-width:1.0;" x1="660" x2="650" y1="240.4541" y2="236.4541"/><line style="stroke:#000000;stroke-width:1.0;" x1="660" x2="650" y1="240.4541" y2="244.4541"/><line style="stroke:#000000;stroke-width:1.0;" x1="524" x2="661" y1="240.4541" y2="240.4541"/><text fill="#000000" font-family="Lato,sans-serif" font-size="12" lengthAdjust="spacing" textLength="98" x="531" y="235.8995">Set WRITING state</text><path d="M10,255.4541 L79,255.4541 L79,261.8462 L69,271.8462 L10,271.8462 L10,255.4541 " fill="#F0F0F0" style="stroke:#808080;stroke-width:1.5;"/><rect fill="none" height="101.2271" style="stroke:#808080;stroke-width:1.0;" width="709" x="10" y="255.4541"/><text fill="#000000" font-family="Lato,sans-serif" font-size="12" lengthAdjust="spacing" textLength="24" x="25" y="268.2916">loop</text><text fill="#000000" font-family="Lato,sans-serif" font-size="11" font-weight="bold" lengthAdjust="spacing" textLength="140" x="94" y="268.2976">[while image is downloading]</text><line style="stroke:#000000;stroke-width:1.0;" x1="274" x2="264" y1="292.2383" y2="288.2383"/><line style="stroke:#000000;stroke-width:1.0;" x1="274" x2="264" y1="292.2383" y2="296.2383"/><line style="stroke:#000000;stroke-width:1.0;" x1="64" x2="275" y1="292.2383" y2="292.2383"/><text fill="#000000" font-family="Lato,sans-serif" font-size="12" lengthAdjust="spacing" textLength="132" x="71" y="287.6837">Download block of image</text><polygon fill="#000000" points="512,316.2891,522,320.2891,512,324.2891" style="stroke:#000000;stroke-width:1.0;"/><line style="stroke:#000000;stroke-width:1.0;" x1="276" x2="518" y1="320.2891" y2="320.2891"/><text fill="#000000" font-family="Consolas,Menlo,monospace" font-size="12" lengthAdjust="spacing" textLength="224" x="283" y="316.2266">psa_fwu_write(component_id, ...)</text><line style="stroke:#000000;stroke-width:1.0;" x1="660" x2="650" y1="348.6812" y2="344.6812"/><line style="stroke:#000000;stroke-width:1.0;" x1="660" x2="650" y1="348.6812" y2="352.6812"/><line style="stroke:#000000;stroke-width:1.0;" x1="524" x2="661" y1="348.6812" y2="348.6812"/><text fill="#000000" font-family="Lato,sans-serif" font-size="12" lengthAdjust="spacing" textLength="107" x="531" y="344.1266">Write block to image</text><polygon fill="#000000" points="512,379.7319,522,383.7319,512,387.7319" style="stroke:#000000;stroke-width:1.0;"/><line style="stroke:#000000;stroke-width:1.0;" x1="276" x2="518" y1="383.7319" y2="383.7319"/><text fill="#000000" font-family="Consolas,Menlo,monospace" font-size="12" lengthAdjust="spacing" textLength="196" x="283" y="379.6694">psa_fwu_finish(component_id)</text><line style="stroke:#000000;stroke-width:1.0;" x1="660" x2="650" y1="412.124" y2="408.124"/><line style="stroke:#000000;stroke-width:1.0;" x1="660" x2="650" y1="412.124" y2="416.124"/><line style="stroke:#000000;stroke-width:1.0;" x1="524" x2="661" y1="412.124" y2="412.124"/><text fill="#000000" font-family="Lato,sans-serif" font-size="12" lengthAdjust="spacing" textLength="114" x="531" y="407.5694">Set CANDIDATE state</text><line style="stroke:#000000;stroke-width:1.0;" x1="65" x2="75" y1="440.5161" y2="436.5161"/><line style="stroke:#000000;stroke-width:1.0;" x1="65" x2="75" y1="440.5161" y2="444.5161"/><line style="stroke:#000000;stroke-width:1.0;stroke-dasharray:2.0,2.0;" x1="64" x2="275" y1="440.5161" y2="440.5161"/><text fill="#000000" font-family="Lato,sans-serif" font-size="12" lengthAdjust="spacing" textLength="143" x="81" y="435.9615">Report download complete</text><line style="stroke:#000000;stroke-width:1.0;" x1="274" x2="264" y1="468.9082" y2="464.9082"/><line style="stroke:#000000;stroke-width:1.0;" x1="274" x2="264" y1="468.9082" y2="472.9082"/><line style="stroke:#000000;stroke-width:1.0;" x1="64" x2="275" y1="468.9082" y2="468.9082"/><text fill="#000000" font-family="Lato,sans-serif" font-size="12" lengthAdjust="spacing" textLength="126" x="71" y="464.3536">Request to apply update</text><polygon fill="#000000" points="512,492.959,522,496.959,512,500.959" style="stroke:#000000;stroke-width:1.0;"/><line style="stroke:#000000;stroke-width:1.0;" x1="276" x2="518" y1="496.959" y2="496.959"/><text fill="#000000" font-family="Consolas,Menlo,monospace" font-size="12" lengthAdjust="spacing" textLength="119" x="283" y="492.8965">psa_fwu_install()</text><line style="stroke:#000000;stroke-width:1.0;" x1="660" x2="650" y1="525.3511" y2="521.3511"/><line style="stroke:#000000;stroke-width:1.0;" x1="660" x2="650" y1="525.3511" y2="529.3511"/><line style="stroke:#000000;stroke-width:1.0;" x1="524" x2="661" y1="525.3511" y2="525.3511"/><text fill="#000000" font-family="Lato,sans-serif" font-size="12" lengthAdjust="spacing" textLength="66" x="531" y="520.7965">Check image</text><path d="M204,540.3511 L262,540.3511 L262,546.7432 L252,556.7432 L204,556.7432 L204,540.3511 " fill="#F0F0F0" style="stroke:#808080;stroke-width:1.5;"/><rect fill="none" height="831.5903" style="stroke:#808080;stroke-width:1.0;" width="671" x="204" y="540.3511"/><text fill="#000000" font-family="Lato,sans-serif" font-size="12" lengthAdjust="spacing" textLength="13" x="219" y="553.1886">alt</text><text fill="#000000" font-family="Lato,sans-serif" font-size="11" font-weight="bold" lengthAdjust="spacing" textLength="103" x="277" y="553.1946">[dependency needed]</text><polygon fill="#000000" points="287,572.7939,277,576.7939,287,580.7939" style="stroke:#000000;stroke-width:1.0;"/><line style="stroke:#000000;stroke-width:1.0;stroke-dasharray:2.0,2.0;" x1="281" x2="523" y1="576.7939" y2="576.7939"/><text fill="#000000" font-family="Consolas,Menlo,monospace" font-size="12" lengthAdjust="spacing" textLength="189" x="293" y="572.7314">PSA_ERROR_DEPENDENCY_NEEDED</text><line style="stroke:#808080;stroke-width:1.0;stroke-dasharray:2.0,2.0;" x1="204" x2="875" y1="585.7939" y2="585.7939"/><text fill="#000000" font-family="Lato,sans-serif" font-size="11" font-weight="bold" lengthAdjust="spacing" textLength="138" x="209" y="596.6375">[fail firmware image checks]</text><line style="stroke:#000000;stroke-width:1.0;" x1="660" x2="650" y1="620.3696" y2="616.3696"/><line style="stroke:#000000;stroke-width:1.0;" x1="660" x2="650" y1="620.3696" y2="624.3696"/><line style="stroke:#000000;stroke-width:1.0;" x1="524" x2="661" y1="620.3696" y2="620.3696"/><text fill="#000000" font-family="Lato,sans-serif" font-size="12" lengthAdjust="spacing" textLength="86" x="531" y="615.815">Set FAILED state</text><polygon fill="#000000" points="287,644.4204,277,648.4204,287,652.4204" style="stroke:#000000;stroke-width:1.0;"/><line style="stroke:#000000;stroke-width:1.0;stroke-dasharray:2.0,2.0;" x1="281" x2="523" y1="648.4204" y2="648.4204"/><text fill="#000000" font-family="Consolas,Menlo,monospace" font-size="12" lengthAdjust="spacing" textLength="182" x="293" y="644.3579">PSA_ERROR_INVALID_ARGUMENT</text><line style="stroke:#808080;stroke-width:1.0;stroke-dasharray:2.0,2.0;" x1="204" x2="875" y1="657.4204" y2="657.4204"/><text fill="#000000" font-family="Lato,sans-serif" font-size="11" font-weight="bold" lengthAdjust="spacing" textLength="108" x="209" y="668.2639">[all dependencies met]</text><line style="stroke:#000000;stroke-width:1.0;" x1="660" x2="650" y1="691.9961" y2="687.9961"/><line style="stroke:#000000;stroke-width:1.0;" x1="660" x2="650" y1="691.9961" y2="695.9961"/><line style="stroke:#000000;stroke-width:1.0;" x1="524" x2="661" y1="691.9961" y2="691.9961"/><text fill="#000000" font-family="Lato,sans-serif" font-size="12" lengthAdjust="spacing" textLength="91" x="531" y="687.4415">Set STAGED state</text><polygon fill="#000000" points="287,716.0469,277,720.0469,287,724.0469" style="stroke:#000000;stroke-width:1.0;"/><line style="stroke:#000000;stroke-width:1.0;stroke-dasharray:2.0,2.0;" x1="281" x2="523" y1="720.0469" y2="720.0469"/><text fill="#000000" font-family="Consolas,Menlo,monospace" font-size="12" lengthAdjust="spacing" textLength="126" x="293" y="715.9844">PSA_SUCCESS_REBOOT</text><polygon fill="#000000" points="512,744.0977,522,748.0977,512,752.0977" style="stroke:#000000;stroke-width:1.0;"/><line style="stroke:#000000;stroke-width:1.0;" x1="276" x2="518" y1="748.0977" y2="748.0977"/><text fill="#000000" font-family="Consolas,Menlo,monospace" font-size="12" lengthAdjust="spacing" textLength="168" x="283" y="744.0352">psa_fwu_request_reboot()</text><line style="stroke:#000000;stroke-width:1.0;" x1="806" x2="796" y1="776.4897" y2="772.4897"/><line style="stroke:#000000;stroke-width:1.0;" x1="806" x2="796" y1="776.4897" y2="780.4897"/><line style="stroke:#000000;stroke-width:1.0;" x1="524" x2="807" y1="776.4897" y2="776.4897"/><text fill="#000000" font-family="Lato,sans-serif" font-size="12" lengthAdjust="spacing" textLength="79" x="531" y="771.9352">System restarts</text><line style="stroke:#000000;stroke-width:1.0;" x1="663" x2="673" y1="804.8818" y2="800.8818"/><line style="stroke:#000000;stroke-width:1.0;" x1="663" x2="673" y1="804.8818" y2="808.8818"/><line style="stroke:#000000;stroke-width:1.0;" x1="662" x2="807" y1="804.8818" y2="804.8818"/><text fill="#000000" font-family="Lato,sans-serif" font-size="12" lengthAdjust="spacing" textLength="89" x="679" y="800.3272">Verify new image</text><path d="M605,819.8818 L663,819.8818 L663,826.2739 L653,836.2739 L605,836.2739 L605,819.8818 " fill="#F0F0F0" style="stroke:#808080;stroke-width:1.5;"/><rect fill="none" height="116.752" style="stroke:#808080;stroke-width:1.0;" width="250" x="605" y="819.8818"/><text fill="#000000" font-family="Lato,sans-serif" font-size="12" lengthAdjust="spacing" textLength="13" x="620" y="832.7193">alt</text><text fill="#000000" font-family="Lato,sans-serif" font-size="11" font-weight="bold" lengthAdjust="spacing" textLength="86" x="678" y="832.7253">[verification fails]</text><line style="stroke:#000000;stroke-width:1.0;" x1="663" x2="673" y1="856.666" y2="852.666"/><line style="stroke:#000000;stroke-width:1.0;" x1="663" x2="673" y1="856.666" y2="860.666"/><line style="stroke:#000000;stroke-width:1.0;" x1="662" x2="807" y1="856.666" y2="856.666"/><text fill="#000000" font-family="Lato,sans-serif" font-size="12" lengthAdjust="spacing" textLength="86" x="679" y="852.1114">Set FAILED state</text><line style="stroke:#808080;stroke-width:1.0;stroke-dasharray:2.0,2.0;" x1="605" x2="855" y1="865.666" y2="865.666"/><text fill="#000000" font-family="Lato,sans-serif" font-size="11" font-weight="bold" lengthAdjust="spacing" textLength="109" x="610" y="876.5095">[verification succeeds]</text><line style="stroke:#000000;stroke-width:1.0;" x1="663" x2="673" y1="900.2417" y2="896.2417"/><line style="stroke:#000000;stroke-width:1.0;" x1="663" x2="673" y1="900.2417" y2="904.2417"/><line style="stroke:#000000;stroke-width:1.0;" x1="662" x2="807" y1="900.2417" y2="900.2417"/><text fill="#000000" font-family="Lato,sans-serif" font-size="12" lengthAdjust="spacing" textLength="89" x="679" y="895.6871">Install new image</text><line style="stroke:#000000;stroke-width:1.0;" x1="663" x2="673" y1="928.6338" y2="924.6338"/><line style="stroke:#000000;stroke-width:1.0;" x1="663" x2="673" y1="928.6338" y2="932.6338"/><line style="stroke:#000000;stroke-width:1.0;" x1="662" x2="807" y1="928.6338" y2="928.6338"/><text fill="#000000" font-family="Lato,sans-serif" font-size="12" lengthAdjust="spacing" textLength="78" x="679" y="924.0792">Set TRIAL state</text><polygon fill="#000000" points="287,960.0259,277,964.0259,287,968.0259" style="stroke:#000000;stroke-width:1.0;"/><line style="stroke:#000000;stroke-width:1.0;" x1="281" x2="807" y1="964.0259" y2="964.0259"/><text fill="#000000" font-family="Lato,sans-serif" font-size="12" lengthAdjust="spacing" textLength="59" x="293" y="959.4713">Boot image</text><path d="M214,979.0259 L272,979.0259 L272,985.418 L262,995.418 L214,995.418 L214,979.0259 " fill="#F0F0F0" style="stroke:#808080;stroke-width:1.5;"/><rect fill="none" height="385.9155" style="stroke:#808080;stroke-width:1.0;" width="651" x="214" y="979.0259"/><text fill="#000000" font-family="Lato,sans-serif" font-size="12" lengthAdjust="spacing" textLength="13" x="229" y="991.8634">alt</text><text fill="#000000" font-family="Lato,sans-serif" font-size="11" font-weight="bold" lengthAdjust="spacing" textLength="133" x="287" y="991.8694">[Component in TRIAL state]</text><line style="stroke:#000000;stroke-width:1.0;" x1="276" x2="318" y1="1015.8101" y2="1015.8101"/><line style="stroke:#000000;stroke-width:1.0;" x1="318" x2="318" y1="1015.8101" y2="1028.8101"/><line style="stroke:#000000;stroke-width:1.0;" x1="277" x2="318" y1="1028.8101" y2="1028.8101"/><line style="stroke:#000000;stroke-width:1.0;" x1="277" x2="287" y1="1028.8101" y2="1024.8101"/><line style="stroke:#000000;stroke-width:1.0;" x1="277" x2="287" y1="1028.8101" y2="1032.8101"/><text fill="#000000" font-family="Lato,sans-serif" font-size="12" lengthAdjust="spacing" textLength="124" x="283" y="1011.2555">Test image functionality</text><path d="M224,1043.8101 L282,1043.8101 L282,1050.2021 L272,1060.2021 L224,1060.2021 L224,1043.8101 " fill="#F0F0F0" style="stroke:#808080;stroke-width:1.5;"/><rect fill="none" height="314.1313" style="stroke:#808080;stroke-width:1.0;" width="631" x="224" y="1043.8101"/><text fill="#000000" font-family="Lato,sans-serif" font-size="12" lengthAdjust="spacing" textLength="13" x="239" y="1056.6476">alt</text><text fill="#000000" font-family="Lato,sans-serif" font-size="11" font-weight="bold" lengthAdjust="spacing" textLength="138" x="297" y="1056.6536">[update is working properly]</text><polygon fill="#000000" points="512,1076.2529,522,1080.2529,512,1084.2529" style="stroke:#000000;stroke-width:1.0;"/><line style="stroke:#000000;stroke-width:1.0;" x1="276" x2="518" y1="1080.2529" y2="1080.2529"/><text fill="#000000" font-family="Consolas,Menlo,monospace" font-size="12" lengthAdjust="spacing" textLength="112" x="283" y="1076.1904">psa_fwu_accept()</text><line style="stroke:#000000;stroke-width:1.0;" x1="806" x2="796" y1="1108.645" y2="1104.645"/><line style="stroke:#000000;stroke-width:1.0;" x1="806" x2="796" y1="1108.645" y2="1112.645"/><line style="stroke:#000000;stroke-width:1.0;" x1="524" x2="807" y1="1108.645" y2="1108.645"/><text fill="#000000" font-family="Lato,sans-serif" font-size="12" lengthAdjust="spacing" textLength="101" x="531" y="1104.0904">Set UPDATED state</text><line style="stroke:#808080;stroke-width:1.0;stroke-dasharray:2.0,2.0;" x1="224" x2="855" y1="1117.645" y2="1117.645"/><text fill="#000000" font-family="Lato,sans-serif" font-size="11" font-weight="bold" lengthAdjust="spacing" textLength="63" x="229" y="1128.4885">[testing fails]</text><polygon fill="#000000" points="512,1147.8794,522,1151.8794,512,1155.8794" style="stroke:#000000;stroke-width:1.0;"/><line style="stroke:#000000;stroke-width:1.0;" x1="276" x2="518" y1="1151.8794" y2="1151.8794"/><text fill="#000000" font-family="Consolas,Menlo,monospace" font-size="12" lengthAdjust="spacing" textLength="112" x="283" y="1147.8169">psa_fwu_reject()</text><line style="stroke:#000000;stroke-width:1.0;" x1="806" x2="796" y1="1180.2715" y2="1176.2715"/><line style="stroke:#000000;stroke-width:1.0;" x1="806" x2="796" y1="1180.2715" y2="1184.2715"/><line style="stroke:#000000;stroke-width:1.0;" x1="524" x2="807" y1="1180.2715" y2="1180.2715"/><text fill="#000000" font-family="Lato,sans-serif" font-size="12" lengthAdjust="spacing" textLength="103" x="531" y="1175.7169">Set REJECTED state</text><polygon fill="#000000" points="287,1204.3223,277,1208.3223,287,1212.3223" style="stroke:#000000;stroke-width:1.0;"/><line style="stroke:#000000;stroke-width:1.0;stroke-dasharray:2.0,2.0;" x1="281" x2="523" y1="1208.3223" y2="1208.3223"/><text fill="#000000" font-family="Consolas,Menlo,monospace" font-size="12" lengthAdjust="spacing" textLength="126" x="293" y="1204.2598">PSA_SUCCESS_REBOOT</text><polygon fill="#000000" points="512,1232.373,522,1236.373,512,1240.373" style="stroke:#000000;stroke-width:1.0;"/><line style="stroke:#000000;stroke-width:1.0;" x1="276" x2="518" y1="1236.373" y2="1236.373"/><text fill="#000000" font-family="Consolas,Menlo,monospace" font-size="12" lengthAdjust="spacing" textLength="168" x="283" y="1232.3105">psa_fwu_request_reboot()</text><line style="stroke:#000000;stroke-width:1.0;" x1="806" x2="796" y1="1264.7651" y2="1260.7651"/><line style="stroke:#000000;stroke-width:1.0;" x1="806" x2="796" y1="1264.7651" y2="1268.7651"/><line style="stroke:#000000;stroke-width:1.0;" x1="524" x2="807" y1="1264.7651" y2="1264.7651"/><text fill="#000000" font-family="Lato,sans-serif" font-size="12" lengthAdjust="spacing" textLength="79" x="531" y="1260.2105">System restarts</text><line style="stroke:#000000;stroke-width:1.0;" x1="663" x2="673" y1="1293.1572" y2="1289.1572"/><line style="stroke:#000000;stroke-width:1.0;" x1="663" x2="673" y1="1293.1572" y2="1297.1572"/><line style="stroke:#000000;stroke-width:1.0;" x1="662" x2="807" y1="1293.1572" y2="1293.1572"/><text fill="#000000" font-family="Lato,sans-serif" font-size="12" lengthAdjust="spacing" textLength="122" x="679" y="1288.6026">Restore previous image</text><line style="stroke:#000000;stroke-width:1.0;" x1="663" x2="673" y1="1321.5493" y2="1317.5493"/><line style="stroke:#000000;stroke-width:1.0;" x1="663" x2="673" y1="1321.5493" y2="1325.5493"/><line style="stroke:#000000;stroke-width:1.0;" x1="662" x2="807" y1="1321.5493" y2="1321.5493"/><text fill="#000000" font-family="Lato,sans-serif" font-size="12" lengthAdjust="spacing" textLength="86" x="679" y="1316.9947">Set FAILED state</text><polygon fill="#000000" points="287,1345.9414,277,1349.9414,287,1353.9414" style="stroke:#000000;stroke-width:1.0;"/><line style="stroke:#000000;stroke-width:1.0;" x1="281" x2="807" y1="1349.9414" y2="1349.9414"/><text fill="#000000" font-family="Lato,sans-serif" font-size="12" lengthAdjust="spacing" textLength="59" x="293" y="1345.3868">Boot image</text><line style="stroke:#000000;stroke-width:1.0;" x1="65" x2="75" y1="1399.3335" y2="1395.3335"/><line style="stroke:#000000;stroke-width:1.0;" x1="65" x2="75" y1="1399.3335" y2="1403.3335"/><line style="stroke:#000000;stroke-width:1.0;" x1="64" x2="275" y1="1399.3335" y2="1399.3335"/><text fill="#000000" font-family="Lato,sans-serif" font-size="12" lengthAdjust="spacing" textLength="109" x="81" y="1394.7789">Report update status</text><polygon fill="#000000" points="512,1423.3843,522,1427.3843,512,1431.3843" style="stroke:#000000;stroke-width:1.0;"/><line style="stroke:#000000;stroke-width:1.0;" x1="276" x2="518" y1="1427.3843" y2="1427.3843"/><text fill="#000000" font-family="Consolas,Menlo,monospace" font-size="12" lengthAdjust="spacing" textLength="189" x="283" y="1423.3218">psa_fwu_clean(component_id)</text><line style="stroke:#000000;stroke-width:1.0;" x1="660" x2="650" y1="1455.7764" y2="1451.7764"/><line style="stroke:#000000;stroke-width:1.0;" x1="660" x2="650" y1="1455.7764" y2="1459.7764"/><line style="stroke:#000000;stroke-width:1.0;" x1="524" x2="661" y1="1455.7764" y2="1455.7764"/><text fill="#000000" font-family="Lato,sans-serif" font-size="12" lengthAdjust="spacing" textLength="83" x="531" y="1451.2218">Erase store area</text><line style="stroke:#000000;stroke-width:1.0;" x1="660" x2="650" y1="1484.1685" y2="1480.1685"/><line style="stroke:#000000;stroke-width:1.0;" x1="660" x2="650" y1="1484.1685" y2="1488.1685"/><line style="stroke:#000000;stroke-width:1.0;" x1="524" x2="661" y1="1484.1685" y2="1484.1685"/><text fill="#000000" font-family="Lato,sans-serif" font-size="12" lengthAdjust="spacing" textLength="85" x="531" y="1479.6139">Set READY state</text></g></svg>