<svg xmlns="http://www.w3.org/2000/svg" xmlns:xlink="http://www.w3.org/1999/xlink" contentStyleType="text/css" data-diagram-type="DESCRIPTION" height="247px" preserveAspectRatio="none" style="width:691px;height:247px;background:#FFFFFF55;" version="1.1" viewBox="0 0 691 247" width="691px" zoomAndPan="magnify"><defs/><g><rect fill="#FFFFFF" fill-opacity="0.33333" height="247" style="stroke:none;stroke-width:1;" width="691" x="0" y="0"/><!--cluster Device--><g class="cluster" data-entity="Device" data-source-line="16" data-uid="ent0003" id="cluster_Device"><rect fill="#FFFFFF" fill-opacity="0.56471" height="234.8" style="stroke:#8B0000;stroke-width:1;stroke-dasharray:7.0,7.0;" width="544" x="141.06" y="7"/><text fill="#000000" font-family="Lato,sans-serif" font-size="11" font-style="italic" lengthAdjust="spacing" textLength="76.6865" x="374.7168" y="19.857">&#171;trust boundary&#187;</text><text fill="#000000" font-family="Lato,sans-serif" font-size="11" font-weight="bold" lengthAdjust="spacing" textLength="34.0175" x="396.0512" y="33.057">Device</text></g><!--entity client--><g class="entity" data-entity="client" data-source-line="17" data-uid="ent0004" id="entity_client"><rect fill="#7D868C" height="48.8" rx="4" ry="4" width="90.722" x="156.7" y="62.8"/><text fill="#FFFFFF" font-family="Lato,sans-serif" font-size="12" font-style="italic" lengthAdjust="spacing" textLength="28.278" x="187.922" y="84.644">&#171;app&#187;</text><text fill="#FFFFFF" font-family="Lato,sans-serif" font-size="12" lengthAdjust="spacing" textLength="70.722" x="166.7" y="99.044">Update client</text></g><!--entity api--><g class="entity" data-entity="api" data-source-line="18" data-uid="ent0005" id="entity_api"><ellipse cx="291.06" cy="87.2" fill="#95D600" rx="8" ry="8" style="stroke:#7D868C;stroke-width:1;"/><text fill="#000000" font-family="Lato,sans-serif" font-size="12" lengthAdjust="spacing" textLength="6.144" x="260.193" y="116.044">&#160;&#160;</text><text fill="#000000" font-family="Lato,sans-serif" font-size="12" font-weight="bold" lengthAdjust="spacing" textLength="50.97" x="266.337" y="116.044">Firmware</text><text fill="#000000" font-family="Lato,sans-serif" font-size="12" font-weight="bold" lengthAdjust="spacing" textLength="61.734" x="260.193" y="130.444">Update API</text></g><!--entity service--><g class="entity" data-entity="service" data-source-line="19" data-uid="ent0006" id="entity_service"><rect fill="#0091BD" height="48.8" rx="4" ry="4" width="98.984" x="334.57" y="62.8"/><text fill="#FFFFFF" font-family="Lato,sans-serif" font-size="12" font-style="italic" lengthAdjust="spacing" textLength="41.358" x="363.383" y="84.644">&#171;library&#187;</text><text fill="#FFFFFF" font-family="Lato,sans-serif" font-size="12" lengthAdjust="spacing" textLength="78.984" x="344.57" y="99.044">Update service</text></g><!--entity store--><g class="entity" data-entity="store" data-source-line="20" data-uid="ent0007" id="entity_store"><path d="M396.03,192.4 C396.03,182.4 446.068,182.4 446.068,182.4 C446.068,182.4 496.106,182.4 496.106,192.4 L496.106,215.8 C496.106,225.8 446.068,225.8 446.068,225.8 C446.068,225.8 396.03,225.8 396.03,215.8 L396.03,192.4" fill="#E5ECEB" style="stroke:#7D868C;stroke-width:1;"/><path d="M396.03,192.4 C396.03,202.4 446.068,202.4 446.068,202.4 C446.068,202.4 496.106,202.4 496.106,192.4" fill="none" style="stroke:#7D868C;stroke-width:1;"/><text fill="#000000" font-family="Lato,sans-serif" font-size="12" lengthAdjust="spacing" textLength="80.076" x="406.03" y="218.244">Firmware store</text></g><!--entity bootloader--><g class="entity" data-entity="bootloader" data-source-line="21" data-uid="ent0008" id="entity_bootloader"><rect fill="#0091BD" height="34.4" rx="4" ry="4" width="78.692" x="468.72" y="70"/><text fill="#FFFFFF" font-family="Lato,sans-serif" font-size="12" lengthAdjust="spacing" textLength="58.692" x="478.72" y="91.844">Bootloader</text></g><!--entity anchor--><g class="entity" data-entity="anchor" data-source-line="22" data-uid="ent0009" id="entity_anchor"><text fill="#000000" font-family="Lato,sans-serif" font-size="30" lengthAdjust="spacing" textLength="23.04" x="592.58" y="91.61">&#160;&#160;&#160;</text><path d="M630.37,70.5 C626.92,70.5 624.12,73.3 624.12,76.75 C624.12,77.15 624.12,77.55 624.195,77.925 L616.62,85.5 L616.62,90.5 L624.12,90.5 L624.12,85.5 L629.12,85.5 L629.12,83 L629.195,82.925 C629.57,83 629.97,83 630.37,83 C633.82,83 636.62,80.2 636.62,76.75 C636.62,73.3 633.82,70.5 630.37,70.5 M631.62,73 C632.995,73 634.12,74.125 634.12,75.5 C634.12,76.875 632.995,78 631.62,78 C630.245,78 629.12,76.875 629.12,75.5 C629.12,74.125 630.245,73 631.62,73" fill="#000000"/><text fill="#000000" font-family="Lato,sans-serif" font-size="12" lengthAdjust="spacing" textLength="66.972" x="592.58" y="109.844">Trust anchor</text></g><!--entity firmware--><g class="entity" data-entity="firmware" data-source-line="14" data-uid="ent0002" id="entity_firmware"><path d="M6,66.8 L6,107.6 A4,4 0 0 0 10,111.6 L118.126,111.6 A4,4 0 0 0 122.126,107.6 L122.126,72.8 L112.126,62.8 L10,62.8 A4,4 0 0 0 6,66.8" fill="#002B49" style="stroke:#181818;stroke-width:0.5;"/><path d="M112.126,62.8 L112.126,68.8 A4,4 0 0 0 116.126,72.8 L122.126,72.8" fill="#002B49" style="stroke:#181818;stroke-width:0.5;"/><text fill="#FFFFFF" font-family="Lato,sans-serif" font-size="12" font-style="italic" lengthAdjust="spacing" textLength="32.328" x="47.899" y="84.644">&#171;data&#187;</text><text fill="#FFFFFF" font-family="Lato,sans-serif" font-size="12" lengthAdjust="spacing" textLength="96.126" x="16" y="99.044">Firmware package</text></g><!--link firmware to client--><g class="link" data-entity-1="firmware" data-entity-2="client" data-source-line="25" data-uid="lnk10" id="link_firmware_client"><path d="M122.55,87.2 C133.84,87.2 139.12,87.2 150.41,87.2" fill="none" id="firmware-to-client" style="stroke:#000000;stroke-width:1;"/><polygon fill="#000000" points="156.41,87.2,147.41,83.2,151.41,87.2,147.41,91.2,156.41,87.2" style="stroke:#000000;stroke-width:1;"/></g><!--link client to api--><g class="link" data-entity-1="client" data-entity-2="api" data-source-line="26" data-uid="lnk11" id="link_client_api"><path d="M247.61,87.2 C259.04,87.2 270.47,87.2 281.9,87.2" fill="none" id="client-api" style="stroke:#000000;stroke-width:1;"/></g><!--link api to service--><g class="link" data-entity-1="api" data-entity-2="service" data-source-line="27" data-uid="lnk12" id="link_api_service"><path d="M300.51,87.2 C311.71,87.2 316.92,87.2 328.13,87.2" fill="none" id="api-to-service" style="stroke:#000000;stroke-width:1;"/><polygon fill="#000000" points="334.13,87.2,325.13,83.2,329.13,87.2,325.13,91.2,334.13,87.2" style="stroke:#000000;stroke-width:1;"/></g><!--link service to store--><g class="link" data-entity-1="service" data-entity-2="store" data-source-line="28" data-uid="lnk13" id="link_service_store"><path d="M396.91,112.01 C408.05,132.65 421.1616,156.9492 431.8416,176.7492" fill="none" id="service-to-store" style="stroke:#000000;stroke-width:1;"/><polygon fill="#000000" points="434.69,182.03,433.9379,172.2099,432.3163,177.6294,426.8969,176.0078,434.69,182.03" style="stroke:#000000;stroke-width:1;"/></g><!--link service to bootloader--><!--link bootloader to store--><g class="link" data-entity-1="bootloader" data-entity-2="store" data-source-line="30" data-uid="lnk15" id="link_bootloader_store"><path d="M499.18,104.66 C488.2,125.02 472.3397,154.4099 460.3097,176.6999" fill="none" id="bootloader-to-store" style="stroke:#000000;stroke-width:1;"/><polygon fill="#000000" points="457.46,181.98,465.2546,175.9597,459.8347,177.5799,458.2145,172.1601,457.46,181.98" style="stroke:#000000;stroke-width:1;"/></g><!--link bootloader to anchor--><g class="link" data-entity-1="bootloader" data-entity-2="anchor" data-source-line="31" data-uid="lnk16" id="link_bootloader_anchor"><path d="M547.7,87.2 C559.23,87.2 564.76,87.2 576.29,87.2" fill="none" id="bootloader-to-anchor" style="stroke:#000000;stroke-width:1;"/><polygon fill="#000000" points="582.29,87.2,573.29,83.2,577.29,87.2,573.29,91.2,582.29,87.2" style="stroke:#000000;stroke-width:1;"/></g></g></svg>