<svg xmlns="http://www.w3.org/2000/svg" xmlns:xlink="http://www.w3.org/1999/xlink" contentStyleType="text/css" data-diagram-type="DESCRIPTION" height="324px" preserveAspectRatio="none" style="width:924px;height:324px;background:#FFFFFF55;" version="1.1" viewBox="0 0 924 324" width="924px" zoomAndPan="magnify"><defs/><g><rect fill="#FFFFFF" fill-opacity="0.33333" height="324" style="stroke:none;stroke-width:1;" width="924" x="0" y="0"/><!--cluster Device--><g class="cluster" data-entity="Device" data-source-line="16" data-uid="ent0003" id="cluster_Device"><rect fill="#FFFFFF" fill-opacity="0.56471" height="311.8" style="stroke:#8B0000;stroke-width:1;stroke-dasharray:7.0,7.0;" width="780" x="138.06" y="7"/><text fill="#000000" font-family="Lato,sans-serif" font-size="11" font-style="italic" lengthAdjust="spacing" textLength="76.6865" x="489.7168" y="19.857">&#171;trust boundary&#187;</text><text fill="#000000" font-family="Lato,sans-serif" font-size="11" font-weight="bold" lengthAdjust="spacing" textLength="34.0175" x="511.0512" y="33.057">Device</text></g><g class="cluster" data-entity="##4" data-source-line="26" data-uid="ent0005" id="cluster_##4"><rect fill="none" height="96.8" style="stroke:none;stroke-width:1;" width="342" x="162.06" y="83.8"/></g><!--cluster rot--><g class="cluster" data-entity="rot" data-source-line="16" data-uid="ent0009" id="cluster_rot"><rect fill="#FFFFFF" fill-opacity="0.56471" height="234.8" style="stroke:#8B0000;stroke-width:1;stroke-dasharray:7.0,7.0;" width="366" x="528.06" y="60"/><text fill="#000000" font-family="Lato,sans-serif" font-size="11" font-style="italic" lengthAdjust="spacing" textLength="76.6865" x="672.7168" y="72.857">&#171;trust boundary&#187;</text><text fill="#000000" font-family="Lato,sans-serif" font-size="11" font-weight="bold" lengthAdjust="spacing" textLength="110.715" x="655.7025" y="86.057">Platform Root of Trust</text></g><!--entity client--><g class="entity" data-entity="client" data-source-line="18" data-uid="ent0006" id="entity_client"><rect fill="#7D868C" height="48.8" rx="4" ry="4" width="90.722" x="177.7" y="115.8"/><text fill="#FFFFFF" font-family="Lato,sans-serif" font-size="12" font-style="italic" lengthAdjust="spacing" textLength="28.278" x="208.922" y="137.644">&#171;app&#187;</text><text fill="#FFFFFF" font-family="Lato,sans-serif" font-size="12" lengthAdjust="spacing" textLength="70.722" x="187.7" y="152.044">Update client</text></g><!--entity api--><g class="entity" data-entity="api" data-source-line="19" data-uid="ent0007" id="entity_api"><ellipse cx="312.06" cy="140.2" fill="#95D600" rx="8" ry="8" style="stroke:#7D868C;stroke-width:1;"/><text fill="#000000" font-family="Lato,sans-serif" font-size="12" lengthAdjust="spacing" textLength="6.144" x="281.193" y="169.044">&#160;&#160;</text><text fill="#000000" font-family="Lato,sans-serif" font-size="12" font-weight="bold" lengthAdjust="spacing" textLength="50.97" x="287.337" y="169.044">Firmware</text><text fill="#000000" font-family="Lato,sans-serif" font-size="12" font-weight="bold" lengthAdjust="spacing" textLength="61.734" x="281.193" y="183.444">Update API</text></g><!--entity proxy--><g class="entity" data-entity="proxy" data-source-line="20" data-uid="ent0008" id="entity_proxy"><rect fill="#0091BD" height="48.8" rx="4" ry="4" width="132.116" x="356.01" y="115.8"/><text fill="#FFFFFF" font-family="Lato,sans-serif" font-size="12" font-style="italic" lengthAdjust="spacing" textLength="41.358" x="401.389" y="137.644">&#171;library&#187;</text><text fill="#FFFFFF" font-family="Lato,sans-serif" font-size="12" lengthAdjust="spacing" textLength="112.116" x="366.01" y="152.044">Update service proxy</text></g><!--entity service--><g class="entity" data-entity="service" data-source-line="23" data-uid="ent0010" id="entity_service"><rect fill="#0091BD" height="48.8" rx="4" ry="4" width="98.984" x="543.57" y="115.8"/><text fill="#FFFFFF" font-family="Lato,sans-serif" font-size="12" font-style="italic" lengthAdjust="spacing" textLength="66.402" x="559.861" y="137.644">&#171;RoT service&#187;</text><text fill="#FFFFFF" font-family="Lato,sans-serif" font-size="12" lengthAdjust="spacing" textLength="78.984" x="553.57" y="152.044">Update service</text></g><!--entity store--><g class="entity" data-entity="store" data-source-line="24" data-uid="ent0011" id="entity_store"><path d="M605.03,245.4 C605.03,235.4 655.068,235.4 655.068,235.4 C655.068,235.4 705.106,235.4 705.106,245.4 L705.106,268.8 C705.106,278.8 655.068,278.8 655.068,278.8 C655.068,278.8 605.03,278.8 605.03,268.8 L605.03,245.4" fill="#E5ECEB" style="stroke:#7D868C;stroke-width:1;"/><path d="M605.03,245.4 C605.03,255.4 655.068,255.4 655.068,255.4 C655.068,255.4 705.106,255.4 705.106,245.4" fill="none" style="stroke:#7D868C;stroke-width:1;"/><text fill="#000000" font-family="Lato,sans-serif" font-size="12" lengthAdjust="spacing" textLength="80.076" x="615.03" y="271.244">Firmware store</text></g><!--entity bootloader--><g class="entity" data-entity="bootloader" data-source-line="25" data-uid="ent0012" id="entity_bootloader"><rect fill="#0091BD" height="34.4" rx="4" ry="4" width="78.692" x="677.72" y="123"/><text fill="#FFFFFF" font-family="Lato,sans-serif" font-size="12" lengthAdjust="spacing" textLength="58.692" x="687.72" y="144.844">Bootloader</text></g><!--entity anchor--><g class="entity" data-entity="anchor" data-source-line="26" data-uid="ent0013" id="entity_anchor"><text fill="#000000" font-family="Lato,sans-serif" font-size="30" lengthAdjust="spacing" textLength="23.04" x="801.58" y="144.61">&#160;&#160;&#160;</text><path d="M839.37,123.5 C835.92,123.5 833.12,126.3 833.12,129.75 C833.12,130.15 833.12,130.55 833.195,130.925 L825.62,138.5 L825.62,143.5 L833.12,143.5 L833.12,138.5 L838.12,138.5 L838.12,136 L838.195,135.925 C838.57,136 838.97,136 839.37,136 C842.82,136 845.62,133.2 845.62,129.75 C845.62,126.3 842.82,123.5 839.37,123.5 M840.62,126 C841.995,126 843.12,127.125 843.12,128.5 C843.12,129.875 841.995,131 840.62,131 C839.245,131 838.12,129.875 838.12,128.5 C838.12,127.125 839.245,126 840.62,126" fill="#000000"/><text fill="#000000" font-family="Lato,sans-serif" font-size="12" lengthAdjust="spacing" textLength="66.972" x="801.58" y="162.844">Trust anchor</text></g><!--entity firmware--><g class="entity" data-entity="firmware" data-source-line="14" data-uid="ent0002" id="entity_firmware"><path d="M6,119.8 L6,160.6 A4,4 0 0 0 10,164.6 L118.126,164.6 A4,4 0 0 0 122.126,160.6 L122.126,125.8 L112.126,115.8 L10,115.8 A4,4 0 0 0 6,119.8" fill="#002B49" style="stroke:#181818;stroke-width:0.5;"/><path d="M112.126,115.8 L112.126,121.8 A4,4 0 0 0 116.126,125.8 L122.126,125.8" fill="#002B49" style="stroke:#181818;stroke-width:0.5;"/><text fill="#FFFFFF" font-family="Lato,sans-serif" font-size="12" font-style="italic" lengthAdjust="spacing" textLength="32.328" x="47.899" y="137.644">&#171;data&#187;</text><text fill="#FFFFFF" font-family="Lato,sans-serif" font-size="12" lengthAdjust="spacing" textLength="96.126" x="16" y="152.044">Firmware package</text></g><!--link firmware to client--><g class="link" data-entity-1="firmware" data-entity-2="client" data-source-line="30" data-uid="lnk14" id="link_firmware_client"><path d="M122.45,140.2 C140.79,140.2 153.13,140.2 171.47,140.2" fill="none" id="firmware-to-client" style="stroke:#000000;stroke-width:1;"/><polygon fill="#000000" points="177.47,140.2,168.47,136.2,172.47,140.2,168.47,144.2,177.47,140.2" style="stroke:#000000;stroke-width:1;"/></g><!--link client to api--><g class="link" data-entity-1="client" data-entity-2="api" data-source-line="31" data-uid="lnk15" id="link_client_api"><path d="M268.61,140.2 C280.04,140.2 291.47,140.2 302.9,140.2" fill="none" id="client-api" style="stroke:#000000;stroke-width:1;"/></g><!--link api to proxy--><g class="link" data-entity-1="api" data-entity-2="proxy" data-source-line="32" data-uid="lnk16" id="link_api_proxy"><path d="M321.52,140.2 C332.91,140.2 338.3,140.2 349.69,140.2" fill="none" id="api-to-proxy" style="stroke:#000000;stroke-width:1;"/><polygon fill="#000000" points="355.69,140.2,346.69,136.2,350.69,140.2,346.69,144.2,355.69,140.2" style="stroke:#000000;stroke-width:1;"/></g><!--link proxy to service--><!--link proxy to service--><!--link proxy to service--><g class="link" data-entity-1="proxy" data-entity-2="service" data-source-line="35" data-uid="lnk19" id="link_proxy_service"><path d="M488.53,140.2 C506.77,140.2 519,140.2 537.24,140.2" fill="none" id="proxy-to-service" style="stroke:#000000;stroke-width:1;"/><polygon fill="#000000" points="543.24,140.2,534.24,136.2,538.24,140.2,534.24,144.2,543.24,140.2" style="stroke:#000000;stroke-width:1;"/></g><!--link proxy to service--><!--link proxy to service--><!--link proxy to service--><!--link service to store--><g class="link" data-entity-1="service" data-entity-2="store" data-source-line="39" data-uid="lnk23" id="link_service_store"><path d="M605.91,165.01 C617.05,185.65 630.1616,209.9492 640.8416,229.7492" fill="none" id="service-to-store" style="stroke:#000000;stroke-width:1;"/><polygon fill="#000000" points="643.69,235.03,642.9379,225.2099,641.3163,230.6294,635.8969,229.0078,643.69,235.03" style="stroke:#000000;stroke-width:1;"/></g><!--link service to bootloader--><!--link bootloader to store--><g class="link" data-entity-1="bootloader" data-entity-2="store" data-source-line="41" data-uid="lnk25" id="link_bootloader_store"><path d="M708.18,157.66 C697.2,178.02 681.3397,207.4099 669.3097,229.6999" fill="none" id="bootloader-to-store" style="stroke:#000000;stroke-width:1;"/><polygon fill="#000000" points="666.46,234.98,674.2546,228.9597,668.8347,230.5799,667.2145,225.1601,666.46,234.98" style="stroke:#000000;stroke-width:1;"/></g><!--link bootloader to anchor--><g class="link" data-entity-1="bootloader" data-entity-2="anchor" data-source-line="42" data-uid="lnk26" id="link_bootloader_anchor"><path d="M756.7,140.2 C768.23,140.2 773.76,140.2 785.29,140.2" fill="none" id="bootloader-to-anchor" style="stroke:#000000;stroke-width:1;"/><polygon fill="#000000" points="791.29,140.2,782.29,136.2,786.29,140.2,782.29,144.2,791.29,140.2" style="stroke:#000000;stroke-width:1;"/></g></g></svg>