<?xml version="1.0" encoding="UTF-8" standalone="no"?><svg xmlns="http://www.w3.org/2000/svg" xmlns:xlink="http://www.w3.org/1999/xlink" contentStyleType="text/css" height="248px" preserveAspectRatio="none" style="width:693px;height:248px;background:#FFFFFF;" version="1.1" viewBox="0 0 693 248" width="693px" zoomAndPan="magnify"><defs/><g><!--MD5=[eba421ac8e20ac42f3ee759fe6c4cf96]
cluster Device--><g id="cluster_Device"><rect fill="#FFFFFF" fill-opacity="0.56471" height="235" rx="2.5" ry="2.5" style="stroke:#8B0000;stroke-width:1.0;stroke-dasharray:7.0,7.0;" width="546" x="141" y="7"/><text fill="#000000" font-family="Lato,sans-serif" font-size="11" font-style="italic" lengthAdjust="spacing" textLength="79" x="374.5" y="19.8435">«trust boundary»</text><text fill="#000000" font-family="Lato,sans-serif" font-size="12" font-weight="bold" lengthAdjust="spacing" textLength="36" x="396" y="34.0211">Device</text></g><!--MD5=[4a65e84059005d12693a083370a06717]
entity client--><g id="elem_client"><rect fill="#7D868C" height="48.7842" rx="2.5" ry="2.5" style="stroke:#000000;stroke-width:0.0;" width="90" x="157" y="63.5"/><text fill="#FFFFFF" font-family="Lato,sans-serif" font-size="12" font-style="italic" lengthAdjust="spacing" textLength="28" x="188" y="85.3375">«app»</text><text fill="#FFFFFF" font-family="Lato,sans-serif" font-size="12" lengthAdjust="spacing" textLength="70" x="167" y="99.7296">Update client</text></g><!--MD5=[e2307af040e3f87d22824e7603ca28ec]
entity api--><g id="elem_api"><ellipse cx="291" cy="88" fill="#95D600" rx="8" ry="8" style="stroke:#7D868C;stroke-width:1.0;"/><text fill="#000000" font-family="Lato,sans-serif" font-size="12" font-weight="bold" lengthAdjust="spacing" textLength="51" x="263.5" y="116.8375">Firmware</text><text fill="#000000" font-family="Lato,sans-serif" font-size="12" font-weight="bold" lengthAdjust="spacing" textLength="63" x="259.5" y="131.2296">Update API</text></g><!--MD5=[38bfa9dc6018363cafe15f923a4b8db9]
entity service--><g id="elem_service"><rect fill="#0091BD" height="48.7842" rx="2.5" ry="2.5" style="stroke:#000000;stroke-width:0.0;" width="98" x="335" y="63.5"/><text fill="#FFFFFF" font-family="Lato,sans-serif" font-size="12" font-style="italic" lengthAdjust="spacing" textLength="42" x="363" y="85.3375">«library»</text><text fill="#FFFFFF" font-family="Lato,sans-serif" font-size="12" lengthAdjust="spacing" textLength="78" x="345" y="99.7296">Update service</text></g><!--MD5=[0686720d71d32ea68f81164171d509ce]
entity store--><g id="elem_store"><path d="M396,193 C396,183 446,183 446,183 C446,183 496,183 496,193 L496,216.3921 C496,226.3921 446,226.3921 446,226.3921 C446,226.3921 396,226.3921 396,216.3921 L396,193 " fill="#E5ECEB" style="stroke:#7D868C;stroke-width:1.0;"/><path d="M396,193 C396,203 446,203 446,203 C446,203 496,203 496,193 " fill="none" style="stroke:#7D868C;stroke-width:1.0;"/><text fill="#000000" font-family="Lato,sans-serif" font-size="12" lengthAdjust="spacing" textLength="80" x="406" y="218.8375">Firmware store</text></g><!--MD5=[f9240c011011a8880de7611d65d98344]
entity bootloader--><g id="elem_bootloader"><rect fill="#0091BD" height="34.3921" rx="2.5" ry="2.5" style="stroke:#000000;stroke-width:0.0;" width="80" x="468" y="71"/><text fill="#FFFFFF" font-family="Lato,sans-serif" font-size="12" lengthAdjust="spacing" textLength="60" x="478" y="92.8375">Bootloader</text></g><!--MD5=[a1d80d162cf33dbf0d7c31b4bedbc473]
entity anchor--><g id="elem_anchor"><text fill="#000000" font-family="Lato,sans-serif" font-size="30" lengthAdjust="spacing" textLength="24" x="593" y="92.6088">    </text><path d="M631.75,71.4985 C628.3,71.4985 625.5,74.2985 625.5,77.7485 C625.5,78.1485 625.5,78.5485 625.575,78.9235 L618,86.4985 L618,91.4985 L625.5,91.4985 L625.5,86.4985 L630.5,86.4985 L630.5,83.9985 L630.575,83.9235 C630.95,83.9985 631.35,83.9985 631.75,83.9985 C635.2,83.9985 638,81.1985 638,77.7485 C638,74.2985 635.2,71.4985 631.75,71.4985 M633,73.9985 C634.375,73.9985 635.5,75.1235 635.5,76.4985 C635.5,77.8735 634.375,78.9985 633,78.9985 C631.625,78.9985 630.5,77.8735 630.5,76.4985 C630.5,75.1235 631.625,73.9985 633,73.9985 " fill="#000000" style="stroke:;stroke-width:0.0;stroke-dasharray:;"/><text fill="#000000" font-family="Lato,sans-serif" font-size="12" lengthAdjust="spacing" textLength="68" x="593" y="110.836">Trust anchor</text></g><!--MD5=[58217b6c08e0cd02a707d278675c808a]
entity firmware--><g id="elem_firmware"><path d="M6,66 L6,109.7842 A2.5,2.5 0 0 0 8.5,112.2842 L119.5,112.2842 A2.5,2.5 0 0 0 122,109.7842 L122,73.5 L112,63.5 L8.5,63.5 A2.5,2.5 0 0 0 6,66 " fill="#002B49" style="stroke:#181818;stroke-width:0.5;"/><path d="M112,63.5 L112,71 A2.5,2.5 0 0 0 114.5,73.5 L122,73.5 " fill="#002B49" style="stroke:#181818;stroke-width:0.5;"/><text fill="#FFFFFF" font-family="Lato,sans-serif" font-size="12" font-style="italic" lengthAdjust="spacing" textLength="32" x="48" y="85.3375">«data»</text><text fill="#FFFFFF" font-family="Lato,sans-serif" font-size="12" lengthAdjust="spacing" textLength="96" x="16" y="99.7296">Firmware package</text></g><!--MD5=[28525ddf0b7d7e7b100a755743e0b912]
link firmware to client--><g id="link_firmware_client"><path d="M122.22,88 C132.04,88 141.86,88 151.68,88 " fill="none" id="firmware-to-client" style="stroke:#000000;stroke-width:1.0;"/><polygon fill="#000000" points="156.81,88,147.81,84,151.81,88,147.81,92,156.81,88" style="stroke:#000000;stroke-width:1.0;"/></g><!--MD5=[d4ad1d5275391ca8d3acb292d4b26dc5]
link client to api--><g id="link_client_api"><path d="M247.2,88 C258.72,88 270.24,88 281.76,88 " fill="none" id="client-api" style="stroke:#000000;stroke-width:1.0;"/></g><!--MD5=[1c521d26b07f62f1c62f7b4ad904b4ec]
link api to service--><g id="link_api_service"><path d="M300.08,88 C309.95,88 319.81,88 329.67,88 " fill="none" id="api-to-service" style="stroke:#000000;stroke-width:1.0;"/><polygon fill="#000000" points="334.83,88,325.83,84,329.83,88,325.83,92,334.83,88" style="stroke:#000000;stroke-width:1.0;"/></g><!--MD5=[ed03d9e8372767f52fa40155923214fd]
link service to store--><g id="link_service_store"><path d="M396.85,112.72 C407.18,131.81 421.67,158.56 432.24,178.08 " fill="none" id="service-to-store" style="stroke:#000000;stroke-width:1.0;"/><polygon fill="#000000" points="434.83,182.88,434.0812,173.0596,432.4578,178.4786,427.0389,176.8552,434.83,182.88" style="stroke:#000000;stroke-width:1.0;"/></g><!--MD5=[b2c3693cc77b3eda2064568fff50fa14]
link service to bootloader--><!--MD5=[00736459551cbf36f84ac77ffa3c6a29]
link bootloader to store--><g id="link_bootloader_store"><path d="M499.12,105.41 C488.8,124.46 471.67,156.1 459.66,178.28 " fill="none" id="bootloader-to-store" style="stroke:#000000;stroke-width:1.0;"/><polygon fill="#000000" points="457.18,182.86,464.9944,176.8654,459.5692,178.4678,457.9669,173.0426,457.18,182.86" style="stroke:#000000;stroke-width:1.0;"/></g><!--MD5=[466027522076a6f4dd292722ab549de4]
link bootloader to anchor--><g id="link_bootloader_anchor"><path d="M548.44,88 C558.2,88 567.95,88 577.71,88 " fill="none" id="bootloader-to-anchor" style="stroke:#000000;stroke-width:1.0;"/><polygon fill="#000000" points="582.81,88,573.81,84,577.81,88,573.81,92,582.81,88" style="stroke:#000000;stroke-width:1.0;"/></g></g></svg>