<?xml version="1.0" encoding="UTF-8" standalone="no"?><svg xmlns="http://www.w3.org/2000/svg" xmlns:xlink="http://www.w3.org/1999/xlink" contentStyleType="text/css" height="594px" preserveAspectRatio="none" style="width:288px;height:594px;background:#FFFFFF;" version="1.1" viewBox="0 0 288 594" width="288px" zoomAndPan="magnify"><defs/><g><rect fill="#FFFFFF" height="40" rx="12.5" ry="12.5" style="stroke:#000000;stroke-width:1.0;" width="50" x="141.5" y="7"/><text fill="#000000" font-family="Lato,sans-serif" font-size="12" lengthAdjust="spacing" textLength="40" x="146.5" y="31.6414">READY</text><rect fill="#FFFFFF" height="40" rx="12.5" ry="12.5" style="stroke:#000000;stroke-width:1.0;" width="63" x="51" y="123"/><text fill="#000000" font-family="Lato,sans-serif" font-size="12" lengthAdjust="spacing" textLength="53" x="56" y="147.6414">WRITING</text><rect fill="#FFFFFF" height="40" rx="12.5" ry="12.5" style="stroke:#000000;stroke-width:1.0;" width="79" x="43" y="239"/><text fill="#000000" font-family="Lato,sans-serif" font-size="12" lengthAdjust="spacing" textLength="69" x="48" y="263.6414">CANDIDATE</text><rect fill="#FFFFFF" height="40" rx="12.5" ry="12.5" style="stroke:#000000;stroke-width:1.0;" width="51" x="201" y="239"/><text fill="#000000" font-family="Lato,sans-serif" font-size="12" lengthAdjust="spacing" textLength="41" x="206" y="263.6414">FAILED</text><rect fill="#FFFFFF" height="40" rx="12.5" ry="12.5" style="stroke:#000000;stroke-width:1.0;" width="66" x="49.5" y="369"/><text fill="#000000" font-family="Lato,sans-serif" font-size="12" lengthAdjust="spacing" textLength="56" x="54.5" y="393.6414">UPDATED</text><rect fill="#FFFFFF" height="40" rx="12.5" ry="12.5" style="stroke:#000000;stroke-width:1.0;" width="50" x="57.5" y="485"/><text fill="#000000" font-family="Lato,sans-serif" font-size="12" lengthAdjust="spacing" textLength="40" x="62.5" y="509.6414">READY</text><!--MD5=[28b091a9324bc665227cbdd5c64568c5]
link Start to Writing--><g id="link_Start_Writing"><path d="M152.44,47.08 C137.9,66.81 115.19,97.63 99.62,118.76 " fill="none" id="Start-to-Writing" style="stroke:#0000FF;stroke-width:1.0;"/><polygon fill="#0000FF" points="96.61,122.86,105.1714,117.9914,99.5779,118.8362,98.7332,113.2427,96.61,122.86" style="stroke:#0000FF;stroke-width:1.0;"/><text fill="#000000" font-family="Consolas,Menlo,monospace" font-size="12" lengthAdjust="spacing" textLength="35" x="131.5" y="89.9883">start</text></g><!--MD5=[809ec20dfa1295c4642186e63aa045f8]
link Writing to Writing--><g id="link_Writing_Writing"><path d="M114.32,132.68 C132.33,130.67 149,134.11 149,143 C149,151.06 135.31,154.64 119.33,153.74 " fill="none" id="Writing-to-Writing" style="stroke:#0000FF;stroke-width:1.0;"/><polygon fill="#0000FF" points="114.32,153.32,122.9444,158.0761,119.3016,153.7482,123.6295,150.1055,114.32,153.32" style="stroke:#0000FF;stroke-width:1.0;"/><text fill="#000000" font-family="Consolas,Menlo,monospace" font-size="12" lengthAdjust="spacing" textLength="35" x="155" y="147.9883">write</text></g><!--MD5=[c452d5c1487cc0f2a16ec09e1ebeb498]
link Writing to Candidate--><g id="link_Writing_Candidate"><path d="M82.5,163.08 C82.5,182.48 82.5,212.61 82.5,233.7 " fill="none" id="Writing-to-Candidate" style="stroke:#0000FF;stroke-width:1.0;"/><polygon fill="#0000FF" points="82.5,238.86,86.5,229.86,82.5,233.86,78.5,229.86,82.5,238.86" style="stroke:#0000FF;stroke-width:1.0;"/><text fill="#000000" font-family="Consolas,Menlo,monospace" font-size="12" lengthAdjust="spacing" textLength="42" x="83.5" y="205.9883">finish</text></g><!--MD5=[1e580f2a5c35a06e4aed74591dc8f2d0]
link Writing to Failed--><g id="link_Writing_Failed"><path d="M106.6,163.08 C131.83,183.06 171.43,214.4 198.15,235.55 " fill="none" id="Writing-to-Failed" style="stroke:#0000FF;stroke-width:1.0;"/><polygon fill="#0000FF" points="202.32,238.86,197.7326,230.1448,198.3949,235.7627,192.7769,236.425,202.32,238.86" style="stroke:#0000FF;stroke-width:1.0;"/><text fill="#000000" font-family="Consolas,Menlo,monospace" font-size="12" lengthAdjust="spacing" textLength="42" x="164.5" y="205.9883">cancel</text></g><!--MD5=[39663e6301ccb4f092a8fe255e191b3e]
link Candidate to Updated--><g id="link_Candidate_Updated"><path d="M82.5,279.16 C82.5,301.69 82.5,339.11 82.5,363.67 " fill="none" id="Candidate-to-Updated" style="stroke:#8B0000;stroke-width:1.0;"/><polygon fill="#8B0000" points="82.5,368.71,86.5,359.71,82.5,363.71,78.5,359.71,82.5,368.71" style="stroke:#8B0000;stroke-width:1.0;"/><text fill="#000000" font-family="Consolas,Menlo,monospace" font-size="12" lengthAdjust="spacing" textLength="49" x="92" y="322.3296">install</text><text fill="#000000" font-family="Lato,sans-serif" font-size="12" lengthAdjust="spacing" textLength="3" x="141" y="321.8375">:</text><text fill="#000000" font-family="Lato,sans-serif" font-size="12" font-style="italic" lengthAdjust="spacing" textLength="69" x="83.5" y="336.2296">install success</text></g><!--MD5=[6e8b06a321fbf587dbbb055d0b4e0f9e]
link Candidate to Failed--><g id="link_Candidate_Failed"><path d="M122.23,259 C145.5,259 174.45,259 195.94,259 " fill="none" id="Candidate-to-Failed" style="stroke:#0000FF;stroke-width:1.0;"/><polygon fill="#0000FF" points="200.95,259,191.95,255,195.95,259,191.95,263,200.95,259" style="stroke:#0000FF;stroke-width:1.0;"/><text fill="#000000" font-family="Consolas,Menlo,monospace" font-size="12" lengthAdjust="spacing" textLength="42" x="140.5" y="252.9883">cancel</text></g><!--MD5=[71ab68107f7e180decc84935bd3705da]
reverse link Start to Failed--><g id="link_Start_Failed"><path d="M174.8,51.95 C185.57,83.8 204.3,142.03 215.5,193 C218.87,208.31 221.78,225.85 223.76,238.85 " fill="none" id="Start-backto-Failed" style="stroke:#0000FF;stroke-width:1.0;"/><polygon fill="#0000FF" points="173.15,47.07,172.2722,56.8797,174.7654,51.8019,179.8432,54.295,173.15,47.07" style="stroke:#0000FF;stroke-width:1.0;"/><text fill="#000000" font-family="Consolas,Menlo,monospace" font-size="12" lengthAdjust="spacing" textLength="35" x="208.5" y="147.9883">clean</text></g><!--MD5=[43a8c4662c8a2715cf5aeba88f635b26]
link Updated to End--><g id="link_Updated_End"><path d="M82.5,409.08 C82.5,428.48 82.5,458.61 82.5,479.7 " fill="none" id="Updated-to-End" style="stroke:#0000FF;stroke-width:1.0;"/><polygon fill="#0000FF" points="82.5,484.86,86.5,475.86,82.5,479.86,78.5,475.86,82.5,484.86" style="stroke:#0000FF;stroke-width:1.0;"/><text fill="#000000" font-family="Consolas,Menlo,monospace" font-size="12" lengthAdjust="spacing" textLength="35" x="83.5" y="451.9883">clean</text></g><rect fill="#DDDDDD" height="40.7842" id="_legend" rx="7.5" ry="7.5" style="stroke:#000000;stroke-width:1.0;" width="264" x="8" y="538"/><text fill="#0000FF" font-family="Consolas,Menlo,monospace" font-size="12" lengthAdjust="spacing" text-decoration="line-through" textLength="21" x="14" y="556.3296">———</text><text fill="#000000" font-family="Lato,sans-serif" font-size="12" lengthAdjust="spacing" textLength="229" x="37" y="555.8375">Blue transitions apply to a single component</text><text fill="#8B0000" font-family="Consolas,Menlo,monospace" font-size="12" lengthAdjust="spacing" text-decoration="line-through" textLength="21" x="14" y="570.7217">———</text><text fill="#000000" font-family="Lato,sans-serif" font-size="12" lengthAdjust="spacing" textLength="205" x="37" y="570.2296">Red transitions apply to all components</text></g></svg>