<?xml version="1.0" encoding="UTF-8" standalone="no"?><svg xmlns="http://www.w3.org/2000/svg" xmlns:xlink="http://www.w3.org/1999/xlink" contentStyleType="text/css" height="898px" preserveAspectRatio="none" style="width:394px;height:898px;background:#FFFFFF;" version="1.1" viewBox="0 0 394 898" width="394px" zoomAndPan="magnify"><defs/><g><rect fill="#FFFFFF" height="40" rx="12.5" ry="12.5" style="stroke:#000000;stroke-width:1.0;" width="50" x="52.18" y="7"/><text fill="#000000" font-family="Lato,sans-serif" font-size="12" lengthAdjust="spacing" textLength="40" x="57.18" y="31.6414">READY</text><rect fill="#FFFFFF" height="40" rx="12.5" ry="12.5" style="stroke:#000000;stroke-width:1.0;" width="72" x="41.18" y="123"/><text fill="#000000" font-family="Lato,sans-serif" font-size="12" lengthAdjust="spacing" textLength="62" x="46.18" y="147.6414">WRITING †</text><rect fill="#FFFFFF" height="40" rx="12.5" ry="12.5" style="stroke:#000000;stroke-width:1.0;" width="88" x="37.18" y="253"/><text fill="#000000" font-family="Lato,sans-serif" font-size="12" lengthAdjust="spacing" textLength="78" x="42.18" y="277.6414">CANDIDATE †</text><rect fill="#FFFFFF" height="40" rx="12.5" ry="12.5" style="stroke:#000000;stroke-width:1.0;" width="63" x="49.68" y="369"/><text fill="#000000" font-family="Lato,sans-serif" font-size="12" lengthAdjust="spacing" textLength="53" x="54.68" y="393.6414">STAGED *</text><rect fill="#FFFFFF" height="40" rx="12.5" ry="12.5" style="stroke:#000000;stroke-width:1.0;" width="60" x="204.18" y="253"/><text fill="#000000" font-family="Lato,sans-serif" font-size="12" lengthAdjust="spacing" textLength="50" x="209.18" y="277.6414">FAILED ‡</text><rect fill="#FFFFFF" height="40" rx="12.5" ry="12.5" style="stroke:#000000;stroke-width:1.0;" width="75" x="184.68" y="499"/><text fill="#000000" font-family="Lato,sans-serif" font-size="12" lengthAdjust="spacing" textLength="65" x="189.68" y="523.6414">REJECTED *</text><rect fill="#FFFFFF" height="40" rx="12.5" ry="12.5" style="stroke:#000000;stroke-width:1.0;" width="50" x="56.18" y="499"/><text fill="#000000" font-family="Lato,sans-serif" font-size="12" lengthAdjust="spacing" textLength="40" x="61.18" y="523.6414">TRIAL *</text><rect fill="#FFFFFF" height="40" rx="12.5" ry="12.5" style="stroke:#000000;stroke-width:1.0;" width="75" x="43.68" y="615"/><text fill="#000000" font-family="Lato,sans-serif" font-size="12" lengthAdjust="spacing" textLength="65" x="48.68" y="639.6414">UPDATED ‡</text><rect fill="#FFFFFF" height="40" rx="12.5" ry="12.5" style="stroke:#000000;stroke-width:1.0;" width="50" x="56.18" y="731"/><text fill="#000000" font-family="Lato,sans-serif" font-size="12" lengthAdjust="spacing" textLength="40" x="61.18" y="755.6414">READY</text><!--MD5=[28b091a9324bc665227cbdd5c64568c5]
link Start to Writing--><g id="link_Start_Writing"><path d="M77.18,47.08 C77.18,66.48 77.18,96.61 77.18,117.7 " fill="none" id="Start-to-Writing" style="stroke:#0000FF;stroke-width:1.0;"/><polygon fill="#0000FF" points="77.18,122.86,81.18,113.86,77.18,117.86,73.18,113.86,77.18,122.86" style="stroke:#0000FF;stroke-width:1.0;"/><text fill="#000000" font-family="Consolas,Menlo,monospace" font-size="12" lengthAdjust="spacing" textLength="35" x="78.18" y="89.9883">start</text></g><!--MD5=[809ec20dfa1295c4642186e63aa045f8]
link Writing to Writing--><g id="link_Writing_Writing"><path d="M113.35,132.48 C131.71,130.94 148.18,134.45 148.18,143 C148.18,150.75 134.66,154.36 118.45,153.82 " fill="none" id="Writing-to-Writing" style="stroke:#0000FF;stroke-width:1.0;"/><polygon fill="#0000FF" points="113.35,153.52,122.1064,158.0284,118.3418,153.8061,122.5641,150.0415,113.35,153.52" style="stroke:#0000FF;stroke-width:1.0;"/><text fill="#000000" font-family="Consolas,Menlo,monospace" font-size="12" lengthAdjust="spacing" textLength="35" x="154.18" y="147.9883">write</text></g><!--MD5=[c452d5c1487cc0f2a16ec09e1ebeb498]
link Writing to Candidate--><g id="link_Writing_Candidate"><path d="M77.78,163.16 C78.49,185.69 79.66,223.11 80.42,247.67 " fill="none" id="Writing-to-Candidate" style="stroke:#0000FF;stroke-width:1.0;"/><polygon fill="#0000FF" points="80.58,252.71,84.2953,243.5888,80.4229,247.7125,76.2993,243.8401,80.58,252.71" style="stroke:#0000FF;stroke-width:1.0;"/><text fill="#000000" font-family="Consolas,Menlo,monospace" font-size="12" lengthAdjust="spacing" textLength="42" x="81.18" y="212.9883">finish</text></g><!--MD5=[1e580f2a5c35a06e4aed74591dc8f2d0]
link Writing to Failed--><g id="link_Writing_Failed"><path d="M100.69,163.16 C129.1,186.32 176.81,225.23 206.84,249.71 " fill="none" id="Writing-to-Failed" style="stroke:#0000FF;stroke-width:1.0;"/><polygon fill="#0000FF" points="210.77,252.92,206.3426,244.1224,206.9021,249.7515,201.273,250.311,210.77,252.92" style="stroke:#0000FF;stroke-width:1.0;"/><text fill="#000000" font-family="Consolas,Menlo,monospace" font-size="12" lengthAdjust="spacing" textLength="42" x="171.18" y="212.9883">cancel</text></g><!--MD5=[86e4efad9860276429e6c81242466072]
link Candidate to Staged--><g id="link_Candidate_Staged"><path d="M81.18,293.08 C81.18,312.48 81.18,342.61 81.18,363.7 " fill="none" id="Candidate-to-Staged" style="stroke:#8B0000;stroke-width:1.0;"/><polygon fill="#8B0000" points="81.18,368.86,85.18,359.86,81.18,363.86,77.18,359.86,81.18,368.86" style="stroke:#8B0000;stroke-width:1.0;"/><text fill="#000000" font-family="Consolas,Menlo,monospace" font-size="12" lengthAdjust="spacing" textLength="49" x="82.18" y="335.9883">install</text></g><!--MD5=[6e8b06a321fbf587dbbb055d0b4e0f9e]
link Candidate to Failed--><g id="link_Candidate_Failed"><path d="M125.44,273 C148.8,273 177.09,273 198.95,273 " fill="none" id="Candidate-to-Failed" style="stroke:#0000FF;stroke-width:1.0;"/><polygon fill="#0000FF" points="204.08,273,195.08,269,199.08,273,195.08,277,204.08,273" style="stroke:#0000FF;stroke-width:1.0;"/><text fill="#000000" font-family="Consolas,Menlo,monospace" font-size="12" lengthAdjust="spacing" textLength="42" x="143.68" y="266.9883">cancel</text></g><!--MD5=[d4d7d25629e036e3232ad0960ebf72b6]
link Staged to Trial--><g id="link_Staged_Trial"><path d="M81.18,409.16 C81.18,431.69 81.18,469.11 81.18,493.67 " fill="none" id="Staged-to-Trial" style="stroke:#8B0000;stroke-width:1.0;stroke-dasharray:7.0,7.0;"/><polygon fill="#8B0000" points="81.18,498.71,85.18,489.71,81.18,493.71,77.18,489.71,81.18,498.71" style="stroke:#8B0000;stroke-width:1.0;"/><text fill="#000000" font-family="Consolas,Menlo,monospace" font-size="12" lengthAdjust="spacing" textLength="42" x="94.18" y="452.3296">reboot</text><text fill="#000000" font-family="Lato,sans-serif" font-size="12" lengthAdjust="spacing" textLength="3" x="136.18" y="451.8375">:</text><text fill="#000000" font-family="Lato,sans-serif" font-size="12" font-style="italic" lengthAdjust="spacing" textLength="69" x="82.18" y="466.2296">install success</text></g><!--MD5=[eacffd36cc353625a90275c9e72e0fef]
reverse link Start to Staged--><g id="link_Start_Staged"><path d="M60.89,51.66 C48.79,70.27 32.78,97.27 23.18,123 C7.49,165.05 6,178.24 9.18,223 C11.41,254.35 8.11,263.59 19.18,293 C30.01,321.75 50.66,350.74 65.15,369 " fill="none" id="Start-backto-Staged" style="stroke:#8B0000;stroke-width:1.0;stroke-dasharray:7.0,7.0;"/><polygon fill="#8B0000" points="63.87,47.11,55.5831,52.4324,61.123,51.2878,62.2676,56.8276,63.87,47.11" style="stroke:#8B0000;stroke-width:1.0;"/><text fill="#000000" font-family="Consolas,Menlo,monospace" font-size="12" lengthAdjust="spacing" textLength="42" x="17.68" y="206.3296">reboot</text><text fill="#000000" font-family="Lato,sans-serif" font-size="12" lengthAdjust="spacing" textLength="3" x="59.68" y="205.8375">:</text><text fill="#000000" font-family="Lato,sans-serif" font-size="12" font-style="italic" lengthAdjust="spacing" textLength="60" x="10.18" y="220.2296">install failed</text></g><!--MD5=[6b849a9d54236769877241b12840d8d2]
reverse link Failed to Staged--><g id="link_Failed_Staged"><path d="M204.49,296.12 C176.13,317.25 133.83,348.78 106.88,368.86 " fill="none" id="Failed-backto-Staged" style="stroke:#8B0000;stroke-width:1.0;"/><polygon fill="#8B0000" points="208.57,293.08,198.965,295.258,204.5631,296.0708,203.7503,301.669,208.57,293.08" style="stroke:#8B0000;stroke-width:1.0;"/><text fill="#000000" font-family="Consolas,Menlo,monospace" font-size="12" lengthAdjust="spacing" textLength="42" x="168.18" y="335.9883">reject</text></g><!--MD5=[4d415c9b773123c37ce42f12237de1fc]
link Trial to Updated--><g id="link_Trial_Updated"><path d="M81.18,539.08 C81.18,558.48 81.18,588.61 81.18,609.7 " fill="none" id="Trial-to-Updated" style="stroke:#8B0000;stroke-width:1.0;"/><polygon fill="#8B0000" points="81.18,614.86,85.18,605.86,81.18,609.86,77.18,605.86,81.18,614.86" style="stroke:#8B0000;stroke-width:1.0;"/><text fill="#000000" font-family="Consolas,Menlo,monospace" font-size="12" lengthAdjust="spacing" textLength="42" x="82.18" y="581.9883">accept</text></g><!--MD5=[71ab68107f7e180decc84935bd3705da]
reverse link Start to Failed--><g id="link_Start_Failed"><path d="M107.04,45.62 C133.41,62.52 171.29,90.27 195.18,123 C224.19,162.74 231.65,222.33 233.55,252.7 " fill="none" id="Start-backto-Failed" style="stroke:#0000FF;stroke-width:1.0;"/><polygon fill="#0000FF" points="102.58,42.79,108.0524,50.9786,106.8071,45.4605,112.3252,44.2152,102.58,42.79" style="stroke:#0000FF;stroke-width:1.0;"/><text fill="#000000" font-family="Consolas,Menlo,monospace" font-size="12" lengthAdjust="spacing" textLength="35" x="216.18" y="147.9883">clean</text></g><!--MD5=[0e454c04805c581ac20ac591376a7319]
link Trial to Rejected--><g id="link_Trial_Rejected"><path d="M106.39,519 C126.65,519 155.57,519 179.44,519 " fill="none" id="Trial-to-Rejected" style="stroke:#8B0000;stroke-width:1.0;"/><polygon fill="#8B0000" points="184.45,519,175.45,515,179.45,519,175.45,523,184.45,519" style="stroke:#8B0000;stroke-width:1.0;"/><text fill="#000000" font-family="Consolas,Menlo,monospace" font-size="12" lengthAdjust="spacing" textLength="42" x="124.43" y="512.9883">reject</text></g><!--MD5=[3089035991b4c829587ae61693af258f]
link Rejected to Start--><g id="link_Rejected_Start"><path d="M239.51,498.79 C275.56,456.54 354.04,351.42 338.18,253 C324.18,166.06 323.5,120.94 247.18,77 C202.28,51.15 142.73,38.09 107.34,32.19 " fill="none" id="Rejected-to-Start" style="stroke:#8B0000;stroke-width:1.0;stroke-dasharray:7.0,7.0;"/><polygon fill="#8B0000" points="102.3,31.37,110.5453,36.7566,107.2358,32.1689,111.8235,28.8593,102.3,31.37" style="stroke:#8B0000;stroke-width:1.0;"/><text fill="#000000" font-family="Consolas,Menlo,monospace" font-size="12" lengthAdjust="spacing" textLength="42" x="341.18" y="271.3296">reboot</text><text fill="#000000" font-family="Lato,sans-serif" font-size="12" lengthAdjust="spacing" textLength="3" x="383.18" y="270.8375">:</text><text fill="#000000" font-family="Lato,sans-serif" font-size="12" font-style="italic" lengthAdjust="spacing" textLength="39" x="344.18" y="285.2296">rollback</text></g><!--MD5=[1702ef5424d23cfbbcd46821c1ae6d3c]
link Trial to Start--><g id="link_Trial_Start"><path d="M106.49,504.65 C121.88,495.79 141.36,483.2 156.18,469 C236.43,392.1 291.49,363.75 282.18,253 C277.28,194.61 292.99,171.56 260.18,123 C224.37,69.98 149.36,44.69 107.34,34.25 " fill="none" id="Trial-to-Start" style="stroke:#8B0000;stroke-width:1.0;stroke-dasharray:7.0,7.0;"/><polygon fill="#8B0000" points="102.39,33.05,110.2013,39.0486,107.2506,34.2223,112.077,31.2716,102.39,33.05" style="stroke:#8B0000;stroke-width:1.0;"/><text fill="#000000" font-family="Consolas,Menlo,monospace" font-size="12" lengthAdjust="spacing" textLength="42" x="284.18" y="271.3296">reboot</text><text fill="#000000" font-family="Lato,sans-serif" font-size="12" lengthAdjust="spacing" textLength="3" x="326.18" y="270.8375">:</text><text fill="#000000" font-family="Lato,sans-serif" font-size="12" font-style="italic" lengthAdjust="spacing" textLength="39" x="287.18" y="285.2296">rollback</text></g><!--MD5=[43a8c4662c8a2715cf5aeba88f635b26]
link Updated to End--><g id="link_Updated_End"><path d="M81.18,655.08 C81.18,674.48 81.18,704.61 81.18,725.7 " fill="none" id="Updated-to-End" style="stroke:#0000FF;stroke-width:1.0;"/><polygon fill="#0000FF" points="81.18,730.86,85.18,721.86,81.18,725.86,77.18,721.86,81.18,730.86" style="stroke:#0000FF;stroke-width:1.0;"/><text fill="#000000" font-family="Consolas,Menlo,monospace" font-size="12" lengthAdjust="spacing" textLength="35" x="82.18" y="697.9883">clean</text></g><rect fill="#DDDDDD" height="98.3525" id="_legend" rx="7.5" ry="7.5" style="stroke:#000000;stroke-width:1.0;" width="337" x="21.59" y="784"/><text fill="#0000FF" font-family="Consolas,Menlo,monospace" font-size="12" lengthAdjust="spacing" text-decoration="line-through" textLength="21" x="27.59" y="802.3296">———</text><text fill="#000000" font-family="Lato,sans-serif" font-size="12" lengthAdjust="spacing" textLength="229" x="50.59" y="801.8375">Blue transitions apply to a single component</text><text fill="#8B0000" font-family="Consolas,Menlo,monospace" font-size="12" lengthAdjust="spacing" text-decoration="line-through" textLength="21" x="27.59" y="816.7217">———</text><text fill="#000000" font-family="Lato,sans-serif" font-size="12" lengthAdjust="spacing" textLength="205" x="50.59" y="816.2296">Red transitions apply to all components</text><text fill="#000000" font-family="Consolas,Menlo,monospace" font-size="12" lengthAdjust="spacing" textLength="21" x="27.59" y="831.1138">---</text><text fill="#000000" font-family="Lato,sans-serif" font-size="12" lengthAdjust="spacing" textLength="197" x="50.59" y="830.6217">Dashed lines indicate a transition over</text><text fill="#000000" font-family="Lato,sans-serif" font-size="12" font-weight="bold" lengthAdjust="spacing" textLength="37" x="249.59" y="830.6217">reboot</text><text fill="#000000" font-family="Consolas,Menlo,monospace" font-size="12" lengthAdjust="spacing" textLength="7" x="34.59" y="845.5059">*</text><text fill="#000000" font-family="Lato,sans-serif" font-size="12" lengthAdjust="spacing" textLength="150" x="50.59" y="845.0138">Transient state: transitions at</text><text fill="#000000" font-family="Lato,sans-serif" font-size="12" font-weight="bold" lengthAdjust="spacing" textLength="37" x="202.59" y="845.0138">reboot</text><text fill="#000000" font-family="Consolas,Menlo,monospace" font-size="12" lengthAdjust="spacing" textLength="7" x="34.59" y="859.8979">†</text><text fill="#000000" font-family="Lato,sans-serif" font-size="12" lengthAdjust="spacing" textLength="80" x="50.59" y="859.4059">Transient state:</text><text fill="#000000" font-family="Lato,sans-serif" font-size="12" font-weight="bold" lengthAdjust="spacing" textLength="37" x="132.59" y="859.4059">reboot</text><text fill="#000000" font-family="Lato,sans-serif" font-size="12" lengthAdjust="spacing" textLength="78" x="171.59" y="859.4059">is equivalent to</text><text fill="#000000" font-family="Consolas,Menlo,monospace" font-size="12" lengthAdjust="spacing" textLength="42" x="251.59" y="859.8979">cancel</text><text fill="#000000" font-family="Lato,sans-serif" font-size="12" lengthAdjust="spacing" textLength="20" x="295.59" y="859.4059">and</text><text fill="#000000" font-family="Consolas,Menlo,monospace" font-size="12" lengthAdjust="spacing" textLength="35" x="317.59" y="859.8979">clean</text><text fill="#000000" font-family="Consolas,Menlo,monospace" font-size="12" lengthAdjust="spacing" textLength="7" x="34.59" y="874.29">‡</text><text fill="#000000" font-family="Lato,sans-serif" font-size="12" lengthAdjust="spacing" textLength="80" x="50.59" y="873.7979">Transient state:</text><text fill="#000000" font-family="Lato,sans-serif" font-size="12" font-weight="bold" lengthAdjust="spacing" textLength="37" x="132.59" y="873.7979">reboot</text><text fill="#000000" font-family="Lato,sans-serif" font-size="12" lengthAdjust="spacing" textLength="78" x="171.59" y="873.7979">is equivalent to</text><text fill="#000000" font-family="Consolas,Menlo,monospace" font-size="12" lengthAdjust="spacing" textLength="35" x="251.59" y="874.29">clean</text></g></svg>