<?xml version="1.0" encoding="UTF-8" standalone="no"?><svg xmlns="http://www.w3.org/2000/svg" xmlns:xlink="http://www.w3.org/1999/xlink" contentStyleType="text/css" height="753px" preserveAspectRatio="none" style="width:305px;height:753px;background:#FFFFFF;" version="1.1" viewBox="0 0 305 753" width="305px" zoomAndPan="magnify"><defs/><g><rect fill="#FFFFFF" height="40" rx="12.5" ry="12.5" style="stroke:#000000;stroke-width:1.0;" width="50" x="131.75" y="7"/><text fill="#000000" font-family="Lato,sans-serif" font-size="12" lengthAdjust="spacing" textLength="40" x="136.75" y="31.6414">READY</text><rect fill="#FFFFFF" height="40" rx="12.5" ry="12.5" style="stroke:#000000;stroke-width:1.0;" width="63" x="41.25" y="123"/><text fill="#000000" font-family="Lato,sans-serif" font-size="12" lengthAdjust="spacing" textLength="53" x="46.25" y="147.6414">WRITING</text><rect fill="#FFFFFF" height="40" rx="12.5" ry="12.5" style="stroke:#000000;stroke-width:1.0;" width="79" x="33.25" y="239"/><text fill="#000000" font-family="Lato,sans-serif" font-size="12" lengthAdjust="spacing" textLength="69" x="38.25" y="263.6414">CANDIDATE</text><rect fill="#FFFFFF" height="40" rx="12.5" ry="12.5" style="stroke:#000000;stroke-width:1.0;" width="63" x="132.25" y="369"/><text fill="#000000" font-family="Lato,sans-serif" font-size="12" lengthAdjust="spacing" textLength="53" x="137.25" y="393.6414">STAGED *</text><rect fill="#FFFFFF" height="40" rx="12.5" ry="12.5" style="stroke:#000000;stroke-width:1.0;" width="51" x="191.25" y="239"/><text fill="#000000" font-family="Lato,sans-serif" font-size="12" lengthAdjust="spacing" textLength="41" x="196.25" y="263.6414">FAILED</text><rect fill="#FFFFFF" height="40" rx="12.5" ry="12.5" style="stroke:#000000;stroke-width:1.0;" width="66" x="130.75" y="499"/><text fill="#000000" font-family="Lato,sans-serif" font-size="12" lengthAdjust="spacing" textLength="56" x="135.75" y="523.6414">UPDATED</text><rect fill="#FFFFFF" height="40" rx="12.5" ry="12.5" style="stroke:#000000;stroke-width:1.0;" width="50" x="138.75" y="615"/><text fill="#000000" font-family="Lato,sans-serif" font-size="12" lengthAdjust="spacing" textLength="40" x="143.75" y="639.6414">READY</text><!--MD5=[c97380125423de60894e9813730c5eee]
link Start to Staging--><g id="link_Start_Staging"><path d="M142.69,47.08 C128.15,66.81 105.44,97.63 89.87,118.76 " fill="none" id="Start-to-Staging" style="stroke:#0000FF;stroke-width:1.0;"/><polygon fill="#0000FF" points="86.86,122.86,95.4214,117.9914,89.8279,118.8362,88.9832,113.2427,86.86,122.86" style="stroke:#0000FF;stroke-width:1.0;"/><text fill="#000000" font-family="Consolas,Menlo,monospace" font-size="12" lengthAdjust="spacing" textLength="35" x="121.75" y="89.9883">start</text></g><!--MD5=[0b0aafcdfecf859159d0f59d797aa148]
link Staging to Staging--><g id="link_Staging_Staging"><path d="M104.57,132.68 C122.58,130.67 139.25,134.11 139.25,143 C139.25,151.06 125.56,154.64 109.58,153.74 " fill="none" id="Staging-to-Staging" style="stroke:#0000FF;stroke-width:1.0;"/><polygon fill="#0000FF" points="104.57,153.32,113.1944,158.0761,109.5516,153.7482,113.8795,150.1055,104.57,153.32" style="stroke:#0000FF;stroke-width:1.0;"/><text fill="#000000" font-family="Consolas,Menlo,monospace" font-size="12" lengthAdjust="spacing" textLength="35" x="145.25" y="147.9883">write</text></g><!--MD5=[99c0e08106d1440140b42f50458793ab]
link Staging to Candidate--><g id="link_Staging_Candidate"><path d="M72.75,163.08 C72.75,182.48 72.75,212.61 72.75,233.7 " fill="none" id="Staging-to-Candidate" style="stroke:#0000FF;stroke-width:1.0;"/><polygon fill="#0000FF" points="72.75,238.86,76.75,229.86,72.75,233.86,68.75,229.86,72.75,238.86" style="stroke:#0000FF;stroke-width:1.0;"/><text fill="#000000" font-family="Consolas,Menlo,monospace" font-size="12" lengthAdjust="spacing" textLength="42" x="73.75" y="205.9883">finish</text></g><!--MD5=[5385c45c5e18a6878cdeccd1eaad970d]
link Staging to Failed--><g id="link_Staging_Failed"><path d="M96.85,163.08 C122.08,183.06 161.68,214.4 188.4,235.55 " fill="none" id="Staging-to-Failed" style="stroke:#0000FF;stroke-width:1.0;"/><polygon fill="#0000FF" points="192.57,238.86,187.9826,230.1448,188.6449,235.7627,183.0269,236.425,192.57,238.86" style="stroke:#0000FF;stroke-width:1.0;"/><text fill="#000000" font-family="Consolas,Menlo,monospace" font-size="12" lengthAdjust="spacing" textLength="42" x="154.75" y="205.9883">cancel</text></g><!--MD5=[6e8b06a321fbf587dbbb055d0b4e0f9e]
link Candidate to Failed--><g id="link_Candidate_Failed"><path d="M112.48,259 C135.75,259 164.7,259 186.19,259 " fill="none" id="Candidate-to-Failed" style="stroke:#0000FF;stroke-width:1.0;"/><polygon fill="#0000FF" points="191.2,259,182.2,255,186.2,259,182.2,263,191.2,259" style="stroke:#0000FF;stroke-width:1.0;"/><text fill="#000000" font-family="Consolas,Menlo,monospace" font-size="12" lengthAdjust="spacing" textLength="42" x="130.75" y="252.9883">cancel</text></g><!--MD5=[86e4efad9860276429e6c81242466072]
link Candidate to Staged--><g id="link_Candidate_Staged"><path d="M73.82,279.11 C75.6,296.15 80.32,321.11 92.75,339 C101.66,351.82 115.08,362.32 127.86,370.27 " fill="none" id="Candidate-to-Staged" style="stroke:#8B0000;stroke-width:1.0;"/><polygon fill="#8B0000" points="132.17,372.86,126.5303,364.7857,127.8888,370.277,122.3975,371.6356,132.17,372.86" style="stroke:#8B0000;stroke-width:1.0;"/><text fill="#000000" font-family="Consolas,Menlo,monospace" font-size="12" lengthAdjust="spacing" textLength="49" x="93.75" y="328.9883">install</text></g><!--MD5=[ffe6d1617caf564d97775b8dde2c381a]
link Staged to Updated--><g id="link_Staged_Updated"><path d="M163.75,409.16 C163.75,431.69 163.75,469.11 163.75,493.67 " fill="none" id="Staged-to-Updated" style="stroke:#8B0000;stroke-width:1.0;stroke-dasharray:7.0,7.0;"/><polygon fill="#8B0000" points="163.75,498.71,167.75,489.71,163.75,493.71,159.75,489.71,163.75,498.71" style="stroke:#8B0000;stroke-width:1.0;"/><text fill="#000000" font-family="Consolas,Menlo,monospace" font-size="12" lengthAdjust="spacing" textLength="42" x="176.75" y="452.3296">reboot</text><text fill="#000000" font-family="Lato,sans-serif" font-size="12" lengthAdjust="spacing" textLength="3" x="218.75" y="451.8375">:</text><text fill="#000000" font-family="Lato,sans-serif" font-size="12" font-style="italic" lengthAdjust="spacing" textLength="69" x="164.75" y="466.2296">install success</text></g><!--MD5=[6b849a9d54236769877241b12840d8d2]
reverse link Failed to Staged--><g id="link_Failed_Staged"><path d="M218.18,284.33 C218.22,300.49 216.46,321.83 208.75,339 C203.74,350.17 195.16,360.49 186.83,368.75 " fill="none" id="Failed-backto-Staged" style="stroke:#8B0000;stroke-width:1.0;stroke-dasharray:7.0,7.0;"/><polygon fill="#8B0000" points="218.11,279.06,214.239,288.1162,218.1814,284.0595,222.2382,288.0019,218.11,279.06" style="stroke:#8B0000;stroke-width:1.0;"/><text fill="#000000" font-family="Consolas,Menlo,monospace" font-size="12" lengthAdjust="spacing" textLength="42" x="224.25" y="322.3296">reboot</text><text fill="#000000" font-family="Lato,sans-serif" font-size="12" lengthAdjust="spacing" textLength="3" x="266.25" y="321.8375">:</text><text fill="#000000" font-family="Lato,sans-serif" font-size="12" font-style="italic" lengthAdjust="spacing" textLength="60" x="216.75" y="336.2296">install failed</text></g><!--MD5=[6b849a9d54236769877241b12840d8d2]
reverse link Failed to Staged--><g id="link_Failed_Staged"><path d="M186.79,276.5 C175.16,284.62 163.12,295.58 156.75,309 C147.78,327.91 151.93,352.21 156.78,368.84 " fill="none" id="Failed-backto-Staged-1" style="stroke:#8B0000;stroke-width:1.0;"/><polygon fill="#8B0000" points="191.05,273.63,181.3494,275.3326,186.9008,276.42,185.8134,281.9713,191.05,273.63" style="stroke:#8B0000;stroke-width:1.0;"/><text fill="#000000" font-family="Consolas,Menlo,monospace" font-size="12" lengthAdjust="spacing" textLength="42" x="157.75" y="328.9883">reject</text></g><!--MD5=[71ab68107f7e180decc84935bd3705da]
reverse link Start to Failed--><g id="link_Start_Failed"><path d="M165.05,51.95 C175.82,83.8 194.55,142.03 205.75,193 C209.12,208.31 212.03,225.85 214.01,238.85 " fill="none" id="Start-backto-Failed" style="stroke:#0000FF;stroke-width:1.0;"/><polygon fill="#0000FF" points="163.4,47.07,162.5222,56.8797,165.0154,51.8019,170.0932,54.295,163.4,47.07" style="stroke:#0000FF;stroke-width:1.0;"/><text fill="#000000" font-family="Consolas,Menlo,monospace" font-size="12" lengthAdjust="spacing" textLength="35" x="198.75" y="147.9883">clean</text></g><!--MD5=[43a8c4662c8a2715cf5aeba88f635b26]
link Updated to End--><g id="link_Updated_End"><path d="M163.75,539.08 C163.75,558.48 163.75,588.61 163.75,609.7 " fill="none" id="Updated-to-End" style="stroke:#0000FF;stroke-width:1.0;"/><polygon fill="#0000FF" points="163.75,614.86,167.75,605.86,163.75,609.86,159.75,605.86,163.75,614.86" style="stroke:#0000FF;stroke-width:1.0;"/><text fill="#000000" font-family="Consolas,Menlo,monospace" font-size="12" lengthAdjust="spacing" textLength="35" x="164.75" y="581.9883">clean</text></g><rect fill="#DDDDDD" height="69.5684" id="_legend" rx="7.5" ry="7.5" style="stroke:#000000;stroke-width:1.0;" width="281" x="8" y="668"/><text fill="#000000" font-family="Consolas,Menlo,monospace" font-size="12" lengthAdjust="spacing" textLength="7" x="21" y="686.3296">*</text><text fill="#000000" font-family="Lato,sans-serif" font-size="12" lengthAdjust="spacing" textLength="207" x="37" y="685.8375">Transient states that always transition at</text><text fill="#000000" font-family="Lato,sans-serif" font-size="12" font-weight="bold" lengthAdjust="spacing" textLength="37" x="246" y="685.8375">reboot</text><text fill="#0000FF" font-family="Consolas,Menlo,monospace" font-size="12" lengthAdjust="spacing" text-decoration="line-through" textLength="21" x="14" y="700.7217">———</text><text fill="#000000" font-family="Lato,sans-serif" font-size="12" lengthAdjust="spacing" textLength="229" x="37" y="700.2296">Blue transitions apply to a single component</text><text fill="#8B0000" font-family="Consolas,Menlo,monospace" font-size="12" lengthAdjust="spacing" text-decoration="line-through" textLength="21" x="14" y="715.1138">———</text><text fill="#000000" font-family="Lato,sans-serif" font-size="12" lengthAdjust="spacing" textLength="208" x="37" y="714.6217">Red transitions apply to all compoments</text><text fill="#000000" font-family="Consolas,Menlo,monospace" font-size="12" lengthAdjust="spacing" textLength="21" x="14" y="729.5059">---</text><text fill="#000000" font-family="Lato,sans-serif" font-size="12" lengthAdjust="spacing" textLength="197" x="37" y="729.0138">Dashed lines indicate a transition over</text><text fill="#000000" font-family="Lato,sans-serif" font-size="12" font-weight="bold" lengthAdjust="spacing" textLength="37" x="236" y="729.0138">reboot</text></g></svg>