<svg xmlns="http://www.w3.org/2000/svg" xmlns:xlink="http://www.w3.org/1999/xlink" contentStyleType="text/css" data-diagram-type="SEQUENCE" height="1521px" preserveAspectRatio="none" style="width:895px;height:1521px;background:#FFFFFF55;" version="1.1" viewBox="0 0 895 1521" width="895px" zoomAndPan="magnify"><defs><style type="text/css">@import url('https://fonts.googleapis.com/css?family=Roboto:400,100,100italic,300,300italic,400italic,500,500italic,700,700italic,900,900italic');</style></defs><g><rect fill="#FFFFFF" fill-opacity="0.33333" height="1521" style="stroke:none;stroke-width:1;" width="895" x="0" y="0"/><rect fill="#FFFFFF" fill-opacity="0.50196" height="102.0137" rx="4" ry="4" style="stroke:#808080;stroke-width:1;" width="719.2891" x="10" y="257.0273"/><rect fill="#FFFFFF" fill-opacity="0.50196" height="838.3594" rx="4" ry="4" style="stroke:#808080;stroke-width:1;" width="681.8311" x="206.2285" y="544.9434"/><path d="M206.2285,590.832 L888.0596,590.832 L888.0596,659.6113 A4,4 0 0 1 884.0596,663.6113 L210.2285,663.6113 A4,4 0 0 1 206.2285,659.6113 L206.2285,590.832" fill="#FFFFFF" fill-opacity="0.50196" style="stroke:none;stroke-width:1;"/><path d="M206.2285,663.6113 L888.0596,663.6113 L888.0596,1379.3027 A4,4 0 0 1 884.0596,1383.3027 L210.2285,1383.3027 A4,4 0 0 1 206.2285,1379.3027 L206.2285,663.6113" fill="#FFFFFF" fill-opacity="0.50196" style="stroke:none;stroke-width:1;"/><rect fill="#FFFFFF" fill-opacity="0.50196" height="115.1406" rx="4" ry="4" style="stroke:#808080;stroke-width:1;" width="253.2549" x="614.8047" y="829.3418"/><path d="M614.8047,873.4668 L868.0596,873.4668 L868.0596,940.4824 A4,4 0 0 1 864.0596,944.4824 L618.8047,944.4824 A4,4 0 0 1 614.8047,940.4824 L614.8047,873.4668" fill="#FFFFFF" fill-opacity="0.50196" style="stroke:none;stroke-width:1;"/><rect fill="#FFFFFF" fill-opacity="0.50196" height="389.7578" rx="4" ry="4" style="stroke:#808080;stroke-width:1;" width="661.8311" x="216.2285" y="986.5449"/><rect fill="#FFFFFF" fill-opacity="0.50196" height="318.6328" rx="4" ry="4" style="stroke:#808080;stroke-width:1;" width="641.8311" x="226.2285" y="1050.6699"/><path d="M226.2285,1124.6211 L868.0596,1124.6211 L868.0596,1365.3027 A4,4 0 0 1 864.0596,1369.3027 L230.2285,1369.3027 A4,4 0 0 1 226.2285,1365.3027 L226.2285,1124.6211" fill="#FFFFFF" fill-opacity="0.50196" style="stroke:none;stroke-width:1;"/><g><title>Update server</title><rect fill="#000000" fill-opacity="0.00000" height="1480.2539" width="8" x="59.9727" y="34.0625"/><line style="stroke:#808080;stroke-width:0.5;stroke-dasharray:5.0,5.0;" x1="63" x2="63" y1="34.0625" y2="1514.3164"/></g><g><title>Update client</title><rect fill="#000000" fill-opacity="0.00000" height="1480.2539" width="8" x="274.2852" y="34.0625"/><line style="stroke:#808080;stroke-width:0.5;stroke-dasharray:5.0,5.0;" x1="278.2285" x2="278.2285" y1="34.0625" y2="1514.3164"/></g><g><title>Update service</title><rect fill="#000000" fill-opacity="0.00000" height="1480.2539" width="8" x="528.7227" y="34.0625"/><line style="stroke:#808080;stroke-width:0.5;stroke-dasharray:5.0,5.0;" x1="532.1836" x2="532.1836" y1="34.0625" y2="1514.3164"/></g><g><title>Firmware store</title><rect fill="#000000" fill-opacity="0.00000" height="1480.2539" width="8" x="668.0469" y="34.0625"/><line style="stroke:#808080;stroke-width:0.5;stroke-dasharray:5.0,5.0;" x1="671.8047" x2="671.8047" y1="34.0625" y2="1514.3164"/></g><g><title>Bootloader</title><rect fill="#000000" fill-opacity="0.00000" height="1480.2539" width="8" x="817.7715" y="34.0625"/><line style="stroke:#808080;stroke-width:0.5;stroke-dasharray:5.0,5.0;" x1="821.4834" x2="821.4834" y1="34.0625" y2="1514.3164"/></g><g class="participant participant-head" data-participant="server"><rect fill="#FFFFFF" height="28.0625" rx="4" ry="4" style="stroke:#000000;stroke-width:1;" width="87.9453" x="20" y="5"/><text fill="#000000" font-family="Roboto,sans-serif" font-size="12" lengthAdjust="spacing" textLength="73.9453" x="27" y="23.1328">Update server</text></g><g class="participant participant-head" data-participant="client"><rect fill="#FFFFFF" height="28.0625" rx="4" ry="4" style="stroke:#000000;stroke-width:1;" width="84.1133" x="236.2285" y="5"/><text fill="#000000" font-family="Roboto,sans-serif" font-size="12" lengthAdjust="spacing" textLength="70.1133" x="243.2285" y="23.1328">Update client</text></g><g class="participant participant-head" data-participant="service"><rect fill="#FFFFFF" height="28.0625" rx="4" ry="4" style="stroke:#000000;stroke-width:1;" width="93.0781" x="486.1836" y="5"/><text fill="#000000" font-family="Roboto,sans-serif" font-size="12" lengthAdjust="spacing" textLength="79.0781" x="493.1836" y="23.1328">Update service</text></g><g class="participant participant-head" data-participant="store"><rect fill="#FFFFFF" height="28.0625" rx="4" ry="4" style="stroke:#000000;stroke-width:1;" width="94.4844" x="624.8047" y="5"/><text fill="#000000" font-family="Roboto,sans-serif" font-size="12" lengthAdjust="spacing" textLength="80.4844" x="631.8047" y="23.1328">Firmware store</text></g><g class="participant participant-head" data-participant="boot"><rect fill="#FFFFFF" height="28.0625" rx="4" ry="4" style="stroke:#000000;stroke-width:1;" width="72.5762" x="785.4834" y="5"/><text fill="#000000" font-family="Roboto,sans-serif" font-size="12" lengthAdjust="spacing" textLength="58.5762" x="792.4834" y="23.1328">Bootloader</text></g><path d="M621,53.0625 L621,69.0625 A4,4 0 0 0 625,73.0625 L717,73.0625 A4,4 0 0 0 721,69.0625 L721,59.0625 L711,49.0625 L625,49.0625 A4,4 0 0 0 621,53.0625" fill="#E8E8E8" style="stroke:#7D868C;stroke-width:1;"/><path d="M711,49.0625 L711,57.0625 A2,2 0 0 0 713,59.0625 L721,59.0625 L711,49.0625" fill="#E8E8E8" style="stroke:#7D868C;stroke-width:1;"/><text fill="#000000" font-family="Roboto,sans-serif" font-size="12" lengthAdjust="spacing" textLength="79.9043" x="627" y="65.1953">In READY state</text><g class="message" data-participant-1="server" data-participant-2="client"><line style="stroke:#000000;stroke-width:1;" x1="276.2852" x2="266.2852" y1="98.1875" y2="94.1875"/><line style="stroke:#000000;stroke-width:1;" x1="276.2852" x2="266.2852" y1="98.1875" y2="102.1875"/><line style="stroke:#000000;stroke-width:1;" x1="63.9727" x2="277.2852" y1="98.1875" y2="98.1875"/><text fill="#000000" font-family="Roboto,sans-serif" font-size="12" lengthAdjust="spacing" textLength="190.3125" x="70.9727" y="93.2578">Get information about a component</text></g><g class="message" data-participant-1="client" data-participant-2="service"><polygon fill="#000000" points="520.7227,124.0137,530.7227,128.0137,520.7227,132.0137" style="stroke:#000000;stroke-width:1;"/><line style="stroke:#000000;stroke-width:1;" x1="278.2852" x2="526.7227" y1="128.0137" y2="128.0137"/><text fill="#000000" font-family="Roboto Mono,monospace" font-size="12" lengthAdjust="spacing" textLength="194.4316" x="285.2852" y="122.7617">psa_fwu_query(component_id)</text></g><g class="message" data-participant-1="client" data-participant-2="server"><line style="stroke:#000000;stroke-width:1;" x1="64.9727" x2="74.9727" y1="156.0762" y2="152.0762"/><line style="stroke:#000000;stroke-width:1;" x1="64.9727" x2="74.9727" y1="156.0762" y2="160.0762"/><line style="stroke:#000000;stroke-width:1;stroke-dasharray:2.0,2.0;" x1="63.9727" x2="277.2852" y1="156.0762" y2="156.0762"/><text fill="#000000" font-family="Roboto,sans-serif" font-size="12" lengthAdjust="spacing" textLength="115.084" x="80.9727" y="151.1465">Firmware information</text></g><g class="message" data-participant-1="server" data-participant-2="client"><line style="stroke:#000000;stroke-width:1;" x1="276.2852" x2="266.2852" y1="184.1387" y2="180.1387"/><line style="stroke:#000000;stroke-width:1;" x1="276.2852" x2="266.2852" y1="184.1387" y2="188.1387"/><line style="stroke:#000000;stroke-width:1;" x1="63.9727" x2="277.2852" y1="184.1387" y2="184.1387"/><text fill="#000000" font-family="Roboto,sans-serif" font-size="12" lengthAdjust="spacing" textLength="174.4219" x="70.9727" y="179.209">Notify that an update is available</text></g><g class="message" data-participant-1="client" data-participant-2="service"><polygon fill="#000000" points="520.7227,209.9648,530.7227,213.9648,520.7227,217.9648" style="stroke:#000000;stroke-width:1;"/><line style="stroke:#000000;stroke-width:1;" x1="278.2852" x2="526.7227" y1="213.9648" y2="213.9648"/><text fill="#000000" font-family="Roboto Mono,monospace" font-size="12" lengthAdjust="spacing" textLength="194.4316" x="285.2852" y="208.7129">psa_fwu_start(component_id)</text></g><g class="message" data-participant-1="service" data-participant-2="store"><line style="stroke:#000000;stroke-width:1;" x1="670.0469" x2="660.0469" y1="242.0273" y2="238.0273"/><line style="stroke:#000000;stroke-width:1;" x1="670.0469" x2="660.0469" y1="242.0273" y2="246.0273"/><line style="stroke:#000000;stroke-width:1;" x1="532.7227" x2="671.0469" y1="242.0273" y2="242.0273"/><text fill="#000000" font-family="Roboto,sans-serif" font-size="12" lengthAdjust="spacing" textLength="98.7656" x="539.7227" y="237.0977">Set WRITING state</text></g><path d="M14,257.0273 L78.3438,257.0273 L78.3438,263.0898 L68.3438,273.0898 L10,273.0898 L10,261.0273 A4,4 0 0 1 14,257.0273" fill="#F0F0F0" style="stroke:#808080;stroke-width:1.5;"/><rect fill="none" height="102.0137" rx="4" ry="4" style="stroke:#808080;stroke-width:1;" width="719.2891" x="10" y="257.0273"/><text fill="#000000" font-family="Roboto,sans-serif" font-size="12" lengthAdjust="spacing" textLength="23.3438" x="25" y="269.1602">loop</text><text fill="#000000" font-family="Roboto,sans-serif" font-size="11" font-weight="bold" lengthAdjust="spacing" textLength="142.6133" x="93.3438" y="269.2324">[while image is downloading]</text><g class="message" data-participant-1="server" data-participant-2="client"><line style="stroke:#000000;stroke-width:1;" x1="276.2852" x2="266.2852" y1="293.1523" y2="289.1523"/><line style="stroke:#000000;stroke-width:1;" x1="276.2852" x2="266.2852" y1="293.1523" y2="297.1523"/><line style="stroke:#000000;stroke-width:1;" x1="63.9727" x2="277.2852" y1="293.1523" y2="293.1523"/><text fill="#000000" font-family="Roboto,sans-serif" font-size="12" lengthAdjust="spacing" textLength="135.2988" x="70.9727" y="288.2227">Download block of image</text></g><g class="message" data-participant-1="client" data-participant-2="service"><polygon fill="#000000" points="520.7227,318.9785,530.7227,322.9785,520.7227,326.9785" style="stroke:#000000;stroke-width:1;"/><line style="stroke:#000000;stroke-width:1;" x1="278.2852" x2="526.7227" y1="322.9785" y2="322.9785"/><text fill="#000000" font-family="Roboto Mono,monospace" font-size="12" lengthAdjust="spacing" textLength="230.4375" x="285.2852" y="317.7266">psa_fwu_write(component_id, ...)</text></g><g class="message" data-participant-1="service" data-participant-2="store"><line style="stroke:#000000;stroke-width:1;" x1="670.0469" x2="660.0469" y1="351.041" y2="347.041"/><line style="stroke:#000000;stroke-width:1;" x1="670.0469" x2="660.0469" y1="351.041" y2="355.041"/><line style="stroke:#000000;stroke-width:1;" x1="532.7227" x2="671.0469" y1="351.041" y2="351.041"/><text fill="#000000" font-family="Roboto,sans-serif" font-size="12" lengthAdjust="spacing" textLength="109.5527" x="539.7227" y="346.1113">Write block to image</text></g><g class="message" data-participant-1="client" data-participant-2="service"><polygon fill="#000000" points="520.7227,383.8672,530.7227,387.8672,520.7227,391.8672" style="stroke:#000000;stroke-width:1;"/><line style="stroke:#000000;stroke-width:1;" x1="278.2852" x2="526.7227" y1="387.8672" y2="387.8672"/><text fill="#000000" font-family="Roboto Mono,monospace" font-size="12" lengthAdjust="spacing" textLength="201.6328" x="285.2852" y="382.6152">psa_fwu_finish(component_id)</text></g><g class="message" data-participant-1="service" data-participant-2="store"><line style="stroke:#000000;stroke-width:1;" x1="670.0469" x2="660.0469" y1="415.9297" y2="411.9297"/><line style="stroke:#000000;stroke-width:1;" x1="670.0469" x2="660.0469" y1="415.9297" y2="419.9297"/><line style="stroke:#000000;stroke-width:1;" x1="532.7227" x2="671.0469" y1="415.9297" y2="415.9297"/><text fill="#000000" font-family="Roboto,sans-serif" font-size="12" lengthAdjust="spacing" textLength="115.3242" x="539.7227" y="411">Set CANDIDATE state</text></g><g class="message" data-participant-1="client" data-participant-2="server"><line style="stroke:#000000;stroke-width:1;" x1="64.9727" x2="74.9727" y1="443.9922" y2="439.9922"/><line style="stroke:#000000;stroke-width:1;" x1="64.9727" x2="74.9727" y1="443.9922" y2="447.9922"/><line style="stroke:#000000;stroke-width:1;stroke-dasharray:2.0,2.0;" x1="63.9727" x2="277.2852" y1="443.9922" y2="443.9922"/><text fill="#000000" font-family="Roboto,sans-serif" font-size="12" lengthAdjust="spacing" textLength="143.5547" x="80.9727" y="439.0625">Report download complete</text></g><g class="message" data-participant-1="server" data-participant-2="client"><line style="stroke:#000000;stroke-width:1;" x1="276.2852" x2="266.2852" y1="472.0547" y2="468.0547"/><line style="stroke:#000000;stroke-width:1;" x1="276.2852" x2="266.2852" y1="472.0547" y2="476.0547"/><line style="stroke:#000000;stroke-width:1;" x1="63.9727" x2="277.2852" y1="472.0547" y2="472.0547"/><text fill="#000000" font-family="Roboto,sans-serif" font-size="12" lengthAdjust="spacing" textLength="128.9121" x="70.9727" y="467.125">Request to apply update</text></g><g class="message" data-participant-1="client" data-participant-2="service"><polygon fill="#000000" points="520.7227,497.8809,530.7227,501.8809,520.7227,505.8809" style="stroke:#000000;stroke-width:1;"/><line style="stroke:#000000;stroke-width:1;" x1="278.2852" x2="526.7227" y1="501.8809" y2="501.8809"/><text fill="#000000" font-family="Roboto Mono,monospace" font-size="12" lengthAdjust="spacing" textLength="122.4199" x="285.2852" y="496.6289">psa_fwu_install()</text></g><g class="message" data-participant-1="service" data-participant-2="store"><line style="stroke:#000000;stroke-width:1;" x1="670.0469" x2="660.0469" y1="529.9434" y2="525.9434"/><line style="stroke:#000000;stroke-width:1;" x1="670.0469" x2="660.0469" y1="529.9434" y2="533.9434"/><line style="stroke:#000000;stroke-width:1;" x1="532.7227" x2="671.0469" y1="529.9434" y2="529.9434"/><text fill="#000000" font-family="Roboto,sans-serif" font-size="12" lengthAdjust="spacing" textLength="69.1934" x="539.7227" y="525.0137">Check image</text></g><path d="M210.2285,544.9434 L264.5996,544.9434 L264.5996,551.0059 L254.5996,561.0059 L206.2285,561.0059 L206.2285,548.9434 A4,4 0 0 1 210.2285,544.9434" fill="#F0F0F0" style="stroke:#808080;stroke-width:1.5;"/><rect fill="none" height="838.3594" rx="4" ry="4" style="stroke:#808080;stroke-width:1;" width="681.8311" x="206.2285" y="544.9434"/><text fill="#000000" font-family="Roboto,sans-serif" font-size="12" lengthAdjust="spacing" textLength="13.3711" x="221.2285" y="557.0762">alt</text><text fill="#000000" font-family="Roboto,sans-serif" font-size="11" font-weight="bold" lengthAdjust="spacing" textLength="105.1929" x="279.5996" y="557.1484">[dependency needed]</text><g class="message" data-participant-1="service" data-participant-2="client"><polygon fill="#000000" points="289.2852,578.832,279.2852,582.832,289.2852,586.832" style="stroke:#000000;stroke-width:1;"/><line style="stroke:#000000;stroke-width:1;stroke-dasharray:2.0,2.0;" x1="283.2852" x2="531.7227" y1="582.832" y2="582.832"/><text fill="#000000" font-family="Roboto Mono,monospace" font-size="12" lengthAdjust="spacing" textLength="194.4316" x="295.2852" y="577.5801">PSA_ERROR_DEPENDENCY_NEEDED</text></g><line style="stroke:#808080;stroke-width:1;stroke-dasharray:2.0,2.0;" x1="206.2285" x2="888.0596" y1="591.832" y2="591.832"/><text fill="#000000" font-family="Roboto,sans-serif" font-size="11" font-weight="bold" lengthAdjust="spacing" textLength="139.917" x="211.2285" y="602.0371">[fail firmware image checks]</text><g class="message" data-participant-1="service" data-participant-2="store"><line style="stroke:#000000;stroke-width:1;" x1="670.0469" x2="660.0469" y1="625.7852" y2="621.7852"/><line style="stroke:#000000;stroke-width:1;" x1="670.0469" x2="660.0469" y1="625.7852" y2="629.7852"/><line style="stroke:#000000;stroke-width:1;" x1="532.7227" x2="671.0469" y1="625.7852" y2="625.7852"/><text fill="#000000" font-family="Roboto,sans-serif" font-size="12" lengthAdjust="spacing" textLength="89.1855" x="539.7227" y="620.8555">Set FAILED state</text></g><g class="message" data-participant-1="service" data-participant-2="client"><polygon fill="#000000" points="289.2852,651.6113,279.2852,655.6113,289.2852,659.6113" style="stroke:#000000;stroke-width:1;"/><line style="stroke:#000000;stroke-width:1;stroke-dasharray:2.0,2.0;" x1="283.2852" x2="531.7227" y1="655.6113" y2="655.6113"/><text fill="#000000" font-family="Roboto Mono,monospace" font-size="12" lengthAdjust="spacing" textLength="187.2305" x="295.2852" y="650.3594">PSA_ERROR_INVALID_ARGUMENT</text></g><line style="stroke:#808080;stroke-width:1;stroke-dasharray:2.0,2.0;" x1="206.2285" x2="888.0596" y1="664.6113" y2="664.6113"/><text fill="#000000" font-family="Roboto,sans-serif" font-size="11" font-weight="bold" lengthAdjust="spacing" textLength="111.418" x="211.2285" y="674.8164">[all dependencies met]</text><g class="message" data-participant-1="service" data-participant-2="store"><line style="stroke:#000000;stroke-width:1;" x1="670.0469" x2="660.0469" y1="698.5645" y2="694.5645"/><line style="stroke:#000000;stroke-width:1;" x1="670.0469" x2="660.0469" y1="698.5645" y2="702.5645"/><line style="stroke:#000000;stroke-width:1;" x1="532.7227" x2="671.0469" y1="698.5645" y2="698.5645"/><text fill="#000000" font-family="Roboto,sans-serif" font-size="12" lengthAdjust="spacing" textLength="95.2852" x="539.7227" y="693.6348">Set STAGED state</text></g><g class="message" data-participant-1="service" data-participant-2="client"><polygon fill="#000000" points="289.2852,724.3906,279.2852,728.3906,289.2852,732.3906" style="stroke:#000000;stroke-width:1;"/><line style="stroke:#000000;stroke-width:1;stroke-dasharray:2.0,2.0;" x1="283.2852" x2="531.7227" y1="728.3906" y2="728.3906"/><text fill="#000000" font-family="Roboto Mono,monospace" font-size="12" lengthAdjust="spacing" textLength="129.6211" x="295.2852" y="723.1387">PSA_SUCCESS_REBOOT</text></g><g class="message" data-participant-1="client" data-participant-2="service"><polygon fill="#000000" points="520.7227,754.2168,530.7227,758.2168,520.7227,762.2168" style="stroke:#000000;stroke-width:1;"/><line style="stroke:#000000;stroke-width:1;" x1="278.2852" x2="526.7227" y1="758.2168" y2="758.2168"/><text fill="#000000" font-family="Roboto Mono,monospace" font-size="12" lengthAdjust="spacing" textLength="172.8281" x="285.2852" y="752.9648">psa_fwu_request_reboot()</text></g><g class="message" data-participant-1="service" data-participant-2="boot"><line style="stroke:#000000;stroke-width:1;" x1="819.7715" x2="809.7715" y1="786.2793" y2="782.2793"/><line style="stroke:#000000;stroke-width:1;" x1="819.7715" x2="809.7715" y1="786.2793" y2="790.2793"/><line style="stroke:#000000;stroke-width:1;" x1="532.7227" x2="820.7715" y1="786.2793" y2="786.2793"/><text fill="#000000" font-family="Roboto,sans-serif" font-size="12" lengthAdjust="spacing" textLength="84.0469" x="539.7227" y="781.3496">System restarts</text></g><g class="message" data-participant-1="boot" data-participant-2="store"><line style="stroke:#000000;stroke-width:1;" x1="673.0469" x2="683.0469" y1="814.3418" y2="810.3418"/><line style="stroke:#000000;stroke-width:1;" x1="673.0469" x2="683.0469" y1="814.3418" y2="818.3418"/><line style="stroke:#000000;stroke-width:1;" x1="672.0469" x2="820.7715" y1="814.3418" y2="814.3418"/><text fill="#000000" font-family="Roboto,sans-serif" font-size="12" lengthAdjust="spacing" textLength="91.8691" x="689.0469" y="809.4121">Verify new image</text></g><path d="M618.8047,829.3418 L673.1758,829.3418 L673.1758,835.4043 L663.1758,845.4043 L614.8047,845.4043 L614.8047,833.3418 A4,4 0 0 1 618.8047,829.3418" fill="#F0F0F0" style="stroke:#808080;stroke-width:1.5;"/><rect fill="none" height="115.1406" rx="4" ry="4" style="stroke:#808080;stroke-width:1;" width="253.2549" x="614.8047" y="829.3418"/><text fill="#000000" font-family="Roboto,sans-serif" font-size="12" lengthAdjust="spacing" textLength="13.3711" x="629.8047" y="841.4746">alt</text><text fill="#000000" font-family="Roboto,sans-serif" font-size="11" font-weight="bold" lengthAdjust="spacing" textLength="86.0449" x="688.1758" y="841.5469">[verification fails]</text><g class="message" data-participant-1="boot" data-participant-2="store"><line style="stroke:#000000;stroke-width:1;" x1="673.0469" x2="683.0469" y1="865.4668" y2="861.4668"/><line style="stroke:#000000;stroke-width:1;" x1="673.0469" x2="683.0469" y1="865.4668" y2="869.4668"/><line style="stroke:#000000;stroke-width:1;" x1="672.0469" x2="820.7715" y1="865.4668" y2="865.4668"/><text fill="#000000" font-family="Roboto,sans-serif" font-size="12" lengthAdjust="spacing" textLength="89.1855" x="689.0469" y="860.5371">Set FAILED state</text></g><line style="stroke:#808080;stroke-width:1;stroke-dasharray:2.0,2.0;" x1="614.8047" x2="868.0596" y1="874.4668" y2="874.4668"/><text fill="#000000" font-family="Roboto,sans-serif" font-size="11" font-weight="bold" lengthAdjust="spacing" textLength="111.7456" x="619.8047" y="884.6719">[verification succeeds]</text><g class="message" data-participant-1="boot" data-participant-2="store"><line style="stroke:#000000;stroke-width:1;" x1="673.0469" x2="683.0469" y1="908.4199" y2="904.4199"/><line style="stroke:#000000;stroke-width:1;" x1="673.0469" x2="683.0469" y1="908.4199" y2="912.4199"/><line style="stroke:#000000;stroke-width:1;" x1="672.0469" x2="820.7715" y1="908.4199" y2="908.4199"/><text fill="#000000" font-family="Roboto,sans-serif" font-size="12" lengthAdjust="spacing" textLength="93.4043" x="689.0469" y="903.4902">Install new image</text></g><g class="message" data-participant-1="boot" data-participant-2="store"><line style="stroke:#000000;stroke-width:1;" x1="673.0469" x2="683.0469" y1="936.4824" y2="932.4824"/><line style="stroke:#000000;stroke-width:1;" x1="673.0469" x2="683.0469" y1="936.4824" y2="940.4824"/><line style="stroke:#000000;stroke-width:1;" x1="672.0469" x2="820.7715" y1="936.4824" y2="936.4824"/><text fill="#000000" font-family="Roboto,sans-serif" font-size="12" lengthAdjust="spacing" textLength="82.4121" x="689.0469" y="931.5527">Set TRIAL state</text></g><g class="message" data-participant-1="boot" data-participant-2="client"><polygon fill="#000000" points="289.2852,967.5449,279.2852,971.5449,289.2852,975.5449" style="stroke:#000000;stroke-width:1;"/><line style="stroke:#000000;stroke-width:1;" x1="283.2852" x2="820.7715" y1="971.5449" y2="971.5449"/><text fill="#000000" font-family="Roboto,sans-serif" font-size="12" lengthAdjust="spacing" textLength="61.1367" x="295.2852" y="966.6152">Boot image</text></g><path d="M220.2285,986.5449 L274.5996,986.5449 L274.5996,992.6074 L264.5996,1002.6074 L216.2285,1002.6074 L216.2285,990.5449 A4,4 0 0 1 220.2285,986.5449" fill="#F0F0F0" style="stroke:#808080;stroke-width:1.5;"/><rect fill="none" height="389.7578" rx="4" ry="4" style="stroke:#808080;stroke-width:1;" width="661.8311" x="216.2285" y="986.5449"/><text fill="#000000" font-family="Roboto,sans-serif" font-size="12" lengthAdjust="spacing" textLength="13.3711" x="231.2285" y="998.6777">alt</text><text fill="#000000" font-family="Roboto,sans-serif" font-size="11" font-weight="bold" lengthAdjust="spacing" textLength="136.0391" x="289.5996" y="998.75">[Component in TRIAL state]</text><g class="message" data-participant-1="client" data-participant-2="client"><line style="stroke:#000000;stroke-width:1;" x1="278.2852" x2="320.2852" y1="1022.6699" y2="1022.6699"/><line style="stroke:#000000;stroke-width:1;" x1="320.2852" x2="320.2852" y1="1022.6699" y2="1035.6699"/><line style="stroke:#000000;stroke-width:1;" x1="278.2852" x2="320.2852" y1="1035.6699" y2="1035.6699"/><line style="stroke:#000000;stroke-width:1;" x1="279.2852" x2="289.2852" y1="1035.6699" y2="1031.6699"/><line style="stroke:#000000;stroke-width:1;" x1="279.2852" x2="289.2852" y1="1035.6699" y2="1039.6699"/><text fill="#000000" font-family="Roboto,sans-serif" font-size="12" lengthAdjust="spacing" textLength="128.6426" x="285.2852" y="1017.7402">Test image functionality</text></g><path d="M230.2285,1050.6699 L284.5996,1050.6699 L284.5996,1056.7324 L274.5996,1066.7324 L226.2285,1066.7324 L226.2285,1054.6699 A4,4 0 0 1 230.2285,1050.6699" fill="#F0F0F0" style="stroke:#808080;stroke-width:1.5;"/><rect fill="none" height="318.6328" rx="4" ry="4" style="stroke:#808080;stroke-width:1;" width="641.8311" x="226.2285" y="1050.6699"/><text fill="#000000" font-family="Roboto,sans-serif" font-size="12" lengthAdjust="spacing" textLength="13.3711" x="241.2285" y="1062.8027">alt</text><text fill="#000000" font-family="Roboto,sans-serif" font-size="11" font-weight="bold" lengthAdjust="spacing" textLength="137.5269" x="299.5996" y="1062.875">[update is working properly]</text><g class="message" data-participant-1="client" data-participant-2="service"><polygon fill="#000000" points="520.7227,1084.5586,530.7227,1088.5586,520.7227,1092.5586" style="stroke:#000000;stroke-width:1;"/><line style="stroke:#000000;stroke-width:1;" x1="278.2852" x2="526.7227" y1="1088.5586" y2="1088.5586"/><text fill="#000000" font-family="Roboto Mono,monospace" font-size="12" lengthAdjust="spacing" textLength="115.2188" x="285.2852" y="1083.3066">psa_fwu_accept()</text></g><g class="message" data-participant-1="service" data-participant-2="boot"><line style="stroke:#000000;stroke-width:1;" x1="819.7715" x2="809.7715" y1="1116.6211" y2="1112.6211"/><line style="stroke:#000000;stroke-width:1;" x1="819.7715" x2="809.7715" y1="1116.6211" y2="1120.6211"/><line style="stroke:#000000;stroke-width:1;" x1="532.7227" x2="820.7715" y1="1116.6211" y2="1116.6211"/><text fill="#000000" font-family="Roboto,sans-serif" font-size="12" lengthAdjust="spacing" textLength="103.2129" x="539.7227" y="1111.6914">Set UPDATED state</text></g><line style="stroke:#808080;stroke-width:1;stroke-dasharray:2.0,2.0;" x1="226.2285" x2="868.0596" y1="1125.6211" y2="1125.6211"/><text fill="#000000" font-family="Roboto,sans-serif" font-size="11" font-weight="bold" lengthAdjust="spacing" textLength="64.5176" x="231.2285" y="1135.8262">[testing fails]</text><g class="message" data-participant-1="client" data-participant-2="service"><polygon fill="#000000" points="520.7227,1157.3379,530.7227,1161.3379,520.7227,1165.3379" style="stroke:#000000;stroke-width:1;"/><line style="stroke:#000000;stroke-width:1;" x1="278.2852" x2="526.7227" y1="1161.3379" y2="1161.3379"/><text fill="#000000" font-family="Roboto Mono,monospace" font-size="12" lengthAdjust="spacing" textLength="115.2188" x="285.2852" y="1156.0859">psa_fwu_reject()</text></g><g class="message" data-participant-1="service" data-participant-2="boot"><line style="stroke:#000000;stroke-width:1;" x1="819.7715" x2="809.7715" y1="1189.4004" y2="1185.4004"/><line style="stroke:#000000;stroke-width:1;" x1="819.7715" x2="809.7715" y1="1189.4004" y2="1193.4004"/><line style="stroke:#000000;stroke-width:1;" x1="532.7227" x2="820.7715" y1="1189.4004" y2="1189.4004"/><text fill="#000000" font-family="Roboto,sans-serif" font-size="12" lengthAdjust="spacing" textLength="107.625" x="539.7227" y="1184.4707">Set REJECTED state</text></g><g class="message" data-participant-1="service" data-participant-2="client"><polygon fill="#000000" points="289.2852,1215.2266,279.2852,1219.2266,289.2852,1223.2266" style="stroke:#000000;stroke-width:1;"/><line style="stroke:#000000;stroke-width:1;stroke-dasharray:2.0,2.0;" x1="283.2852" x2="531.7227" y1="1219.2266" y2="1219.2266"/><text fill="#000000" font-family="Roboto Mono,monospace" font-size="12" lengthAdjust="spacing" textLength="129.6211" x="295.2852" y="1213.9746">PSA_SUCCESS_REBOOT</text></g><g class="message" data-participant-1="client" data-participant-2="service"><polygon fill="#000000" points="520.7227,1245.0527,530.7227,1249.0527,520.7227,1253.0527" style="stroke:#000000;stroke-width:1;"/><line style="stroke:#000000;stroke-width:1;" x1="278.2852" x2="526.7227" y1="1249.0527" y2="1249.0527"/><text fill="#000000" font-family="Roboto Mono,monospace" font-size="12" lengthAdjust="spacing" textLength="172.8281" x="285.2852" y="1243.8008">psa_fwu_request_reboot()</text></g><g class="message" data-participant-1="service" data-participant-2="boot"><line style="stroke:#000000;stroke-width:1;" x1="819.7715" x2="809.7715" y1="1277.1152" y2="1273.1152"/><line style="stroke:#000000;stroke-width:1;" x1="819.7715" x2="809.7715" y1="1277.1152" y2="1281.1152"/><line style="stroke:#000000;stroke-width:1;" x1="532.7227" x2="820.7715" y1="1277.1152" y2="1277.1152"/><text fill="#000000" font-family="Roboto,sans-serif" font-size="12" lengthAdjust="spacing" textLength="84.0469" x="539.7227" y="1272.1855">System restarts</text></g><g class="message" data-participant-1="boot" data-participant-2="store"><line style="stroke:#000000;stroke-width:1;" x1="673.0469" x2="683.0469" y1="1305.1777" y2="1301.1777"/><line style="stroke:#000000;stroke-width:1;" x1="673.0469" x2="683.0469" y1="1305.1777" y2="1309.1777"/><line style="stroke:#000000;stroke-width:1;" x1="672.0469" x2="820.7715" y1="1305.1777" y2="1305.1777"/><text fill="#000000" font-family="Roboto,sans-serif" font-size="12" lengthAdjust="spacing" textLength="125.7246" x="689.0469" y="1300.248">Restore previous image</text></g><g class="message" data-participant-1="boot" data-participant-2="store"><line style="stroke:#000000;stroke-width:1;" x1="673.0469" x2="683.0469" y1="1333.2402" y2="1329.2402"/><line style="stroke:#000000;stroke-width:1;" x1="673.0469" x2="683.0469" y1="1333.2402" y2="1337.2402"/><line style="stroke:#000000;stroke-width:1;" x1="672.0469" x2="820.7715" y1="1333.2402" y2="1333.2402"/><text fill="#000000" font-family="Roboto,sans-serif" font-size="12" lengthAdjust="spacing" textLength="89.1855" x="689.0469" y="1328.3105">Set FAILED state</text></g><g class="message" data-participant-1="boot" data-participant-2="client"><polygon fill="#000000" points="289.2852,1357.3027,279.2852,1361.3027,289.2852,1365.3027" style="stroke:#000000;stroke-width:1;"/><line style="stroke:#000000;stroke-width:1;" x1="283.2852" x2="820.7715" y1="1361.3027" y2="1361.3027"/><text fill="#000000" font-family="Roboto,sans-serif" font-size="12" lengthAdjust="spacing" textLength="61.1367" x="295.2852" y="1356.373">Boot image</text></g><g class="message" data-participant-1="client" data-participant-2="server"><line style="stroke:#000000;stroke-width:1;" x1="64.9727" x2="74.9727" y1="1410.3652" y2="1406.3652"/><line style="stroke:#000000;stroke-width:1;" x1="64.9727" x2="74.9727" y1="1410.3652" y2="1414.3652"/><line style="stroke:#000000;stroke-width:1;" x1="63.9727" x2="277.2852" y1="1410.3652" y2="1410.3652"/><text fill="#000000" font-family="Roboto,sans-serif" font-size="12" lengthAdjust="spacing" textLength="111.6035" x="80.9727" y="1405.4355">Report update status</text></g><g class="message" data-participant-1="client" data-participant-2="service"><polygon fill="#000000" points="520.7227,1436.1914,530.7227,1440.1914,520.7227,1444.1914" style="stroke:#000000;stroke-width:1;"/><line style="stroke:#000000;stroke-width:1;" x1="278.2852" x2="526.7227" y1="1440.1914" y2="1440.1914"/><text fill="#000000" font-family="Roboto Mono,monospace" font-size="12" lengthAdjust="spacing" textLength="194.4316" x="285.2852" y="1434.9395">psa_fwu_clean(component_id)</text></g><g class="message" data-participant-1="service" data-participant-2="store"><line style="stroke:#000000;stroke-width:1;" x1="670.0469" x2="660.0469" y1="1468.2539" y2="1464.2539"/><line style="stroke:#000000;stroke-width:1;" x1="670.0469" x2="660.0469" y1="1468.2539" y2="1472.2539"/><line style="stroke:#000000;stroke-width:1;" x1="532.7227" x2="671.0469" y1="1468.2539" y2="1468.2539"/><text fill="#000000" font-family="Roboto,sans-serif" font-size="12" lengthAdjust="spacing" textLength="86.8008" x="539.7227" y="1463.3242">Erase store area</text></g><g class="message" data-participant-1="service" data-participant-2="store"><line style="stroke:#000000;stroke-width:1;" x1="670.0469" x2="660.0469" y1="1496.3164" y2="1492.3164"/><line style="stroke:#000000;stroke-width:1;" x1="670.0469" x2="660.0469" y1="1496.3164" y2="1500.3164"/><line style="stroke:#000000;stroke-width:1;" x1="532.7227" x2="671.0469" y1="1496.3164" y2="1496.3164"/><text fill="#000000" font-family="Roboto,sans-serif" font-size="12" lengthAdjust="spacing" textLength="87.4277" x="539.7227" y="1491.3867">Set READY state</text></g></g></svg>