<svg xmlns="http://www.w3.org/2000/svg" xmlns:xlink="http://www.w3.org/1999/xlink" contentStyleType="text/css" data-diagram-type="SEQUENCE" height="647px" preserveAspectRatio="none" style="width:617px;height:647px;background:#FFFFFF55;" version="1.1" viewBox="0 0 617 647" width="617px" zoomAndPan="magnify"><defs/><g><rect fill="#FFFFFF" fill-opacity="0.33333" height="647" style="stroke:none;stroke-width:1;" width="617" x="0" y="0"/><g><title>User</title><rect fill="#000000" fill-opacity="0.00000" height="606.164" width="8" x="150.289" y="34.4"/><line style="stroke:#808080;stroke-width:0.5;stroke-dasharray:5.0,5.0;" x1="153.926" x2="153.926" y1="34.4" y2="640.564"/></g><g><title>Peer</title><rect fill="#000000" fill-opacity="0.00000" height="606.164" width="8" x="458.135" y="34.4"/><line style="stroke:#808080;stroke-width:0.5;stroke-dasharray:5.0,5.0;" x1="462.012" x2="462.012" y1="34.4" y2="640.564"/></g><g class="participant participant-head" data-participant="User"><rect fill="#FFFFFF" height="28.4" rx="4" ry="4" style="stroke:#000000;stroke-width:1;" width="38.726" x="134.926" y="5"/><text fill="#000000" font-family="Lato,sans-serif" font-size="12" lengthAdjust="spacing" textLength="24.726" x="141.926" y="23.844">User</text></g><g class="participant participant-head" data-participant="Peer"><rect fill="#FFFFFF" height="28.4" rx="4" ry="4" style="stroke:#000000;stroke-width:1;" width="38.246" x="443.012" y="5"/><text fill="#000000" font-family="Lato,sans-serif" font-size="12" lengthAdjust="spacing" textLength="24.246" x="450.012" y="23.844">Peer</text></g><path d="M137,53.4 L137,69.4 A4,4 0 0 0 141,73.4 L474,73.4 A4,4 0 0 0 478,69.4 L478,59.4 L468,49.4 L141,49.4 A4,4 0 0 0 137,53.4" fill="#E8E8E8" style="stroke:#7D868C;stroke-width:1;"/><path d="M468,49.4 L468,57.4 A2,2 0 0 0 470,59.4 L478,59.4 L468,49.4" fill="#E8E8E8" style="stroke:#7D868C;stroke-width:1;"/><text fill="#000000" font-family="Lato,sans-serif" font-size="12" lengthAdjust="spacing" textLength="206.484" x="146.821" y="66.244">Shared information: cipher suite, secret</text><text fill="#000000" font-family="Lato,sans-serif" font-size="12" font-style="italic" lengthAdjust="spacing" textLength="4.8" x="356.377" y="66.244">s</text><text fill="#000000" font-family="Lato,sans-serif" font-size="12" lengthAdjust="spacing" textLength="2.724" x="361.177" y="66.244">,</text><text fill="#000000" font-family="Lato,sans-serif" font-size="12" font-style="italic" lengthAdjust="spacing" textLength="32.412" x="366.973" y="66.244">UserId</text><text fill="#000000" font-family="Lato,sans-serif" font-size="12" lengthAdjust="spacing" textLength="25.176" x="399.385" y="66.244">, and</text><text fill="#000000" font-family="Lato,sans-serif" font-size="12" font-style="italic" lengthAdjust="spacing" textLength="31.878" x="427.633" y="66.244">PeerId</text><g class="message" data-participant-1="User" data-participant-2="User"><line style="stroke:#000000;stroke-width:1;" x1="154.289" x2="196.289" y1="122.564" y2="122.564"/><line style="stroke:#000000;stroke-width:1;" x1="196.289" x2="196.289" y1="122.564" y2="135.564"/><line style="stroke:#000000;stroke-width:1;" x1="155.289" x2="196.289" y1="135.564" y2="135.564"/><polygon fill="#000000" points="165.289,131.564,155.289,135.564,165.289,139.564" style="stroke:#000000;stroke-width:1;"/><text fill="#000000" font-family="Inconsolata,monospace" font-size="12" lengthAdjust="spacing" textLength="96" x="161.289" y="93.108">psa_pake_setup()</text><text fill="#000000" font-family="Inconsolata,monospace" font-size="12" lengthAdjust="spacing" textLength="114" x="161.289" y="105.696">psa_pake_set_user()</text><text fill="#000000" font-family="Inconsolata,monospace" font-size="12" lengthAdjust="spacing" textLength="114" x="161.289" y="118.284">psa_pake_set_peer()</text></g><path d="M20,152.564 L20,197.564 A4,4 0 0 0 24,201.564 L282,201.564 A4,4 0 0 0 286,197.564 L286,158.564 L276,148.564 L24,148.564 A4,4 0 0 0 20,152.564" fill="#E8E8E8" style="stroke:#7D868C;stroke-width:1;"/><path d="M276,148.564 L276,156.564 A2,2 0 0 0 278,158.564 L286,158.564 L276,148.564" fill="#E8E8E8" style="stroke:#7D868C;stroke-width:1;"/><text fill="#000000" font-family="Lato,sans-serif" font-size="12" lengthAdjust="spacing" textLength="49.104" x="26" y="165.408">Generate</text><text fill="#000000" font-family="Lato,sans-serif" font-size="12" font-style="italic" lengthAdjust="spacing" textLength="12.528" x="78.176" y="165.408">x1</text><text fill="#000000" font-family="Lato,sans-serif" font-size="12" lengthAdjust="spacing" textLength="19.38" x="93.776" y="165.408">and</text><text fill="#000000" font-family="Lato,sans-serif" font-size="12" font-style="italic" lengthAdjust="spacing" textLength="12.528" x="116.228" y="165.408">x2</text><text fill="#000000" font-family="Lato,sans-serif" font-size="12" lengthAdjust="spacing" textLength="110.28" x="26" y="179.808">Compute public keys</text><text fill="#000000" font-family="Lato,sans-serif" font-size="12" font-style="italic" lengthAdjust="spacing" textLength="12.768" x="139.352" y="179.808">g1</text><text fill="#000000" font-family="Lato,sans-serif" font-size="12" lengthAdjust="spacing" textLength="19.38" x="155.192" y="179.808">and</text><text fill="#000000" font-family="Lato,sans-serif" font-size="12" font-style="italic" lengthAdjust="spacing" textLength="12.768" x="177.644" y="179.808">g2</text><text fill="#000000" font-family="Lato,sans-serif" font-size="12" lengthAdjust="spacing" textLength="74.196" x="26" y="194.208">Compute ZKP</text><text fill="#000000" font-family="Lato,sans-serif" font-size="12" font-style="italic" lengthAdjust="spacing" textLength="37.278" x="103.268" y="194.208">(V1, r1)</text><text fill="#000000" font-family="Lato,sans-serif" font-size="12" lengthAdjust="spacing" textLength="15.378" x="143.618" y="194.208">for</text><text fill="#000000" font-family="Lato,sans-serif" font-size="12" font-style="italic" lengthAdjust="spacing" textLength="12.768" x="162.068" y="194.208">g1</text><text fill="#000000" font-family="Lato,sans-serif" font-size="12" lengthAdjust="spacing" textLength="19.38" x="177.908" y="194.208">and</text><text fill="#000000" font-family="Lato,sans-serif" font-size="12" font-style="italic" lengthAdjust="spacing" textLength="37.278" x="200.36" y="194.208">(V2, r2)</text><text fill="#000000" font-family="Lato,sans-serif" font-size="12" lengthAdjust="spacing" textLength="15.378" x="240.71" y="194.208">for</text><text fill="#000000" font-family="Lato,sans-serif" font-size="12" font-style="italic" lengthAdjust="spacing" textLength="12.768" x="259.16" y="194.208">g2</text><path d="M326,152.564 L326,197.564 A4,4 0 0 0 330,201.564 L594,201.564 A4,4 0 0 0 598,197.564 L598,158.564 L588,148.564 L330,148.564 A4,4 0 0 0 326,152.564" fill="#E8E8E8" style="stroke:#7D868C;stroke-width:1;"/><path d="M588,148.564 L588,156.564 A2,2 0 0 0 590,158.564 L598,158.564 L588,148.564" fill="#E8E8E8" style="stroke:#7D868C;stroke-width:1;"/><text fill="#000000" font-family="Lato,sans-serif" font-size="12" lengthAdjust="spacing" textLength="49.104" x="332" y="165.408">Generate</text><text fill="#000000" font-family="Lato,sans-serif" font-size="12" font-style="italic" lengthAdjust="spacing" textLength="12.528" x="384.176" y="165.408">x3</text><text fill="#000000" font-family="Lato,sans-serif" font-size="12" lengthAdjust="spacing" textLength="19.38" x="399.776" y="165.408">and</text><text fill="#000000" font-family="Lato,sans-serif" font-size="12" font-style="italic" lengthAdjust="spacing" textLength="12.528" x="422.228" y="165.408">x4</text><text fill="#000000" font-family="Lato,sans-serif" font-size="12" lengthAdjust="spacing" textLength="110.28" x="332" y="179.808">Compute public keys</text><text fill="#000000" font-family="Lato,sans-serif" font-size="12" font-style="italic" lengthAdjust="spacing" textLength="12.768" x="445.352" y="179.808">g3</text><text fill="#000000" font-family="Lato,sans-serif" font-size="12" lengthAdjust="spacing" textLength="19.38" x="461.192" y="179.808">and</text><text fill="#000000" font-family="Lato,sans-serif" font-size="12" font-style="italic" lengthAdjust="spacing" textLength="12.768" x="483.644" y="179.808">g4</text><text fill="#000000" font-family="Lato,sans-serif" font-size="12" lengthAdjust="spacing" textLength="79.392" x="332" y="194.208">Compute ZKPs</text><text fill="#000000" font-family="Lato,sans-serif" font-size="12" font-style="italic" lengthAdjust="spacing" textLength="37.278" x="414.464" y="194.208">(V3, r3)</text><text fill="#000000" font-family="Lato,sans-serif" font-size="12" lengthAdjust="spacing" textLength="15.378" x="454.814" y="194.208">for</text><text fill="#000000" font-family="Lato,sans-serif" font-size="12" font-style="italic" lengthAdjust="spacing" textLength="12.768" x="473.264" y="194.208">g3</text><text fill="#000000" font-family="Lato,sans-serif" font-size="12" lengthAdjust="spacing" textLength="19.38" x="489.104" y="194.208">and</text><text fill="#000000" font-family="Lato,sans-serif" font-size="12" font-style="italic" lengthAdjust="spacing" textLength="37.278" x="511.556" y="194.208">(V4, r4)</text><text fill="#000000" font-family="Lato,sans-serif" font-size="12" lengthAdjust="spacing" textLength="15.378" x="551.906" y="194.208">for</text><text fill="#000000" font-family="Lato,sans-serif" font-size="12" font-style="italic" lengthAdjust="spacing" textLength="12.768" x="570.356" y="194.208">g4</text><g class="message" data-participant-1="User" data-participant-2="User"><line style="stroke:#000000;stroke-width:1;" x1="154.289" x2="196.289" y1="227.164" y2="227.164"/><line style="stroke:#000000;stroke-width:1;" x1="196.289" x2="196.289" y1="227.164" y2="240.164"/><line style="stroke:#000000;stroke-width:1;" x1="155.289" x2="196.289" y1="240.164" y2="240.164"/><polygon fill="#000000" points="165.289,236.164,155.289,240.164,165.289,244.164" style="stroke:#000000;stroke-width:1;"/><text fill="#000000" font-family="Inconsolata,monospace" font-size="12" lengthAdjust="spacing" textLength="102" x="161.289" y="222.884">psa_pake_output()</text><text fill="#000000" font-family="Lato,sans-serif" font-size="12" lengthAdjust="spacing" textLength="15.378" x="266.361" y="222.608">for</text><text fill="#000000" font-family="Lato,sans-serif" font-size="12" font-style="italic" lengthAdjust="spacing" textLength="87.636" x="284.811" y="222.608">g1, V1, r1, g2, V2</text><text fill="#000000" font-family="Lato,sans-serif" font-size="12" lengthAdjust="spacing" textLength="25.176" x="372.447" y="222.608">, and</text><text fill="#000000" font-family="Lato,sans-serif" font-size="12" font-style="italic" lengthAdjust="spacing" textLength="11.064" x="400.695" y="222.608">r2</text></g><g class="message" data-participant-1="User" data-participant-2="Peer"><line style="stroke:#000000;stroke-width:1;" x1="460.135" x2="450.135" y1="268.564" y2="264.564"/><line style="stroke:#000000;stroke-width:1;" x1="460.135" x2="450.135" y1="268.564" y2="272.564"/><line style="stroke:#000000;stroke-width:1;" x1="154.289" x2="461.135" y1="268.564" y2="268.564"/><text fill="#000000" font-family="Lato,sans-serif" font-size="12" font-style="italic" lengthAdjust="spacing" textLength="110.4" x="161.289" y="264.008">(g1, V1, r1, g2, V2, r2)</text></g><g class="message" data-participant-1="Peer" data-participant-2="User"><line style="stroke:#000000;stroke-width:1;" x1="155.289" x2="165.289" y1="296.964" y2="292.964"/><line style="stroke:#000000;stroke-width:1;" x1="155.289" x2="165.289" y1="296.964" y2="300.964"/><line style="stroke:#000000;stroke-width:1;" x1="154.289" x2="461.135" y1="296.964" y2="296.964"/><text fill="#000000" font-family="Lato,sans-serif" font-size="12" font-style="italic" lengthAdjust="spacing" textLength="110.4" x="171.289" y="292.408">(g3, V3, r3, g4, V4, r4)</text></g><g class="message" data-participant-1="User" data-participant-2="User"><line style="stroke:#000000;stroke-width:1;" x1="154.289" x2="196.289" y1="325.364" y2="325.364"/><line style="stroke:#000000;stroke-width:1;" x1="196.289" x2="196.289" y1="325.364" y2="338.364"/><line style="stroke:#000000;stroke-width:1;" x1="155.289" x2="196.289" y1="338.364" y2="338.364"/><polygon fill="#000000" points="165.289,334.364,155.289,338.364,165.289,342.364" style="stroke:#000000;stroke-width:1;"/><text fill="#000000" font-family="Inconsolata,monospace" font-size="12" lengthAdjust="spacing" textLength="96" x="161.289" y="321.084">psa_pake_input()</text><text fill="#000000" font-family="Lato,sans-serif" font-size="12" lengthAdjust="spacing" textLength="15.378" x="260.361" y="320.808">for</text><text fill="#000000" font-family="Lato,sans-serif" font-size="12" font-style="italic" lengthAdjust="spacing" textLength="87.636" x="278.811" y="320.808">g3, V3, r3, g4, V4</text><text fill="#000000" font-family="Lato,sans-serif" font-size="12" lengthAdjust="spacing" textLength="25.176" x="366.447" y="320.808">, and</text><text fill="#000000" font-family="Lato,sans-serif" font-size="12" font-style="italic" lengthAdjust="spacing" textLength="11.064" x="394.695" y="320.808">r4</text></g><path d="M5,355.364 L5,371.364 A4,4 0 0 0 9,375.364 L299,375.364 A4,4 0 0 0 303,371.364 L303,361.364 L293,351.364 L9,351.364 A4,4 0 0 0 5,355.364" fill="#E8E8E8" style="stroke:#7D868C;stroke-width:1;"/><path d="M293,351.364 L293,359.364 A2,2 0 0 0 295,361.364 L303,361.364 L293,351.364" fill="#E8E8E8" style="stroke:#7D868C;stroke-width:1;"/><text fill="#000000" font-family="Lato,sans-serif" font-size="12" lengthAdjust="spacing" textLength="134.73" x="11" y="368.208">Verify ZKPs and compute</text><text fill="#000000" font-family="Lato,sans-serif" font-size="12" font-style="italic" lengthAdjust="spacing" textLength="7.572" x="148.802" y="368.208">A</text><text fill="#000000" font-family="Lato,sans-serif" font-size="12" lengthAdjust="spacing" textLength="44.832" x="159.446" y="368.208">and ZKP</text><text fill="#000000" font-family="Lato,sans-serif" font-size="12" font-style="italic" lengthAdjust="spacing" textLength="37.278" x="207.35" y="368.208">(V5, r5)</text><text fill="#000000" font-family="Lato,sans-serif" font-size="12" lengthAdjust="spacing" textLength="15.378" x="247.7" y="368.208">for</text><text fill="#000000" font-family="Lato,sans-serif" font-size="12" font-style="italic" lengthAdjust="spacing" textLength="12.528" x="266.15" y="368.208">x2</text><text fill="#000000" font-family="Lato,sans-serif" font-size="12" lengthAdjust="spacing" textLength="5.1" x="278.678" y="368.208">*</text><text fill="#000000" font-family="Lato,sans-serif" font-size="12" font-style="italic" lengthAdjust="spacing" textLength="4.8" x="283.778" y="368.208">s</text><path d="M313,355.364 L313,371.364 A4,4 0 0 0 317,375.364 L606,375.364 A4,4 0 0 0 610,371.364 L610,361.364 L600,351.364 L317,351.364 A4,4 0 0 0 313,355.364" fill="#E8E8E8" style="stroke:#7D868C;stroke-width:1;"/><path d="M600,351.364 L600,359.364 A2,2 0 0 0 602,361.364 L610,361.364 L600,351.364" fill="#E8E8E8" style="stroke:#7D868C;stroke-width:1;"/><text fill="#000000" font-family="Lato,sans-serif" font-size="12" lengthAdjust="spacing" textLength="134.73" x="319" y="368.208">Verify ZKPs and compute</text><text fill="#000000" font-family="Lato,sans-serif" font-size="12" font-style="italic" lengthAdjust="spacing" textLength="7.224" x="456.802" y="368.208">B</text><text fill="#000000" font-family="Lato,sans-serif" font-size="12" lengthAdjust="spacing" textLength="44.832" x="467.098" y="368.208">and ZKP</text><text fill="#000000" font-family="Lato,sans-serif" font-size="12" font-style="italic" lengthAdjust="spacing" textLength="36.162" x="515.002" y="368.208">(V6, r6)</text><text fill="#000000" font-family="Lato,sans-serif" font-size="12" lengthAdjust="spacing" textLength="15.378" x="554.236" y="368.208">for</text><text fill="#000000" font-family="Lato,sans-serif" font-size="12" font-style="italic" lengthAdjust="spacing" textLength="12.528" x="572.686" y="368.208">x4</text><text fill="#000000" font-family="Lato,sans-serif" font-size="12" lengthAdjust="spacing" textLength="5.1" x="585.214" y="368.208">*</text><text fill="#000000" font-family="Lato,sans-serif" font-size="12" font-style="italic" lengthAdjust="spacing" textLength="4.8" x="590.314" y="368.208">s</text><g class="message" data-participant-1="User" data-participant-2="User"><line style="stroke:#000000;stroke-width:1;" x1="154.289" x2="196.289" y1="401.164" y2="401.164"/><line style="stroke:#000000;stroke-width:1;" x1="196.289" x2="196.289" y1="401.164" y2="414.164"/><line style="stroke:#000000;stroke-width:1;" x1="155.289" x2="196.289" y1="414.164" y2="414.164"/><polygon fill="#000000" points="165.289,410.164,155.289,414.164,165.289,418.164" style="stroke:#000000;stroke-width:1;"/><text fill="#000000" font-family="Inconsolata,monospace" font-size="12" lengthAdjust="spacing" textLength="102" x="161.289" y="396.884">psa_pake_output()</text><text fill="#000000" font-family="Lato,sans-serif" font-size="12" lengthAdjust="spacing" textLength="15.378" x="266.361" y="396.608">for</text><text fill="#000000" font-family="Lato,sans-serif" font-size="12" font-style="italic" lengthAdjust="spacing" textLength="27.588" x="284.811" y="396.608">A, V5</text><text fill="#000000" font-family="Lato,sans-serif" font-size="12" lengthAdjust="spacing" textLength="25.176" x="312.399" y="396.608">, and</text><text fill="#000000" font-family="Lato,sans-serif" font-size="12" font-style="italic" lengthAdjust="spacing" textLength="11.064" x="340.647" y="396.608">r5</text></g><g class="message" data-participant-1="User" data-participant-2="Peer"><line style="stroke:#000000;stroke-width:1;" x1="460.135" x2="450.135" y1="442.564" y2="438.564"/><line style="stroke:#000000;stroke-width:1;" x1="460.135" x2="450.135" y1="442.564" y2="446.564"/><line style="stroke:#000000;stroke-width:1;" x1="154.289" x2="461.135" y1="442.564" y2="442.564"/><text fill="#000000" font-family="Lato,sans-serif" font-size="12" font-style="italic" lengthAdjust="spacing" textLength="50.352" x="161.289" y="438.008">(A, V5, r5)</text></g><g class="message" data-participant-1="Peer" data-participant-2="User"><line style="stroke:#000000;stroke-width:1;" x1="155.289" x2="165.289" y1="470.964" y2="466.964"/><line style="stroke:#000000;stroke-width:1;" x1="155.289" x2="165.289" y1="470.964" y2="474.964"/><line style="stroke:#000000;stroke-width:1;" x1="154.289" x2="461.135" y1="470.964" y2="470.964"/><text fill="#000000" font-family="Lato,sans-serif" font-size="12" font-style="italic" lengthAdjust="spacing" textLength="48.888" x="171.289" y="466.408">(B, V6, r6)</text></g><g class="message" data-participant-1="User" data-participant-2="User"><line style="stroke:#000000;stroke-width:1;" x1="154.289" x2="196.289" y1="499.364" y2="499.364"/><line style="stroke:#000000;stroke-width:1;" x1="196.289" x2="196.289" y1="499.364" y2="512.364"/><line style="stroke:#000000;stroke-width:1;" x1="155.289" x2="196.289" y1="512.364" y2="512.364"/><polygon fill="#000000" points="165.289,508.364,155.289,512.364,165.289,516.364" style="stroke:#000000;stroke-width:1;"/><text fill="#000000" font-family="Inconsolata,monospace" font-size="12" lengthAdjust="spacing" textLength="96" x="161.289" y="495.084">psa_pake_input()</text><text fill="#000000" font-family="Lato,sans-serif" font-size="12" lengthAdjust="spacing" textLength="15.378" x="260.361" y="494.808">for</text><text fill="#000000" font-family="Lato,sans-serif" font-size="12" font-style="italic" lengthAdjust="spacing" textLength="26.682" x="278.811" y="494.808">B, V6</text><text fill="#000000" font-family="Lato,sans-serif" font-size="12" lengthAdjust="spacing" textLength="25.176" x="305.493" y="494.808">, and</text><text fill="#000000" font-family="Lato,sans-serif" font-size="12" font-style="italic" lengthAdjust="spacing" textLength="10.506" x="333.741" y="494.808">r6</text></g><path d="M70,529.364 L70,545.364 A4,4 0 0 0 74,549.364 L233,549.364 A4,4 0 0 0 237,545.364 L237,535.364 L227,525.364 L74,525.364 A4,4 0 0 0 70,529.364" fill="#E8E8E8" style="stroke:#7D868C;stroke-width:1;"/><path d="M227,525.364 L227,533.364 A2,2 0 0 0 229,535.364 L237,535.364 L227,525.364" fill="#E8E8E8" style="stroke:#7D868C;stroke-width:1;"/><text fill="#000000" font-family="Lato,sans-serif" font-size="12" lengthAdjust="spacing" textLength="129.534" x="76" y="542.208">Verify ZKP and compute</text><text fill="#000000" font-family="Lato,sans-serif" font-size="12" font-style="italic" lengthAdjust="spacing" textLength="13.548" x="208.606" y="542.208">Ka</text><path d="M378,529.364 L378,545.364 A4,4 0 0 0 382,549.364 L541,549.364 A4,4 0 0 0 545,545.364 L545,535.364 L535,525.364 L382,525.364 A4,4 0 0 0 378,529.364" fill="#E8E8E8" style="stroke:#7D868C;stroke-width:1;"/><path d="M535,525.364 L535,533.364 A2,2 0 0 0 537,535.364 L545,535.364 L535,525.364" fill="#E8E8E8" style="stroke:#7D868C;stroke-width:1;"/><text fill="#000000" font-family="Lato,sans-serif" font-size="12" lengthAdjust="spacing" textLength="129.534" x="384" y="542.208">Verify ZKP and compute</text><text fill="#000000" font-family="Lato,sans-serif" font-size="12" font-style="italic" lengthAdjust="spacing" textLength="13.758" x="516.606" y="542.208">Kb</text><path d="M137,563.764 L137,579.764 A4,4 0 0 0 141,583.764 L474,583.764 A4,4 0 0 0 478,579.764 L478,569.764 L468,559.764 L141,559.764 A4,4 0 0 0 137,563.764" fill="#E8E8E8" style="stroke:#7D868C;stroke-width:1;"/><path d="M468,559.764 L468,567.764 A2,2 0 0 0 470,569.764 L478,569.764 L468,559.764" fill="#E8E8E8" style="stroke:#7D868C;stroke-width:1;"/><text fill="#000000" font-family="Lato,sans-serif" font-size="12" lengthAdjust="spacing" textLength="178.758" x="173.197" y="576.608">If both sides used the same secret</text><text fill="#000000" font-family="Lato,sans-serif" font-size="12" font-style="italic" lengthAdjust="spacing" textLength="4.8" x="355.027" y="576.608">s</text><text fill="#000000" font-family="Lato,sans-serif" font-size="12" lengthAdjust="spacing" textLength="29.826" x="359.827" y="576.608">, then</text><text fill="#000000" font-family="Lato,sans-serif" font-size="12" font-style="italic" lengthAdjust="spacing" textLength="13.548" x="392.725" y="576.608">Ka</text><text fill="#000000" font-family="Lato,sans-serif" font-size="12" lengthAdjust="spacing" textLength="6.96" x="409.345" y="576.608">=</text><text fill="#000000" font-family="Lato,sans-serif" font-size="12" font-style="italic" lengthAdjust="spacing" textLength="13.758" x="419.377" y="576.608">Kb</text><g class="message" data-participant-1="User" data-participant-2="User"><line style="stroke:#000000;stroke-width:1;" x1="154.289" x2="196.289" y1="609.564" y2="609.564"/><line style="stroke:#000000;stroke-width:1;" x1="196.289" x2="196.289" y1="609.564" y2="622.564"/><line style="stroke:#000000;stroke-width:1;" x1="155.289" x2="196.289" y1="622.564" y2="622.564"/><polygon fill="#000000" points="165.289,618.564,155.289,622.564,165.289,626.564" style="stroke:#000000;stroke-width:1;"/><text fill="#000000" font-family="Inconsolata,monospace" font-size="12" lengthAdjust="spacing" textLength="150" x="161.289" y="605.284">psa_pake_get_shared_key()</text><text fill="#000000" font-family="Lato,sans-serif" font-size="12" lengthAdjust="spacing" textLength="51.156" x="314.361" y="605.008">to extract</text><text fill="#000000" font-family="Lato,sans-serif" font-size="12" font-style="italic" lengthAdjust="spacing" textLength="13.548" x="368.589" y="605.008">Ka</text></g></g></svg>