<svg xmlns="http://www.w3.org/2000/svg" xmlns:xlink="http://www.w3.org/1999/xlink" contentStyleType="text/css" data-diagram-type="SEQUENCE" height="709px" preserveAspectRatio="none" style="width:622px;height:709px;background:#FFFFFF55;" version="1.1" viewBox="0 0 622 709" width="622px" zoomAndPan="magnify"><defs/><g><rect fill="#FFFFFF" fill-opacity="0.33333" height="709" style="stroke:none;stroke-width:1;" width="622" x="0" y="0"/><rect fill="#FFFFFF" fill-opacity="0.50196" height="127.6" rx="4" ry="4" style="stroke:#808080;stroke-width:1;" width="533.525" x="83" y="367.764"/><rect fill="#FFFFFF" fill-opacity="0.50196" height="57.8" rx="4" ry="4" style="stroke:#808080;stroke-width:1;" width="212.871" x="175" y="586.564"/><g><title>STA-A</title><rect fill="#000000" fill-opacity="0.00000" height="668.364" width="8" x="205.151" y="34.4"/><line style="stroke:#808080;stroke-width:0.5;stroke-dasharray:5.0,5.0;" x1="209" x2="209" y1="34.4" y2="702.764"/></g><g><title>STA-B</title><rect fill="#000000" fill-opacity="0.00000" height="668.364" width="8" x="578.557" y="34.4"/><line style="stroke:#808080;stroke-width:0.5;stroke-dasharray:5.0,5.0;" x1="581.589" x2="581.589" y1="34.4" y2="702.764"/></g><g class="participant participant-head" data-participant="STAA"><rect fill="#FFFFFF" height="28.4" rx="4" ry="4" style="stroke:#000000;stroke-width:1;" width="48.302" x="185" y="5"/><text fill="#000000" font-family="Lato,sans-serif" font-size="12" lengthAdjust="spacing" textLength="34.302" x="192" y="23.844">STA-A</text></g><g class="participant participant-head" data-participant="STAB"><rect fill="#FFFFFF" height="28.4" rx="4" ry="4" style="stroke:#000000;stroke-width:1;" width="47.936" x="558.589" y="5"/><text fill="#000000" font-family="Lato,sans-serif" font-size="12" lengthAdjust="spacing" textLength="33.936" x="565.589" y="23.844">STA-B</text></g><path d="M187,53.4 L187,98.4 A4,4 0 0 0 191,102.4 L599,102.4 A4,4 0 0 0 603,98.4 L603,59.4 L593,49.4 L191,49.4 A4,4 0 0 0 187,53.4" fill="#E8E8E8" style="stroke:#7D868C;stroke-width:1;"/><path d="M593,49.4 L593,57.4 A2,2 0 0 0 595,59.4 L603,59.4 L593,49.4" fill="#E8E8E8" style="stroke:#7D868C;stroke-width:1;"/><text fill="#000000" font-family="Lato,sans-serif" font-size="12" lengthAdjust="spacing" textLength="171.144" x="239.2985" y="66.244">Shared information: cipher suite,</text><text fill="#000000" font-family="Lato,sans-serif" font-size="12" font-style="italic" lengthAdjust="spacing" textLength="61.632" x="413.5145" y="66.244">STA-A-MAC</text><text fill="#000000" font-family="Lato,sans-serif" font-size="12" lengthAdjust="spacing" textLength="2.724" x="475.1465" y="66.244">,</text><text fill="#000000" font-family="Lato,sans-serif" font-size="12" font-style="italic" lengthAdjust="spacing" textLength="61.284" x="480.9425" y="66.244">STA-B-MAC</text><text fill="#000000" font-family="Lato,sans-serif" font-size="12" lengthAdjust="spacing" textLength="157.362" x="239.2985" y="80.644">If generating PWE by looping:</text><text fill="#000000" font-family="Lato,sans-serif" font-size="12" font-style="italic" lengthAdjust="spacing" textLength="47.43" x="399.7325" y="80.644">password</text><text fill="#000000" font-family="Lato,sans-serif" font-size="12" lengthAdjust="spacing" textLength="205.662" x="239.2985" y="95.044">If generating PWE by hash-to-element:</text><text fill="#000000" font-family="Lato,sans-serif" font-size="12" font-style="italic" lengthAdjust="spacing" textLength="13.296" x="448.0325" y="95.044">PT</text><g class="message" data-participant-1="STAA" data-participant-2="STAA"><line style="stroke:#000000;stroke-width:1;" x1="209.151" x2="251.151" y1="151.364" y2="151.364"/><line style="stroke:#000000;stroke-width:1;" x1="251.151" x2="251.151" y1="151.364" y2="164.364"/><line style="stroke:#000000;stroke-width:1;" x1="210.151" x2="251.151" y1="164.364" y2="164.364"/><polygon fill="#000000" points="220.151,160.364,210.151,164.364,220.151,168.364" style="stroke:#000000;stroke-width:1;"/><text fill="#000000" font-family="Inconsolata,monospace" font-size="12" lengthAdjust="spacing" textLength="96" x="216.151" y="121.908">psa_pake_setup()</text><text fill="#000000" font-family="Inconsolata,monospace" font-size="12" lengthAdjust="spacing" textLength="168" x="216.151" y="134.496">psa_pake_set_user(STA-A-MAC)</text><text fill="#000000" font-family="Inconsolata,monospace" font-size="12" lengthAdjust="spacing" textLength="168" x="216.151" y="147.084">psa_pake_set_peer(STA-B-MAC)</text></g><path d="M13,117.382 L13,162.382 A4,4 0 0 0 17,166.382 L199,166.382 A4,4 0 0 0 203,162.382 L203,123.382 L193,113.382 L17,113.382 A4,4 0 0 0 13,117.382" fill="#E8E8E8" style="stroke:#7D868C;stroke-width:1;"/><path d="M193,113.382 L193,121.382 A2,2 0 0 0 195,123.382 L203,123.382 L193,113.382" fill="#E8E8E8" style="stroke:#7D868C;stroke-width:1;"/><text fill="#000000" font-family="Lato,sans-serif" font-size="12" lengthAdjust="spacing" textLength="74.496" x="19" y="130.226">Provide either</text><text fill="#000000" font-family="Lato,sans-serif" font-size="12" font-style="italic" lengthAdjust="spacing" textLength="47.43" x="96.568" y="130.226">password</text><text fill="#000000" font-family="Lato,sans-serif" font-size="12" lengthAdjust="spacing" textLength="11.172" x="147.07" y="130.226">or</text><text fill="#000000" font-family="Lato,sans-serif" font-size="12" font-style="italic" lengthAdjust="spacing" textLength="13.296" x="161.314" y="130.226">PT</text><text fill="#000000" font-family="Lato,sans-serif" font-size="12" lengthAdjust="spacing" textLength="11.106" x="177.682" y="130.226">to</text><text fill="#000000" font-family="Inconsolata,monospace" font-size="12" lengthAdjust="spacing" textLength="96" x="19" y="144.902">psa_pake_setup()</text><text fill="#000000" font-family="Lato,sans-serif" font-size="12" lengthAdjust="spacing" textLength="55.35" x="118.072" y="144.626">depending</text><text fill="#000000" font-family="Lato,sans-serif" font-size="12" lengthAdjust="spacing" textLength="146.628" x="19" y="159.026">on PWE generation method</text><g class="message" data-participant-1="STAA" data-participant-2="STAA"><line style="stroke:#000000;stroke-width:1;" x1="209.151" x2="251.151" y1="196.464" y2="196.464"/><line style="stroke:#000000;stroke-width:1;" x1="251.151" x2="251.151" y1="196.464" y2="209.464"/><line style="stroke:#000000;stroke-width:1;" x1="210.151" x2="251.151" y1="209.464" y2="209.464"/><polygon fill="#000000" points="220.151,205.464,210.151,209.464,220.151,213.464" style="stroke:#000000;stroke-width:1;"/><text fill="#000000" font-family="Inconsolata,monospace" font-size="12" lengthAdjust="spacing" textLength="102" x="216.151" y="192.184">psa_pake_output()</text><text fill="#000000" font-family="Lato,sans-serif" font-size="12" lengthAdjust="spacing" textLength="15.378" x="321.223" y="191.908">for</text><text fill="#000000" font-family="Lato,sans-serif" font-size="12" font-style="italic" lengthAdjust="spacing" textLength="71.118" x="339.673" y="191.908">commit-scalar</text><text fill="#000000" font-family="Lato,sans-serif" font-size="12" lengthAdjust="spacing" textLength="6.012" x="413.863" y="191.908">||</text><text fill="#000000" font-family="Lato,sans-serif" font-size="12" font-style="italic" lengthAdjust="spacing" textLength="101.598" x="422.947" y="191.908">COMMIT-ELEMENT</text></g><path d="M5,181.364 L5,211.364 A4,4 0 0 0 9,215.364 L200,215.364 A4,4 0 0 0 204,211.364 L204,187.364 L194,177.364 L9,177.364 A4,4 0 0 0 5,181.364" fill="#E8E8E8" style="stroke:#7D868C;stroke-width:1;"/><path d="M194,177.364 L194,185.364 A2,2 0 0 0 196,187.364 L204,187.364 L194,177.364" fill="#E8E8E8" style="stroke:#7D868C;stroke-width:1;"/><text fill="#000000" font-family="Lato,sans-serif" font-size="12" lengthAdjust="spacing" textLength="49.104" x="11" y="194.208">Generate</text><text fill="#000000" font-family="Lato,sans-serif" font-size="12" font-style="italic" lengthAdjust="spacing" textLength="22.944" x="63.176" y="194.208">rand</text><text fill="#000000" font-family="Lato,sans-serif" font-size="12" lengthAdjust="spacing" textLength="2.724" x="86.12" y="194.208">,</text><text fill="#000000" font-family="Lato,sans-serif" font-size="12" font-style="italic" lengthAdjust="spacing" textLength="26.064" x="91.916" y="194.208">mask</text><text fill="#000000" font-family="Lato,sans-serif" font-size="12" lengthAdjust="spacing" textLength="52.668" x="117.98" y="194.208">; compute</text><text fill="#000000" font-family="Lato,sans-serif" font-size="12" font-style="italic" lengthAdjust="spacing" textLength="71.118" x="11" y="208.608">commit-scalar</text><text fill="#000000" font-family="Lato,sans-serif" font-size="12" lengthAdjust="spacing" textLength="2.724" x="82.118" y="208.608">,</text><text fill="#000000" font-family="Lato,sans-serif" font-size="12" font-style="italic" lengthAdjust="spacing" textLength="101.598" x="87.914" y="208.608">COMMIT-ELEMENT</text><g class="message" data-participant-1="STAA" data-participant-2="STAB"><line style="stroke:#000000;stroke-width:1;" x1="580.557" x2="570.557" y1="241.564" y2="237.564"/><line style="stroke:#000000;stroke-width:1;" x1="580.557" x2="570.557" y1="241.564" y2="245.564"/><line style="stroke:#000000;stroke-width:1;" x1="209.151" x2="581.557" y1="241.564" y2="241.564"/><text fill="#000000" font-family="Lato,sans-serif" font-size="12" font-style="italic" lengthAdjust="spacing" textLength="62.556" x="216.151" y="237.008">SAE Commit</text><text fill="#000000" font-family="Lato,sans-serif" font-size="12" lengthAdjust="spacing" textLength="30.744" x="281.779" y="237.008">frame</text><text fill="#000000" font-family="Lato,sans-serif" font-size="12" font-style="italic" lengthAdjust="spacing" textLength="184.416" x="315.595" y="237.008">(commit-scalar, COMMIT-ELEMENT)</text></g><g class="message" data-participant-1="STAB" data-participant-2="STAA"><line style="stroke:#000000;stroke-width:1;" x1="210.151" x2="220.151" y1="269.964" y2="265.964"/><line style="stroke:#000000;stroke-width:1;" x1="210.151" x2="220.151" y1="269.964" y2="273.964"/><line style="stroke:#000000;stroke-width:1;" x1="209.151" x2="581.557" y1="269.964" y2="269.964"/><text fill="#000000" font-family="Lato,sans-serif" font-size="12" font-style="italic" lengthAdjust="spacing" textLength="62.556" x="226.151" y="265.408">SAE Commit</text><text fill="#000000" font-family="Lato,sans-serif" font-size="12" lengthAdjust="spacing" textLength="30.744" x="291.779" y="265.408">frame</text><text fill="#000000" font-family="Lato,sans-serif" font-size="12" font-style="italic" lengthAdjust="spacing" textLength="241.428" x="325.595" y="265.408">(peer-commit-scalar, PEER-COMMIT-ELEMENT)</text></g><g class="message" data-participant-1="STAA" data-participant-2="STAA"><line style="stroke:#000000;stroke-width:1;" x1="209.151" x2="251.151" y1="298.364" y2="298.364"/><line style="stroke:#000000;stroke-width:1;" x1="251.151" x2="251.151" y1="298.364" y2="311.364"/><line style="stroke:#000000;stroke-width:1;" x1="210.151" x2="251.151" y1="311.364" y2="311.364"/><polygon fill="#000000" points="220.151,307.364,210.151,311.364,220.151,315.364" style="stroke:#000000;stroke-width:1;"/><text fill="#000000" font-family="Inconsolata,monospace" font-size="12" lengthAdjust="spacing" textLength="96" x="216.151" y="294.084">psa_pake_input()</text><text fill="#000000" font-family="Lato,sans-serif" font-size="12" lengthAdjust="spacing" textLength="15.378" x="315.223" y="293.808">for</text><text fill="#000000" font-family="Lato,sans-serif" font-size="12" font-style="italic" lengthAdjust="spacing" textLength="97.26" x="333.673" y="293.808">peer-commit-scalar</text><text fill="#000000" font-family="Lato,sans-serif" font-size="12" lengthAdjust="spacing" textLength="6.012" x="434.005" y="293.808">||</text><text fill="#000000" font-family="Lato,sans-serif" font-size="12" font-style="italic" lengthAdjust="spacing" textLength="132.468" x="443.089" y="293.808">PEER-COMMIT-ELEMENT</text></g><path d="M43,290.464 L43,306.464 A4,4 0 0 0 47,310.464 L200,310.464 A4,4 0 0 0 204,306.464 L204,296.464 L194,286.464 L47,286.464 A4,4 0 0 0 43,290.464" fill="#E8E8E8" style="stroke:#7D868C;stroke-width:1;"/><path d="M194,286.464 L194,294.464 A2,2 0 0 0 196,296.464 L204,296.464 L194,286.464" fill="#E8E8E8" style="stroke:#7D868C;stroke-width:1;"/><text fill="#000000" font-family="Lato,sans-serif" font-size="12" lengthAdjust="spacing" textLength="131.352" x="49" y="303.308">Validate inputs; compute</text><text fill="#000000" font-family="Lato,sans-serif" font-size="12" font-style="italic" lengthAdjust="spacing" textLength="5.688" x="183.424" y="303.308">k</text><g class="message" data-participant-1="STAA" data-participant-2="STAA"><line style="stroke:#000000;stroke-width:1;" x1="209.151" x2="251.151" y1="339.764" y2="339.764"/><line style="stroke:#000000;stroke-width:1;" x1="251.151" x2="251.151" y1="339.764" y2="352.764"/><line style="stroke:#000000;stroke-width:1;" x1="210.151" x2="251.151" y1="352.764" y2="352.764"/><polygon fill="#000000" points="220.151,348.764,210.151,352.764,220.151,356.764" style="stroke:#000000;stroke-width:1;"/><text fill="#000000" font-family="Inconsolata,monospace" font-size="12" lengthAdjust="spacing" textLength="96" x="216.151" y="335.484">psa_pake_input()</text><text fill="#000000" font-family="Lato,sans-serif" font-size="12" lengthAdjust="spacing" textLength="15.378" x="315.223" y="335.208">for</text><text fill="#000000" font-family="Lato,sans-serif" font-size="12" font-style="italic" lengthAdjust="spacing" textLength="17.886" x="333.673" y="335.208">salt</text></g><path d="M54,331.864 L54,347.864 A4,4 0 0 0 58,351.864 L199,351.864 A4,4 0 0 0 203,347.864 L203,337.864 L193,327.864 L58,327.864 A4,4 0 0 0 54,331.864" fill="#E8E8E8" style="stroke:#7D868C;stroke-width:1;"/><path d="M193,327.864 L193,335.864 A2,2 0 0 0 195,337.864 L203,337.864 L193,327.864" fill="#E8E8E8" style="stroke:#7D868C;stroke-width:1;"/><text fill="#000000" font-family="Lato,sans-serif" font-size="12" lengthAdjust="spacing" textLength="48.744" x="60" y="344.708">Compute</text><text fill="#000000" font-family="Lato,sans-serif" font-size="12" font-style="italic" lengthAdjust="spacing" textLength="46.662" x="111.816" y="344.708">SAE-KCK</text><text fill="#000000" font-family="Lato,sans-serif" font-size="12" lengthAdjust="spacing" textLength="2.724" x="158.478" y="344.708">,</text><text fill="#000000" font-family="Lato,sans-serif" font-size="12" font-style="italic" lengthAdjust="spacing" textLength="24.51" x="164.274" y="344.708">PMK</text><path d="M87,367.764 L151.166,367.764 L151.166,374.164 L141.166,384.164 L83,384.164 L83,371.764 A4,4 0 0 1 87,367.764" fill="#F0F0F0" style="stroke:#808080;stroke-width:1.5;"/><rect fill="none" height="127.6" rx="4" ry="4" style="stroke:#808080;stroke-width:1;" width="533.525" x="83" y="367.764"/><text fill="#000000" font-family="Lato,sans-serif" font-size="12" lengthAdjust="spacing" textLength="23.166" x="98" y="380.608">loop</text><text fill="#000000" font-family="Lato,sans-serif" font-size="11" font-weight="bold" lengthAdjust="spacing" textLength="27.4395" x="166.166" y="380.621">[Until</text><text fill="#000000" font-family="Lato,sans-serif" font-size="11" font-style="italic" font-weight="bold" lengthAdjust="spacing" textLength="58.6135" x="196.2785" y="380.621">SAE Confirm</text><text fill="#000000" font-family="Lato,sans-serif" font-size="11" font-weight="bold" lengthAdjust="spacing" textLength="199.3365" x="257.565" y="380.621">frame is successfully delivered to STA-B]</text><g class="message" data-participant-1="STAA" data-participant-2="STAA"><line style="stroke:#000000;stroke-width:1;" x1="209.151" x2="251.151" y1="404.564" y2="404.564"/><line style="stroke:#000000;stroke-width:1;" x1="251.151" x2="251.151" y1="404.564" y2="417.564"/><line style="stroke:#000000;stroke-width:1;" x1="210.151" x2="251.151" y1="417.564" y2="417.564"/><polygon fill="#000000" points="220.151,413.564,210.151,417.564,220.151,421.564" style="stroke:#000000;stroke-width:1;"/><text fill="#000000" font-family="Inconsolata,monospace" font-size="12" lengthAdjust="spacing" textLength="96" x="216.151" y="400.284">psa_pake_input()</text><text fill="#000000" font-family="Lato,sans-serif" font-size="12" lengthAdjust="spacing" textLength="15.378" x="315.223" y="400.008">for</text><text fill="#000000" font-family="Lato,sans-serif" font-size="12" font-style="italic" lengthAdjust="spacing" textLength="65.658" x="333.673" y="400.008">send-confirm</text><text fill="#000000" font-family="Lato,sans-serif" font-size="12" lengthAdjust="spacing" textLength="40.926" x="402.403" y="400.008">counter</text></g><g class="message" data-participant-1="STAA" data-participant-2="STAA"><line style="stroke:#000000;stroke-width:1;" x1="209.151" x2="251.151" y1="445.964" y2="445.964"/><line style="stroke:#000000;stroke-width:1;" x1="251.151" x2="251.151" y1="445.964" y2="458.964"/><line style="stroke:#000000;stroke-width:1;" x1="210.151" x2="251.151" y1="458.964" y2="458.964"/><polygon fill="#000000" points="220.151,454.964,210.151,458.964,220.151,462.964" style="stroke:#000000;stroke-width:1;"/><text fill="#000000" font-family="Inconsolata,monospace" font-size="12" lengthAdjust="spacing" textLength="102" x="216.151" y="441.684">psa_pake_output()</text><text fill="#000000" font-family="Lato,sans-serif" font-size="12" lengthAdjust="spacing" textLength="15.378" x="321.223" y="441.408">for</text><text fill="#000000" font-family="Lato,sans-serif" font-size="12" font-style="italic" lengthAdjust="spacing" textLength="65.658" x="339.673" y="441.408">send-confirm</text><text fill="#000000" font-family="Lato,sans-serif" font-size="12" lengthAdjust="spacing" textLength="6.012" x="408.403" y="441.408">||</text><text fill="#000000" font-family="Lato,sans-serif" font-size="12" font-style="italic" lengthAdjust="spacing" textLength="38.196" x="417.487" y="441.408">confirm</text></g><path d="M93,438.064 L93,454.064 A4,4 0 0 0 97,458.064 L200,458.064 A4,4 0 0 0 204,454.064 L204,444.064 L194,434.064 L97,434.064 A4,4 0 0 0 93,438.064" fill="#E8E8E8" style="stroke:#7D868C;stroke-width:1;"/><path d="M194,434.064 L194,442.064 A2,2 0 0 0 196,444.064 L204,444.064 L194,434.064" fill="#E8E8E8" style="stroke:#7D868C;stroke-width:1;"/><text fill="#000000" font-family="Lato,sans-serif" font-size="12" lengthAdjust="spacing" textLength="48.744" x="99" y="450.908">Compute</text><text fill="#000000" font-family="Lato,sans-serif" font-size="12" font-style="italic" lengthAdjust="spacing" textLength="38.196" x="150.816" y="450.908">confirm</text><g class="message" data-participant-1="STAA" data-participant-2="STAB"><line style="stroke:#000000;stroke-width:1;" x1="580.557" x2="570.557" y1="487.364" y2="483.364"/><line style="stroke:#000000;stroke-width:1;" x1="580.557" x2="570.557" y1="487.364" y2="491.364"/><line style="stroke:#000000;stroke-width:1;" x1="209.151" x2="581.557" y1="487.364" y2="487.364"/><text fill="#000000" font-family="Lato,sans-serif" font-size="12" font-style="italic" lengthAdjust="spacing" textLength="63.168" x="216.151" y="482.808">SAE Confirm</text><text fill="#000000" font-family="Lato,sans-serif" font-size="12" lengthAdjust="spacing" textLength="30.744" x="282.391" y="482.808">frame</text><text fill="#000000" font-family="Lato,sans-serif" font-size="12" font-style="italic" lengthAdjust="spacing" textLength="115.554" x="316.207" y="482.808">(send-confirm, confirm)</text></g><g class="message" data-participant-1="STAB" data-participant-2="STAA"><line style="stroke:#000000;stroke-width:1;" x1="210.151" x2="220.151" y1="522.764" y2="518.764"/><line style="stroke:#000000;stroke-width:1;" x1="210.151" x2="220.151" y1="522.764" y2="526.764"/><line style="stroke:#000000;stroke-width:1;" x1="209.151" x2="581.557" y1="522.764" y2="522.764"/><text fill="#000000" font-family="Lato,sans-serif" font-size="12" font-style="italic" lengthAdjust="spacing" textLength="63.168" x="226.151" y="518.208">SAE Confirm</text><text fill="#000000" font-family="Lato,sans-serif" font-size="12" lengthAdjust="spacing" textLength="30.744" x="292.391" y="518.208">frame</text><text fill="#000000" font-family="Lato,sans-serif" font-size="12" font-style="italic" lengthAdjust="spacing" textLength="167.838" x="326.207" y="518.208">(peer-send-confirm, peer-confirm)</text></g><g class="message" data-participant-1="STAA" data-participant-2="STAA"><line style="stroke:#000000;stroke-width:1;" x1="209.151" x2="251.151" y1="554.864" y2="554.864"/><line style="stroke:#000000;stroke-width:1;" x1="251.151" x2="251.151" y1="554.864" y2="567.864"/><line style="stroke:#000000;stroke-width:1;" x1="210.151" x2="251.151" y1="567.864" y2="567.864"/><polygon fill="#000000" points="220.151,563.864,210.151,567.864,220.151,571.864" style="stroke:#000000;stroke-width:1;"/><text fill="#000000" font-family="Inconsolata,monospace" font-size="12" lengthAdjust="spacing" textLength="96" x="216.151" y="550.584">psa_pake_input()</text><text fill="#000000" font-family="Lato,sans-serif" font-size="12" lengthAdjust="spacing" textLength="15.378" x="315.223" y="550.308">for</text><text fill="#000000" font-family="Lato,sans-serif" font-size="12" font-style="italic" lengthAdjust="spacing" textLength="91.8" x="333.673" y="550.308">peer-send-confirm</text><text fill="#000000" font-family="Lato,sans-serif" font-size="12" lengthAdjust="spacing" textLength="6.012" x="428.545" y="550.308">||</text><text fill="#000000" font-family="Lato,sans-serif" font-size="12" font-style="italic" lengthAdjust="spacing" textLength="64.338" x="437.629" y="550.308">peer-confirm</text></g><path d="M51,539.764 L51,569.764 A4,4 0 0 0 55,573.764 L199,573.764 A4,4 0 0 0 203,569.764 L203,545.764 L193,535.764 L55,535.764 A4,4 0 0 0 51,539.764" fill="#E8E8E8" style="stroke:#7D868C;stroke-width:1;"/><path d="M193,535.764 L193,543.764 A2,2 0 0 0 195,545.764 L203,545.764 L193,535.764" fill="#E8E8E8" style="stroke:#7D868C;stroke-width:1;"/><text fill="#000000" font-family="Lato,sans-serif" font-size="12" lengthAdjust="spacing" textLength="115.458" x="57" y="552.608">Compute and validate</text><text fill="#000000" font-family="Lato,sans-serif" font-size="12" font-style="italic" lengthAdjust="spacing" textLength="54.096" x="57" y="567.008">peer-verify</text><text fill="#000000" font-family="Lato,sans-serif" font-size="12" lengthAdjust="spacing" textLength="6.96" x="114.168" y="567.008">=</text><text fill="#000000" font-family="Lato,sans-serif" font-size="12" font-style="italic" lengthAdjust="spacing" textLength="64.338" x="124.2" y="567.008">peer-confirm</text><path d="M179,586.564 L237.832,586.564 L237.832,592.964 L227.832,602.964 L175,602.964 L175,590.564 A4,4 0 0 1 179,586.564" fill="#F0F0F0" style="stroke:#808080;stroke-width:1.5;"/><rect fill="none" height="57.8" rx="4" ry="4" style="stroke:#808080;stroke-width:1;" width="212.871" x="175" y="586.564"/><text fill="#000000" font-family="Lato,sans-serif" font-size="12" lengthAdjust="spacing" textLength="17.832" x="190" y="599.408">opt</text><g class="message" data-participant-1="STAA" data-participant-2="STAA"><line style="stroke:#000000;stroke-width:1;" x1="209.151" x2="251.151" y1="623.364" y2="623.364"/><line style="stroke:#000000;stroke-width:1;" x1="251.151" x2="251.151" y1="623.364" y2="636.364"/><line style="stroke:#000000;stroke-width:1;" x1="210.151" x2="251.151" y1="636.364" y2="636.364"/><polygon fill="#000000" points="220.151,632.364,210.151,636.364,220.151,640.364" style="stroke:#000000;stroke-width:1;"/><text fill="#000000" font-family="Inconsolata,monospace" font-size="12" lengthAdjust="spacing" textLength="102" x="216.151" y="619.084">psa_pake_output()</text><text fill="#000000" font-family="Lato,sans-serif" font-size="12" lengthAdjust="spacing" textLength="15.378" x="321.223" y="618.808">for</text><text fill="#000000" font-family="Lato,sans-serif" font-size="12" font-style="italic" lengthAdjust="spacing" textLength="36.198" x="339.673" y="618.808">PMKID</text></g><g class="message" data-participant-1="STAA" data-participant-2="STAA"><line style="stroke:#000000;stroke-width:1;" x1="209.151" x2="251.151" y1="671.764" y2="671.764"/><line style="stroke:#000000;stroke-width:1;" x1="251.151" x2="251.151" y1="671.764" y2="684.764"/><line style="stroke:#000000;stroke-width:1;" x1="210.151" x2="251.151" y1="684.764" y2="684.764"/><polygon fill="#000000" points="220.151,680.764,210.151,684.764,220.151,688.764" style="stroke:#000000;stroke-width:1;"/><text fill="#000000" font-family="Inconsolata,monospace" font-size="12" lengthAdjust="spacing" textLength="150" x="216.151" y="667.484">psa_pake_get_shared_key()</text><text fill="#000000" font-family="Lato,sans-serif" font-size="12" lengthAdjust="spacing" textLength="51.156" x="369.223" y="667.208">to extract</text><text fill="#000000" font-family="Lato,sans-serif" font-size="12" font-style="italic" lengthAdjust="spacing" textLength="24.51" x="423.451" y="667.208">PMK</text></g></g></svg>