<svg xmlns="http://www.w3.org/2000/svg" xmlns:xlink="http://www.w3.org/1999/xlink" contentStyleType="text/css" data-diagram-type="DESCRIPTION" height="239px" preserveAspectRatio="none" style="width:645px;height:239px;background:#FFFFFF55;" version="1.1" viewBox="0 0 645 239" width="645px" zoomAndPan="magnify"><defs><style type="text/css">@import url('https://fonts.googleapis.com/css?family=Roboto:400,100,100italic,300,300italic,400italic,500,500italic,700,700italic,900,900italic');</style></defs><g><rect fill="#FFFFFF" fill-opacity="0.33333" height="239" style="stroke:none;stroke-width:1;" width="645" x="0" y="0"/><g class="cluster" data-entity="##2" data-source-line="15" data-uid="ent0003" id="cluster_##2"><rect fill="#FFFFFF" fill-opacity="0.56471" height="101" style="stroke:#8B0000;stroke-width:1;stroke-dasharray:7.0,7.0;" width="301.98" x="7" y="7"/><text fill="#000000" font-family="Roboto,sans-serif" font-size="11" font-style="italic" lengthAdjust="spacing" textLength="110.7466" x="102.6167" y="19.2051">&#171;Application boundary&#187;</text></g><g class="cluster" data-entity="##6" data-source-line="15" data-uid="ent0007" id="cluster_##6"><rect fill="#FFFFFF" fill-opacity="0.56471" height="91" style="stroke:#8B0000;stroke-width:1;stroke-dasharray:7.0,7.0;" width="302.85" x="336.98" y="75"/><text fill="#000000" font-family="Roboto,sans-serif" font-size="11" font-style="italic" lengthAdjust="spacing" textLength="130.4531" x="423.1784" y="87.2051">&#171;Data protection boundary&#187;</text></g><g class="cluster" data-entity="##10" data-source-line="15" data-uid="ent0011" id="cluster_##10"><rect fill="#FFFFFF" fill-opacity="0.56471" height="101" style="stroke:#8B0000;stroke-width:1;stroke-dasharray:7.0,7.0;" width="301.98" x="7" y="132"/><text fill="#000000" font-family="Roboto,sans-serif" font-size="11" font-style="italic" lengthAdjust="spacing" textLength="110.7466" x="102.6167" y="144.2051">&#171;Application boundary&#187;</text></g><!--entity caller1--><g class="entity" data-entity="caller1" data-source-line="16" data-uid="ent0004" id="entity_caller1"><rect fill="#7D868C" height="34.0625" rx="4" ry="4" width="89.9844" x="23" y="47.97"/><text fill="#FFFFFF" font-family="Roboto,sans-serif" font-size="12" lengthAdjust="spacing" textLength="69.9844" x="33" y="69.1028">Application 1</text></g><!--entity api1--><g class="entity" data-entity="api1" data-source-line="17" data-uid="ent0005" id="entity_api1"><ellipse cx="232.98" cy="65" fill="#95D600" rx="8" ry="8" style="stroke:#7D868C;stroke-width:1;"/><text fill="#000000" font-family="Roboto,sans-serif" font-size="12" font-weight="bold" lengthAdjust="spacing" textLength="105.3633" x="180.2984" y="93.1328">Secure Storage API</text></g><!--entity service--><g class="entity" data-entity="service" data-source-line="20" data-uid="ent0008" id="entity_service"><rect fill="#0091BD" height="34.0625" rx="4" ry="4" width="102.5645" x="352.98" y="110.97"/><text fill="#FFFFFF" font-family="Roboto,sans-serif" font-size="12" lengthAdjust="spacing" textLength="82.5645" x="362.98" y="132.1028">Storage service</text></g><!--entity store--><g class="entity" data-entity="store" data-source-line="21" data-uid="ent0009" id="entity_store"><path d="M515.55,116.47 C515.55,106.47 569.6887,106.47 569.6887,106.47 C569.6887,106.47 623.8273,106.47 623.8273,116.47 L623.8273,139.5325 C623.8273,149.5325 569.6887,149.5325 569.6887,149.5325 C569.6887,149.5325 515.55,149.5325 515.55,139.5325 L515.55,116.47" fill="#E5ECEB" style="stroke:#7D868C;stroke-width:1;"/><path d="M515.55,116.47 C515.55,126.47 569.6887,126.47 569.6887,126.47 C569.6887,126.47 623.8273,126.47 623.8273,116.47" fill="none" style="stroke:#7D868C;stroke-width:1;"/><text fill="#000000" font-family="Roboto,sans-serif" font-size="12" lengthAdjust="spacing" textLength="88.2773" x="525.55" y="141.6028">Storage medium</text></g><!--entity api2--><g class="entity" data-entity="api2" data-source-line="24" data-uid="ent0012" id="entity_api2"><ellipse cx="232.98" cy="190" fill="#95D600" rx="8" ry="8" style="stroke:#7D868C;stroke-width:1;"/><text fill="#000000" font-family="Roboto,sans-serif" font-size="12" font-weight="bold" lengthAdjust="spacing" textLength="105.3633" x="180.2984" y="218.1328">Secure Storage API</text></g><!--entity caller2--><g class="entity" data-entity="caller2" data-source-line="25" data-uid="ent0013" id="entity_caller2"><rect fill="#7D868C" height="34.0625" rx="4" ry="4" width="89.9844" x="23" y="172.97"/><text fill="#FFFFFF" font-family="Roboto,sans-serif" font-size="12" lengthAdjust="spacing" textLength="69.9844" x="33" y="194.1028">Application 2</text></g><!--link caller1 to api1--><g class="link" data-entity-1="caller1" data-entity-2="api1" data-source-line="28" data-uid="lnk14" id="link_caller1_api1"><path d="M113.1,65 C151.57,65 204.22,65 224.02,65" fill="none" id="caller1-api1" style="stroke:#000000;stroke-width:1;"/></g><!--link api1 to service--><g class="link" data-entity-1="api1" data-entity-2="service" data-source-line="29" data-uid="lnk15" id="link_api1_service"><path d="M241.7,67.87 C261.62,75.28 310.4166,93.4478 350.6266,108.4078" fill="none" id="api1-to-service" style="stroke:#000000;stroke-width:1;"/><polygon fill="#000000" points="356.25,110.5,349.2097,103.6128,351.5638,108.7565,346.4201,111.1107,356.25,110.5" style="stroke:#000000;stroke-width:1;"/></g><!--link service to store--><g class="link" data-entity-1="service" data-entity-2="store" data-source-line="30" data-uid="lnk16" id="link_service_store"><path d="M461.63,128 C480.48,128 489.96,128 509.09,128" fill="none" id="service-store" style="stroke:#000000;stroke-width:1;"/><polygon fill="#000000" points="455.63,128,464.63,132,460.63,128,464.63,124,455.63,128" style="stroke:#000000;stroke-width:1;"/><polygon fill="#000000" points="515.09,128,506.09,124,510.09,128,506.09,132,515.09,128" style="stroke:#000000;stroke-width:1;"/></g><!--link caller2 to api2--><g class="link" data-entity-1="caller2" data-entity-2="api2" data-source-line="31" data-uid="lnk17" id="link_caller2_api2"><path d="M113.1,190 C151.57,190 204.22,190 224.02,190" fill="none" id="caller2-api2" style="stroke:#000000;stroke-width:1;"/></g><!--link api2 to service--><g class="link" data-entity-1="api2" data-entity-2="service" data-source-line="32" data-uid="lnk18" id="link_api2_service"><path d="M241.7,187.17 C261.49,179.93 309.7058,162.263 349.8258,147.573" fill="none" id="api2-to-service" style="stroke:#000000;stroke-width:1;"/><polygon fill="#000000" points="355.46,145.51,345.6334,144.8483,350.7648,147.2291,348.384,152.3606,355.46,145.51" style="stroke:#000000;stroke-width:1;"/></g></g></svg>