<?xml version="1.0" encoding="UTF-8" standalone="no"?><svg xmlns="http://www.w3.org/2000/svg" xmlns:xlink="http://www.w3.org/1999/xlink" contentStyleType="text/css" height="195px" preserveAspectRatio="none" style="width:709px;height:195px;background:#FFFFFF55;" version="1.1" viewBox="0 0 709 195" width="709px" zoomAndPan="magnify"><defs/><g><g id="cluster_##2"><rect fill="#FFFFFF" fill-opacity="0.56471" height="182" rx="2.5" ry="2.5" style="stroke:#8B0000;stroke-width:1.0;stroke-dasharray:7.0,7.0;" width="696" x="7" y="7"/><text fill="#000000" font-family="Lato,sans-serif" font-size="11" font-style="italic" lengthAdjust="spacing" textLength="41" x="334.5" y="19.8435">«Device»</text></g><!--MD5=[aec96949da387e78ae944f502a40a29a]
cluster Platform Root of Trust--><g id="cluster_Platform Root of Trust"><rect fill="#FFFFFF" fill-opacity="0.56471" height="95" rx="2.5" ry="2.5" style="stroke:#8B0000;stroke-width:1.0;stroke-dasharray:7.0,7.0;" width="131" x="354" y="65"/><text fill="#000000" font-family="Lato,sans-serif" font-size="11" font-style="italic" lengthAdjust="spacing" textLength="79" x="380" y="77.8435">«trust boundary»</text><text fill="#000000" font-family="Lato,sans-serif" font-size="11" font-weight="bold" lengthAdjust="spacing" textLength="110" x="364.5" y="91.0271">Platform Root of Trust</text></g><!--MD5=[be34b843431294964a057382f4201feb]
cluster Replay-Protected\nMemory Block--><g id="cluster_Replay-Protected\nMemory Block"><rect fill="#FFFFFF" fill-opacity="0.56471" height="118" rx="2.5" ry="2.5" style="stroke:#8B0000;stroke-width:1.0;stroke-dasharray:7.0,7.0;" width="137" x="542" y="47"/><text fill="#000000" font-family="Lato,sans-serif" font-size="11" font-style="italic" lengthAdjust="spacing" textLength="79" x="571" y="59.8435">«trust boundary»</text><text fill="#000000" font-family="Lato,sans-serif" font-size="11" font-weight="bold" lengthAdjust="spacing" textLength="87" x="567" y="73.0271">Replay-Protected</text><text fill="#000000" font-family="Lato,sans-serif" font-size="11" font-weight="bold" lengthAdjust="spacing" textLength="71" x="575" y="86.2107">Memory Block</text></g><!--MD5=[199196004143ad81764c15ef5a1e7d18]
entity caller--><g id="elem_caller"><rect fill="#7D868C" height="34.3921" rx="2.5" ry="2.5" style="stroke:#000000;stroke-width:0.0;" width="81" x="23" y="110"/><text fill="#FFFFFF" font-family="Lato,sans-serif" font-size="12" lengthAdjust="spacing" textLength="61" x="33" y="131.8375">Application</text></g><!--MD5=[e2307af040e3f87d22824e7603ca28ec]
entity api--><g id="elem_api"><ellipse cx="224" cy="127" fill="#95D600" rx="8" ry="8" style="stroke:#7D868C;stroke-width:1.0;"/><text fill="#000000" font-family="Lato,sans-serif" font-size="12" font-weight="bold" lengthAdjust="spacing" textLength="102" x="173" y="155.8375">Secure Storage API</text></g><!--MD5=[38bfa9dc6018363cafe15f923a4b8db9]
entity service--><g id="elem_service"><rect fill="#0091BD" height="34.3921" rx="2.5" ry="2.5" style="stroke:#000000;stroke-width:0.0;" width="99" x="370" y="110"/><text fill="#FFFFFF" font-family="Lato,sans-serif" font-size="12" lengthAdjust="spacing" textLength="79" x="380" y="131.8375">Storage service</text></g><!--MD5=[0686720d71d32ea68f81164171d509ce]
entity store--><g id="elem_store"><path d="M558,115.5 C558,105.5 610.5,105.5 610.5,105.5 C610.5,105.5 663,105.5 663,115.5 L663,138.8921 C663,148.8921 610.5,148.8921 610.5,148.8921 C610.5,148.8921 558,148.8921 558,138.8921 L558,115.5 " fill="#E5ECEB" style="stroke:#7D868C;stroke-width:1.0;"/><path d="M558,115.5 C558,125.5 610.5,125.5 610.5,125.5 C610.5,125.5 663,125.5 663,115.5 " fill="none" style="stroke:#7D868C;stroke-width:1.0;"/><text fill="#000000" font-family="Lato,sans-serif" font-size="12" lengthAdjust="spacing" textLength="85" x="568" y="141.3375">Storage medium</text></g><!--MD5=[a2305c5d0ff17a079d97a2d45501c866]
link caller to api--><g id="link_caller_api"><path d="M104.09,127 C141.5,127 194.8,127 214.9,127 " fill="none" id="caller-api" style="stroke:#000000;stroke-width:1.0;"/></g><!--MD5=[1c521d26b07f62f1c62f7b4ad904b4ec]
link api to service--><g id="link_api_service"><path d="M233.31,127 C255.6,127 318.13,127 364.4,127 " fill="none" id="api-to-service" style="stroke:#000000;stroke-width:1.0;"/><polygon fill="#000000" points="369.67,127,360.67,123,364.67,127,360.67,131,369.67,127" style="stroke:#000000;stroke-width:1.0;"/><text fill="#000000" font-family="Lato,sans-serif" font-size="12" lengthAdjust="spacing" textLength="23" x="314" y="123.8375">DF1</text></g><!--MD5=[ed03d9e8372767f52fa40155923214fd]
link service to store--><g id="link_service_store"><path d="M474.33,127 C498.76,127 527.66,127 552.46,127 " fill="none" id="service-store" style="stroke:#000000;stroke-width:1.0;"/><polygon fill="#000000" points="557.68,127,548.68,123,552.68,127,548.68,131,557.68,127" style="stroke:#000000;stroke-width:1.0;"/><polygon fill="#000000" points="469.17,127,478.17,131,474.17,127,478.17,123,469.17,127" style="stroke:#000000;stroke-width:1.0;"/><text fill="#000000" font-family="Lato,sans-serif" font-size="12" lengthAdjust="spacing" textLength="23" x="502" y="123.8375">DF4</text></g></g></svg>