<svg xmlns="http://www.w3.org/2000/svg" xmlns:xlink="http://www.w3.org/1999/xlink" contentStyleType="text/css" data-diagram-type="DESCRIPTION" height="193px" preserveAspectRatio="none" style="width:713px;height:193px;background:#FFFFFF55;" version="1.1" viewBox="0 0 713 193" width="713px" zoomAndPan="magnify"><defs><style type="text/css">@import url('https://fonts.googleapis.com/css?family=Roboto:400,100,100italic,300,300italic,400italic,500,500italic,700,700italic,900,900italic');</style></defs><g><rect fill="#FFFFFF" fill-opacity="0.33333" height="193" style="stroke:none;stroke-width:1;" width="713" x="0" y="0"/><g class="cluster" data-entity="##2" data-source-line="15" data-uid="ent0003" id="cluster_##2"><rect fill="#FFFFFF" fill-opacity="0.56471" height="180" style="stroke:#8B0000;stroke-width:1;stroke-dasharray:7.0,7.0;" width="700.11" x="7" y="7"/><text fill="#000000" font-family="Roboto,sans-serif" font-size="11" font-style="italic" lengthAdjust="spacing" textLength="41.7764" x="336.1668" y="19.2051">&#171;Device&#187;</text></g><!--cluster Platform Root of Trust--><g class="cluster" data-entity="Platform Root of Trust" data-source-line="17" data-uid="ent0006" id="cluster_Platform Root of Trust"><rect fill="#FFFFFF" fill-opacity="0.56471" height="94" style="stroke:#8B0000;stroke-width:1;stroke-dasharray:7.0,7.0;" width="134.57" x="353.26" y="64"/><text fill="#000000" font-family="Roboto,sans-serif" font-size="11" font-style="italic" lengthAdjust="spacing" textLength="79.1377" x="380.9762" y="76.2051">&#171;trust boundary&#187;</text><text fill="#000000" font-family="Roboto,sans-serif" font-size="11" font-weight="bold" lengthAdjust="spacing" textLength="111.2246" x="364.9327" y="89.0957">Platform Root of Trust</text></g><!--cluster Replay-Protected\nMemory Block--><g class="cluster" data-entity="Replay-Protected\nMemory Block" data-source-line="17" data-uid="ent0008" id="cluster_Replay-Protected\nMemory Block"><rect fill="#FFFFFF" fill-opacity="0.56471" height="117" style="stroke:#8B0000;stroke-width:1;stroke-dasharray:7.0,7.0;" width="140.28" x="542.83" y="46"/><text fill="#000000" font-family="Roboto,sans-serif" font-size="11" font-style="italic" lengthAdjust="spacing" textLength="79.1377" x="573.4012" y="58.2051">&#171;trust boundary&#187;</text><text fill="#000000" font-family="Roboto,sans-serif" font-size="11" font-weight="bold" lengthAdjust="spacing" textLength="86.4209" x="569.7596" y="71.0957">Replay-Protected</text><text fill="#000000" font-family="Roboto,sans-serif" font-size="11" font-weight="bold" lengthAdjust="spacing" textLength="71.355" x="577.2925" y="83.9863">Memory Block</text></g><!--entity caller--><g class="entity" data-entity="caller" data-source-line="16" data-uid="ent0004" id="entity_caller"><rect fill="#7D868C" height="34.0625" rx="4" ry="4" width="80.2637" x="23" y="107.97"/><text fill="#FFFFFF" font-family="Roboto,sans-serif" font-size="12" lengthAdjust="spacing" textLength="60.2637" x="33" y="129.1028">Application</text></g><!--entity api--><g class="entity" data-entity="api" data-source-line="17" data-uid="ent0005" id="entity_api"><ellipse cx="224.26" cy="125" fill="#95D600" rx="8" ry="8" style="stroke:#7D868C;stroke-width:1;"/><text fill="#000000" font-family="Roboto,sans-serif" font-size="12" font-weight="bold" lengthAdjust="spacing" textLength="105.3633" x="171.5784" y="153.1328">Secure Storage API</text></g><!--entity service--><g class="entity" data-entity="service" data-source-line="19" data-uid="ent0007" id="entity_service"><rect fill="#0091BD" height="34.0625" rx="4" ry="4" width="102.5645" x="369.26" y="107.97"/><text fill="#FFFFFF" font-family="Roboto,sans-serif" font-size="12" lengthAdjust="spacing" textLength="82.5645" x="379.26" y="129.1028">Storage service</text></g><!--entity store--><g class="entity" data-entity="store" data-source-line="22" data-uid="ent0009" id="entity_store"><path d="M558.83,113.47 C558.83,103.47 612.9687,103.47 612.9687,103.47 C612.9687,103.47 667.1073,103.47 667.1073,113.47 L667.1073,136.5325 C667.1073,146.5325 612.9687,146.5325 612.9687,146.5325 C612.9687,146.5325 558.83,146.5325 558.83,136.5325 L558.83,113.47" fill="#E5ECEB" style="stroke:#7D868C;stroke-width:1;"/><path d="M558.83,113.47 C558.83,123.47 612.9687,123.47 612.9687,123.47 C612.9687,123.47 667.1073,123.47 667.1073,113.47" fill="none" style="stroke:#7D868C;stroke-width:1;"/><text fill="#000000" font-family="Roboto,sans-serif" font-size="12" lengthAdjust="spacing" textLength="88.2773" x="568.83" y="138.6028">Storage medium</text></g><!--link caller to api--><g class="link" data-entity-1="caller" data-entity-2="api" data-source-line="26" data-uid="lnk10" id="link_caller_api"><path d="M103.47,125 C141.2,125 195.32,125 215.39,125" fill="none" id="caller-api" style="stroke:#000000;stroke-width:1;"/></g><!--link api to service--><g class="link" data-entity-1="api" data-entity-2="service" data-source-line="27" data-uid="lnk11" id="link_api_service"><path d="M233.12,125 C255.62,125 315.73,125 362.81,125" fill="none" id="api-to-service" style="stroke:#000000;stroke-width:1;"/><polygon fill="#000000" points="368.81,125,359.81,121,363.81,125,359.81,129,368.81,125" style="stroke:#000000;stroke-width:1;"/><text fill="#000000" font-family="Roboto,sans-serif" font-size="12" lengthAdjust="spacing" textLength="21.252" x="315.26" y="121.1328">DF1</text></g><!--link service to store--><g class="link" data-entity-1="service" data-entity-2="store" data-source-line="28" data-uid="lnk12" id="link_service_store"><path d="M478.08,125 C504.74,125 525.45,125 552.53,125" fill="none" id="service-store" style="stroke:#000000;stroke-width:1;"/><polygon fill="#000000" points="472.08,125,481.08,129,477.08,125,481.08,121,472.08,125" style="stroke:#000000;stroke-width:1;"/><polygon fill="#000000" points="558.53,125,549.53,121,553.53,125,549.53,129,558.53,125" style="stroke:#000000;stroke-width:1;"/><text fill="#000000" font-family="Roboto,sans-serif" font-size="12" lengthAdjust="spacing" textLength="21.252" x="504.83" y="121.1328">DF4</text></g></g></svg>