<svg xmlns="http://www.w3.org/2000/svg" xmlns:xlink="http://www.w3.org/1999/xlink" contentStyleType="text/css" data-diagram-type="DESCRIPTION" height="170px" preserveAspectRatio="none" style="width:687px;height:170px;background:#FFFFFF55;" version="1.1" viewBox="0 0 687 170" width="687px" zoomAndPan="magnify"><defs><style type="text/css">@import url('https://fonts.googleapis.com/css?family=Roboto:400,100,100italic,300,300italic,400italic,500,500italic,700,700italic,900,900italic');</style></defs><g><rect fill="#FFFFFF" fill-opacity="0.33333" height="170" style="stroke:none;stroke-width:1;" width="687" x="0" y="0"/><g class="cluster" data-entity="##2" data-source-line="15" data-uid="ent0003" id="cluster_##2"><rect fill="#FFFFFF" fill-opacity="0.56471" height="157" style="stroke:#8B0000;stroke-width:1;stroke-dasharray:7.0,7.0;" width="674.11" x="7" y="7"/><text fill="#000000" font-family="Roboto,sans-serif" font-size="11" font-style="italic" lengthAdjust="spacing" textLength="41.7764" x="323.1668" y="19.2051">&#171;Device&#187;</text></g><!--cluster Platform Root of Trust--><g class="cluster" data-entity="Platform Root of Trust" data-source-line="17" data-uid="ent0006" id="cluster_Platform Root of Trust"><rect fill="#FFFFFF" fill-opacity="0.56471" height="94" style="stroke:#8B0000;stroke-width:1;stroke-dasharray:7.0,7.0;" width="134.57" x="353.26" y="46"/><text fill="#000000" font-family="Roboto,sans-serif" font-size="11" font-style="italic" lengthAdjust="spacing" textLength="79.1377" x="380.9762" y="58.2051">&#171;trust boundary&#187;</text><text fill="#000000" font-family="Roboto,sans-serif" font-size="11" font-weight="bold" lengthAdjust="spacing" textLength="111.2246" x="364.9327" y="71.0957">Platform Root of Trust</text></g><!--entity caller--><g class="entity" data-entity="caller" data-source-line="16" data-uid="ent0004" id="entity_caller"><rect fill="#7D868C" height="34.0625" rx="4" ry="4" width="80.2637" x="23" y="89.97"/><text fill="#FFFFFF" font-family="Roboto,sans-serif" font-size="12" lengthAdjust="spacing" textLength="60.2637" x="33" y="111.1028">Application</text></g><!--entity api--><g class="entity" data-entity="api" data-source-line="17" data-uid="ent0005" id="entity_api"><ellipse cx="224.26" cy="107" fill="#95D600" rx="8" ry="8" style="stroke:#7D868C;stroke-width:1;"/><text fill="#000000" font-family="Roboto,sans-serif" font-size="12" font-weight="bold" lengthAdjust="spacing" textLength="105.3633" x="171.5784" y="135.1328">Secure Storage API</text></g><!--entity store--><g class="entity" data-entity="store" data-source-line="21" data-uid="ent0008" id="entity_store"><path d="M556.83,95.47 C556.83,85.47 610.9687,85.47 610.9687,85.47 C610.9687,85.47 665.1073,85.47 665.1073,95.47 L665.1073,118.5325 C665.1073,128.5325 610.9687,128.5325 610.9687,128.5325 C610.9687,128.5325 556.83,128.5325 556.83,118.5325 L556.83,95.47" fill="#E5ECEB" style="stroke:#7D868C;stroke-width:1;"/><path d="M556.83,95.47 C556.83,105.47 610.9687,105.47 610.9687,105.47 C610.9687,105.47 665.1073,105.47 665.1073,95.47" fill="none" style="stroke:#7D868C;stroke-width:1;"/><text fill="#000000" font-family="Roboto,sans-serif" font-size="12" lengthAdjust="spacing" textLength="88.2773" x="566.83" y="120.6028">Storage medium</text></g><!--entity service--><g class="entity" data-entity="service" data-source-line="19" data-uid="ent0007" id="entity_service"><rect fill="#0091BD" height="34.0625" rx="4" ry="4" width="102.5645" x="369.26" y="89.97"/><text fill="#FFFFFF" font-family="Roboto,sans-serif" font-size="12" lengthAdjust="spacing" textLength="82.5645" x="379.26" y="111.1028">Storage service</text></g><!--link caller to api--><g class="link" data-entity-1="caller" data-entity-2="api" data-source-line="24" data-uid="lnk9" id="link_caller_api"><path d="M103.47,107 C141.2,107 195.32,107 215.39,107" fill="none" id="caller-api" style="stroke:#000000;stroke-width:1;"/></g><!--link api to service--><g class="link" data-entity-1="api" data-entity-2="service" data-source-line="25" data-uid="lnk10" id="link_api_service"><path d="M233.12,107 C255.62,107 315.73,107 362.81,107" fill="none" id="api-to-service" style="stroke:#000000;stroke-width:1;"/><polygon fill="#000000" points="368.81,107,359.81,103,363.81,107,359.81,111,368.81,107" style="stroke:#000000;stroke-width:1;"/><text fill="#000000" font-family="Roboto,sans-serif" font-size="12" lengthAdjust="spacing" textLength="21.252" x="315.26" y="103.1328">DF1</text></g><!--link service to store--><g class="link" data-entity-1="service" data-entity-2="store" data-source-line="26" data-uid="lnk11" id="link_service_store"><path d="M478.04,107 C504.09,107 523.88,107 550.36,107" fill="none" id="service-store" style="stroke:#000000;stroke-width:1;"/><polygon fill="#000000" points="472.04,107,481.04,111,477.04,107,481.04,103,472.04,107" style="stroke:#000000;stroke-width:1;"/><polygon fill="#000000" points="556.36,107,547.36,103,551.36,107,547.36,111,556.36,107" style="stroke:#000000;stroke-width:1;"/><text fill="#000000" font-family="Roboto,sans-serif" font-size="12" lengthAdjust="spacing" textLength="21.252" x="504.83" y="103.1328">DF3</text></g></g></svg>