<svg xmlns="http://www.w3.org/2000/svg" xmlns:xlink="http://www.w3.org/1999/xlink" contentStyleType="text/css" data-diagram-type="DESCRIPTION" height="187px" preserveAspectRatio="none" style="width:668px;height:187px;background:#FFFFFF55;" version="1.1" viewBox="0 0 668 187" width="668px" zoomAndPan="magnify"><defs><style type="text/css">@import url('https://fonts.googleapis.com/css?family=Roboto:400,100,100italic,300,300italic,400italic,500,500italic,700,700italic,900,900italic');</style></defs><g><rect fill="#FFFFFF" fill-opacity="0.33333" height="187" style="stroke:none;stroke-width:1;" width="668" x="0" y="0"/><g class="cluster" data-entity="##2" data-source-line="15" data-uid="ent0003" id="cluster_##2"><rect fill="#FFFFFF" fill-opacity="0.56471" height="174" style="stroke:#8B0000;stroke-width:1;stroke-dasharray:7.0,7.0;" width="655.13" x="7" y="7"/><text fill="#000000" font-family="Roboto,sans-serif" font-size="11" font-style="italic" lengthAdjust="spacing" textLength="41.7764" x="313.6768" y="19.2051">&#171;Device&#187;</text></g><!--cluster Platform Root of Trust--><g class="cluster" data-entity="Platform Root of Trust" data-source-line="17" data-uid="ent0006" id="cluster_Platform Root of Trust"><rect fill="#FFFFFF" fill-opacity="0.56471" height="111" style="stroke:#8B0000;stroke-width:1;stroke-dasharray:7.0,7.0;" width="284.87" x="353.26" y="46"/><text fill="#000000" font-family="Roboto,sans-serif" font-size="11" font-style="italic" lengthAdjust="spacing" textLength="79.1377" x="456.1262" y="58.2051">&#171;trust boundary&#187;</text><text fill="#000000" font-family="Roboto,sans-serif" font-size="11" font-weight="bold" lengthAdjust="spacing" textLength="111.2246" x="440.0827" y="71.0957">Platform Root of Trust</text></g><!--entity caller--><g class="entity" data-entity="caller" data-source-line="16" data-uid="ent0004" id="entity_caller"><rect fill="#7D868C" height="34.0625" rx="4" ry="4" width="80.2637" x="23" y="96.97"/><text fill="#FFFFFF" font-family="Roboto,sans-serif" font-size="12" lengthAdjust="spacing" textLength="60.2637" x="33" y="118.1028">Application</text></g><!--entity api--><g class="entity" data-entity="api" data-source-line="17" data-uid="ent0005" id="entity_api"><ellipse cx="224.26" cy="114" fill="#95D600" rx="8" ry="8" style="stroke:#7D868C;stroke-width:1;"/><text fill="#000000" font-family="Roboto,sans-serif" font-size="12" font-weight="bold" lengthAdjust="spacing" textLength="105.3633" x="171.5784" y="142.1328">Secure Storage API</text></g><!--entity service--><g class="entity" data-entity="service" data-source-line="19" data-uid="ent0007" id="entity_service"><rect fill="#0091BD" height="48.125" rx="4" ry="4" width="61.5898" x="369.26" y="89.94"/><text fill="#FFFFFF" font-family="Roboto,sans-serif" font-size="12" lengthAdjust="spacing" textLength="41.5898" x="379.26" y="111.0728">Storage</text><text fill="#FFFFFF" font-family="Roboto,sans-serif" font-size="12" lengthAdjust="spacing" textLength="37.998" x="379.26" y="125.1353">service</text></g><!--entity store--><g class="entity" data-entity="store" data-source-line="20" data-uid="ent0008" id="entity_store"><path d="M513.85,100.47 C513.85,90.47 567.9887,90.47 567.9887,90.47 C567.9887,90.47 622.1273,90.47 622.1273,100.47 L622.1273,123.5325 C622.1273,133.5325 567.9887,133.5325 567.9887,133.5325 C567.9887,133.5325 513.85,133.5325 513.85,123.5325 L513.85,100.47" fill="#E5ECEB" style="stroke:#7D868C;stroke-width:1;"/><path d="M513.85,100.47 C513.85,110.47 567.9887,110.47 567.9887,110.47 C567.9887,110.47 622.1273,110.47 622.1273,100.47" fill="none" style="stroke:#7D868C;stroke-width:1;"/><text fill="#000000" font-family="Roboto,sans-serif" font-size="12" lengthAdjust="spacing" textLength="88.2773" x="523.85" y="125.6028">Storage medium</text></g><!--link caller to api--><g class="link" data-entity-1="caller" data-entity-2="api" data-source-line="24" data-uid="lnk9" id="link_caller_api"><path d="M103.47,114 C141.2,114 195.32,114 215.39,114" fill="none" id="caller-api" style="stroke:#000000;stroke-width:1;"/></g><!--link api to service--><g class="link" data-entity-1="api" data-entity-2="service" data-source-line="25" data-uid="lnk10" id="link_api_service"><path d="M233.18,114 C256.82,114 321.78,114 362.83,114" fill="none" id="api-to-service" style="stroke:#000000;stroke-width:1;"/><polygon fill="#000000" points="368.83,114,359.83,110,363.83,114,359.83,118,368.83,114" style="stroke:#000000;stroke-width:1;"/><text fill="#000000" font-family="Roboto,sans-serif" font-size="12" lengthAdjust="spacing" textLength="21.252" x="315.26" y="110.1328">DF1</text></g><!--link service to store--><g class="link" data-entity-1="service" data-entity-2="store" data-source-line="26" data-uid="lnk11" id="link_service_store"><path d="M437.1096,113.5669 C460.0796,113.2869 480.3504,113.0425 507.6704,112.7125" fill="none" id="service-store" style="stroke:#000000;stroke-width:1;"/><polygon fill="#000000" points="431.11,113.64,440.1581,117.53,436.1096,113.5791,440.0606,109.5306,431.11,113.64" style="stroke:#000000;stroke-width:1;"/><polygon fill="#000000" points="513.67,112.64,504.6223,108.749,508.6704,112.7004,504.719,116.7484,513.67,112.64" style="stroke:#000000;stroke-width:1;"/><text fill="#000000" font-family="Roboto,sans-serif" font-size="12" lengthAdjust="spacing" textLength="21.252" x="461.85" y="109.1928">DF2</text></g></g></svg>