<?xml version="1.0" encoding="UTF-8" standalone="no"?><svg xmlns="http://www.w3.org/2000/svg" xmlns:xlink="http://www.w3.org/1999/xlink" contentStyleType="text/css" height="189px" preserveAspectRatio="none" style="width:666px;height:189px;background:#FFFFFF55;" version="1.1" viewBox="0 0 666 189" width="666px" zoomAndPan="magnify"><defs/><g><g id="cluster_##2"><rect fill="#FFFFFF" fill-opacity="0.56471" height="176" rx="4" ry="4" style="stroke:#8B0000;stroke-width:1.0;stroke-dasharray:7.0,7.0;" width="653" x="7" y="7"/><text fill="#000000" font-family="Lato,sans-serif" font-size="11" font-style="italic" lengthAdjust="spacing" textLength="41" x="313" y="19.8435">«Device»</text></g><!--MD5=[aec96949da387e78ae944f502a40a29a]
cluster Platform Root of Trust--><g id="cluster_Platform Root of Trust"><rect fill="#FFFFFF" fill-opacity="0.56471" height="112" rx="4" ry="4" style="stroke:#8B0000;stroke-width:1.0;stroke-dasharray:7.0,7.0;" width="282" x="354" y="47"/><text fill="#000000" font-family="Lato,sans-serif" font-size="11" font-style="italic" lengthAdjust="spacing" textLength="79" x="455.5" y="59.8435">«trust boundary»</text><text fill="#000000" font-family="Lato,sans-serif" font-size="11" font-weight="bold" lengthAdjust="spacing" textLength="110" x="440" y="73.0271">Platform Root of Trust</text></g><!--MD5=[199196004143ad81764c15ef5a1e7d18]
entity caller--><g id="elem_caller"><rect fill="#7D868C" height="34.3921" rx="4" ry="4" style="stroke:#000000;stroke-width:0.0;" width="81" x="23" y="100"/><text fill="#FFFFFF" font-family="Lato,sans-serif" font-size="12" lengthAdjust="spacing" textLength="61" x="33" y="121.8375">Application</text></g><!--MD5=[e2307af040e3f87d22824e7603ca28ec]
entity api--><g id="elem_api"><ellipse cx="224" cy="117" fill="#95D600" rx="8" ry="8" style="stroke:#7D868C;stroke-width:1.0;"/><text fill="#000000" font-family="Lato,sans-serif" font-size="12" font-weight="bold" lengthAdjust="spacing" textLength="102" x="173" y="145.8375">Secure Storage API</text></g><!--MD5=[38bfa9dc6018363cafe15f923a4b8db9]
entity service--><g id="elem_service"><rect fill="#0091BD" height="48.7842" rx="4" ry="4" style="stroke:#000000;stroke-width:0.0;" width="60" x="370" y="92.5"/><text fill="#FFFFFF" font-family="Lato,sans-serif" font-size="12" lengthAdjust="spacing" textLength="40" x="380" y="114.3375">Storage</text><text fill="#FFFFFF" font-family="Lato,sans-serif" font-size="12" lengthAdjust="spacing" textLength="37" x="380" y="128.7296">service</text></g><!--MD5=[0686720d71d32ea68f81164171d509ce]
entity store--><g id="elem_store"><path d="M515,102.5 C515,92.5 567.5,92.5 567.5,92.5 C567.5,92.5 620,92.5 620,102.5 L620,125.8921 C620,135.8921 567.5,135.8921 567.5,135.8921 C567.5,135.8921 515,135.8921 515,125.8921 L515,102.5 " fill="#E5ECEB" style="stroke:#7D868C;stroke-width:1.0;"/><path d="M515,102.5 C515,112.5 567.5,112.5 567.5,112.5 C567.5,112.5 620,112.5 620,102.5 " fill="none" style="stroke:#7D868C;stroke-width:1.0;"/><text fill="#000000" font-family="Lato,sans-serif" font-size="12" lengthAdjust="spacing" textLength="85" x="525" y="128.3375">Storage medium</text></g><!--MD5=[a2305c5d0ff17a079d97a2d45501c866]
link caller to api--><g id="link_caller_api"><path d="M104.09,117 C141.5,117 194.8,117 214.9,117 " fill="none" id="caller-api" style="stroke:#000000;stroke-width:1.0;"/></g><!--MD5=[1c521d26b07f62f1c62f7b4ad904b4ec]
link api to service--><g id="link_api_service"><path d="M233.39,117 C256.7,117 323.21,117 364.51,117 " fill="none" id="api-to-service" style="stroke:#000000;stroke-width:1.0;"/><polygon fill="#000000" points="369.66,117,360.66,113,364.66,117,360.66,121,369.66,117" style="stroke:#000000;stroke-width:1.0;"/><text fill="#000000" font-family="Lato,sans-serif" font-size="12" lengthAdjust="spacing" textLength="23" x="314" y="113.8375">DF1</text></g><!--MD5=[ed03d9e8372767f52fa40155923214fd]
link service to store--><g id="link_service_store"><path d="M435.28,116.38 C456.73,115.99 484.89,115.48 509.63,115.03 " fill="none" id="service-store" style="stroke:#000000;stroke-width:1.0;"/><polygon fill="#000000" points="514.85,114.94,505.7828,111.0949,509.8507,115.0257,505.9199,119.0937,514.85,114.94" style="stroke:#000000;stroke-width:1.0;"/><polygon fill="#000000" points="430.21,116.47,439.2882,120.2892,435.209,116.37,439.1282,112.2908,430.21,116.47" style="stroke:#000000;stroke-width:1.0;"/><text fill="#000000" font-family="Lato,sans-serif" font-size="12" lengthAdjust="spacing" textLength="23" x="461" y="112.8375">DF2</text></g></g></svg>