<?xml version="1.0" encoding="UTF-8" standalone="no"?><svg xmlns="http://www.w3.org/2000/svg" xmlns:xlink="http://www.w3.org/1999/xlink" contentStyleType="text/css" height="189px" preserveAspectRatio="none" style="width:705px;height:189px;background:#FFFFFF55;" version="1.1" viewBox="0 0 705 189" width="705px" zoomAndPan="magnify"><defs/><g><g id="cluster_##2"><rect fill="#FFFFFF" fill-opacity="0.56471" height="176" rx="2.5" ry="2.5" style="stroke:#8B0000;stroke-width:1.0;stroke-dasharray:7.0,7.0;" width="692" x="7" y="7"/><text fill="#000000" font-family="Lato,sans-serif" font-size="11" font-style="italic" lengthAdjust="spacing" textLength="41" x="332.5" y="19.8435">«Device»</text></g><!--MD5=[aec96949da387e78ae944f502a40a29a]
cluster Platform Root of Trust--><g id="cluster_Platform Root of Trust"><rect fill="#FFFFFF" fill-opacity="0.56471" height="112" rx="2.5" ry="2.5" style="stroke:#8B0000;stroke-width:1.0;stroke-dasharray:7.0,7.0;" width="321" x="354" y="47"/><text fill="#000000" font-family="Lato,sans-serif" font-size="11" font-style="italic" lengthAdjust="spacing" textLength="79" x="475" y="59.8435">«trust boundary»</text><text fill="#000000" font-family="Lato,sans-serif" font-size="11" font-weight="bold" lengthAdjust="spacing" textLength="110" x="459.5" y="73.0271">Platform Root of Trust</text></g><!--MD5=[199196004143ad81764c15ef5a1e7d18]
entity caller--><g id="elem_caller"><rect fill="#7D868C" height="34.3921" rx="2.5" ry="2.5" style="stroke:#000000;stroke-width:0.0;" width="81" x="23" y="92"/><text fill="#FFFFFF" font-family="Lato,sans-serif" font-size="12" lengthAdjust="spacing" textLength="61" x="33" y="113.8375">Application</text></g><!--MD5=[e2307af040e3f87d22824e7603ca28ec]
entity api--><g id="elem_api"><ellipse cx="224" cy="109" fill="#95D600" rx="8" ry="8" style="stroke:#7D868C;stroke-width:1.0;"/><text fill="#000000" font-family="Lato,sans-serif" font-size="12" font-weight="bold" lengthAdjust="spacing" textLength="102" x="173" y="137.8375">Secure Storage API</text></g><!--MD5=[38bfa9dc6018363cafe15f923a4b8db9]
entity service--><g id="elem_service"><rect fill="#0091BD" height="34.3921" rx="2.5" ry="2.5" style="stroke:#000000;stroke-width:0.0;" width="99" x="370" y="92"/><text fill="#FFFFFF" font-family="Lato,sans-serif" font-size="12" lengthAdjust="spacing" textLength="79" x="380" y="113.8375">Storage service</text></g><!--MD5=[0686720d71d32ea68f81164171d509ce]
entity store--><g id="elem_store"><path d="M554,102.5 C554,92.5 606.5,92.5 606.5,92.5 C606.5,92.5 659,92.5 659,102.5 L659,125.8921 C659,135.8921 606.5,135.8921 606.5,135.8921 C606.5,135.8921 554,135.8921 554,125.8921 L554,102.5 " fill="#E5ECEB" style="stroke:#7D868C;stroke-width:1.0;"/><path d="M554,102.5 C554,112.5 606.5,112.5 606.5,112.5 C606.5,112.5 659,112.5 659,102.5 " fill="none" style="stroke:#7D868C;stroke-width:1.0;"/><text fill="#000000" font-family="Lato,sans-serif" font-size="12" lengthAdjust="spacing" textLength="85" x="564" y="128.3375">Storage medium</text></g><!--MD5=[a2305c5d0ff17a079d97a2d45501c866]
link caller to api--><g id="link_caller_api"><path d="M104.09,109 C141.5,109 194.8,109 214.9,109 " fill="none" id="caller-api" style="stroke:#000000;stroke-width:1.0;"/></g><!--MD5=[1c521d26b07f62f1c62f7b4ad904b4ec]
link api to service--><g id="link_api_service"><path d="M233.31,109 C255.6,109 318.13,109 364.4,109 " fill="none" id="api-to-service" style="stroke:#000000;stroke-width:1.0;"/><polygon fill="#000000" points="369.67,109,360.67,105,364.67,109,360.67,113,369.67,109" style="stroke:#000000;stroke-width:1.0;"/><text fill="#000000" font-family="Lato,sans-serif" font-size="12" lengthAdjust="spacing" textLength="23" x="314" y="105.8375">DF1</text></g><!--MD5=[ed03d9e8372767f52fa40155923214fd]
link service to store--><g id="link_service_store"><path d="M474.39,110.46 C497.81,111.09 525.27,111.83 548.98,112.47 " fill="none" id="service-store" style="stroke:#000000;stroke-width:1.0;"/><polygon fill="#000000" points="553.98,112.61,545.0858,108.38,548.9817,112.4815,544.8802,116.3773,553.98,112.61" style="stroke:#000000;stroke-width:1.0;"/><polygon fill="#000000" points="469.11,110.31,478.0042,114.54,474.1083,110.4385,478.2098,106.5427,469.11,110.31" style="stroke:#000000;stroke-width:1.0;"/><text fill="#000000" font-family="Lato,sans-serif" font-size="12" lengthAdjust="spacing" textLength="23" x="500" y="108.8375">DF2</text></g></g></svg>