<svg xmlns="http://www.w3.org/2000/svg" xmlns:xlink="http://www.w3.org/1999/xlink" contentStyleType="text/css" data-diagram-type="DESCRIPTION" height="180px" preserveAspectRatio="none" style="width:713px;height:180px;background:#FFFFFF55;" version="1.1" viewBox="0 0 713 180" width="713px" zoomAndPan="magnify"><defs><style type="text/css">@import url('https://fonts.googleapis.com/css?family=Roboto:400,100,100italic,300,300italic,400italic,500,500italic,700,700italic,900,900italic');</style></defs><g><rect fill="#FFFFFF" fill-opacity="0.33333" height="180" style="stroke:none;stroke-width:1;" width="713" x="0" y="0"/><g class="cluster" data-entity="##2" data-source-line="15" data-uid="ent0003" id="cluster_##2"><rect fill="#FFFFFF" fill-opacity="0.56471" height="167" style="stroke:#8B0000;stroke-width:1;stroke-dasharray:7.0,7.0;" width="700.11" x="7" y="7"/><text fill="#000000" font-family="Roboto,sans-serif" font-size="11" font-style="italic" lengthAdjust="spacing" textLength="41.7764" x="336.1668" y="19.2051">&#171;Device&#187;</text></g><!--cluster Platform Root of Trust--><g class="cluster" data-entity="Platform Root of Trust" data-source-line="17" data-uid="ent0006" id="cluster_Platform Root of Trust"><rect fill="#FFFFFF" fill-opacity="0.56471" height="94" style="stroke:#8B0000;stroke-width:1;stroke-dasharray:7.0,7.0;" width="134.57" x="353.26" y="51"/><text fill="#000000" font-family="Roboto,sans-serif" font-size="11" font-style="italic" lengthAdjust="spacing" textLength="79.1377" x="380.9762" y="63.2051">&#171;trust boundary&#187;</text><text fill="#000000" font-family="Roboto,sans-serif" font-size="11" font-weight="bold" lengthAdjust="spacing" textLength="111.2246" x="364.9327" y="76.0957">Platform Root of Trust</text></g><!--cluster Secure Element--><g class="cluster" data-entity="Secure Element" data-source-line="17" data-uid="ent0008" id="cluster_Secure Element"><rect fill="#FFFFFF" fill-opacity="0.56471" height="104" style="stroke:#8B0000;stroke-width:1;stroke-dasharray:7.0,7.0;" width="140.28" x="542.83" y="46"/><text fill="#000000" font-family="Roboto,sans-serif" font-size="11" font-style="italic" lengthAdjust="spacing" textLength="79.1377" x="573.4012" y="58.2051">&#171;trust boundary&#187;</text><text fill="#000000" font-family="Roboto,sans-serif" font-size="11" font-weight="bold" lengthAdjust="spacing" textLength="77.7036" x="574.1182" y="71.0957">Secure Element</text></g><!--entity caller--><g class="entity" data-entity="caller" data-source-line="16" data-uid="ent0004" id="entity_caller"><rect fill="#7D868C" height="34.0625" rx="4" ry="4" width="80.2637" x="23" y="94.97"/><text fill="#FFFFFF" font-family="Roboto,sans-serif" font-size="12" lengthAdjust="spacing" textLength="60.2637" x="33" y="116.1028">Application</text></g><!--entity api--><g class="entity" data-entity="api" data-source-line="17" data-uid="ent0005" id="entity_api"><ellipse cx="224.26" cy="112" fill="#95D600" rx="8" ry="8" style="stroke:#7D868C;stroke-width:1;"/><text fill="#000000" font-family="Roboto,sans-serif" font-size="12" font-weight="bold" lengthAdjust="spacing" textLength="105.3633" x="171.5784" y="140.1328">Secure Storage API</text></g><!--entity service--><g class="entity" data-entity="service" data-source-line="19" data-uid="ent0007" id="entity_service"><rect fill="#0091BD" height="34.0625" rx="4" ry="4" width="102.5645" x="369.26" y="94.97"/><text fill="#FFFFFF" font-family="Roboto,sans-serif" font-size="12" lengthAdjust="spacing" textLength="82.5645" x="379.26" y="116.1028">Storage service</text></g><!--entity store--><g class="entity" data-entity="store" data-source-line="22" data-uid="ent0009" id="entity_store"><path d="M558.83,100.47 C558.83,90.47 612.9687,90.47 612.9687,90.47 C612.9687,90.47 667.1073,90.47 667.1073,100.47 L667.1073,123.5325 C667.1073,133.5325 612.9687,133.5325 612.9687,133.5325 C612.9687,133.5325 558.83,133.5325 558.83,123.5325 L558.83,100.47" fill="#E5ECEB" style="stroke:#7D868C;stroke-width:1;"/><path d="M558.83,100.47 C558.83,110.47 612.9687,110.47 612.9687,110.47 C612.9687,110.47 667.1073,110.47 667.1073,100.47" fill="none" style="stroke:#7D868C;stroke-width:1;"/><text fill="#000000" font-family="Roboto,sans-serif" font-size="12" lengthAdjust="spacing" textLength="88.2773" x="568.83" y="125.6028">Storage medium</text></g><!--link caller to api--><g class="link" data-entity-1="caller" data-entity-2="api" data-source-line="26" data-uid="lnk10" id="link_caller_api"><path d="M103.47,112 C141.2,112 195.32,112 215.39,112" fill="none" id="caller-api" style="stroke:#000000;stroke-width:1;"/></g><!--link api to service--><g class="link" data-entity-1="api" data-entity-2="service" data-source-line="27" data-uid="lnk11" id="link_api_service"><path d="M233.12,112 C255.62,112 315.73,112 362.81,112" fill="none" id="api-to-service" style="stroke:#000000;stroke-width:1;"/><polygon fill="#000000" points="368.81,112,359.81,108,363.81,112,359.81,116,368.81,112" style="stroke:#000000;stroke-width:1;"/><text fill="#000000" font-family="Roboto,sans-serif" font-size="12" lengthAdjust="spacing" textLength="21.252" x="315.26" y="108.1328">DF1</text></g><!--link service to store--><g class="link" data-entity-1="service" data-entity-2="store" data-source-line="28" data-uid="lnk12" id="link_service_store"><path d="M478.08,112 C504.74,112 525.45,112 552.53,112" fill="none" id="service-store" style="stroke:#000000;stroke-width:1;"/><polygon fill="#000000" points="472.08,112,481.08,116,477.08,112,481.08,108,472.08,112" style="stroke:#000000;stroke-width:1;"/><polygon fill="#000000" points="558.53,112,549.53,108,553.53,112,549.53,116,558.53,112" style="stroke:#000000;stroke-width:1;"/><text fill="#000000" font-family="Roboto,sans-serif" font-size="12" lengthAdjust="spacing" textLength="21.252" x="504.83" y="108.1328">DF5</text></g></g></svg>