<svg width="1280" height="720" xmlns="http://www.w3.org/2000/svg" xmlns:xlink="http://www.w3.org/1999/xlink" overflow="hidden"><defs><clipPath id="clip0"><rect x="0" y="0" width="1280" height="720"/></clipPath></defs><g clip-path="url(#clip0)"><rect x="0" y="0" width="1280" height="720" fill="#FFFFFF"/><path d="M1.50005 1.50005 249.5 1.50005 249.5 130.5 1.50005 130.5Z" stroke="#172C51" stroke-width="1.33333" stroke-miterlimit="8" fill="#4472C4" fill-rule="evenodd"/><text fill="#FFFFFF" font-family="Calibri,Calibri_MSFontService,sans-serif" font-weight="400" font-size="32" transform="translate(45.4976 75)">Production</text><path d="M345.5 1.50005 593.5 1.50005 593.5 130.5 345.5 130.5Z" stroke="#172C51" stroke-width="1.33333" stroke-miterlimit="8" fill="#4472C4" fill-rule="evenodd"/><text fill="#FFFFFF" font-family="Calibri,Calibri_MSFontService,sans-serif" font-weight="400" font-size="32" transform="translate(369.702 75)">Personalization</text><path d="M691.5 1.50005 939.5 1.50005 939.5 130.5 691.5 130.5Z" stroke="#172C51" stroke-width="1.33333" stroke-miterlimit="8" fill="#4472C4" fill-rule="evenodd"/><text fill="#FFFFFF" font-family="Calibri,Calibri_MSFontService,sans-serif" font-weight="400" font-size="32" transform="translate(749.159 75)">Operation</text><path d="M1036.5 1.50005 1284.5 1.50005 1284.5 130.5 1036.5 130.5Z" stroke="#172C51" stroke-width="1.33333" stroke-miterlimit="8" fill="#4472C4" fill-rule="evenodd"/><text fill="#FFFFFF" font-family="Calibri,Calibri_MSFontService,sans-serif" font-weight="400" font-size="32" transform="translate(1094.32 75)">End of Life</text><path d="M691.5 213.5 939.5 213.5 939.5 341.5 691.5 341.5Z" stroke="#172C51" stroke-width="1.33333" stroke-miterlimit="8" fill="#DAE3F3" fill-rule="evenodd"/><text fill="#FFFFFF" font-family="Calibri,Calibri_MSFontService,sans-serif" font-weight="400" font-size="32" transform="translate(772.828 288)">Debug</text><path d="M0.0263662 3.2138 91.3025 3.21435 91.3025 3.79769 0.0263662 3.79714ZM89.9577 0.00587934 98.0264 3.50602 89.9576 7.00606Z" fill="#4472C4" fill-rule="evenodd" transform="matrix(1 0 0 -1 248 68)"/><path d="M0.0628977 3.2138 91.339 3.21435 91.339 3.79769 0.0628977 3.79714ZM89.9942 0.00587934 98.0629 3.50602 89.9941 7.00606Z" fill="#4472C4" fill-rule="evenodd" transform="matrix(1 0 0 -1 593 68)"/><path d="M0.0995351 3.2138 91.3756 3.21435 91.3756 3.79769 0.0995351 3.79714ZM90.0308 0.00587934 98.0995 3.50602 90.0307 7.00606Z" fill="#4472C4" fill-rule="evenodd" transform="matrix(1 0 0 -1 939 68)"/><path d="M815.333 129 815.333 206.333 814.667 206.333 814.667 129ZM819 205 815 213 811 205Z" fill="#4472C4" fill-rule="evenodd"/><path d="M0.0990237 0.0136854 222.42 0.0136854 222.42 142.329 221.75 142.329 221.75 0.347924 222.085 0.682163 0.0990237 0.682163ZM226.099 140.992 222.085 149.014 218.072 140.992Z" fill="#4472C4" fill-rule="evenodd" transform="matrix(1 0 0 -1 939 278)"/></g></svg>