<?xml version="1.0" encoding="UTF-8" standalone="no"?><svg xmlns="http://www.w3.org/2000/svg" xmlns:xlink="http://www.w3.org/1999/xlink" contentStyleType="text/css" height="155px" preserveAspectRatio="none" style="width:754px;height:155px;background:#FFFFFF55;" version="1.1" viewBox="0 0 754 155" width="754px" zoomAndPan="magnify"><defs/><g><!--MD5=[752525c06a6a34605e879100972458c5]
cluster r3--><g id="cluster_r3"><rect fill="#0091BD" fill-opacity="0.12549" height="95" rx="2.5" ry="2.5" style="stroke:#0091BD;stroke-width:1.0;stroke-dasharray:7.0,7.0;" width="267.5" x="342.5" y="54.5"/><text fill="#000000" font-family="Lato,sans-serif" font-size="11" font-style="italic" lengthAdjust="spacing" textLength="96" x="428.25" y="67.3435">«Operational phase»</text><text fill="#000000" font-family="Lato,sans-serif" font-size="11" font-weight="bold" lengthAdjust="spacing" textLength="2" x="475.25" y="80.5271"> </text></g><!--MD5=[6e114ad835a98b39dfa588c73f22387b]
entity lc31--><g id="elem_lc31"><rect fill="#0091BD" height="34.3921" rx="2.5" ry="2.5" style="stroke:#8B0000;stroke-width:0.0;" width="46" x="358.5" y="99.5"/><text fill="#FFFFFF" font-family="Lato,sans-serif" font-size="12" lengthAdjust="spacing" textLength="26" x="368.5" y="121.3375">Boot</text></g><!--MD5=[12ace1f44c92c56255014131a4efc320]
entity lc32--><g id="elem_lc32"><rect fill="#0091BD" height="34.3921" rx="2.5" ry="2.5" style="stroke:#8B0000;stroke-width:0.0;" width="110" x="484" y="99.5"/><text fill="#FFFFFF" font-family="Lato,sans-serif" font-size="12" lengthAdjust="spacing" textLength="90" x="494" y="121.3375">Secure operation</text></g><g id="elem_n1"><path d="M16,20.5 L16,44.8921 L105,44.8921 L105,30.5 L95,20.5 L16,20.5 " fill="#E8E8E8" style="stroke:#181818;stroke-width:1.0;"/><path d="M95,20.5 L95,30.5 L105,30.5 L95,20.5 " fill="#E8E8E8" style="stroke:#181818;stroke-width:1.0;"/><text fill="#000000" font-family="Lato,sans-serif" font-size="12" lengthAdjust="spacing" textLength="68" x="22" y="37.3375">SiP and OEM</text></g><!--MD5=[9624e15c31868e617e8ae41e3b1a9e47]
entity lc1--><g id="elem_lc1"><rect fill="#0091BD" height="63.1763" rx="2.5" ry="2.5" style="stroke:#8B0000;stroke-width:0.0;" width="107" x="7" y="80"/><text fill="#FFFFFF" font-family="Lato,sans-serif" font-size="12" lengthAdjust="spacing" textLength="37" x="17" y="101.8375">System</text><text fill="#FFFFFF" font-family="Lato,sans-serif" font-size="12" lengthAdjust="spacing" textLength="78" x="17" y="116.2296">manufacturing</text><text fill="#FFFFFF" font-family="Lato,sans-serif" font-size="12" lengthAdjust="spacing" textLength="87" x="17" y="130.6217">and initialization</text></g><g id="elem_n2"><path d="M174,20.5 L174,44.8921 L279,44.8921 L279,30.5 L269,20.5 L174,20.5 " fill="#E8E8E8" style="stroke:#181818;stroke-width:1.0;"/><path d="M269,20.5 L269,30.5 L279,30.5 L269,20.5 " fill="#E8E8E8" style="stroke:#181818;stroke-width:1.0;"/><text fill="#000000" font-family="Lato,sans-serif" font-size="12" lengthAdjust="spacing" textLength="84" x="180" y="37.3375">SiP and/or OEM</text></g><!--MD5=[9a50fb77d217c2dd04862824df733257]
entity lc2--><g id="elem_lc2"><rect fill="#0091BD" height="63.1763" rx="2.5" ry="2.5" style="stroke:#8B0000;stroke-width:0.0;" width="89" x="182" y="80"/><text fill="#FFFFFF" font-family="Lato,sans-serif" font-size="12" lengthAdjust="spacing" textLength="63" x="192" y="101.8375">Provision of</text><text fill="#FFFFFF" font-family="Lato,sans-serif" font-size="12" lengthAdjust="spacing" textLength="69" x="192" y="116.2296">Root of Trust</text><text fill="#FFFFFF" font-family="Lato,sans-serif" font-size="12" lengthAdjust="spacing" textLength="37" x="192" y="130.6217">secrets</text></g><g id="elem_n3"><path d="M339,14.5 L339,38.8921 L424,38.8921 L424,24.5 L414,14.5 L339,14.5 " fill="#E8E8E8" style="stroke:#181818;stroke-width:1.0;"/><path d="M414,14.5 L414,24.5 L424,24.5 L414,14.5 " fill="#E8E8E8" style="stroke:#181818;stroke-width:1.0;"/><text fill="#000000" font-family="Lato,sans-serif" font-size="12" lengthAdjust="spacing" textLength="64" x="345" y="31.3375">[everybody]</text></g><g id="elem_n4"><path d="M661,6 L661,44.7842 L741,44.7842 L741,16 L731,6 L661,6 " fill="#E8E8E8" style="stroke:#181818;stroke-width:1.0;"/><path d="M731,6 L731,16 L741,16 L731,6 " fill="#E8E8E8" style="stroke:#181818;stroke-width:1.0;"/><text fill="#000000" font-family="Lato,sans-serif" font-size="12" lengthAdjust="spacing" textLength="52" x="667" y="22.8375">SiP, OEM,</text><text fill="#000000" font-family="Lato,sans-serif" font-size="12" lengthAdjust="spacing" textLength="59" x="667" y="37.2296">and Owner</text></g><!--MD5=[042684866a165d6c5766a4eb03c1ce59]
entity lc4--><g id="elem_lc4"><rect fill="#0091BD" height="48.7842" rx="2.5" ry="2.5" style="stroke:#8B0000;stroke-width:0.0;" width="94" x="654" y="84"/><text fill="#FFFFFF" font-family="Lato,sans-serif" font-size="12" lengthAdjust="spacing" textLength="50" x="664" y="105.8375">Return to</text><text fill="#FFFFFF" font-family="Lato,sans-serif" font-size="12" lengthAdjust="spacing" textLength="74" x="664" y="120.2296">Manufacturer</text></g><!--MD5=[2f972e11e68c2202a7adc4f7d3fdb384]
link n1 to lc1--><g id="link_n1_lc1"><path d="M60.5,44.67 C60.5,56.35 60.5,68.03 60.5,79.71 " fill="none" id="n1-lc1" style="stroke:#000000;stroke-width:1.0;stroke-dasharray:7.0,7.0;"/></g><!--MD5=[845dede78496c99f43c25fdec0838eff]
link n2 to lc2--><g id="link_n2_lc2"><path d="M226.5,44.67 C226.5,56.35 226.5,68.03 226.5,79.71 " fill="none" id="n2-lc2" style="stroke:#000000;stroke-width:1.0;stroke-dasharray:7.0,7.0;"/></g><!--MD5=[a9b38564109499b36a5db51d29601412]
link n3 to lc31--><!--MD5=[16d5b91ae44af932421466655ce2c9b9]
link n4 to lc4--><g id="link_n4_lc4"><path d="M701,45.11 C701,58.02 701,70.94 701,83.86 " fill="none" id="n4-lc4" style="stroke:#000000;stroke-width:1.0;stroke-dasharray:7.0,7.0;"/></g><!--MD5=[389c40c0a93432b43a57b69afe6f5a43]
link n1 to n2--><!--MD5=[78c6aacf3cb8d374b9f64c757ee9ccdc]
link lc1 to lc2--><g id="link_lc1_lc2"><path d="M114.29,111.5 C134.32,111.5 157.02,111.5 176.67,111.5 " fill="none" id="lc1-to-lc2" style="stroke:#000000;stroke-width:1.0;"/><polygon fill="#000000" points="181.86,111.5,172.86,107.5,176.86,111.5,172.86,115.5,181.86,111.5" style="stroke:#000000;stroke-width:1.0;"/></g><!--MD5=[fe166d59fdc099b1f138f87219860a4e]
link n2 to n3--><!--MD5=[e464afe88358ec688441cdf4091d4125]
link lc2 to lc31--><g id="link_lc2_lc31"><path d="M271.34,112.93 C297.67,113.79 330.34,114.86 353.05,115.6 " fill="none" id="lc2-to-lc31" style="stroke:#000000;stroke-width:1.0;"/><polygon fill="#000000" points="358.31,115.77,349.4523,111.464,353.3129,115.5987,349.1782,119.4593,358.31,115.77" style="stroke:#000000;stroke-width:1.0;"/></g><!--MD5=[a37acc5d35b5e838eeea9d4f21794a06]
link lc31 to lc32--><g id="link_lc31_lc32"><path d="M404.78,116.5 C424.07,116.5 452.86,116.5 478.75,116.5 " fill="none" id="lc31-to-lc32" style="stroke:#000000;stroke-width:1.0;"/><polygon fill="#000000" points="483.88,116.5,474.88,112.5,478.88,116.5,474.88,120.5,483.88,116.5" style="stroke:#000000;stroke-width:1.0;"/></g><!--MD5=[3c6776f7648f41e76d7cdf83e31fe108]
link n3 to n4--><!--MD5=[330fc6bc51d994d2951d6177f91879ee]
link lc32 to lc4--><g id="link_lc32_lc4"><path d="M594.17,113.79 C611.75,112.91 631.2,111.94 648.57,111.07 " fill="none" id="lc32-to-lc4" style="stroke:#000000;stroke-width:1.0;"/><polygon fill="#000000" points="653.9,110.81,644.7059,107.2789,648.9066,111.0675,645.118,115.2683,653.9,110.81" style="stroke:#000000;stroke-width:1.0;"/></g></g></svg>