<svg xmlns="http://www.w3.org/2000/svg" xmlns:xlink="http://www.w3.org/1999/xlink" contentStyleType="text/css" data-diagram-type="DESCRIPTION" height="168px" preserveAspectRatio="none" style="width:783px;height:168px;background:#FFFFFF55;" version="1.1" viewBox="0 0 783 168" width="783px" zoomAndPan="magnify"><defs><style type="text/css">@import url('https://fonts.googleapis.com/css?family=Roboto:400,100,100italic,300,300italic,400italic,500,500italic,700,700italic,900,900italic');</style></defs><g><rect fill="#FFFFFF" fill-opacity="0.33333" height="168" style="stroke:none;stroke-width:1;" width="783" x="0" y="0"/><!--cluster r1--><g class="cluster" data-entity="r1" data-source-line="14" data-uid="ent0007" id="cluster_r1"><rect fill="#0091BD" fill-opacity="0.12549" height="109" width="297.28" x="7" y="53.06"/><line x1="7" x2="304.28" y1="69.9506" y2="69.9506"/><text fill="#000000" font-family="Roboto,sans-serif" font-size="11" font-weight="bold" lengthAdjust="spacing" textLength="72.6709" x="119.3046" y="65.2651">Manufacturing</text></g><!--cluster r3--><g class="cluster" data-entity="r3" data-source-line="18" data-uid="ent0010" id="cluster_r3"><rect fill="#0091BD" fill-opacity="0.12549" height="81" width="266.02" x="358.56" y="67.06"/><line x1="358.56" x2="624.58" y1="83.9506" y2="83.9506"/><text fill="#000000" font-family="Roboto,sans-serif" font-size="11" font-weight="bold" lengthAdjust="spacing" textLength="57.4331" x="462.8534" y="79.2651">Operational</text></g><!--cluster r5--><g class="cluster" data-entity="r5" data-source-line="22" data-uid="ent0013" id="cluster_r5"><rect fill="#0091BD" fill-opacity="0.12549" height="95" width="124.27" x="652.58" y="60.06"/><line x1="652.58" x2="776.85" y1="76.9506" y2="76.9506"/><text fill="#000000" font-family="Roboto,sans-serif" font-size="11" font-weight="bold" lengthAdjust="spacing" textLength="49.8599" x="689.7851" y="72.2651">End of life</text></g><!--entity lc1--><g class="entity" data-entity="lc1" data-source-line="15" data-uid="ent0008" id="entity_lc1"><rect fill="#0091BD" height="62.1875" rx="4" ry="4" width="107.3633" x="23" y="83.97"/><text fill="#FFFFFF" font-family="Roboto,sans-serif" font-size="12" lengthAdjust="spacing" textLength="39.8086" x="33" y="105.1028">System</text><text fill="#FFFFFF" font-family="Roboto,sans-serif" font-size="12" lengthAdjust="spacing" textLength="78.1641" x="33" y="119.1653">manufacturing</text><text fill="#FFFFFF" font-family="Roboto,sans-serif" font-size="12" lengthAdjust="spacing" textLength="87.3633" x="33" y="133.2278">and initialization</text></g><!--entity lc2--><g class="entity" data-entity="lc2" data-source-line="16" data-uid="ent0009" id="entity_lc2"><rect fill="#0091BD" height="62.1875" rx="4" ry="4" width="89.9375" x="198.35" y="83.97"/><text fill="#FFFFFF" font-family="Roboto,sans-serif" font-size="12" lengthAdjust="spacing" textLength="63.7852" x="208.35" y="105.1028">Provision of</text><text fill="#FFFFFF" font-family="Roboto,sans-serif" font-size="12" lengthAdjust="spacing" textLength="69.9375" x="208.35" y="119.1653">Root of Trust</text><text fill="#FFFFFF" font-family="Roboto,sans-serif" font-size="12" lengthAdjust="spacing" textLength="39.3867" x="208.35" y="133.2278">secrets</text></g><!--entity lc3--><g class="entity" data-entity="lc3" data-source-line="19" data-uid="ent0011" id="entity_lc3"><rect fill="#0091BD" height="34.0625" rx="4" ry="4" width="45.0898" x="374.56" y="98.03"/><text fill="#FFFFFF" font-family="Roboto,sans-serif" font-size="12" lengthAdjust="spacing" textLength="25.0898" x="384.56" y="119.1628">Boot</text></g><!--entity lc4--><g class="entity" data-entity="lc4" data-source-line="20" data-uid="ent0012" id="entity_lc4"><rect fill="#0091BD" height="34.0625" rx="4" ry="4" width="110.6445" x="497.94" y="98.03"/><text fill="#FFFFFF" font-family="Roboto,sans-serif" font-size="12" lengthAdjust="spacing" textLength="90.6445" x="507.94" y="119.1628">Secure operation</text></g><!--entity lc5--><g class="entity" data-entity="lc5" data-source-line="23" data-uid="ent0014" id="entity_lc5"><rect fill="#0091BD" height="48.125" rx="4" ry="4" width="92.2637" x="668.58" y="91"/><text fill="#FFFFFF" font-family="Roboto,sans-serif" font-size="12" lengthAdjust="spacing" textLength="48.7383" x="678.58" y="112.1328">Return to</text><text fill="#FFFFFF" font-family="Roboto,sans-serif" font-size="12" lengthAdjust="spacing" textLength="72.2637" x="678.58" y="126.1953">Manufacturer</text></g><g class="entity" data-entity="n1" data-source-line="8" data-uid="ent0002" id="entity_n1"><path d="M31.66,17.03 L31.66,33.0925 A4,4 0 0 0 35.66,37.0925 L117.701,37.0925 A4,4 0 0 0 121.701,33.0925 L121.701,23.03 L111.701,13.03 L35.66,13.03 A4,4 0 0 0 31.66,17.03" fill="#E8E8E8" style="stroke:#7D868C;stroke-width:1;"/><path d="M111.701,13.03 L111.701,21.03 A2,2 0 0 0 113.701,23.03 L121.701,23.03 L111.701,13.03" fill="#E8E8E8" style="stroke:#7D868C;stroke-width:1;"/><text fill="#000000" font-family="Roboto,sans-serif" font-size="12" lengthAdjust="spacing" textLength="69.041" x="37.66" y="29.1628">SiP and OEM</text></g><g class="entity" data-entity="n2" data-source-line="9" data-uid="ent0003" id="entity_n2"><path d="M190.36,17.03 L190.36,33.0925 A4,4 0 0 0 194.36,37.0925 L292.2623,37.0925 A4,4 0 0 0 296.2623,33.0925 L296.2623,23.03 L286.2623,13.03 L194.36,13.03 A4,4 0 0 0 190.36,17.03" fill="#E8E8E8" style="stroke:#7D868C;stroke-width:1;"/><path d="M286.2623,13.03 L286.2623,21.03 A2,2 0 0 0 288.2623,23.03 L296.2623,23.03 L286.2623,13.03" fill="#E8E8E8" style="stroke:#7D868C;stroke-width:1;"/><text fill="#000000" font-family="Roboto,sans-serif" font-size="12" lengthAdjust="spacing" textLength="84.9023" x="196.36" y="29.1628">SiP and/or OEM</text></g><g class="entity" data-entity="n3" data-source-line="10" data-uid="ent0004" id="entity_n3"><path d="M356.27,17.03 L356.27,33.0925 A4,4 0 0 0 360.27,37.0925 L433.9438,37.0925 A4,4 0 0 0 437.9438,33.0925 L437.9438,23.03 L427.9438,13.03 L360.27,13.03 A4,4 0 0 0 356.27,17.03" fill="#E8E8E8" style="stroke:#7D868C;stroke-width:1;"/><path d="M427.9438,13.03 L427.9438,21.03 A2,2 0 0 0 429.9438,23.03 L437.9438,23.03 L427.9438,13.03" fill="#E8E8E8" style="stroke:#7D868C;stroke-width:1;"/><text fill="#000000" font-family="Roboto,sans-serif" font-size="12" lengthAdjust="spacing" textLength="60.6738" x="362.27" y="29.1628">[everybody]</text></g><!--entity n4--><g class="entity" data-entity="n5" data-source-line="12" data-uid="ent0006" id="entity_n5"><path d="M675.6,10 L675.6,40.125 A4,4 0 0 0 679.6,44.125 L749.8285,44.125 A4,4 0 0 0 753.8285,40.125 L753.8285,16 L743.8285,6 L679.6,6 A4,4 0 0 0 675.6,10" fill="#E8E8E8" style="stroke:#7D868C;stroke-width:1;"/><path d="M743.8285,6 L743.8285,14 A2,2 0 0 0 745.8285,16 L753.8285,16 L743.8285,6" fill="#E8E8E8" style="stroke:#7D868C;stroke-width:1;"/><text fill="#000000" font-family="Roboto,sans-serif" font-size="12" lengthAdjust="spacing" textLength="50.8652" x="681.6" y="22.1328">SiP, OEM,</text><text fill="#000000" font-family="Roboto,sans-serif" font-size="12" lengthAdjust="spacing" textLength="57.2285" x="681.6" y="36.1953">and Owner</text></g><!--link lc1 to lc2--><g class="link" data-entity-1="lc1" data-entity-2="lc2" data-source-line="26" data-uid="lnk15" id="link_lc1_lc2"><path d="M130.68,115.06 C152.39,115.06 171.24,115.06 191.97,115.06" fill="none" id="lc1-to-lc2" style="stroke:#000000;stroke-width:1;"/><polygon fill="#000000" points="197.97,115.06,188.97,111.06,192.97,115.06,188.97,119.06,197.97,115.06" style="stroke:#000000;stroke-width:1;"/></g><!--link lc2 to lc3--><g class="link" data-entity-1="lc2" data-entity-2="lc3" data-source-line="27" data-uid="lnk16" id="link_lc2_lc3"><path d="M288.63,115.06 C316.8,115.06 346.05,115.06 368.33,115.06" fill="none" id="lc2-to-lc3" style="stroke:#000000;stroke-width:1;"/><polygon fill="#000000" points="374.33,115.06,365.33,111.06,369.33,115.06,365.33,119.06,374.33,115.06" style="stroke:#000000;stroke-width:1;"/></g><!--link lc3 to lc4--><g class="link" data-entity-1="lc3" data-entity-2="lc4" data-source-line="28" data-uid="lnk17" id="link_lc3_lc4"><path d="M419.86,115.06 C440.03,115.06 464.88,115.06 491.73,115.06" fill="none" id="lc3-to-lc4" style="stroke:#000000;stroke-width:1;"/><polygon fill="#000000" points="497.73,115.06,488.73,111.06,492.73,115.06,488.73,119.06,497.73,115.06" style="stroke:#000000;stroke-width:1;"/></g><!--link lc4 to lc5--><g class="link" data-entity-1="lc4" data-entity-2="lc5" data-source-line="29" data-uid="lnk18" id="link_lc4_lc5"><path d="M608.69,115.06 C628.09,115.06 643.71,115.06 662.28,115.06" fill="none" id="lc4-to-lc5" style="stroke:#000000;stroke-width:1;"/><polygon fill="#000000" points="668.28,115.06,659.28,111.06,663.28,115.06,659.28,119.06,668.28,115.06" style="stroke:#000000;stroke-width:1;"/></g><!--link n1 to n2--><!--link n2 to n3--><!--link n3 to n4--><!--link n4 to n5--><!--link lc1 to n1--></g></svg>