<?xml version="1.0" encoding="UTF-8" standalone="no"?><svg xmlns="http://www.w3.org/2000/svg" xmlns:xlink="http://www.w3.org/1999/xlink" contentStyleType="text/css" height="737px" preserveAspectRatio="none" style="width:660px;height:737px;background:#FFFFFF55;" version="1.1" viewBox="0 0 660 737" width="660px" zoomAndPan="magnify"><defs/><g><rect fill="#FFFFFF" height="40" rx="12.5" ry="12.5" style="stroke:#000000;stroke-width:1.0;" width="50" x="341" y="121"/><text fill="#000000" font-family="Lato,sans-serif" font-size="12" font-style="italic" lengthAdjust="spacing" textLength="39" x="346.5" y="145.6414">inactive</text><rect fill="#FFFFFF" height="40" rx="12.5" ry="12.5" style="stroke:#000000;stroke-width:1.0;" width="50" x="7" y="237"/><text fill="#000000" font-family="Lato,sans-serif" font-size="12" font-style="italic" lengthAdjust="spacing" textLength="27" x="18.5" y="261.6414">setup</text><rect fill="#FFFFFF" height="40" rx="12.5" ry="12.5" style="stroke:#000000;stroke-width:1.0;" width="50" x="240" y="353"/><text fill="#000000" font-family="Lato,sans-serif" font-size="12" font-style="italic" lengthAdjust="spacing" textLength="25" x="252.5" y="377.6414">input</text><rect fill="#FFFFFF" height="40" rx="12.5" ry="12.5" style="stroke:#000000;stroke-width:1.0;" width="64" x="396" y="483"/><text fill="#000000" font-family="Lato,sans-serif" font-size="12" font-style="italic" lengthAdjust="spacing" textLength="54" x="401" y="507.6414">completing</text><rect fill="#FFFFFF" height="40" rx="12.5" ry="12.5" style="stroke:#8B0000;stroke-width:1.0;" width="50" x="274" y="613"/><text fill="#8B0000" font-family="Lato,sans-serif" font-size="12" font-style="italic" lengthAdjust="spacing" textLength="24" x="287" y="637.6414">error</text><ellipse cx="366" cy="25.5" fill="#222222" rx="10" ry="10" style="stroke:none;stroke-width:1.0;"/><g id="elem_N1"><path d="M411.5,6 L411.5,44.7842 L566.5,44.7842 L566.5,16 L556.5,6 L411.5,6 " fill="#E8E8E8" style="stroke:#181818;stroke-width:1.0;"/><path d="M556.5,6 L556.5,16 L566.5,16 L556.5,6 " fill="#E8E8E8" style="stroke:#181818;stroke-width:1.0;"/><text fill="#000000" font-family="Lato,sans-serif" font-size="12" lengthAdjust="spacing" textLength="134" x="417.5" y="22.8375">Operation object starts as</text><text fill="#000000" font-family="Lato,sans-serif" font-size="12" lengthAdjust="spacing" textLength="110" x="417.5" y="37.2296">uninitialised memory</text></g><!--MD5=[cbf22ba017f8334a6284ec7023148ed4]
link *start to inactive--><g id="link_*start_inactive"><path d="M366,35.79 C366,53.09 366,90.75 366,115.74 " fill="none" id="*start-to-inactive" style="stroke:#000000;stroke-width:1.0;"/><polygon fill="#000000" points="366,120.87,370,111.87,366,115.87,362,111.87,366,120.87" style="stroke:#000000;stroke-width:1.0;"/><text fill="#000000" font-family="Lato,sans-serif" font-size="12" font-weight="bold" lengthAdjust="spacing" textLength="46" x="367" y="87.8375">Initialize</text></g><!--MD5=[ce9f9674757f8749d971e292d6f4a841]
link inactive to setup--><g id="link_inactive_setup"><path d="M340.75,144.27 C280.71,150.01 131.24,166.41 88,191 C70.63,200.88 56.09,218.25 46.18,232.55 " fill="none" id="inactive-to-setup" style="stroke:#000000;stroke-width:1.0;"/><polygon fill="#000000" points="43.26,236.87,51.6137,231.6532,46.0598,232.7274,44.9856,227.1735,43.26,236.87" style="stroke:#000000;stroke-width:1.0;"/><text fill="#000000" font-family="Lato,sans-serif" font-size="12" font-weight="bold" lengthAdjust="spacing" textLength="31" x="89" y="203.8375">Setup</text></g><!--MD5=[7f75c8d4cf3a071dd2698535c472a82e]
link setup to inactive--><g id="link_setup_inactive"><path d="M57.1,243.64 C86.35,229.58 136.36,206.55 181,191 C234.38,172.41 298.52,156.89 335.54,148.57 " fill="none" id="setup-to-inactive" style="stroke:#0000FF;stroke-width:1.0;stroke-dasharray:1.0,3.0;"/><polygon fill="#0000FF" points="340.8,147.39,331.1466,145.4376,335.9191,148.4747,332.882,153.2471,340.8,147.39" style="stroke:#0000FF;stroke-width:1.0;"/><text fill="#0000FF" font-family="Lato,sans-serif" font-size="12" font-weight="bold" lengthAdjust="spacing" textLength="33" x="182" y="203.8375">Abort</text></g><!--MD5=[3b520169efbfbed5deb774df163c9858]
link setup to setup--><g id="link_setup_setup"><path d="M57.28,247.19 C74.77,244.21 92,247.48 92,257 C92,265.55 78.09,269.06 62.58,267.53 " fill="none" id="setup-to-setup" style="stroke:#000000;stroke-width:1.0;"/><polygon fill="#000000" points="57.28,266.81,65.6617,271.9818,62.2348,267.4811,66.7354,264.0542,57.28,266.81" style="stroke:#000000;stroke-width:1.0;"/><text fill="#000000" font-family="Lato,sans-serif" font-size="12" font-weight="bold" lengthAdjust="spacing" textLength="85" x="98" y="254.8375">Setup-complete</text><text fill="#000000" font-family="Lato,sans-serif" font-size="12" font-style="italic" lengthAdjust="spacing" textLength="54" x="113.5" y="269.2296">incomplete</text></g><!--MD5=[eaf4e9f89275963cc2a5c3738c6f2e6e]
link setup to input--><g id="link_setup_input"><path d="M56.89,277.17 C75.89,291.17 103.13,309.92 129,323 C163.9,340.64 206.69,354.96 234.84,363.46 " fill="none" id="setup-to-input" style="stroke:#000000;stroke-width:1.0;"/><polygon fill="#000000" points="239.93,364.98,232.4677,358.5523,235.1428,363.5367,230.1585,366.2118,239.93,364.98" style="stroke:#000000;stroke-width:1.0;"/><text fill="#000000" font-family="Lato,sans-serif" font-size="12" font-weight="bold" lengthAdjust="spacing" textLength="85" x="130" y="319.8375">Setup-complete</text></g><!--MD5=[58435c5c1b763e39b8b7cd7108ba180c]
link input to input--><g id="link_input_input"><path d="M290.28,363.19 C307.77,360.21 325,363.48 325,373 C325,381.55 311.09,385.06 295.58,383.53 " fill="none" id="input-to-input" style="stroke:#000000;stroke-width:1.0;"/><polygon fill="#000000" points="290.28,382.81,298.6617,387.9818,295.2348,383.4811,299.7354,380.0542,290.28,382.81" style="stroke:#000000;stroke-width:1.0;"/><text fill="#000000" font-family="Lato,sans-serif" font-size="12" font-weight="bold" lengthAdjust="spacing" textLength="40" x="331" y="377.8375">Update</text></g><!--MD5=[7e59108693995e61f01eec518d10d09d]
link input to completing--><g id="link_input_completing"><path d="M286.02,393.27 C307.82,413.16 340.57,442.67 354,453 C366.19,462.37 380.11,471.87 392.57,479.99 " fill="none" id="input-to-completing" style="stroke:#000000;stroke-width:1.0;"/><polygon fill="#000000" points="397.09,482.91,391.7022,474.6655,392.8906,480.1961,387.36,481.3845,397.09,482.91" style="stroke:#000000;stroke-width:1.0;"/><text fill="#000000" font-family="Lato,sans-serif" font-size="12" font-weight="bold" lengthAdjust="spacing" textLength="52" x="356" y="435.8375">Complete</text><text fill="#000000" font-family="Lato,sans-serif" font-size="12" font-style="italic" lengthAdjust="spacing" textLength="54" x="355" y="450.2296">incomplete</text></g><!--MD5=[14d6aaf5f47859b10225ad75465f95ca]
link input to inactive--><g id="link_input_inactive"><path d="M261.23,352.69 C256.86,325.57 252.26,275.23 269,237 C283.06,204.88 313.53,178.02 336.59,161.14 " fill="none" id="input-to-inactive" style="stroke:#000000;stroke-width:1.0;"/><polygon fill="#000000" points="340.81,158.11,331.1667,160.1119,336.7491,161.027,335.8339,166.6093,340.81,158.11" style="stroke:#000000;stroke-width:1.0;"/><text fill="#000000" font-family="Lato,sans-serif" font-size="12" font-weight="bold" lengthAdjust="spacing" textLength="52" x="270" y="261.8375">Complete</text></g><!--MD5=[14d6aaf5f47859b10225ad75465f95ca]
link input to inactive--><g id="link_input_inactive"><path d="M279.87,352.98 C293.72,334.47 314.12,305.11 327,277 C343.94,240.05 355.35,194 361.25,166.36 " fill="none" id="input-to-inactive-1" style="stroke:#0000FF;stroke-width:1.0;stroke-dasharray:1.0,3.0;"/><polygon fill="#0000FF" points="362.29,161.42,356.5217,169.4029,361.2599,166.3127,364.3501,171.051,362.29,161.42" style="stroke:#0000FF;stroke-width:1.0;"/><text fill="#0000FF" font-family="Lato,sans-serif" font-size="12" font-weight="bold" lengthAdjust="spacing" textLength="33" x="344" y="261.8375">Abort</text></g><!--MD5=[1c785ba69bda6558a308c7288443f55f]
link completing to completing--><g id="link_completing_completing"><path d="M460.06,491.62 C478.2,489.39 495,493.19 495,503 C495,511.89 481.2,515.84 465.11,514.85 " fill="none" id="completing-to-completing" style="stroke:#000000;stroke-width:1.0;"/><polygon fill="#000000" points="460.06,514.38,468.6572,519.1851,465.0391,514.8365,469.3876,511.2185,460.06,514.38" style="stroke:#000000;stroke-width:1.0;"/><text fill="#000000" font-family="Lato,sans-serif" font-size="12" font-weight="bold" lengthAdjust="spacing" textLength="52" x="502" y="500.8375">Complete</text><text fill="#000000" font-family="Lato,sans-serif" font-size="12" font-style="italic" lengthAdjust="spacing" textLength="54" x="501" y="515.2296">incomplete</text></g><!--MD5=[f7099f6ed7c53c1d03e2e877e775a602]
link completing to inactive--><g id="link_completing_inactive"><path d="M425.9,482.91 C420.33,434.02 403.97,300.4 380,191 C378.25,183 375.93,174.37 373.68,166.62 " fill="none" id="completing-to-inactive" style="stroke:#000000;stroke-width:1.0;"/><polygon fill="#000000" points="372.15,161.41,370.8568,171.1736,373.5631,166.2061,378.5306,168.9125,372.15,161.41" style="stroke:#000000;stroke-width:1.0;"/><text fill="#000000" font-family="Lato,sans-serif" font-size="12" font-weight="bold" lengthAdjust="spacing" textLength="52" x="406" y="319.8375">Complete</text></g><!--MD5=[f7099f6ed7c53c1d03e2e877e775a602]
link completing to inactive--><g id="link_completing_inactive"><path d="M437.36,482.8 C453.25,447.71 482.33,370.96 467,307 C453.52,250.75 440.16,239.08 408,191 C402,182.04 394.58,172.89 387.65,164.96 " fill="none" id="completing-to-inactive-1" style="stroke:#0000FF;stroke-width:1.0;stroke-dasharray:1.0,3.0;"/><polygon fill="#0000FF" points="384.29,161.17,387.2618,170.5598,387.6047,164.9133,393.2512,165.2562,384.29,161.17" style="stroke:#0000FF;stroke-width:1.0;"/><text fill="#0000FF" font-family="Lato,sans-serif" font-size="12" font-weight="bold" lengthAdjust="spacing" textLength="33" x="471" y="319.8375">Abort</text></g><!--MD5=[631e2c4411ceec93d7ddb8ab8941d657]
link error to inactive--><g id="link_error_inactive"><path d="M324.03,627.56 C399.23,613.52 618,567.25 618,504 C618,256 618,256 618,256 C618,159.59 463.01,144.29 396.13,142.17 " fill="none" id="error-to-inactive" style="stroke:#8B0000;stroke-width:1.0;stroke-dasharray:7.0,7.0;"/><polygon fill="#8B0000" points="391.08,142.03,399.9621,146.2854,396.078,142.1728,400.1906,138.2887,391.08,142.03" style="stroke:#8B0000;stroke-width:1.0;"/><text fill="#8B0000" font-family="Lato,sans-serif" font-size="12" font-weight="bold" lengthAdjust="spacing" textLength="33" x="619" y="377.8375">Abort</text></g><!--MD5=[b5694bddbc9c5a839673aa770770a59b]
link inactive to inactive--><g id="link_inactive_inactive"><path d="M391.28,131.19 C408.77,128.21 426,131.48 426,141 C426,149.55 412.09,153.06 396.58,151.53 " fill="none" id="inactive-to-inactive" style="stroke:#8B0000;stroke-width:1.0;stroke-dasharray:7.0,7.0;"/><polygon fill="#8B0000" points="391.28,150.81,399.6617,155.9818,396.2348,151.4811,400.7354,148.0542,391.28,150.81" style="stroke:#8B0000;stroke-width:1.0;"/><text fill="#8B0000" font-family="Lato,sans-serif" font-size="12" font-weight="bold" lengthAdjust="spacing" textLength="31" x="432" y="138.8375">Setup</text><text fill="#8B0000" font-family="Lato,sans-serif" font-size="12" font-style="italic" lengthAdjust="spacing" textLength="21" x="437" y="153.2296">fails</text></g><!--MD5=[74d7032056803446384548e9e016c1b6]
link setup to error--><g id="link_setup_error"><path d="M38.47,277.12 C57.84,331.74 120.29,490.51 221,583 C235.41,596.23 253.86,608.01 269.2,616.7 " fill="none" id="setup-to-error" style="stroke:#8B0000;stroke-width:1.0;stroke-dasharray:7.0,7.0;"/><polygon fill="#8B0000" points="273.85,619.29,267.9448,611.4078,269.4853,616.8509,264.0422,618.3914,273.85,619.29" style="stroke:#8B0000;stroke-width:1.0;"/><text fill="#8B0000" font-family="Lato,sans-serif" font-size="12" font-weight="bold" lengthAdjust="spacing" textLength="85" x="121" y="435.8375">Setup-complete</text><text fill="#8B0000" font-family="Lato,sans-serif" font-size="12" font-style="italic" lengthAdjust="spacing" textLength="21" x="153" y="450.2296">fails</text></g><!--MD5=[0356b0815c5f2bfc4ad298a82d5a4e39]
link input to error--><g id="link_input_error"><path d="M249.95,393.29 C229.71,421.7 198,476.46 214,523 C225.75,557.18 253.1,588.87 273.62,609.17 " fill="none" id="input-to-error" style="stroke:#8B0000;stroke-width:1.0;stroke-dasharray:7.0,7.0;"/><polygon fill="#8B0000" points="277.37,612.83,273.7418,603.6738,273.7989,609.3304,268.1424,609.3875,277.37,612.83" style="stroke:#8B0000;stroke-width:1.0;"/><text fill="#8B0000" font-family="Lato,sans-serif" font-size="12" font-weight="bold" lengthAdjust="spacing" textLength="40" x="215" y="500.8375">Update</text><text fill="#8B0000" font-family="Lato,sans-serif" font-size="12" font-style="italic" lengthAdjust="spacing" textLength="21" x="224.5" y="515.2296">fails</text></g><!--MD5=[0356b0815c5f2bfc4ad298a82d5a4e39]
link input to error--><g id="link_input_error"><path d="M267.56,393.39 C273.66,439.73 289.09,556.81 295.8,607.73 " fill="none" id="input-to-error-1" style="stroke:#8B0000;stroke-width:1.0;stroke-dasharray:7.0,7.0;"/><polygon fill="#8B0000" points="296.46,612.73,299.2426,603.2824,295.8029,607.7734,291.312,604.3337,296.46,612.73" style="stroke:#8B0000;stroke-width:1.0;"/><text fill="#8B0000" font-family="Lato,sans-serif" font-size="12" font-weight="bold" lengthAdjust="spacing" textLength="52" x="286" y="500.8375">Complete</text><text fill="#8B0000" font-family="Lato,sans-serif" font-size="12" font-style="italic" lengthAdjust="spacing" textLength="21" x="301.5" y="515.2296">fails</text></g><!--MD5=[7fecd872e4f1a14354912dda562cfb45]
link completing to error--><g id="link_completing_error"><path d="M408.69,523.16 C385.6,546.07 347,584.37 322.29,608.89 " fill="none" id="completing-to-error" style="stroke:#8B0000;stroke-width:1.0;stroke-dasharray:7.0,7.0;"/><polygon fill="#8B0000" points="318.44,612.71,327.6466,609.2116,321.9898,609.1888,322.0126,603.5319,318.44,612.71" style="stroke:#8B0000;stroke-width:1.0;"/><text fill="#8B0000" font-family="Lato,sans-serif" font-size="12" font-weight="bold" lengthAdjust="spacing" textLength="52" x="377" y="565.8375">Complete</text><text fill="#8B0000" font-family="Lato,sans-serif" font-size="12" font-style="italic" lengthAdjust="spacing" textLength="21" x="392.5" y="580.2296">fails</text></g><rect fill="#E8E8E8" height="55.1763" id="_legend" rx="7.5" ry="7.5" style="stroke:#000000;stroke-width:1.0;" width="248" x="199" y="666"/><text fill="#000000" font-family="Consolas,Menlo,monospace" font-size="12" lengthAdjust="spacing" text-decoration="line-through" textLength="21" x="205" y="684.3296">———</text><text fill="#000000" font-family="Lato,sans-serif" font-size="12" lengthAdjust="spacing" textLength="192" x="228" y="683.8375">Solid lines show successful operation</text><text fill="#8B0000" font-family="Consolas,Menlo,monospace" font-size="12" lengthAdjust="spacing" textLength="21" x="205" y="698.7217">---</text><text fill="#000000" font-family="Lato,sans-serif" font-size="12" lengthAdjust="spacing" textLength="156" x="228" y="698.2296">Dashed lines show error flows</text><text fill="#0000FF" font-family="Consolas,Menlo,monospace" font-size="12" lengthAdjust="spacing" textLength="21" x="205" y="713.1138">………</text><text fill="#000000" font-family="Lato,sans-serif" font-size="12" lengthAdjust="spacing" textLength="213" x="228" y="712.6217">Dotted lines show operation cancellation</text></g></svg>