<?xml version="1.0" encoding="UTF-8" standalone="no"?><svg xmlns="http://www.w3.org/2000/svg" xmlns:xlink="http://www.w3.org/1999/xlink" contentStyleType="text/css" height="737px" preserveAspectRatio="none" style="width:636px;height:737px;background:#FFFFFF55;" version="1.1" viewBox="0 0 636 737" width="636px" zoomAndPan="magnify"><defs/><g><rect fill="#FFFFFF" height="40" rx="12.5" ry="12.5" style="stroke:#000000;stroke-width:1.0;" width="50" x="321" y="121"/><text fill="#000000" font-family="Lato,sans-serif" font-size="12" font-style="italic" lengthAdjust="spacing" textLength="39" x="326.5" y="145.6414">inactive</text><rect fill="#FFFFFF" height="40" rx="12.5" ry="12.5" style="stroke:#000000;stroke-width:1.0;" width="50" x="7" y="237"/><text fill="#000000" font-family="Lato,sans-serif" font-size="12" font-style="italic" lengthAdjust="spacing" textLength="38" x="13" y="261.6414">starting</text><rect fill="#FFFFFF" height="40" rx="12.5" ry="12.5" style="stroke:#000000;stroke-width:1.0;" width="50" x="238" y="353"/><text fill="#000000" font-family="Lato,sans-serif" font-size="12" font-style="italic" lengthAdjust="spacing" textLength="30" x="248" y="377.6414">active</text><rect fill="#FFFFFF" height="40" rx="12.5" ry="12.5" style="stroke:#000000;stroke-width:1.0;" width="52" x="386" y="483"/><text fill="#000000" font-family="Lato,sans-serif" font-size="12" font-style="italic" lengthAdjust="spacing" textLength="42" x="391" y="507.6414">finishing</text><rect fill="#FFFFFF" height="40" rx="12.5" ry="12.5" style="stroke:#8B0000;stroke-width:1.0;" width="50" x="270" y="613"/><text fill="#8B0000" font-family="Lato,sans-serif" font-size="12" font-style="italic" lengthAdjust="spacing" textLength="24" x="283" y="637.6414">error</text><ellipse cx="346" cy="25.5" fill="#222222" rx="10" ry="10" style="stroke:none;stroke-width:1.0;"/><g id="elem_N1"><path d="M391.5,6 L391.5,44.7842 L546.5,44.7842 L546.5,16 L536.5,6 L391.5,6 " fill="#E8E8E8" style="stroke:#181818;stroke-width:1.0;"/><path d="M536.5,6 L536.5,16 L546.5,16 L536.5,6 " fill="#E8E8E8" style="stroke:#181818;stroke-width:1.0;"/><text fill="#000000" font-family="Lato,sans-serif" font-size="12" lengthAdjust="spacing" textLength="134" x="397.5" y="22.8375">Operation object starts as</text><text fill="#000000" font-family="Lato,sans-serif" font-size="12" lengthAdjust="spacing" textLength="110" x="397.5" y="37.2296">uninitialised memory</text></g><!--MD5=[cbf22ba017f8334a6284ec7023148ed4]
link *start to inactive--><g id="link_*start_inactive"><path d="M346,35.79 C346,53.09 346,90.75 346,115.74 " fill="none" id="*start-to-inactive" style="stroke:#000000;stroke-width:1.0;"/><polygon fill="#000000" points="346,120.87,350,111.87,346,115.87,342,111.87,346,120.87" style="stroke:#000000;stroke-width:1.0;"/><text fill="#000000" font-family="Lato,sans-serif" font-size="12" font-weight="bold" lengthAdjust="spacing" textLength="46" x="347" y="87.8375">Initialize</text></g><!--MD5=[438823731a944c0907e8b03c5ae9ed9e]
link inactive to starting--><g id="link_inactive_starting"><path d="M320.66,141.45 C272.15,141.49 164.2,147 88,191 C70.7,200.99 56.16,218.35 46.23,232.62 " fill="none" id="inactive-to-starting" style="stroke:#000000;stroke-width:1.0;"/><polygon fill="#000000" points="43.3,236.94,51.6744,231.7564,46.1162,232.8086,45.0641,227.2504,43.3,236.94" style="stroke:#000000;stroke-width:1.0;"/><text fill="#000000" font-family="Lato,sans-serif" font-size="12" font-weight="bold" lengthAdjust="spacing" textLength="31" x="89" y="203.8375">Setup</text></g><!--MD5=[fd0e69d480b82ecb6362eab7404d5b5d]
link starting to inactive--><g id="link_starting_inactive"><path d="M57.19,243.88 C86.51,230.03 136.59,207.21 181,191 C227.23,174.12 282.26,158.68 315.64,149.81 " fill="none" id="starting-to-inactive" style="stroke:#0000FF;stroke-width:1.0;stroke-dasharray:1.0,3.0;"/><polygon fill="#0000FF" points="320.81,148.45,311.0893,146.8665,315.9739,149.7197,313.1207,154.6043,320.81,148.45" style="stroke:#0000FF;stroke-width:1.0;"/><text fill="#0000FF" font-family="Lato,sans-serif" font-size="12" font-weight="bold" lengthAdjust="spacing" textLength="33" x="182" y="203.8375">Abort</text></g><!--MD5=[448bfb065001013646e5e0910e2c4416]
link starting to starting--><g id="link_starting_starting"><path d="M57.28,247.19 C74.77,244.21 92,247.48 92,257 C92,265.55 78.09,269.06 62.58,267.53 " fill="none" id="starting-to-starting" style="stroke:#000000;stroke-width:1.0;"/><polygon fill="#000000" points="57.28,266.81,65.6617,271.9818,62.2348,267.4811,66.7354,264.0542,57.28,266.81" style="stroke:#000000;stroke-width:1.0;"/><text fill="#000000" font-family="Lato,sans-serif" font-size="12" font-weight="bold" lengthAdjust="spacing" textLength="85" x="98" y="254.8375">Setup-complete</text><text fill="#000000" font-family="Lato,sans-serif" font-size="12" font-style="italic" lengthAdjust="spacing" textLength="54" x="113.5" y="269.2296">incomplete</text></g><!--MD5=[501cf94e68faf0f657e943cc1002cd8d]
link starting to active--><g id="link_starting_active"><path d="M56.91,277.13 C75.92,291.12 103.16,309.86 129,323 C163.09,340.34 204.8,354.58 232.54,363.16 " fill="none" id="starting-to-active" style="stroke:#000000;stroke-width:1.0;"/><polygon fill="#000000" points="237.55,364.7,230.1053,358.252,232.7668,363.2436,227.7751,365.9051,237.55,364.7" style="stroke:#000000;stroke-width:1.0;"/><text fill="#000000" font-family="Lato,sans-serif" font-size="12" font-weight="bold" lengthAdjust="spacing" textLength="85" x="130" y="319.8375">Setup-complete</text></g><!--MD5=[2a34e9032f4d101d087b2d1552062dfb]
link active to active--><g id="link_active_active"><path d="M288.28,363.19 C305.77,360.21 323,363.48 323,373 C323,381.55 309.09,385.06 293.58,383.53 " fill="none" id="active-to-active" style="stroke:#000000;stroke-width:1.0;"/><polygon fill="#000000" points="288.28,382.81,296.6617,387.9818,293.2348,383.4811,297.7354,380.0542,288.28,382.81" style="stroke:#000000;stroke-width:1.0;"/><text fill="#000000" font-family="Lato,sans-serif" font-size="12" font-weight="bold" lengthAdjust="spacing" textLength="40" x="329" y="377.8375">Update</text></g><!--MD5=[ade5aff88573c86aa8f8f71e8a35cb35]
link active to finishing--><g id="link_active_finishing"><path d="M283.39,393.24 C300.8,409.49 326.65,433.21 350,453 C360.53,461.93 372.37,471.41 382.85,479.63 " fill="none" id="active-to-finishing" style="stroke:#000000;stroke-width:1.0;"/><polygon fill="#000000" points="386.95,482.83,382.3277,474.1332,383.0125,479.7485,377.3972,480.4332,386.95,482.83" style="stroke:#000000;stroke-width:1.0;"/><text fill="#000000" font-family="Lato,sans-serif" font-size="12" font-weight="bold" lengthAdjust="spacing" textLength="32" x="362" y="435.8375">Finish</text><text fill="#000000" font-family="Lato,sans-serif" font-size="12" font-style="italic" lengthAdjust="spacing" textLength="54" x="351" y="450.2296">incomplete</text></g><!--MD5=[791ada642fd2d6774a49c3ceec6b12b0]
link active to inactive--><g id="link_active_inactive"><path d="M260.2,352.91 C257.07,326.06 254.18,276.04 269,237 C279.72,208.77 302.3,182.58 320.25,164.88 " fill="none" id="active-to-inactive" style="stroke:#000000;stroke-width:1.0;"/><polygon fill="#000000" points="324.23,161.01,314.9816,164.3962,320.6377,164.4878,320.5461,170.1439,324.23,161.01" style="stroke:#000000;stroke-width:1.0;"/><text fill="#000000" font-family="Lato,sans-serif" font-size="12" font-weight="bold" lengthAdjust="spacing" textLength="32" x="270" y="261.8375">Finish</text></g><!--MD5=[791ada642fd2d6774a49c3ceec6b12b0]
link active to inactive--><g id="link_active_inactive"><path d="M272.99,352.72 C282.55,333.78 296.95,303.9 307,277 C321.22,238.92 333.45,193.22 340.26,165.95 " fill="none" id="active-to-inactive-1" style="stroke:#0000FF;stroke-width:1.0;stroke-dasharray:1.0,3.0;"/><polygon fill="#0000FF" points="341.47,161.08,335.4228,168.8538,340.2674,165.9332,343.188,170.7779,341.47,161.08" style="stroke:#0000FF;stroke-width:1.0;"/><text fill="#0000FF" font-family="Lato,sans-serif" font-size="12" font-weight="bold" lengthAdjust="spacing" textLength="33" x="322" y="261.8375">Abort</text></g><!--MD5=[8a8c1726e7969649e9f89bd4672cde20]
link finishing to finishing--><g id="link_finishing_finishing"><path d="M438.02,492.11 C455.69,488.93 473,492.56 473,503 C473,512.38 459.03,516.26 443.37,514.64 " fill="none" id="finishing-to-finishing" style="stroke:#000000;stroke-width:1.0;"/><polygon fill="#000000" points="438.02,513.89,446.3723,519.1091,442.9709,514.5891,447.4909,511.1877,438.02,513.89" style="stroke:#000000;stroke-width:1.0;"/><text fill="#000000" font-family="Lato,sans-serif" font-size="12" font-weight="bold" lengthAdjust="spacing" textLength="32" x="490" y="500.8375">Finish</text><text fill="#000000" font-family="Lato,sans-serif" font-size="12" font-style="italic" lengthAdjust="spacing" textLength="54" x="479" y="515.2296">incomplete</text></g><!--MD5=[5bffdf665a6eae257ebd7bd4745b73fc]
link finishing to inactive--><g id="link_finishing_inactive"><path d="M412.56,482.77 C412.77,466.72 412.51,443.29 410,423 C398.07,326.46 367.35,214.49 353.26,166.2 " fill="none" id="finishing-to-inactive" style="stroke:#000000;stroke-width:1.0;"/><polygon fill="#000000" points="351.79,161.18,350.47,170.94,353.19,165.98,358.15,168.7,351.79,161.18" style="stroke:#000000;stroke-width:1.0;"/><text fill="#000000" font-family="Lato,sans-serif" font-size="12" font-weight="bold" lengthAdjust="spacing" textLength="32" x="394" y="319.8375">Finish</text></g><!--MD5=[5bffdf665a6eae257ebd7bd4745b73fc]
link finishing to inactive--><g id="link_finishing_inactive"><path d="M424.95,482.87 C430.09,474.15 435.4,463.47 438,453 C453.67,390.02 448,370.59 435,307 C423.89,252.66 417.94,238.31 389,191 C383.42,181.87 376.09,172.8 369.08,165 " fill="none" id="finishing-to-inactive-1" style="stroke:#0000FF;stroke-width:1.0;stroke-dasharray:1.0,3.0;"/><polygon fill="#0000FF" points="365.67,161.27,368.7931,170.6106,369.0447,164.9593,374.696,165.211,365.67,161.27" style="stroke:#0000FF;stroke-width:1.0;"/><text fill="#0000FF" font-family="Lato,sans-serif" font-size="12" font-weight="bold" lengthAdjust="spacing" textLength="33" x="440" y="319.8375">Abort</text></g><!--MD5=[631e2c4411ceec93d7ddb8ab8941d657]
link error to inactive--><g id="link_error_inactive"><path d="M320.23,632.57 C392.32,632.77 594,622.72 594,504 C594,256 594,256 594,256 C594,161.28 442.81,144.98 376.53,142.38 " fill="none" id="error-to-inactive" style="stroke:#8B0000;stroke-width:1.0;stroke-dasharray:7.0,7.0;"/><polygon fill="#8B0000" points="371.14,142.19,379.9972,146.4969,376.137,142.3618,380.2721,138.5016,371.14,142.19" style="stroke:#8B0000;stroke-width:1.0;"/><text fill="#8B0000" font-family="Lato,sans-serif" font-size="12" font-weight="bold" lengthAdjust="spacing" textLength="33" x="595" y="377.8375">Abort</text></g><!--MD5=[b5694bddbc9c5a839673aa770770a59b]
link inactive to inactive--><g id="link_inactive_inactive"><path d="M371.28,131.19 C388.77,128.21 406,131.48 406,141 C406,149.55 392.09,153.06 376.58,151.53 " fill="none" id="inactive-to-inactive" style="stroke:#8B0000;stroke-width:1.0;stroke-dasharray:7.0,7.0;"/><polygon fill="#8B0000" points="371.28,150.81,379.6617,155.9818,376.2348,151.4811,380.7354,148.0542,371.28,150.81" style="stroke:#8B0000;stroke-width:1.0;"/><text fill="#8B0000" font-family="Lato,sans-serif" font-size="12" font-weight="bold" lengthAdjust="spacing" textLength="31" x="412" y="138.8375">Setup</text><text fill="#8B0000" font-family="Lato,sans-serif" font-size="12" font-style="italic" lengthAdjust="spacing" textLength="21" x="417" y="153.2296">fails</text></g><!--MD5=[a2a0452bf60df6c4560047e6c3dd3086]
link starting to error--><g id="link_starting_error"><path d="M38.2,277.14 C56.79,331.83 117.05,490.75 217,583 C231.38,596.27 249.83,608.05 265.17,616.73 " fill="none" id="starting-to-error" style="stroke:#8B0000;stroke-width:1.0;stroke-dasharray:7.0,7.0;"/><polygon fill="#8B0000" points="269.83,619.32,263.9052,611.4526,265.4592,616.8918,260.02,618.4458,269.83,619.32" style="stroke:#8B0000;stroke-width:1.0;"/><text fill="#8B0000" font-family="Lato,sans-serif" font-size="12" font-weight="bold" lengthAdjust="spacing" textLength="85" x="117" y="435.8375">Setup-complete</text><text fill="#8B0000" font-family="Lato,sans-serif" font-size="12" font-style="italic" lengthAdjust="spacing" textLength="21" x="149" y="450.2296">fails</text></g><!--MD5=[cda5f9a819e769cf6bdd637224e7aab7]
link active to error--><g id="link_active_error"><path d="M247.51,393.24 C226.66,421.59 193.93,476.26 210,523 C221.75,557.18 249.1,588.87 269.62,609.17 " fill="none" id="active-to-error" style="stroke:#8B0000;stroke-width:1.0;stroke-dasharray:7.0,7.0;"/><polygon fill="#8B0000" points="273.37,612.83,269.7418,603.6738,269.7989,609.3304,264.1424,609.3875,273.37,612.83" style="stroke:#8B0000;stroke-width:1.0;"/><text fill="#8B0000" font-family="Lato,sans-serif" font-size="12" font-weight="bold" lengthAdjust="spacing" textLength="40" x="211" y="500.8375">Update</text><text fill="#8B0000" font-family="Lato,sans-serif" font-size="12" font-style="italic" lengthAdjust="spacing" textLength="21" x="220.5" y="515.2296">fails</text></g><!--MD5=[cda5f9a819e769cf6bdd637224e7aab7]
link active to error--><g id="link_active_error"><path d="M265.41,393.39 C271.15,439.73 285.67,556.81 291.99,607.73 " fill="none" id="active-to-error-1" style="stroke:#8B0000;stroke-width:1.0;stroke-dasharray:7.0,7.0;"/><polygon fill="#8B0000" points="292.61,612.73,295.4728,603.3064,291.9951,607.768,287.5336,604.2902,292.61,612.73" style="stroke:#8B0000;stroke-width:1.0;"/><text fill="#8B0000" font-family="Lato,sans-serif" font-size="12" font-weight="bold" lengthAdjust="spacing" textLength="32" x="283" y="500.8375">Finish</text><text fill="#8B0000" font-family="Lato,sans-serif" font-size="12" font-style="italic" lengthAdjust="spacing" textLength="21" x="288.5" y="515.2296">fails</text></g><!--MD5=[166f22fb79bd437d7159cf57ca383140]
link finishing to error--><g id="link_finishing_error"><path d="M394.48,523.16 C373.55,546.07 338.54,584.37 316.12,608.89 " fill="none" id="finishing-to-error" style="stroke:#8B0000;stroke-width:1.0;stroke-dasharray:7.0,7.0;"/><polygon fill="#8B0000" points="312.64,612.71,321.6743,608.788,316.0225,609.0278,315.7827,603.376,312.64,612.71" style="stroke:#8B0000;stroke-width:1.0;"/><text fill="#8B0000" font-family="Lato,sans-serif" font-size="12" font-weight="bold" lengthAdjust="spacing" textLength="32" x="365" y="565.8375">Finish</text><text fill="#8B0000" font-family="Lato,sans-serif" font-size="12" font-style="italic" lengthAdjust="spacing" textLength="21" x="370.5" y="580.2296">fails</text></g><rect fill="#E8E8E8" height="55.1763" id="_legend" rx="7.5" ry="7.5" style="stroke:#000000;stroke-width:1.0;" width="248" x="187" y="666"/><text fill="#000000" font-family="Consolas,Menlo,monospace" font-size="12" lengthAdjust="spacing" text-decoration="line-through" textLength="21" x="193" y="684.3296">———</text><text fill="#000000" font-family="Lato,sans-serif" font-size="12" lengthAdjust="spacing" textLength="192" x="216" y="683.8375">Solid lines show successful operation</text><text fill="#8B0000" font-family="Consolas,Menlo,monospace" font-size="12" lengthAdjust="spacing" textLength="21" x="193" y="698.7217">---</text><text fill="#000000" font-family="Lato,sans-serif" font-size="12" lengthAdjust="spacing" textLength="156" x="216" y="698.2296">Dashed lines show error flows</text><text fill="#0000FF" font-family="Consolas,Menlo,monospace" font-size="12" lengthAdjust="spacing" textLength="21" x="193" y="713.1138">………</text><text fill="#000000" font-family="Lato,sans-serif" font-size="12" lengthAdjust="spacing" textLength="213" x="216" y="712.6217">Dotted lines show operation cancellation</text></g></svg>