<?xml version="1.0" encoding="UTF-8" standalone="no"?><svg xmlns="http://www.w3.org/2000/svg" xmlns:xlink="http://www.w3.org/1999/xlink" contentStyleType="text/css" height="505px" preserveAspectRatio="none" style="width:334px;height:505px;background:#FFFFFF55;" version="1.1" viewBox="0 0 334 505" width="334px" zoomAndPan="magnify"><defs/><g><rect fill="#FFFFFF" height="40" rx="4" ry="4" style="stroke:#000000;stroke-width:1.0;" width="50" x="102.33" y="121"/><text fill="#000000" font-family="Lato,sans-serif" font-size="12" font-style="italic" lengthAdjust="spacing" textLength="39" x="107.83" y="145.644">inactive</text><rect fill="#FFFFFF" height="40" rx="4" ry="4" style="stroke:#000000;stroke-width:1.0;" width="50" x="51.33" y="251"/><text fill="#000000" font-family="Lato,sans-serif" font-size="12" font-style="italic" lengthAdjust="spacing" textLength="30" x="61.33" y="275.644">active</text><rect fill="#FFFFFF" height="40" rx="4" ry="4" style="stroke:#8B0000;stroke-width:1.0;" width="50" x="140.33" y="381"/><text fill="#8B0000" font-family="Lato,sans-serif" font-size="12" font-style="italic" lengthAdjust="spacing" textLength="24" x="153.33" y="405.644">error</text><ellipse cx="127.33" cy="25.5" fill="#222222" rx="10" ry="10" style="stroke:none;stroke-width:1.0;"/><g id="elem_N1"><path d="M172.83,10 L172.83,40.8002 A4,4 0 0 0 176.83,44.8002 L323.83,44.8002 A4,4 0 0 0 327.83,40.8002 L327.83,16 L317.83,6 L176.83,6 A4,4 0 0 0 172.83,10 " fill="#E8E8E8" style="stroke:#181818;stroke-width:1.0;"/><path d="M317.83,6 L317.83,14 A2,2 0 0 0 319.83,16 L327.83,16 L317.83,6 " fill="#E8E8E8" style="stroke:#181818;stroke-width:1.0;"/><text fill="#000000" font-family="Lato,sans-serif" font-size="12" lengthAdjust="spacing" textLength="134" x="178.83" y="22.8441">Operation object starts as</text><text fill="#000000" font-family="Lato,sans-serif" font-size="12" lengthAdjust="spacing" textLength="110" x="178.83" y="37.2442">uninitialised memory</text></g><!--MD5=[cbf22ba017f8334a6284ec7023148ed4]
link *start to inactive--><g id="link_*start_inactive"><path d="M127.33,35.79 C127.33,53.09 127.33,90.75 127.33,115.74 " fill="none" id="*start-to-inactive" style="stroke:#000000;stroke-width:1.0;"/><polygon fill="#000000" points="127.33,120.87,131.33,111.87,127.33,115.87,123.33,111.87,127.33,120.87" style="stroke:#000000;stroke-width:1.0;"/><text fill="#000000" font-family="Lato,sans-serif" font-size="12" font-weight="bold" lengthAdjust="spacing" textLength="46" x="128.33" y="87.8441">Initialize</text></g><!--MD5=[24a3f507ae4be35bb92705f568c1523d]
link inactive to active--><g id="link_inactive_active"><path d="M108.01,161.4 C100.7,169.84 93.03,180.24 88.33,191 C80.8,208.25 77.88,229.4 76.8,245.48 " fill="none" id="inactive-to-active" style="stroke:#000000;stroke-width:1.0;"/><polygon fill="#000000" points="76.5,250.72,81.0069,241.9629,76.7852,245.7281,73.02,241.5065,76.5,250.72" style="stroke:#000000;stroke-width:1.0;"/><text fill="#000000" font-family="Lato,sans-serif" font-size="12" font-weight="bold" lengthAdjust="spacing" textLength="31" x="89.33" y="210.8441">Setup</text></g><!--MD5=[791ada642fd2d6774a49c3ceec6b12b0]
link active to inactive--><g id="link_active_inactive"><path d="M101.39,251.78 C110.69,243.53 120.21,232.94 125.33,221 C132.72,203.78 132.79,182.45 131.26,166.3 " fill="none" id="active-to-inactive" style="stroke:#000000;stroke-width:1.0;"/><polygon fill="#000000" points="130.68,161.03,127.6806,170.411,131.2228,166.0005,135.6333,169.5426,130.68,161.03" style="stroke:#000000;stroke-width:1.0;"/><text fill="#000000" font-family="Lato,sans-serif" font-size="12" font-weight="bold" lengthAdjust="spacing" textLength="52" x="133.33" y="203.8441">Complete</text><text fill="#000000" font-family="Lato,sans-serif" font-size="12" font-style="italic" lengthAdjust="spacing" textLength="37" x="140.83" y="218.2442">success</text></g><!--MD5=[b45dbd0536e5e688de48597d63fc1f1b]
reverse link inactive to active--><g id="link_inactive_active"><path d="M97,145.78 C69.92,150.94 31.77,163 13.33,191 C6,202.14 7.47,209.02 13.33,221 C21.25,237.18 37.37,249.56 51.32,257.83 " fill="none" id="inactive-backto-active" style="stroke:#0000FF;stroke-width:1.0;stroke-dasharray:1.0,3.0;"/><polygon fill="#0000FF" points="102.26,144.84,92.6932,142.4998,97.3393,145.7269,94.1122,150.3729,102.26,144.84" style="stroke:#0000FF;stroke-width:1.0;"/><text fill="#0000FF" font-family="Lato,sans-serif" font-size="12" font-weight="bold" lengthAdjust="spacing" textLength="33" x="14.33" y="210.8441">Abort</text></g><!--MD5=[2a34e9032f4d101d087b2d1552062dfb]
link active to active--><g id="link_active_active"><path d="M101.61,260.17 C119.1,256.89 136.33,260.5 136.33,271 C136.33,280.43 122.43,284.31 106.91,282.61 " fill="none" id="active-to-active" style="stroke:#000000;stroke-width:1.0;"/><polygon fill="#000000" points="101.61,281.83,109.9305,287.0997,106.5566,282.5591,111.0971,279.1852,101.61,281.83" style="stroke:#000000;stroke-width:1.0;"/><text fill="#000000" font-family="Lato,sans-serif" font-size="12" font-weight="bold" lengthAdjust="spacing" textLength="52" x="143.33" y="268.8441">Complete</text><text fill="#000000" font-family="Lato,sans-serif" font-size="12" font-style="italic" lengthAdjust="spacing" textLength="54" x="142.33" y="283.2442">incomplete</text></g><!--MD5=[631e2c4411ceec93d7ddb8ab8941d657]
link error to inactive--><g id="link_error_inactive"><path d="M177.39,380.6 C182.37,371.84 187.79,361.19 191.33,351 C214.69,283.82 230.65,252.15 194.33,191 C185.6,176.31 170.58,164.71 156.97,156.5 " fill="none" id="error-to-inactive" style="stroke:#8B0000;stroke-width:1.0;stroke-dasharray:7.0,7.0;"/><polygon fill="#8B0000" points="152.42,153.84,158.1621,161.8418,156.7337,156.3682,162.2073,154.9399,152.42,153.84" style="stroke:#8B0000;stroke-width:1.0;"/><text fill="#8B0000" font-family="Lato,sans-serif" font-size="12" font-weight="bold" lengthAdjust="spacing" textLength="33" x="217.33" y="275.8441">Abort</text></g><!--MD5=[b5694bddbc9c5a839673aa770770a59b]
link inactive to inactive--><g id="link_inactive_inactive"><path d="M152.61,131.19 C170.1,128.21 187.33,131.48 187.33,141 C187.33,149.55 173.43,153.06 157.91,151.53 " fill="none" id="inactive-to-inactive" style="stroke:#8B0000;stroke-width:1.0;stroke-dasharray:7.0,7.0;"/><polygon fill="#8B0000" points="152.61,150.81,160.9917,155.9818,157.5648,151.4811,162.0654,148.0542,152.61,150.81" style="stroke:#8B0000;stroke-width:1.0;"/><text fill="#8B0000" font-family="Lato,sans-serif" font-size="12" font-weight="bold" lengthAdjust="spacing" textLength="31" x="193.33" y="138.8441">Setup</text><text fill="#8B0000" font-family="Lato,sans-serif" font-size="12" font-style="italic" lengthAdjust="spacing" textLength="21" x="198.33" y="153.2442">fails</text></g><!--MD5=[cda5f9a819e769cf6bdd637224e7aab7]
link active to error--><g id="link_active_error"><path d="M89.66,291.16 C105.52,313.97 132,352.06 149.05,376.59 " fill="none" id="active-to-error" style="stroke:#8B0000;stroke-width:1.0;stroke-dasharray:7.0,7.0;"/><polygon fill="#8B0000" points="151.92,380.71,150.0719,371.0361,149.068,376.6032,143.501,375.5993,151.92,380.71" style="stroke:#8B0000;stroke-width:1.0;"/><text fill="#8B0000" font-family="Lato,sans-serif" font-size="12" font-weight="bold" lengthAdjust="spacing" textLength="52" x="130.33" y="333.8441">Complete</text><text fill="#8B0000" font-family="Lato,sans-serif" font-size="12" font-style="italic" lengthAdjust="spacing" textLength="21" x="145.83" y="348.2442">fails</text></g><rect fill="#E8E8E8" height="55.2003" id="_legend" rx="4" ry="4" style="stroke:#000000;stroke-width:1.0;" width="248" x="36.415" y="434"/><text fill="#000000" font-family="Consolas,Menlo,monospace" font-size="12" lengthAdjust="spacing" text-decoration="line-through" textLength="21" x="42.415" y="451.3122">———</text><text fill="#000000" font-family="Lato,sans-serif" font-size="12" lengthAdjust="spacing" textLength="192" x="65.415" y="451.8441">Solid lines show successful operation</text><text fill="#8B0000" font-family="Consolas,Menlo,monospace" font-size="12" lengthAdjust="spacing" textLength="21" x="42.415" y="465.7123">---</text><text fill="#000000" font-family="Lato,sans-serif" font-size="12" lengthAdjust="spacing" textLength="156" x="65.415" y="466.2442">Dashed lines show error flows</text><text fill="#0000FF" font-family="Consolas,Menlo,monospace" font-size="12" lengthAdjust="spacing" textLength="21" x="42.415" y="480.1124">………</text><text fill="#000000" font-family="Lato,sans-serif" font-size="12" lengthAdjust="spacing" textLength="213" x="65.415" y="480.6443">Dotted lines show operation cancellation</text></g></svg>