<?xml version="1.0" encoding="UTF-8" standalone="no"?><svg xmlns="http://www.w3.org/2000/svg" xmlns:xlink="http://www.w3.org/1999/xlink" contentStyleType="text/css" height="765px" preserveAspectRatio="none" style="width:660px;height:765px;background:#FFFFFF55;" version="1.1" viewBox="0 0 660 765" width="660px" zoomAndPan="magnify"><defs/><g><rect fill="#FFFFFF" height="40" rx="4" ry="4" style="stroke:#000000;stroke-width:1.0;" width="50" x="341" y="121"/><text fill="#000000" font-family="Lato,sans-serif" font-size="12" font-style="italic" lengthAdjust="spacing" textLength="39" x="346.5" y="145.644">inactive</text><rect fill="#FFFFFF" height="40" rx="4" ry="4" style="stroke:#000000;stroke-width:1.0;" width="50" x="7" y="251"/><text fill="#000000" font-family="Lato,sans-serif" font-size="12" font-style="italic" lengthAdjust="spacing" textLength="27" x="18.5" y="275.644">setup</text><rect fill="#FFFFFF" height="40" rx="4" ry="4" style="stroke:#000000;stroke-width:1.0;" width="50" x="240" y="381"/><text fill="#000000" font-family="Lato,sans-serif" font-size="12" font-style="italic" lengthAdjust="spacing" textLength="25" x="252.5" y="405.644">input</text><rect fill="#FFFFFF" height="40" rx="4" ry="4" style="stroke:#000000;stroke-width:1.0;" width="64" x="396" y="511"/><text fill="#000000" font-family="Lato,sans-serif" font-size="12" font-style="italic" lengthAdjust="spacing" textLength="54" x="401" y="535.644">completing</text><rect fill="#FFFFFF" height="40" rx="4" ry="4" style="stroke:#8B0000;stroke-width:1.0;" width="50" x="274" y="641"/><text fill="#8B0000" font-family="Lato,sans-serif" font-size="12" font-style="italic" lengthAdjust="spacing" textLength="24" x="287" y="665.644">error</text><ellipse cx="366" cy="25.5" fill="#222222" rx="10" ry="10" style="stroke:none;stroke-width:1.0;"/><g id="elem_N1"><path d="M411.5,10 L411.5,40.8002 A4,4 0 0 0 415.5,44.8002 L562.5,44.8002 A4,4 0 0 0 566.5,40.8002 L566.5,16 L556.5,6 L415.5,6 A4,4 0 0 0 411.5,10 " fill="#E8E8E8" style="stroke:#181818;stroke-width:1.0;"/><path d="M556.5,6 L556.5,14 A2,2 0 0 0 558.5,16 L566.5,16 L556.5,6 " fill="#E8E8E8" style="stroke:#181818;stroke-width:1.0;"/><text fill="#000000" font-family="Lato,sans-serif" font-size="12" lengthAdjust="spacing" textLength="134" x="417.5" y="22.8441">Operation object starts as</text><text fill="#000000" font-family="Lato,sans-serif" font-size="12" lengthAdjust="spacing" textLength="110" x="417.5" y="37.2442">uninitialised memory</text></g><!--MD5=[cbf22ba017f8334a6284ec7023148ed4]
link *start to inactive--><g id="link_*start_inactive"><path d="M366,35.79 C366,53.09 366,90.75 366,115.74 " fill="none" id="*start-to-inactive" style="stroke:#000000;stroke-width:1.0;"/><polygon fill="#000000" points="366,120.87,370,111.87,366,115.87,362,111.87,366,120.87" style="stroke:#000000;stroke-width:1.0;"/><text fill="#000000" font-family="Lato,sans-serif" font-size="12" font-weight="bold" lengthAdjust="spacing" textLength="46" x="367" y="87.8441">Initialize</text></g><!--MD5=[ce9f9674757f8749d971e292d6f4a841]
link inactive to setup--><g id="link_inactive_setup"><path d="M340.62,143.84 C279.54,148.67 126.28,163.28 84,191 C64.04,204.08 49.99,227.77 41.56,245.81 " fill="none" id="inactive-to-setup" style="stroke:#000000;stroke-width:1.0;"/><polygon fill="#000000" points="39.34,250.73,46.6887,244.1728,41.3972,246.1728,39.3971,240.8813,39.34,250.73" style="stroke:#000000;stroke-width:1.0;"/><text fill="#000000" font-family="Lato,sans-serif" font-size="12" font-weight="bold" lengthAdjust="spacing" textLength="31" x="88" y="203.8441">Setup</text><text fill="#000000" font-family="Lato,sans-serif" font-size="12" font-style="italic" lengthAdjust="spacing" textLength="37" x="85" y="218.2442">success</text></g><!--MD5=[cc48c67563f5711d67af1f2cb0364a5f]
reverse link inactive to setup--><g id="link_inactive_setup"><path d="M335.53,147.65 C298.24,155.1 233.58,169.82 181,191 C155.53,201.26 151.2,208.04 127,221 C103.44,233.62 76.33,247.54 57.11,257.31 " fill="none" id="inactive-backto-setup" style="stroke:#0000FF;stroke-width:1.0;stroke-dasharray:1.0,3.0;"/><polygon fill="#0000FF" points="340.83,146.6,331.2313,144.3944,335.9222,147.5559,332.7607,152.2468,340.83,146.6" style="stroke:#0000FF;stroke-width:1.0;"/><text fill="#0000FF" font-family="Lato,sans-serif" font-size="12" font-weight="bold" lengthAdjust="spacing" textLength="33" x="182" y="210.8441">Abort</text></g><!--MD5=[3b520169efbfbed5deb774df163c9858]
link setup to setup--><g id="link_setup_setup"><path d="M57.28,260.17 C74.77,256.89 92,260.5 92,271 C92,280.43 78.09,284.31 62.58,282.61 " fill="none" id="setup-to-setup" style="stroke:#000000;stroke-width:1.0;"/><polygon fill="#000000" points="57.28,281.83,65.6005,287.0997,62.2266,282.5591,66.7671,279.1852,57.28,281.83" style="stroke:#000000;stroke-width:1.0;"/><text fill="#000000" font-family="Lato,sans-serif" font-size="12" font-weight="bold" lengthAdjust="spacing" textLength="85" x="98" y="268.8441">Setup-complete</text><text fill="#000000" font-family="Lato,sans-serif" font-size="12" font-style="italic" lengthAdjust="spacing" textLength="54" x="113.5" y="283.2442">incomplete</text></g><!--MD5=[eaf4e9f89275963cc2a5c3738c6f2e6e]
link setup to input--><g id="link_setup_input"><path d="M51.34,291.11 C69.94,308.64 99.51,334.32 129,351 C163.14,370.31 206.28,384.3 234.71,392.27 " fill="none" id="setup-to-input" style="stroke:#000000;stroke-width:1.0;"/><polygon fill="#000000" points="239.84,393.69,232.2408,387.4248,235.0228,392.3503,230.0973,395.1323,239.84,393.69" style="stroke:#000000;stroke-width:1.0;"/><text fill="#000000" font-family="Lato,sans-serif" font-size="12" font-weight="bold" lengthAdjust="spacing" textLength="85" x="130" y="333.8441">Setup-complete</text><text fill="#000000" font-family="Lato,sans-serif" font-size="12" font-style="italic" lengthAdjust="spacing" textLength="37" x="154" y="348.2442">success</text></g><!--MD5=[58435c5c1b763e39b8b7cd7108ba180c]
link input to input--><g id="link_input_input"><path d="M290.28,390.17 C307.77,386.89 325,390.5 325,401 C325,410.43 311.09,414.31 295.58,412.61 " fill="none" id="input-to-input" style="stroke:#000000;stroke-width:1.0;"/><polygon fill="#000000" points="290.28,411.83,298.6005,417.0997,295.2266,412.5591,299.7671,409.1852,290.28,411.83" style="stroke:#000000;stroke-width:1.0;"/><text fill="#000000" font-family="Lato,sans-serif" font-size="12" font-weight="bold" lengthAdjust="spacing" textLength="40" x="331" y="398.8441">Update</text><text fill="#000000" font-family="Lato,sans-serif" font-size="12" font-style="italic" lengthAdjust="spacing" textLength="37" x="332.5" y="413.2442">success</text></g><!--MD5=[7e59108693995e61f01eec518d10d09d]
link input to completing--><g id="link_input_completing"><path d="M286.02,421.27 C307.82,441.16 340.57,470.67 354,481 C366.19,490.37 380.11,499.87 392.57,507.99 " fill="none" id="input-to-completing" style="stroke:#000000;stroke-width:1.0;"/><polygon fill="#000000" points="397.09,510.91,391.7022,502.6655,392.8906,508.1961,387.36,509.3845,397.09,510.91" style="stroke:#000000;stroke-width:1.0;"/><text fill="#000000" font-family="Lato,sans-serif" font-size="12" font-weight="bold" lengthAdjust="spacing" textLength="52" x="356" y="463.8441">Complete</text><text fill="#000000" font-family="Lato,sans-serif" font-size="12" font-style="italic" lengthAdjust="spacing" textLength="54" x="355" y="478.2442">incomplete</text></g><!--MD5=[b1bda48bdbab3e06306e28705f1dccd9]
reverse link inactive to input--><g id="link_inactive_input"><path d="M336.78,164.67 C313.62,184.59 282.93,215.82 269,251 C251.66,294.79 256.95,351.62 261.46,380.82 " fill="none" id="inactive-backto-input" style="stroke:#000000;stroke-width:1.0;"/><polygon fill="#000000" points="340.72,161.33,331.2723,164.1121,336.9107,164.5687,336.4541,170.2071,340.72,161.33" style="stroke:#000000;stroke-width:1.0;"/><text fill="#000000" font-family="Lato,sans-serif" font-size="12" font-weight="bold" lengthAdjust="spacing" textLength="52" x="270" y="268.8441">Complete</text><text fill="#000000" font-family="Lato,sans-serif" font-size="12" font-style="italic" lengthAdjust="spacing" textLength="37" x="277.5" y="283.2442">success</text></g><!--MD5=[b1bda48bdbab3e06306e28705f1dccd9]
reverse link inactive to input--><g id="link_inactive_input"><path d="M361.67,166.31 C355.86,196.33 344.25,248.62 327,291 C313.54,324.07 291.88,359.5 278.05,380.7 " fill="none" id="inactive-backto-input-1" style="stroke:#0000FF;stroke-width:1.0;stroke-dasharray:1.0,3.0;"/><polygon fill="#0000FF" points="362.62,161.33,356.9958,169.4151,361.6779,166.2404,364.8525,170.9225,362.62,161.33" style="stroke:#0000FF;stroke-width:1.0;"/><text fill="#0000FF" font-family="Lato,sans-serif" font-size="12" font-weight="bold" lengthAdjust="spacing" textLength="33" x="342" y="275.8441">Abort</text></g><!--MD5=[1c785ba69bda6558a308c7288443f55f]
link completing to completing--><g id="link_completing_completing"><path d="M460.06,519.62 C478.2,517.39 495,521.19 495,531 C495,539.89 481.2,543.84 465.11,542.85 " fill="none" id="completing-to-completing" style="stroke:#000000;stroke-width:1.0;"/><polygon fill="#000000" points="460.06,542.38,468.6572,547.1851,465.0391,542.8365,469.3876,539.2185,460.06,542.38" style="stroke:#000000;stroke-width:1.0;"/><text fill="#000000" font-family="Lato,sans-serif" font-size="12" font-weight="bold" lengthAdjust="spacing" textLength="52" x="502" y="528.8441">Complete</text><text fill="#000000" font-family="Lato,sans-serif" font-size="12" font-style="italic" lengthAdjust="spacing" textLength="54" x="501" y="543.2442">incomplete</text></g><!--MD5=[552d06a7848913fd77e4aa2a5581c877]
reverse link inactive to completing--><g id="link_inactive_completing"><path d="M373.13,166.64 C375.22,174.39 377.37,183.01 379,191 C403.63,311.61 420.47,458.82 426.01,510.75 " fill="none" id="inactive-backto-completing" style="stroke:#000000;stroke-width:1.0;"/><polygon fill="#000000" points="371.71,161.43,370.2141,171.1646,373.0232,166.2545,377.9333,169.0635,371.71,161.43" style="stroke:#000000;stroke-width:1.0;"/><text fill="#000000" font-family="Lato,sans-serif" font-size="12" font-weight="bold" lengthAdjust="spacing" textLength="52" x="408" y="333.8441">Complete</text><text fill="#000000" font-family="Lato,sans-serif" font-size="12" font-style="italic" lengthAdjust="spacing" textLength="37" x="415.5" y="348.2442">success</text></g><!--MD5=[552d06a7848913fd77e4aa2a5581c877]
reverse link inactive to completing--><g id="link_inactive_completing"><path d="M387.82,164.85 C394.76,172.77 402.15,181.94 408,191 C442.64,244.6 455.11,258.71 469,321 C484.53,390.65 453.34,474.07 437.05,510.91 " fill="none" id="inactive-backto-completing-1" style="stroke:#0000FF;stroke-width:1.0;stroke-dasharray:1.0,3.0;"/><polygon fill="#0000FF" points="384.45,161.07,387.4396,170.4541,387.7718,164.807,393.4189,165.1392,384.45,161.07" style="stroke:#0000FF;stroke-width:1.0;"/><text fill="#0000FF" font-family="Lato,sans-serif" font-size="12" font-weight="bold" lengthAdjust="spacing" textLength="33" x="473" y="340.8441">Abort</text></g><!--MD5=[631e2c4411ceec93d7ddb8ab8941d657]
link error to inactive--><g id="link_error_inactive"><path d="M324.03,655.56 C399.23,641.52 618,595.25 618,532 C618,270 618,270 618,270 C618,171.48 463.01,148.76 396.13,143.55 " fill="none" id="error-to-inactive" style="stroke:#8B0000;stroke-width:1.0;stroke-dasharray:7.0,7.0;"/><polygon fill="#8B0000" points="391.08,143.17,399.758,147.8276,396.0662,143.5415,400.3523,139.8497,391.08,143.17" style="stroke:#8B0000;stroke-width:1.0;"/><text fill="#8B0000" font-family="Lato,sans-serif" font-size="12" font-weight="bold" lengthAdjust="spacing" textLength="33" x="619" y="405.8441">Abort</text></g><!--MD5=[b5694bddbc9c5a839673aa770770a59b]
link inactive to inactive--><g id="link_inactive_inactive"><path d="M391.28,131.19 C408.77,128.21 426,131.48 426,141 C426,149.55 412.09,153.06 396.58,151.53 " fill="none" id="inactive-to-inactive" style="stroke:#8B0000;stroke-width:1.0;stroke-dasharray:7.0,7.0;"/><polygon fill="#8B0000" points="391.28,150.81,399.6617,155.9818,396.2348,151.4811,400.7354,148.0542,391.28,150.81" style="stroke:#8B0000;stroke-width:1.0;"/><text fill="#8B0000" font-family="Lato,sans-serif" font-size="12" font-weight="bold" lengthAdjust="spacing" textLength="31" x="432" y="138.8441">Setup</text><text fill="#8B0000" font-family="Lato,sans-serif" font-size="12" font-style="italic" lengthAdjust="spacing" textLength="21" x="437" y="153.2442">fails</text></g><!--MD5=[74d7032056803446384548e9e016c1b6]
link setup to error--><g id="link_setup_error"><path d="M37.89,291.23 C56.08,347.69 116.53,515.06 221,611 C235.41,624.23 253.86,636.01 269.2,644.7 " fill="none" id="setup-to-error" style="stroke:#8B0000;stroke-width:1.0;stroke-dasharray:7.0,7.0;"/><polygon fill="#8B0000" points="273.85,647.29,267.9448,639.4078,269.4853,644.8509,264.0422,646.3914,273.85,647.29" style="stroke:#8B0000;stroke-width:1.0;"/><text fill="#8B0000" font-family="Lato,sans-serif" font-size="12" font-weight="bold" lengthAdjust="spacing" textLength="85" x="122" y="463.8441">Setup-complete</text><text fill="#8B0000" font-family="Lato,sans-serif" font-size="12" font-style="italic" lengthAdjust="spacing" textLength="21" x="154" y="478.2442">fails</text></g><!--MD5=[0356b0815c5f2bfc4ad298a82d5a4e39]
link input to error--><g id="link_input_error"><path d="M249.95,421.29 C229.71,449.7 198,504.46 214,551 C225.75,585.18 253.1,616.87 273.62,637.17 " fill="none" id="input-to-error" style="stroke:#8B0000;stroke-width:1.0;stroke-dasharray:7.0,7.0;"/><polygon fill="#8B0000" points="277.37,640.83,273.7418,631.6738,273.7989,637.3304,268.1424,637.3875,277.37,640.83" style="stroke:#8B0000;stroke-width:1.0;"/><text fill="#8B0000" font-family="Lato,sans-serif" font-size="12" font-weight="bold" lengthAdjust="spacing" textLength="40" x="215" y="528.8441">Update</text><text fill="#8B0000" font-family="Lato,sans-serif" font-size="12" font-style="italic" lengthAdjust="spacing" textLength="21" x="224.5" y="543.2442">fails</text></g><!--MD5=[0356b0815c5f2bfc4ad298a82d5a4e39]
link input to error--><g id="link_input_error"><path d="M267.56,421.39 C273.66,467.73 289.09,584.81 295.8,635.73 " fill="none" id="input-to-error-1" style="stroke:#8B0000;stroke-width:1.0;stroke-dasharray:7.0,7.0;"/><polygon fill="#8B0000" points="296.46,640.73,299.2426,631.2824,295.8029,635.7734,291.312,632.3337,296.46,640.73" style="stroke:#8B0000;stroke-width:1.0;"/><text fill="#8B0000" font-family="Lato,sans-serif" font-size="12" font-weight="bold" lengthAdjust="spacing" textLength="52" x="286" y="528.8441">Complete</text><text fill="#8B0000" font-family="Lato,sans-serif" font-size="12" font-style="italic" lengthAdjust="spacing" textLength="21" x="301.5" y="543.2442">fails</text></g><!--MD5=[7fecd872e4f1a14354912dda562cfb45]
link completing to error--><g id="link_completing_error"><path d="M408.69,551.16 C385.6,574.07 347,612.37 322.29,636.89 " fill="none" id="completing-to-error" style="stroke:#8B0000;stroke-width:1.0;stroke-dasharray:7.0,7.0;"/><polygon fill="#8B0000" points="318.44,640.71,327.6466,637.2116,321.9898,637.1888,322.0126,631.5319,318.44,640.71" style="stroke:#8B0000;stroke-width:1.0;"/><text fill="#8B0000" font-family="Lato,sans-serif" font-size="12" font-weight="bold" lengthAdjust="spacing" textLength="52" x="377" y="593.8441">Complete</text><text fill="#8B0000" font-family="Lato,sans-serif" font-size="12" font-style="italic" lengthAdjust="spacing" textLength="21" x="392.5" y="608.2442">fails</text></g><rect fill="#E8E8E8" height="55.2003" id="_legend" rx="4" ry="4" style="stroke:#000000;stroke-width:1.0;" width="248" x="199" y="694"/><text fill="#000000" font-family="Consolas,Menlo,monospace" font-size="12" lengthAdjust="spacing" text-decoration="line-through" textLength="21" x="205" y="711.3122">———</text><text fill="#000000" font-family="Lato,sans-serif" font-size="12" lengthAdjust="spacing" textLength="192" x="228" y="711.8441">Solid lines show successful operation</text><text fill="#8B0000" font-family="Consolas,Menlo,monospace" font-size="12" lengthAdjust="spacing" textLength="21" x="205" y="725.7123">---</text><text fill="#000000" font-family="Lato,sans-serif" font-size="12" lengthAdjust="spacing" textLength="156" x="228" y="726.2442">Dashed lines show error flows</text><text fill="#0000FF" font-family="Consolas,Menlo,monospace" font-size="12" lengthAdjust="spacing" textLength="21" x="205" y="740.1124">………</text><text fill="#000000" font-family="Lato,sans-serif" font-size="12" lengthAdjust="spacing" textLength="213" x="228" y="740.6443">Dotted lines show operation cancellation</text></g></svg>