<svg xmlns="http://www.w3.org/2000/svg" xmlns:xlink="http://www.w3.org/1999/xlink" contentStyleType="text/css" data-diagram-type="STATE" height="496px" preserveAspectRatio="none" style="width:340px;height:496px;background:#FFFFFF55;" version="1.1" viewBox="0 0 340 496" width="340px" zoomAndPan="magnify"><defs/><g><rect fill="#FFFFFF" fill-opacity="0.33333" height="496" style="stroke:none;stroke-width:1;" width="340" x="0" y="0"/><rect fill="#FFFFFF" height="40" rx="4" ry="4" style="stroke:#000000;stroke-width:1;" width="50" x="106" y="120.8"/><text fill="#000000" font-family="Lato,sans-serif" font-size="12" font-style="italic" lengthAdjust="spacing" textLength="39.21" x="111.395" y="145.444">inactive</text><rect fill="#FFFFFF" height="40" rx="4" ry="4" style="stroke:#000000;stroke-width:1;" width="50" x="52" y="236.8"/><text fill="#000000" font-family="Lato,sans-serif" font-size="12" font-style="italic" lengthAdjust="spacing" textLength="30.09" x="61.955" y="261.444">active</text><rect fill="#FFFFFF" height="40" rx="4" ry="4" style="stroke:#8B0000;stroke-width:1;" width="50" x="133" y="366.8"/><text fill="#8B0000" font-family="Lato,sans-serif" font-size="12" font-style="italic" lengthAdjust="spacing" textLength="24.282" x="145.859" y="391.444">error</text><g class="entity" data-entity="N1" data-source-line="20" data-uid="ent0005" id="entity_N1"><path d="M176.42,10 L176.42,40.8 A4,4 0 0 0 180.42,44.8 L329.578,44.8 A4,4 0 0 0 333.578,40.8 L333.578,16 L323.578,6 L180.42,6 A4,4 0 0 0 176.42,10" fill="#E8E8E8" style="stroke:#7D868C;stroke-width:1;"/><path d="M323.578,6 L323.578,14 A2,2 0 0 0 325.578,16 L333.578,16 L323.578,6" fill="#E8E8E8" style="stroke:#7D868C;stroke-width:1;"/><text fill="#000000" font-family="Lato,sans-serif" font-size="12" lengthAdjust="spacing" textLength="136.158" x="182.42" y="22.844">Operation object starts as</text><text fill="#000000" font-family="Lato,sans-serif" font-size="12" lengthAdjust="spacing" textLength="109.458" x="182.42" y="37.244">uninitialised memory</text></g><ellipse cx="131" cy="25.4" fill="#222222" rx="10" ry="10" style="stroke:#222222;stroke-width:1;"/><!--link *start* to inactive--><g class="link" data-entity-1="*start*" data-entity-2="inactive" data-source-line="18" data-uid="lnk3" id="link_*start*_inactive"><path d="M131,35.68 C131,54.19 131,90.05 131,114.69" fill="none" id="*start*-to-inactive" style="stroke:#000000;stroke-width:1;"/><polygon fill="#000000" points="131,120.69,135,111.69,131,115.69,127,111.69,131,120.69" style="stroke:#000000;stroke-width:1;"/><text fill="#000000" font-family="Lato,sans-serif" font-size="12" font-weight="bold" lengthAdjust="spacing" textLength="44.928" x="132" y="87.644">Initialize</text></g><!--link inactive to active--><g class="link" data-entity-1="inactive" data-entity-2="active" data-source-line="23" data-uid="lnk4" id="link_inactive_active"><path d="M105.87,144.86 C79.15,149.61 38.16,161.49 19,190.8 C6,210.67 25.5931,227.5699 46.6831,240.0199" fill="none" id="inactive-to-active" style="stroke:#000000;stroke-width:1;"/><polygon fill="#000000" points="51.85,243.07,46.1331,235.0502,47.5443,240.5282,42.0663,241.9394,51.85,243.07" style="stroke:#000000;stroke-width:1;"/><text fill="#000000" font-family="Lato,sans-serif" font-size="12" font-weight="bold" lengthAdjust="spacing" textLength="31.038" x="20" y="203.644">Setup</text></g><!--link active to inactive--><g class="link" data-entity-1="active" data-entity-2="inactive" data-source-line="25" data-uid="lnk6" id="link_active_inactive"><path d="M79.15,236.56 C81.18,223.22 85,205.3 92,190.8 C97.19,180.03 101.2187,174.0199 108.5687,165.4699" fill="none" id="active-to-inactive" style="stroke:#000000;stroke-width:1;"/><polygon fill="#000000" points="112.48,160.92,103.5798,165.1373,109.2206,164.7116,109.6463,170.3524,112.48,160.92" style="stroke:#000000;stroke-width:1;"/><text fill="#000000" font-family="Lato,sans-serif" font-size="12" font-weight="bold" lengthAdjust="spacing" textLength="31.698" x="93" y="203.644">Finish</text></g><!--link active to inactive--><g class="link" data-entity-1="active" data-entity-2="inactive" data-source-line="30" data-uid="lnk11" id="link_active_inactive"><path d="M102.43,238.76 C112.63,230.43 123.29,219.47 129,206.8 C135.44,192.49 136.0534,180.5316 134.7434,167.1216" fill="none" id="active-to-inactive-1" style="stroke:#0000FF;stroke-width:1;stroke-dasharray:1.0,3.0;"/><polygon fill="#0000FF" points="134.16,161.15,131.054,170.4963,134.6461,166.1263,139.0161,169.7185,134.16,161.15" style="stroke:#0000FF;stroke-width:1;"/><text fill="#0000FF" font-family="Lato,sans-serif" font-size="12" font-weight="bold" lengthAdjust="spacing" textLength="30.978" x="134.48" y="203.644">Abort</text></g><!--link active to active--><g class="link" data-entity-1="active" data-entity-2="active" data-source-line="24" data-uid="lnk5" id="link_active_active"><path d="M102.27,246.99 C119.77,244.01 137,247.28 137,256.8 C137,266.32 125.6849,270.5972 108.1849,267.6172" fill="none" id="active-to-active" style="stroke:#000000;stroke-width:1;"/><polygon fill="#000000" points="102.27,266.61,110.4708,272.0641,107.199,267.4493,111.8138,264.1776,102.27,266.61" style="stroke:#000000;stroke-width:1;"/><text fill="#000000" font-family="Lato,sans-serif" font-size="12" font-weight="bold" lengthAdjust="spacing" textLength="39.498" x="143" y="261.644">Update</text></g><!--link error to inactive--><g class="link" data-entity-1="error" data-entity-2="inactive" data-source-line="26" data-uid="lnk7" id="link_error_inactive"><path d="M166.44,366.54 C170.09,357.62 174.17,346.81 177,336.8 C189.16,293.77 195.01,280.96 188,236.8 C184.62,215.56 183.53,209.55 173,190.8 C166.96,180.06 162.4179,173.9197 154.5679,165.3697" fill="none" id="error-to-inactive" style="stroke:#8B0000;stroke-width:1;stroke-dasharray:7.0,7.0;"/><polygon fill="#8B0000" points="150.51,160.95,153.6503,170.2848,153.8915,164.6331,159.5433,164.8743,150.51,160.95" style="stroke:#8B0000;stroke-width:1;"/><text fill="#8B0000" font-family="Lato,sans-serif" font-size="12" font-weight="bold" lengthAdjust="spacing" textLength="30.978" x="192.02" y="261.644">Abort</text></g><!--link inactive to inactive--><g class="link" data-entity-1="inactive" data-entity-2="inactive" data-source-line="27" data-uid="lnk8" id="link_inactive_inactive"><path d="M156.27,130.99 C173.77,128.01 191,131.28 191,140.8 C191,150.32 179.6849,154.5972 162.1849,151.6172" fill="none" id="inactive-to-inactive" style="stroke:#8B0000;stroke-width:1;stroke-dasharray:7.0,7.0;"/><polygon fill="#8B0000" points="156.27,150.61,164.4708,156.0641,161.199,151.4493,165.8138,148.1776,156.27,150.61" style="stroke:#8B0000;stroke-width:1;"/><text fill="#8B0000" font-family="Lato,sans-serif" font-size="12" font-weight="bold" lengthAdjust="spacing" textLength="31.038" x="197" y="138.644">Setup</text><text fill="#8B0000" font-family="Lato,sans-serif" font-size="12" font-style="italic" lengthAdjust="spacing" textLength="20.238" x="202.4" y="153.044">fails</text></g><!--link active to error--><g class="link" data-entity-1="active" data-entity-2="error" data-source-line="28" data-uid="lnk9" id="link_active_error"><path d="M70.85,277.03 C66.65,293.93 63.54,318.59 74,336.8 C86.53,358.61 107.2777,369.617 127.1577,376.697" fill="none" id="active-to-error" style="stroke:#8B0000;stroke-width:1;stroke-dasharray:7.0,7.0;"/><polygon fill="#8B0000" points="132.81,378.71,125.6736,371.9224,128.0998,377.0325,122.9896,379.4587,132.81,378.71" style="stroke:#8B0000;stroke-width:1;"/><text fill="#8B0000" font-family="Lato,sans-serif" font-size="12" font-weight="bold" lengthAdjust="spacing" textLength="39.498" x="75" y="319.644">Update</text><text fill="#8B0000" font-family="Lato,sans-serif" font-size="12" font-style="italic" lengthAdjust="spacing" textLength="20.238" x="84.63" y="334.044">fails</text></g><!--link active to error--><g class="link" data-entity-1="active" data-entity-2="error" data-source-line="29" data-uid="lnk10" id="link_active_error"><path d="M95.35,276.93 C103.18,285.64 112.08,296.33 119,306.8 C131.72,326.07 140.6307,344.5919 147.7407,361.0519" fill="none" id="active-to-error-1" style="stroke:#8B0000;stroke-width:1;stroke-dasharray:7.0,7.0;"/><polygon fill="#8B0000" points="150.12,366.56,150.2232,356.7117,148.1373,361.9699,142.879,359.884,150.12,366.56" style="stroke:#8B0000;stroke-width:1;"/><text fill="#8B0000" font-family="Lato,sans-serif" font-size="12" font-weight="bold" lengthAdjust="spacing" textLength="31.698" x="136.85" y="319.644">Finish</text><text fill="#8B0000" font-family="Lato,sans-serif" font-size="12" font-style="italic" lengthAdjust="spacing" textLength="20.238" x="142.58" y="334.044">fails</text></g><rect fill="#E8E8E8" height="53.2" rx="4" ry="4" style="stroke:#000000;stroke-width:1;" width="246.658" x="39.96" y="423.8"/><text fill="#000000" font-family="Inconsolata,monospace" font-size="12" lengthAdjust="spacing" text-decoration="line-through" textLength="18" x="44.96" y="440.92">&#8212;&#8212;&#8212;</text><text fill="#000000" font-family="Lato,sans-serif" font-size="12" lengthAdjust="spacing" textLength="194.778" x="66.032" y="440.644">Solid lines show successful operation</text><text fill="#8B0000" font-family="Inconsolata,monospace" font-size="12" lengthAdjust="spacing" textLength="18" x="44.96" y="455.32">---</text><text fill="#000000" font-family="Lato,sans-serif" font-size="12" lengthAdjust="spacing" textLength="159.096" x="66.032" y="455.044">Dashed lines show error flows</text><text fill="#0000FF" font-family="Inconsolata,monospace" font-size="12" lengthAdjust="spacing" textLength="18" x="44.96" y="469.72">&#8230;&#8230;&#8230;</text><text fill="#000000" font-family="Lato,sans-serif" font-size="12" lengthAdjust="spacing" textLength="215.586" x="66.032" y="469.444">Dotted lines show operation cancellation</text></g></svg>