<svg xmlns="http://www.w3.org/2000/svg" xmlns:xlink="http://www.w3.org/1999/xlink" contentStyleType="text/css" data-diagram-type="STATE" height="500px" preserveAspectRatio="none" style="width:342px;height:500px;background:#FFFFFF55;" version="1.1" viewBox="0 0 342 500" width="342px" zoomAndPan="magnify"><defs><style type="text/css">@import url('https://fonts.googleapis.com/css?family=Roboto:400,100,100italic,300,300italic,400italic,500,500italic,700,700italic,900,900italic');</style></defs><g><rect fill="#FFFFFF" fill-opacity="0.33333" height="500" style="stroke:none;stroke-width:1;" width="342" x="0" y="0"/><rect fill="#FFFFFF" height="40" rx="4" ry="4" style="stroke:#000000;stroke-width:1;" width="50.1309" x="107.15" y="120.13"/><text fill="#000000" font-family="Roboto,sans-serif" font-size="12" font-style="italic" lengthAdjust="spacing" textLength="40.1309" x="112.15" y="144.2316">inactive</text><rect fill="#FFFFFF" height="40" rx="4" ry="4" style="stroke:#000000;stroke-width:1;" width="50" x="53.21" y="236.13"/><text fill="#000000" font-family="Roboto,sans-serif" font-size="12" font-style="italic" lengthAdjust="spacing" textLength="30.873" x="62.7735" y="260.2316">active</text><rect fill="#FFFFFF" height="40" rx="4" ry="4" style="stroke:#8B0000;stroke-width:1;" width="50" x="133.21" y="366.13"/><text fill="#8B0000" font-family="Roboto,sans-serif" font-size="12" font-style="italic" lengthAdjust="spacing" textLength="24.6387" x="145.8907" y="390.2316">error</text><g class="entity" data-entity="N1" data-source-line="20" data-uid="ent0005" id="entity_N1"><path d="M176.83,10 L176.83,40.125 A4,4 0 0 0 180.83,44.125 L331.6015,44.125 A4,4 0 0 0 335.6015,40.125 L335.6015,16 L325.6015,6 L180.83,6 A4,4 0 0 0 176.83,10" fill="#E8E8E8" style="stroke:#7D868C;stroke-width:1;"/><path d="M325.6015,6 L325.6015,14 A2,2 0 0 0 327.6015,16 L335.6015,16 L325.6015,6" fill="#E8E8E8" style="stroke:#7D868C;stroke-width:1;"/><text fill="#000000" font-family="Roboto,sans-serif" font-size="12" lengthAdjust="spacing" textLength="137.7715" x="182.83" y="22.1328">Operation object starts as</text><text fill="#000000" font-family="Roboto,sans-serif" font-size="12" lengthAdjust="spacing" textLength="111.2109" x="182.83" y="36.1953">uninitialised memory</text></g><ellipse cx="132.21" cy="25.07" fill="#222222" rx="10" ry="10" style="stroke:#222222;stroke-width:1;"/><!--link *start* to inactive--><g class="link" data-entity-1="*start*" data-entity-2="inactive" data-source-line="18" data-uid="lnk3" id="link_*start*_inactive"><path d="M132.21,35.32 C132.21,53.67 132.21,89.04 132.21,113.65" fill="none" id="*start*-to-inactive" style="stroke:#000000;stroke-width:1;"/><polygon fill="#000000" points="132.21,119.65,136.21,110.65,132.21,114.65,128.21,110.65,132.21,119.65" style="stroke:#000000;stroke-width:1;"/><text fill="#000000" font-family="Roboto,sans-serif" font-size="12" font-weight="bold" lengthAdjust="spacing" textLength="46.0078" x="133.21" y="86.2628">Initialize</text></g><!--link inactive to active--><g class="link" data-entity-1="inactive" data-entity-2="active" data-source-line="23" data-uid="lnk4" id="link_inactive_active"><path d="M106.87,144.12 C79.92,148.8 38.57,160.63 19.21,190.13 C6,210.26 26.3713,227.3045 47.8913,239.7045" fill="none" id="inactive-to-active" style="stroke:#000000;stroke-width:1;"/><polygon fill="#000000" points="53.09,242.7,47.2889,234.7409,48.7577,240.2037,43.2949,241.6725,53.09,242.7" style="stroke:#000000;stroke-width:1;"/><text fill="#000000" font-family="Roboto,sans-serif" font-size="12" font-weight="bold" lengthAdjust="spacing" textLength="31.4004" x="20.21" y="202.2628">Setup</text></g><!--link active to inactive--><g class="link" data-entity-1="active" data-entity-2="inactive" data-source-line="25" data-uid="lnk6" id="link_active_inactive"><path d="M79.96,235.87 C81.73,222.51 85.26,204.59 92.21,190.13 C97.36,179.44 101.3124,173.5509 108.7524,165.1109" fill="none" id="active-to-inactive" style="stroke:#000000;stroke-width:1;"/><polygon fill="#000000" points="112.72,160.61,103.768,164.7163,109.4137,164.3607,109.7692,170.0064,112.72,160.61" style="stroke:#000000;stroke-width:1;"/><text fill="#000000" font-family="Roboto,sans-serif" font-size="12" font-weight="bold" lengthAdjust="spacing" textLength="32.5488" x="93.21" y="202.2628">Finish</text></g><!--link active to inactive--><g class="link" data-entity-1="active" data-entity-2="inactive" data-source-line="30" data-uid="lnk11" id="link_active_inactive"><path d="M103.65,238.09 C113.85,229.76 124.51,218.8 130.21,206.13 C136.66,191.82 137.2734,179.8616 135.9634,166.4516" fill="none" id="active-to-inactive-1" style="stroke:#0000FF;stroke-width:1;stroke-dasharray:1.0,3.0;"/><polygon fill="#0000FF" points="135.38,160.48,132.274,169.8263,135.8661,165.4563,140.2361,169.0485,135.38,160.48" style="stroke:#0000FF;stroke-width:1;"/><text fill="#0000FF" font-family="Roboto,sans-serif" font-size="12" font-weight="bold" lengthAdjust="spacing" textLength="30.041" x="135.69" y="202.2628">Abort</text></g><!--link active to active--><g class="link" data-entity-1="active" data-entity-2="active" data-source-line="24" data-uid="lnk5" id="link_active_active"><path d="M103.49,246.32 C120.99,243.34 138.21,246.61 138.21,256.13 C138.21,265.65 126.9049,269.9272 109.4049,266.9472" fill="none" id="active-to-active" style="stroke:#000000;stroke-width:1;"/><polygon fill="#000000" points="103.49,265.94,111.6908,271.3941,108.419,266.7793,113.0338,263.5076,103.49,265.94" style="stroke:#000000;stroke-width:1;"/><text fill="#000000" font-family="Roboto,sans-serif" font-size="12" font-weight="bold" lengthAdjust="spacing" textLength="38.3789" x="144.21" y="260.2628">Update</text></g><!--link error to inactive--><g class="link" data-entity-1="error" data-entity-2="inactive" data-source-line="26" data-uid="lnk7" id="link_error_inactive"><path d="M167.21,365.93 C171.08,357.03 175.36,346.21 178.21,336.13 C190.4,293.16 194.79,280.31 188.21,236.13 C185.07,214.99 184.5,208.86 174.21,190.13 C168.28,179.33 163.766,173.1722 155.896,164.6322" fill="none" id="error-to-inactive" style="stroke:#8B0000;stroke-width:1;stroke-dasharray:7.0,7.0;"/><polygon fill="#8B0000" points="151.83,160.22,154.9876,169.549,155.2184,163.8968,160.8705,164.1276,151.83,160.22" style="stroke:#8B0000;stroke-width:1;"/><text fill="#8B0000" font-family="Roboto,sans-serif" font-size="12" font-weight="bold" lengthAdjust="spacing" textLength="30.041" x="192.26" y="260.2628">Abort</text></g><!--link inactive to inactive--><g class="link" data-entity-1="inactive" data-entity-2="inactive" data-source-line="27" data-uid="lnk8" id="link_inactive_inactive"><path d="M157.52,130.32 C175.03,127.34 192.28,130.61 192.28,140.13 C192.28,149.65 180.945,153.9267 163.435,150.9467" fill="none" id="inactive-to-inactive" style="stroke:#8B0000;stroke-width:1;stroke-dasharray:7.0,7.0;"/><polygon fill="#8B0000" points="157.52,149.94,165.7213,155.3933,162.4491,150.7789,167.0635,147.5067,157.52,149.94" style="stroke:#8B0000;stroke-width:1;"/><text fill="#8B0000" font-family="Roboto,sans-serif" font-size="12" font-weight="bold" lengthAdjust="spacing" textLength="31.4004" x="198.28" y="137.2628">Setup</text><text fill="#8B0000" font-family="Roboto,sans-serif" font-size="12" font-style="italic" lengthAdjust="spacing" textLength="22.0488" x="202.9558" y="151.3253">fails</text></g><!--link active to error--><g class="link" data-entity-1="active" data-entity-2="error" data-source-line="28" data-uid="lnk9" id="link_active_error"><path d="M72.09,276.35 C67.91,293.24 64.8,317.89 75.21,336.13 C87.49,357.64 107.6843,368.5912 127.2843,375.7512" fill="none" id="active-to-error" style="stroke:#8B0000;stroke-width:1;stroke-dasharray:7.0,7.0;"/><polygon fill="#8B0000" points="132.92,377.81,125.8389,370.9647,128.2236,376.0944,123.0939,378.479,132.92,377.81" style="stroke:#8B0000;stroke-width:1;"/><text fill="#8B0000" font-family="Roboto,sans-serif" font-size="12" font-weight="bold" lengthAdjust="spacing" textLength="38.3789" x="76.21" y="318.2628">Update</text><text fill="#8B0000" font-family="Roboto,sans-serif" font-size="12" font-style="italic" lengthAdjust="spacing" textLength="22.0488" x="84.375" y="332.3253">fails</text></g><!--link active to error--><g class="link" data-entity-1="active" data-entity-2="error" data-source-line="29" data-uid="lnk10" id="link_active_error"><path d="M96.1,276.32 C103.74,285.04 112.43,295.72 119.21,306.13 C131.83,325.48 140.737,343.9878 147.887,360.4278" fill="none" id="active-to-error-1" style="stroke:#8B0000;stroke-width:1;stroke-dasharray:7.0,7.0;"/><polygon fill="#8B0000" points="150.28,365.93,150.3587,356.0815,148.2859,361.3449,143.0224,359.2721,150.28,365.93" style="stroke:#8B0000;stroke-width:1;"/><text fill="#8B0000" font-family="Roboto,sans-serif" font-size="12" font-weight="bold" lengthAdjust="spacing" textLength="32.5488" x="136.99" y="318.2628">Finish</text><text fill="#8B0000" font-family="Roboto,sans-serif" font-size="12" font-style="italic" lengthAdjust="spacing" textLength="22.0488" x="142.24" y="332.3253">fails</text></g><rect fill="#E8E8E8" height="57.4785" rx="4" ry="4" style="stroke:#000000;stroke-width:1;" width="251.4824" x="38.5595" y="423.13"/><text fill="#000000" font-family="Roboto Mono,monospace" font-size="12" lengthAdjust="spacing" text-decoration="line-through" textLength="21.6035" x="43.5595" y="440.7042">&#8212;&#8212;&#8212;</text><text fill="#000000" font-family="Roboto,sans-serif" font-size="12" lengthAdjust="spacing" textLength="200.8418" x="68.1396" y="441.0265">Solid lines show successful operation</text><text fill="#8B0000" font-family="Roboto Mono,monospace" font-size="12" lengthAdjust="spacing" textLength="21.6035" x="43.5595" y="456.5304">---</text><text fill="#000000" font-family="Roboto,sans-serif" font-size="12" lengthAdjust="spacing" textLength="160.4766" x="68.1396" y="456.8527">Dashed lines show error flows</text><text fill="#0000FF" font-family="Roboto Mono,monospace" font-size="12" lengthAdjust="spacing" textLength="21.6035" x="43.5595" y="472.3566">&#8230;&#8230;&#8230;</text><text fill="#000000" font-family="Roboto,sans-serif" font-size="12" lengthAdjust="spacing" textLength="216.9023" x="68.1396" y="472.6788">Dotted lines show operation cancellation</text></g></svg>