<?xml version="1.0" encoding="UTF-8" standalone="no"?><svg xmlns="http://www.w3.org/2000/svg" xmlns:xlink="http://www.w3.org/1999/xlink" contentStyleType="text/css" height="491px" preserveAspectRatio="none" style="width:340px;height:491px;background:#FFFFFF55;" version="1.1" viewBox="0 0 340 491" width="340px" zoomAndPan="magnify"><defs/><g><rect fill="#FFFFFF" height="40" rx="4" ry="4" style="stroke:#000000;stroke-width:1.0;" width="50" x="108.43" y="121"/><text fill="#000000" font-family="Lato,sans-serif" font-size="12" font-style="italic" lengthAdjust="spacing" textLength="39" x="113.93" y="145.644">inactive</text><rect fill="#FFFFFF" height="40" rx="4" ry="4" style="stroke:#000000;stroke-width:1.0;" width="50" x="54.43" y="237"/><text fill="#000000" font-family="Lato,sans-serif" font-size="12" font-style="italic" lengthAdjust="spacing" textLength="30" x="64.43" y="261.644">active</text><rect fill="#FFFFFF" height="40" rx="4" ry="4" style="stroke:#8B0000;stroke-width:1.0;" width="50" x="136.43" y="367"/><text fill="#8B0000" font-family="Lato,sans-serif" font-size="12" font-style="italic" lengthAdjust="spacing" textLength="24" x="149.43" y="391.644">error</text><ellipse cx="133.43" cy="25.5" fill="#222222" rx="10" ry="10" style="stroke:none;stroke-width:1.0;"/><g id="elem_N1"><path d="M178.93,10 L178.93,40.8002 A4,4 0 0 0 182.93,44.8002 L329.93,44.8002 A4,4 0 0 0 333.93,40.8002 L333.93,16 L323.93,6 L182.93,6 A4,4 0 0 0 178.93,10 " fill="#E8E8E8" style="stroke:#181818;stroke-width:1.0;"/><path d="M323.93,6 L323.93,14 A2,2 0 0 0 325.93,16 L333.93,16 L323.93,6 " fill="#E8E8E8" style="stroke:#181818;stroke-width:1.0;"/><text fill="#000000" font-family="Lato,sans-serif" font-size="12" lengthAdjust="spacing" textLength="134" x="184.93" y="22.8441">Operation object starts as</text><text fill="#000000" font-family="Lato,sans-serif" font-size="12" lengthAdjust="spacing" textLength="110" x="184.93" y="37.2442">uninitialised memory</text></g><!--MD5=[cbf22ba017f8334a6284ec7023148ed4]
link *start to inactive--><g id="link_*start_inactive"><path d="M133.43,35.79 C133.43,53.09 133.43,90.75 133.43,115.74 " fill="none" id="*start-to-inactive" style="stroke:#000000;stroke-width:1.0;"/><polygon fill="#000000" points="133.43,120.87,137.43,111.87,133.43,115.87,129.43,111.87,133.43,120.87" style="stroke:#000000;stroke-width:1.0;"/><text fill="#000000" font-family="Lato,sans-serif" font-size="12" font-weight="bold" lengthAdjust="spacing" textLength="46" x="134.43" y="87.8441">Initialize</text></g><!--MD5=[24a3f507ae4be35bb92705f568c1523d]
link inactive to active--><g id="link_inactive_active"><path d="M114.91,161.12 C107.56,169.67 99.62,180.23 94.43,191 C88.31,203.69 84.62,218.99 82.43,231.56 " fill="none" id="inactive-to-active" style="stroke:#000000;stroke-width:1.0;"/><polygon fill="#000000" points="81.58,236.76,86.9703,228.5172,82.3811,231.8246,79.0737,227.2354,81.58,236.76" style="stroke:#000000;stroke-width:1.0;"/><text fill="#000000" font-family="Lato,sans-serif" font-size="12" font-weight="bold" lengthAdjust="spacing" textLength="31" x="95.43" y="203.8441">Setup</text></g><!--MD5=[791ada642fd2d6774a49c3ceec6b12b0]
link active to inactive--><g id="link_active_inactive"><path d="M104.59,239.18 C114.87,230.83 125.67,219.78 131.43,207 C137.1,194.39 137.81,178.96 136.99,166.3 " fill="none" id="active-to-inactive" style="stroke:#000000;stroke-width:1.0;"/><polygon fill="#000000" points="136.56,161.06,133.319,170.3603,136.974,166.0428,141.2915,169.6979,136.56,161.06" style="stroke:#000000;stroke-width:1.0;"/><text fill="#000000" font-family="Lato,sans-serif" font-size="12" font-weight="bold" lengthAdjust="spacing" textLength="32" x="137.43" y="203.8441">Finish</text></g><!--MD5=[b45dbd0536e5e688de48597d63fc1f1b]
reverse link inactive to active--><g id="link_inactive_active"><path d="M103.1,145.78 C76.02,150.94 37.87,163 19.43,191 C6,211.39 32.39,231.53 54.33,243.86 " fill="none" id="inactive-backto-active" style="stroke:#0000FF;stroke-width:1.0;stroke-dasharray:1.0,3.0;"/><polygon fill="#0000FF" points="108.36,144.84,98.7998,142.4729,103.4368,145.713,100.1967,150.35,108.36,144.84" style="stroke:#0000FF;stroke-width:1.0;"/><text fill="#0000FF" font-family="Lato,sans-serif" font-size="12" font-weight="bold" lengthAdjust="spacing" textLength="33" x="20.43" y="203.8441">Abort</text></g><!--MD5=[2a34e9032f4d101d087b2d1552062dfb]
link active to active--><g id="link_active_active"><path d="M104.7,247.19 C122.2,244.21 139.43,247.48 139.43,257 C139.43,265.55 125.52,269.06 110.01,267.53 " fill="none" id="active-to-active" style="stroke:#000000;stroke-width:1.0;"/><polygon fill="#000000" points="104.7,266.81,113.0963,271.958,109.6566,267.4671,114.1476,264.0274,104.7,266.81" style="stroke:#000000;stroke-width:1.0;"/><text fill="#000000" font-family="Lato,sans-serif" font-size="12" font-weight="bold" lengthAdjust="spacing" textLength="40" x="145.43" y="261.8441">Update</text></g><!--MD5=[631e2c4411ceec93d7ddb8ab8941d657]
link error to inactive--><g id="link_error_inactive"><path d="M170.42,366.8 C174.29,357.9 178.57,347.08 181.43,337 C193.61,294.03 197.56,281.24 191.43,237 C188.51,215.96 188.78,209.55 178.43,191 C173.2,181.64 165.85,172.63 158.6,164.94 " fill="none" id="error-to-inactive" style="stroke:#8B0000;stroke-width:1.0;stroke-dasharray:7.0,7.0;"/><polygon fill="#8B0000" points="155.06,161.27,158.4652,170.5115,158.5452,164.8552,164.2015,164.9352,155.06,161.27" style="stroke:#8B0000;stroke-width:1.0;"/><text fill="#8B0000" font-family="Lato,sans-serif" font-size="12" font-weight="bold" lengthAdjust="spacing" textLength="33" x="195.43" y="261.8441">Abort</text></g><!--MD5=[b5694bddbc9c5a839673aa770770a59b]
link inactive to inactive--><g id="link_inactive_inactive"><path d="M158.7,131.19 C176.2,128.21 193.43,131.48 193.43,141 C193.43,149.55 179.52,153.06 164.01,151.53 " fill="none" id="inactive-to-inactive" style="stroke:#8B0000;stroke-width:1.0;stroke-dasharray:7.0,7.0;"/><polygon fill="#8B0000" points="158.7,150.81,167.0963,155.958,163.6566,151.4671,168.1476,148.0274,158.7,150.81" style="stroke:#8B0000;stroke-width:1.0;"/><text fill="#8B0000" font-family="Lato,sans-serif" font-size="12" font-weight="bold" lengthAdjust="spacing" textLength="31" x="199.43" y="138.8441">Setup</text><text fill="#8B0000" font-family="Lato,sans-serif" font-size="12" font-style="italic" lengthAdjust="spacing" textLength="21" x="204.43" y="153.2442">fails</text></g><!--MD5=[cda5f9a819e769cf6bdd637224e7aab7]
link active to error--><g id="link_active_error"><path d="M73.26,277.24 C69.04,294.15 65.92,318.82 76.43,337 C88.21,357.39 112.06,370.05 131.51,377.38 " fill="none" id="active-to-error" style="stroke:#8B0000;stroke-width:1.0;stroke-dasharray:7.0,7.0;"/><polygon fill="#8B0000" points="136.35,379.13,129.2472,372.3073,131.6481,377.4293,126.5261,379.8303,136.35,379.13" style="stroke:#8B0000;stroke-width:1.0;"/><text fill="#8B0000" font-family="Lato,sans-serif" font-size="12" font-weight="bold" lengthAdjust="spacing" textLength="40" x="77.43" y="319.8441">Update</text><text fill="#8B0000" font-family="Lato,sans-serif" font-size="12" font-style="italic" lengthAdjust="spacing" textLength="21" x="86.93" y="334.2442">fails</text></g><!--MD5=[cda5f9a819e769cf6bdd637224e7aab7]
link active to error--><g id="link_active_error"><path d="M98.25,277.07 C106.27,285.77 115.38,296.46 122.43,307 C134.06,324.4 144.4,345.77 151.51,361.9 " fill="none" id="active-to-error-1" style="stroke:#8B0000;stroke-width:1.0;stroke-dasharray:7.0,7.0;"/><polygon fill="#8B0000" points="153.61,366.72,153.7043,356.8716,151.6232,362.1317,146.3631,360.0505,153.61,366.72" style="stroke:#8B0000;stroke-width:1.0;"/><text fill="#8B0000" font-family="Lato,sans-serif" font-size="12" font-weight="bold" lengthAdjust="spacing" textLength="32" x="140.43" y="319.8441">Finish</text><text fill="#8B0000" font-family="Lato,sans-serif" font-size="12" font-style="italic" lengthAdjust="spacing" textLength="21" x="145.93" y="334.2442">fails</text></g><rect fill="#E8E8E8" height="55.2003" id="_legend" rx="4" ry="4" style="stroke:#000000;stroke-width:1.0;" width="248" x="39.465" y="420"/><text fill="#000000" font-family="Consolas,Menlo,monospace" font-size="12" lengthAdjust="spacing" text-decoration="line-through" textLength="21" x="45.465" y="437.3122">———</text><text fill="#000000" font-family="Lato,sans-serif" font-size="12" lengthAdjust="spacing" textLength="192" x="68.465" y="437.8441">Solid lines show successful operation</text><text fill="#8B0000" font-family="Consolas,Menlo,monospace" font-size="12" lengthAdjust="spacing" textLength="21" x="45.465" y="451.7123">---</text><text fill="#000000" font-family="Lato,sans-serif" font-size="12" lengthAdjust="spacing" textLength="156" x="68.465" y="452.2442">Dashed lines show error flows</text><text fill="#0000FF" font-family="Consolas,Menlo,monospace" font-size="12" lengthAdjust="spacing" textLength="21" x="45.465" y="466.1124">………</text><text fill="#000000" font-family="Lato,sans-serif" font-size="12" lengthAdjust="spacing" textLength="213" x="68.465" y="466.6443">Dotted lines show operation cancellation</text></g></svg>