<svg xmlns="http://www.w3.org/2000/svg" xmlns:xlink="http://www.w3.org/1999/xlink" contentStyleType="text/css" data-diagram-type="DESCRIPTION" height="232px" preserveAspectRatio="none" style="width:872px;height:232px;background:#FFFFFF55;" version="1.1" viewBox="0 0 872 232" width="872px" zoomAndPan="magnify"><defs><style type="text/css">@import url('https://fonts.googleapis.com/css?family=Roboto:400,100,100italic,300,300italic,400italic,500,500italic,700,700italic,900,900italic');</style></defs><g><rect fill="#FFFFFF" fill-opacity="0.33333" height="232" style="stroke:none;stroke-width:1;" width="872" x="0" y="0"/><!--cluster Internet--><g class="cluster" data-entity="Internet" data-source-line="14" data-uid="ent0003" id="cluster_Internet"><path d="M146.5023,34.1661 C150.0694,28.5606 154.8249,27.2545 158.7797,33.7735 C160.9085,29.3749 164.5968,28.3393 167.699,32.7928 C171.1062,26.7143 175.9846,26.9227 180.0865,32.0231 C182.3993,25.5685 187.151,25.534 191.5677,29.7618 C194.5659,23.4966 198.5394,23.3462 202.51,28.8583 C206.5936,24.7911 209.8025,25.7281 211.8971,30.8829 C215.5982,26.4248 219.8807,25.8137 222.9639,31.5535 C227.5585,25.434 232.4906,25.8802 235.7526,32.855 C239.2941,27.7753 242.6964,27.026 246.7214,32.345 C250.052,28.6753 255.0526,29.0688 256.7555,34.2007 C262.5799,35.7532 263.1624,39.1579 259.9932,43.7573 C266.2807,46.1447 268.0845,52.1578 261.8997,56.4227 C267.1572,58.3597 267.4512,61.4953 263.8677,65.3758 C267.9845,70.4344 267.1522,74.4228 260.5499,76.194 C265.4842,80.084 265.8848,83.5551 259.986,86.873 C263.6845,91.2981 262.3739,97.2837 256.1976,98.4879 C254.2099,103.9371 248.9409,105.6749 244.7253,101.0167 C242.0242,105.565 238.0181,106.4396 234.728,101.647 C231.4386,108.0176 227.5486,107.8934 222.6177,103.4926 C221.2636,108.8258 216.8018,110.772 212.5971,106.4515 C210.2262,111.4809 205.8718,113.0072 201.9974,108.0468 C197.1886,112.164 191.8751,112.3993 189.9077,105.0508 C186.1125,108.9312 182.6371,108.1725 180.5377,103.2464 C176.9473,108.0819 171.216,108.6907 168.8763,101.9829 C164.6236,106.4206 158.8239,104.9607 156.7389,99.3615 C152.7722,103.5722 149.5172,102.5406 146.7264,98.014 C141.5095,96.5586 139.5226,93.4236 143.3918,88.7113 C138.2523,85.9869 137.3421,82.4051 141.5365,78.0555 C134.5942,76.4605 131.8727,70.8453 137.3191,65.1894 C134.221,60.8358 135.7537,57.5154 140.7143,56.2083 C136.4095,51.7587 136.9664,46.1309 143.8469,44.7355 C140.3197,40.074 140.3828,36.4041 146.5023,34.1661" fill="#FFFFFF" style="stroke:#7D868C;stroke-width:1;"/><text fill="#000000" font-family="Roboto,sans-serif" font-size="11" font-weight="bold" lengthAdjust="spacing" textLength="38.9028" x="181.1286" y="47.7851">Internet</text></g><g class="cluster" data-entity="##6" data-source-line="15" data-uid="ent0007" id="cluster_##6"><rect fill="#FFFFFF" fill-opacity="0.56471" height="219.28" style="stroke:#8B0000;stroke-width:1;stroke-dasharray:7.0,7.0;" width="546" x="320.58" y="7"/><text fill="#000000" font-family="Roboto,sans-serif" font-size="11" font-style="italic" lengthAdjust="spacing" textLength="41.7764" x="572.6918" y="19.2051">&#171;Device&#187;</text></g><!--entity server--><g class="entity" data-entity="server" data-source-line="15" data-uid="ent0004" id="entity_server"><rect fill="#7D868C" height="34.0625" rx="4" ry="4" width="93.9453" x="153.61" y="55.58"/><text fill="#FFFFFF" font-family="Roboto,sans-serif" font-size="12" lengthAdjust="spacing" textLength="73.9453" x="163.61" y="76.7128">Update server</text></g><!--entity client--><g class="entity" data-entity="client" data-source-line="20" data-uid="ent0008" id="entity_client"><rect fill="#7D868C" height="34.0625" rx="4" ry="4" width="90.1133" x="336.53" y="55.58"/><text fill="#FFFFFF" font-family="Roboto,sans-serif" font-size="12" lengthAdjust="spacing" textLength="70.1133" x="346.53" y="76.7128">Update client</text></g><!--entity api--><g class="entity" data-entity="api" data-source-line="21" data-uid="ent0009" id="entity_api"><ellipse cx="470.58" cy="72.61" fill="#95D600" rx="8" ry="8" style="stroke:#7D868C;stroke-width:1;"/><text fill="#000000" font-family="Roboto,sans-serif" font-size="12" lengthAdjust="spacing" textLength="5.9531" x="440.246" y="100.7428">&#160;&#160;</text><text fill="#000000" font-family="Roboto,sans-serif" font-size="12" font-weight="bold" lengthAdjust="spacing" textLength="50.6602" x="446.1991" y="100.7428">Firmware</text><text fill="#000000" font-family="Roboto,sans-serif" font-size="12" font-weight="bold" lengthAdjust="spacing" textLength="60.668" x="440.246" y="114.8053">Update API</text></g><!--entity service--><g class="entity" data-entity="service" data-source-line="22" data-uid="ent0010" id="entity_service"><rect fill="#0091BD" height="34.0625" rx="4" ry="4" width="99.0781" x="515.04" y="55.58"/><text fill="#FFFFFF" font-family="Roboto,sans-serif" font-size="12" lengthAdjust="spacing" textLength="79.0781" x="525.04" y="76.7128">Update service</text></g><!--entity store--><g class="entity" data-entity="store" data-source-line="23" data-uid="ent0011" id="entity_store"><path d="M576.34,177.22 C576.34,167.22 626.5822,167.22 626.5822,167.22 C626.5822,167.22 676.8244,167.22 676.8244,177.22 L676.8244,200.2825 C676.8244,210.2825 626.5822,210.2825 626.5822,210.2825 C626.5822,210.2825 576.34,210.2825 576.34,200.2825 L576.34,177.22" fill="#E5ECEB" style="stroke:#7D868C;stroke-width:1;"/><path d="M576.34,177.22 C576.34,187.22 626.5822,187.22 626.5822,187.22 C626.5822,187.22 676.8244,187.22 676.8244,177.22" fill="none" style="stroke:#7D868C;stroke-width:1;"/><text fill="#000000" font-family="Roboto,sans-serif" font-size="12" lengthAdjust="spacing" textLength="80.4844" x="586.34" y="202.3528">Firmware store</text></g><!--entity bootloader--><g class="entity" data-entity="bootloader" data-source-line="24" data-uid="ent0012" id="entity_bootloader"><rect fill="#0091BD" height="34.0625" rx="4" ry="4" width="78.5762" x="649.29" y="55.58"/><text fill="#FFFFFF" font-family="Roboto,sans-serif" font-size="12" lengthAdjust="spacing" textLength="58.5762" x="659.29" y="76.7128">Bootloader</text></g><!--entity anchor--><g class="entity" data-entity="anchor" data-source-line="25" data-uid="ent0013" id="entity_anchor"><text fill="#000000" font-family="Roboto,sans-serif" font-size="30" lengthAdjust="spacing" textLength="22.3242" x="772.64" y="75.832">&#160;&#160;&#160;</text><path d="M809.7142,55.6563 C806.2642,55.6563 803.4642,58.4563 803.4642,61.9063 C803.4642,62.3063 803.4642,62.7063 803.5392,63.0813 L795.9642,70.6563 L795.9642,75.6563 L803.4642,75.6563 L803.4642,70.6563 L808.4642,70.6563 L808.4642,68.1563 L808.5392,68.0813 C808.9142,68.1563 809.3142,68.1563 809.7142,68.1563 C813.1642,68.1563 815.9642,65.3563 815.9642,61.9063 C815.9642,58.4563 813.1642,55.6563 809.7142,55.6563 M810.9642,58.1563 C812.3392,58.1563 813.4642,59.2813 813.4642,60.6563 C813.4642,62.0313 812.3392,63.1563 810.9642,63.1563 C809.5892,63.1563 808.4642,62.0313 808.4642,60.6563 C808.4642,59.2813 809.5892,58.1563 810.9642,58.1563" fill="#000000"/><text fill="#000000" font-family="Roboto,sans-serif" font-size="12" lengthAdjust="spacing" textLength="67.8926" x="772.64" y="94.2891">Trust anchor</text></g><!--entity creator--><g class="entity" data-entity="creator" data-source-line="13" data-uid="ent0002" id="entity_creator"><rect fill="#002B49" height="34.0625" rx="4" ry="4" width="111.166" x="7" y="55.58"/><text fill="#FFFFFF" font-family="Roboto,sans-serif" font-size="12" lengthAdjust="spacing" textLength="91.166" x="17" y="76.7128">Firmware creator</text></g><!--entity tls--><g class="entity" data-entity="tls" data-source-line="17" data-uid="ent0005" id="entity_tls"><ellipse cx="292.58" cy="72.61" fill="#E5ECEB" rx="8" ry="8" style="stroke:#7D868C;stroke-width:1;"/><text fill="#000000" font-family="Roboto,sans-serif" font-size="12" lengthAdjust="spacing" textLength="33.0527" x="273.7919" y="100.7428">MQTT</text><text fill="#000000" font-family="Roboto,sans-serif" font-size="12" lengthAdjust="spacing" textLength="30.0527" x="276.7685" y="114.8053">CoAP</text><text fill="#000000" font-family="Roboto,sans-serif" font-size="12" lengthAdjust="spacing" textLength="37.5762" x="273.7919" y="128.8678">HTTPS</text><text fill="#000000" font-family="Roboto,sans-serif" font-size="12" lengthAdjust="spacing" textLength="9.4922" x="285.6982" y="142.9303">...</text></g><!--entity drive--><g class="entity" data-entity="drive" data-source-line="28" data-uid="ent0014" id="entity_drive"><path d="M144.17,177.22 C144.17,167.22 197.588,167.22 197.588,167.22 C197.588,167.22 251.0059,167.22 251.0059,177.22 L251.0059,200.2825 C251.0059,210.2825 197.588,210.2825 197.588,210.2825 C197.588,210.2825 144.17,210.2825 144.17,200.2825 L144.17,177.22" fill="#E5ECEB" style="stroke:#7D868C;stroke-width:1;"/><path d="M144.17,177.22 C144.17,187.22 197.588,187.22 197.588,187.22 C197.588,187.22 251.0059,187.22 251.0059,177.22" fill="none" style="stroke:#7D868C;stroke-width:1;"/><text fill="#000000" font-family="Roboto,sans-serif" font-size="12" lengthAdjust="spacing" textLength="86.8359" x="154.17" y="202.3528">External storage</text></g><!--entity usb--><g class="entity" data-entity="usb" data-source-line="29" data-uid="ent0015" id="entity_usb"><ellipse cx="294.58" cy="188.75" fill="#E5ECEB" rx="8" ry="8" style="stroke:#7D868C;stroke-width:1;"/><text fill="#000000" font-family="Roboto,sans-serif" font-size="12" lengthAdjust="spacing" textLength="22.3828" x="283.3886" y="216.8828">USB</text></g><!--link creator to server--><g class="link" data-entity-1="creator" data-entity-2="server" data-source-line="31" data-uid="lnk16" id="link_creator_server"><path d="M118.65,72.61 C130.17,72.61 135.69,72.61 147.21,72.61" fill="none" id="creator-to-server" style="stroke:#000000;stroke-width:1;"/><polygon fill="#000000" points="153.21,72.61,144.21,68.61,148.21,72.61,144.21,76.61,153.21,72.61" style="stroke:#000000;stroke-width:1;"/></g><!--reverse link server to tls--><g class="link" data-entity-1="server" data-entity-2="tls" data-source-line="32" data-uid="lnk17" id="link_server_tls"><path d="M254.02,72.61 C265.74,72.61 271.46,72.61 283.18,72.61" fill="none" id="server-backto-tls" style="stroke:#000000;stroke-width:1;"/><polygon fill="#000000" points="248.02,72.61,257.02,76.61,253.02,72.61,257.02,68.61,248.02,72.61" style="stroke:#000000;stroke-width:1;"/></g><!--link tls to client--><g class="link" data-entity-1="tls" data-entity-2="client" data-source-line="33" data-uid="lnk18" id="link_tls_client"><path d="M301.97,72.61 C313.37,72.61 318.78,72.61 330.18,72.61" fill="none" id="tls-to-client" style="stroke:#000000;stroke-width:1;"/><polygon fill="#000000" points="336.18,72.61,327.18,68.61,331.18,72.61,327.18,76.61,336.18,72.61" style="stroke:#000000;stroke-width:1;"/></g><!--link client to api--><g class="link" data-entity-1="client" data-entity-2="api" data-source-line="34" data-uid="lnk19" id="link_client_api"><path d="M427.13,72.61 C438.56,72.61 449.99,72.61 461.42,72.61" fill="none" id="client-api" style="stroke:#000000;stroke-width:1;"/></g><!--link api to service--><g class="link" data-entity-1="api" data-entity-2="service" data-source-line="35" data-uid="lnk20" id="link_api_service"><path d="M479.76,72.61 C491.36,72.61 496.96,72.61 508.55,72.61" fill="none" id="api-to-service" style="stroke:#000000;stroke-width:1;"/><polygon fill="#000000" points="514.55,72.61,505.55,68.61,509.55,72.61,505.55,76.61,514.55,72.61" style="stroke:#000000;stroke-width:1;"/></g><!--link service to store--><g class="link" data-entity-1="service" data-entity-2="store" data-source-line="36" data-uid="lnk21" id="link_service_store"><path d="M573.47,89.96 C584.45,110.18 600.2954,139.358 612.3254,161.498" fill="none" id="service-to-store" style="stroke:#000000;stroke-width:1;"/><polygon fill="#000000" points="615.19,166.77,614.4078,156.9523,612.8028,162.3767,607.3784,160.7717,615.19,166.77" style="stroke:#000000;stroke-width:1;"/></g><!--link service to bootloader--><!--link bootloader to store--><g class="link" data-entity-1="bootloader" data-entity-2="store" data-source-line="38" data-uid="lnk23" id="link_bootloader_store"><path d="M679.7,89.96 C668.72,110.18 652.8746,139.358 640.8446,161.498" fill="none" id="bootloader-to-store" style="stroke:#000000;stroke-width:1;"/><polygon fill="#000000" points="637.98,166.77,645.7916,160.7717,640.3672,162.3767,638.7622,156.9523,637.98,166.77" style="stroke:#000000;stroke-width:1;"/></g><!--link bootloader to anchor--><g class="link" data-entity-1="bootloader" data-entity-2="anchor" data-source-line="39" data-uid="lnk24" id="link_bootloader_anchor"><path d="M728.22,72.61 C739.55,72.61 744.87,72.61 756.2,72.61" fill="none" id="bootloader-to-anchor" style="stroke:#000000;stroke-width:1;"/><polygon fill="#000000" points="762.2,72.61,753.2,68.61,757.2,72.61,753.2,76.61,762.2,72.61" style="stroke:#000000;stroke-width:1;"/></g><!--link server to drive--><!--link tls to usb--><!--reverse link drive to usb--><g class="link" data-entity-1="drive" data-entity-2="usb" data-source-line="43" data-uid="lnk27" id="link_drive_usb"><path d="M257.39,188.75 C268.64,188.75 273.89,188.75 285.13,188.75" fill="none" id="drive-backto-usb" style="stroke:#000000;stroke-width:1;"/><polygon fill="#000000" points="251.39,188.75,260.39,192.75,256.39,188.75,260.39,184.75,251.39,188.75" style="stroke:#000000;stroke-width:1;"/></g><!--link usb to client--><g class="link" data-entity-1="usb" data-entity-2="client" data-source-line="44" data-uid="lnk28" id="link_usb_client"><path d="M301.02,179.3 C315.4,160.43 346.6823,119.3915 365.4823,94.7315" fill="none" id="usb-to-client" style="stroke:#000000;stroke-width:1;"/><polygon fill="#000000" points="369.12,89.96,360.4825,94.6922,366.0886,93.9363,366.8445,99.5424,369.12,89.96" style="stroke:#000000;stroke-width:1;"/></g></g></svg>