<svg xmlns="http://www.w3.org/2000/svg" xmlns:xlink="http://www.w3.org/1999/xlink" contentStyleType="text/css" data-diagram-type="DESCRIPTION" height="245px" preserveAspectRatio="none" style="width:695px;height:245px;background:#FFFFFF55;" version="1.1" viewBox="0 0 695 245" width="695px" zoomAndPan="magnify"><defs><style type="text/css">@import url('https://fonts.googleapis.com/css?family=Roboto:400,100,100italic,300,300italic,400italic,500,500italic,700,700italic,900,900italic');</style></defs><g><rect fill="#FFFFFF" fill-opacity="0.33333" height="245" style="stroke:none;stroke-width:1;" width="695" x="0" y="0"/><!--cluster Device--><g class="cluster" data-entity="Device" data-source-line="17" data-uid="ent0003" id="cluster_Device"><rect fill="#FFFFFF" fill-opacity="0.56471" height="232.28" style="stroke:#8B0000;stroke-width:1;stroke-dasharray:7.0,7.0;" width="546" x="143.17" y="7"/><text fill="#000000" font-family="Roboto,sans-serif" font-size="11" font-style="italic" lengthAdjust="spacing" textLength="79.1377" x="376.6012" y="19.2051">&#171;trust boundary&#187;</text><text fill="#000000" font-family="Roboto,sans-serif" font-size="11" font-weight="bold" lengthAdjust="spacing" textLength="33.2417" x="399.5492" y="32.0957">Device</text></g><!--entity client--><g class="entity" data-entity="client" data-source-line="17" data-uid="ent0004" id="entity_client"><rect fill="#7D868C" height="48.125" rx="4" ry="4" width="90.1133" x="159.12" y="61.55"/><text fill="#FFFFFF" font-family="Roboto,sans-serif" font-size="12" font-style="italic" lengthAdjust="spacing" textLength="30.4453" x="188.954" y="82.6828">&#171;app&#187;</text><text fill="#FFFFFF" font-family="Roboto,sans-serif" font-size="12" lengthAdjust="spacing" textLength="70.1133" x="169.12" y="96.7453">Update client</text></g><!--entity api--><g class="entity" data-entity="api" data-source-line="18" data-uid="ent0005" id="entity_api"><ellipse cx="293.17" cy="85.61" fill="#95D600" rx="8" ry="8" style="stroke:#7D868C;stroke-width:1;"/><text fill="#000000" font-family="Roboto,sans-serif" font-size="12" lengthAdjust="spacing" textLength="5.9531" x="262.836" y="113.7428">&#160;&#160;</text><text fill="#000000" font-family="Roboto,sans-serif" font-size="12" font-weight="bold" lengthAdjust="spacing" textLength="50.6602" x="268.7891" y="113.7428">Firmware</text><text fill="#000000" font-family="Roboto,sans-serif" font-size="12" font-weight="bold" lengthAdjust="spacing" textLength="60.668" x="262.836" y="127.8053">Update API</text></g><!--entity service--><g class="entity" data-entity="service" data-source-line="19" data-uid="ent0006" id="entity_service"><rect fill="#0091BD" height="48.125" rx="4" ry="4" width="99.0781" x="337.64" y="61.55"/><text fill="#FFFFFF" font-family="Roboto,sans-serif" font-size="12" font-style="italic" lengthAdjust="spacing" textLength="42.9609" x="365.6986" y="82.6828">&#171;library&#187;</text><text fill="#FFFFFF" font-family="Roboto,sans-serif" font-size="12" lengthAdjust="spacing" textLength="79.0781" x="347.64" y="96.7453">Update service</text></g><!--entity store--><g class="entity" data-entity="store" data-source-line="20" data-uid="ent0007" id="entity_store"><path d="M398.93,190.22 C398.93,180.22 449.1722,180.22 449.1722,180.22 C449.1722,180.22 499.4144,180.22 499.4144,190.22 L499.4144,213.2825 C499.4144,223.2825 449.1722,223.2825 449.1722,223.2825 C449.1722,223.2825 398.93,223.2825 398.93,213.2825 L398.93,190.22" fill="#E5ECEB" style="stroke:#7D868C;stroke-width:1;"/><path d="M398.93,190.22 C398.93,200.22 449.1722,200.22 449.1722,200.22 C449.1722,200.22 499.4144,200.22 499.4144,190.22" fill="none" style="stroke:#7D868C;stroke-width:1;"/><text fill="#000000" font-family="Roboto,sans-serif" font-size="12" lengthAdjust="spacing" textLength="80.4844" x="408.93" y="215.3528">Firmware store</text></g><!--entity bootloader--><g class="entity" data-entity="bootloader" data-source-line="21" data-uid="ent0008" id="entity_bootloader"><rect fill="#0091BD" height="34.0625" rx="4" ry="4" width="78.5762" x="471.89" y="68.58"/><text fill="#FFFFFF" font-family="Roboto,sans-serif" font-size="12" lengthAdjust="spacing" textLength="58.5762" x="481.89" y="89.7128">Bootloader</text></g><!--entity anchor--><g class="entity" data-entity="anchor" data-source-line="22" data-uid="ent0009" id="entity_anchor"><text fill="#000000" font-family="Roboto,sans-serif" font-size="30" lengthAdjust="spacing" textLength="22.3242" x="595.23" y="88.832">&#160;&#160;&#160;</text><path d="M632.3042,68.6563 C628.8542,68.6563 626.0542,71.4563 626.0542,74.9063 C626.0542,75.3063 626.0542,75.7063 626.1292,76.0813 L618.5542,83.6563 L618.5542,88.6563 L626.0542,88.6563 L626.0542,83.6563 L631.0542,83.6563 L631.0542,81.1563 L631.1292,81.0813 C631.5042,81.1563 631.9042,81.1563 632.3042,81.1563 C635.7542,81.1563 638.5542,78.3563 638.5542,74.9063 C638.5542,71.4563 635.7542,68.6563 632.3042,68.6563 M633.5542,71.1563 C634.9292,71.1563 636.0542,72.2813 636.0542,73.6563 C636.0542,75.0313 634.9292,76.1563 633.5542,76.1563 C632.1792,76.1563 631.0542,75.0313 631.0542,73.6563 C631.0542,72.2813 632.1792,71.1563 633.5542,71.1563" fill="#000000"/><text fill="#000000" font-family="Roboto,sans-serif" font-size="12" lengthAdjust="spacing" textLength="67.8926" x="595.23" y="107.2891">Trust anchor</text></g><!--entity firmware--><g class="entity" data-entity="firmware" data-source-line="14" data-uid="ent0002" id="entity_firmware"><path d="M6,65.55 L6,105.675 A4,4 0 0 0 10,109.675 L120.3496,109.675 A4,4 0 0 0 124.3496,105.675 L124.3496,71.55 L114.3496,61.55 L10,61.55 A4,4 0 0 0 6,65.55" fill="#002B49" style="stroke:#181818;stroke-width:0.5;"/><path d="M114.3496,61.55 L114.3496,67.55 A4,4 0 0 0 118.3496,71.55 L124.3496,71.55" fill="#002B49" style="stroke:#181818;stroke-width:0.5;"/><text fill="#FFFFFF" font-family="Roboto,sans-serif" font-size="12" font-style="italic" lengthAdjust="spacing" textLength="34.0723" x="48.1387" y="82.6828">&#171;data&#187;</text><text fill="#FFFFFF" font-family="Roboto,sans-serif" font-size="12" lengthAdjust="spacing" textLength="98.3496" x="16" y="96.7453">Firmware package</text></g><!--link firmware to client--><g class="link" data-entity-1="firmware" data-entity-2="client" data-source-line="25" data-uid="lnk10" id="link_firmware_client"><path d="M124.63,85.61 C136.02,85.61 141.42,85.61 152.81,85.61" fill="none" id="firmware-to-client" style="stroke:#000000;stroke-width:1;"/><polygon fill="#000000" points="158.81,85.61,149.81,81.61,153.81,85.61,149.81,89.61,158.81,85.61" style="stroke:#000000;stroke-width:1;"/></g><!--link client to api--><g class="link" data-entity-1="client" data-entity-2="api" data-source-line="26" data-uid="lnk11" id="link_client_api"><path d="M249.72,85.61 C261.15,85.61 272.58,85.61 284.01,85.61" fill="none" id="client-api" style="stroke:#000000;stroke-width:1;"/></g><!--link api to service--><g class="link" data-entity-1="api" data-entity-2="service" data-source-line="27" data-uid="lnk12" id="link_api_service"><path d="M302.35,85.61 C313.95,85.61 319.55,85.61 331.14,85.61" fill="none" id="api-to-service" style="stroke:#000000;stroke-width:1;"/><polygon fill="#000000" points="337.14,85.61,328.14,81.61,332.14,85.61,328.14,89.61,337.14,85.61" style="stroke:#000000;stroke-width:1;"/></g><!--link service to store--><g class="link" data-entity-1="service" data-entity-2="store" data-source-line="28" data-uid="lnk13" id="link_service_store"><path d="M399.87,109.98 C411.07,130.59 424.3557,155.0678 435.0857,174.8178" fill="none" id="service-to-store" style="stroke:#000000;stroke-width:1;"/><polygon fill="#000000" points="437.95,180.09,437.1683,170.2722,435.5631,175.6965,430.1387,174.0913,437.95,180.09" style="stroke:#000000;stroke-width:1;"/></g><!--link service to bootloader--><!--link bootloader to store--><g class="link" data-entity-1="bootloader" data-entity-2="store" data-source-line="30" data-uid="lnk15" id="link_bootloader_store"><path d="M502.29,102.96 C491.31,123.18 475.4646,152.358 463.4346,174.498" fill="none" id="bootloader-to-store" style="stroke:#000000;stroke-width:1;"/><polygon fill="#000000" points="460.57,179.77,468.3816,173.7717,462.9572,175.3767,461.3522,169.9523,460.57,179.77" style="stroke:#000000;stroke-width:1;"/></g><!--link bootloader to anchor--><g class="link" data-entity-1="bootloader" data-entity-2="anchor" data-source-line="31" data-uid="lnk16" id="link_bootloader_anchor"><path d="M550.82,85.61 C562.14,85.61 567.47,85.61 578.79,85.61" fill="none" id="bootloader-to-anchor" style="stroke:#000000;stroke-width:1;"/><polygon fill="#000000" points="584.79,85.61,575.79,81.61,579.79,85.61,575.79,89.61,584.79,85.61" style="stroke:#000000;stroke-width:1;"/></g></g></svg>