<?xml version="1.0" encoding="UTF-8" standalone="no"?><svg xmlns="http://www.w3.org/2000/svg" xmlns:xlink="http://www.w3.org/1999/xlink" contentStyleType="text/css" height="324px" preserveAspectRatio="none" style="width:884px;height:324px;background:#FFFFFF;" version="1.1" viewBox="0 0 884 324" width="884px" zoomAndPan="magnify"><defs/><g><!--MD5=[eba421ac8e20ac42f3ee759fe6c4cf96]
cluster Device--><g id="cluster_Device"><rect fill="#FFFFFF" fill-opacity="0.56471" height="311" rx="2.5" ry="2.5" style="stroke:#8B0000;stroke-width:1.0;stroke-dasharray:7.0,7.0;" width="737" x="141" y="7"/><text fill="#000000" font-family="Lato,sans-serif" font-size="11" font-style="italic" lengthAdjust="spacing" textLength="79" x="470" y="19.8435">«trust boundary»</text><text fill="#000000" font-family="Lato,sans-serif" font-size="11" font-weight="bold" lengthAdjust="spacing" textLength="34" x="492.5" y="33.0271">Device</text></g><!--MD5=[6069d92203fd122b645a4862d9029d5e]
cluster rot--><g id="cluster_rot"><rect fill="#FFFFFF" fill-opacity="0.56471" height="234" rx="2.5" ry="2.5" style="stroke:#8B0000;stroke-width:1.0;stroke-dasharray:7.0,7.0;" width="368" x="486" y="60"/><text fill="#000000" font-family="Lato,sans-serif" font-size="11" font-style="italic" lengthAdjust="spacing" textLength="79" x="630.5" y="72.8435">«trust boundary»</text><text fill="#000000" font-family="Lato,sans-serif" font-size="11" font-weight="bold" lengthAdjust="spacing" textLength="110" x="615" y="86.0271">Platform Root of Trust</text></g><!--MD5=[4a65e84059005d12693a083370a06717]
entity client--><g id="elem_client"><rect fill="#7D868C" height="48.7842" rx="2.5" ry="2.5" style="stroke:#000000;stroke-width:0.0;" width="90" x="157" y="115.5"/><text fill="#FFFFFF" font-family="Lato,sans-serif" font-size="12" font-style="italic" lengthAdjust="spacing" textLength="28" x="188" y="137.3375">«app»</text><text fill="#FFFFFF" font-family="Lato,sans-serif" font-size="12" lengthAdjust="spacing" textLength="70" x="167" y="151.7296">Update client</text></g><!--MD5=[e2307af040e3f87d22824e7603ca28ec]
entity api--><g id="elem_api"><ellipse cx="291" cy="140" fill="#95D600" rx="8" ry="8" style="stroke:#7D868C;stroke-width:1.0;"/><text fill="#000000" font-family="Lato,sans-serif" font-size="12" font-weight="bold" lengthAdjust="spacing" textLength="51" x="263.5" y="168.8375">Firmware</text><text fill="#000000" font-family="Lato,sans-serif" font-size="12" font-weight="bold" lengthAdjust="spacing" textLength="63" x="259.5" y="183.2296">Update API</text></g><!--MD5=[e937783d151d78c9e87fd4c0d99f7485]
entity proxy--><g id="elem_proxy"><rect fill="#0091BD" height="48.7842" rx="2.5" ry="2.5" style="stroke:#000000;stroke-width:0.0;" width="131" x="335.5" y="115.5"/><text fill="#FFFFFF" font-family="Lato,sans-serif" font-size="12" font-style="italic" lengthAdjust="spacing" textLength="42" x="380" y="137.3375">«library»</text><text fill="#FFFFFF" font-family="Lato,sans-serif" font-size="12" lengthAdjust="spacing" textLength="111" x="345.5" y="151.7296">Update service proxy</text></g><!--MD5=[38bfa9dc6018363cafe15f923a4b8db9]
entity service--><g id="elem_service"><rect fill="#0091BD" height="48.7842" rx="2.5" ry="2.5" style="stroke:#000000;stroke-width:0.0;" width="98" x="502" y="115.5"/><text fill="#FFFFFF" font-family="Lato,sans-serif" font-size="12" font-style="italic" lengthAdjust="spacing" textLength="67" x="517.5" y="137.3375">«RoT service»</text><text fill="#FFFFFF" font-family="Lato,sans-serif" font-size="12" lengthAdjust="spacing" textLength="78" x="512" y="151.7296">Update service</text></g><!--MD5=[0686720d71d32ea68f81164171d509ce]
entity store--><g id="elem_store"><path d="M563,245 C563,235 613,235 613,235 C613,235 663,235 663,245 L663,268.3921 C663,278.3921 613,278.3921 613,278.3921 C613,278.3921 563,278.3921 563,268.3921 L563,245 " fill="#E5ECEB" style="stroke:#7D868C;stroke-width:1.0;"/><path d="M563,245 C563,255 613,255 613,255 C613,255 663,255 663,245 " fill="none" style="stroke:#7D868C;stroke-width:1.0;"/><text fill="#000000" font-family="Lato,sans-serif" font-size="12" lengthAdjust="spacing" textLength="80" x="573" y="270.8375">Firmware store</text></g><!--MD5=[f9240c011011a8880de7611d65d98344]
entity bootloader--><g id="elem_bootloader"><rect fill="#0091BD" height="34.3921" rx="2.5" ry="2.5" style="stroke:#000000;stroke-width:0.0;" width="80" x="635" y="123"/><text fill="#FFFFFF" font-family="Lato,sans-serif" font-size="12" lengthAdjust="spacing" textLength="60" x="645" y="144.8375">Bootloader</text></g><!--MD5=[a1d80d162cf33dbf0d7c31b4bedbc473]
entity anchor--><g id="elem_anchor"><text fill="#000000" font-family="Lato,sans-serif" font-size="30" lengthAdjust="spacing" textLength="24" x="760" y="144.6088">    </text><path d="M798.75,123.4985 C795.3,123.4985 792.5,126.2985 792.5,129.7485 C792.5,130.1485 792.5,130.5485 792.575,130.9235 L785,138.4985 L785,143.4985 L792.5,143.4985 L792.5,138.4985 L797.5,138.4985 L797.5,135.9985 L797.575,135.9235 C797.95,135.9985 798.35,135.9985 798.75,135.9985 C802.2,135.9985 805,133.1985 805,129.7485 C805,126.2985 802.2,123.4985 798.75,123.4985 M800,125.9985 C801.375,125.9985 802.5,127.1235 802.5,128.4985 C802.5,129.8735 801.375,130.9985 800,130.9985 C798.625,130.9985 797.5,129.8735 797.5,128.4985 C797.5,127.1235 798.625,125.9985 800,125.9985 " fill="#000000" style="stroke:;stroke-width:0.0;stroke-dasharray:;"/><text fill="#000000" font-family="Lato,sans-serif" font-size="12" lengthAdjust="spacing" textLength="68" x="760" y="162.836">Trust anchor</text></g><!--MD5=[58217b6c08e0cd02a707d278675c808a]
entity firmware--><g id="elem_firmware"><path d="M6,118 L6,161.7842 A2.5,2.5 0 0 0 8.5,164.2842 L119.5,164.2842 A2.5,2.5 0 0 0 122,161.7842 L122,125.5 L112,115.5 L8.5,115.5 A2.5,2.5 0 0 0 6,118 " fill="#002B49" style="stroke:#181818;stroke-width:0.5;"/><path d="M112,115.5 L112,123 A2.5,2.5 0 0 0 114.5,125.5 L122,125.5 " fill="#002B49" style="stroke:#181818;stroke-width:0.5;"/><text fill="#FFFFFF" font-family="Lato,sans-serif" font-size="12" font-style="italic" lengthAdjust="spacing" textLength="32" x="48" y="137.3375">«data»</text><text fill="#FFFFFF" font-family="Lato,sans-serif" font-size="12" lengthAdjust="spacing" textLength="96" x="16" y="151.7296">Firmware package</text></g><!--MD5=[28525ddf0b7d7e7b100a755743e0b912]
link firmware to client--><g id="link_firmware_client"><path d="M122.22,140 C132.04,140 141.86,140 151.68,140 " fill="none" id="firmware-to-client" style="stroke:#000000;stroke-width:1.0;"/><polygon fill="#000000" points="156.81,140,147.81,136,151.81,140,147.81,144,156.81,140" style="stroke:#000000;stroke-width:1.0;"/></g><!--MD5=[d4ad1d5275391ca8d3acb292d4b26dc5]
link client to api--><g id="link_client_api"><path d="M247.2,140 C258.72,140 270.24,140 281.76,140 " fill="none" id="client-api" style="stroke:#000000;stroke-width:1.0;"/></g><!--MD5=[6daa06fada2dc9f780bf47f2a46e36ca]
link api to proxy--><g id="link_api_proxy"><path d="M300.02,140 C309.99,140 319.95,140 329.92,140 " fill="none" id="api-to-proxy" style="stroke:#000000;stroke-width:1.0;"/><polygon fill="#000000" points="335.13,140,326.13,136,330.13,140,326.13,144,335.13,140" style="stroke:#000000;stroke-width:1.0;"/></g><!--MD5=[a262847240d20bcc3e4ec201de40efe7]
link proxy to service--><g id="link_proxy_service"><path d="M466.62,140 C476.64,140 486.65,140 496.66,140 " fill="none" id="proxy-to-service" style="stroke:#000000;stroke-width:1.0;"/><polygon fill="#000000" points="501.89,140,492.89,136,496.89,140,492.89,144,501.89,140" style="stroke:#000000;stroke-width:1.0;"/></g><!--MD5=[ed03d9e8372767f52fa40155923214fd]
link service to store--><g id="link_service_store"><path d="M563.85,164.72 C574.18,183.81 588.67,210.56 599.24,230.08 " fill="none" id="service-to-store" style="stroke:#000000;stroke-width:1.0;"/><polygon fill="#000000" points="601.83,234.88,601.0812,225.0596,599.4578,230.4786,594.0389,228.8552,601.83,234.88" style="stroke:#000000;stroke-width:1.0;"/></g><!--MD5=[b2c3693cc77b3eda2064568fff50fa14]
link service to bootloader--><!--MD5=[00736459551cbf36f84ac77ffa3c6a29]
link bootloader to store--><g id="link_bootloader_store"><path d="M666.12,157.41 C655.8,176.46 638.67,208.1 626.66,230.28 " fill="none" id="bootloader-to-store" style="stroke:#000000;stroke-width:1.0;"/><polygon fill="#000000" points="624.18,234.86,631.9944,228.8654,626.5692,230.4678,624.9669,225.0426,624.18,234.86" style="stroke:#000000;stroke-width:1.0;"/></g><!--MD5=[466027522076a6f4dd292722ab549de4]
link bootloader to anchor--><g id="link_bootloader_anchor"><path d="M715.44,140 C725.2,140 734.95,140 744.71,140 " fill="none" id="bootloader-to-anchor" style="stroke:#000000;stroke-width:1.0;"/><polygon fill="#000000" points="749.81,140,740.81,136,744.81,140,740.81,144,749.81,140" style="stroke:#000000;stroke-width:1.0;"/></g></g></svg>