<?xml version="1.0" encoding="UTF-8" standalone="no"?><svg xmlns="http://www.w3.org/2000/svg" xmlns:xlink="http://www.w3.org/1999/xlink" contentStyleType="text/css" height="324px" preserveAspectRatio="none" style="width:717px;height:324px;background:#FFFFFF;" version="1.1" viewBox="0 0 717 324" width="717px" zoomAndPan="magnify"><defs/><g><!--MD5=[eba421ac8e20ac42f3ee759fe6c4cf96]
cluster Device--><g id="cluster_Device"><rect fill="#FFFFFF" fill-opacity="0.56471" height="311" rx="2.5" ry="2.5" style="stroke:#8B0000;stroke-width:1.0;stroke-dasharray:7.0,7.0;" width="570" x="141" y="7"/><text fill="#000000" font-family="Lato,sans-serif" font-size="11" font-style="italic" lengthAdjust="spacing" textLength="79" x="386.5" y="19.8435">«trust boundary»</text><text fill="#000000" font-family="Lato,sans-serif" font-size="11" font-weight="bold" lengthAdjust="spacing" textLength="34" x="409" y="33.0271">Device</text></g><!--MD5=[aec96949da387e78ae944f502a40a29a]
cluster Platform Root of Trust--><g id="cluster_Platform Root of Trust"><rect fill="#FFFFFF" fill-opacity="0.56471" height="234" rx="2.5" ry="2.5" style="stroke:#8B0000;stroke-width:1.0;stroke-dasharray:7.0,7.0;" width="235" x="452" y="60"/><text fill="#000000" font-family="Lato,sans-serif" font-size="11" font-style="italic" lengthAdjust="spacing" textLength="79" x="530" y="72.8435">«trust boundary»</text><text fill="#000000" font-family="Lato,sans-serif" font-size="11" font-weight="bold" lengthAdjust="spacing" textLength="110" x="514.5" y="86.0271">Platform Root of Trust</text></g><!--MD5=[4a65e84059005d12693a083370a06717]
entity client--><g id="elem_client"><rect fill="#7D868C" height="48.7842" rx="2.5" ry="2.5" style="stroke:#000000;stroke-width:0.0;" width="90" x="157" y="115.5"/><text fill="#FFFFFF" font-family="Lato,sans-serif" font-size="12" font-style="italic" lengthAdjust="spacing" textLength="28" x="188" y="137.3375">«app»</text><text fill="#FFFFFF" font-family="Lato,sans-serif" font-size="12" lengthAdjust="spacing" textLength="70" x="167" y="151.7296">Update client</text></g><!--MD5=[e2307af040e3f87d22824e7603ca28ec]
entity api--><g id="elem_api"><ellipse cx="291" cy="140" fill="#95D600" rx="8" ry="8" style="stroke:#7D868C;stroke-width:1.0;"/><text fill="#000000" font-family="Lato,sans-serif" font-size="12" font-weight="bold" lengthAdjust="spacing" textLength="51" x="263.5" y="168.8375">Firmware</text><text fill="#000000" font-family="Lato,sans-serif" font-size="12" font-weight="bold" lengthAdjust="spacing" textLength="63" x="259.5" y="183.2296">Update API</text></g><!--MD5=[38bfa9dc6018363cafe15f923a4b8db9]
entity service--><g id="elem_service"><rect fill="#0091BD" height="48.7842" rx="2.5" ry="2.5" style="stroke:#000000;stroke-width:0.0;" width="98" x="335" y="115.5"/><text fill="#FFFFFF" font-family="Lato,sans-serif" font-size="12" font-style="italic" lengthAdjust="spacing" textLength="42" x="363" y="137.3375">«library»</text><text fill="#FFFFFF" font-family="Lato,sans-serif" font-size="12" lengthAdjust="spacing" textLength="78" x="345" y="151.7296">Update service</text></g><!--MD5=[c62c59b543ff1f88c4737e9582028a42]
entity second--><g id="elem_second"><path d="M342.5,245 C342.5,235 384,235 384,235 C384,235 425.5,235 425.5,245 L425.5,268.3921 C425.5,278.3921 384,278.3921 384,278.3921 C384,278.3921 342.5,278.3921 342.5,268.3921 L342.5,245 " fill="#E5ECEB" style="stroke:#7D868C;stroke-width:1.0;"/><path d="M342.5,245 C342.5,255 384,255 384,255 C384,255 425.5,255 425.5,245 " fill="none" style="stroke:#7D868C;stroke-width:1.0;"/><text fill="#000000" font-family="Lato,sans-serif" font-size="12" lengthAdjust="spacing" textLength="63" x="352.5" y="270.8375">Staging area</text></g><!--MD5=[110095e763913e85f0f81fcfead6a32d]
entity active--><g id="elem_active"><path d="M468.5,245 C468.5,235 510,235 510,235 C510,235 551.5,235 551.5,245 L551.5,268.3921 C551.5,278.3921 510,278.3921 510,278.3921 C510,278.3921 468.5,278.3921 468.5,268.3921 L468.5,245 " fill="#E5ECEB" style="stroke:#7D868C;stroke-width:1.0;"/><path d="M468.5,245 C468.5,255 510,255 510,255 C510,255 551.5,255 551.5,245 " fill="none" style="stroke:#7D868C;stroke-width:1.0;"/><text fill="#000000" font-family="Lato,sans-serif" font-size="12" font-style="italic" lengthAdjust="spacing" textLength="30" x="478.5" y="270.8375">active</text><text fill="#000000" font-family="Lato,sans-serif" font-size="12" lengthAdjust="spacing" textLength="31" x="510.5" y="270.8375">image</text></g><!--MD5=[f9240c011011a8880de7611d65d98344]
entity bootloader--><g id="elem_bootloader"><rect fill="#0091BD" height="34.3921" rx="2.5" ry="2.5" style="stroke:#000000;stroke-width:0.0;" width="80" x="468" y="123"/><text fill="#FFFFFF" font-family="Lato,sans-serif" font-size="12" lengthAdjust="spacing" textLength="60" x="478" y="144.8375">Bootloader</text></g><!--MD5=[a1d80d162cf33dbf0d7c31b4bedbc473]
entity anchor--><g id="elem_anchor"><text fill="#000000" font-family="Lato,sans-serif" font-size="30" lengthAdjust="spacing" textLength="24" x="593" y="144.6088">    </text><path d="M631.75,123.4985 C628.3,123.4985 625.5,126.2985 625.5,129.7485 C625.5,130.1485 625.5,130.5485 625.575,130.9235 L618,138.4985 L618,143.4985 L625.5,143.4985 L625.5,138.4985 L630.5,138.4985 L630.5,135.9985 L630.575,135.9235 C630.95,135.9985 631.35,135.9985 631.75,135.9985 C635.2,135.9985 638,133.1985 638,129.7485 C638,126.2985 635.2,123.4985 631.75,123.4985 M633,125.9985 C634.375,125.9985 635.5,127.1235 635.5,128.4985 C635.5,129.8735 634.375,130.9985 633,130.9985 C631.625,130.9985 630.5,129.8735 630.5,128.4985 C630.5,127.1235 631.625,125.9985 633,125.9985 " fill="#000000" style="stroke:;stroke-width:0.0;stroke-dasharray:;"/><text fill="#000000" font-family="Lato,sans-serif" font-size="12" lengthAdjust="spacing" textLength="68" x="593" y="162.836">Trust anchor</text></g><!--MD5=[58217b6c08e0cd02a707d278675c808a]
entity firmware--><g id="elem_firmware"><path d="M6,118 L6,161.7842 A2.5,2.5 0 0 0 8.5,164.2842 L119.5,164.2842 A2.5,2.5 0 0 0 122,161.7842 L122,125.5 L112,115.5 L8.5,115.5 A2.5,2.5 0 0 0 6,118 " fill="#002B49" style="stroke:#181818;stroke-width:0.5;"/><path d="M112,115.5 L112,123 A2.5,2.5 0 0 0 114.5,125.5 L122,125.5 " fill="#002B49" style="stroke:#181818;stroke-width:0.5;"/><text fill="#FFFFFF" font-family="Lato,sans-serif" font-size="12" font-style="italic" lengthAdjust="spacing" textLength="32" x="48" y="137.3375">«data»</text><text fill="#FFFFFF" font-family="Lato,sans-serif" font-size="12" lengthAdjust="spacing" textLength="96" x="16" y="151.7296">Firmware package</text></g><!--MD5=[28525ddf0b7d7e7b100a755743e0b912]
link firmware to client--><g id="link_firmware_client"><path d="M122.22,140 C132.04,140 141.86,140 151.68,140 " fill="none" id="firmware-to-client" style="stroke:#000000;stroke-width:1.0;"/><polygon fill="#000000" points="156.81,140,147.81,136,151.81,140,147.81,144,156.81,140" style="stroke:#000000;stroke-width:1.0;"/></g><!--MD5=[d4ad1d5275391ca8d3acb292d4b26dc5]
link client to api--><g id="link_client_api"><path d="M247.2,140 C258.72,140 270.24,140 281.76,140 " fill="none" id="client-api" style="stroke:#000000;stroke-width:1.0;"/></g><!--MD5=[1c521d26b07f62f1c62f7b4ad904b4ec]
link api to service--><g id="link_api_service"><path d="M300.08,140 C309.95,140 319.81,140 329.67,140 " fill="none" id="api-to-service" style="stroke:#000000;stroke-width:1.0;"/><polygon fill="#000000" points="334.83,140,325.83,136,329.83,140,325.83,144,334.83,140" style="stroke:#000000;stroke-width:1.0;"/></g><!--MD5=[bfe72d5cc759df5396c142cdb4fa035d]
link service to second--><g id="link_service_second"><path d="M384,164.72 C384,183.64 384,210.11 384,229.58 " fill="none" id="service-to-second" style="stroke:#000000;stroke-width:1.0;"/><polygon fill="#000000" points="384,234.88,388,225.88,384,229.88,380,225.88,384,234.88" style="stroke:#000000;stroke-width:1.0;"/></g><!--MD5=[89c2812f6adad1ec9c4b9b547b5bc345]
link bootloader to second--><g id="link_bootloader_second"><path d="M490.5,157.16 C469.59,176.47 434.4,208.96 410.23,231.28 " fill="none" id="bootloader-to-second" style="stroke:#000000;stroke-width:1.0;"/><polygon fill="#000000" points="406.45,234.77,415.7779,231.6092,410.1257,231.3804,410.3545,225.7282,406.45,234.77" style="stroke:#000000;stroke-width:1.0;"/></g><!--MD5=[d50e14b7662d3537dca93570019692f3]
link bootloader to active--><g id="link_bootloader_active"><path d="M508.29,157.41 C508.62,176.3 509.16,207.57 509.55,229.72 " fill="none" id="bootloader-to-active" style="stroke:#000000;stroke-width:1.0;"/><polygon fill="#000000" points="509.64,234.86,513.4851,225.7928,509.5543,229.8607,505.4863,225.9299,509.64,234.86" style="stroke:#000000;stroke-width:1.0;"/></g><!--MD5=[466027522076a6f4dd292722ab549de4]
link bootloader to anchor--><g id="link_bootloader_anchor"><path d="M548.44,140 C558.2,140 567.95,140 577.71,140 " fill="none" id="bootloader-to-anchor" style="stroke:#000000;stroke-width:1.0;"/><polygon fill="#000000" points="582.81,140,573.81,136,577.81,140,573.81,144,582.81,140" style="stroke:#000000;stroke-width:1.0;"/></g></g></svg>