<svg xmlns="http://www.w3.org/2000/svg" xmlns:xlink="http://www.w3.org/1999/xlink" contentStyleType="text/css" data-diagram-type="DESCRIPTION" height="321px" preserveAspectRatio="none" style="width:928px;height:321px;background:#FFFFFF55;" version="1.1" viewBox="0 0 928 321" width="928px" zoomAndPan="magnify"><defs><style type="text/css">@import url('https://fonts.googleapis.com/css?family=Roboto:400,100,100italic,300,300italic,400italic,500,500italic,700,700italic,900,900italic');</style></defs><g><rect fill="#FFFFFF" fill-opacity="0.33333" height="321" style="stroke:none;stroke-width:1;" width="928" x="0" y="0"/><!--cluster Device--><g class="cluster" data-entity="Device" data-source-line="17" data-uid="ent0003" id="cluster_Device"><rect fill="#FFFFFF" fill-opacity="0.56471" height="308.28" style="stroke:#8B0000;stroke-width:1;stroke-dasharray:7.0,7.0;" width="782" x="140.17" y="7"/><text fill="#000000" font-family="Roboto,sans-serif" font-size="11" font-style="italic" lengthAdjust="spacing" textLength="79.1377" x="491.6012" y="19.2051">&#171;trust boundary&#187;</text><text fill="#000000" font-family="Roboto,sans-serif" font-size="11" font-weight="bold" lengthAdjust="spacing" textLength="33.2417" x="514.5492" y="32.0957">Device</text></g><g class="cluster" data-entity="##4" data-source-line="27" data-uid="ent0005" id="cluster_##4"><rect fill="none" height="95.12" style="stroke:none;stroke-width:1;" width="342" x="164.17" y="82.55"/></g><!--cluster rot--><g class="cluster" data-entity="rot" data-source-line="17" data-uid="ent0009" id="cluster_rot"><rect fill="#FFFFFF" fill-opacity="0.56471" height="232.28" style="stroke:#8B0000;stroke-width:1;stroke-dasharray:7.0,7.0;" width="368" x="530.17" y="59"/><text fill="#000000" font-family="Roboto,sans-serif" font-size="11" font-style="italic" lengthAdjust="spacing" textLength="79.1377" x="674.6012" y="71.2051">&#171;trust boundary&#187;</text><text fill="#000000" font-family="Roboto,sans-serif" font-size="11" font-weight="bold" lengthAdjust="spacing" textLength="111.2246" x="658.5577" y="84.0957">Platform Root of Trust</text></g><!--entity client--><g class="entity" data-entity="client" data-source-line="18" data-uid="ent0006" id="entity_client"><rect fill="#7D868C" height="48.125" rx="4" ry="4" width="90.1133" x="180.12" y="113.55"/><text fill="#FFFFFF" font-family="Roboto,sans-serif" font-size="12" font-style="italic" lengthAdjust="spacing" textLength="30.4453" x="209.954" y="134.6828">&#171;app&#187;</text><text fill="#FFFFFF" font-family="Roboto,sans-serif" font-size="12" lengthAdjust="spacing" textLength="70.1133" x="190.12" y="148.7453">Update client</text></g><!--entity api--><g class="entity" data-entity="api" data-source-line="19" data-uid="ent0007" id="entity_api"><ellipse cx="314.17" cy="137.61" fill="#95D600" rx="8" ry="8" style="stroke:#7D868C;stroke-width:1;"/><text fill="#000000" font-family="Roboto,sans-serif" font-size="12" lengthAdjust="spacing" textLength="5.9531" x="283.836" y="165.7428">&#160;&#160;</text><text fill="#000000" font-family="Roboto,sans-serif" font-size="12" font-weight="bold" lengthAdjust="spacing" textLength="50.6602" x="289.7891" y="165.7428">Firmware</text><text fill="#000000" font-family="Roboto,sans-serif" font-size="12" font-weight="bold" lengthAdjust="spacing" textLength="60.668" x="283.836" y="179.8053">Update API</text></g><!--entity proxy--><g class="entity" data-entity="proxy" data-source-line="20" data-uid="ent0008" id="entity_proxy"><rect fill="#0091BD" height="48.125" rx="4" ry="4" width="131.334" x="358.51" y="113.55"/><text fill="#FFFFFF" font-family="Roboto,sans-serif" font-size="12" font-style="italic" lengthAdjust="spacing" textLength="42.9609" x="402.6965" y="134.6828">&#171;library&#187;</text><text fill="#FFFFFF" font-family="Roboto,sans-serif" font-size="12" lengthAdjust="spacing" textLength="111.334" x="368.51" y="148.7453">Update service proxy</text></g><!--entity service--><g class="entity" data-entity="service" data-source-line="23" data-uid="ent0010" id="entity_service"><rect fill="#0091BD" height="48.125" rx="4" ry="4" width="99.0781" x="546.64" y="113.55"/><text fill="#FFFFFF" font-family="Roboto,sans-serif" font-size="12" font-style="italic" lengthAdjust="spacing" textLength="71.584" x="560.3871" y="134.6828">&#171;RoT service&#187;</text><text fill="#FFFFFF" font-family="Roboto,sans-serif" font-size="12" lengthAdjust="spacing" textLength="79.0781" x="556.64" y="148.7453">Update service</text></g><!--entity store--><g class="entity" data-entity="store" data-source-line="24" data-uid="ent0011" id="entity_store"><path d="M607.93,242.22 C607.93,232.22 658.1722,232.22 658.1722,232.22 C658.1722,232.22 708.4144,232.22 708.4144,242.22 L708.4144,265.2825 C708.4144,275.2825 658.1722,275.2825 658.1722,275.2825 C658.1722,275.2825 607.93,275.2825 607.93,265.2825 L607.93,242.22" fill="#E5ECEB" style="stroke:#7D868C;stroke-width:1;"/><path d="M607.93,242.22 C607.93,252.22 658.1722,252.22 658.1722,252.22 C658.1722,252.22 708.4144,252.22 708.4144,242.22" fill="none" style="stroke:#7D868C;stroke-width:1;"/><text fill="#000000" font-family="Roboto,sans-serif" font-size="12" lengthAdjust="spacing" textLength="80.4844" x="617.93" y="267.3528">Firmware store</text></g><!--entity bootloader--><g class="entity" data-entity="bootloader" data-source-line="25" data-uid="ent0012" id="entity_bootloader"><rect fill="#0091BD" height="34.0625" rx="4" ry="4" width="78.5762" x="680.89" y="120.58"/><text fill="#FFFFFF" font-family="Roboto,sans-serif" font-size="12" lengthAdjust="spacing" textLength="58.5762" x="690.89" y="141.7128">Bootloader</text></g><!--entity anchor--><g class="entity" data-entity="anchor" data-source-line="26" data-uid="ent0013" id="entity_anchor"><text fill="#000000" font-family="Roboto,sans-serif" font-size="30" lengthAdjust="spacing" textLength="22.3242" x="804.23" y="140.832">&#160;&#160;&#160;</text><path d="M841.3042,120.6562 C837.8542,120.6562 835.0542,123.4562 835.0542,126.9062 C835.0542,127.3062 835.0542,127.7062 835.1292,128.0812 L827.5542,135.6562 L827.5542,140.6562 L835.0542,140.6562 L835.0542,135.6562 L840.0542,135.6562 L840.0542,133.1562 L840.1292,133.0812 C840.5042,133.1562 840.9042,133.1562 841.3042,133.1562 C844.7542,133.1562 847.5542,130.3562 847.5542,126.9062 C847.5542,123.4562 844.7542,120.6562 841.3042,120.6562 M842.5542,123.1562 C843.9292,123.1562 845.0542,124.2812 845.0542,125.6562 C845.0542,127.0312 843.9292,128.1562 842.5542,128.1562 C841.1792,128.1562 840.0542,127.0312 840.0542,125.6562 C840.0542,124.2812 841.1792,123.1562 842.5542,123.1562" fill="#000000"/><text fill="#000000" font-family="Roboto,sans-serif" font-size="12" lengthAdjust="spacing" textLength="67.8926" x="804.23" y="159.2891">Trust anchor</text></g><!--entity firmware--><g class="entity" data-entity="firmware" data-source-line="14" data-uid="ent0002" id="entity_firmware"><path d="M6,117.55 L6,157.675 A4,4 0 0 0 10,161.675 L120.3496,161.675 A4,4 0 0 0 124.3496,157.675 L124.3496,123.55 L114.3496,113.55 L10,113.55 A4,4 0 0 0 6,117.55" fill="#002B49" style="stroke:#181818;stroke-width:0.5;"/><path d="M114.3496,113.55 L114.3496,119.55 A4,4 0 0 0 118.3496,123.55 L124.3496,123.55" fill="#002B49" style="stroke:#181818;stroke-width:0.5;"/><text fill="#FFFFFF" font-family="Roboto,sans-serif" font-size="12" font-style="italic" lengthAdjust="spacing" textLength="34.0723" x="48.1387" y="134.6828">&#171;data&#187;</text><text fill="#FFFFFF" font-family="Roboto,sans-serif" font-size="12" lengthAdjust="spacing" textLength="98.3496" x="16" y="148.7453">Firmware package</text></g><!--link firmware to client--><g class="link" data-entity-1="firmware" data-entity-2="client" data-source-line="30" data-uid="lnk14" id="link_firmware_client"><path d="M124.55,137.61 C143.02,137.61 155.5,137.61 173.97,137.61" fill="none" id="firmware-to-client" style="stroke:#000000;stroke-width:1;"/><polygon fill="#000000" points="179.97,137.61,170.97,133.61,174.97,137.61,170.97,141.61,179.97,137.61" style="stroke:#000000;stroke-width:1;"/></g><!--link client to api--><g class="link" data-entity-1="client" data-entity-2="api" data-source-line="31" data-uid="lnk15" id="link_client_api"><path d="M270.72,137.61 C282.15,137.61 293.58,137.61 305.01,137.61" fill="none" id="client-api" style="stroke:#000000;stroke-width:1;"/></g><!--link api to proxy--><g class="link" data-entity-1="api" data-entity-2="proxy" data-source-line="32" data-uid="lnk16" id="link_api_proxy"><path d="M323.63,137.61 C335.15,137.61 340.67,137.61 352.19,137.61" fill="none" id="api-to-proxy" style="stroke:#000000;stroke-width:1;"/><polygon fill="#000000" points="358.19,137.61,349.19,133.61,353.19,137.61,349.19,141.61,358.19,137.61" style="stroke:#000000;stroke-width:1;"/></g><!--link proxy to service--><!--link proxy to service--><!--link proxy to service--><g class="link" data-entity-1="proxy" data-entity-2="service" data-source-line="35" data-uid="lnk19" id="link_proxy_service"><path d="M490.02,137.61 C508.82,137.61 521.62,137.61 540.41,137.61" fill="none" id="proxy-to-service" style="stroke:#000000;stroke-width:1;"/><polygon fill="#000000" points="546.41,137.61,537.41,133.61,541.41,137.61,537.41,141.61,546.41,137.61" style="stroke:#000000;stroke-width:1;"/></g><!--link proxy to service--><!--link proxy to service--><!--link proxy to service--><!--link service to store--><g class="link" data-entity-1="service" data-entity-2="store" data-source-line="39" data-uid="lnk23" id="link_service_store"><path d="M608.87,161.98 C620.07,182.59 633.3557,207.0678 644.0857,226.8178" fill="none" id="service-to-store" style="stroke:#000000;stroke-width:1;"/><polygon fill="#000000" points="646.95,232.09,646.1683,222.2722,644.5631,227.6965,639.1387,226.0913,646.95,232.09" style="stroke:#000000;stroke-width:1;"/></g><!--link service to bootloader--><!--link bootloader to store--><g class="link" data-entity-1="bootloader" data-entity-2="store" data-source-line="41" data-uid="lnk25" id="link_bootloader_store"><path d="M711.29,154.96 C700.31,175.18 684.4646,204.358 672.4346,226.498" fill="none" id="bootloader-to-store" style="stroke:#000000;stroke-width:1;"/><polygon fill="#000000" points="669.57,231.77,677.3816,225.7717,671.9572,227.3767,670.3522,221.9523,669.57,231.77" style="stroke:#000000;stroke-width:1;"/></g><!--link bootloader to anchor--><g class="link" data-entity-1="bootloader" data-entity-2="anchor" data-source-line="42" data-uid="lnk26" id="link_bootloader_anchor"><path d="M759.82,137.61 C771.14,137.61 776.47,137.61 787.79,137.61" fill="none" id="bootloader-to-anchor" style="stroke:#000000;stroke-width:1;"/><polygon fill="#000000" points="793.79,137.61,784.79,133.61,788.79,137.61,784.79,141.61,793.79,137.61" style="stroke:#000000;stroke-width:1;"/></g></g></svg>