<svg xmlns="http://www.w3.org/2000/svg" xmlns:xlink="http://www.w3.org/1999/xlink" contentStyleType="text/css" data-diagram-type="DESCRIPTION" height="321px" preserveAspectRatio="none" style="width:761px;height:321px;background:#FFFFFF55;" version="1.1" viewBox="0 0 761 321" width="761px" zoomAndPan="magnify"><defs><style type="text/css">@import url('https://fonts.googleapis.com/css?family=Roboto:400,100,100italic,300,300italic,400italic,500,500italic,700,700italic,900,900italic');</style></defs><g><rect fill="#FFFFFF" fill-opacity="0.33333" height="321" style="stroke:none;stroke-width:1;" width="761" x="0" y="0"/><!--cluster Device--><g class="cluster" data-entity="Device" data-source-line="17" data-uid="ent0003" id="cluster_Device"><rect fill="#FFFFFF" fill-opacity="0.56471" height="308.28" style="stroke:#8B0000;stroke-width:1;stroke-dasharray:7.0,7.0;" width="615" x="140.17" y="7"/><text fill="#000000" font-family="Roboto,sans-serif" font-size="11" font-style="italic" lengthAdjust="spacing" textLength="79.1377" x="408.1012" y="19.2051">&#171;trust boundary&#187;</text><text fill="#000000" font-family="Roboto,sans-serif" font-size="11" font-weight="bold" lengthAdjust="spacing" textLength="33.2417" x="431.0492" y="32.0957">Device</text></g><g class="cluster" data-entity="##4" data-source-line="27" data-uid="ent0005" id="cluster_##4"><rect fill="none" height="208.73" style="stroke:none;stroke-width:1;" width="310" x="164.17" y="82.55"/></g><!--cluster Platform Root of Trust--><g class="cluster" data-entity="Platform Root of Trust" data-source-line="17" data-uid="ent0010" id="cluster_Platform Root of Trust"><rect fill="#FFFFFF" fill-opacity="0.56471" height="232.28" style="stroke:#8B0000;stroke-width:1;stroke-dasharray:7.0,7.0;" width="233" x="498.17" y="59"/><text fill="#000000" font-family="Roboto,sans-serif" font-size="11" font-style="italic" lengthAdjust="spacing" textLength="79.1377" x="575.1012" y="71.2051">&#171;trust boundary&#187;</text><text fill="#000000" font-family="Roboto,sans-serif" font-size="11" font-weight="bold" lengthAdjust="spacing" textLength="111.2246" x="559.0577" y="84.0957">Platform Root of Trust</text></g><!--entity client--><g class="entity" data-entity="client" data-source-line="18" data-uid="ent0006" id="entity_client"><rect fill="#7D868C" height="48.125" rx="4" ry="4" width="90.1133" x="180.12" y="113.55"/><text fill="#FFFFFF" font-family="Roboto,sans-serif" font-size="12" font-style="italic" lengthAdjust="spacing" textLength="30.4453" x="209.954" y="134.6828">&#171;app&#187;</text><text fill="#FFFFFF" font-family="Roboto,sans-serif" font-size="12" lengthAdjust="spacing" textLength="70.1133" x="190.12" y="148.7453">Update client</text></g><!--entity api--><g class="entity" data-entity="api" data-source-line="19" data-uid="ent0007" id="entity_api"><ellipse cx="314.17" cy="137.61" fill="#95D600" rx="8" ry="8" style="stroke:#7D868C;stroke-width:1;"/><text fill="#000000" font-family="Roboto,sans-serif" font-size="12" lengthAdjust="spacing" textLength="5.9531" x="283.836" y="165.7428">&#160;&#160;</text><text fill="#000000" font-family="Roboto,sans-serif" font-size="12" font-weight="bold" lengthAdjust="spacing" textLength="50.6602" x="289.7891" y="165.7428">Firmware</text><text fill="#000000" font-family="Roboto,sans-serif" font-size="12" font-weight="bold" lengthAdjust="spacing" textLength="60.668" x="283.836" y="179.8053">Update API</text></g><!--entity service--><g class="entity" data-entity="service" data-source-line="20" data-uid="ent0008" id="entity_service"><rect fill="#0091BD" height="48.125" rx="4" ry="4" width="99.0781" x="358.64" y="113.55"/><text fill="#FFFFFF" font-family="Roboto,sans-serif" font-size="12" font-style="italic" lengthAdjust="spacing" textLength="42.9609" x="386.6986" y="134.6828">&#171;library&#187;</text><text fill="#FFFFFF" font-family="Roboto,sans-serif" font-size="12" lengthAdjust="spacing" textLength="79.0781" x="368.64" y="148.7453">Update service</text></g><!--entity second--><g class="entity" data-entity="second" data-source-line="21" data-uid="ent0009" id="entity_second"><path d="M364.64,242.22 C364.64,232.22 408.1703,232.22 408.1703,232.22 C408.1703,232.22 451.7005,232.22 451.7005,242.22 L451.7005,265.2825 C451.7005,275.2825 408.1703,275.2825 408.1703,275.2825 C408.1703,275.2825 364.64,275.2825 364.64,265.2825 L364.64,242.22" fill="#E5ECEB" style="stroke:#7D868C;stroke-width:1;"/><path d="M364.64,242.22 C364.64,252.22 408.1703,252.22 408.1703,252.22 C408.1703,252.22 451.7005,252.22 451.7005,242.22" fill="none" style="stroke:#7D868C;stroke-width:1;"/><text fill="#000000" font-family="Roboto,sans-serif" font-size="12" lengthAdjust="spacing" textLength="67.0605" x="374.64" y="267.3528">Staging area</text></g><!--entity active--><g class="entity" data-entity="active" data-source-line="24" data-uid="ent0011" id="entity_active"><path d="M513.71,242.22 C513.71,232.22 557.17,232.22 557.17,232.22 C557.17,232.22 600.6299,232.22 600.6299,242.22 L600.6299,265.2825 C600.6299,275.2825 557.17,275.2825 557.17,275.2825 C557.17,275.2825 513.71,275.2825 513.71,265.2825 L513.71,242.22" fill="#E5ECEB" style="stroke:#7D868C;stroke-width:1;"/><path d="M513.71,242.22 C513.71,252.22 557.17,252.22 557.17,252.22 C557.17,252.22 600.6299,252.22 600.6299,242.22" fill="none" style="stroke:#7D868C;stroke-width:1;"/><text fill="#000000" font-family="Roboto,sans-serif" font-size="12" font-style="italic" lengthAdjust="spacing" textLength="30.873" x="523.71" y="267.3528">active</text><text fill="#000000" font-family="Roboto,sans-serif" font-size="12" lengthAdjust="spacing" textLength="33.0703" x="557.5596" y="267.3528">image</text></g><!--entity bootloader--><g class="entity" data-entity="bootloader" data-source-line="25" data-uid="ent0012" id="entity_bootloader"><rect fill="#0091BD" height="34.0625" rx="4" ry="4" width="78.5762" x="513.89" y="120.58"/><text fill="#FFFFFF" font-family="Roboto,sans-serif" font-size="12" lengthAdjust="spacing" textLength="58.5762" x="523.89" y="141.7128">Bootloader</text></g><!--entity anchor--><g class="entity" data-entity="anchor" data-source-line="26" data-uid="ent0013" id="entity_anchor"><text fill="#000000" font-family="Roboto,sans-serif" font-size="30" lengthAdjust="spacing" textLength="22.3242" x="637.23" y="140.832">&#160;&#160;&#160;</text><path d="M674.3042,120.6562 C670.8542,120.6562 668.0542,123.4562 668.0542,126.9062 C668.0542,127.3062 668.0542,127.7062 668.1292,128.0812 L660.5542,135.6562 L660.5542,140.6562 L668.0542,140.6562 L668.0542,135.6562 L673.0542,135.6562 L673.0542,133.1562 L673.1292,133.0812 C673.5042,133.1562 673.9042,133.1562 674.3042,133.1562 C677.7542,133.1562 680.5542,130.3562 680.5542,126.9062 C680.5542,123.4562 677.7542,120.6562 674.3042,120.6562 M675.5542,123.1562 C676.9292,123.1562 678.0542,124.2812 678.0542,125.6562 C678.0542,127.0312 676.9292,128.1562 675.5542,128.1562 C674.1792,128.1562 673.0542,127.0312 673.0542,125.6562 C673.0542,124.2812 674.1792,123.1562 675.5542,123.1562" fill="#000000"/><text fill="#000000" font-family="Roboto,sans-serif" font-size="12" lengthAdjust="spacing" textLength="67.8926" x="637.23" y="159.2891">Trust anchor</text></g><!--entity firmware--><g class="entity" data-entity="firmware" data-source-line="14" data-uid="ent0002" id="entity_firmware"><path d="M6,117.55 L6,157.675 A4,4 0 0 0 10,161.675 L120.3496,161.675 A4,4 0 0 0 124.3496,157.675 L124.3496,123.55 L114.3496,113.55 L10,113.55 A4,4 0 0 0 6,117.55" fill="#002B49" style="stroke:#181818;stroke-width:0.5;"/><path d="M114.3496,113.55 L114.3496,119.55 A4,4 0 0 0 118.3496,123.55 L124.3496,123.55" fill="#002B49" style="stroke:#181818;stroke-width:0.5;"/><text fill="#FFFFFF" font-family="Roboto,sans-serif" font-size="12" font-style="italic" lengthAdjust="spacing" textLength="34.0723" x="48.1387" y="134.6828">&#171;data&#187;</text><text fill="#FFFFFF" font-family="Roboto,sans-serif" font-size="12" lengthAdjust="spacing" textLength="98.3496" x="16" y="148.7453">Firmware package</text></g><!--link firmware to client--><g class="link" data-entity-1="firmware" data-entity-2="client" data-source-line="30" data-uid="lnk14" id="link_firmware_client"><path d="M124.55,137.61 C143.02,137.61 155.5,137.61 173.97,137.61" fill="none" id="firmware-to-client" style="stroke:#000000;stroke-width:1;"/><polygon fill="#000000" points="179.97,137.61,170.97,133.61,174.97,137.61,170.97,141.61,179.97,137.61" style="stroke:#000000;stroke-width:1;"/></g><!--link client to api--><g class="link" data-entity-1="client" data-entity-2="api" data-source-line="31" data-uid="lnk15" id="link_client_api"><path d="M270.72,137.61 C282.15,137.61 293.58,137.61 305.01,137.61" fill="none" id="client-api" style="stroke:#000000;stroke-width:1;"/></g><!--link api to service--><g class="link" data-entity-1="api" data-entity-2="service" data-source-line="32" data-uid="lnk16" id="link_api_service"><path d="M323.35,137.61 C334.95,137.61 340.55,137.61 352.14,137.61" fill="none" id="api-to-service" style="stroke:#000000;stroke-width:1;"/><polygon fill="#000000" points="358.14,137.61,349.14,133.61,353.14,137.61,349.14,141.61,358.14,137.61" style="stroke:#000000;stroke-width:1;"/></g><!--link service to second--><g class="link" data-entity-1="service" data-entity-2="second" data-source-line="33" data-uid="lnk17" id="link_service_second"><path d="M408.17,161.98 C408.17,182.59 408.17,206.34 408.17,226.09" fill="none" id="service-to-second" style="stroke:#000000;stroke-width:1;"/><polygon fill="#000000" points="408.17,232.09,412.17,223.09,408.17,227.09,404.17,223.09,408.17,232.09" style="stroke:#000000;stroke-width:1;"/></g><!--link bootloader to second--><g class="link" data-entity-1="bootloader" data-entity-2="second" data-source-line="34" data-uid="lnk18" id="link_bootloader_second"><path d="M532.4,154.96 C506.71,175.18 467.6755,205.92 439.5355,228.06" fill="none" id="bootloader-to-second" style="stroke:#000000;stroke-width:1;"/><polygon fill="#000000" points="434.82,231.77,444.3666,229.3486,438.7496,228.6783,439.4198,223.0613,434.82,231.77" style="stroke:#000000;stroke-width:1;"/></g><!--link bootloader to active--><g class="link" data-entity-1="bootloader" data-entity-2="active" data-source-line="35" data-uid="lnk19" id="link_bootloader_active"><path d="M553.75,154.96 C554.46,175.18 555.4487,203.6337 556.2287,225.7737" fill="none" id="bootloader-to-active" style="stroke:#000000;stroke-width:1;"/><polygon fill="#000000" points="556.44,231.77,560.1206,222.6347,556.264,226.7731,552.1256,222.9164,556.44,231.77" style="stroke:#000000;stroke-width:1;"/></g><!--link bootloader to anchor--><g class="link" data-entity-1="bootloader" data-entity-2="anchor" data-source-line="36" data-uid="lnk20" id="link_bootloader_anchor"><path d="M592.82,137.61 C604.14,137.61 609.47,137.61 620.79,137.61" fill="none" id="bootloader-to-anchor" style="stroke:#000000;stroke-width:1;"/><polygon fill="#000000" points="626.79,137.61,617.79,133.61,621.79,137.61,617.79,141.61,626.79,137.61" style="stroke:#000000;stroke-width:1;"/></g></g></svg>