<?xml version="1.0" encoding="UTF-8" standalone="no"?><svg xmlns="http://www.w3.org/2000/svg" xmlns:xlink="http://www.w3.org/1999/xlink" contentStyleType="text/css" height="695px" preserveAspectRatio="none" style="width:458px;height:695px;background:#FFFFFF55;" version="1.1" viewBox="0 0 458 695" width="458px" zoomAndPan="magnify"><defs/><g><rect fill="#FFFFFF" height="40" rx="12.5" ry="12.5" style="stroke:#000000;stroke-width:1.0;" width="50" x="115.86" y="7"/><text fill="#000000" font-family="Lato,sans-serif" font-size="12" lengthAdjust="spacing" textLength="40" x="120.86" y="31.6414">READY</text><rect fill="#FFFFFF" height="40" rx="12.5" ry="12.5" style="stroke:#000000;stroke-width:1.0;" width="72" x="18.86" y="123"/><text fill="#000000" font-family="Lato,sans-serif" font-size="12" lengthAdjust="spacing" textLength="62" x="23.86" y="147.6414">WRITING †</text><rect fill="#FFFFFF" height="40" rx="12.5" ry="12.5" style="stroke:#000000;stroke-width:1.0;" width="79" x="15.36" y="239"/><text fill="#000000" font-family="Lato,sans-serif" font-size="12" lengthAdjust="spacing" textLength="69" x="20.36" y="263.6414">CANDIDATE</text><rect fill="#FFFFFF" height="40" rx="12.5" ry="12.5" style="stroke:#000000;stroke-width:1.0;" width="63" x="80.36" y="369"/><text fill="#000000" font-family="Lato,sans-serif" font-size="12" lengthAdjust="spacing" textLength="53" x="85.36" y="393.6414">STAGED *</text><rect fill="#FFFFFF" height="40" rx="12.5" ry="12.5" style="stroke:#000000;stroke-width:1.0;" width="60" x="183.86" y="239"/><text fill="#000000" font-family="Lato,sans-serif" font-size="12" lengthAdjust="spacing" textLength="50" x="188.86" y="263.6414">FAILED ‡</text><rect fill="#FFFFFF" height="40" rx="12.5" ry="12.5" style="stroke:#000000;stroke-width:1.0;" width="75" x="377.36" y="369"/><text fill="#000000" font-family="Lato,sans-serif" font-size="12" lengthAdjust="spacing" textLength="65" x="382.36" y="393.6414">REJECTED *</text><rect fill="#FFFFFF" height="40" rx="12.5" ry="12.5" style="stroke:#000000;stroke-width:1.0;" width="50" x="248.86" y="369"/><text fill="#000000" font-family="Lato,sans-serif" font-size="12" lengthAdjust="spacing" textLength="40" x="253.86" y="393.6414">TRIAL *</text><rect fill="#FFFFFF" height="40" rx="12.5" ry="12.5" style="stroke:#000000;stroke-width:1.0;" width="75" x="236.36" y="485"/><text fill="#000000" font-family="Lato,sans-serif" font-size="12" lengthAdjust="spacing" textLength="65" x="241.36" y="509.6414">UPDATED ‡</text><rect fill="#FFFFFF" height="40" rx="12.5" ry="12.5" style="stroke:#000000;stroke-width:1.0;" width="50" x="382.86" y="485"/><text fill="#000000" font-family="Lato,sans-serif" font-size="12" lengthAdjust="spacing" textLength="40" x="387.86" y="509.6414">READY</text><!--MD5=[28b091a9324bc665227cbdd5c64568c5]
link Start to Writing--><g id="link_Start_Writing"><path d="M126.46,47.08 C111.58,66.81 88.33,97.63 72.38,118.76 " fill="none" id="Start-to-Writing" style="stroke:#0000FF;stroke-width:1.0;"/><polygon fill="#0000FF" points="69.3,122.86,77.9109,118.0796,72.3091,118.8669,71.5219,113.265,69.3,122.86" style="stroke:#0000FF;stroke-width:1.0;"/><text fill="#000000" font-family="Consolas,Menlo,monospace" font-size="12" lengthAdjust="spacing" textLength="35" x="104.86" y="89.9883">start</text></g><!--MD5=[809ec20dfa1295c4642186e63aa045f8]
link Writing to Writing--><g id="link_Writing_Writing"><path d="M91.02,132.48 C109.39,130.94 125.86,134.45 125.86,143 C125.86,150.75 112.33,154.36 96.12,153.82 " fill="none" id="Writing-to-Writing" style="stroke:#0000FF;stroke-width:1.0;"/><polygon fill="#0000FF" points="91.02,153.52,99.7635,158.0533,96.011,153.8203,100.244,150.0678,91.02,153.52" style="stroke:#0000FF;stroke-width:1.0;"/><text fill="#000000" font-family="Consolas,Menlo,monospace" font-size="12" lengthAdjust="spacing" textLength="35" x="131.86" y="147.9883">write</text></g><!--MD5=[c452d5c1487cc0f2a16ec09e1ebeb498]
link Writing to Candidate--><g id="link_Writing_Candidate"><path d="M54.86,163.08 C54.86,182.48 54.86,212.61 54.86,233.7 " fill="none" id="Writing-to-Candidate" style="stroke:#0000FF;stroke-width:1.0;"/><polygon fill="#0000FF" points="54.86,238.86,58.86,229.86,54.86,233.86,50.86,229.86,54.86,238.86" style="stroke:#0000FF;stroke-width:1.0;"/><text fill="#000000" font-family="Consolas,Menlo,monospace" font-size="12" lengthAdjust="spacing" textLength="42" x="55.86" y="205.9883">finish</text></g><!--MD5=[1e580f2a5c35a06e4aed74591dc8f2d0]
link Writing to Failed--><g id="link_Writing_Failed"><path d="M81.47,163.08 C109.44,183.14 153.41,214.66 182.91,235.81 " fill="none" id="Writing-to-Failed" style="stroke:#0000FF;stroke-width:1.0;"/><polygon fill="#0000FF" points="187.16,238.86,182.1698,230.369,183.0942,235.9498,177.5134,236.8742,187.16,238.86" style="stroke:#0000FF;stroke-width:1.0;"/><text fill="#000000" font-family="Consolas,Menlo,monospace" font-size="12" lengthAdjust="spacing" textLength="42" x="145.86" y="205.9883">cancel</text></g><!--MD5=[86e4efad9860276429e6c81242466072]
link Candidate to Staged--><g id="link_Candidate_Staged"><path d="M35.3,279.1 C21,295.47 6,319.45 17.86,339 C30.31,359.54 54.51,371.87 75.23,379.03 " fill="none" id="Candidate-to-Staged" style="stroke:#8B0000;stroke-width:1.0;"/><polygon fill="#8B0000" points="80.14,380.65,72.8548,374.0224,75.3937,379.0774,70.3387,381.6164,80.14,380.65" style="stroke:#8B0000;stroke-width:1.0;"/><text fill="#000000" font-family="Consolas,Menlo,monospace" font-size="12" lengthAdjust="spacing" textLength="49" x="18.86" y="328.9883">install</text></g><!--MD5=[6e8b06a321fbf587dbbb055d0b4e0f9e]
link Candidate to Failed--><g id="link_Candidate_Failed"><path d="M94.57,259 C120.33,259 153.6,259 178.46,259 " fill="none" id="Candidate-to-Failed" style="stroke:#0000FF;stroke-width:1.0;"/><polygon fill="#0000FF" points="183.63,259,174.63,255,178.63,259,174.63,263,183.63,259" style="stroke:#0000FF;stroke-width:1.0;"/><text fill="#000000" font-family="Consolas,Menlo,monospace" font-size="12" lengthAdjust="spacing" textLength="42" x="118.11" y="252.9883">cancel</text></g><!--MD5=[d4d7d25629e036e3232ad0960ebf72b6]
link Staged to Trial--><g id="link_Staged_Trial"><path d="M143.48,389 C172.43,389 214.99,389 243.53,389 " fill="none" id="Staged-to-Trial" style="stroke:#8B0000;stroke-width:1.0;stroke-dasharray:7.0,7.0;"/><polygon fill="#8B0000" points="248.69,389,239.69,385,243.69,389,239.69,393,248.69,389" style="stroke:#8B0000;stroke-width:1.0;"/><text fill="#000000" font-family="Lato,sans-serif" font-size="12" font-weight="bold" lengthAdjust="spacing" textLength="37" x="176.11" y="368.8375">reboot</text><text fill="#000000" font-family="Lato,sans-serif" font-size="12" lengthAdjust="spacing" textLength="3" x="213.11" y="368.8375">:</text><text fill="#000000" font-family="Lato,sans-serif" font-size="12" font-style="italic" lengthAdjust="spacing" textLength="69" x="161.61" y="383.2296">install success</text></g><!--MD5=[6b849a9d54236769877241b12840d8d2]
reverse link Failed to Staged--><g id="link_Failed_Staged"><path d="M178.54,266.3 C154.39,272.65 124.09,285.08 108.86,309 C97.5,326.83 100.89,351.8 105.4,368.86 " fill="none" id="Failed-backto-Staged" style="stroke:#8B0000;stroke-width:1.0;stroke-dasharray:7.0,7.0;"/><polygon fill="#8B0000" points="183.59,265.04,173.8886,263.3423,178.7393,266.2527,175.8289,271.1034,183.59,265.04" style="stroke:#8B0000;stroke-width:1.0;"/><text fill="#000000" font-family="Lato,sans-serif" font-size="12" font-weight="bold" lengthAdjust="spacing" textLength="37" x="119.86" y="321.8375">reboot</text><text fill="#000000" font-family="Lato,sans-serif" font-size="12" lengthAdjust="spacing" textLength="3" x="156.86" y="321.8375">:</text><text fill="#000000" font-family="Lato,sans-serif" font-size="12" font-style="italic" lengthAdjust="spacing" textLength="60" x="109.86" y="336.2296">install failed</text></g><!--MD5=[6b849a9d54236769877241b12840d8d2]
reverse link Failed to Staged--><g id="link_Failed_Staged"><path d="M205.23,284.22 C198.58,300.76 188.26,322.56 174.86,339 C165.57,350.38 153.18,360.74 141.84,368.97 " fill="none" id="Failed-backto-Staged-1" style="stroke:#8B0000;stroke-width:1.0;"/><polygon fill="#8B0000" points="207.18,279.27,200.1674,286.1855,205.3526,283.9241,207.614,289.1093,207.18,279.27" style="stroke:#8B0000;stroke-width:1.0;"/><text fill="#000000" font-family="Consolas,Menlo,monospace" font-size="12" lengthAdjust="spacing" textLength="42" x="194.86" y="328.9883">reject</text></g><!--MD5=[4d415c9b773123c37ce42f12237de1fc]
link Trial to Updated--><g id="link_Trial_Updated"><path d="M273.86,409.08 C273.86,428.48 273.86,458.61 273.86,479.7 " fill="none" id="Trial-to-Updated" style="stroke:#8B0000;stroke-width:1.0;"/><polygon fill="#8B0000" points="273.86,484.86,277.86,475.86,273.86,479.86,269.86,475.86,273.86,484.86" style="stroke:#8B0000;stroke-width:1.0;"/><text fill="#000000" font-family="Consolas,Menlo,monospace" font-size="12" lengthAdjust="spacing" textLength="42" x="274.86" y="451.9883">accept</text></g><!--MD5=[71ab68107f7e180decc84935bd3705da]
reverse link Start to Failed--><g id="link_Start_Failed"><path d="M149.63,52.06 C161.14,84.04 181.67,142.39 196.86,193 C201.45,208.31 205.99,225.85 209.23,238.84 " fill="none" id="Start-backto-Failed" style="stroke:#0000FF;stroke-width:1.0;"/><polygon fill="#0000FF" points="147.86,47.16,147.1597,56.9839,149.5607,51.8619,154.6827,54.2628,147.86,47.16" style="stroke:#0000FF;stroke-width:1.0;"/><text fill="#000000" font-family="Consolas,Menlo,monospace" font-size="12" lengthAdjust="spacing" textLength="35" x="188.86" y="147.9883">clean</text></g><!--MD5=[0e454c04805c581ac20ac591376a7319]
link Trial to Rejected--><g id="link_Trial_Rejected"><path d="M299.06,389 C319.33,389 348.25,389 372.11,389 " fill="none" id="Trial-to-Rejected" style="stroke:#8B0000;stroke-width:1.0;"/><polygon fill="#8B0000" points="377.12,389,368.12,385,372.12,389,368.12,393,377.12,389" style="stroke:#8B0000;stroke-width:1.0;"/><text fill="#000000" font-family="Consolas,Menlo,monospace" font-size="12" lengthAdjust="spacing" textLength="42" x="317.11" y="382.9883">reject</text></g><!--MD5=[8730496acf69e4d93e6ebba34c197634]
reverse link Failed to Rejected--><g id="link_Failed_Rejected"><path d="M248.6,273.85 C269.36,282.73 295.87,295.16 317.86,309 C346.16,326.82 375.51,351.79 394.41,368.86 " fill="none" id="Failed-backto-Rejected" style="stroke:#8B0000;stroke-width:1.0;stroke-dasharray:7.0,7.0;"/><polygon fill="#8B0000" points="244,271.89,250.7156,279.0942,248.6009,273.8475,253.8476,271.7328,244,271.89" style="stroke:#8B0000;stroke-width:1.0;"/><text fill="#000000" font-family="Lato,sans-serif" font-size="12" font-weight="bold" lengthAdjust="spacing" textLength="37" x="357.86" y="321.8375">reboot</text><text fill="#000000" font-family="Lato,sans-serif" font-size="12" lengthAdjust="spacing" textLength="3" x="394.86" y="321.8375">:</text><text fill="#000000" font-family="Lato,sans-serif" font-size="12" font-style="italic" lengthAdjust="spacing" textLength="39" x="358.36" y="336.2296">rollback</text></g><!--MD5=[91632b8e9666b14c55229d961249920f]
link Trial to Failed--><g id="link_Trial_Failed"><path d="M273.15,368.87 C271.88,352.26 268.38,327.96 258.86,309 C254.05,299.42 246.81,290.35 239.54,282.67 " fill="none" id="Trial-to-Failed" style="stroke:#8B0000;stroke-width:1.0;stroke-dasharray:7.0,7.0;"/><polygon fill="#8B0000" points="235.97,279.02,239.3941,288.2545,239.4625,282.598,245.119,282.6665,235.97,279.02" style="stroke:#8B0000;stroke-width:1.0;"/><text fill="#000000" font-family="Lato,sans-serif" font-size="12" font-weight="bold" lengthAdjust="spacing" textLength="37" x="268.86" y="321.8375">reboot</text><text fill="#000000" font-family="Lato,sans-serif" font-size="12" lengthAdjust="spacing" textLength="3" x="305.86" y="321.8375">:</text><text fill="#000000" font-family="Lato,sans-serif" font-size="12" font-style="italic" lengthAdjust="spacing" textLength="39" x="269.36" y="336.2296">rollback</text></g><!--MD5=[43a8c4662c8a2715cf5aeba88f635b26]
link Updated to End--><g id="link_Updated_End"><path d="M311.54,505 C332.34,505 357.84,505 377.38,505 " fill="none" id="Updated-to-End" style="stroke:#0000FF;stroke-width:1.0;"/><polygon fill="#0000FF" points="382.72,505,373.72,501,377.72,505,373.72,509,382.72,505" style="stroke:#0000FF;stroke-width:1.0;"/><text fill="#000000" font-family="Consolas,Menlo,monospace" font-size="12" lengthAdjust="spacing" textLength="35" x="329.61" y="498.9883">clean</text></g><rect fill="#E8E8E8" height="141.5288" id="_legend" rx="7.5" ry="7.5" style="stroke:#000000;stroke-width:1.0;" width="307" x="68.68" y="538"/><text fill="#000000" font-family="Lato,sans-serif" font-size="12" font-weight="bold" lengthAdjust="spacing" textLength="60" x="74.68" y="555.8375">Transitions</text><text fill="#0000FF" font-family="Consolas,Menlo,monospace" font-size="12" lengthAdjust="spacing" text-decoration="line-through" textLength="21" x="74.68" y="570.7217">———</text><text fill="#000000" font-family="Lato,sans-serif" font-size="12" lengthAdjust="spacing" textLength="155" x="97.68" y="570.2296">Applies to a single component</text><text fill="#8B0000" font-family="Consolas,Menlo,monospace" font-size="12" lengthAdjust="spacing" text-decoration="line-through" textLength="21" x="74.68" y="585.1138">———</text><text fill="#000000" font-family="Lato,sans-serif" font-size="12" lengthAdjust="spacing" textLength="134" x="97.68" y="584.6217">Applies to all components</text><text fill="#000000" font-family="Consolas,Menlo,monospace" font-size="12" lengthAdjust="spacing" textLength="21" x="74.68" y="599.5059">---</text><text fill="#000000" font-family="Lato,sans-serif" font-size="12" lengthAdjust="spacing" textLength="80" x="97.68" y="599.0138">Transition over</text><text fill="#000000" font-family="Lato,sans-serif" font-size="12" font-weight="bold" lengthAdjust="spacing" textLength="37" x="179.68" y="599.0138">reboot</text><text fill="#000000" font-family="Lato,sans-serif" font-size="12" lengthAdjust="spacing" textLength="3" x="216.68" y="599.0138">.</text><text fill="#000000" font-family="Lato,sans-serif" font-size="12" lengthAdjust="spacing" textLength="2" x="74.68" y="613.4059"> </text><text fill="#000000" font-family="Lato,sans-serif" font-size="12" font-weight="bold" lengthAdjust="spacing" textLength="76" x="74.68" y="627.7979">Volatile states</text><text fill="#000000" font-family="Consolas,Menlo,monospace" font-size="12" lengthAdjust="spacing" textLength="7" x="81.68" y="642.6821">*</text><text fill="#000000" font-family="Lato,sans-serif" font-size="12" lengthAdjust="spacing" textLength="40" x="97.68" y="642.19">Always:</text><text fill="#000000" font-family="Lato,sans-serif" font-size="12" font-weight="bold" lengthAdjust="spacing" textLength="37" x="139.68" y="642.19">reboot</text><text fill="#000000" font-family="Lato,sans-serif" font-size="12" lengthAdjust="spacing" textLength="101" x="178.68" y="642.19">transition as shown</text><text fill="#000000" font-family="Consolas,Menlo,monospace" font-size="12" lengthAdjust="spacing" textLength="7" x="81.68" y="657.0742">†</text><text fill="#000000" font-family="Lato,sans-serif" font-size="12" lengthAdjust="spacing" textLength="50" x="97.68" y="656.5821">Optional:</text><text fill="#000000" font-family="Lato,sans-serif" font-size="12" font-weight="bold" lengthAdjust="spacing" textLength="37" x="149.68" y="656.5821">reboot</text><text fill="#000000" font-family="Lato,sans-serif" font-size="12" lengthAdjust="spacing" textLength="78" x="188.68" y="656.5821">is equivalent to</text><text fill="#000000" font-family="Consolas,Menlo,monospace" font-size="12" lengthAdjust="spacing" textLength="42" x="268.68" y="657.0742">cancel</text><text fill="#000000" font-family="Lato,sans-serif" font-size="12" lengthAdjust="spacing" textLength="20" x="312.68" y="656.5821">and</text><text fill="#000000" font-family="Consolas,Menlo,monospace" font-size="12" lengthAdjust="spacing" textLength="35" x="334.68" y="657.0742">clean</text><text fill="#000000" font-family="Consolas,Menlo,monospace" font-size="12" lengthAdjust="spacing" textLength="7" x="81.68" y="671.4663">‡</text><text fill="#000000" font-family="Lato,sans-serif" font-size="12" lengthAdjust="spacing" textLength="50" x="97.68" y="670.9742">Optional:</text><text fill="#000000" font-family="Lato,sans-serif" font-size="12" font-weight="bold" lengthAdjust="spacing" textLength="37" x="149.68" y="670.9742">reboot</text><text fill="#000000" font-family="Lato,sans-serif" font-size="12" lengthAdjust="spacing" textLength="78" x="188.68" y="670.9742">is equivalent to</text><text fill="#000000" font-family="Consolas,Menlo,monospace" font-size="12" lengthAdjust="spacing" textLength="35" x="268.68" y="671.4663">clean</text></g></svg>