<?xml version="1.0" encoding="UTF-8" standalone="no"?><svg xmlns="http://www.w3.org/2000/svg" xmlns:xlink="http://www.w3.org/1999/xlink" contentStyleType="text/css" height="550px" preserveAspectRatio="none" style="width:331px;height:550px;background:#FFFFFF55;" version="1.1" viewBox="0 0 331 550" width="331px" zoomAndPan="magnify"><defs/><g><rect fill="#FFFFFF" height="40" rx="12.5" ry="12.5" style="stroke:#000000;stroke-width:1.0;" width="50" x="160.75" y="7"/><text fill="#000000" font-family="Lato,sans-serif" font-size="12" lengthAdjust="spacing" textLength="40" x="165.75" y="31.6414">READY</text><rect fill="#FFFFFF" height="40" rx="12.5" ry="12.5" style="stroke:#000000;stroke-width:1.0;" width="72" x="63.75" y="123"/><text fill="#000000" font-family="Lato,sans-serif" font-size="12" lengthAdjust="spacing" textLength="62" x="68.75" y="147.6414">WRITING †</text><rect fill="#FFFFFF" height="40" rx="12.5" ry="12.5" style="stroke:#000000;stroke-width:1.0;" width="79" x="60.25" y="239"/><text fill="#000000" font-family="Lato,sans-serif" font-size="12" lengthAdjust="spacing" textLength="69" x="65.25" y="263.6414">CANDIDATE</text><rect fill="#FFFFFF" height="40" rx="12.5" ry="12.5" style="stroke:#000000;stroke-width:1.0;" width="60" x="217.75" y="239"/><text fill="#000000" font-family="Lato,sans-serif" font-size="12" lengthAdjust="spacing" textLength="50" x="222.75" y="263.6414">FAILED ‡</text><rect fill="#FFFFFF" height="40" rx="12.5" ry="12.5" style="stroke:#000000;stroke-width:1.0;" width="75" x="62.25" y="369"/><text fill="#000000" font-family="Lato,sans-serif" font-size="12" lengthAdjust="spacing" textLength="65" x="67.25" y="393.6414">UPDATED ‡</text><rect fill="#FFFFFF" height="40" rx="12.5" ry="12.5" style="stroke:#000000;stroke-width:1.0;" width="50" x="208.75" y="369"/><text fill="#000000" font-family="Lato,sans-serif" font-size="12" lengthAdjust="spacing" textLength="40" x="213.75" y="393.6414">READY</text><!--MD5=[28b091a9324bc665227cbdd5c64568c5]
link Start to Writing--><g id="link_Start_Writing"><path d="M171.36,47.08 C156.47,66.81 133.22,97.63 117.28,118.76 " fill="none" id="Start-to-Writing" style="stroke:#0000FF;stroke-width:1.0;"/><polygon fill="#0000FF" points="114.19,122.86,122.8091,118.0945,117.206,118.872,116.4284,113.2689,114.19,122.86" style="stroke:#0000FF;stroke-width:1.0;"/><text fill="#000000" font-family="Consolas,Menlo,monospace" font-size="12" lengthAdjust="spacing" textLength="35" x="149.75" y="89.9883">start</text></g><!--MD5=[809ec20dfa1295c4642186e63aa045f8]
link Writing to Writing--><g id="link_Writing_Writing"><path d="M135.92,132.48 C154.28,130.94 170.75,134.45 170.75,143 C170.75,150.75 157.23,154.36 141.02,153.82 " fill="none" id="Writing-to-Writing" style="stroke:#0000FF;stroke-width:1.0;"/><polygon fill="#0000FF" points="135.92,153.52,144.6764,158.0284,140.9118,153.8061,145.1341,150.0415,135.92,153.52" style="stroke:#0000FF;stroke-width:1.0;"/><text fill="#000000" font-family="Consolas,Menlo,monospace" font-size="12" lengthAdjust="spacing" textLength="35" x="176.75" y="147.9883">write</text></g><!--MD5=[c452d5c1487cc0f2a16ec09e1ebeb498]
link Writing to Candidate--><g id="link_Writing_Candidate"><path d="M99.75,163.08 C99.75,182.48 99.75,212.61 99.75,233.7 " fill="none" id="Writing-to-Candidate" style="stroke:#0000FF;stroke-width:1.0;"/><polygon fill="#0000FF" points="99.75,238.86,103.75,229.86,99.75,233.86,95.75,229.86,99.75,238.86" style="stroke:#0000FF;stroke-width:1.0;"/><text fill="#000000" font-family="Consolas,Menlo,monospace" font-size="12" lengthAdjust="spacing" textLength="42" x="100.75" y="205.9883">finish</text></g><!--MD5=[1e580f2a5c35a06e4aed74591dc8f2d0]
link Writing to Failed--><g id="link_Writing_Failed"><path d="M124.52,163.08 C150.45,183.06 191.15,214.4 218.61,235.55 " fill="none" id="Writing-to-Failed" style="stroke:#0000FF;stroke-width:1.0;"/><polygon fill="#0000FF" points="222.9,238.86,218.2037,230.2029,218.9363,235.8121,213.3271,236.5448,222.9,238.86" style="stroke:#0000FF;stroke-width:1.0;"/><text fill="#000000" font-family="Consolas,Menlo,monospace" font-size="12" lengthAdjust="spacing" textLength="42" x="183.75" y="205.9883">cancel</text></g><!--MD5=[39663e6301ccb4f092a8fe255e191b3e]
link Candidate to Updated--><g id="link_Candidate_Updated"><path d="M99.75,279.16 C99.75,301.69 99.75,339.11 99.75,363.67 " fill="none" id="Candidate-to-Updated" style="stroke:#8B0000;stroke-width:1.0;"/><polygon fill="#8B0000" points="99.75,368.71,103.75,359.71,99.75,363.71,95.75,359.71,99.75,368.71" style="stroke:#8B0000;stroke-width:1.0;"/><text fill="#000000" font-family="Consolas,Menlo,monospace" font-size="12" lengthAdjust="spacing" textLength="49" x="109.25" y="322.3296">install</text><text fill="#000000" font-family="Lato,sans-serif" font-size="12" lengthAdjust="spacing" textLength="3" x="158.25" y="321.8375">:</text><text fill="#000000" font-family="Lato,sans-serif" font-size="12" font-style="italic" lengthAdjust="spacing" textLength="69" x="100.75" y="336.2296">install success</text></g><!--MD5=[6e8b06a321fbf587dbbb055d0b4e0f9e]
link Candidate to Failed--><g id="link_Candidate_Failed"><path d="M139.41,259 C162.08,259 190.28,259 212.22,259 " fill="none" id="Candidate-to-Failed" style="stroke:#0000FF;stroke-width:1.0;"/><polygon fill="#0000FF" points="217.37,259,208.37,255,212.37,259,208.37,263,217.37,259" style="stroke:#0000FF;stroke-width:1.0;"/><text fill="#000000" font-family="Consolas,Menlo,monospace" font-size="12" lengthAdjust="spacing" textLength="42" x="157.5" y="252.9883">cancel</text></g><!--MD5=[71ab68107f7e180decc84935bd3705da]
reverse link Start to Failed--><g id="link_Start_Failed"><path d="M194.99,52.24 C202.06,71.29 211.75,98.61 218.75,123 C227.55,153.67 228.06,161.79 234.75,193 C238.05,208.42 241.54,225.95 244.08,238.92 " fill="none" id="Start-backto-Failed" style="stroke:#0000FF;stroke-width:1.0;"/><polygon fill="#0000FF" points="193.07,47.09,192.4585,56.9199,194.8131,51.7763,199.9566,54.1309,193.07,47.09" style="stroke:#0000FF;stroke-width:1.0;"/><text fill="#000000" font-family="Consolas,Menlo,monospace" font-size="12" lengthAdjust="spacing" textLength="35" x="228.75" y="147.9883">clean</text></g><!--MD5=[43a8c4662c8a2715cf5aeba88f635b26]
link Updated to End--><g id="link_Updated_End"><path d="M137.43,389 C158.24,389 183.74,389 203.27,389 " fill="none" id="Updated-to-End" style="stroke:#0000FF;stroke-width:1.0;"/><polygon fill="#0000FF" points="208.61,389,199.61,385,203.61,389,199.61,393,208.61,389" style="stroke:#0000FF;stroke-width:1.0;"/><text fill="#000000" font-family="Consolas,Menlo,monospace" font-size="12" lengthAdjust="spacing" textLength="35" x="155.5" y="382.9883">clean</text></g><rect fill="#E8E8E8" height="112.7446" id="_legend" rx="7.5" ry="7.5" style="stroke:#000000;stroke-width:1.0;" width="307" x="8" y="422"/><text fill="#000000" font-family="Lato,sans-serif" font-size="12" font-weight="bold" lengthAdjust="spacing" textLength="60" x="14" y="439.8375">Transitions</text><text fill="#0000FF" font-family="Consolas,Menlo,monospace" font-size="12" lengthAdjust="spacing" text-decoration="line-through" textLength="21" x="14" y="454.7217">———</text><text fill="#000000" font-family="Lato,sans-serif" font-size="12" lengthAdjust="spacing" textLength="155" x="37" y="454.2296">Applies to a single component</text><text fill="#8B0000" font-family="Consolas,Menlo,monospace" font-size="12" lengthAdjust="spacing" text-decoration="line-through" textLength="21" x="14" y="469.1138">———</text><text fill="#000000" font-family="Lato,sans-serif" font-size="12" lengthAdjust="spacing" textLength="134" x="37" y="468.6217">Applies to all components</text><text fill="#000000" font-family="Lato,sans-serif" font-size="12" lengthAdjust="spacing" textLength="2" x="14" y="483.0138"> </text><text fill="#000000" font-family="Lato,sans-serif" font-size="12" font-weight="bold" lengthAdjust="spacing" textLength="76" x="14" y="497.4059">Volatile states</text><text fill="#000000" font-family="Consolas,Menlo,monospace" font-size="12" lengthAdjust="spacing" textLength="7" x="21" y="512.29">†</text><text fill="#000000" font-family="Lato,sans-serif" font-size="12" lengthAdjust="spacing" textLength="50" x="37" y="511.7979">Optional:</text><text fill="#000000" font-family="Lato,sans-serif" font-size="12" font-weight="bold" lengthAdjust="spacing" textLength="37" x="89" y="511.7979">reboot</text><text fill="#000000" font-family="Lato,sans-serif" font-size="12" lengthAdjust="spacing" textLength="78" x="128" y="511.7979">is equivalent to</text><text fill="#000000" font-family="Consolas,Menlo,monospace" font-size="12" lengthAdjust="spacing" textLength="42" x="208" y="512.29">cancel</text><text fill="#000000" font-family="Lato,sans-serif" font-size="12" lengthAdjust="spacing" textLength="20" x="252" y="511.7979">and</text><text fill="#000000" font-family="Consolas,Menlo,monospace" font-size="12" lengthAdjust="spacing" textLength="35" x="274" y="512.29">clean</text><text fill="#000000" font-family="Consolas,Menlo,monospace" font-size="12" lengthAdjust="spacing" textLength="7" x="21" y="526.6821">‡</text><text fill="#000000" font-family="Lato,sans-serif" font-size="12" lengthAdjust="spacing" textLength="50" x="37" y="526.19">Optional:</text><text fill="#000000" font-family="Lato,sans-serif" font-size="12" font-weight="bold" lengthAdjust="spacing" textLength="37" x="89" y="526.19">reboot</text><text fill="#000000" font-family="Lato,sans-serif" font-size="12" lengthAdjust="spacing" textLength="78" x="128" y="526.19">is equivalent to</text><text fill="#000000" font-family="Consolas,Menlo,monospace" font-size="12" lengthAdjust="spacing" textLength="35" x="208" y="526.6821">clean</text></g></svg>