<svg xmlns="http://www.w3.org/2000/svg" xmlns:xlink="http://www.w3.org/1999/xlink" contentStyleType="text/css" data-diagram-type="DESCRIPTION" height="324px" preserveAspectRatio="none" style="width:756px;height:324px;background:#FFFFFF55;" version="1.1" viewBox="0 0 756 324" width="756px" zoomAndPan="magnify"><defs/><g><rect fill="#FFFFFF" fill-opacity="0.33333" height="324" style="stroke:none;stroke-width:1;" width="756" x="0" y="0"/><!--cluster Device--><g class="cluster" data-entity="Device" data-source-line="16" data-uid="ent0003" id="cluster_Device"><rect fill="#FFFFFF" fill-opacity="0.56471" height="311.8" style="stroke:#8B0000;stroke-width:1;stroke-dasharray:7.0,7.0;" width="612" x="138.06" y="7"/><text fill="#000000" font-family="Lato,sans-serif" font-size="11" font-style="italic" lengthAdjust="spacing" textLength="76.6865" x="405.7168" y="19.857">&#171;trust boundary&#187;</text><text fill="#000000" font-family="Lato,sans-serif" font-size="11" font-weight="bold" lengthAdjust="spacing" textLength="34.0175" x="427.0512" y="33.057">Device</text></g><g class="cluster" data-entity="##4" data-source-line="26" data-uid="ent0005" id="cluster_##4"><rect fill="none" height="211" style="stroke:none;stroke-width:1;" width="308" x="162.06" y="83.8"/></g><!--cluster Platform Root of Trust--><g class="cluster" data-entity="Platform Root of Trust" data-source-line="16" data-uid="ent0010" id="cluster_Platform Root of Trust"><rect fill="#FFFFFF" fill-opacity="0.56471" height="234.8" style="stroke:#8B0000;stroke-width:1;stroke-dasharray:7.0,7.0;" width="232" x="494.06" y="60"/><text fill="#000000" font-family="Lato,sans-serif" font-size="11" font-style="italic" lengthAdjust="spacing" textLength="76.6865" x="571.7168" y="72.857">&#171;trust boundary&#187;</text><text fill="#000000" font-family="Lato,sans-serif" font-size="11" font-weight="bold" lengthAdjust="spacing" textLength="110.715" x="554.7025" y="86.057">Platform Root of Trust</text></g><!--entity client--><g class="entity" data-entity="client" data-source-line="18" data-uid="ent0006" id="entity_client"><rect fill="#7D868C" height="48.8" rx="4" ry="4" width="90.722" x="177.7" y="115.8"/><text fill="#FFFFFF" font-family="Lato,sans-serif" font-size="12" font-style="italic" lengthAdjust="spacing" textLength="28.278" x="208.922" y="137.644">&#171;app&#187;</text><text fill="#FFFFFF" font-family="Lato,sans-serif" font-size="12" lengthAdjust="spacing" textLength="70.722" x="187.7" y="152.044">Update client</text></g><!--entity api--><g class="entity" data-entity="api" data-source-line="19" data-uid="ent0007" id="entity_api"><ellipse cx="312.06" cy="140.2" fill="#95D600" rx="8" ry="8" style="stroke:#7D868C;stroke-width:1;"/><text fill="#000000" font-family="Lato,sans-serif" font-size="12" lengthAdjust="spacing" textLength="6.144" x="281.193" y="169.044">&#160;&#160;</text><text fill="#000000" font-family="Lato,sans-serif" font-size="12" font-weight="bold" lengthAdjust="spacing" textLength="50.97" x="287.337" y="169.044">Firmware</text><text fill="#000000" font-family="Lato,sans-serif" font-size="12" font-weight="bold" lengthAdjust="spacing" textLength="61.734" x="281.193" y="183.444">Update API</text></g><!--entity service--><g class="entity" data-entity="service" data-source-line="20" data-uid="ent0008" id="entity_service"><rect fill="#0091BD" height="48.8" rx="4" ry="4" width="98.984" x="355.57" y="115.8"/><text fill="#FFFFFF" font-family="Lato,sans-serif" font-size="12" font-style="italic" lengthAdjust="spacing" textLength="41.358" x="384.383" y="137.644">&#171;library&#187;</text><text fill="#FFFFFF" font-family="Lato,sans-serif" font-size="12" lengthAdjust="spacing" textLength="78.984" x="365.57" y="152.044">Update service</text></g><!--entity second--><g class="entity" data-entity="second" data-source-line="21" data-uid="ent0009" id="entity_second"><path d="M362.8,245.4 C362.8,235.4 405.068,235.4 405.068,235.4 C405.068,235.4 447.336,235.4 447.336,245.4 L447.336,268.8 C447.336,278.8 405.068,278.8 405.068,278.8 C405.068,278.8 362.8,278.8 362.8,268.8 L362.8,245.4" fill="#E5ECEB" style="stroke:#7D868C;stroke-width:1;"/><path d="M362.8,245.4 C362.8,255.4 405.068,255.4 405.068,255.4 C405.068,255.4 447.336,255.4 447.336,245.4" fill="none" style="stroke:#7D868C;stroke-width:1;"/><text fill="#000000" font-family="Lato,sans-serif" font-size="12" lengthAdjust="spacing" textLength="64.536" x="372.8" y="271.244">Staging area</text></g><!--entity active--><g class="entity" data-entity="active" data-source-line="24" data-uid="ent0011" id="entity_active"><path d="M509.84,245.4 C509.84,235.4 552.066,235.4 552.066,235.4 C552.066,235.4 594.292,235.4 594.292,245.4 L594.292,268.8 C594.292,278.8 552.066,278.8 552.066,278.8 C552.066,278.8 509.84,278.8 509.84,268.8 L509.84,245.4" fill="#E5ECEB" style="stroke:#7D868C;stroke-width:1;"/><path d="M509.84,245.4 C509.84,255.4 552.066,255.4 552.066,255.4 C552.066,255.4 594.292,255.4 594.292,245.4" fill="none" style="stroke:#7D868C;stroke-width:1;"/><text fill="#000000" font-family="Lato,sans-serif" font-size="12" font-style="italic" lengthAdjust="spacing" textLength="30.09" x="519.84" y="271.244">active</text><text fill="#000000" font-family="Lato,sans-serif" font-size="12" lengthAdjust="spacing" textLength="31.29" x="553.002" y="271.244">image</text></g><!--entity bootloader--><g class="entity" data-entity="bootloader" data-source-line="25" data-uid="ent0012" id="entity_bootloader"><rect fill="#0091BD" height="34.4" rx="4" ry="4" width="78.692" x="509.72" y="123"/><text fill="#FFFFFF" font-family="Lato,sans-serif" font-size="12" lengthAdjust="spacing" textLength="58.692" x="519.72" y="144.844">Bootloader</text></g><!--entity anchor--><g class="entity" data-entity="anchor" data-source-line="26" data-uid="ent0013" id="entity_anchor"><text fill="#000000" font-family="Lato,sans-serif" font-size="30" lengthAdjust="spacing" textLength="23.04" x="633.58" y="144.61">&#160;&#160;&#160;</text><path d="M671.37,123.5 C667.92,123.5 665.12,126.3 665.12,129.75 C665.12,130.15 665.12,130.55 665.195,130.925 L657.62,138.5 L657.62,143.5 L665.12,143.5 L665.12,138.5 L670.12,138.5 L670.12,136 L670.195,135.925 C670.57,136 670.97,136 671.37,136 C674.82,136 677.62,133.2 677.62,129.75 C677.62,126.3 674.82,123.5 671.37,123.5 M672.62,126 C673.995,126 675.12,127.125 675.12,128.5 C675.12,129.875 673.995,131 672.62,131 C671.245,131 670.12,129.875 670.12,128.5 C670.12,127.125 671.245,126 672.62,126" fill="#000000"/><text fill="#000000" font-family="Lato,sans-serif" font-size="12" lengthAdjust="spacing" textLength="66.972" x="633.58" y="162.844">Trust anchor</text></g><!--entity firmware--><g class="entity" data-entity="firmware" data-source-line="14" data-uid="ent0002" id="entity_firmware"><path d="M6,119.8 L6,160.6 A4,4 0 0 0 10,164.6 L118.126,164.6 A4,4 0 0 0 122.126,160.6 L122.126,125.8 L112.126,115.8 L10,115.8 A4,4 0 0 0 6,119.8" fill="#002B49" style="stroke:#181818;stroke-width:0.5;"/><path d="M112.126,115.8 L112.126,121.8 A4,4 0 0 0 116.126,125.8 L122.126,125.8" fill="#002B49" style="stroke:#181818;stroke-width:0.5;"/><text fill="#FFFFFF" font-family="Lato,sans-serif" font-size="12" font-style="italic" lengthAdjust="spacing" textLength="32.328" x="47.899" y="137.644">&#171;data&#187;</text><text fill="#FFFFFF" font-family="Lato,sans-serif" font-size="12" lengthAdjust="spacing" textLength="96.126" x="16" y="152.044">Firmware package</text></g><!--link firmware to client--><g class="link" data-entity-1="firmware" data-entity-2="client" data-source-line="30" data-uid="lnk14" id="link_firmware_client"><path d="M122.45,140.2 C140.79,140.2 153.13,140.2 171.47,140.2" fill="none" id="firmware-to-client" style="stroke:#000000;stroke-width:1;"/><polygon fill="#000000" points="177.47,140.2,168.47,136.2,172.47,140.2,168.47,144.2,177.47,140.2" style="stroke:#000000;stroke-width:1;"/></g><!--link client to api--><g class="link" data-entity-1="client" data-entity-2="api" data-source-line="31" data-uid="lnk15" id="link_client_api"><path d="M268.61,140.2 C280.04,140.2 291.47,140.2 302.9,140.2" fill="none" id="client-api" style="stroke:#000000;stroke-width:1;"/></g><!--link api to service--><g class="link" data-entity-1="api" data-entity-2="service" data-source-line="32" data-uid="lnk16" id="link_api_service"><path d="M321.51,140.2 C332.71,140.2 337.92,140.2 349.13,140.2" fill="none" id="api-to-service" style="stroke:#000000;stroke-width:1;"/><polygon fill="#000000" points="355.13,140.2,346.13,136.2,350.13,140.2,346.13,144.2,355.13,140.2" style="stroke:#000000;stroke-width:1;"/></g><!--link service to second--><g class="link" data-entity-1="service" data-entity-2="second" data-source-line="33" data-uid="lnk17" id="link_service_second"><path d="M405.06,165.01 C405.06,185.65 405.06,209.23 405.06,229.03" fill="none" id="service-to-second" style="stroke:#000000;stroke-width:1;"/><polygon fill="#000000" points="405.06,235.03,409.06,226.03,405.06,230.03,401.06,226.03,405.06,235.03" style="stroke:#000000;stroke-width:1;"/></g><!--link bootloader to second--><g class="link" data-entity-1="bootloader" data-entity-2="second" data-source-line="34" data-uid="lnk18" id="link_bootloader_second"><path d="M528.43,157.66 C502.92,178.02 464.1603,208.9482 436.2203,231.2382" fill="none" id="bootloader-to-second" style="stroke:#000000;stroke-width:1;"/><polygon fill="#000000" points="431.53,234.98,441.06,232.4941,435.4386,231.8618,436.0709,226.2404,431.53,234.98" style="stroke:#000000;stroke-width:1;"/></g><!--link bootloader to active--><g class="link" data-entity-1="bootloader" data-entity-2="active" data-source-line="35" data-uid="lnk19" id="link_bootloader_active"><path d="M549.49,157.66 C550.02,178.02 550.7739,206.692 551.3539,228.982" fill="none" id="bootloader-to-active" style="stroke:#000000;stroke-width:1;"/><polygon fill="#000000" points="551.51,234.98,555.2745,225.879,551.3799,229.9817,547.2772,226.0871,551.51,234.98" style="stroke:#000000;stroke-width:1;"/></g><!--link bootloader to anchor--><g class="link" data-entity-1="bootloader" data-entity-2="anchor" data-source-line="36" data-uid="lnk20" id="link_bootloader_anchor"><path d="M588.7,140.2 C600.23,140.2 605.76,140.2 617.29,140.2" fill="none" id="bootloader-to-anchor" style="stroke:#000000;stroke-width:1;"/><polygon fill="#000000" points="623.29,140.2,614.29,136.2,618.29,140.2,614.29,144.2,623.29,140.2" style="stroke:#000000;stroke-width:1;"/></g></g></svg>