<?xml version="1.0" encoding="UTF-8" standalone="no"?><svg xmlns="http://www.w3.org/2000/svg" xmlns:xlink="http://www.w3.org/1999/xlink" contentStyleType="text/css" height="223px" preserveAspectRatio="none" style="width:681px;height:223px;background:#FFFFFF;" version="1.1" viewBox="0 0 681 223" width="681px" zoomAndPan="magnify"><defs/><g><g id="cluster_##3"><rect fill="#FFFFFF" fill-opacity="0.56471" height="210" rx="2.5" ry="2.5" style="stroke:#8B0000;stroke-width:1.0;stroke-dasharray:7.0,7.0;" width="492" x="183" y="7"/><text fill="#000000" font-family="Lato,sans-serif" font-size="11" font-style="italic" lengthAdjust="spacing" textLength="89" x="384.5" y="19.8435">«System boundary»</text></g><!--MD5=[4541fb81c80c07473fe4b07432ef0971]
entity app--><g id="elem_app"><rect fill="#FFFFFF" height="34.3921" rx="35" ry="35" style="stroke:#000000;stroke-width:1.0;" width="81" x="199.5" y="43.5"/><text fill="#000000" font-family="Lato,sans-serif" font-size="12" lengthAdjust="spacing" textLength="61" x="209.5" y="65.3375">Application</text></g><!--MD5=[6cc4354bc172bfab4bc5d504e938f9dd]
entity crypto--><g id="elem_crypto"><rect fill="#FFFFFF" height="34.3921" rx="35" ry="35" style="stroke:#000000;stroke-width:1.0;" width="110" x="395" y="43.5"/><text fill="#000000" font-family="Lato,sans-serif" font-size="12" lengthAdjust="spacing" textLength="90" x="405" y="65.3375">Cryptoprocessor</text></g><!--MD5=[885534b20a890cf314c9a5b140ec18ce]
entity keys--><g id="elem_keys"><path d="M589,49 C589,39 624,39 624,39 C624,39 659,39 659,49 L659,72.3921 C659,82.3921 624,82.3921 624,82.3921 C624,82.3921 589,82.3921 589,72.3921 L589,49 " fill="#FFFFFF" style="stroke:#000000;stroke-width:1.0;"/><path d="M589,49 C589,59 624,59 624,59 C624,59 659,59 659,49 " fill="none" style="stroke:#000000;stroke-width:1.0;"/><text fill="#000000" font-family="Lato,sans-serif" font-size="12" lengthAdjust="spacing" textLength="50" x="599" y="74.8375">Key Store</text></g><!--MD5=[a21d1e8c45edd0a89909a726cff5f3be]
entity nvm--><g id="elem_nvm"><path d="M216,168 C216,158 240,158 240,158 C240,158 264,158 264,168 L264,191.3921 C264,201.3921 240,201.3921 240,201.3921 C240,201.3921 216,201.3921 216,191.3921 L216,168 " fill="#FFFFFF" style="stroke:#000000;stroke-width:1.0;"/><path d="M216,168 C216,178 240,178 240,178 C240,178 264,178 264,168 " fill="none" style="stroke:#000000;stroke-width:1.0;"/><text fill="#000000" font-family="Lato,sans-serif" font-size="12" lengthAdjust="spacing" textLength="28" x="226" y="193.8375">NVM</text></g><!--MD5=[7c6cc8532223f11e77b82be6cbdb2ea3]
entity ext--><g id="elem_ext"><rect fill="#FFFFFF" height="34.3921" rx="2.5" ry="2.5" style="stroke:#000000;stroke-width:1.0;" width="102" x="7" y="43.5"/><text fill="#000000" font-family="Lato,sans-serif" font-size="12" lengthAdjust="spacing" textLength="82" x="17" y="65.3375">External system</text></g><!--MD5=[914486b73b535f0c4ac49a8d72533c21]
link ext to app--><g id="link_ext_app"><path d="M114.25,60.5 C139.92,60.5 169.92,60.5 194.19,60.5 " fill="none" id="ext-app" style="stroke:#000000;stroke-width:1.0;"/><polygon fill="#000000" points="199.27,60.5,190.27,56.5,194.27,60.5,190.27,64.5,199.27,60.5" style="stroke:#000000;stroke-width:1.0;"/><polygon fill="#000000" points="109.18,60.5,118.18,64.5,114.18,60.5,118.18,56.5,109.18,60.5" style="stroke:#000000;stroke-width:1.0;"/><text fill="#000000" font-family="Lato,sans-serif" font-size="12" lengthAdjust="spacing" textLength="54" x="127.25" y="54.3375">ciphertext</text></g><!--MD5=[4bd16bda29b8a051ff3f15cdb247d6db]
link app to crypto--><g id="link_app_crypto"><path d="M280.74,60.5 C311.66,60.5 354.67,60.5 389.59,60.5 " fill="none" id="app-to-crypto" style="stroke:#000000;stroke-width:1.0;"/><polygon fill="#000000" points="394.68,60.5,385.68,56.5,389.68,60.5,385.68,64.5,394.68,60.5" style="stroke:#000000;stroke-width:1.0;"/><text fill="#000000" font-family="Lato,sans-serif" font-size="12" lengthAdjust="spacing" textLength="78" x="298.75" y="54.3375">Crypto API call</text></g><!--MD5=[9f3f5bfaeffb73b5d37908f968ab49ea]
reverse link app to crypto--><g id="link_app_crypto"><path d="M285.7,74.33 C294.59,76.48 303.9,78.36 312.75,79.5 C339.83,82.98 369.88,79.64 394.94,74.84 " fill="none" id="app-backto-crypto" style="stroke:#000000;stroke-width:1.0;"/><polygon fill="#000000" points="280.81,73.11,288.5879,79.1519,285.6641,74.3092,290.5067,71.3854,280.81,73.11" style="stroke:#000000;stroke-width:1.0;"/><text fill="#000000" font-family="Lato,sans-serif" font-size="12" lengthAdjust="spacing" textLength="48" x="313.75" y="76.3375">response</text></g><!--MD5=[d97952a852c713a1d6ef7ab17551ef04]
link crypto to keys--><g id="link_crypto_keys"><path d="M505.05,60.5 C530.6,60.5 560.42,60.5 583.81,60.5 " fill="none" id="crypto-to-keys" style="stroke:#000000;stroke-width:1.0;"/><polygon fill="#000000" points="589,60.5,580,56.5,584,60.5,580,64.5,589,60.5" style="stroke:#000000;stroke-width:1.0;"/><text fill="#000000" font-family="Lato,sans-serif" font-size="12" lengthAdjust="spacing" textLength="47" x="523.5" y="54.3375">store key</text></g><!--MD5=[ead8b9a19e59888a5f7d56172008e43b]
reverse link crypto to keys--><g id="link_crypto_keys"><path d="M510.35,77.79 C529.3,81.15 550.28,82.75 569.5,79.5 C575.92,78.41 582.6,76.65 588.98,74.63 " fill="none" id="crypto-backto-keys" style="stroke:#000000;stroke-width:1.0;"/><polygon fill="#000000" points="505.07,76.8,513.1708,82.4015,509.9831,77.7283,514.6562,74.5406,505.07,76.8" style="stroke:#000000;stroke-width:1.0;"/><text fill="#000000" font-family="Lato,sans-serif" font-size="12" lengthAdjust="spacing" textLength="43" x="525.5" y="76.3375">load key</text></g><!--MD5=[0ee8252cc19ab4efcd3d1c5bb6f5b4c7]
link app to nvm--><g id="link_app_nvm"><path d="M240,82.92 C240,102.52 240,131.57 240,152.5 " fill="none" id="app-nvm" style="stroke:#000000;stroke-width:1.0;"/><polygon fill="#000000" points="240,157.63,244,148.63,240,152.63,236,148.63,240,157.63" style="stroke:#000000;stroke-width:1.0;"/><polygon fill="#000000" points="240,77.77,236,86.77,240,82.77,244,86.77,240,77.77" style="stroke:#000000;stroke-width:1.0;"/><text fill="#000000" font-family="Lato,sans-serif" font-size="12" lengthAdjust="spacing" textLength="54" x="241" y="124.8375">ciphertext</text></g></g></svg>