<?xml version="1.0" encoding="UTF-8" standalone="no"?><svg xmlns="http://www.w3.org/2000/svg" xmlns:xlink="http://www.w3.org/1999/xlink" contentStyleType="text/css" height="456px" preserveAspectRatio="none" style="width:534px;height:456px;background:#FFFFFF;" version="1.1" viewBox="0 0 534 456" width="534px" zoomAndPan="magnify"><defs/><g><g id="cluster_##4"><rect fill="#FFFFFF" fill-opacity="0.56471" height="443" rx="2.5" ry="2.5" style="stroke:#8B0000;stroke-width:1.0;stroke-dasharray:7.0,7.0;" width="403" x="125" y="7"/><text fill="#000000" font-family="Lato,sans-serif" font-size="11" font-style="italic" lengthAdjust="spacing" textLength="89" x="282" y="19.8435">«System boundary»</text></g><g id="cluster_##6"><rect fill="#FFFFFF" fill-opacity="0.56471" height="82" rx="2.5" ry="2.5" style="stroke:#8B0000;stroke-width:1.0;stroke-dasharray:7.0,7.0;" width="128" x="208" y="47"/><text fill="#000000" font-family="Lato,sans-serif" font-size="11" font-style="italic" lengthAdjust="spacing" textLength="112" x="216" y="59.8435">«Application boundary»</text></g><g id="cluster_##10"><rect fill="#FFFFFF" fill-opacity="0.56471" height="82" rx="2.5" ry="2.5" style="stroke:#8B0000;stroke-width:1.0;stroke-dasharray:7.0,7.0;" width="146" x="199" y="344"/><text fill="#000000" font-family="Lato,sans-serif" font-size="11" font-style="italic" lengthAdjust="spacing" textLength="112" x="216" y="356.8435">«Application boundary»</text></g><g id="cluster_##13"><rect fill="#FFFFFF" fill-opacity="0.56471" height="91" rx="2.5" ry="2.5" style="stroke:#8B0000;stroke-width:1.0;stroke-dasharray:7.0,7.0;" width="296" x="208" y="191"/><text fill="#000000" font-family="Lato,sans-serif" font-size="11" font-style="italic" lengthAdjust="spacing" textLength="133" x="289.5" y="203.8435">«Cryptoprocessor boundary»</text></g><!--MD5=[a21d1e8c45edd0a89909a726cff5f3be]
entity nvm--><g id="elem_nvm"><path d="M141,233 C141,223 165,223 165,223 C165,223 189,223 189,233 L189,256.3921 C189,266.3921 165,266.3921 165,266.3921 C165,266.3921 141,266.3921 141,256.3921 L141,233 " fill="#FFFFFF" style="stroke:#000000;stroke-width:1.0;"/><path d="M141,233 C141,243 165,243 165,243 C165,243 189,243 189,233 " fill="none" style="stroke:#000000;stroke-width:1.0;"/><text fill="#000000" font-family="Lato,sans-serif" font-size="12" lengthAdjust="spacing" textLength="28" x="151" y="258.8375">NVM</text></g><!--MD5=[4541fb81c80c07473fe4b07432ef0971]
entity app--><g id="elem_app"><rect fill="#FFFFFF" height="34.3921" rx="35" ry="35" style="stroke:#000000;stroke-width:1.0;" width="81" x="231.5" y="79"/><text fill="#000000" font-family="Lato,sans-serif" font-size="12" lengthAdjust="spacing" textLength="61" x="241.5" y="100.8375">Application</text></g><!--MD5=[81be28259591a23f63462d93727ccfe3]
entity app2--><g id="elem_app2"><rect fill="#FFFFFF" height="34.3921" rx="35" ry="35" style="stroke:#000000;stroke-width:1.0;" width="113" x="215.5" y="376"/><text fill="#000000" font-family="Lato,sans-serif" font-size="12" lengthAdjust="spacing" textLength="93" x="225.5" y="397.8375">Other application</text></g><!--MD5=[6cc4354bc172bfab4bc5d504e938f9dd]
entity crypto--><g id="elem_crypto"><rect fill="#FFFFFF" height="34.3921" rx="35" ry="35" style="stroke:#000000;stroke-width:1.0;" width="110" x="224" y="227.5"/><text fill="#000000" font-family="Lato,sans-serif" font-size="12" lengthAdjust="spacing" textLength="90" x="234" y="249.3375">Cryptoprocessor</text></g><!--MD5=[885534b20a890cf314c9a5b140ec18ce]
entity keys--><g id="elem_keys"><path d="M418,233 C418,223 453,223 453,223 C453,223 488,223 488,233 L488,256.3921 C488,266.3921 453,266.3921 453,266.3921 C453,266.3921 418,266.3921 418,256.3921 L418,233 " fill="#FFFFFF" style="stroke:#000000;stroke-width:1.0;"/><path d="M418,233 C418,243 453,243 453,243 C453,243 488,243 488,233 " fill="none" style="stroke:#000000;stroke-width:1.0;"/><text fill="#000000" font-family="Lato,sans-serif" font-size="12" lengthAdjust="spacing" textLength="50" x="428" y="258.8375">Key Store</text></g><!--MD5=[7c6cc8532223f11e77b82be6cbdb2ea3]
entity ext--><g id="elem_ext"><rect fill="#FFFFFF" height="34.3921" rx="2.5" ry="2.5" style="stroke:#000000;stroke-width:1.0;" width="102" x="7" y="79"/><text fill="#000000" font-family="Lato,sans-serif" font-size="12" lengthAdjust="spacing" textLength="82" x="17" y="100.8375">External system</text></g><!--MD5=[38d6d73a6b49b79b00c4898ab692af99]
entity ext2--><g id="elem_ext2"><rect fill="#FFFFFF" height="34.3921" rx="2.5" ry="2.5" style="stroke:#000000;stroke-width:1.0;" width="102" x="7" y="376"/><text fill="#000000" font-family="Lato,sans-serif" font-size="12" lengthAdjust="spacing" textLength="82" x="17" y="397.8375">External system</text></g><!--MD5=[914486b73b535f0c4ac49a8d72533c21]
link ext to app--><g id="link_ext_app"><path d="M114.59,96 C149.39,96 193.4,96 226.03,96 " fill="none" id="ext-app" style="stroke:#000000;stroke-width:1.0;"/><polygon fill="#000000" points="231.17,96,222.17,92,226.17,96,222.17,100,231.17,96" style="stroke:#000000;stroke-width:1.0;"/><polygon fill="#000000" points="109.26,96,118.26,100,114.26,96,118.26,92,109.26,96" style="stroke:#000000;stroke-width:1.0;"/><text fill="#000000" font-family="Lato,sans-serif" font-size="12" lengthAdjust="spacing" textLength="54" x="143.25" y="89.8375">ciphertext</text></g><!--MD5=[afa71a5be940e711015fa3b5ab6b09c3]
link ext2 to app2--><g id="link_ext2_app2"><path d="M114.57,393 C143.93,393 179.86,393 209.97,393 " fill="none" id="ext2-app2" style="stroke:#000000;stroke-width:1.0;"/><polygon fill="#000000" points="215.14,393,206.14,389,210.14,393,206.14,397,215.14,393" style="stroke:#000000;stroke-width:1.0;"/><polygon fill="#000000" points="109.26,393,118.26,397,114.26,393,118.26,389,109.26,393" style="stroke:#000000;stroke-width:1.0;"/><text fill="#000000" font-family="Lato,sans-serif" font-size="12" lengthAdjust="spacing" textLength="54" x="135.25" y="386.8375">ciphertext</text></g><!--MD5=[0ee8252cc19ab4efcd3d1c5bb6f5b4c7]
link app to nvm--><g id="link_app_nvm"><path d="M237.2,115.95 C225.42,123.71 212.99,133.57 204,145 C186.94,166.68 176.49,196.76 170.75,217.96 " fill="none" id="app-nvm" style="stroke:#000000;stroke-width:1.0;"/><polygon fill="#000000" points="169.46,222.88,175.6199,215.1952,170.7332,218.0448,167.8836,213.1581,169.46,222.88" style="stroke:#000000;stroke-width:1.0;"/><polygon fill="#000000" points="241.5,113.19,231.7664,114.6921,237.2941,115.8938,236.0924,121.4215,241.5,113.19" style="stroke:#000000;stroke-width:1.0;"/><text fill="#000000" font-family="Lato,sans-serif" font-size="12" lengthAdjust="spacing" textLength="54" x="205" y="164.8375">ciphertext</text></g><!--MD5=[3f37c4ac8cf0e4d93fd6e4b712a17667]
link nvm to app2--><g id="link_nvm_app2"><path d="M173.8,271.13 C180.35,288.16 190.33,310.53 203,328 C215.27,344.93 232.52,360.92 246.7,372.69 " fill="none" id="nvm-app2" style="stroke:#000000;stroke-width:1.0;"/><polygon fill="#000000" points="250.61,375.89,246.1826,367.0924,246.7421,372.7215,241.113,373.281,250.61,375.89" style="stroke:#000000;stroke-width:1.0;"/><polygon fill="#000000" points="171.88,266.02,171.2948,275.8515,173.6356,270.7016,178.7854,273.0425,171.88,266.02" style="stroke:#000000;stroke-width:1.0;"/><text fill="#000000" font-family="Lato,sans-serif" font-size="12" lengthAdjust="spacing" textLength="54" x="204" y="317.8375">ciphertext</text></g><!--MD5=[bee5b442cf37d2b76518bafe4d519181]
link nvm to crypto--><!--MD5=[c58860ea05fdddc49e7d0be27b22dd37]
link ext to ext2--><!--MD5=[4bd16bda29b8a051ff3f15cdb247d6db]
link app to crypto--><g id="link_app_crypto"><path d="M270.72,113.43 C270.06,122.69 269.33,134.48 269,145 C268.58,158.33 268.03,161.7 269,175 C270.15,190.87 272.79,208.65 275.06,222.12 " fill="none" id="app-to-crypto" style="stroke:#000000;stroke-width:1.0;"/><polygon fill="#000000" points="275.95,227.24,278.3757,217.6945,275.1072,222.3115,270.4901,219.0431,275.95,227.24" style="stroke:#000000;stroke-width:1.0;"/><text fill="#000000" font-family="Lato,sans-serif" font-size="12" lengthAdjust="spacing" textLength="58" x="270" y="157.8375">Crypto API</text><text fill="#000000" font-family="Lato,sans-serif" font-size="12" lengthAdjust="spacing" textLength="18" x="290" y="172.2296">call</text></g><!--MD5=[9f3f5bfaeffb73b5d37908f968ab49ea]
reverse link app to crypto--><g id="link_app_crypto"><path d="M306.72,115.91 C317.13,123.48 327.28,133.23 333,145 C347.4,174.65 319.25,208.08 298.46,227.38 " fill="none" id="app-backto-crypto" style="stroke:#000000;stroke-width:1.0;"/><polygon fill="#000000" points="302.57,113.02,307.667,121.4474,306.6722,115.8787,312.2409,114.8839,302.57,113.02" style="stroke:#000000;stroke-width:1.0;"/><text fill="#000000" font-family="Lato,sans-serif" font-size="12" lengthAdjust="spacing" textLength="48" x="337" y="164.8375">response</text></g><!--MD5=[d97952a852c713a1d6ef7ab17551ef04]
link crypto to keys--><g id="link_crypto_keys"><path d="M334.05,244.5 C359.6,244.5 389.42,244.5 412.81,244.5 " fill="none" id="crypto-to-keys" style="stroke:#000000;stroke-width:1.0;"/><polygon fill="#000000" points="418,244.5,409,240.5,413,244.5,409,248.5,418,244.5" style="stroke:#000000;stroke-width:1.0;"/><text fill="#000000" font-family="Lato,sans-serif" font-size="12" lengthAdjust="spacing" textLength="47" x="352.5" y="238.3375">store key</text></g><!--MD5=[ead8b9a19e59888a5f7d56172008e43b]
reverse link crypto to keys--><g id="link_crypto_keys"><path d="M339.35,261.79 C358.3,265.15 379.28,266.75 398.5,263.5 C404.92,262.41 411.6,260.65 417.98,258.63 " fill="none" id="crypto-backto-keys" style="stroke:#000000;stroke-width:1.0;"/><polygon fill="#000000" points="334.07,260.8,342.1708,266.4015,338.9831,261.7283,343.6562,258.5406,334.07,260.8" style="stroke:#000000;stroke-width:1.0;"/><text fill="#000000" font-family="Lato,sans-serif" font-size="12" lengthAdjust="spacing" textLength="43" x="354.5" y="260.3375">load key</text></g><!--MD5=[0f30f6033545611889b35b18e9f277bc]
reverse link crypto to app2--><g id="link_crypto_app2"><path d="M273.96,266.98 C271.99,276.44 269.97,287.71 269,298 C266.42,325.31 268.52,357.26 270.27,375.99 " fill="none" id="crypto-backto-app2" style="stroke:#000000;stroke-width:1.0;"/><polygon fill="#000000" points="275.04,261.94,269.2541,269.9102,273.9992,266.8305,277.0789,271.5755,275.04,261.94" style="stroke:#000000;stroke-width:1.0;"/><text fill="#000000" font-family="Lato,sans-serif" font-size="12" lengthAdjust="spacing" textLength="58" x="270" y="310.8375">Crypto API</text><text fill="#000000" font-family="Lato,sans-serif" font-size="12" lengthAdjust="spacing" textLength="18" x="290" y="325.2296">call</text></g><!--MD5=[fb657b9af53dd689848d1316dbc300f0]
link crypto to app2--><g id="link_crypto_app2"><path d="M302.79,261.52 C314.24,270.69 326.79,283.31 333,298 C338.19,310.28 337.95,315.62 333,328 C325.97,345.56 311.57,361.05 298.53,372.39 " fill="none" id="crypto-to-app2" style="stroke:#000000;stroke-width:1.0;"/><polygon fill="#000000" points="294.53,375.77,303.9889,373.0259,298.3523,372.5467,298.8316,366.9102,294.53,375.77" style="stroke:#000000;stroke-width:1.0;"/><text fill="#000000" font-family="Lato,sans-serif" font-size="12" lengthAdjust="spacing" textLength="48" x="337" y="317.8375">response</text></g></g></svg>