<?xml version="1.0" encoding="UTF-8" standalone="no"?><svg xmlns="http://www.w3.org/2000/svg" xmlns:xlink="http://www.w3.org/1999/xlink" contentStyleType="text/css" height="1146px" preserveAspectRatio="none" style="width:715px;height:1146px;background:#FFFFFF55;" version="1.1" viewBox="0 0 715 1146" width="715px" zoomAndPan="magnify"><defs/><g><rect fill="#E0E0E0" fill-opacity="0.75294" height="1127.4544" rx="4" ry="4" style="stroke:none;stroke-width:0.5;" width="96" x="16" y="6"/><text fill="#000000" font-family="Lato,sans-serif" font-size="12" font-weight="bold" lengthAdjust="spacing" textLength="48" x="40" y="17.8441">Network</text><rect fill="#E0E0E0" fill-opacity="0.75294" height="1127.4544" rx="4" ry="4" style="stroke:none;stroke-width:0.5;" width="353" x="169" y="6"/><text fill="#000000" font-family="Lato,sans-serif" font-size="12" font-weight="bold" lengthAdjust="spacing" textLength="36" x="327.5" y="17.8441">Device</text><rect fill="#FFFFFF" height="208.8007" style="stroke:#808080;stroke-width:1.0;" width="10" x="59" y="524.8525"/><rect fill="#FFFFFF" height="1015.2541" style="stroke:#808080;stroke-width:1.0;" width="10" x="210" y="63.8002"/><rect fill="#DDDDDD" height="31.4001" style="stroke:#808080;stroke-width:1.0;" width="10" x="467" y="119.6004"/><rect fill="#DDDDDD" height="28.4001" style="stroke:#808080;stroke-width:1.0;" width="10" x="467" y="211.8007"/><rect fill="#DDDDDD" height="28.4001" style="stroke:#808080;stroke-width:1.0;" width="10" x="467" y="268.6009"/><rect fill="#DDDDDD" height="103.2511" style="stroke:#808080;stroke-width:1.0;" width="10" x="467" y="360.8012"/><rect fill="#DDDDDD" height="31.4001" style="stroke:#808080;stroke-width:1.0;" width="10" x="467" y="556.2526"/><rect fill="#DDDDDD" height="28.4001" style="stroke:#808080;stroke-width:1.0;" width="10" x="467" y="676.853"/><rect fill="#DDDDDD" height="28.4001" style="stroke:#808080;stroke-width:1.0;" width="10" x="467" y="762.0533"/><rect fill="#DDDDDD" height="28.4001" style="stroke:#808080;stroke-width:1.0;" width="10" x="467" y="818.8535"/><rect fill="#DDDDDD" height="41.4001" style="stroke:#808080;stroke-width:1.0;" width="10" x="467" y="878.6537"/><rect fill="#DDDDDD" height="31.4001" style="stroke:#808080;stroke-width:1.0;" width="10" x="467" y="986.854"/><rect fill="#ADD8E6" height="55.8002" style="stroke:#808080;stroke-width:1.0;" width="10" x="564" y="63.8002"/><rect fill="#98FB98" height="117.6004" style="stroke:#808080;stroke-width:1.0;" width="10" x="564" y="151.0005"/><rect fill="#EEE8AA" height="581.6527" style="stroke:#808080;stroke-width:1.0;" width="10" x="564" y="297.001"/><rect fill="#FFA07A" height="66.8002" style="stroke:#808080;stroke-width:1.0;" width="10" x="564" y="920.0538"/><rect fill="#F08080" height="112.2003" style="stroke:#808080;stroke-width:1.0;" width="10" x="564" y="1018.2541"/><rect fill="#ADD8E6" height="92.2003" style="stroke:#808080;stroke-width:1.0;" width="10" x="652.5" y="464.0523"/><rect fill="#98FB98" height="231.2008" style="stroke:#808080;stroke-width:1.0;" width="10" x="652.5" y="587.6527"/><rect fill="#FFFFFF" fill-opacity="0.50196" height="476.4524" rx="4" ry="4" style="stroke:#808080;stroke-width:1.0;" width="688" x="10" y="413.2013"/><line style="stroke:#808080;stroke-width:0.5;stroke-dasharray:5.0,5.0;" x1="64" x2="64" y1="53.8002" y2="1139.4544"/><line style="stroke:#808080;stroke-width:0.5;stroke-dasharray:5.0,5.0;" x1="215" x2="215" y1="53.8002" y2="1139.4544"/><line style="stroke:#808080;stroke-width:0.5;stroke-dasharray:5.0,5.0;" x1="330" x2="330" y1="53.8002" y2="1139.4544"/><line style="stroke:#808080;stroke-width:0.5;stroke-dasharray:5.0,5.0;" x1="472" x2="472" y1="53.8002" y2="1139.4544"/><line style="stroke:#808080;stroke-width:0.5;stroke-dasharray:5.0,5.0;" x1="569" x2="569" y1="53.8002" y2="1139.4544"/><line style="stroke:#808080;stroke-width:0.5;stroke-dasharray:5.0,5.0;" x1="657" x2="657" y1="53.8002" y2="1139.4544"/><rect fill="#FFFFFF" height="28.4001" rx="4" ry="4" style="stroke:#000000;stroke-width:1.0;" width="88" x="20" y="24.4001"/><text fill="#000000" font-family="Lato,sans-serif" font-size="12" lengthAdjust="spacing" textLength="74" x="27" y="43.2442">Update server</text><rect fill="#FFFFFF" height="28.4001" rx="4" ry="4" style="stroke:#000000;stroke-width:1.0;" width="84" x="173" y="24.4001"/><text fill="#000000" font-family="Lato,sans-serif" font-size="12" lengthAdjust="spacing" textLength="70" x="180" y="43.2442">Update client</text><rect fill="#FFFFFF" height="28.4001" rx="4" ry="4" style="stroke:#000000;stroke-width:1.0;" width="127" x="267" y="24.4001"/><text fill="#000000" font-family="Lato,sans-serif" font-size="12" lengthAdjust="spacing" textLength="113" x="274" y="43.2442">Firmware Update API</text><rect fill="#FFFFFF" height="28.4001" rx="4" ry="4" style="stroke:#000000;stroke-width:1.0;" width="92" x="426" y="24.4001"/><text fill="#000000" font-family="Lato,sans-serif" font-size="12" lengthAdjust="spacing" textLength="78" x="433" y="43.2442">Update service</text><text fill="#000000" font-family="Lato,sans-serif" font-size="12" lengthAdjust="spacing" textLength="76" x="528" y="51.2442">Envelope state</text><ellipse cx="569" cy="23.4001" fill="#FFFFFF" rx="12" ry="12" style="stroke:#000000;stroke-width:1.0;"/><line style="stroke:#000000;stroke-width:1.0;" x1="557" x2="581" y1="37.4001" y2="37.4001"/><text fill="#000000" font-family="Lato,sans-serif" font-size="12" lengthAdjust="spacing" textLength="69" x="620" y="51.2442">Payload state</text><ellipse cx="657.5" cy="23.4001" fill="#FFFFFF" rx="12" ry="12" style="stroke:#000000;stroke-width:1.0;"/><line style="stroke:#000000;stroke-width:1.0;" x1="645.5" x2="669.5" y1="37.4001" y2="37.4001"/><rect fill="#FFFFFF" height="208.8007" style="stroke:#808080;stroke-width:1.0;" width="10" x="59" y="524.8525"/><rect fill="#FFFFFF" height="1015.2541" style="stroke:#808080;stroke-width:1.0;" width="10" x="210" y="63.8002"/><rect fill="#DDDDDD" height="31.4001" style="stroke:#808080;stroke-width:1.0;" width="10" x="467" y="119.6004"/><rect fill="#DDDDDD" height="28.4001" style="stroke:#808080;stroke-width:1.0;" width="10" x="467" y="211.8007"/><rect fill="#DDDDDD" height="28.4001" style="stroke:#808080;stroke-width:1.0;" width="10" x="467" y="268.6009"/><rect fill="#DDDDDD" height="103.2511" style="stroke:#808080;stroke-width:1.0;" width="10" x="467" y="360.8012"/><rect fill="#DDDDDD" height="31.4001" style="stroke:#808080;stroke-width:1.0;" width="10" x="467" y="556.2526"/><rect fill="#DDDDDD" height="28.4001" style="stroke:#808080;stroke-width:1.0;" width="10" x="467" y="676.853"/><rect fill="#DDDDDD" height="28.4001" style="stroke:#808080;stroke-width:1.0;" width="10" x="467" y="762.0533"/><rect fill="#DDDDDD" height="28.4001" style="stroke:#808080;stroke-width:1.0;" width="10" x="467" y="818.8535"/><rect fill="#DDDDDD" height="41.4001" style="stroke:#808080;stroke-width:1.0;" width="10" x="467" y="878.6537"/><rect fill="#DDDDDD" height="31.4001" style="stroke:#808080;stroke-width:1.0;" width="10" x="467" y="986.854"/><rect fill="#ADD8E6" height="55.8002" style="stroke:#808080;stroke-width:1.0;" width="10" x="564" y="63.8002"/><rect fill="#98FB98" height="117.6004" style="stroke:#808080;stroke-width:1.0;" width="10" x="564" y="151.0005"/><rect fill="#EEE8AA" height="581.6527" style="stroke:#808080;stroke-width:1.0;" width="10" x="564" y="297.001"/><rect fill="#FFA07A" height="66.8002" style="stroke:#808080;stroke-width:1.0;" width="10" x="564" y="920.0538"/><rect fill="#F08080" height="112.2003" style="stroke:#808080;stroke-width:1.0;" width="10" x="564" y="1018.2541"/><rect fill="#ADD8E6" height="92.2003" style="stroke:#808080;stroke-width:1.0;" width="10" x="652.5" y="464.0523"/><rect fill="#98FB98" height="231.2008" style="stroke:#808080;stroke-width:1.0;" width="10" x="652.5" y="587.6527"/><rect fill="#ADD8E6" height="22" rx="4" ry="4" style="stroke:#181818;stroke-width:1.0;" width="48" x="545" y="68.8002"/><text fill="#000000" font-family="Lato,sans-serif" font-size="12" lengthAdjust="spacing" textLength="40" x="549" y="84.6443">READY</text><polygon fill="#000000" points="455,115.6004,465,119.6004,455,123.6004" style="stroke:#000000;stroke-width:1.0;"/><line style="stroke:#000000;stroke-width:1.0;" x1="220" x2="461" y1="119.6004" y2="119.6004"/><text fill="#000000" font-family="Lato,sans-serif" font-size="12" font-weight="bold" lengthAdjust="spacing" textLength="7" x="227" y="115.0444">1</text><text fill="#000000" font-family="Consolas,Menlo,monospace" font-size="12" lengthAdjust="spacing" textLength="182" x="238" y="114.3379">psa_fwu_start(envelope_id)</text><path d="M60,105.2003 L60,121.2003 A4,4 0 0 0 64,125.2003 L201,125.2003 A4,4 0 0 0 205,121.2003 L205,111.2003 L195,101.2003 L64,101.2003 A4,4 0 0 0 60,105.2003 " fill="#E8E8E8" style="stroke:#181818;stroke-width:1.0;"/><path d="M195,101.2003 L195,109.2003 A2,2 0 0 0 197,111.2003 L205,111.2003 L195,101.2003 " fill="#E8E8E8" style="stroke:#181818;stroke-width:1.0;"/><text fill="#000000" font-family="Lato,sans-serif" font-size="12" lengthAdjust="spacing" textLength="124" x="66" y="118.0444">Transfer SUIT Envelope</text><polygon fill="#000000" points="231,147.0005,221,151.0005,231,155.0005" style="stroke:#000000;stroke-width:1.0;"/><line style="stroke:#000000;stroke-width:1.0;stroke-dasharray:2.0,2.0;" x1="225" x2="471" y1="151.0005" y2="151.0005"/><text fill="#000000" font-family="Lato,sans-serif" font-size="12" font-weight="bold" lengthAdjust="spacing" textLength="7" x="237" y="146.4445">2</text><text fill="#000000" font-family="Consolas,Menlo,monospace" font-size="12" lengthAdjust="spacing" textLength="77" x="248" y="145.738">PSA_SUCCESS</text><rect fill="#98FB98" height="22" rx="4" ry="4" style="stroke:#181818;stroke-width:1.0;" width="61" x="538" y="164.0005"/><text fill="#000000" font-family="Lato,sans-serif" font-size="12" lengthAdjust="spacing" textLength="53" x="542" y="179.8446">WRITING</text><polygon fill="#000000" points="455,207.8007,465,211.8007,455,215.8007" style="stroke:#000000;stroke-width:1.0;"/><line style="stroke:#000000;stroke-width:1.0;" x1="220" x2="461" y1="211.8007" y2="211.8007"/><text fill="#000000" font-family="Lato,sans-serif" font-size="12" font-weight="bold" lengthAdjust="spacing" textLength="7" x="227" y="207.2447">3</text><text fill="#000000" font-family="Consolas,Menlo,monospace" font-size="12" lengthAdjust="spacing" textLength="217" x="238" y="206.5382">psa_fwu_write(envelope_id, ...)</text><polygon fill="#000000" points="231,236.2008,221,240.2008,231,244.2008" style="stroke:#000000;stroke-width:1.0;"/><line style="stroke:#000000;stroke-width:1.0;stroke-dasharray:2.0,2.0;" x1="225" x2="471" y1="240.2008" y2="240.2008"/><text fill="#000000" font-family="Lato,sans-serif" font-size="12" font-weight="bold" lengthAdjust="spacing" textLength="7" x="237" y="235.6448">4</text><text fill="#000000" font-family="Consolas,Menlo,monospace" font-size="12" lengthAdjust="spacing" textLength="77" x="248" y="234.9383">PSA_SUCCESS</text><polygon fill="#000000" points="455,264.6009,465,268.6009,455,272.6009" style="stroke:#000000;stroke-width:1.0;"/><line style="stroke:#000000;stroke-width:1.0;" x1="220" x2="461" y1="268.6009" y2="268.6009"/><text fill="#000000" font-family="Lato,sans-serif" font-size="12" font-weight="bold" lengthAdjust="spacing" textLength="7" x="227" y="264.0449">5</text><text fill="#000000" font-family="Consolas,Menlo,monospace" font-size="12" lengthAdjust="spacing" textLength="189" x="238" y="263.3384">psa_fwu_finish(envelope_id)</text><polygon fill="#000000" points="231,293.001,221,297.001,231,301.001" style="stroke:#000000;stroke-width:1.0;"/><line style="stroke:#000000;stroke-width:1.0;stroke-dasharray:2.0,2.0;" x1="225" x2="471" y1="297.001" y2="297.001"/><text fill="#000000" font-family="Lato,sans-serif" font-size="12" font-weight="bold" lengthAdjust="spacing" textLength="7" x="237" y="292.445">6</text><text fill="#000000" font-family="Consolas,Menlo,monospace" font-size="12" lengthAdjust="spacing" textLength="189" x="248" y="291.7385">PSA_FWU_PROCESSING_REQUIRED</text><rect fill="#EEE8AA" height="22" rx="4" ry="4" style="stroke:#181818;stroke-width:1.0;" width="82" x="528" y="310.001"/><text fill="#000000" font-family="Lato,sans-serif" font-size="12" lengthAdjust="spacing" textLength="74" x="532" y="325.8451">PROCESSING</text><polygon fill="#000000" points="455,356.8012,465,360.8012,455,364.8012" style="stroke:#000000;stroke-width:1.0;"/><line style="stroke:#000000;stroke-width:1.0;" x1="220" x2="461" y1="360.8012" y2="360.8012"/><text fill="#000000" font-family="Lato,sans-serif" font-size="12" font-weight="bold" lengthAdjust="spacing" textLength="7" x="227" y="356.2452">7</text><text fill="#000000" font-family="Consolas,Menlo,monospace" font-size="12" lengthAdjust="spacing" textLength="119" x="238" y="355.5387">psa_fwu_process()</text><path d="M68,346.4011 L68,362.4011 A4,4 0 0 0 72,366.4011 L201,366.4011 A4,4 0 0 0 205,362.4011 L205,352.4011 L195,342.4011 L72,342.4011 A4,4 0 0 0 68,346.4011 " fill="#E8E8E8" style="stroke:#181818;stroke-width:1.0;"/><path d="M195,342.4011 L195,350.4011 A2,2 0 0 0 197,352.4011 L205,352.4011 L195,342.4011 " fill="#E8E8E8" style="stroke:#181818;stroke-width:1.0;"/><text fill="#000000" font-family="Lato,sans-serif" font-size="12" lengthAdjust="spacing" textLength="116" x="74" y="359.2452">Process SUIT manifest</text><path d="M370,380.8012 L370,396.8012 A4,4 0 0 0 374,400.8012 L570,400.8012 A4,4 0 0 0 574,396.8012 L574,386.8012 L564,376.8012 L374,376.8012 A4,4 0 0 0 370,380.8012 " fill="#E8E8E8" style="stroke:#181818;stroke-width:1.0;"/><path d="M564,376.8012 L564,384.8012 A2,2 0 0 0 566,386.8012 L574,386.8012 L564,376.8012 " fill="#E8E8E8" style="stroke:#181818;stroke-width:1.0;"/><text fill="#000000" font-family="Consolas,Menlo,monospace" font-size="12" lengthAdjust="spacing" textLength="126" x="376" y="393.1134">suit-payload-fetch</text><text fill="#000000" font-family="Lato,sans-serif" font-size="12" lengthAdjust="spacing" textLength="50" x="509" y="393.6453">sequence</text><path d="M14,413.2013 L79,413.2013 L79,419.6014 L69,429.6014 L10,429.6014 L10,417.2013 A4,4 0 0 1 14,413.2013 " fill="#F0F0F0" style="stroke:#808080;stroke-width:1.5;"/><rect fill="none" height="476.4524" rx="4" ry="4" style="stroke:#808080;stroke-width:1.0;" width="688" x="10" y="413.2013"/><text fill="#000000" font-family="Lato,sans-serif" font-size="12" lengthAdjust="spacing" textLength="24" x="25" y="426.0454">loop</text><text fill="#000000" font-family="Lato,sans-serif" font-size="11" font-weight="bold" lengthAdjust="spacing" textLength="197" x="94" y="426.0585">[While additional payloads are required]</text><polygon fill="#000000" points="231,460.0523,221,464.0523,231,468.0523" style="stroke:#000000;stroke-width:1.0;"/><line style="stroke:#000000;stroke-width:1.0;stroke-dasharray:2.0,2.0;" x1="225" x2="471" y1="464.0523" y2="464.0523"/><text fill="#000000" font-family="Lato,sans-serif" font-size="12" font-weight="bold" lengthAdjust="spacing" textLength="7" x="237" y="452.4709">8</text><text fill="#000000" font-family="Consolas,Menlo,monospace" font-size="12" lengthAdjust="spacing" textLength="168" x="248" y="444.5643">PSA_FWU_PAYLOAD_REQUIRED</text><text fill="#000000" font-family="Lato,sans-serif" font-size="12" lengthAdjust="spacing" textLength="116" x="252" y="459.4963">+ payload information</text><rect fill="#ADD8E6" height="22" rx="4" ry="4" style="stroke:#181818;stroke-width:1.0;" width="48" x="633" y="477.0523"/><text fill="#000000" font-family="Lato,sans-serif" font-size="12" lengthAdjust="spacing" textLength="40" x="637" y="492.8964">READY</text><line style="stroke:#000000;stroke-width:1.0;" x1="70" x2="80" y1="524.8525" y2="520.8525"/><line style="stroke:#000000;stroke-width:1.0;" x1="70" x2="80" y1="524.8525" y2="528.8525"/><line style="stroke:#000000;stroke-width:1.0;" x1="69" x2="209" y1="524.8525" y2="524.8525"/><text fill="#000000" font-family="Lato,sans-serif" font-size="12" font-weight="bold" lengthAdjust="spacing" textLength="7" x="86" y="520.2965">9</text><text fill="#000000" font-family="Lato,sans-serif" font-size="12" lengthAdjust="spacing" textLength="74" x="97" y="520.2965">Fetch payload</text><polygon fill="#000000" points="455,552.2526,465,556.2526,455,560.2526" style="stroke:#000000;stroke-width:1.0;"/><line style="stroke:#000000;stroke-width:1.0;" x1="220" x2="461" y1="556.2526" y2="556.2526"/><text fill="#000000" font-family="Lato,sans-serif" font-size="12" font-weight="bold" lengthAdjust="spacing" textLength="14" x="227" y="551.6966">10</text><text fill="#000000" font-family="Consolas,Menlo,monospace" font-size="12" lengthAdjust="spacing" textLength="175" x="245" y="550.99">psa_fwu_start(payload_id)</text><path d="M95,541.8525 L95,557.8525 A4,4 0 0 0 99,561.8525 L201,561.8525 A4,4 0 0 0 205,557.8525 L205,547.8525 L195,537.8525 L99,537.8525 A4,4 0 0 0 95,541.8525 " fill="#E8E8E8" style="stroke:#181818;stroke-width:1.0;"/><path d="M195,537.8525 L195,545.8525 A2,2 0 0 0 197,547.8525 L205,547.8525 L195,537.8525 " fill="#E8E8E8" style="stroke:#181818;stroke-width:1.0;"/><text fill="#000000" font-family="Lato,sans-serif" font-size="12" lengthAdjust="spacing" textLength="89" x="101" y="554.6966">Transfer payload</text><polygon fill="#000000" points="231,583.6527,221,587.6527,231,591.6527" style="stroke:#000000;stroke-width:1.0;"/><line style="stroke:#000000;stroke-width:1.0;stroke-dasharray:2.0,2.0;" x1="225" x2="471" y1="587.6527" y2="587.6527"/><text fill="#000000" font-family="Lato,sans-serif" font-size="12" font-weight="bold" lengthAdjust="spacing" textLength="14" x="237" y="583.0967">11</text><text fill="#000000" font-family="Consolas,Menlo,monospace" font-size="12" lengthAdjust="spacing" textLength="77" x="255" y="582.3901">PSA_SUCCESS</text><rect fill="#98FB98" height="22" rx="4" ry="4" style="stroke:#181818;stroke-width:1.0;" width="61" x="627" y="600.6527"/><text fill="#000000" font-family="Lato,sans-serif" font-size="12" lengthAdjust="spacing" textLength="53" x="631" y="616.4968">WRITING</text><line style="stroke:#000000;stroke-width:1.0;" x1="208" x2="198" y1="648.4529" y2="644.4529"/><line style="stroke:#000000;stroke-width:1.0;" x1="208" x2="198" y1="648.4529" y2="652.4529"/><line style="stroke:#000000;stroke-width:1.0;stroke-dasharray:2.0,2.0;" x1="69" x2="209" y1="648.4529" y2="648.4529"/><text fill="#000000" font-family="Lato,sans-serif" font-size="12" font-weight="bold" lengthAdjust="spacing" textLength="14" x="76" y="643.8969">12</text><text fill="#000000" font-family="Lato,sans-serif" font-size="12" lengthAdjust="spacing" textLength="99" x="94" y="643.8969">Download payload</text><polygon fill="#000000" points="455,672.853,465,676.853,455,680.853" style="stroke:#000000;stroke-width:1.0;"/><line style="stroke:#000000;stroke-width:1.0;" x1="220" x2="461" y1="676.853" y2="676.853"/><text fill="#000000" font-family="Lato,sans-serif" font-size="12" font-weight="bold" lengthAdjust="spacing" textLength="14" x="227" y="672.297">13</text><text fill="#000000" font-family="Consolas,Menlo,monospace" font-size="12" lengthAdjust="spacing" textLength="210" x="245" y="671.5904">psa_fwu_write(payload_id, ...)</text><polygon fill="#000000" points="231,701.2531,221,705.2531,231,709.2531" style="stroke:#000000;stroke-width:1.0;"/><line style="stroke:#000000;stroke-width:1.0;stroke-dasharray:2.0,2.0;" x1="225" x2="471" y1="705.2531" y2="705.2531"/><text fill="#000000" font-family="Lato,sans-serif" font-size="12" font-weight="bold" lengthAdjust="spacing" textLength="14" x="237" y="700.6971">14</text><text fill="#000000" font-family="Consolas,Menlo,monospace" font-size="12" lengthAdjust="spacing" textLength="77" x="255" y="699.9905">PSA_SUCCESS</text><line style="stroke:#000000;stroke-width:1.0;" x1="208" x2="198" y1="733.6532" y2="729.6532"/><line style="stroke:#000000;stroke-width:1.0;" x1="208" x2="198" y1="733.6532" y2="737.6532"/><line style="stroke:#000000;stroke-width:1.0;stroke-dasharray:2.0,2.0;" x1="64" x2="209" y1="733.6532" y2="733.6532"/><text fill="#000000" font-family="Lato,sans-serif" font-size="12" font-weight="bold" lengthAdjust="spacing" textLength="14" x="71" y="729.0972">15</text><text fill="#000000" font-family="Lato,sans-serif" font-size="12" lengthAdjust="spacing" textLength="99" x="89" y="729.0972">Download payload</text><polygon fill="#000000" points="455,758.0533,465,762.0533,455,766.0533" style="stroke:#000000;stroke-width:1.0;"/><line style="stroke:#000000;stroke-width:1.0;" x1="220" x2="461" y1="762.0533" y2="762.0533"/><text fill="#000000" font-family="Lato,sans-serif" font-size="12" font-weight="bold" lengthAdjust="spacing" textLength="14" x="227" y="757.4973">16</text><text fill="#000000" font-family="Consolas,Menlo,monospace" font-size="12" lengthAdjust="spacing" textLength="210" x="245" y="756.7907">psa_fwu_write(payload_id, ...)</text><polygon fill="#000000" points="231,786.4534,221,790.4534,231,794.4534" style="stroke:#000000;stroke-width:1.0;"/><line style="stroke:#000000;stroke-width:1.0;stroke-dasharray:2.0,2.0;" x1="225" x2="471" y1="790.4534" y2="790.4534"/><text fill="#000000" font-family="Lato,sans-serif" font-size="12" font-weight="bold" lengthAdjust="spacing" textLength="14" x="237" y="785.8974">17</text><text fill="#000000" font-family="Consolas,Menlo,monospace" font-size="12" lengthAdjust="spacing" textLength="77" x="255" y="785.1908">PSA_SUCCESS</text><polygon fill="#000000" points="455,814.8535,465,818.8535,455,822.8535" style="stroke:#000000;stroke-width:1.0;"/><line style="stroke:#000000;stroke-width:1.0;" x1="220" x2="461" y1="818.8535" y2="818.8535"/><text fill="#000000" font-family="Lato,sans-serif" font-size="12" font-weight="bold" lengthAdjust="spacing" textLength="14" x="227" y="814.2975">18</text><text fill="#000000" font-family="Consolas,Menlo,monospace" font-size="12" lengthAdjust="spacing" textLength="182" x="245" y="813.591">psa_fwu_finish(payload_id)</text><polygon fill="#000000" points="231,843.2536,221,847.2536,231,851.2536" style="stroke:#000000;stroke-width:1.0;"/><line style="stroke:#000000;stroke-width:1.0;stroke-dasharray:2.0,2.0;" x1="225" x2="471" y1="847.2536" y2="847.2536"/><text fill="#000000" font-family="Lato,sans-serif" font-size="12" font-weight="bold" lengthAdjust="spacing" textLength="14" x="237" y="842.6976">19</text><text fill="#000000" font-family="Consolas,Menlo,monospace" font-size="12" lengthAdjust="spacing" textLength="77" x="255" y="841.9911">PSA_SUCCESS</text><polygon fill="#000000" points="455,874.6537,465,878.6537,455,882.6537" style="stroke:#000000;stroke-width:1.0;"/><line style="stroke:#000000;stroke-width:1.0;" x1="220" x2="461" y1="878.6537" y2="878.6537"/><text fill="#000000" font-family="Lato,sans-serif" font-size="12" font-weight="bold" lengthAdjust="spacing" textLength="14" x="227" y="874.0977">20</text><text fill="#000000" font-family="Consolas,Menlo,monospace" font-size="12" lengthAdjust="spacing" textLength="119" x="245" y="873.3912">psa_fwu_process()</text><path d="M55,864.2536 L55,880.2536 A4,4 0 0 0 59,884.2536 L201,884.2536 A4,4 0 0 0 205,880.2536 L205,870.2536 L195,860.2536 L59,860.2536 A4,4 0 0 0 55,864.2536 " fill="#E8E8E8" style="stroke:#181818;stroke-width:1.0;"/><path d="M195,860.2536 L195,868.2536 A2,2 0 0 0 197,870.2536 L205,870.2536 L195,860.2536 " fill="#E8E8E8" style="stroke:#181818;stroke-width:1.0;"/><text fill="#000000" font-family="Lato,sans-serif" font-size="12" lengthAdjust="spacing" textLength="129" x="61" y="877.0977">Resume SUIT processing</text><polygon fill="#000000" points="231,916.0538,221,920.0538,231,924.0538" style="stroke:#000000;stroke-width:1.0;"/><line style="stroke:#000000;stroke-width:1.0;stroke-dasharray:2.0,2.0;" x1="225" x2="471" y1="920.0538" y2="920.0538"/><text fill="#000000" font-family="Lato,sans-serif" font-size="12" font-weight="bold" lengthAdjust="spacing" textLength="14" x="237" y="915.4978">21</text><text fill="#000000" font-family="Consolas,Menlo,monospace" font-size="12" lengthAdjust="spacing" textLength="77" x="255" y="914.7913">PSA_SUCCESS</text><path d="M28,905.6537 L28,921.6537 A4,4 0 0 0 32,925.6537 L201,925.6537 A4,4 0 0 0 205,921.6537 L205,911.6537 L195,901.6537 L32,901.6537 A4,4 0 0 0 28,905.6537 " fill="#E8E8E8" style="stroke:#181818;stroke-width:1.0;"/><path d="M195,901.6537 L195,909.6537 A2,2 0 0 0 197,911.6537 L205,911.6537 L195,901.6537 " fill="#E8E8E8" style="stroke:#181818;stroke-width:1.0;"/><text fill="#000000" font-family="Lato,sans-serif" font-size="12" lengthAdjust="spacing" textLength="156" x="34" y="918.4978">Manifest processing complete</text><rect fill="#FFA07A" height="22" rx="4" ry="4" style="stroke:#181818;stroke-width:1.0;" width="77" x="530" y="936.0538"/><text fill="#000000" font-family="Lato,sans-serif" font-size="12" lengthAdjust="spacing" textLength="69" x="534" y="951.8979">CANDIDATE</text><polygon fill="#000000" points="455,982.854,465,986.854,455,990.854" style="stroke:#000000;stroke-width:1.0;"/><line style="stroke:#000000;stroke-width:1.0;" x1="220" x2="461" y1="986.854" y2="986.854"/><text fill="#000000" font-family="Lato,sans-serif" font-size="12" font-weight="bold" lengthAdjust="spacing" textLength="14" x="227" y="982.298">22</text><text fill="#000000" font-family="Consolas,Menlo,monospace" font-size="12" lengthAdjust="spacing" textLength="119" x="245" y="981.5915">psa_fwu_install()</text><path d="M55,972.4539 L55,988.4539 A4,4 0 0 0 59,992.4539 L201,992.4539 A4,4 0 0 0 205,988.4539 L205,978.4539 L195,968.4539 L59,968.4539 A4,4 0 0 0 55,972.4539 " fill="#E8E8E8" style="stroke:#181818;stroke-width:1.0;"/><path d="M195,968.4539 L195,976.4539 A2,2 0 0 0 197,978.4539 L205,978.4539 L195,968.4539 " fill="#E8E8E8" style="stroke:#181818;stroke-width:1.0;"/><text fill="#000000" font-family="Lato,sans-serif" font-size="12" lengthAdjust="spacing" textLength="129" x="61" y="985.298">Proceed with installation</text><polygon fill="#000000" points="231,1014.2541,221,1018.2541,231,1022.2541" style="stroke:#000000;stroke-width:1.0;"/><line style="stroke:#000000;stroke-width:1.0;stroke-dasharray:2.0,2.0;" x1="225" x2="471" y1="1018.2541" y2="1018.2541"/><text fill="#000000" font-family="Lato,sans-serif" font-size="12" font-weight="bold" lengthAdjust="spacing" textLength="14" x="237" y="1013.6981">23</text><text fill="#000000" font-family="Consolas,Menlo,monospace" font-size="12" lengthAdjust="spacing" textLength="161" x="255" y="1012.9916">PSA_FWU_REBOOT_REQUIRED</text><rect fill="#F08080" height="22" rx="4" ry="4" style="stroke:#181818;stroke-width:1.0;" width="54" x="542" y="1031.2541"/><text fill="#000000" font-family="Lato,sans-serif" font-size="12" lengthAdjust="spacing" textLength="46" x="546" y="1047.0982">STAGED</text><line style="stroke:#000000;stroke-width:1.0;" x1="706" x2="696" y1="1079.0543" y2="1075.0543"/><line style="stroke:#000000;stroke-width:1.0;" x1="706" x2="696" y1="1079.0543" y2="1083.0543"/><line style="stroke:#000000;stroke-width:1.0;stroke-dasharray:2.0,2.0;" x1="215" x2="707" y1="1079.0543" y2="1079.0543"/><text fill="#000000" font-family="Lato,sans-serif" font-size="12" font-weight="bold" lengthAdjust="spacing" textLength="14" x="222" y="1074.4983">24</text><text fill="#000000" font-family="Lato,sans-serif" font-size="12" lengthAdjust="spacing" textLength="81" x="240" y="1074.4983">Request reboot</text><rect fill="#EEEEEE" height="3" rx="4" ry="4" style="stroke:#EEEEEE;stroke-width:1.0;" width="708" x="0" y="1107.2544"/><line style="stroke:#000000;stroke-width:1.0;" x1="0" x2="708" y1="1107.2544" y2="1107.2544"/><line style="stroke:#000000;stroke-width:1.0;" x1="0" x2="708" y1="1110.2544" y2="1110.2544"/><rect fill="#EEEEEE" height="22.4001" rx="4" ry="4" style="stroke:#000000;stroke-width:2.0;" width="98" x="305" y="1097.0543"/><text fill="#000000" font-family="Lato,sans-serif" font-size="12" font-weight="bold" lengthAdjust="spacing" textLength="82" x="311" y="1112.8984">System restarts</text></g></svg>