<?xml version="1.0" encoding="UTF-8" standalone="no"?><svg xmlns="http://www.w3.org/2000/svg" xmlns:xlink="http://www.w3.org/1999/xlink" contentStyleType="text/css" height="1146px" preserveAspectRatio="none" style="width:715px;height:1146px;background:#FFFFFF55;" version="1.1" viewBox="0 0 715 1146" width="715px" zoomAndPan="magnify"><defs/><g><rect fill="#E0E0E0" fill-opacity="0.75294" height="1127.4544" rx="4" ry="4" style="stroke:none;stroke-width:0.5;" width="96" x="16" y="6"/><text fill="#000000" font-family="Lato,sans-serif" font-size="12" font-weight="bold" lengthAdjust="spacing" textLength="48" x="40" y="17.8441">Network</text><rect fill="#E0E0E0" fill-opacity="0.75294" height="1127.4544" rx="4" ry="4" style="stroke:none;stroke-width:0.5;" width="353" x="169" y="6"/><text fill="#000000" font-family="Lato,sans-serif" font-size="12" font-weight="bold" lengthAdjust="spacing" textLength="36" x="327.5" y="17.8441">Device</text><rect fill="#FFFFFF" height="208.8007" style="stroke:#808080;stroke-width:1.0;" width="10" x="59" y="620.0528"/><rect fill="#FFFFFF" height="1015.2541" style="stroke:#808080;stroke-width:1.0;" width="10" x="210" y="63.8002"/><rect fill="#DDDDDD" height="31.4001" style="stroke:#808080;stroke-width:1.0;" width="10" x="467" y="119.6004"/><rect fill="#DDDDDD" height="28.4001" style="stroke:#808080;stroke-width:1.0;" width="10" x="467" y="211.8007"/><rect fill="#DDDDDD" height="28.4001" style="stroke:#808080;stroke-width:1.0;" width="10" x="467" y="268.6009"/><rect fill="#DDDDDD" height="31.4001" style="stroke:#808080;stroke-width:1.0;" width="10" x="467" y="360.8012"/><rect fill="#DDDDDD" height="103.2511" style="stroke:#808080;stroke-width:1.0;" width="10" x="467" y="456.0015"/><rect fill="#DDDDDD" height="31.4001" style="stroke:#808080;stroke-width:1.0;" width="10" x="467" y="651.4529"/><rect fill="#DDDDDD" height="28.4001" style="stroke:#808080;stroke-width:1.0;" width="10" x="467" y="772.0533"/><rect fill="#DDDDDD" height="28.4001" style="stroke:#808080;stroke-width:1.0;" width="10" x="467" y="857.2536"/><rect fill="#DDDDDD" height="28.4001" style="stroke:#808080;stroke-width:1.0;" width="10" x="467" y="914.0538"/><rect fill="#DDDDDD" height="41.4001" style="stroke:#808080;stroke-width:1.0;" width="10" x="467" y="973.854"/><rect fill="#ADD8E6" height="55.8002" style="stroke:#808080;stroke-width:1.0;" width="10" x="564" y="63.8002"/><rect fill="#98FB98" height="117.6004" style="stroke:#808080;stroke-width:1.0;" width="10" x="564" y="151.0005"/><rect fill="#FFA07A" height="63.8002" style="stroke:#808080;stroke-width:1.0;" width="10" x="564" y="297.001"/><rect fill="#EEE8AA" height="581.6527" style="stroke:#808080;stroke-width:1.0;" width="10" x="564" y="392.2013"/><rect fill="#F08080" height="115.2003" style="stroke:#808080;stroke-width:1.0;" width="10" x="564" y="1015.2541"/><rect fill="#ADD8E6" height="92.2003" style="stroke:#808080;stroke-width:1.0;" width="10" x="652.5" y="559.2526"/><rect fill="#98FB98" height="231.2008" style="stroke:#808080;stroke-width:1.0;" width="10" x="652.5" y="682.853"/><rect fill="#FFFFFF" fill-opacity="0.50196" height="476.4524" rx="4" ry="4" style="stroke:#808080;stroke-width:1.0;" width="688" x="10" y="508.4016"/><line style="stroke:#808080;stroke-width:0.5;stroke-dasharray:5.0,5.0;" x1="64" x2="64" y1="53.8002" y2="1139.4544"/><line style="stroke:#808080;stroke-width:0.5;stroke-dasharray:5.0,5.0;" x1="215" x2="215" y1="53.8002" y2="1139.4544"/><line style="stroke:#808080;stroke-width:0.5;stroke-dasharray:5.0,5.0;" x1="330" x2="330" y1="53.8002" y2="1139.4544"/><line style="stroke:#808080;stroke-width:0.5;stroke-dasharray:5.0,5.0;" x1="472" x2="472" y1="53.8002" y2="1139.4544"/><line style="stroke:#808080;stroke-width:0.5;stroke-dasharray:5.0,5.0;" x1="569" x2="569" y1="53.8002" y2="1139.4544"/><line style="stroke:#808080;stroke-width:0.5;stroke-dasharray:5.0,5.0;" x1="657" x2="657" y1="53.8002" y2="1139.4544"/><rect fill="#FFFFFF" height="28.4001" rx="4" ry="4" style="stroke:#000000;stroke-width:1.0;" width="88" x="20" y="24.4001"/><text fill="#000000" font-family="Lato,sans-serif" font-size="12" lengthAdjust="spacing" textLength="74" x="27" y="43.2442">Update server</text><rect fill="#FFFFFF" height="28.4001" rx="4" ry="4" style="stroke:#000000;stroke-width:1.0;" width="84" x="173" y="24.4001"/><text fill="#000000" font-family="Lato,sans-serif" font-size="12" lengthAdjust="spacing" textLength="70" x="180" y="43.2442">Update client</text><rect fill="#FFFFFF" height="28.4001" rx="4" ry="4" style="stroke:#000000;stroke-width:1.0;" width="127" x="267" y="24.4001"/><text fill="#000000" font-family="Lato,sans-serif" font-size="12" lengthAdjust="spacing" textLength="113" x="274" y="43.2442">Firmware Update API</text><rect fill="#FFFFFF" height="28.4001" rx="4" ry="4" style="stroke:#000000;stroke-width:1.0;" width="92" x="426" y="24.4001"/><text fill="#000000" font-family="Lato,sans-serif" font-size="12" lengthAdjust="spacing" textLength="78" x="433" y="43.2442">Update service</text><text fill="#000000" font-family="Lato,sans-serif" font-size="12" lengthAdjust="spacing" textLength="76" x="528" y="51.2442">Envelope state</text><ellipse cx="569" cy="23.4001" fill="#FFFFFF" rx="12" ry="12" style="stroke:#000000;stroke-width:1.0;"/><line style="stroke:#000000;stroke-width:1.0;" x1="557" x2="581" y1="37.4001" y2="37.4001"/><text fill="#000000" font-family="Lato,sans-serif" font-size="12" lengthAdjust="spacing" textLength="69" x="620" y="51.2442">Payload state</text><ellipse cx="657.5" cy="23.4001" fill="#FFFFFF" rx="12" ry="12" style="stroke:#000000;stroke-width:1.0;"/><line style="stroke:#000000;stroke-width:1.0;" x1="645.5" x2="669.5" y1="37.4001" y2="37.4001"/><rect fill="#FFFFFF" height="208.8007" style="stroke:#808080;stroke-width:1.0;" width="10" x="59" y="620.0528"/><rect fill="#FFFFFF" height="1015.2541" style="stroke:#808080;stroke-width:1.0;" width="10" x="210" y="63.8002"/><rect fill="#DDDDDD" height="31.4001" style="stroke:#808080;stroke-width:1.0;" width="10" x="467" y="119.6004"/><rect fill="#DDDDDD" height="28.4001" style="stroke:#808080;stroke-width:1.0;" width="10" x="467" y="211.8007"/><rect fill="#DDDDDD" height="28.4001" style="stroke:#808080;stroke-width:1.0;" width="10" x="467" y="268.6009"/><rect fill="#DDDDDD" height="31.4001" style="stroke:#808080;stroke-width:1.0;" width="10" x="467" y="360.8012"/><rect fill="#DDDDDD" height="103.2511" style="stroke:#808080;stroke-width:1.0;" width="10" x="467" y="456.0015"/><rect fill="#DDDDDD" height="31.4001" style="stroke:#808080;stroke-width:1.0;" width="10" x="467" y="651.4529"/><rect fill="#DDDDDD" height="28.4001" style="stroke:#808080;stroke-width:1.0;" width="10" x="467" y="772.0533"/><rect fill="#DDDDDD" height="28.4001" style="stroke:#808080;stroke-width:1.0;" width="10" x="467" y="857.2536"/><rect fill="#DDDDDD" height="28.4001" style="stroke:#808080;stroke-width:1.0;" width="10" x="467" y="914.0538"/><rect fill="#DDDDDD" height="41.4001" style="stroke:#808080;stroke-width:1.0;" width="10" x="467" y="973.854"/><rect fill="#ADD8E6" height="55.8002" style="stroke:#808080;stroke-width:1.0;" width="10" x="564" y="63.8002"/><rect fill="#98FB98" height="117.6004" style="stroke:#808080;stroke-width:1.0;" width="10" x="564" y="151.0005"/><rect fill="#FFA07A" height="63.8002" style="stroke:#808080;stroke-width:1.0;" width="10" x="564" y="297.001"/><rect fill="#EEE8AA" height="581.6527" style="stroke:#808080;stroke-width:1.0;" width="10" x="564" y="392.2013"/><rect fill="#F08080" height="115.2003" style="stroke:#808080;stroke-width:1.0;" width="10" x="564" y="1015.2541"/><rect fill="#ADD8E6" height="92.2003" style="stroke:#808080;stroke-width:1.0;" width="10" x="652.5" y="559.2526"/><rect fill="#98FB98" height="231.2008" style="stroke:#808080;stroke-width:1.0;" width="10" x="652.5" y="682.853"/><rect fill="#ADD8E6" height="22" rx="4" ry="4" style="stroke:#181818;stroke-width:1.0;" width="48" x="545" y="68.8002"/><text fill="#000000" font-family="Lato,sans-serif" font-size="12" lengthAdjust="spacing" textLength="40" x="549" y="84.6443">READY</text><polygon fill="#000000" points="455,115.6004,465,119.6004,455,123.6004" style="stroke:#000000;stroke-width:1.0;"/><line style="stroke:#000000;stroke-width:1.0;" x1="220" x2="461" y1="119.6004" y2="119.6004"/><text fill="#000000" font-family="Lato,sans-serif" font-size="12" font-weight="bold" lengthAdjust="spacing" textLength="7" x="227" y="115.0444">1</text><text fill="#000000" font-family="Consolas,Menlo,monospace" font-size="12" lengthAdjust="spacing" textLength="182" x="238" y="114.3379">psa_fwu_start(envelope_id)</text><path d="M60,105.2003 L60,121.2003 A4,4 0 0 0 64,125.2003 L201,125.2003 A4,4 0 0 0 205,121.2003 L205,111.2003 L195,101.2003 L64,101.2003 A4,4 0 0 0 60,105.2003 " fill="#E8E8E8" style="stroke:#181818;stroke-width:1.0;"/><path d="M195,101.2003 L195,109.2003 A2,2 0 0 0 197,111.2003 L205,111.2003 L195,101.2003 " fill="#E8E8E8" style="stroke:#181818;stroke-width:1.0;"/><text fill="#000000" font-family="Lato,sans-serif" font-size="12" lengthAdjust="spacing" textLength="124" x="66" y="118.0444">Transfer SUIT Envelope</text><polygon fill="#000000" points="231,147.0005,221,151.0005,231,155.0005" style="stroke:#000000;stroke-width:1.0;"/><line style="stroke:#000000;stroke-width:1.0;stroke-dasharray:2.0,2.0;" x1="225" x2="471" y1="151.0005" y2="151.0005"/><text fill="#000000" font-family="Lato,sans-serif" font-size="12" font-weight="bold" lengthAdjust="spacing" textLength="7" x="237" y="146.4445">2</text><text fill="#000000" font-family="Consolas,Menlo,monospace" font-size="12" lengthAdjust="spacing" textLength="77" x="248" y="145.738">PSA_SUCCESS</text><rect fill="#98FB98" height="22" rx="4" ry="4" style="stroke:#181818;stroke-width:1.0;" width="61" x="538" y="164.0005"/><text fill="#000000" font-family="Lato,sans-serif" font-size="12" lengthAdjust="spacing" textLength="53" x="542" y="179.8446">WRITING</text><polygon fill="#000000" points="455,207.8007,465,211.8007,455,215.8007" style="stroke:#000000;stroke-width:1.0;"/><line style="stroke:#000000;stroke-width:1.0;" x1="220" x2="461" y1="211.8007" y2="211.8007"/><text fill="#000000" font-family="Lato,sans-serif" font-size="12" font-weight="bold" lengthAdjust="spacing" textLength="7" x="227" y="207.2447">3</text><text fill="#000000" font-family="Consolas,Menlo,monospace" font-size="12" lengthAdjust="spacing" textLength="217" x="238" y="206.5382">psa_fwu_write(envelope_id, ...)</text><polygon fill="#000000" points="231,236.2008,221,240.2008,231,244.2008" style="stroke:#000000;stroke-width:1.0;"/><line style="stroke:#000000;stroke-width:1.0;stroke-dasharray:2.0,2.0;" x1="225" x2="471" y1="240.2008" y2="240.2008"/><text fill="#000000" font-family="Lato,sans-serif" font-size="12" font-weight="bold" lengthAdjust="spacing" textLength="7" x="237" y="235.6448">4</text><text fill="#000000" font-family="Consolas,Menlo,monospace" font-size="12" lengthAdjust="spacing" textLength="77" x="248" y="234.9383">PSA_SUCCESS</text><polygon fill="#000000" points="455,264.6009,465,268.6009,455,272.6009" style="stroke:#000000;stroke-width:1.0;"/><line style="stroke:#000000;stroke-width:1.0;" x1="220" x2="461" y1="268.6009" y2="268.6009"/><text fill="#000000" font-family="Lato,sans-serif" font-size="12" font-weight="bold" lengthAdjust="spacing" textLength="7" x="227" y="264.0449">5</text><text fill="#000000" font-family="Consolas,Menlo,monospace" font-size="12" lengthAdjust="spacing" textLength="189" x="238" y="263.3384">psa_fwu_finish(envelope_id)</text><polygon fill="#000000" points="231,293.001,221,297.001,231,301.001" style="stroke:#000000;stroke-width:1.0;"/><line style="stroke:#000000;stroke-width:1.0;stroke-dasharray:2.0,2.0;" x1="225" x2="471" y1="297.001" y2="297.001"/><text fill="#000000" font-family="Lato,sans-serif" font-size="12" font-weight="bold" lengthAdjust="spacing" textLength="7" x="237" y="292.445">6</text><text fill="#000000" font-family="Consolas,Menlo,monospace" font-size="12" lengthAdjust="spacing" textLength="77" x="248" y="291.7385">PSA_SUCCESS</text><rect fill="#FFA07A" height="22" rx="4" ry="4" style="stroke:#181818;stroke-width:1.0;" width="77" x="530" y="310.001"/><text fill="#000000" font-family="Lato,sans-serif" font-size="12" lengthAdjust="spacing" textLength="69" x="534" y="325.8451">CANDIDATE</text><polygon fill="#000000" points="455,356.8012,465,360.8012,455,364.8012" style="stroke:#000000;stroke-width:1.0;"/><line style="stroke:#000000;stroke-width:1.0;" x1="220" x2="461" y1="360.8012" y2="360.8012"/><text fill="#000000" font-family="Lato,sans-serif" font-size="12" font-weight="bold" lengthAdjust="spacing" textLength="7" x="227" y="356.2452">7</text><text fill="#000000" font-family="Consolas,Menlo,monospace" font-size="12" lengthAdjust="spacing" textLength="119" x="238" y="355.5387">psa_fwu_install()</text><path d="M55,346.4011 L55,362.4011 A4,4 0 0 0 59,366.4011 L201,366.4011 A4,4 0 0 0 205,362.4011 L205,352.4011 L195,342.4011 L59,342.4011 A4,4 0 0 0 55,346.4011 " fill="#E8E8E8" style="stroke:#181818;stroke-width:1.0;"/><path d="M195,342.4011 L195,350.4011 A2,2 0 0 0 197,352.4011 L205,352.4011 L195,342.4011 " fill="#E8E8E8" style="stroke:#181818;stroke-width:1.0;"/><text fill="#000000" font-family="Lato,sans-serif" font-size="12" lengthAdjust="spacing" textLength="129" x="61" y="359.2452">Proceed with installation</text><polygon fill="#000000" points="231,388.2013,221,392.2013,231,396.2013" style="stroke:#000000;stroke-width:1.0;"/><line style="stroke:#000000;stroke-width:1.0;stroke-dasharray:2.0,2.0;" x1="225" x2="471" y1="392.2013" y2="392.2013"/><text fill="#000000" font-family="Lato,sans-serif" font-size="12" font-weight="bold" lengthAdjust="spacing" textLength="7" x="237" y="387.6453">8</text><text fill="#000000" font-family="Consolas,Menlo,monospace" font-size="12" lengthAdjust="spacing" textLength="189" x="248" y="386.9388">PSA_FWU_PROCESSING_REQUIRED</text><rect fill="#EEE8AA" height="22" rx="4" ry="4" style="stroke:#181818;stroke-width:1.0;" width="82" x="528" y="405.2013"/><text fill="#000000" font-family="Lato,sans-serif" font-size="12" lengthAdjust="spacing" textLength="74" x="532" y="421.0454">PROCESSING</text><polygon fill="#000000" points="455,452.0015,465,456.0015,455,460.0015" style="stroke:#000000;stroke-width:1.0;"/><line style="stroke:#000000;stroke-width:1.0;" x1="220" x2="461" y1="456.0015" y2="456.0015"/><text fill="#000000" font-family="Lato,sans-serif" font-size="12" font-weight="bold" lengthAdjust="spacing" textLength="7" x="227" y="451.4455">9</text><text fill="#000000" font-family="Consolas,Menlo,monospace" font-size="12" lengthAdjust="spacing" textLength="119" x="238" y="450.739">psa_fwu_process()</text><path d="M68,441.6014 L68,457.6014 A4,4 0 0 0 72,461.6014 L201,461.6014 A4,4 0 0 0 205,457.6014 L205,447.6014 L195,437.6014 L72,437.6014 A4,4 0 0 0 68,441.6014 " fill="#E8E8E8" style="stroke:#181818;stroke-width:1.0;"/><path d="M195,437.6014 L195,445.6014 A2,2 0 0 0 197,447.6014 L205,447.6014 L195,437.6014 " fill="#E8E8E8" style="stroke:#181818;stroke-width:1.0;"/><text fill="#000000" font-family="Lato,sans-serif" font-size="12" lengthAdjust="spacing" textLength="116" x="74" y="454.4455">Process SUIT manifest</text><path d="M370,476.0015 L370,492.0015 A4,4 0 0 0 374,496.0015 L570,496.0015 A4,4 0 0 0 574,492.0015 L574,482.0015 L564,472.0015 L374,472.0015 A4,4 0 0 0 370,476.0015 " fill="#E8E8E8" style="stroke:#181818;stroke-width:1.0;"/><path d="M564,472.0015 L564,480.0015 A2,2 0 0 0 566,482.0015 L574,482.0015 L564,472.0015 " fill="#E8E8E8" style="stroke:#181818;stroke-width:1.0;"/><text fill="#000000" font-family="Consolas,Menlo,monospace" font-size="12" lengthAdjust="spacing" textLength="126" x="376" y="488.3137">suit-payload-fetch</text><text fill="#000000" font-family="Lato,sans-serif" font-size="12" lengthAdjust="spacing" textLength="50" x="509" y="488.8456">sequence</text><path d="M14,508.4016 L79,508.4016 L79,514.8017 L69,524.8017 L10,524.8017 L10,512.4016 A4,4 0 0 1 14,508.4016 " fill="#F0F0F0" style="stroke:#808080;stroke-width:1.5;"/><rect fill="none" height="476.4524" rx="4" ry="4" style="stroke:#808080;stroke-width:1.0;" width="688" x="10" y="508.4016"/><text fill="#000000" font-family="Lato,sans-serif" font-size="12" lengthAdjust="spacing" textLength="24" x="25" y="521.2457">loop</text><text fill="#000000" font-family="Lato,sans-serif" font-size="11" font-weight="bold" lengthAdjust="spacing" textLength="197" x="94" y="521.2588">[While additional payloads are required]</text><polygon fill="#000000" points="231,555.2526,221,559.2526,231,563.2526" style="stroke:#000000;stroke-width:1.0;"/><line style="stroke:#000000;stroke-width:1.0;stroke-dasharray:2.0,2.0;" x1="225" x2="471" y1="559.2526" y2="559.2526"/><text fill="#000000" font-family="Lato,sans-serif" font-size="12" font-weight="bold" lengthAdjust="spacing" textLength="14" x="237" y="547.6712">10</text><text fill="#000000" font-family="Consolas,Menlo,monospace" font-size="12" lengthAdjust="spacing" textLength="168" x="255" y="539.7646">PSA_FWU_PAYLOAD_REQUIRED</text><text fill="#000000" font-family="Lato,sans-serif" font-size="12" lengthAdjust="spacing" textLength="116" x="259" y="554.6966">+ payload information</text><rect fill="#ADD8E6" height="22" rx="4" ry="4" style="stroke:#181818;stroke-width:1.0;" width="48" x="633" y="572.2526"/><text fill="#000000" font-family="Lato,sans-serif" font-size="12" lengthAdjust="spacing" textLength="40" x="637" y="588.0967">READY</text><line style="stroke:#000000;stroke-width:1.0;" x1="70" x2="80" y1="620.0528" y2="616.0528"/><line style="stroke:#000000;stroke-width:1.0;" x1="70" x2="80" y1="620.0528" y2="624.0528"/><line style="stroke:#000000;stroke-width:1.0;" x1="69" x2="209" y1="620.0528" y2="620.0528"/><text fill="#000000" font-family="Lato,sans-serif" font-size="12" font-weight="bold" lengthAdjust="spacing" textLength="14" x="86" y="615.4968">11</text><text fill="#000000" font-family="Lato,sans-serif" font-size="12" lengthAdjust="spacing" textLength="74" x="104" y="615.4968">Fetch payload</text><polygon fill="#000000" points="455,647.4529,465,651.4529,455,655.4529" style="stroke:#000000;stroke-width:1.0;"/><line style="stroke:#000000;stroke-width:1.0;" x1="220" x2="461" y1="651.4529" y2="651.4529"/><text fill="#000000" font-family="Lato,sans-serif" font-size="12" font-weight="bold" lengthAdjust="spacing" textLength="14" x="227" y="646.8969">12</text><text fill="#000000" font-family="Consolas,Menlo,monospace" font-size="12" lengthAdjust="spacing" textLength="175" x="245" y="646.1903">psa_fwu_start(payload_id)</text><path d="M95,637.0528 L95,653.0528 A4,4 0 0 0 99,657.0528 L201,657.0528 A4,4 0 0 0 205,653.0528 L205,643.0528 L195,633.0528 L99,633.0528 A4,4 0 0 0 95,637.0528 " fill="#E8E8E8" style="stroke:#181818;stroke-width:1.0;"/><path d="M195,633.0528 L195,641.0528 A2,2 0 0 0 197,643.0528 L205,643.0528 L195,633.0528 " fill="#E8E8E8" style="stroke:#181818;stroke-width:1.0;"/><text fill="#000000" font-family="Lato,sans-serif" font-size="12" lengthAdjust="spacing" textLength="89" x="101" y="649.8969">Transfer payload</text><polygon fill="#000000" points="231,678.853,221,682.853,231,686.853" style="stroke:#000000;stroke-width:1.0;"/><line style="stroke:#000000;stroke-width:1.0;stroke-dasharray:2.0,2.0;" x1="225" x2="471" y1="682.853" y2="682.853"/><text fill="#000000" font-family="Lato,sans-serif" font-size="12" font-weight="bold" lengthAdjust="spacing" textLength="14" x="237" y="678.297">13</text><text fill="#000000" font-family="Consolas,Menlo,monospace" font-size="12" lengthAdjust="spacing" textLength="77" x="255" y="677.5904">PSA_SUCCESS</text><rect fill="#98FB98" height="22" rx="4" ry="4" style="stroke:#181818;stroke-width:1.0;" width="61" x="627" y="695.853"/><text fill="#000000" font-family="Lato,sans-serif" font-size="12" lengthAdjust="spacing" textLength="53" x="631" y="711.6971">WRITING</text><line style="stroke:#000000;stroke-width:1.0;" x1="208" x2="198" y1="743.6532" y2="739.6532"/><line style="stroke:#000000;stroke-width:1.0;" x1="208" x2="198" y1="743.6532" y2="747.6532"/><line style="stroke:#000000;stroke-width:1.0;stroke-dasharray:2.0,2.0;" x1="69" x2="209" y1="743.6532" y2="743.6532"/><text fill="#000000" font-family="Lato,sans-serif" font-size="12" font-weight="bold" lengthAdjust="spacing" textLength="14" x="76" y="739.0972">14</text><text fill="#000000" font-family="Lato,sans-serif" font-size="12" lengthAdjust="spacing" textLength="99" x="94" y="739.0972">Download payload</text><polygon fill="#000000" points="455,768.0533,465,772.0533,455,776.0533" style="stroke:#000000;stroke-width:1.0;"/><line style="stroke:#000000;stroke-width:1.0;" x1="220" x2="461" y1="772.0533" y2="772.0533"/><text fill="#000000" font-family="Lato,sans-serif" font-size="12" font-weight="bold" lengthAdjust="spacing" textLength="14" x="227" y="767.4973">15</text><text fill="#000000" font-family="Consolas,Menlo,monospace" font-size="12" lengthAdjust="spacing" textLength="210" x="245" y="766.7907">psa_fwu_write(payload_id, ...)</text><polygon fill="#000000" points="231,796.4534,221,800.4534,231,804.4534" style="stroke:#000000;stroke-width:1.0;"/><line style="stroke:#000000;stroke-width:1.0;stroke-dasharray:2.0,2.0;" x1="225" x2="471" y1="800.4534" y2="800.4534"/><text fill="#000000" font-family="Lato,sans-serif" font-size="12" font-weight="bold" lengthAdjust="spacing" textLength="14" x="237" y="795.8974">16</text><text fill="#000000" font-family="Consolas,Menlo,monospace" font-size="12" lengthAdjust="spacing" textLength="77" x="255" y="795.1908">PSA_SUCCESS</text><line style="stroke:#000000;stroke-width:1.0;" x1="208" x2="198" y1="828.8535" y2="824.8535"/><line style="stroke:#000000;stroke-width:1.0;" x1="208" x2="198" y1="828.8535" y2="832.8535"/><line style="stroke:#000000;stroke-width:1.0;stroke-dasharray:2.0,2.0;" x1="64" x2="209" y1="828.8535" y2="828.8535"/><text fill="#000000" font-family="Lato,sans-serif" font-size="12" font-weight="bold" lengthAdjust="spacing" textLength="14" x="71" y="824.2975">17</text><text fill="#000000" font-family="Lato,sans-serif" font-size="12" lengthAdjust="spacing" textLength="99" x="89" y="824.2975">Download payload</text><polygon fill="#000000" points="455,853.2536,465,857.2536,455,861.2536" style="stroke:#000000;stroke-width:1.0;"/><line style="stroke:#000000;stroke-width:1.0;" x1="220" x2="461" y1="857.2536" y2="857.2536"/><text fill="#000000" font-family="Lato,sans-serif" font-size="12" font-weight="bold" lengthAdjust="spacing" textLength="14" x="227" y="852.6976">18</text><text fill="#000000" font-family="Consolas,Menlo,monospace" font-size="12" lengthAdjust="spacing" textLength="210" x="245" y="851.9911">psa_fwu_write(payload_id, ...)</text><polygon fill="#000000" points="231,881.6537,221,885.6537,231,889.6537" style="stroke:#000000;stroke-width:1.0;"/><line style="stroke:#000000;stroke-width:1.0;stroke-dasharray:2.0,2.0;" x1="225" x2="471" y1="885.6537" y2="885.6537"/><text fill="#000000" font-family="Lato,sans-serif" font-size="12" font-weight="bold" lengthAdjust="spacing" textLength="14" x="237" y="881.0977">19</text><text fill="#000000" font-family="Consolas,Menlo,monospace" font-size="12" lengthAdjust="spacing" textLength="77" x="255" y="880.3912">PSA_SUCCESS</text><polygon fill="#000000" points="455,910.0538,465,914.0538,455,918.0538" style="stroke:#000000;stroke-width:1.0;"/><line style="stroke:#000000;stroke-width:1.0;" x1="220" x2="461" y1="914.0538" y2="914.0538"/><text fill="#000000" font-family="Lato,sans-serif" font-size="12" font-weight="bold" lengthAdjust="spacing" textLength="14" x="227" y="909.4978">20</text><text fill="#000000" font-family="Consolas,Menlo,monospace" font-size="12" lengthAdjust="spacing" textLength="182" x="245" y="908.7913">psa_fwu_finish(payload_id)</text><polygon fill="#000000" points="231,938.4539,221,942.4539,231,946.4539" style="stroke:#000000;stroke-width:1.0;"/><line style="stroke:#000000;stroke-width:1.0;stroke-dasharray:2.0,2.0;" x1="225" x2="471" y1="942.4539" y2="942.4539"/><text fill="#000000" font-family="Lato,sans-serif" font-size="12" font-weight="bold" lengthAdjust="spacing" textLength="14" x="237" y="937.8979">21</text><text fill="#000000" font-family="Consolas,Menlo,monospace" font-size="12" lengthAdjust="spacing" textLength="77" x="255" y="937.1914">PSA_SUCCESS</text><polygon fill="#000000" points="455,969.854,465,973.854,455,977.854" style="stroke:#000000;stroke-width:1.0;"/><line style="stroke:#000000;stroke-width:1.0;" x1="220" x2="461" y1="973.854" y2="973.854"/><text fill="#000000" font-family="Lato,sans-serif" font-size="12" font-weight="bold" lengthAdjust="spacing" textLength="14" x="227" y="969.298">22</text><text fill="#000000" font-family="Consolas,Menlo,monospace" font-size="12" lengthAdjust="spacing" textLength="119" x="245" y="968.5915">psa_fwu_process()</text><path d="M55,959.4539 L55,975.4539 A4,4 0 0 0 59,979.4539 L201,979.4539 A4,4 0 0 0 205,975.4539 L205,965.4539 L195,955.4539 L59,955.4539 A4,4 0 0 0 55,959.4539 " fill="#E8E8E8" style="stroke:#181818;stroke-width:1.0;"/><path d="M195,955.4539 L195,963.4539 A2,2 0 0 0 197,965.4539 L205,965.4539 L195,955.4539 " fill="#E8E8E8" style="stroke:#181818;stroke-width:1.0;"/><text fill="#000000" font-family="Lato,sans-serif" font-size="12" lengthAdjust="spacing" textLength="129" x="61" y="972.298">Resume SUIT processing</text><polygon fill="#000000" points="231,1011.2541,221,1015.2541,231,1019.2541" style="stroke:#000000;stroke-width:1.0;"/><line style="stroke:#000000;stroke-width:1.0;stroke-dasharray:2.0,2.0;" x1="225" x2="471" y1="1015.2541" y2="1015.2541"/><text fill="#000000" font-family="Lato,sans-serif" font-size="12" font-weight="bold" lengthAdjust="spacing" textLength="14" x="237" y="1010.6981">23</text><text fill="#000000" font-family="Consolas,Menlo,monospace" font-size="12" lengthAdjust="spacing" textLength="161" x="255" y="1009.9916">PSA_FWU_REBOOT_REQUIRED</text><path d="M23,1000.854 L23,1016.854 A4,4 0 0 0 27,1020.854 L201,1020.854 A4,4 0 0 0 205,1016.854 L205,1006.854 L195,996.854 L27,996.854 A4,4 0 0 0 23,1000.854 " fill="#E8E8E8" style="stroke:#181818;stroke-width:1.0;"/><path d="M195,996.854 L195,1004.854 A2,2 0 0 0 197,1006.854 L205,1006.854 L195,996.854 " fill="#E8E8E8" style="stroke:#181818;stroke-width:1.0;"/><text fill="#000000" font-family="Lato,sans-serif" font-size="12" lengthAdjust="spacing" textLength="161" x="29" y="1013.6981">Reboot to continue installation</text><rect fill="#F08080" height="22" rx="4" ry="4" style="stroke:#181818;stroke-width:1.0;" width="54" x="542" y="1031.2541"/><text fill="#000000" font-family="Lato,sans-serif" font-size="12" lengthAdjust="spacing" textLength="46" x="546" y="1047.0982">STAGED</text><line style="stroke:#000000;stroke-width:1.0;" x1="706" x2="696" y1="1079.0543" y2="1075.0543"/><line style="stroke:#000000;stroke-width:1.0;" x1="706" x2="696" y1="1079.0543" y2="1083.0543"/><line style="stroke:#000000;stroke-width:1.0;stroke-dasharray:2.0,2.0;" x1="215" x2="707" y1="1079.0543" y2="1079.0543"/><text fill="#000000" font-family="Lato,sans-serif" font-size="12" font-weight="bold" lengthAdjust="spacing" textLength="14" x="222" y="1074.4983">24</text><text fill="#000000" font-family="Lato,sans-serif" font-size="12" lengthAdjust="spacing" textLength="81" x="240" y="1074.4983">Request reboot</text><rect fill="#EEEEEE" height="3" rx="4" ry="4" style="stroke:#EEEEEE;stroke-width:1.0;" width="708" x="0" y="1107.2544"/><line style="stroke:#000000;stroke-width:1.0;" x1="0" x2="708" y1="1107.2544" y2="1107.2544"/><line style="stroke:#000000;stroke-width:1.0;" x1="0" x2="708" y1="1110.2544" y2="1110.2544"/><rect fill="#EEEEEE" height="22.4001" rx="4" ry="4" style="stroke:#000000;stroke-width:2.0;" width="98" x="305" y="1097.0543"/><text fill="#000000" font-family="Lato,sans-serif" font-size="12" font-weight="bold" lengthAdjust="spacing" textLength="82" x="311" y="1112.8984">System restarts</text></g></svg>