<?xml version="1.0" encoding="UTF-8" standalone="no"?><svg xmlns="http://www.w3.org/2000/svg" xmlns:xlink="http://www.w3.org/1999/xlink" contentStyleType="text/css" height="1140px" preserveAspectRatio="none" style="width:715px;height:1140px;background:#FFFFFF55;" version="1.1" viewBox="0 0 715 1140" width="715px" zoomAndPan="magnify"><defs/><g><rect fill="#E0E0E0" fill-opacity="0.75294" height="1121.8545" rx="4" ry="4" style="stroke:none;stroke-width:0.5;" width="96" x="16" y="6"/><text fill="#000000" font-family="Lato,sans-serif" font-size="12" font-weight="bold" lengthAdjust="spacing" textLength="48" x="40" y="17.8441">Network</text><rect fill="#E0E0E0" fill-opacity="0.75294" height="1121.8545" rx="4" ry="4" style="stroke:none;stroke-width:0.5;" width="353" x="169" y="6"/><text fill="#000000" font-family="Lato,sans-serif" font-size="12" font-weight="bold" lengthAdjust="spacing" textLength="36" x="327.5" y="17.8441">Device</text><rect fill="#FFFFFF" height="208.8007" style="stroke:#808080;stroke-width:1.0;" width="10" x="59" y="519.2526"/><rect fill="#FFFFFF" height="1009.6542" style="stroke:#808080;stroke-width:1.0;" width="10" x="210" y="63.8002"/><rect fill="#DDDDDD" height="31.4001" style="stroke:#808080;stroke-width:1.0;" width="10" x="467" y="119.6004"/><rect fill="#DDDDDD" height="28.4001" style="stroke:#808080;stroke-width:1.0;" width="10" x="467" y="211.8007"/><rect fill="#DDDDDD" height="28.4001" style="stroke:#808080;stroke-width:1.0;" width="10" x="467" y="268.6009"/><rect fill="#DDDDDD" height="83.2511" style="stroke:#808080;stroke-width:1.0;" width="10" x="467" y="375.2013"/><rect fill="#DDDDDD" height="31.4001" style="stroke:#808080;stroke-width:1.0;" width="10" x="467" y="550.6527"/><rect fill="#DDDDDD" height="28.4001" style="stroke:#808080;stroke-width:1.0;" width="10" x="467" y="671.2531"/><rect fill="#DDDDDD" height="28.4001" style="stroke:#808080;stroke-width:1.0;" width="10" x="467" y="756.4534"/><rect fill="#DDDDDD" height="28.4001" style="stroke:#808080;stroke-width:1.0;" width="10" x="467" y="813.2536"/><rect fill="#DDDDDD" height="41.4001" style="stroke:#808080;stroke-width:1.0;" width="10" x="467" y="873.0538"/><rect fill="#DDDDDD" height="31.4001" style="stroke:#808080;stroke-width:1.0;" width="10" x="467" y="981.2541"/><rect fill="#ADD8E6" height="55.8002" style="stroke:#808080;stroke-width:1.0;" width="10" x="564" y="63.8002"/><rect fill="#98FB98" height="117.6004" style="stroke:#808080;stroke-width:1.0;" width="10" x="564" y="151.0005"/><rect fill="#EEE8AA" height="576.0528" style="stroke:#808080;stroke-width:1.0;" width="10" x="564" y="297.001"/><rect fill="#FAFAD2" height="354.8012" style="stroke:#808080;stroke-width:1.0;" width="10" x="569" y="458.4524"/><rect fill="#FFA07A" height="66.8002" style="stroke:#808080;stroke-width:1.0;" width="10" x="564" y="914.4539"/><rect fill="#F08080" height="112.2003" style="stroke:#808080;stroke-width:1.0;" width="10" x="564" y="1012.6542"/><rect fill="#ADD8E6" height="92.2003" style="stroke:#808080;stroke-width:1.0;" width="10" x="652.5" y="458.4524"/><rect fill="#98FB98" height="231.2008" style="stroke:#808080;stroke-width:1.0;" width="10" x="652.5" y="582.0528"/><rect fill="#FFFFFF" fill-opacity="0.50196" height="476.4524" rx="4" ry="4" style="stroke:#808080;stroke-width:1.0;" width="688" x="10" y="407.6014"/><line style="stroke:#808080;stroke-width:0.5;stroke-dasharray:5.0,5.0;" x1="64" x2="64" y1="53.8002" y2="1133.8545"/><line style="stroke:#808080;stroke-width:0.5;stroke-dasharray:5.0,5.0;" x1="215" x2="215" y1="53.8002" y2="1133.8545"/><line style="stroke:#808080;stroke-width:0.5;stroke-dasharray:5.0,5.0;" x1="330" x2="330" y1="53.8002" y2="1133.8545"/><line style="stroke:#808080;stroke-width:0.5;stroke-dasharray:5.0,5.0;" x1="472" x2="472" y1="53.8002" y2="1133.8545"/><line style="stroke:#808080;stroke-width:0.5;stroke-dasharray:5.0,5.0;" x1="569" x2="569" y1="53.8002" y2="1133.8545"/><line style="stroke:#808080;stroke-width:0.5;stroke-dasharray:5.0,5.0;" x1="657" x2="657" y1="53.8002" y2="1133.8545"/><rect fill="#FFFFFF" height="28.4001" rx="4" ry="4" style="stroke:#000000;stroke-width:1.0;" width="88" x="20" y="24.4001"/><text fill="#000000" font-family="Lato,sans-serif" font-size="12" lengthAdjust="spacing" textLength="74" x="27" y="43.2442">Update server</text><rect fill="#FFFFFF" height="28.4001" rx="4" ry="4" style="stroke:#000000;stroke-width:1.0;" width="84" x="173" y="24.4001"/><text fill="#000000" font-family="Lato,sans-serif" font-size="12" lengthAdjust="spacing" textLength="70" x="180" y="43.2442">Update client</text><rect fill="#FFFFFF" height="28.4001" rx="4" ry="4" style="stroke:#000000;stroke-width:1.0;" width="127" x="267" y="24.4001"/><text fill="#000000" font-family="Lato,sans-serif" font-size="12" lengthAdjust="spacing" textLength="113" x="274" y="43.2442">Firmware Update API</text><rect fill="#FFFFFF" height="28.4001" rx="4" ry="4" style="stroke:#000000;stroke-width:1.0;" width="92" x="426" y="24.4001"/><text fill="#000000" font-family="Lato,sans-serif" font-size="12" lengthAdjust="spacing" textLength="78" x="433" y="43.2442">Update service</text><text fill="#000000" font-family="Lato,sans-serif" font-size="12" lengthAdjust="spacing" textLength="76" x="528" y="51.2442">Envelope state</text><ellipse cx="569" cy="23.4001" fill="#FFFFFF" rx="12" ry="12" style="stroke:#000000;stroke-width:1.0;"/><line style="stroke:#000000;stroke-width:1.0;" x1="557" x2="581" y1="37.4001" y2="37.4001"/><text fill="#000000" font-family="Lato,sans-serif" font-size="12" lengthAdjust="spacing" textLength="69" x="620" y="51.2442">Payload state</text><ellipse cx="657.5" cy="23.4001" fill="#FFFFFF" rx="12" ry="12" style="stroke:#000000;stroke-width:1.0;"/><line style="stroke:#000000;stroke-width:1.0;" x1="645.5" x2="669.5" y1="37.4001" y2="37.4001"/><rect fill="#FFFFFF" height="208.8007" style="stroke:#808080;stroke-width:1.0;" width="10" x="59" y="519.2526"/><rect fill="#FFFFFF" height="1009.6542" style="stroke:#808080;stroke-width:1.0;" width="10" x="210" y="63.8002"/><rect fill="#DDDDDD" height="31.4001" style="stroke:#808080;stroke-width:1.0;" width="10" x="467" y="119.6004"/><rect fill="#DDDDDD" height="28.4001" style="stroke:#808080;stroke-width:1.0;" width="10" x="467" y="211.8007"/><rect fill="#DDDDDD" height="28.4001" style="stroke:#808080;stroke-width:1.0;" width="10" x="467" y="268.6009"/><rect fill="#DDDDDD" height="83.2511" style="stroke:#808080;stroke-width:1.0;" width="10" x="467" y="375.2013"/><rect fill="#DDDDDD" height="31.4001" style="stroke:#808080;stroke-width:1.0;" width="10" x="467" y="550.6527"/><rect fill="#DDDDDD" height="28.4001" style="stroke:#808080;stroke-width:1.0;" width="10" x="467" y="671.2531"/><rect fill="#DDDDDD" height="28.4001" style="stroke:#808080;stroke-width:1.0;" width="10" x="467" y="756.4534"/><rect fill="#DDDDDD" height="28.4001" style="stroke:#808080;stroke-width:1.0;" width="10" x="467" y="813.2536"/><rect fill="#DDDDDD" height="41.4001" style="stroke:#808080;stroke-width:1.0;" width="10" x="467" y="873.0538"/><rect fill="#DDDDDD" height="31.4001" style="stroke:#808080;stroke-width:1.0;" width="10" x="467" y="981.2541"/><rect fill="#ADD8E6" height="55.8002" style="stroke:#808080;stroke-width:1.0;" width="10" x="564" y="63.8002"/><rect fill="#98FB98" height="117.6004" style="stroke:#808080;stroke-width:1.0;" width="10" x="564" y="151.0005"/><rect fill="#EEE8AA" height="576.0528" style="stroke:#808080;stroke-width:1.0;" width="10" x="564" y="297.001"/><rect fill="#FAFAD2" height="354.8012" style="stroke:#808080;stroke-width:1.0;" width="10" x="569" y="458.4524"/><rect fill="#FFA07A" height="66.8002" style="stroke:#808080;stroke-width:1.0;" width="10" x="564" y="914.4539"/><rect fill="#F08080" height="112.2003" style="stroke:#808080;stroke-width:1.0;" width="10" x="564" y="1012.6542"/><rect fill="#ADD8E6" height="92.2003" style="stroke:#808080;stroke-width:1.0;" width="10" x="652.5" y="458.4524"/><rect fill="#98FB98" height="231.2008" style="stroke:#808080;stroke-width:1.0;" width="10" x="652.5" y="582.0528"/><rect fill="#ADD8E6" height="22" rx="4" ry="4" style="stroke:#181818;stroke-width:1.0;" width="48" x="545" y="68.8002"/><text fill="#000000" font-family="Lato,sans-serif" font-size="12" lengthAdjust="spacing" textLength="40" x="549" y="84.6443">READY</text><polygon fill="#000000" points="455,115.6004,465,119.6004,455,123.6004" style="stroke:#000000;stroke-width:1.0;"/><line style="stroke:#000000;stroke-width:1.0;" x1="220" x2="461" y1="119.6004" y2="119.6004"/><text fill="#000000" font-family="Lato,sans-serif" font-size="12" font-weight="bold" lengthAdjust="spacing" textLength="7" x="227" y="115.0444">1</text><text fill="#000000" font-family="Consolas,Menlo,monospace" font-size="12" lengthAdjust="spacing" textLength="182" x="238" y="114.3379">psa_fwu_start(envelope_id)</text><path d="M60,105.2003 L60,121.2003 A4,4 0 0 0 64,125.2003 L201,125.2003 A4,4 0 0 0 205,121.2003 L205,111.2003 L195,101.2003 L64,101.2003 A4,4 0 0 0 60,105.2003 " fill="#E8E8E8" style="stroke:#181818;stroke-width:1.0;"/><path d="M195,101.2003 L195,109.2003 A2,2 0 0 0 197,111.2003 L205,111.2003 L195,101.2003 " fill="#E8E8E8" style="stroke:#181818;stroke-width:1.0;"/><text fill="#000000" font-family="Lato,sans-serif" font-size="12" lengthAdjust="spacing" textLength="124" x="66" y="118.0444">Transfer SUIT Envelope</text><polygon fill="#000000" points="231,147.0005,221,151.0005,231,155.0005" style="stroke:#000000;stroke-width:1.0;"/><line style="stroke:#000000;stroke-width:1.0;stroke-dasharray:2.0,2.0;" x1="225" x2="471" y1="151.0005" y2="151.0005"/><text fill="#000000" font-family="Lato,sans-serif" font-size="12" font-weight="bold" lengthAdjust="spacing" textLength="7" x="237" y="146.4445">2</text><text fill="#000000" font-family="Consolas,Menlo,monospace" font-size="12" lengthAdjust="spacing" textLength="77" x="248" y="145.738">PSA_SUCCESS</text><rect fill="#98FB98" height="22" rx="4" ry="4" style="stroke:#181818;stroke-width:1.0;" width="61" x="538" y="164.0005"/><text fill="#000000" font-family="Lato,sans-serif" font-size="12" lengthAdjust="spacing" textLength="53" x="542" y="179.8446">WRITING</text><polygon fill="#000000" points="455,207.8007,465,211.8007,455,215.8007" style="stroke:#000000;stroke-width:1.0;"/><line style="stroke:#000000;stroke-width:1.0;" x1="220" x2="461" y1="211.8007" y2="211.8007"/><text fill="#000000" font-family="Lato,sans-serif" font-size="12" font-weight="bold" lengthAdjust="spacing" textLength="7" x="227" y="207.2447">3</text><text fill="#000000" font-family="Consolas,Menlo,monospace" font-size="12" lengthAdjust="spacing" textLength="217" x="238" y="206.5382">psa_fwu_write(envelope_id, ...)</text><polygon fill="#000000" points="231,236.2008,221,240.2008,231,244.2008" style="stroke:#000000;stroke-width:1.0;"/><line style="stroke:#000000;stroke-width:1.0;stroke-dasharray:2.0,2.0;" x1="225" x2="471" y1="240.2008" y2="240.2008"/><text fill="#000000" font-family="Lato,sans-serif" font-size="12" font-weight="bold" lengthAdjust="spacing" textLength="7" x="237" y="235.6448">4</text><text fill="#000000" font-family="Consolas,Menlo,monospace" font-size="12" lengthAdjust="spacing" textLength="77" x="248" y="234.9383">PSA_SUCCESS</text><polygon fill="#000000" points="455,264.6009,465,268.6009,455,272.6009" style="stroke:#000000;stroke-width:1.0;"/><line style="stroke:#000000;stroke-width:1.0;" x1="220" x2="461" y1="268.6009" y2="268.6009"/><text fill="#000000" font-family="Lato,sans-serif" font-size="12" font-weight="bold" lengthAdjust="spacing" textLength="7" x="227" y="264.0449">5</text><text fill="#000000" font-family="Consolas,Menlo,monospace" font-size="12" lengthAdjust="spacing" textLength="189" x="238" y="263.3384">psa_fwu_finish(envelope_id)</text><polygon fill="#000000" points="231,293.001,221,297.001,231,301.001" style="stroke:#000000;stroke-width:1.0;"/><line style="stroke:#000000;stroke-width:1.0;stroke-dasharray:2.0,2.0;" x1="225" x2="471" y1="297.001" y2="297.001"/><text fill="#000000" font-family="Lato,sans-serif" font-size="12" font-weight="bold" lengthAdjust="spacing" textLength="7" x="237" y="292.445">6</text><text fill="#000000" font-family="Consolas,Menlo,monospace" font-size="12" lengthAdjust="spacing" textLength="189" x="248" y="291.7385">PSA_FWU_PROCESSING_REQUIRED</text><rect fill="#EEE8AA" height="22" rx="4" ry="4" style="stroke:#181818;stroke-width:1.0;" width="82" x="528" y="310.001"/><text fill="#000000" font-family="Lato,sans-serif" font-size="12" lengthAdjust="spacing" textLength="74" x="532" y="325.8451">PROCESSING</text><polygon fill="#000000" points="455,371.2013,465,375.2013,455,379.2013" style="stroke:#000000;stroke-width:1.0;"/><line style="stroke:#000000;stroke-width:1.0;" x1="220" x2="461" y1="375.2013" y2="375.2013"/><text fill="#000000" font-family="Lato,sans-serif" font-size="12" font-weight="bold" lengthAdjust="spacing" textLength="7" x="227" y="370.6453">7</text><text fill="#000000" font-family="Consolas,Menlo,monospace" font-size="12" lengthAdjust="spacing" textLength="196" x="238" y="369.9388">psa_fwu_process(envelope_id)</text><path d="M30,346.4011 L30,391.4011 A4,4 0 0 0 34,395.4011 L201,395.4011 A4,4 0 0 0 205,391.4011 L205,352.4011 L195,342.4011 L34,342.4011 A4,4 0 0 0 30,346.4011 " fill="#E8E8E8" style="stroke:#181818;stroke-width:1.0;"/><path d="M195,342.4011 L195,350.4011 A2,2 0 0 0 197,352.4011 L205,352.4011 L195,342.4011 " fill="#E8E8E8" style="stroke:#181818;stroke-width:1.0;"/><text fill="#000000" font-family="Lato,sans-serif" font-size="12" lengthAdjust="spacing" textLength="116" x="36" y="359.2452">Process SUIT manifest</text><text fill="#000000" font-family="Lato,sans-serif" font-size="12" lengthAdjust="spacing" textLength="83" x="36" y="373.6453">- verify manifest</text><text fill="#000000" font-family="Lato,sans-serif" font-size="12" lengthAdjust="spacing" textLength="154" x="36" y="388.0454">- suit-payload-fetch sequence</text><path d="M14,407.6014 L79,407.6014 L79,414.0015 L69,424.0015 L10,424.0015 L10,411.6014 A4,4 0 0 1 14,407.6014 " fill="#F0F0F0" style="stroke:#808080;stroke-width:1.5;"/><rect fill="none" height="476.4524" rx="4" ry="4" style="stroke:#808080;stroke-width:1.0;" width="688" x="10" y="407.6014"/><text fill="#000000" font-family="Lato,sans-serif" font-size="12" lengthAdjust="spacing" textLength="24" x="25" y="420.4455">loop</text><text fill="#000000" font-family="Lato,sans-serif" font-size="11" font-weight="bold" lengthAdjust="spacing" textLength="197" x="94" y="420.4586">[While additional payloads are required]</text><polygon fill="#000000" points="231,454.4524,221,458.4524,231,462.4524" style="stroke:#000000;stroke-width:1.0;"/><line style="stroke:#000000;stroke-width:1.0;stroke-dasharray:2.0,2.0;" x1="225" x2="471" y1="458.4524" y2="458.4524"/><text fill="#000000" font-family="Lato,sans-serif" font-size="12" font-weight="bold" lengthAdjust="spacing" textLength="7" x="237" y="446.871">8</text><text fill="#000000" font-family="Consolas,Menlo,monospace" font-size="12" lengthAdjust="spacing" textLength="168" x="248" y="438.9644">PSA_FWU_PAYLOAD_REQUIRED</text><text fill="#000000" font-family="Lato,sans-serif" font-size="12" lengthAdjust="spacing" textLength="116" x="252" y="453.8964">+ payload information</text><rect fill="#FAFAD2" height="22" rx="4" ry="4" style="stroke:#181818;stroke-width:1.0;" width="75" x="531" y="471.4524"/><text fill="#000000" font-family="Lato,sans-serif" font-size="12" lengthAdjust="spacing" textLength="67" x="535" y="487.2965">FETCHING ?</text><rect fill="#ADD8E6" height="22" rx="4" ry="4" style="stroke:#181818;stroke-width:1.0;" width="48" x="633" y="471.4524"/><text fill="#000000" font-family="Lato,sans-serif" font-size="12" lengthAdjust="spacing" textLength="40" x="637" y="487.2965">READY</text><line style="stroke:#000000;stroke-width:1.0;" x1="70" x2="80" y1="519.2526" y2="515.2526"/><line style="stroke:#000000;stroke-width:1.0;" x1="70" x2="80" y1="519.2526" y2="523.2526"/><line style="stroke:#000000;stroke-width:1.0;" x1="69" x2="209" y1="519.2526" y2="519.2526"/><text fill="#000000" font-family="Lato,sans-serif" font-size="12" font-weight="bold" lengthAdjust="spacing" textLength="7" x="86" y="514.6966">9</text><text fill="#000000" font-family="Lato,sans-serif" font-size="12" lengthAdjust="spacing" textLength="74" x="97" y="514.6966">Fetch payload</text><polygon fill="#000000" points="455,546.6527,465,550.6527,455,554.6527" style="stroke:#000000;stroke-width:1.0;"/><line style="stroke:#000000;stroke-width:1.0;" x1="220" x2="461" y1="550.6527" y2="550.6527"/><text fill="#000000" font-family="Lato,sans-serif" font-size="12" font-weight="bold" lengthAdjust="spacing" textLength="14" x="227" y="546.0967">10</text><text fill="#000000" font-family="Consolas,Menlo,monospace" font-size="12" lengthAdjust="spacing" textLength="175" x="245" y="545.3901">psa_fwu_start(payload_id)</text><path d="M95,536.2526 L95,552.2526 A4,4 0 0 0 99,556.2526 L201,556.2526 A4,4 0 0 0 205,552.2526 L205,542.2526 L195,532.2526 L99,532.2526 A4,4 0 0 0 95,536.2526 " fill="#E8E8E8" style="stroke:#181818;stroke-width:1.0;"/><path d="M195,532.2526 L195,540.2526 A2,2 0 0 0 197,542.2526 L205,542.2526 L195,532.2526 " fill="#E8E8E8" style="stroke:#181818;stroke-width:1.0;"/><text fill="#000000" font-family="Lato,sans-serif" font-size="12" lengthAdjust="spacing" textLength="89" x="101" y="549.0967">Transfer payload</text><polygon fill="#000000" points="231,578.0528,221,582.0528,231,586.0528" style="stroke:#000000;stroke-width:1.0;"/><line style="stroke:#000000;stroke-width:1.0;stroke-dasharray:2.0,2.0;" x1="225" x2="471" y1="582.0528" y2="582.0528"/><text fill="#000000" font-family="Lato,sans-serif" font-size="12" font-weight="bold" lengthAdjust="spacing" textLength="14" x="237" y="577.4968">11</text><text fill="#000000" font-family="Consolas,Menlo,monospace" font-size="12" lengthAdjust="spacing" textLength="77" x="255" y="576.7902">PSA_SUCCESS</text><rect fill="#98FB98" height="22" rx="4" ry="4" style="stroke:#181818;stroke-width:1.0;" width="61" x="627" y="595.0528"/><text fill="#000000" font-family="Lato,sans-serif" font-size="12" lengthAdjust="spacing" textLength="53" x="631" y="610.8969">WRITING</text><line style="stroke:#000000;stroke-width:1.0;" x1="208" x2="198" y1="642.853" y2="638.853"/><line style="stroke:#000000;stroke-width:1.0;" x1="208" x2="198" y1="642.853" y2="646.853"/><line style="stroke:#000000;stroke-width:1.0;stroke-dasharray:2.0,2.0;" x1="69" x2="209" y1="642.853" y2="642.853"/><text fill="#000000" font-family="Lato,sans-serif" font-size="12" font-weight="bold" lengthAdjust="spacing" textLength="14" x="76" y="638.297">12</text><text fill="#000000" font-family="Lato,sans-serif" font-size="12" lengthAdjust="spacing" textLength="99" x="94" y="638.297">Download payload</text><polygon fill="#000000" points="455,667.2531,465,671.2531,455,675.2531" style="stroke:#000000;stroke-width:1.0;"/><line style="stroke:#000000;stroke-width:1.0;" x1="220" x2="461" y1="671.2531" y2="671.2531"/><text fill="#000000" font-family="Lato,sans-serif" font-size="12" font-weight="bold" lengthAdjust="spacing" textLength="14" x="227" y="666.6971">13</text><text fill="#000000" font-family="Consolas,Menlo,monospace" font-size="12" lengthAdjust="spacing" textLength="210" x="245" y="665.9905">psa_fwu_write(payload_id, ...)</text><polygon fill="#000000" points="231,695.6532,221,699.6532,231,703.6532" style="stroke:#000000;stroke-width:1.0;"/><line style="stroke:#000000;stroke-width:1.0;stroke-dasharray:2.0,2.0;" x1="225" x2="471" y1="699.6532" y2="699.6532"/><text fill="#000000" font-family="Lato,sans-serif" font-size="12" font-weight="bold" lengthAdjust="spacing" textLength="14" x="237" y="695.0972">14</text><text fill="#000000" font-family="Consolas,Menlo,monospace" font-size="12" lengthAdjust="spacing" textLength="77" x="255" y="694.3906">PSA_SUCCESS</text><line style="stroke:#000000;stroke-width:1.0;" x1="208" x2="198" y1="728.0533" y2="724.0533"/><line style="stroke:#000000;stroke-width:1.0;" x1="208" x2="198" y1="728.0533" y2="732.0533"/><line style="stroke:#000000;stroke-width:1.0;stroke-dasharray:2.0,2.0;" x1="64" x2="209" y1="728.0533" y2="728.0533"/><text fill="#000000" font-family="Lato,sans-serif" font-size="12" font-weight="bold" lengthAdjust="spacing" textLength="14" x="71" y="723.4973">15</text><text fill="#000000" font-family="Lato,sans-serif" font-size="12" lengthAdjust="spacing" textLength="99" x="89" y="723.4973">Download payload</text><polygon fill="#000000" points="455,752.4534,465,756.4534,455,760.4534" style="stroke:#000000;stroke-width:1.0;"/><line style="stroke:#000000;stroke-width:1.0;" x1="220" x2="461" y1="756.4534" y2="756.4534"/><text fill="#000000" font-family="Lato,sans-serif" font-size="12" font-weight="bold" lengthAdjust="spacing" textLength="14" x="227" y="751.8974">16</text><text fill="#000000" font-family="Consolas,Menlo,monospace" font-size="12" lengthAdjust="spacing" textLength="210" x="245" y="751.1908">psa_fwu_write(payload_id, ...)</text><polygon fill="#000000" points="231,780.8535,221,784.8535,231,788.8535" style="stroke:#000000;stroke-width:1.0;"/><line style="stroke:#000000;stroke-width:1.0;stroke-dasharray:2.0,2.0;" x1="225" x2="471" y1="784.8535" y2="784.8535"/><text fill="#000000" font-family="Lato,sans-serif" font-size="12" font-weight="bold" lengthAdjust="spacing" textLength="14" x="237" y="780.2975">17</text><text fill="#000000" font-family="Consolas,Menlo,monospace" font-size="12" lengthAdjust="spacing" textLength="77" x="255" y="779.591">PSA_SUCCESS</text><polygon fill="#000000" points="455,809.2536,465,813.2536,455,817.2536" style="stroke:#000000;stroke-width:1.0;"/><line style="stroke:#000000;stroke-width:1.0;" x1="220" x2="461" y1="813.2536" y2="813.2536"/><text fill="#000000" font-family="Lato,sans-serif" font-size="12" font-weight="bold" lengthAdjust="spacing" textLength="14" x="227" y="808.6976">18</text><text fill="#000000" font-family="Consolas,Menlo,monospace" font-size="12" lengthAdjust="spacing" textLength="182" x="245" y="807.9911">psa_fwu_finish(payload_id)</text><polygon fill="#000000" points="231,837.6537,221,841.6537,231,845.6537" style="stroke:#000000;stroke-width:1.0;"/><line style="stroke:#000000;stroke-width:1.0;stroke-dasharray:2.0,2.0;" x1="225" x2="471" y1="841.6537" y2="841.6537"/><text fill="#000000" font-family="Lato,sans-serif" font-size="12" font-weight="bold" lengthAdjust="spacing" textLength="14" x="237" y="837.0977">19</text><text fill="#000000" font-family="Consolas,Menlo,monospace" font-size="12" lengthAdjust="spacing" textLength="77" x="255" y="836.3912">PSA_SUCCESS</text><polygon fill="#000000" points="455,869.0538,465,873.0538,455,877.0538" style="stroke:#000000;stroke-width:1.0;"/><line style="stroke:#000000;stroke-width:1.0;" x1="220" x2="461" y1="873.0538" y2="873.0538"/><text fill="#000000" font-family="Lato,sans-serif" font-size="12" font-weight="bold" lengthAdjust="spacing" textLength="14" x="227" y="868.4978">20</text><text fill="#000000" font-family="Consolas,Menlo,monospace" font-size="12" lengthAdjust="spacing" textLength="196" x="245" y="867.7913">psa_fwu_process(envelope_id)</text><path d="M55,858.6537 L55,874.6537 A4,4 0 0 0 59,878.6537 L201,878.6537 A4,4 0 0 0 205,874.6537 L205,864.6537 L195,854.6537 L59,854.6537 A4,4 0 0 0 55,858.6537 " fill="#E8E8E8" style="stroke:#181818;stroke-width:1.0;"/><path d="M195,854.6537 L195,862.6537 A2,2 0 0 0 197,864.6537 L205,864.6537 L195,854.6537 " fill="#E8E8E8" style="stroke:#181818;stroke-width:1.0;"/><text fill="#000000" font-family="Lato,sans-serif" font-size="12" lengthAdjust="spacing" textLength="129" x="61" y="871.4978">Resume SUIT processing</text><polygon fill="#000000" points="231,910.4539,221,914.4539,231,918.4539" style="stroke:#000000;stroke-width:1.0;"/><line style="stroke:#000000;stroke-width:1.0;stroke-dasharray:2.0,2.0;" x1="225" x2="471" y1="914.4539" y2="914.4539"/><text fill="#000000" font-family="Lato,sans-serif" font-size="12" font-weight="bold" lengthAdjust="spacing" textLength="14" x="237" y="909.8979">21</text><text fill="#000000" font-family="Consolas,Menlo,monospace" font-size="12" lengthAdjust="spacing" textLength="77" x="255" y="909.1914">PSA_SUCCESS</text><path d="M28,900.0538 L28,916.0538 A4,4 0 0 0 32,920.0538 L201,920.0538 A4,4 0 0 0 205,916.0538 L205,906.0538 L195,896.0538 L32,896.0538 A4,4 0 0 0 28,900.0538 " fill="#E8E8E8" style="stroke:#181818;stroke-width:1.0;"/><path d="M195,896.0538 L195,904.0538 A2,2 0 0 0 197,906.0538 L205,906.0538 L195,896.0538 " fill="#E8E8E8" style="stroke:#181818;stroke-width:1.0;"/><text fill="#000000" font-family="Lato,sans-serif" font-size="12" lengthAdjust="spacing" textLength="156" x="34" y="912.8979">Manifest processing complete</text><rect fill="#FFA07A" height="22" rx="4" ry="4" style="stroke:#181818;stroke-width:1.0;" width="77" x="530" y="930.4539"/><text fill="#000000" font-family="Lato,sans-serif" font-size="12" lengthAdjust="spacing" textLength="69" x="534" y="946.298">CANDIDATE</text><polygon fill="#000000" points="455,977.2541,465,981.2541,455,985.2541" style="stroke:#000000;stroke-width:1.0;"/><line style="stroke:#000000;stroke-width:1.0;" x1="220" x2="461" y1="981.2541" y2="981.2541"/><text fill="#000000" font-family="Lato,sans-serif" font-size="12" font-weight="bold" lengthAdjust="spacing" textLength="14" x="227" y="976.6981">22</text><text fill="#000000" font-family="Consolas,Menlo,monospace" font-size="12" lengthAdjust="spacing" textLength="119" x="245" y="975.9916">psa_fwu_install()</text><path d="M55,966.854 L55,982.854 A4,4 0 0 0 59,986.854 L201,986.854 A4,4 0 0 0 205,982.854 L205,972.854 L195,962.854 L59,962.854 A4,4 0 0 0 55,966.854 " fill="#E8E8E8" style="stroke:#181818;stroke-width:1.0;"/><path d="M195,962.854 L195,970.854 A2,2 0 0 0 197,972.854 L205,972.854 L195,962.854 " fill="#E8E8E8" style="stroke:#181818;stroke-width:1.0;"/><text fill="#000000" font-family="Lato,sans-serif" font-size="12" lengthAdjust="spacing" textLength="129" x="61" y="979.6981">Proceed with installation</text><polygon fill="#000000" points="231,1008.6542,221,1012.6542,231,1016.6542" style="stroke:#000000;stroke-width:1.0;"/><line style="stroke:#000000;stroke-width:1.0;stroke-dasharray:2.0,2.0;" x1="225" x2="471" y1="1012.6542" y2="1012.6542"/><text fill="#000000" font-family="Lato,sans-serif" font-size="12" font-weight="bold" lengthAdjust="spacing" textLength="14" x="237" y="1008.0982">23</text><text fill="#000000" font-family="Consolas,Menlo,monospace" font-size="12" lengthAdjust="spacing" textLength="161" x="255" y="1007.3917">PSA_FWU_REBOOT_REQUIRED</text><rect fill="#F08080" height="22" rx="4" ry="4" style="stroke:#181818;stroke-width:1.0;" width="54" x="542" y="1025.6542"/><text fill="#000000" font-family="Lato,sans-serif" font-size="12" lengthAdjust="spacing" textLength="46" x="546" y="1041.4983">STAGED</text><line style="stroke:#000000;stroke-width:1.0;" x1="706" x2="696" y1="1073.4544" y2="1069.4544"/><line style="stroke:#000000;stroke-width:1.0;" x1="706" x2="696" y1="1073.4544" y2="1077.4544"/><line style="stroke:#000000;stroke-width:1.0;stroke-dasharray:2.0,2.0;" x1="215" x2="707" y1="1073.4544" y2="1073.4544"/><text fill="#000000" font-family="Lato,sans-serif" font-size="12" font-weight="bold" lengthAdjust="spacing" textLength="14" x="222" y="1068.8984">24</text><text fill="#000000" font-family="Lato,sans-serif" font-size="12" lengthAdjust="spacing" textLength="81" x="240" y="1068.8984">Request reboot</text><rect fill="#EEEEEE" height="3" rx="4" ry="4" style="stroke:#EEEEEE;stroke-width:1.0;" width="708" x="0" y="1101.6545"/><line style="stroke:#000000;stroke-width:1.0;" x1="0" x2="708" y1="1101.6545" y2="1101.6545"/><line style="stroke:#000000;stroke-width:1.0;" x1="0" x2="708" y1="1104.6545" y2="1104.6545"/><rect fill="#EEEEEE" height="22.4001" rx="4" ry="4" style="stroke:#000000;stroke-width:2.0;" width="98" x="305" y="1091.4544"/><text fill="#000000" font-family="Lato,sans-serif" font-size="12" font-weight="bold" lengthAdjust="spacing" textLength="82" x="311" y="1107.2985">System restarts</text></g></svg>