<?xml version="1.0" encoding="UTF-8" standalone="no"?><svg xmlns="http://www.w3.org/2000/svg" xmlns:xlink="http://www.w3.org/1999/xlink" contentStyleType="text/css" height="1361px" preserveAspectRatio="none" style="width:726px;height:1361px;background:#FFFFFF55;" version="1.1" viewBox="0 0 726 1361" width="726px" zoomAndPan="magnify"><defs/><g><rect fill="#E0E0E0" fill-opacity="0.75294" height="1342.5593" rx="4" ry="4" style="stroke:none;stroke-width:0.5;" width="96" x="16" y="6"/><text fill="#000000" font-family="Lato,sans-serif" font-size="12" font-weight="bold" lengthAdjust="spacing" textLength="48" x="40" y="17.8441">Network</text><rect fill="#E0E0E0" fill-opacity="0.75294" height="1342.5593" rx="4" ry="4" style="stroke:none;stroke-width:0.5;" width="454" x="172" y="6"/><text fill="#000000" font-family="Lato,sans-serif" font-size="12" font-weight="bold" lengthAdjust="spacing" textLength="36" x="381" y="17.8441">Device</text><rect fill="#FFFFFF" height="176.4006" style="stroke:#808080;stroke-width:1.0;" width="10" x="59" y="546.9033"/><rect fill="#FFFFFF" height="1004.9048" style="stroke:#808080;stroke-width:1.0;" width="10" x="213" y="63.8002"/><rect fill="#DDDDDD" height="31.4001" style="stroke:#808080;stroke-width:1.0;" width="10" x="487" y="119.6004"/><rect fill="#DDDDDD" height="28.4001" style="stroke:#808080;stroke-width:1.0;" width="10" x="487" y="211.8007"/><rect fill="#DDDDDD" height="28.4001" style="stroke:#808080;stroke-width:1.0;" width="10" x="487" y="268.6009"/><rect fill="#DDDDDD" height="100.9018" style="stroke:#808080;stroke-width:1.0;" width="10" x="487" y="360.8012"/><rect fill="#DDDDDD" height="28.4001" style="stroke:#808080;stroke-width:1.0;" width="10" x="487" y="490.1031"/><rect fill="#DDDDDD" height="31.4001" style="stroke:#808080;stroke-width:1.0;" width="10" x="487" y="578.3034"/><rect fill="#DDDDDD" height="28.4001" style="stroke:#808080;stroke-width:1.0;" width="10" x="487" y="666.5037"/><rect fill="#DDDDDD" height="28.4001" style="stroke:#808080;stroke-width:1.0;" width="10" x="487" y="751.704"/><rect fill="#DDDDDD" height="28.4001" style="stroke:#808080;stroke-width:1.0;" width="10" x="487" y="808.5042"/><rect fill="#DDDDDD" height="41.4001" style="stroke:#808080;stroke-width:1.0;" width="10" x="487" y="868.3044"/><rect fill="#DDDDDD" height="31.4001" style="stroke:#808080;stroke-width:1.0;" width="10" x="487" y="976.5047"/><rect fill="#FFFFFF" height="206.0541" style="stroke:#808080;stroke-width:1.0;" width="10" x="580" y="1139.5052"/><rect fill="#ADD8E6" height="55.8002" style="stroke:#808080;stroke-width:1.0;" width="10" x="668" y="63.8002"/><rect fill="#98FB98" height="117.6004" style="stroke:#808080;stroke-width:1.0;" width="10" x="668" y="151.0005"/><rect fill="#EEE8AA" height="571.3034" style="stroke:#808080;stroke-width:1.0;" width="10" x="668" y="297.001"/><rect fill="#FFA07A" height="66.8002" style="stroke:#808080;stroke-width:1.0;" width="10" x="668" y="909.7045"/><rect fill="#F08080" height="161.6004" style="stroke:#808080;stroke-width:1.0;" width="10" x="668" y="1007.9048"/><rect fill="#AAAADD" height="41.4001" style="stroke:#808080;stroke-width:1.0;" width="10" x="668" y="1304.1592"/><rect fill="#FFFFFF" fill-opacity="0.50196" height="454.4016" rx="4" ry="4" style="stroke:#808080;stroke-width:1.0;" width="538" x="10" y="424.9028"/><line style="stroke:#808080;stroke-width:0.5;stroke-dasharray:5.0,5.0;" x1="64" x2="64" y1="53.8002" y2="1354.5593"/><line style="stroke:#808080;stroke-width:0.5;stroke-dasharray:5.0,5.0;" x1="218" x2="218" y1="53.8002" y2="1354.5593"/><line style="stroke:#808080;stroke-width:0.5;stroke-dasharray:5.0,5.0;" x1="333" x2="333" y1="53.8002" y2="1354.5593"/><line style="stroke:#808080;stroke-width:0.5;stroke-dasharray:5.0,5.0;" x1="492" x2="492" y1="53.8002" y2="1354.5593"/><line style="stroke:#808080;stroke-width:0.5;stroke-dasharray:5.0,5.0;" x1="585" x2="585" y1="53.8002" y2="1354.5593"/><line style="stroke:#808080;stroke-width:0.5;stroke-dasharray:5.0,5.0;" x1="673" x2="673" y1="53.8002" y2="1354.5593"/><rect fill="#FFFFFF" height="28.4001" rx="4" ry="4" style="stroke:#000000;stroke-width:1.0;" width="88" x="20" y="24.4001"/><text fill="#000000" font-family="Lato,sans-serif" font-size="12" lengthAdjust="spacing" textLength="74" x="27" y="43.2442">Update server</text><rect fill="#FFFFFF" height="28.4001" rx="4" ry="4" style="stroke:#000000;stroke-width:1.0;" width="84" x="176" y="24.4001"/><text fill="#000000" font-family="Lato,sans-serif" font-size="12" lengthAdjust="spacing" textLength="70" x="183" y="43.2442">Update client</text><rect fill="#FFFFFF" height="28.4001" rx="4" ry="4" style="stroke:#000000;stroke-width:1.0;" width="127" x="270" y="24.4001"/><text fill="#000000" font-family="Lato,sans-serif" font-size="12" lengthAdjust="spacing" textLength="113" x="277" y="43.2442">Firmware Update API</text><rect fill="#FFFFFF" height="28.4001" rx="4" ry="4" style="stroke:#000000;stroke-width:1.0;" width="92" x="446" y="24.4001"/><text fill="#000000" font-family="Lato,sans-serif" font-size="12" lengthAdjust="spacing" textLength="78" x="453" y="43.2442">Update service</text><rect fill="#FFFFFF" height="28.4001" rx="4" ry="4" style="stroke:#000000;stroke-width:1.0;" width="74" x="548" y="24.4001"/><text fill="#000000" font-family="Lato,sans-serif" font-size="12" lengthAdjust="spacing" textLength="60" x="555" y="43.2442">Bootloader</text><text fill="#000000" font-family="Lato,sans-serif" font-size="12" lengthAdjust="spacing" textLength="76" x="632" y="51.2442">Envelope state</text><ellipse cx="673" cy="23.4001" fill="#FFFFFF" rx="12" ry="12" style="stroke:#000000;stroke-width:1.0;"/><line style="stroke:#000000;stroke-width:1.0;" x1="661" x2="685" y1="37.4001" y2="37.4001"/><rect fill="#FFFFFF" height="176.4006" style="stroke:#808080;stroke-width:1.0;" width="10" x="59" y="546.9033"/><rect fill="#FFFFFF" height="1004.9048" style="stroke:#808080;stroke-width:1.0;" width="10" x="213" y="63.8002"/><rect fill="#DDDDDD" height="31.4001" style="stroke:#808080;stroke-width:1.0;" width="10" x="487" y="119.6004"/><rect fill="#DDDDDD" height="28.4001" style="stroke:#808080;stroke-width:1.0;" width="10" x="487" y="211.8007"/><rect fill="#DDDDDD" height="28.4001" style="stroke:#808080;stroke-width:1.0;" width="10" x="487" y="268.6009"/><rect fill="#DDDDDD" height="100.9018" style="stroke:#808080;stroke-width:1.0;" width="10" x="487" y="360.8012"/><rect fill="#DDDDDD" height="28.4001" style="stroke:#808080;stroke-width:1.0;" width="10" x="487" y="490.1031"/><rect fill="#DDDDDD" height="31.4001" style="stroke:#808080;stroke-width:1.0;" width="10" x="487" y="578.3034"/><rect fill="#DDDDDD" height="28.4001" style="stroke:#808080;stroke-width:1.0;" width="10" x="487" y="666.5037"/><rect fill="#DDDDDD" height="28.4001" style="stroke:#808080;stroke-width:1.0;" width="10" x="487" y="751.704"/><rect fill="#DDDDDD" height="28.4001" style="stroke:#808080;stroke-width:1.0;" width="10" x="487" y="808.5042"/><rect fill="#DDDDDD" height="41.4001" style="stroke:#808080;stroke-width:1.0;" width="10" x="487" y="868.3044"/><rect fill="#DDDDDD" height="31.4001" style="stroke:#808080;stroke-width:1.0;" width="10" x="487" y="976.5047"/><rect fill="#FFFFFF" height="206.0541" style="stroke:#808080;stroke-width:1.0;" width="10" x="580" y="1139.5052"/><rect fill="#ADD8E6" height="55.8002" style="stroke:#808080;stroke-width:1.0;" width="10" x="668" y="63.8002"/><rect fill="#98FB98" height="117.6004" style="stroke:#808080;stroke-width:1.0;" width="10" x="668" y="151.0005"/><rect fill="#EEE8AA" height="571.3034" style="stroke:#808080;stroke-width:1.0;" width="10" x="668" y="297.001"/><rect fill="#FFA07A" height="66.8002" style="stroke:#808080;stroke-width:1.0;" width="10" x="668" y="909.7045"/><rect fill="#F08080" height="161.6004" style="stroke:#808080;stroke-width:1.0;" width="10" x="668" y="1007.9048"/><rect fill="#AAAADD" height="41.4001" style="stroke:#808080;stroke-width:1.0;" width="10" x="668" y="1304.1592"/><rect fill="#ADD8E6" height="22" rx="4" ry="4" style="stroke:#181818;stroke-width:1.0;" width="48" x="649" y="68.8002"/><text fill="#000000" font-family="Lato,sans-serif" font-size="12" lengthAdjust="spacing" textLength="40" x="653" y="84.6443">READY</text><polygon fill="#000000" points="475,115.6004,485,119.6004,475,123.6004" style="stroke:#000000;stroke-width:1.0;"/><line style="stroke:#000000;stroke-width:1.0;" x1="223" x2="481" y1="119.6004" y2="119.6004"/><text fill="#000000" font-family="Lato,sans-serif" font-size="12" font-weight="bold" lengthAdjust="spacing" textLength="10" x="230" y="115.0444">1:</text><text fill="#000000" font-family="Consolas,Menlo,monospace" font-size="12" lengthAdjust="spacing" textLength="182" x="244" y="114.3379">psa_fwu_start(envelope_id)</text><path d="M63,105.2003 L63,121.2003 A4,4 0 0 0 67,125.2003 L204,125.2003 A4,4 0 0 0 208,121.2003 L208,111.2003 L198,101.2003 L67,101.2003 A4,4 0 0 0 63,105.2003 " fill="#E8E8E8" style="stroke:#181818;stroke-width:1.0;"/><path d="M198,101.2003 L198,109.2003 A2,2 0 0 0 200,111.2003 L208,111.2003 L198,101.2003 " fill="#E8E8E8" style="stroke:#181818;stroke-width:1.0;"/><text fill="#000000" font-family="Lato,sans-serif" font-size="12" lengthAdjust="spacing" textLength="124" x="69" y="118.0444">Transfer SUIT Envelope</text><polygon fill="#000000" points="234,147.0005,224,151.0005,234,155.0005" style="stroke:#000000;stroke-width:1.0;"/><line style="stroke:#000000;stroke-width:1.0;stroke-dasharray:2.0,2.0;" x1="228" x2="491" y1="151.0005" y2="151.0005"/><text fill="#000000" font-family="Lato,sans-serif" font-size="12" font-weight="bold" lengthAdjust="spacing" textLength="10" x="240" y="146.4445">2:</text><text fill="#000000" font-family="Consolas,Menlo,monospace" font-size="12" lengthAdjust="spacing" textLength="77" x="254" y="145.738">PSA_SUCCESS</text><rect fill="#98FB98" height="22" rx="4" ry="4" style="stroke:#181818;stroke-width:1.0;" width="61" x="642" y="164.0005"/><text fill="#000000" font-family="Lato,sans-serif" font-size="12" lengthAdjust="spacing" textLength="53" x="646" y="179.8446">WRITING</text><polygon fill="#000000" points="475,207.8007,485,211.8007,475,215.8007" style="stroke:#000000;stroke-width:1.0;"/><line style="stroke:#000000;stroke-width:1.0;" x1="223" x2="481" y1="211.8007" y2="211.8007"/><text fill="#000000" font-family="Lato,sans-serif" font-size="12" font-weight="bold" lengthAdjust="spacing" textLength="10" x="230" y="207.2447">3:</text><text fill="#000000" font-family="Consolas,Menlo,monospace" font-size="12" lengthAdjust="spacing" textLength="217" x="244" y="206.5382">psa_fwu_write(envelope_id, ...)</text><polygon fill="#000000" points="234,236.2008,224,240.2008,234,244.2008" style="stroke:#000000;stroke-width:1.0;"/><line style="stroke:#000000;stroke-width:1.0;stroke-dasharray:2.0,2.0;" x1="228" x2="491" y1="240.2008" y2="240.2008"/><text fill="#000000" font-family="Lato,sans-serif" font-size="12" font-weight="bold" lengthAdjust="spacing" textLength="10" x="240" y="235.6448">4:</text><text fill="#000000" font-family="Consolas,Menlo,monospace" font-size="12" lengthAdjust="spacing" textLength="77" x="254" y="234.9383">PSA_SUCCESS</text><polygon fill="#000000" points="475,264.6009,485,268.6009,475,272.6009" style="stroke:#000000;stroke-width:1.0;"/><line style="stroke:#000000;stroke-width:1.0;" x1="223" x2="481" y1="268.6009" y2="268.6009"/><text fill="#000000" font-family="Lato,sans-serif" font-size="12" font-weight="bold" lengthAdjust="spacing" textLength="10" x="230" y="264.0449">5:</text><text fill="#000000" font-family="Consolas,Menlo,monospace" font-size="12" lengthAdjust="spacing" textLength="189" x="244" y="263.3384">psa_fwu_finish(envelope_id)</text><polygon fill="#000000" points="234,293.001,224,297.001,234,301.001" style="stroke:#000000;stroke-width:1.0;"/><line style="stroke:#000000;stroke-width:1.0;stroke-dasharray:2.0,2.0;" x1="228" x2="491" y1="297.001" y2="297.001"/><text fill="#000000" font-family="Lato,sans-serif" font-size="12" font-weight="bold" lengthAdjust="spacing" textLength="10" x="240" y="292.445">6:</text><text fill="#000000" font-family="Consolas,Menlo,monospace" font-size="12" lengthAdjust="spacing" textLength="189" x="254" y="291.7385">PSA_FWU_PROCESSING_REQUIRED</text><rect fill="#EEE8AA" height="22" rx="4" ry="4" style="stroke:#181818;stroke-width:1.0;" width="68" x="639" y="310.001"/><text fill="#000000" font-family="Lato,sans-serif" font-size="12" lengthAdjust="spacing" textLength="60" x="643" y="325.8451">FETCHING</text><polygon fill="#000000" points="475,356.8012,485,360.8012,475,364.8012" style="stroke:#000000;stroke-width:1.0;"/><line style="stroke:#000000;stroke-width:1.0;" x1="223" x2="481" y1="360.8012" y2="360.8012"/><text fill="#000000" font-family="Lato,sans-serif" font-size="12" font-weight="bold" lengthAdjust="spacing" textLength="10" x="230" y="356.2452">7:</text><text fill="#000000" font-family="Consolas,Menlo,monospace" font-size="12" lengthAdjust="spacing" textLength="119" x="244" y="355.5387">psa_fwu_process()</text><path d="M71,346.4011 L71,362.4011 A4,4 0 0 0 75,366.4011 L204,366.4011 A4,4 0 0 0 208,362.4011 L208,352.4011 L198,342.4011 L75,342.4011 A4,4 0 0 0 71,346.4011 " fill="#E8E8E8" style="stroke:#181818;stroke-width:1.0;"/><path d="M198,342.4011 L198,350.4011 A2,2 0 0 0 200,352.4011 L208,352.4011 L198,342.4011 " fill="#E8E8E8" style="stroke:#181818;stroke-width:1.0;"/><text fill="#000000" font-family="Lato,sans-serif" font-size="12" lengthAdjust="spacing" textLength="116" x="77" y="359.2452">Process SUIT manifest</text><polygon fill="#E8E8E8" points="402,376.8012,581,376.8012,591,394.8012,581,412.8012,402,412.8012,392,394.8012,402,376.8012" style="stroke:#181818;stroke-width:1.0;"/><text fill="#000000" font-family="Consolas,Menlo,monospace" font-size="12" lengthAdjust="spacing" textLength="175" x="404" y="391.7641">suit-resolve-dependencies</text><text fill="#000000" font-family="Consolas,Menlo,monospace" font-size="12" lengthAdjust="spacing" textLength="126" x="404" y="405.8149">suit-payload-fetch</text><path d="M14,424.9028 L79,424.9028 L79,431.3029 L69,441.3029 L10,441.3029 L10,428.9028 A4,4 0 0 1 14,424.9028 " fill="#F0F0F0" style="stroke:#808080;stroke-width:1.5;"/><rect fill="none" height="454.4016" rx="4" ry="4" style="stroke:#808080;stroke-width:1.0;" width="538" x="10" y="424.9028"/><text fill="#000000" font-family="Lato,sans-serif" font-size="12" lengthAdjust="spacing" textLength="24" x="25" y="437.7469">loop</text><text fill="#000000" font-family="Lato,sans-serif" font-size="11" font-weight="bold" lengthAdjust="spacing" textLength="197" x="94" y="437.7599">[While additional payloads are required]</text><polygon fill="#000000" points="234,457.703,224,461.703,234,465.703" style="stroke:#000000;stroke-width:1.0;"/><line style="stroke:#000000;stroke-width:1.0;stroke-dasharray:2.0,2.0;" x1="228" x2="491" y1="461.703" y2="461.703"/><text fill="#000000" font-family="Lato,sans-serif" font-size="12" font-weight="bold" lengthAdjust="spacing" textLength="10" x="240" y="457.147">8:</text><text fill="#000000" font-family="Consolas,Menlo,monospace" font-size="12" lengthAdjust="spacing" textLength="168" x="254" y="456.4404">PSA_FWU_PAYLOAD_REQUIRED</text><polygon fill="#000000" points="475,486.1031,485,490.1031,475,494.1031" style="stroke:#000000;stroke-width:1.0;"/><line style="stroke:#000000;stroke-width:1.0;" x1="223" x2="481" y1="490.1031" y2="490.1031"/><text fill="#000000" font-family="Lato,sans-serif" font-size="12" font-weight="bold" lengthAdjust="spacing" textLength="10" x="230" y="485.5471">9:</text><text fill="#000000" font-family="Consolas,Menlo,monospace" font-size="12" lengthAdjust="spacing" textLength="231" x="244" y="484.8405">psa_fwu_query_payload(payload_id)</text><polygon fill="#000000" points="234,514.5032,224,518.5032,234,522.5032" style="stroke:#000000;stroke-width:1.0;"/><line style="stroke:#000000;stroke-width:1.0;stroke-dasharray:2.0,2.0;" x1="228" x2="491" y1="518.5032" y2="518.5032"/><text fill="#000000" font-family="Lato,sans-serif" font-size="12" font-weight="bold" lengthAdjust="spacing" textLength="17" x="240" y="513.9472">10:</text><text fill="#000000" font-family="Consolas,Menlo,monospace" font-size="12" lengthAdjust="spacing" textLength="77" x="261" y="513.4153">PSA_SUCCESS</text><text fill="#000000" font-family="Lato,sans-serif" font-size="12" lengthAdjust="spacing" textLength="116" x="340" y="513.9472">+ payload information</text><line style="stroke:#000000;stroke-width:1.0;" x1="70" x2="80" y1="546.9033" y2="542.9033"/><line style="stroke:#000000;stroke-width:1.0;" x1="70" x2="80" y1="546.9033" y2="550.9033"/><line style="stroke:#000000;stroke-width:1.0;" x1="69" x2="212" y1="546.9033" y2="546.9033"/><text fill="#000000" font-family="Lato,sans-serif" font-size="12" font-weight="bold" lengthAdjust="spacing" textLength="17" x="86" y="542.3473">11:</text><text fill="#000000" font-family="Lato,sans-serif" font-size="12" lengthAdjust="spacing" textLength="74" x="107" y="542.3473">Fetch payload</text><polygon fill="#000000" points="475,574.3034,485,578.3034,475,582.3034" style="stroke:#000000;stroke-width:1.0;"/><line style="stroke:#000000;stroke-width:1.0;" x1="223" x2="481" y1="578.3034" y2="578.3034"/><text fill="#000000" font-family="Lato,sans-serif" font-size="12" font-weight="bold" lengthAdjust="spacing" textLength="17" x="230" y="573.7474">12:</text><text fill="#000000" font-family="Consolas,Menlo,monospace" font-size="12" lengthAdjust="spacing" textLength="175" x="251" y="573.0408">psa_fwu_start(payload_id)</text><path d="M98,563.9033 L98,579.9033 A4,4 0 0 0 102,583.9033 L204,583.9033 A4,4 0 0 0 208,579.9033 L208,569.9033 L198,559.9033 L102,559.9033 A4,4 0 0 0 98,563.9033 " fill="#E8E8E8" style="stroke:#181818;stroke-width:1.0;"/><path d="M198,559.9033 L198,567.9033 A2,2 0 0 0 200,569.9033 L208,569.9033 L198,559.9033 " fill="#E8E8E8" style="stroke:#181818;stroke-width:1.0;"/><text fill="#000000" font-family="Lato,sans-serif" font-size="12" lengthAdjust="spacing" textLength="89" x="104" y="576.7474">Transfer payload</text><polygon fill="#000000" points="234,605.7035,224,609.7035,234,613.7035" style="stroke:#000000;stroke-width:1.0;"/><line style="stroke:#000000;stroke-width:1.0;stroke-dasharray:2.0,2.0;" x1="228" x2="491" y1="609.7035" y2="609.7035"/><text fill="#000000" font-family="Lato,sans-serif" font-size="12" font-weight="bold" lengthAdjust="spacing" textLength="17" x="240" y="605.1475">13:</text><text fill="#000000" font-family="Consolas,Menlo,monospace" font-size="12" lengthAdjust="spacing" textLength="77" x="261" y="604.4409">PSA_SUCCESS</text><line style="stroke:#000000;stroke-width:1.0;" x1="211" x2="201" y1="638.1036" y2="634.1036"/><line style="stroke:#000000;stroke-width:1.0;" x1="211" x2="201" y1="638.1036" y2="642.1036"/><line style="stroke:#000000;stroke-width:1.0;stroke-dasharray:2.0,2.0;" x1="69" x2="212" y1="638.1036" y2="638.1036"/><text fill="#000000" font-family="Lato,sans-serif" font-size="12" font-weight="bold" lengthAdjust="spacing" textLength="17" x="76" y="633.5476">14:</text><text fill="#000000" font-family="Lato,sans-serif" font-size="12" lengthAdjust="spacing" textLength="99" x="97" y="633.5476">Download payload</text><polygon fill="#000000" points="475,662.5037,485,666.5037,475,670.5037" style="stroke:#000000;stroke-width:1.0;"/><line style="stroke:#000000;stroke-width:1.0;" x1="223" x2="481" y1="666.5037" y2="666.5037"/><text fill="#000000" font-family="Lato,sans-serif" font-size="12" font-weight="bold" lengthAdjust="spacing" textLength="17" x="230" y="661.9477">15:</text><text fill="#000000" font-family="Consolas,Menlo,monospace" font-size="12" lengthAdjust="spacing" textLength="210" x="251" y="661.2411">psa_fwu_write(payload_id, ...)</text><polygon fill="#000000" points="234,690.9038,224,694.9038,234,698.9038" style="stroke:#000000;stroke-width:1.0;"/><line style="stroke:#000000;stroke-width:1.0;stroke-dasharray:2.0,2.0;" x1="228" x2="491" y1="694.9038" y2="694.9038"/><text fill="#000000" font-family="Lato,sans-serif" font-size="12" font-weight="bold" lengthAdjust="spacing" textLength="17" x="240" y="690.3478">16:</text><text fill="#000000" font-family="Consolas,Menlo,monospace" font-size="12" lengthAdjust="spacing" textLength="77" x="261" y="689.6412">PSA_SUCCESS</text><line style="stroke:#000000;stroke-width:1.0;" x1="211" x2="201" y1="723.3039" y2="719.3039"/><line style="stroke:#000000;stroke-width:1.0;" x1="211" x2="201" y1="723.3039" y2="727.3039"/><line style="stroke:#000000;stroke-width:1.0;stroke-dasharray:2.0,2.0;" x1="64" x2="212" y1="723.3039" y2="723.3039"/><text fill="#000000" font-family="Lato,sans-serif" font-size="12" font-weight="bold" lengthAdjust="spacing" textLength="17" x="71" y="718.7479">17:</text><text fill="#000000" font-family="Lato,sans-serif" font-size="12" lengthAdjust="spacing" textLength="99" x="92" y="718.7479">Download payload</text><polygon fill="#000000" points="475,747.704,485,751.704,475,755.704" style="stroke:#000000;stroke-width:1.0;"/><line style="stroke:#000000;stroke-width:1.0;" x1="223" x2="481" y1="751.704" y2="751.704"/><text fill="#000000" font-family="Lato,sans-serif" font-size="12" font-weight="bold" lengthAdjust="spacing" textLength="17" x="230" y="747.148">18:</text><text fill="#000000" font-family="Consolas,Menlo,monospace" font-size="12" lengthAdjust="spacing" textLength="210" x="251" y="746.4414">psa_fwu_write(payload_id, ...)</text><polygon fill="#000000" points="234,776.1041,224,780.1041,234,784.1041" style="stroke:#000000;stroke-width:1.0;"/><line style="stroke:#000000;stroke-width:1.0;stroke-dasharray:2.0,2.0;" x1="228" x2="491" y1="780.1041" y2="780.1041"/><text fill="#000000" font-family="Lato,sans-serif" font-size="12" font-weight="bold" lengthAdjust="spacing" textLength="17" x="240" y="775.5481">19:</text><text fill="#000000" font-family="Consolas,Menlo,monospace" font-size="12" lengthAdjust="spacing" textLength="77" x="261" y="774.8415">PSA_SUCCESS</text><polygon fill="#000000" points="475,804.5042,485,808.5042,475,812.5042" style="stroke:#000000;stroke-width:1.0;"/><line style="stroke:#000000;stroke-width:1.0;" x1="223" x2="481" y1="808.5042" y2="808.5042"/><text fill="#000000" font-family="Lato,sans-serif" font-size="12" font-weight="bold" lengthAdjust="spacing" textLength="17" x="230" y="803.9482">20:</text><text fill="#000000" font-family="Consolas,Menlo,monospace" font-size="12" lengthAdjust="spacing" textLength="182" x="251" y="803.2416">psa_fwu_finish(payload_id)</text><polygon fill="#000000" points="234,832.9043,224,836.9043,234,840.9043" style="stroke:#000000;stroke-width:1.0;"/><line style="stroke:#000000;stroke-width:1.0;stroke-dasharray:2.0,2.0;" x1="228" x2="491" y1="836.9043" y2="836.9043"/><text fill="#000000" font-family="Lato,sans-serif" font-size="12" font-weight="bold" lengthAdjust="spacing" textLength="17" x="240" y="832.3483">21:</text><text fill="#000000" font-family="Consolas,Menlo,monospace" font-size="12" lengthAdjust="spacing" textLength="77" x="261" y="831.6417">PSA_SUCCESS</text><polygon fill="#000000" points="475,864.3044,485,868.3044,475,872.3044" style="stroke:#000000;stroke-width:1.0;"/><line style="stroke:#000000;stroke-width:1.0;" x1="223" x2="481" y1="868.3044" y2="868.3044"/><text fill="#000000" font-family="Lato,sans-serif" font-size="12" font-weight="bold" lengthAdjust="spacing" textLength="17" x="230" y="863.7484">22:</text><text fill="#000000" font-family="Consolas,Menlo,monospace" font-size="12" lengthAdjust="spacing" textLength="119" x="251" y="863.0418">psa_fwu_process()</text><path d="M58,853.9043 L58,869.9043 A4,4 0 0 0 62,873.9043 L204,873.9043 A4,4 0 0 0 208,869.9043 L208,859.9043 L198,849.9043 L62,849.9043 A4,4 0 0 0 58,853.9043 " fill="#E8E8E8" style="stroke:#181818;stroke-width:1.0;"/><path d="M198,849.9043 L198,857.9043 A2,2 0 0 0 200,859.9043 L208,859.9043 L198,849.9043 " fill="#E8E8E8" style="stroke:#181818;stroke-width:1.0;"/><text fill="#000000" font-family="Lato,sans-serif" font-size="12" lengthAdjust="spacing" textLength="129" x="64" y="866.7484">Resume SUIT processing</text><polygon fill="#000000" points="234,905.7045,224,909.7045,234,913.7045" style="stroke:#000000;stroke-width:1.0;"/><line style="stroke:#000000;stroke-width:1.0;stroke-dasharray:2.0,2.0;" x1="228" x2="491" y1="909.7045" y2="909.7045"/><text fill="#000000" font-family="Lato,sans-serif" font-size="12" font-weight="bold" lengthAdjust="spacing" textLength="17" x="240" y="905.1485">23:</text><text fill="#000000" font-family="Consolas,Menlo,monospace" font-size="12" lengthAdjust="spacing" textLength="77" x="261" y="904.4419">PSA_SUCCESS</text><path d="M31,895.3044 L31,911.3044 A4,4 0 0 0 35,915.3044 L204,915.3044 A4,4 0 0 0 208,911.3044 L208,901.3044 L198,891.3044 L35,891.3044 A4,4 0 0 0 31,895.3044 " fill="#E8E8E8" style="stroke:#181818;stroke-width:1.0;"/><path d="M198,891.3044 L198,899.3044 A2,2 0 0 0 200,901.3044 L208,901.3044 L198,891.3044 " fill="#E8E8E8" style="stroke:#181818;stroke-width:1.0;"/><text fill="#000000" font-family="Lato,sans-serif" font-size="12" lengthAdjust="spacing" textLength="156" x="37" y="908.1485">Manifest processing complete</text><rect fill="#FFA07A" height="22" rx="4" ry="4" style="stroke:#181818;stroke-width:1.0;" width="77" x="634" y="925.7045"/><text fill="#000000" font-family="Lato,sans-serif" font-size="12" lengthAdjust="spacing" textLength="69" x="638" y="941.5486">CANDIDATE</text><polygon fill="#000000" points="475,972.5047,485,976.5047,475,980.5047" style="stroke:#000000;stroke-width:1.0;"/><line style="stroke:#000000;stroke-width:1.0;" x1="223" x2="481" y1="976.5047" y2="976.5047"/><text fill="#000000" font-family="Lato,sans-serif" font-size="12" font-weight="bold" lengthAdjust="spacing" textLength="17" x="230" y="971.9487">24:</text><text fill="#000000" font-family="Consolas,Menlo,monospace" font-size="12" lengthAdjust="spacing" textLength="119" x="251" y="971.2421">psa_fwu_install()</text><path d="M58,962.1046 L58,978.1046 A4,4 0 0 0 62,982.1046 L204,982.1046 A4,4 0 0 0 208,978.1046 L208,968.1046 L198,958.1046 L62,958.1046 A4,4 0 0 0 58,962.1046 " fill="#E8E8E8" style="stroke:#181818;stroke-width:1.0;"/><path d="M198,958.1046 L198,966.1046 A2,2 0 0 0 200,968.1046 L208,968.1046 L198,958.1046 " fill="#E8E8E8" style="stroke:#181818;stroke-width:1.0;"/><text fill="#000000" font-family="Lato,sans-serif" font-size="12" lengthAdjust="spacing" textLength="129" x="64" y="974.9487">Proceed with installation</text><polygon fill="#000000" points="234,1003.9048,224,1007.9048,234,1011.9048" style="stroke:#000000;stroke-width:1.0;"/><line style="stroke:#000000;stroke-width:1.0;stroke-dasharray:2.0,2.0;" x1="228" x2="491" y1="1007.9048" y2="1007.9048"/><text fill="#000000" font-family="Lato,sans-serif" font-size="12" font-weight="bold" lengthAdjust="spacing" textLength="17" x="240" y="1003.3488">25:</text><text fill="#000000" font-family="Consolas,Menlo,monospace" font-size="12" lengthAdjust="spacing" textLength="161" x="261" y="1002.6422">PSA_FWU_REBOOT_REQUIRED</text><rect fill="#F08080" height="22" rx="4" ry="4" style="stroke:#181818;stroke-width:1.0;" width="54" x="646" y="1020.9048"/><text fill="#000000" font-family="Lato,sans-serif" font-size="12" lengthAdjust="spacing" textLength="46" x="650" y="1036.7489">STAGED</text><line style="stroke:#000000;stroke-width:1.0;" x1="717" x2="707" y1="1068.705" y2="1064.705"/><line style="stroke:#000000;stroke-width:1.0;" x1="717" x2="707" y1="1068.705" y2="1072.705"/><line style="stroke:#000000;stroke-width:1.0;stroke-dasharray:2.0,2.0;" x1="218" x2="718" y1="1068.705" y2="1068.705"/><text fill="#000000" font-family="Lato,sans-serif" font-size="12" font-weight="bold" lengthAdjust="spacing" textLength="17" x="225" y="1064.149">26:</text><text fill="#000000" font-family="Lato,sans-serif" font-size="12" lengthAdjust="spacing" textLength="81" x="246" y="1064.149">Request reboot</text><rect fill="#EEEEEE" height="3" rx="4" ry="4" style="stroke:#EEEEEE;stroke-width:1.0;" width="719" x="0" y="1096.905"/><line style="stroke:#000000;stroke-width:1.0;" x1="0" x2="719" y1="1096.905" y2="1096.905"/><line style="stroke:#000000;stroke-width:1.0;" x1="0" x2="719" y1="1099.905" y2="1099.905"/><rect fill="#EEEEEE" height="22.4001" rx="4" ry="4" style="stroke:#000000;stroke-width:2.0;" width="98" x="310.5" y="1086.705"/><text fill="#000000" font-family="Lato,sans-serif" font-size="12" font-weight="bold" lengthAdjust="spacing" textLength="82" x="316.5" y="1102.5491">System restarts</text><line style="stroke:#000000;stroke-width:1.0;" x1="591" x2="601" y1="1139.5052" y2="1135.5052"/><line style="stroke:#000000;stroke-width:1.0;" x1="591" x2="601" y1="1139.5052" y2="1143.5052"/><line style="stroke:#000000;stroke-width:1.0;stroke-dasharray:2.0,2.0;" x1="590" x2="718" y1="1139.5052" y2="1139.5052"/><text fill="#000000" font-family="Lato,sans-serif" font-size="12" font-weight="bold" lengthAdjust="spacing" textLength="17" x="607" y="1134.9492">27:</text><text fill="#000000" font-family="Lato,sans-serif" font-size="12" lengthAdjust="spacing" textLength="63" x="628" y="1134.9492">Device boot</text><polygon fill="#E8E8E8" points="495,1182.5052,674,1182.5052,684,1200.5052,674,1218.5052,495,1218.5052,485,1200.5052,495,1182.5052" style="stroke:#181818;stroke-width:1.0;"/><text fill="#000000" font-family="Consolas,Menlo,monospace" font-size="12" lengthAdjust="spacing" textLength="175" x="497" y="1197.4681">suit-candidate-validation</text><text fill="#000000" font-family="Consolas,Menlo,monospace" font-size="12" lengthAdjust="spacing" textLength="84" x="497" y="1211.5189">suit-install</text><polygon fill="#E8E8E8" points="537,1228.6068,632,1228.6068,642,1253.6068,632,1278.6068,537,1278.6068,527,1253.6068,537,1228.6068" style="stroke:#181818;stroke-width:1.0;"/><text fill="#000000" font-family="Consolas,Menlo,monospace" font-size="12" lengthAdjust="spacing" textLength="91" x="539" y="1243.5696">suit-validate</text><text fill="#000000" font-family="Consolas,Menlo,monospace" font-size="12" lengthAdjust="spacing" textLength="63" x="539" y="1257.6204">suit-load</text><text fill="#000000" font-family="Consolas,Menlo,monospace" font-size="12" lengthAdjust="spacing" textLength="77" x="539" y="1271.6712">suit-invoke</text><line style="stroke:#000000;stroke-width:1.0;" x1="474" x2="484" y1="1304.1592" y2="1300.1592"/><line style="stroke:#000000;stroke-width:1.0;" x1="474" x2="484" y1="1304.1592" y2="1308.1592"/><line style="stroke:#000000;stroke-width:1.0;stroke-dasharray:2.0,2.0;" x1="473" x2="579" y1="1304.1592" y2="1304.1592"/><text fill="#000000" font-family="Lato,sans-serif" font-size="12" font-weight="bold" lengthAdjust="spacing" textLength="17" x="490" y="1299.6032">28:</text><text fill="#000000" font-family="Lato,sans-serif" font-size="12" lengthAdjust="spacing" textLength="72" x="511" y="1299.6032">Run firmware</text><rect fill="#AAAADD" height="22" rx="4" ry="4" style="stroke:#181818;stroke-width:1.0;" width="64" x="641" y="1317.1592"/><text fill="#000000" font-family="Lato,sans-serif" font-size="12" lengthAdjust="spacing" textLength="56" x="645" y="1333.0033">UPDATED</text></g></svg>