<?xml version="1.0" encoding="UTF-8" standalone="no"?><svg xmlns="http://www.w3.org/2000/svg" xmlns:xlink="http://www.w3.org/1999/xlink" contentStyleType="text/css" height="1318px" preserveAspectRatio="none" style="width:712px;height:1318px;background:#FFFFFF55;" version="1.1" viewBox="0 0 712 1318" width="712px" zoomAndPan="magnify"><defs/><g><rect fill="#E0E0E0" fill-opacity="0.75294" height="1299.8099" rx="4" ry="4" style="stroke:none;stroke-width:0.5;" width="96" x="16" y="6"/><text fill="#000000" font-family="Lato,sans-serif" font-size="12" font-weight="bold" lengthAdjust="spacing" textLength="48" x="40" y="17.8441">Network</text><rect fill="#E0E0E0" fill-opacity="0.75294" height="1299.8099" rx="4" ry="4" style="stroke:none;stroke-width:0.5;" width="440" x="172" y="6"/><text fill="#000000" font-family="Lato,sans-serif" font-size="12" font-weight="bold" lengthAdjust="spacing" textLength="36" x="374" y="17.8441">Device</text><rect fill="#FFFFFF" height="176.4006" style="stroke:#808080;stroke-width:1.0;" width="10" x="59" y="504.1539"/><rect fill="#FFFFFF" height="962.1554" style="stroke:#808080;stroke-width:1.0;" width="10" x="213" y="63.8002"/><rect fill="#DDDDDD" height="31.4001" style="stroke:#808080;stroke-width:1.0;" width="10" x="473" y="119.6004"/><rect fill="#DDDDDD" height="28.4001" style="stroke:#808080;stroke-width:1.0;" width="10" x="473" y="211.8007"/><rect fill="#DDDDDD" height="28.4001" style="stroke:#808080;stroke-width:1.0;" width="10" x="473" y="268.6009"/><rect fill="#DDDDDD" height="114.9525" style="stroke:#808080;stroke-width:1.0;" width="10" x="473" y="360.8012"/><rect fill="#DDDDDD" height="31.4001" style="stroke:#808080;stroke-width:1.0;" width="10" x="473" y="535.554"/><rect fill="#DDDDDD" height="28.4001" style="stroke:#808080;stroke-width:1.0;" width="10" x="473" y="623.7543"/><rect fill="#DDDDDD" height="28.4001" style="stroke:#808080;stroke-width:1.0;" width="10" x="473" y="708.9546"/><rect fill="#DDDDDD" height="28.4001" style="stroke:#808080;stroke-width:1.0;" width="10" x="473" y="765.7548"/><rect fill="#DDDDDD" height="41.4001" style="stroke:#808080;stroke-width:1.0;" width="10" x="473" y="825.555"/><rect fill="#DDDDDD" height="31.4001" style="stroke:#808080;stroke-width:1.0;" width="10" x="473" y="933.7553"/><rect fill="#FFFFFF" height="206.0541" style="stroke:#808080;stroke-width:1.0;" width="10" x="566" y="1096.7558"/><rect fill="#ADD8E6" height="55.8002" style="stroke:#808080;stroke-width:1.0;" width="10" x="654" y="63.8002"/><rect fill="#98FB98" height="117.6004" style="stroke:#808080;stroke-width:1.0;" width="10" x="654" y="151.0005"/><rect fill="#EEE8AA" height="528.554" style="stroke:#808080;stroke-width:1.0;" width="10" x="654" y="297.001"/><rect fill="#FFA07A" height="66.8002" style="stroke:#808080;stroke-width:1.0;" width="10" x="654" y="866.9551"/><rect fill="#F08080" height="161.6004" style="stroke:#808080;stroke-width:1.0;" width="10" x="654" y="965.1554"/><rect fill="#AAAADD" height="41.4001" style="stroke:#808080;stroke-width:1.0;" width="10" x="654" y="1261.4098"/><rect fill="#FFFFFF" fill-opacity="0.50196" height="411.6522" rx="4" ry="4" style="stroke:#808080;stroke-width:1.0;" width="524" x="10" y="424.9028"/><line style="stroke:#808080;stroke-width:0.5;stroke-dasharray:5.0,5.0;" x1="64" x2="64" y1="53.8002" y2="1311.8099"/><line style="stroke:#808080;stroke-width:0.5;stroke-dasharray:5.0,5.0;" x1="218" x2="218" y1="53.8002" y2="1311.8099"/><line style="stroke:#808080;stroke-width:0.5;stroke-dasharray:5.0,5.0;" x1="333" x2="333" y1="53.8002" y2="1311.8099"/><line style="stroke:#808080;stroke-width:0.5;stroke-dasharray:5.0,5.0;" x1="478" x2="478" y1="53.8002" y2="1311.8099"/><line style="stroke:#808080;stroke-width:0.5;stroke-dasharray:5.0,5.0;" x1="571" x2="571" y1="53.8002" y2="1311.8099"/><line style="stroke:#808080;stroke-width:0.5;stroke-dasharray:5.0,5.0;" x1="659" x2="659" y1="53.8002" y2="1311.8099"/><rect fill="#FFFFFF" height="28.4001" rx="4" ry="4" style="stroke:#000000;stroke-width:1.0;" width="88" x="20" y="24.4001"/><text fill="#000000" font-family="Lato,sans-serif" font-size="12" lengthAdjust="spacing" textLength="74" x="27" y="43.2442">Update server</text><rect fill="#FFFFFF" height="28.4001" rx="4" ry="4" style="stroke:#000000;stroke-width:1.0;" width="84" x="176" y="24.4001"/><text fill="#000000" font-family="Lato,sans-serif" font-size="12" lengthAdjust="spacing" textLength="70" x="183" y="43.2442">Update client</text><rect fill="#FFFFFF" height="28.4001" rx="4" ry="4" style="stroke:#000000;stroke-width:1.0;" width="127" x="270" y="24.4001"/><text fill="#000000" font-family="Lato,sans-serif" font-size="12" lengthAdjust="spacing" textLength="113" x="277" y="43.2442">Firmware Update API</text><rect fill="#FFFFFF" height="28.4001" rx="4" ry="4" style="stroke:#000000;stroke-width:1.0;" width="92" x="432" y="24.4001"/><text fill="#000000" font-family="Lato,sans-serif" font-size="12" lengthAdjust="spacing" textLength="78" x="439" y="43.2442">Update service</text><rect fill="#FFFFFF" height="28.4001" rx="4" ry="4" style="stroke:#000000;stroke-width:1.0;" width="74" x="534" y="24.4001"/><text fill="#000000" font-family="Lato,sans-serif" font-size="12" lengthAdjust="spacing" textLength="60" x="541" y="43.2442">Bootloader</text><text fill="#000000" font-family="Lato,sans-serif" font-size="12" lengthAdjust="spacing" textLength="76" x="618" y="51.2442">Envelope state</text><ellipse cx="659" cy="23.4001" fill="#FFFFFF" rx="12" ry="12" style="stroke:#000000;stroke-width:1.0;"/><line style="stroke:#000000;stroke-width:1.0;" x1="647" x2="671" y1="37.4001" y2="37.4001"/><rect fill="#FFFFFF" height="176.4006" style="stroke:#808080;stroke-width:1.0;" width="10" x="59" y="504.1539"/><rect fill="#FFFFFF" height="962.1554" style="stroke:#808080;stroke-width:1.0;" width="10" x="213" y="63.8002"/><rect fill="#DDDDDD" height="31.4001" style="stroke:#808080;stroke-width:1.0;" width="10" x="473" y="119.6004"/><rect fill="#DDDDDD" height="28.4001" style="stroke:#808080;stroke-width:1.0;" width="10" x="473" y="211.8007"/><rect fill="#DDDDDD" height="28.4001" style="stroke:#808080;stroke-width:1.0;" width="10" x="473" y="268.6009"/><rect fill="#DDDDDD" height="114.9525" style="stroke:#808080;stroke-width:1.0;" width="10" x="473" y="360.8012"/><rect fill="#DDDDDD" height="31.4001" style="stroke:#808080;stroke-width:1.0;" width="10" x="473" y="535.554"/><rect fill="#DDDDDD" height="28.4001" style="stroke:#808080;stroke-width:1.0;" width="10" x="473" y="623.7543"/><rect fill="#DDDDDD" height="28.4001" style="stroke:#808080;stroke-width:1.0;" width="10" x="473" y="708.9546"/><rect fill="#DDDDDD" height="28.4001" style="stroke:#808080;stroke-width:1.0;" width="10" x="473" y="765.7548"/><rect fill="#DDDDDD" height="41.4001" style="stroke:#808080;stroke-width:1.0;" width="10" x="473" y="825.555"/><rect fill="#DDDDDD" height="31.4001" style="stroke:#808080;stroke-width:1.0;" width="10" x="473" y="933.7553"/><rect fill="#FFFFFF" height="206.0541" style="stroke:#808080;stroke-width:1.0;" width="10" x="566" y="1096.7558"/><rect fill="#ADD8E6" height="55.8002" style="stroke:#808080;stroke-width:1.0;" width="10" x="654" y="63.8002"/><rect fill="#98FB98" height="117.6004" style="stroke:#808080;stroke-width:1.0;" width="10" x="654" y="151.0005"/><rect fill="#EEE8AA" height="528.554" style="stroke:#808080;stroke-width:1.0;" width="10" x="654" y="297.001"/><rect fill="#FFA07A" height="66.8002" style="stroke:#808080;stroke-width:1.0;" width="10" x="654" y="866.9551"/><rect fill="#F08080" height="161.6004" style="stroke:#808080;stroke-width:1.0;" width="10" x="654" y="965.1554"/><rect fill="#AAAADD" height="41.4001" style="stroke:#808080;stroke-width:1.0;" width="10" x="654" y="1261.4098"/><rect fill="#ADD8E6" height="22" rx="4" ry="4" style="stroke:#181818;stroke-width:1.0;" width="48" x="635" y="68.8002"/><text fill="#000000" font-family="Lato,sans-serif" font-size="12" lengthAdjust="spacing" textLength="40" x="639" y="84.6443">READY</text><polygon fill="#000000" points="461,115.6004,471,119.6004,461,123.6004" style="stroke:#000000;stroke-width:1.0;"/><line style="stroke:#000000;stroke-width:1.0;" x1="223" x2="467" y1="119.6004" y2="119.6004"/><text fill="#000000" font-family="Lato,sans-serif" font-size="12" font-weight="bold" lengthAdjust="spacing" textLength="10" x="230" y="115.0444">1:</text><text fill="#000000" font-family="Consolas,Menlo,monospace" font-size="12" lengthAdjust="spacing" textLength="182" x="244" y="114.3379">psa_fwu_start(envelope_id)</text><path d="M63,105.2003 L63,121.2003 A4,4 0 0 0 67,125.2003 L204,125.2003 A4,4 0 0 0 208,121.2003 L208,111.2003 L198,101.2003 L67,101.2003 A4,4 0 0 0 63,105.2003 " fill="#E8E8E8" style="stroke:#181818;stroke-width:1.0;"/><path d="M198,101.2003 L198,109.2003 A2,2 0 0 0 200,111.2003 L208,111.2003 L198,101.2003 " fill="#E8E8E8" style="stroke:#181818;stroke-width:1.0;"/><text fill="#000000" font-family="Lato,sans-serif" font-size="12" lengthAdjust="spacing" textLength="124" x="69" y="118.0444">Transfer SUIT Envelope</text><polygon fill="#000000" points="234,147.0005,224,151.0005,234,155.0005" style="stroke:#000000;stroke-width:1.0;"/><line style="stroke:#000000;stroke-width:1.0;stroke-dasharray:2.0,2.0;" x1="228" x2="477" y1="151.0005" y2="151.0005"/><text fill="#000000" font-family="Lato,sans-serif" font-size="12" font-weight="bold" lengthAdjust="spacing" textLength="10" x="240" y="146.4445">2:</text><text fill="#000000" font-family="Consolas,Menlo,monospace" font-size="12" lengthAdjust="spacing" textLength="77" x="254" y="145.738">PSA_SUCCESS</text><rect fill="#98FB98" height="22" rx="4" ry="4" style="stroke:#181818;stroke-width:1.0;" width="61" x="628" y="164.0005"/><text fill="#000000" font-family="Lato,sans-serif" font-size="12" lengthAdjust="spacing" textLength="53" x="632" y="179.8446">WRITING</text><polygon fill="#000000" points="461,207.8007,471,211.8007,461,215.8007" style="stroke:#000000;stroke-width:1.0;"/><line style="stroke:#000000;stroke-width:1.0;" x1="223" x2="467" y1="211.8007" y2="211.8007"/><text fill="#000000" font-family="Lato,sans-serif" font-size="12" font-weight="bold" lengthAdjust="spacing" textLength="10" x="230" y="207.2447">3:</text><text fill="#000000" font-family="Consolas,Menlo,monospace" font-size="12" lengthAdjust="spacing" textLength="217" x="244" y="206.5382">psa_fwu_write(envelope_id, ...)</text><polygon fill="#000000" points="234,236.2008,224,240.2008,234,244.2008" style="stroke:#000000;stroke-width:1.0;"/><line style="stroke:#000000;stroke-width:1.0;stroke-dasharray:2.0,2.0;" x1="228" x2="477" y1="240.2008" y2="240.2008"/><text fill="#000000" font-family="Lato,sans-serif" font-size="12" font-weight="bold" lengthAdjust="spacing" textLength="10" x="240" y="235.6448">4:</text><text fill="#000000" font-family="Consolas,Menlo,monospace" font-size="12" lengthAdjust="spacing" textLength="77" x="254" y="234.9383">PSA_SUCCESS</text><polygon fill="#000000" points="461,264.6009,471,268.6009,461,272.6009" style="stroke:#000000;stroke-width:1.0;"/><line style="stroke:#000000;stroke-width:1.0;" x1="223" x2="467" y1="268.6009" y2="268.6009"/><text fill="#000000" font-family="Lato,sans-serif" font-size="12" font-weight="bold" lengthAdjust="spacing" textLength="10" x="230" y="264.0449">5:</text><text fill="#000000" font-family="Consolas,Menlo,monospace" font-size="12" lengthAdjust="spacing" textLength="189" x="244" y="263.3384">psa_fwu_finish(envelope_id)</text><polygon fill="#000000" points="234,293.001,224,297.001,234,301.001" style="stroke:#000000;stroke-width:1.0;"/><line style="stroke:#000000;stroke-width:1.0;stroke-dasharray:2.0,2.0;" x1="228" x2="477" y1="297.001" y2="297.001"/><text fill="#000000" font-family="Lato,sans-serif" font-size="12" font-weight="bold" lengthAdjust="spacing" textLength="10" x="240" y="292.445">6:</text><text fill="#000000" font-family="Consolas,Menlo,monospace" font-size="12" lengthAdjust="spacing" textLength="189" x="254" y="291.7385">PSA_FWU_PROCESSING_REQUIRED</text><rect fill="#EEE8AA" height="22" rx="4" ry="4" style="stroke:#181818;stroke-width:1.0;" width="68" x="625" y="310.001"/><text fill="#000000" font-family="Lato,sans-serif" font-size="12" lengthAdjust="spacing" textLength="60" x="629" y="325.8451">FETCHING</text><polygon fill="#000000" points="461,356.8012,471,360.8012,461,364.8012" style="stroke:#000000;stroke-width:1.0;"/><line style="stroke:#000000;stroke-width:1.0;" x1="223" x2="467" y1="360.8012" y2="360.8012"/><text fill="#000000" font-family="Lato,sans-serif" font-size="12" font-weight="bold" lengthAdjust="spacing" textLength="10" x="230" y="356.2452">7:</text><text fill="#000000" font-family="Consolas,Menlo,monospace" font-size="12" lengthAdjust="spacing" textLength="119" x="244" y="355.5387">psa_fwu_process()</text><path d="M71,346.4011 L71,362.4011 A4,4 0 0 0 75,366.4011 L204,366.4011 A4,4 0 0 0 208,362.4011 L208,352.4011 L198,342.4011 L75,342.4011 A4,4 0 0 0 71,346.4011 " fill="#E8E8E8" style="stroke:#181818;stroke-width:1.0;"/><path d="M198,342.4011 L198,350.4011 A2,2 0 0 0 200,352.4011 L208,352.4011 L198,342.4011 " fill="#E8E8E8" style="stroke:#181818;stroke-width:1.0;"/><text fill="#000000" font-family="Lato,sans-serif" font-size="12" lengthAdjust="spacing" textLength="116" x="77" y="359.2452">Process SUIT manifest</text><polygon fill="#E8E8E8" points="388,376.8012,567,376.8012,577,394.8012,567,412.8012,388,412.8012,378,394.8012,388,376.8012" style="stroke:#181818;stroke-width:1.0;"/><text fill="#000000" font-family="Consolas,Menlo,monospace" font-size="12" lengthAdjust="spacing" textLength="175" x="390" y="391.7641">suit-resolve-dependencies</text><text fill="#000000" font-family="Consolas,Menlo,monospace" font-size="12" lengthAdjust="spacing" textLength="126" x="390" y="405.8149">suit-payload-fetch</text><path d="M14,424.9028 L79,424.9028 L79,431.3029 L69,441.3029 L10,441.3029 L10,428.9028 A4,4 0 0 1 14,424.9028 " fill="#F0F0F0" style="stroke:#808080;stroke-width:1.5;"/><rect fill="none" height="411.6522" rx="4" ry="4" style="stroke:#808080;stroke-width:1.0;" width="524" x="10" y="424.9028"/><text fill="#000000" font-family="Lato,sans-serif" font-size="12" lengthAdjust="spacing" textLength="24" x="25" y="437.7469">loop</text><text fill="#000000" font-family="Lato,sans-serif" font-size="11" font-weight="bold" lengthAdjust="spacing" textLength="197" x="94" y="437.7599">[While additional payloads are required]</text><polygon fill="#000000" points="234,471.7538,224,475.7538,234,479.7538" style="stroke:#000000;stroke-width:1.0;"/><line style="stroke:#000000;stroke-width:1.0;stroke-dasharray:2.0,2.0;" x1="228" x2="477" y1="475.7538" y2="475.7538"/><text fill="#000000" font-family="Lato,sans-serif" font-size="12" font-weight="bold" lengthAdjust="spacing" textLength="10" x="240" y="464.1723">8:</text><text fill="#000000" font-family="Consolas,Menlo,monospace" font-size="12" lengthAdjust="spacing" textLength="168" x="254" y="456.2658">PSA_FWU_PAYLOAD_REQUIRED</text><text fill="#000000" font-family="Lato,sans-serif" font-size="12" lengthAdjust="spacing" textLength="116" x="258" y="471.1977">+ payload information</text><line style="stroke:#000000;stroke-width:1.0;" x1="70" x2="80" y1="504.1539" y2="500.1539"/><line style="stroke:#000000;stroke-width:1.0;" x1="70" x2="80" y1="504.1539" y2="508.1539"/><line style="stroke:#000000;stroke-width:1.0;" x1="69" x2="212" y1="504.1539" y2="504.1539"/><text fill="#000000" font-family="Lato,sans-serif" font-size="12" font-weight="bold" lengthAdjust="spacing" textLength="10" x="86" y="499.5978">9:</text><text fill="#000000" font-family="Lato,sans-serif" font-size="12" lengthAdjust="spacing" textLength="74" x="100" y="499.5978">Fetch payload</text><polygon fill="#000000" points="461,531.554,471,535.554,461,539.554" style="stroke:#000000;stroke-width:1.0;"/><line style="stroke:#000000;stroke-width:1.0;" x1="223" x2="467" y1="535.554" y2="535.554"/><text fill="#000000" font-family="Lato,sans-serif" font-size="12" font-weight="bold" lengthAdjust="spacing" textLength="17" x="230" y="530.9979">10:</text><text fill="#000000" font-family="Consolas,Menlo,monospace" font-size="12" lengthAdjust="spacing" textLength="175" x="251" y="530.2914">psa_fwu_start(payload_id)</text><path d="M98,521.1539 L98,537.1539 A4,4 0 0 0 102,541.1539 L204,541.1539 A4,4 0 0 0 208,537.1539 L208,527.1539 L198,517.1539 L102,517.1539 A4,4 0 0 0 98,521.1539 " fill="#E8E8E8" style="stroke:#181818;stroke-width:1.0;"/><path d="M198,517.1539 L198,525.1539 A2,2 0 0 0 200,527.1539 L208,527.1539 L198,517.1539 " fill="#E8E8E8" style="stroke:#181818;stroke-width:1.0;"/><text fill="#000000" font-family="Lato,sans-serif" font-size="12" lengthAdjust="spacing" textLength="89" x="104" y="533.9979">Transfer payload</text><polygon fill="#000000" points="234,562.9541,224,566.9541,234,570.9541" style="stroke:#000000;stroke-width:1.0;"/><line style="stroke:#000000;stroke-width:1.0;stroke-dasharray:2.0,2.0;" x1="228" x2="477" y1="566.9541" y2="566.9541"/><text fill="#000000" font-family="Lato,sans-serif" font-size="12" font-weight="bold" lengthAdjust="spacing" textLength="17" x="240" y="562.398">11:</text><text fill="#000000" font-family="Consolas,Menlo,monospace" font-size="12" lengthAdjust="spacing" textLength="77" x="261" y="561.6915">PSA_SUCCESS</text><line style="stroke:#000000;stroke-width:1.0;" x1="211" x2="201" y1="595.3542" y2="591.3542"/><line style="stroke:#000000;stroke-width:1.0;" x1="211" x2="201" y1="595.3542" y2="599.3542"/><line style="stroke:#000000;stroke-width:1.0;stroke-dasharray:2.0,2.0;" x1="69" x2="212" y1="595.3542" y2="595.3542"/><text fill="#000000" font-family="Lato,sans-serif" font-size="12" font-weight="bold" lengthAdjust="spacing" textLength="17" x="76" y="590.7981">12:</text><text fill="#000000" font-family="Lato,sans-serif" font-size="12" lengthAdjust="spacing" textLength="99" x="97" y="590.7981">Download payload</text><polygon fill="#000000" points="461,619.7543,471,623.7543,461,627.7543" style="stroke:#000000;stroke-width:1.0;"/><line style="stroke:#000000;stroke-width:1.0;" x1="223" x2="467" y1="623.7543" y2="623.7543"/><text fill="#000000" font-family="Lato,sans-serif" font-size="12" font-weight="bold" lengthAdjust="spacing" textLength="17" x="230" y="619.1982">13:</text><text fill="#000000" font-family="Consolas,Menlo,monospace" font-size="12" lengthAdjust="spacing" textLength="210" x="251" y="618.4917">psa_fwu_write(payload_id, ...)</text><polygon fill="#000000" points="234,648.1544,224,652.1544,234,656.1544" style="stroke:#000000;stroke-width:1.0;"/><line style="stroke:#000000;stroke-width:1.0;stroke-dasharray:2.0,2.0;" x1="228" x2="477" y1="652.1544" y2="652.1544"/><text fill="#000000" font-family="Lato,sans-serif" font-size="12" font-weight="bold" lengthAdjust="spacing" textLength="17" x="240" y="647.5983">14:</text><text fill="#000000" font-family="Consolas,Menlo,monospace" font-size="12" lengthAdjust="spacing" textLength="77" x="261" y="646.8918">PSA_SUCCESS</text><line style="stroke:#000000;stroke-width:1.0;" x1="211" x2="201" y1="680.5545" y2="676.5545"/><line style="stroke:#000000;stroke-width:1.0;" x1="211" x2="201" y1="680.5545" y2="684.5545"/><line style="stroke:#000000;stroke-width:1.0;stroke-dasharray:2.0,2.0;" x1="64" x2="212" y1="680.5545" y2="680.5545"/><text fill="#000000" font-family="Lato,sans-serif" font-size="12" font-weight="bold" lengthAdjust="spacing" textLength="17" x="71" y="675.9984">15:</text><text fill="#000000" font-family="Lato,sans-serif" font-size="12" lengthAdjust="spacing" textLength="99" x="92" y="675.9984">Download payload</text><polygon fill="#000000" points="461,704.9546,471,708.9546,461,712.9546" style="stroke:#000000;stroke-width:1.0;"/><line style="stroke:#000000;stroke-width:1.0;" x1="223" x2="467" y1="708.9546" y2="708.9546"/><text fill="#000000" font-family="Lato,sans-serif" font-size="12" font-weight="bold" lengthAdjust="spacing" textLength="17" x="230" y="704.3985">16:</text><text fill="#000000" font-family="Consolas,Menlo,monospace" font-size="12" lengthAdjust="spacing" textLength="210" x="251" y="703.692">psa_fwu_write(payload_id, ...)</text><polygon fill="#000000" points="234,733.3547,224,737.3547,234,741.3547" style="stroke:#000000;stroke-width:1.0;"/><line style="stroke:#000000;stroke-width:1.0;stroke-dasharray:2.0,2.0;" x1="228" x2="477" y1="737.3547" y2="737.3547"/><text fill="#000000" font-family="Lato,sans-serif" font-size="12" font-weight="bold" lengthAdjust="spacing" textLength="17" x="240" y="732.7986">17:</text><text fill="#000000" font-family="Consolas,Menlo,monospace" font-size="12" lengthAdjust="spacing" textLength="77" x="261" y="732.0921">PSA_SUCCESS</text><polygon fill="#000000" points="461,761.7548,471,765.7548,461,769.7548" style="stroke:#000000;stroke-width:1.0;"/><line style="stroke:#000000;stroke-width:1.0;" x1="223" x2="467" y1="765.7548" y2="765.7548"/><text fill="#000000" font-family="Lato,sans-serif" font-size="12" font-weight="bold" lengthAdjust="spacing" textLength="17" x="230" y="761.1987">18:</text><text fill="#000000" font-family="Consolas,Menlo,monospace" font-size="12" lengthAdjust="spacing" textLength="182" x="251" y="760.4922">psa_fwu_finish(payload_id)</text><polygon fill="#000000" points="234,790.1549,224,794.1549,234,798.1549" style="stroke:#000000;stroke-width:1.0;"/><line style="stroke:#000000;stroke-width:1.0;stroke-dasharray:2.0,2.0;" x1="228" x2="477" y1="794.1549" y2="794.1549"/><text fill="#000000" font-family="Lato,sans-serif" font-size="12" font-weight="bold" lengthAdjust="spacing" textLength="17" x="240" y="789.5988">19:</text><text fill="#000000" font-family="Consolas,Menlo,monospace" font-size="12" lengthAdjust="spacing" textLength="77" x="261" y="788.8923">PSA_SUCCESS</text><polygon fill="#000000" points="461,821.555,471,825.555,461,829.555" style="stroke:#000000;stroke-width:1.0;"/><line style="stroke:#000000;stroke-width:1.0;" x1="223" x2="467" y1="825.555" y2="825.555"/><text fill="#000000" font-family="Lato,sans-serif" font-size="12" font-weight="bold" lengthAdjust="spacing" textLength="17" x="230" y="820.9989">20:</text><text fill="#000000" font-family="Consolas,Menlo,monospace" font-size="12" lengthAdjust="spacing" textLength="119" x="251" y="820.2924">psa_fwu_process()</text><path d="M58,811.1549 L58,827.1549 A4,4 0 0 0 62,831.1549 L204,831.1549 A4,4 0 0 0 208,827.1549 L208,817.1549 L198,807.1549 L62,807.1549 A4,4 0 0 0 58,811.1549 " fill="#E8E8E8" style="stroke:#181818;stroke-width:1.0;"/><path d="M198,807.1549 L198,815.1549 A2,2 0 0 0 200,817.1549 L208,817.1549 L198,807.1549 " fill="#E8E8E8" style="stroke:#181818;stroke-width:1.0;"/><text fill="#000000" font-family="Lato,sans-serif" font-size="12" lengthAdjust="spacing" textLength="129" x="64" y="823.9989">Resume SUIT processing</text><polygon fill="#000000" points="234,862.9551,224,866.9551,234,870.9551" style="stroke:#000000;stroke-width:1.0;"/><line style="stroke:#000000;stroke-width:1.0;stroke-dasharray:2.0,2.0;" x1="228" x2="477" y1="866.9551" y2="866.9551"/><text fill="#000000" font-family="Lato,sans-serif" font-size="12" font-weight="bold" lengthAdjust="spacing" textLength="17" x="240" y="862.399">21:</text><text fill="#000000" font-family="Consolas,Menlo,monospace" font-size="12" lengthAdjust="spacing" textLength="77" x="261" y="861.6925">PSA_SUCCESS</text><path d="M31,852.555 L31,868.555 A4,4 0 0 0 35,872.555 L204,872.555 A4,4 0 0 0 208,868.555 L208,858.555 L198,848.555 L35,848.555 A4,4 0 0 0 31,852.555 " fill="#E8E8E8" style="stroke:#181818;stroke-width:1.0;"/><path d="M198,848.555 L198,856.555 A2,2 0 0 0 200,858.555 L208,858.555 L198,848.555 " fill="#E8E8E8" style="stroke:#181818;stroke-width:1.0;"/><text fill="#000000" font-family="Lato,sans-serif" font-size="12" lengthAdjust="spacing" textLength="156" x="37" y="865.399">Manifest processing complete</text><rect fill="#FFA07A" height="22" rx="4" ry="4" style="stroke:#181818;stroke-width:1.0;" width="77" x="620" y="882.9551"/><text fill="#000000" font-family="Lato,sans-serif" font-size="12" lengthAdjust="spacing" textLength="69" x="624" y="898.7991">CANDIDATE</text><polygon fill="#000000" points="461,929.7553,471,933.7553,461,937.7553" style="stroke:#000000;stroke-width:1.0;"/><line style="stroke:#000000;stroke-width:1.0;" x1="223" x2="467" y1="933.7553" y2="933.7553"/><text fill="#000000" font-family="Lato,sans-serif" font-size="12" font-weight="bold" lengthAdjust="spacing" textLength="17" x="230" y="929.1992">22:</text><text fill="#000000" font-family="Consolas,Menlo,monospace" font-size="12" lengthAdjust="spacing" textLength="119" x="251" y="928.4927">psa_fwu_install()</text><path d="M58,919.3552 L58,935.3552 A4,4 0 0 0 62,939.3552 L204,939.3552 A4,4 0 0 0 208,935.3552 L208,925.3552 L198,915.3552 L62,915.3552 A4,4 0 0 0 58,919.3552 " fill="#E8E8E8" style="stroke:#181818;stroke-width:1.0;"/><path d="M198,915.3552 L198,923.3552 A2,2 0 0 0 200,925.3552 L208,925.3552 L198,915.3552 " fill="#E8E8E8" style="stroke:#181818;stroke-width:1.0;"/><text fill="#000000" font-family="Lato,sans-serif" font-size="12" lengthAdjust="spacing" textLength="129" x="64" y="932.1992">Proceed with installation</text><polygon fill="#000000" points="234,961.1554,224,965.1554,234,969.1554" style="stroke:#000000;stroke-width:1.0;"/><line style="stroke:#000000;stroke-width:1.0;stroke-dasharray:2.0,2.0;" x1="228" x2="477" y1="965.1554" y2="965.1554"/><text fill="#000000" font-family="Lato,sans-serif" font-size="12" font-weight="bold" lengthAdjust="spacing" textLength="17" x="240" y="960.5993">23:</text><text fill="#000000" font-family="Consolas,Menlo,monospace" font-size="12" lengthAdjust="spacing" textLength="161" x="261" y="959.8928">PSA_FWU_REBOOT_REQUIRED</text><rect fill="#F08080" height="22" rx="4" ry="4" style="stroke:#181818;stroke-width:1.0;" width="54" x="632" y="978.1554"/><text fill="#000000" font-family="Lato,sans-serif" font-size="12" lengthAdjust="spacing" textLength="46" x="636" y="993.9994">STAGED</text><line style="stroke:#000000;stroke-width:1.0;" x1="703" x2="693" y1="1025.9556" y2="1021.9556"/><line style="stroke:#000000;stroke-width:1.0;" x1="703" x2="693" y1="1025.9556" y2="1029.9556"/><line style="stroke:#000000;stroke-width:1.0;stroke-dasharray:2.0,2.0;" x1="218" x2="704" y1="1025.9556" y2="1025.9556"/><text fill="#000000" font-family="Lato,sans-serif" font-size="12" font-weight="bold" lengthAdjust="spacing" textLength="17" x="225" y="1021.3995">24:</text><text fill="#000000" font-family="Lato,sans-serif" font-size="12" lengthAdjust="spacing" textLength="81" x="246" y="1021.3995">Request reboot</text><rect fill="#EEEEEE" height="3" rx="4" ry="4" style="stroke:#EEEEEE;stroke-width:1.0;" width="705" x="0" y="1054.1556"/><line style="stroke:#000000;stroke-width:1.0;" x1="0" x2="705" y1="1054.1556" y2="1054.1556"/><line style="stroke:#000000;stroke-width:1.0;" x1="0" x2="705" y1="1057.1556" y2="1057.1556"/><rect fill="#EEEEEE" height="22.4001" rx="4" ry="4" style="stroke:#000000;stroke-width:2.0;" width="98" x="303.5" y="1043.9556"/><text fill="#000000" font-family="Lato,sans-serif" font-size="12" font-weight="bold" lengthAdjust="spacing" textLength="82" x="309.5" y="1059.7996">System restarts</text><line style="stroke:#000000;stroke-width:1.0;" x1="577" x2="587" y1="1096.7558" y2="1092.7558"/><line style="stroke:#000000;stroke-width:1.0;" x1="577" x2="587" y1="1096.7558" y2="1100.7558"/><line style="stroke:#000000;stroke-width:1.0;stroke-dasharray:2.0,2.0;" x1="576" x2="704" y1="1096.7558" y2="1096.7558"/><text fill="#000000" font-family="Lato,sans-serif" font-size="12" font-weight="bold" lengthAdjust="spacing" textLength="17" x="593" y="1092.1997">25:</text><text fill="#000000" font-family="Lato,sans-serif" font-size="12" lengthAdjust="spacing" textLength="63" x="614" y="1092.1997">Device boot</text><polygon fill="#E8E8E8" points="481,1139.7558,660,1139.7558,670,1157.7558,660,1175.7558,481,1175.7558,471,1157.7558,481,1139.7558" style="stroke:#181818;stroke-width:1.0;"/><text fill="#000000" font-family="Consolas,Menlo,monospace" font-size="12" lengthAdjust="spacing" textLength="175" x="483" y="1154.7187">suit-candidate-validation</text><text fill="#000000" font-family="Consolas,Menlo,monospace" font-size="12" lengthAdjust="spacing" textLength="84" x="483" y="1168.7694">suit-install</text><polygon fill="#E8E8E8" points="523,1185.8573,618,1185.8573,628,1210.8573,618,1235.8573,523,1235.8573,513,1210.8573,523,1185.8573" style="stroke:#181818;stroke-width:1.0;"/><text fill="#000000" font-family="Consolas,Menlo,monospace" font-size="12" lengthAdjust="spacing" textLength="91" x="525" y="1200.8202">suit-validate</text><text fill="#000000" font-family="Consolas,Menlo,monospace" font-size="12" lengthAdjust="spacing" textLength="63" x="525" y="1214.871">suit-load</text><text fill="#000000" font-family="Consolas,Menlo,monospace" font-size="12" lengthAdjust="spacing" textLength="77" x="525" y="1228.9218">suit-invoke</text><line style="stroke:#000000;stroke-width:1.0;" x1="460" x2="470" y1="1261.4098" y2="1257.4098"/><line style="stroke:#000000;stroke-width:1.0;" x1="460" x2="470" y1="1261.4098" y2="1265.4098"/><line style="stroke:#000000;stroke-width:1.0;stroke-dasharray:2.0,2.0;" x1="459" x2="565" y1="1261.4098" y2="1261.4098"/><text fill="#000000" font-family="Lato,sans-serif" font-size="12" font-weight="bold" lengthAdjust="spacing" textLength="17" x="476" y="1256.8538">26:</text><text fill="#000000" font-family="Lato,sans-serif" font-size="12" lengthAdjust="spacing" textLength="72" x="497" y="1256.8538">Run firmware</text><rect fill="#AAAADD" height="22" rx="4" ry="4" style="stroke:#181818;stroke-width:1.0;" width="64" x="627" y="1274.4098"/><text fill="#000000" font-family="Lato,sans-serif" font-size="12" lengthAdjust="spacing" textLength="56" x="631" y="1290.2539">UPDATED</text></g></svg>