<?xml version="1.0" encoding="UTF-8" standalone="no"?><svg xmlns="http://www.w3.org/2000/svg" xmlns:xlink="http://www.w3.org/1999/xlink" contentStyleType="text/css" height="1103px" preserveAspectRatio="none" style="width:713px;height:1103px;background:#FFFFFF55;" version="1.1" viewBox="0 0 713 1103" width="713px" zoomAndPan="magnify"><defs/><g><rect fill="#FFFFFF" height="208.7446" style="stroke:#808080;stroke-width:1.0;" width="10" x="59" y="487.9321"/><rect fill="#FFFFFF" height="1025.9897" style="stroke:#808080;stroke-width:1.0;" width="10" x="210" y="61.3921"/><rect fill="#DDDDDD" height="31.3921" style="stroke:#808080;stroke-width:1.0;" width="10" x="467" y="117.1763"/><rect fill="#DDDDDD" height="28.3921" style="stroke:#808080;stroke-width:1.0;" width="10" x="467" y="209.3525"/><rect fill="#DDDDDD" height="28.3921" style="stroke:#808080;stroke-width:1.0;" width="10" x="467" y="266.1367"/><rect fill="#DDDDDD" height="68.835" style="stroke:#808080;stroke-width:1.0;" width="10" x="467" y="358.313"/><rect fill="#DDDDDD" height="31.3921" style="stroke:#808080;stroke-width:1.0;" width="10" x="467" y="519.3242"/><rect fill="#DDDDDD" height="28.3921" style="stroke:#808080;stroke-width:1.0;" width="10" x="467" y="639.8926"/><rect fill="#DDDDDD" height="28.3921" style="stroke:#808080;stroke-width:1.0;" width="10" x="467" y="725.0688"/><rect fill="#DDDDDD" height="28.3921" style="stroke:#808080;stroke-width:1.0;" width="10" x="467" y="781.853"/><rect fill="#DDDDDD" height="41.3921" style="stroke:#808080;stroke-width:1.0;" width="10" x="467" y="874.0293"/><rect fill="#DDDDDD" height="31.3921" style="stroke:#808080;stroke-width:1.0;" width="10" x="467" y="982.2056"/><rect fill="#ADD8E6" height="55.7842" style="stroke:#808080;stroke-width:1.0;" width="10" x="564" y="61.3921"/><rect fill="#98FB98" height="117.5684" style="stroke:#808080;stroke-width:1.0;" width="10" x="564" y="148.5684"/><rect fill="#EEE8AA" height="63.7842" style="stroke:#808080;stroke-width:1.0;" width="10" x="564" y="294.5288"/><rect fill="#FAFAD2" height="354.7051" style="stroke:#808080;stroke-width:1.0;" width="10" x="564" y="427.1479"/><rect fill="#EEE8AA" height="63.7842" style="stroke:#808080;stroke-width:1.0;" width="10" x="564" y="810.2451"/><rect fill="#FFA07A" height="66.7842" style="stroke:#808080;stroke-width:1.0;" width="10" x="564" y="915.4214"/><rect fill="#F08080" height="73.7842" style="stroke:#808080;stroke-width:1.0;" width="10" x="564" y="1013.5977"/><rect fill="#ADD8E6" height="92.1763" style="stroke:#808080;stroke-width:1.0;" width="10" x="653.5" y="427.1479"/><rect fill="#98FB98" height="231.1367" style="stroke:#808080;stroke-width:1.0;" width="10" x="653.5" y="550.7163"/><rect fill="#FFA07A" height="171.9604" style="stroke:#808080;stroke-width:1.0;" width="10" x="653.5" y="810.2451"/><rect fill="#F08080" height="73.7842" style="stroke:#808080;stroke-width:1.0;" width="10" x="653.5" y="1013.5977"/><rect fill="#FFFFFF" height="508.7163" rx="4" ry="4" style="stroke:#808080;stroke-width:1.0;" width="697" x="10" y="376.313"/><line style="stroke:#808080;stroke-width:0.5;stroke-dasharray:5.0,5.0;" x1="64" x2="64" y1="51.3921" y2="1096.3818"/><line style="stroke:#808080;stroke-width:0.5;stroke-dasharray:5.0,5.0;" x1="215" x2="215" y1="51.3921" y2="1096.3818"/><line style="stroke:#808080;stroke-width:0.5;stroke-dasharray:5.0,5.0;" x1="472" x2="472" y1="51.3921" y2="1096.3818"/><line style="stroke:#808080;stroke-width:0.5;stroke-dasharray:5.0,5.0;" x1="569" x2="569" y1="51.3921" y2="1096.3818"/><line style="stroke:#808080;stroke-width:0.5;stroke-dasharray:5.0,5.0;" x1="658" x2="658" y1="51.3921" y2="1096.3818"/><rect fill="#FFFFFF" height="28.3921" rx="4" ry="4" style="stroke:#000000;stroke-width:1.0;" width="88" x="20" y="22"/><text fill="#000000" font-family="Lato,sans-serif" font-size="12" lengthAdjust="spacing" textLength="74" x="27" y="40.8375">Update server</text><rect fill="#FFFFFF" height="28.3921" rx="4" ry="4" style="stroke:#000000;stroke-width:1.0;" width="84" x="173" y="22"/><text fill="#000000" font-family="Lato,sans-serif" font-size="12" lengthAdjust="spacing" textLength="70" x="180" y="40.8375">Update client</text><rect fill="#FFFFFF" height="28.3921" rx="4" ry="4" style="stroke:#000000;stroke-width:1.0;" width="92" x="426" y="22"/><text fill="#000000" font-family="Lato,sans-serif" font-size="12" lengthAdjust="spacing" textLength="78" x="433" y="40.8375">Update service</text><text fill="#000000" font-family="Lato,sans-serif" font-size="12" lengthAdjust="spacing" textLength="76" x="528" y="48.8375">Envelope state</text><ellipse cx="569" cy="21" fill="#FFFFFF" rx="12" ry="12" style="stroke:#000000;stroke-width:1.0;"/><line style="stroke:#000000;stroke-width:1.0;" x1="557" x2="581" y1="35" y2="35"/><text fill="#000000" font-family="Lato,sans-serif" font-size="12" lengthAdjust="spacing" textLength="69" x="621" y="48.8375">Payload state</text><ellipse cx="658.5" cy="21" fill="#FFFFFF" rx="12" ry="12" style="stroke:#000000;stroke-width:1.0;"/><line style="stroke:#000000;stroke-width:1.0;" x1="646.5" x2="670.5" y1="35" y2="35"/><rect fill="#FFFFFF" height="208.7446" style="stroke:#808080;stroke-width:1.0;" width="10" x="59" y="487.9321"/><rect fill="#FFFFFF" height="1025.9897" style="stroke:#808080;stroke-width:1.0;" width="10" x="210" y="61.3921"/><rect fill="#DDDDDD" height="31.3921" style="stroke:#808080;stroke-width:1.0;" width="10" x="467" y="117.1763"/><rect fill="#DDDDDD" height="28.3921" style="stroke:#808080;stroke-width:1.0;" width="10" x="467" y="209.3525"/><rect fill="#DDDDDD" height="28.3921" style="stroke:#808080;stroke-width:1.0;" width="10" x="467" y="266.1367"/><rect fill="#DDDDDD" height="68.835" style="stroke:#808080;stroke-width:1.0;" width="10" x="467" y="358.313"/><rect fill="#DDDDDD" height="31.3921" style="stroke:#808080;stroke-width:1.0;" width="10" x="467" y="519.3242"/><rect fill="#DDDDDD" height="28.3921" style="stroke:#808080;stroke-width:1.0;" width="10" x="467" y="639.8926"/><rect fill="#DDDDDD" height="28.3921" style="stroke:#808080;stroke-width:1.0;" width="10" x="467" y="725.0688"/><rect fill="#DDDDDD" height="28.3921" style="stroke:#808080;stroke-width:1.0;" width="10" x="467" y="781.853"/><rect fill="#DDDDDD" height="41.3921" style="stroke:#808080;stroke-width:1.0;" width="10" x="467" y="874.0293"/><rect fill="#DDDDDD" height="31.3921" style="stroke:#808080;stroke-width:1.0;" width="10" x="467" y="982.2056"/><rect fill="#ADD8E6" height="55.7842" style="stroke:#808080;stroke-width:1.0;" width="10" x="564" y="61.3921"/><rect fill="#98FB98" height="117.5684" style="stroke:#808080;stroke-width:1.0;" width="10" x="564" y="148.5684"/><rect fill="#EEE8AA" height="63.7842" style="stroke:#808080;stroke-width:1.0;" width="10" x="564" y="294.5288"/><rect fill="#FAFAD2" height="354.7051" style="stroke:#808080;stroke-width:1.0;" width="10" x="564" y="427.1479"/><rect fill="#EEE8AA" height="63.7842" style="stroke:#808080;stroke-width:1.0;" width="10" x="564" y="810.2451"/><rect fill="#FFA07A" height="66.7842" style="stroke:#808080;stroke-width:1.0;" width="10" x="564" y="915.4214"/><rect fill="#F08080" height="73.7842" style="stroke:#808080;stroke-width:1.0;" width="10" x="564" y="1013.5977"/><rect fill="#ADD8E6" height="92.1763" style="stroke:#808080;stroke-width:1.0;" width="10" x="653.5" y="427.1479"/><rect fill="#98FB98" height="231.1367" style="stroke:#808080;stroke-width:1.0;" width="10" x="653.5" y="550.7163"/><rect fill="#FFA07A" height="171.9604" style="stroke:#808080;stroke-width:1.0;" width="10" x="653.5" y="810.2451"/><rect fill="#F08080" height="73.7842" style="stroke:#808080;stroke-width:1.0;" width="10" x="653.5" y="1013.5977"/><rect fill="#ADD8E6" height="22" rx="4" ry="4" style="stroke:#181818;stroke-width:1.0;" width="48" x="545" y="66.3921"/><text fill="#000000" font-family="Lato,sans-serif" font-size="12" lengthAdjust="spacing" textLength="40" x="549" y="82.2296">READY</text><polygon fill="#000000" points="455,113.1763,465,117.1763,455,121.1763" style="stroke:#000000;stroke-width:1.0;"/><line style="stroke:#000000;stroke-width:1.0;" x1="220" x2="461" y1="117.1763" y2="117.1763"/><text fill="#000000" font-family="Lato,sans-serif" font-size="12" font-weight="bold" lengthAdjust="spacing" textLength="7" x="227" y="112.6217">1</text><text fill="#000000" font-family="Consolas,Menlo,monospace" font-size="12" lengthAdjust="spacing" textLength="182" x="238" y="112.9431">psa_fwu_start(envelope_id)</text><path d="M60,102.7842 L60,118.7842 A4,4 0 0 0 64,122.7842 L201,122.7842 A4,4 0 0 0 205,118.7842 L205,108.7842 L195,98.7842 L64,98.7842 A4,4 0 0 0 60,102.7842 " fill="#E8E8E8" style="stroke:#181818;stroke-width:1.0;"/><path d="M195,98.7842 L195,106.7842 A2,2 0 0 0 197,108.7842 L205,108.7842 L195,98.7842 " fill="#E8E8E8" style="stroke:#181818;stroke-width:1.0;"/><text fill="#000000" font-family="Lato,sans-serif" font-size="12" lengthAdjust="spacing" textLength="124" x="66" y="115.6217">Transfer SUIT Envelope</text><polygon fill="#000000" points="231,144.5684,221,148.5684,231,152.5684" style="stroke:#000000;stroke-width:1.0;"/><line style="stroke:#000000;stroke-width:1.0;stroke-dasharray:2.0,2.0;" x1="225" x2="471" y1="148.5684" y2="148.5684"/><text fill="#000000" font-family="Lato,sans-serif" font-size="12" font-weight="bold" lengthAdjust="spacing" textLength="7" x="237" y="144.0138">2</text><text fill="#000000" font-family="Consolas,Menlo,monospace" font-size="12" lengthAdjust="spacing" textLength="77" x="248" y="144.3352">PSA_SUCCESS</text><rect fill="#98FB98" height="22" rx="4" ry="4" style="stroke:#181818;stroke-width:1.0;" width="61" x="538" y="161.5684"/><text fill="#000000" font-family="Lato,sans-serif" font-size="12" lengthAdjust="spacing" textLength="53" x="542" y="177.4059">WRITING</text><polygon fill="#000000" points="455,205.3525,465,209.3525,455,213.3525" style="stroke:#000000;stroke-width:1.0;"/><line style="stroke:#000000;stroke-width:1.0;" x1="220" x2="461" y1="209.3525" y2="209.3525"/><text fill="#000000" font-family="Lato,sans-serif" font-size="12" font-weight="bold" lengthAdjust="spacing" textLength="7" x="227" y="204.7979">3</text><text fill="#000000" font-family="Consolas,Menlo,monospace" font-size="12" lengthAdjust="spacing" textLength="217" x="238" y="205.1194">psa_fwu_write(envelope_id, ...)</text><polygon fill="#000000" points="231,233.7446,221,237.7446,231,241.7446" style="stroke:#000000;stroke-width:1.0;"/><line style="stroke:#000000;stroke-width:1.0;stroke-dasharray:2.0,2.0;" x1="225" x2="471" y1="237.7446" y2="237.7446"/><text fill="#000000" font-family="Lato,sans-serif" font-size="12" font-weight="bold" lengthAdjust="spacing" textLength="7" x="237" y="233.19">4</text><text fill="#000000" font-family="Consolas,Menlo,monospace" font-size="12" lengthAdjust="spacing" textLength="77" x="248" y="233.5115">PSA_SUCCESS</text><polygon fill="#000000" points="455,262.1367,465,266.1367,455,270.1367" style="stroke:#000000;stroke-width:1.0;"/><line style="stroke:#000000;stroke-width:1.0;" x1="220" x2="461" y1="266.1367" y2="266.1367"/><text fill="#000000" font-family="Lato,sans-serif" font-size="12" font-weight="bold" lengthAdjust="spacing" textLength="7" x="227" y="261.5821">5</text><text fill="#000000" font-family="Consolas,Menlo,monospace" font-size="12" lengthAdjust="spacing" textLength="189" x="238" y="261.9036">psa_fwu_finish(envelope_id)</text><polygon fill="#000000" points="231,290.5288,221,294.5288,231,298.5288" style="stroke:#000000;stroke-width:1.0;"/><line style="stroke:#000000;stroke-width:1.0;stroke-dasharray:2.0,2.0;" x1="225" x2="471" y1="294.5288" y2="294.5288"/><text fill="#000000" font-family="Lato,sans-serif" font-size="12" font-weight="bold" lengthAdjust="spacing" textLength="7" x="237" y="289.9742">6</text><text fill="#000000" font-family="Consolas,Menlo,monospace" font-size="12" lengthAdjust="spacing" textLength="189" x="248" y="290.2957">PSA_FWU_PROCESSING_REQUIRED</text><rect fill="#EEE8AA" height="22" rx="4" ry="4" style="stroke:#181818;stroke-width:1.0;" width="82" x="528" y="307.5288"/><text fill="#000000" font-family="Lato,sans-serif" font-size="12" lengthAdjust="spacing" textLength="74" x="532" y="323.3663">PROCESSING</text><polygon fill="#000000" points="455,354.313,465,358.313,455,362.313" style="stroke:#000000;stroke-width:1.0;"/><line style="stroke:#000000;stroke-width:1.0;" x1="220" x2="461" y1="358.313" y2="358.313"/><text fill="#000000" font-family="Lato,sans-serif" font-size="12" font-weight="bold" lengthAdjust="spacing" textLength="7" x="227" y="353.7584">7</text><text fill="#000000" font-family="Consolas,Menlo,monospace" font-size="12" lengthAdjust="spacing" textLength="196" x="238" y="354.0798">psa_fwu_process(envelope_id)</text><path d="M68,343.9209 L68,359.9209 A4,4 0 0 0 72,363.9209 L201,363.9209 A4,4 0 0 0 205,359.9209 L205,349.9209 L195,339.9209 L72,339.9209 A4,4 0 0 0 68,343.9209 " fill="#E8E8E8" style="stroke:#181818;stroke-width:1.0;"/><path d="M195,339.9209 L195,347.9209 A2,2 0 0 0 197,349.9209 L205,349.9209 L195,339.9209 " fill="#E8E8E8" style="stroke:#181818;stroke-width:1.0;"/><text fill="#000000" font-family="Lato,sans-serif" font-size="12" lengthAdjust="spacing" textLength="116" x="74" y="356.7584">Process SUIT manifest</text><path d="M14,376.313 L79,376.313 L79,382.7051 L69,392.7051 L10,392.7051 L10,380.313 A4,4 0 0 1 14,376.313 " fill="#F0F0F0" style="stroke:#808080;stroke-width:1.5;"/><rect fill="none" height="508.7163" rx="4" ry="4" style="stroke:#808080;stroke-width:1.0;" width="697" x="10" y="376.313"/><text fill="#000000" font-family="Lato,sans-serif" font-size="12" lengthAdjust="spacing" textLength="24" x="25" y="389.1505">loop</text><text fill="#000000" font-family="Lato,sans-serif" font-size="11" font-weight="bold" lengthAdjust="spacing" textLength="197" x="94" y="389.1565">[While additional payloads are required]</text><polygon fill="#000000" points="231,423.1479,221,427.1479,231,431.1479" style="stroke:#000000;stroke-width:1.0;"/><line style="stroke:#000000;stroke-width:1.0;stroke-dasharray:2.0,2.0;" x1="225" x2="471" y1="427.1479" y2="427.1479"/><text fill="#000000" font-family="Lato,sans-serif" font-size="12" font-weight="bold" lengthAdjust="spacing" textLength="7" x="237" y="415.568">8</text><text fill="#000000" font-family="Consolas,Menlo,monospace" font-size="12" lengthAdjust="spacing" textLength="168" x="248" y="408.6934">PSA_FWU_PAYLOAD_REQUIRED</text><text fill="#000000" font-family="Lato,sans-serif" font-size="12" lengthAdjust="spacing" textLength="116" x="252" y="422.5934">+ payload information</text><rect fill="#FAFAD2" height="22" rx="4" ry="4" style="stroke:#181818;stroke-width:1.0;" width="75" x="531" y="440.1479"/><text fill="#000000" font-family="Lato,sans-serif" font-size="12" lengthAdjust="spacing" textLength="67" x="535" y="455.9854">FETCHING *</text><rect fill="#ADD8E6" height="22" rx="4" ry="4" style="stroke:#181818;stroke-width:1.0;" width="48" x="634" y="440.1479"/><text fill="#000000" font-family="Lato,sans-serif" font-size="12" lengthAdjust="spacing" textLength="40" x="638" y="455.9854">READY</text><line style="stroke:#000000;stroke-width:1.0;" x1="70" x2="80" y1="487.9321" y2="483.9321"/><line style="stroke:#000000;stroke-width:1.0;" x1="70" x2="80" y1="487.9321" y2="491.9321"/><line style="stroke:#000000;stroke-width:1.0;" x1="69" x2="209" y1="487.9321" y2="487.9321"/><text fill="#000000" font-family="Lato,sans-serif" font-size="12" font-weight="bold" lengthAdjust="spacing" textLength="7" x="86" y="483.3775">9</text><text fill="#000000" font-family="Lato,sans-serif" font-size="12" lengthAdjust="spacing" textLength="74" x="97" y="483.3775">Fetch payload</text><polygon fill="#000000" points="455,515.3242,465,519.3242,455,523.3242" style="stroke:#000000;stroke-width:1.0;"/><line style="stroke:#000000;stroke-width:1.0;" x1="220" x2="461" y1="519.3242" y2="519.3242"/><text fill="#000000" font-family="Lato,sans-serif" font-size="12" font-weight="bold" lengthAdjust="spacing" textLength="14" x="227" y="514.7696">10</text><text fill="#000000" font-family="Consolas,Menlo,monospace" font-size="12" lengthAdjust="spacing" textLength="175" x="245" y="515.0911">psa_fwu_start(payload_id)</text><path d="M95,504.9321 L95,520.9321 A4,4 0 0 0 99,524.9321 L201,524.9321 A4,4 0 0 0 205,520.9321 L205,510.9321 L195,500.9321 L99,500.9321 A4,4 0 0 0 95,504.9321 " fill="#E8E8E8" style="stroke:#181818;stroke-width:1.0;"/><path d="M195,500.9321 L195,508.9321 A2,2 0 0 0 197,510.9321 L205,510.9321 L195,500.9321 " fill="#E8E8E8" style="stroke:#181818;stroke-width:1.0;"/><text fill="#000000" font-family="Lato,sans-serif" font-size="12" lengthAdjust="spacing" textLength="89" x="101" y="517.7696">Transfer payload</text><polygon fill="#000000" points="231,546.7163,221,550.7163,231,554.7163" style="stroke:#000000;stroke-width:1.0;"/><line style="stroke:#000000;stroke-width:1.0;stroke-dasharray:2.0,2.0;" x1="225" x2="471" y1="550.7163" y2="550.7163"/><text fill="#000000" font-family="Lato,sans-serif" font-size="12" font-weight="bold" lengthAdjust="spacing" textLength="14" x="237" y="546.1617">11</text><text fill="#000000" font-family="Consolas,Menlo,monospace" font-size="12" lengthAdjust="spacing" textLength="77" x="255" y="546.4832">PSA_SUCCESS</text><rect fill="#98FB98" height="22" rx="4" ry="4" style="stroke:#181818;stroke-width:1.0;" width="61" x="628" y="563.7163"/><text fill="#000000" font-family="Lato,sans-serif" font-size="12" lengthAdjust="spacing" textLength="53" x="632" y="579.5538">WRITING</text><line style="stroke:#000000;stroke-width:1.0;" x1="208" x2="198" y1="611.5005" y2="607.5005"/><line style="stroke:#000000;stroke-width:1.0;" x1="208" x2="198" y1="611.5005" y2="615.5005"/><line style="stroke:#000000;stroke-width:1.0;stroke-dasharray:2.0,2.0;" x1="69" x2="209" y1="611.5005" y2="611.5005"/><text fill="#000000" font-family="Lato,sans-serif" font-size="12" font-weight="bold" lengthAdjust="spacing" textLength="14" x="76" y="606.9459">12</text><text fill="#000000" font-family="Lato,sans-serif" font-size="12" lengthAdjust="spacing" textLength="99" x="94" y="606.9459">Download payload</text><polygon fill="#000000" points="455,635.8926,465,639.8926,455,643.8926" style="stroke:#000000;stroke-width:1.0;"/><line style="stroke:#000000;stroke-width:1.0;" x1="220" x2="461" y1="639.8926" y2="639.8926"/><text fill="#000000" font-family="Lato,sans-serif" font-size="12" font-weight="bold" lengthAdjust="spacing" textLength="14" x="227" y="635.338">13</text><text fill="#000000" font-family="Consolas,Menlo,monospace" font-size="12" lengthAdjust="spacing" textLength="210" x="245" y="635.6594">psa_fwu_write(payload_id, ...)</text><polygon fill="#000000" points="231,664.2847,221,668.2847,231,672.2847" style="stroke:#000000;stroke-width:1.0;"/><line style="stroke:#000000;stroke-width:1.0;stroke-dasharray:2.0,2.0;" x1="225" x2="471" y1="668.2847" y2="668.2847"/><text fill="#000000" font-family="Lato,sans-serif" font-size="12" font-weight="bold" lengthAdjust="spacing" textLength="14" x="237" y="663.7301">14</text><text fill="#000000" font-family="Consolas,Menlo,monospace" font-size="12" lengthAdjust="spacing" textLength="77" x="255" y="664.0515">PSA_SUCCESS</text><line style="stroke:#000000;stroke-width:1.0;" x1="208" x2="198" y1="696.6768" y2="692.6768"/><line style="stroke:#000000;stroke-width:1.0;" x1="208" x2="198" y1="696.6768" y2="700.6768"/><line style="stroke:#000000;stroke-width:1.0;stroke-dasharray:2.0,2.0;" x1="64" x2="209" y1="696.6768" y2="696.6768"/><text fill="#000000" font-family="Lato,sans-serif" font-size="12" font-weight="bold" lengthAdjust="spacing" textLength="14" x="71" y="692.1222">15</text><text fill="#000000" font-family="Lato,sans-serif" font-size="12" lengthAdjust="spacing" textLength="99" x="89" y="692.1222">Download payload</text><polygon fill="#000000" points="455,721.0688,465,725.0688,455,729.0688" style="stroke:#000000;stroke-width:1.0;"/><line style="stroke:#000000;stroke-width:1.0;" x1="220" x2="461" y1="725.0688" y2="725.0688"/><text fill="#000000" font-family="Lato,sans-serif" font-size="12" font-weight="bold" lengthAdjust="spacing" textLength="14" x="227" y="720.5143">16</text><text fill="#000000" font-family="Consolas,Menlo,monospace" font-size="12" lengthAdjust="spacing" textLength="210" x="245" y="720.8357">psa_fwu_write(payload_id, ...)</text><polygon fill="#000000" points="231,749.4609,221,753.4609,231,757.4609" style="stroke:#000000;stroke-width:1.0;"/><line style="stroke:#000000;stroke-width:1.0;stroke-dasharray:2.0,2.0;" x1="225" x2="471" y1="753.4609" y2="753.4609"/><text fill="#000000" font-family="Lato,sans-serif" font-size="12" font-weight="bold" lengthAdjust="spacing" textLength="14" x="237" y="748.9063">17</text><text fill="#000000" font-family="Consolas,Menlo,monospace" font-size="12" lengthAdjust="spacing" textLength="77" x="255" y="749.2278">PSA_SUCCESS</text><polygon fill="#000000" points="455,777.853,465,781.853,455,785.853" style="stroke:#000000;stroke-width:1.0;"/><line style="stroke:#000000;stroke-width:1.0;" x1="220" x2="461" y1="781.853" y2="781.853"/><text fill="#000000" font-family="Lato,sans-serif" font-size="12" font-weight="bold" lengthAdjust="spacing" textLength="14" x="227" y="777.2984">18</text><text fill="#000000" font-family="Consolas,Menlo,monospace" font-size="12" lengthAdjust="spacing" textLength="182" x="245" y="777.6199">psa_fwu_finish(payload_id)</text><polygon fill="#000000" points="231,806.2451,221,810.2451,231,814.2451" style="stroke:#000000;stroke-width:1.0;"/><line style="stroke:#000000;stroke-width:1.0;stroke-dasharray:2.0,2.0;" x1="225" x2="471" y1="810.2451" y2="810.2451"/><text fill="#000000" font-family="Lato,sans-serif" font-size="12" font-weight="bold" lengthAdjust="spacing" textLength="14" x="237" y="805.6905">19</text><text fill="#000000" font-family="Consolas,Menlo,monospace" font-size="12" lengthAdjust="spacing" textLength="77" x="255" y="806.012">PSA_SUCCESS</text><rect fill="#EEE8AA" height="22" rx="4" ry="4" style="stroke:#181818;stroke-width:1.0;" width="82" x="528" y="823.2451"/><text fill="#000000" font-family="Lato,sans-serif" font-size="12" lengthAdjust="spacing" textLength="74" x="532" y="839.0826">PROCESSING</text><rect fill="#FFA07A" height="22" rx="4" ry="4" style="stroke:#181818;stroke-width:1.0;" width="77" x="620" y="823.2451"/><text fill="#000000" font-family="Lato,sans-serif" font-size="12" lengthAdjust="spacing" textLength="69" x="624" y="839.0826">CANDIDATE</text><polygon fill="#000000" points="455,870.0293,465,874.0293,455,878.0293" style="stroke:#000000;stroke-width:1.0;"/><line style="stroke:#000000;stroke-width:1.0;" x1="220" x2="461" y1="874.0293" y2="874.0293"/><text fill="#000000" font-family="Lato,sans-serif" font-size="12" font-weight="bold" lengthAdjust="spacing" textLength="14" x="227" y="869.4747">20</text><text fill="#000000" font-family="Consolas,Menlo,monospace" font-size="12" lengthAdjust="spacing" textLength="196" x="245" y="869.7961">psa_fwu_process(envelope_id)</text><path d="M55,859.6372 L55,875.6372 A4,4 0 0 0 59,879.6372 L201,879.6372 A4,4 0 0 0 205,875.6372 L205,865.6372 L195,855.6372 L59,855.6372 A4,4 0 0 0 55,859.6372 " fill="#E8E8E8" style="stroke:#181818;stroke-width:1.0;"/><path d="M195,855.6372 L195,863.6372 A2,2 0 0 0 197,865.6372 L205,865.6372 L195,855.6372 " fill="#E8E8E8" style="stroke:#181818;stroke-width:1.0;"/><text fill="#000000" font-family="Lato,sans-serif" font-size="12" lengthAdjust="spacing" textLength="129" x="61" y="872.4747">Resume SUIT processing</text><polygon fill="#000000" points="231,911.4214,221,915.4214,231,919.4214" style="stroke:#000000;stroke-width:1.0;"/><line style="stroke:#000000;stroke-width:1.0;stroke-dasharray:2.0,2.0;" x1="225" x2="471" y1="915.4214" y2="915.4214"/><text fill="#000000" font-family="Lato,sans-serif" font-size="12" font-weight="bold" lengthAdjust="spacing" textLength="14" x="237" y="910.8668">21</text><text fill="#000000" font-family="Consolas,Menlo,monospace" font-size="12" lengthAdjust="spacing" textLength="77" x="255" y="911.1882">PSA_SUCCESS</text><path d="M28,901.0293 L28,917.0293 A4,4 0 0 0 32,921.0293 L201,921.0293 A4,4 0 0 0 205,917.0293 L205,907.0293 L195,897.0293 L32,897.0293 A4,4 0 0 0 28,901.0293 " fill="#E8E8E8" style="stroke:#181818;stroke-width:1.0;"/><path d="M195,897.0293 L195,905.0293 A2,2 0 0 0 197,907.0293 L205,907.0293 L195,897.0293 " fill="#E8E8E8" style="stroke:#181818;stroke-width:1.0;"/><text fill="#000000" font-family="Lato,sans-serif" font-size="12" lengthAdjust="spacing" textLength="156" x="34" y="913.8668">Manifest processing complete</text><rect fill="#FFA07A" height="22" rx="4" ry="4" style="stroke:#181818;stroke-width:1.0;" width="77" x="530" y="931.4214"/><text fill="#000000" font-family="Lato,sans-serif" font-size="12" lengthAdjust="spacing" textLength="69" x="534" y="947.2589">CANDIDATE</text><polygon fill="#000000" points="455,978.2056,465,982.2056,455,986.2056" style="stroke:#000000;stroke-width:1.0;"/><line style="stroke:#000000;stroke-width:1.0;" x1="220" x2="461" y1="982.2056" y2="982.2056"/><text fill="#000000" font-family="Lato,sans-serif" font-size="12" font-weight="bold" lengthAdjust="spacing" textLength="14" x="227" y="977.651">22</text><text fill="#000000" font-family="Consolas,Menlo,monospace" font-size="12" lengthAdjust="spacing" textLength="119" x="245" y="977.9724">psa_fwu_install()</text><path d="M55,967.8135 L55,983.8135 A4,4 0 0 0 59,987.8135 L201,987.8135 A4,4 0 0 0 205,983.8135 L205,973.8135 L195,963.8135 L59,963.8135 A4,4 0 0 0 55,967.8135 " fill="#E8E8E8" style="stroke:#181818;stroke-width:1.0;"/><path d="M195,963.8135 L195,971.8135 A2,2 0 0 0 197,973.8135 L205,973.8135 L195,963.8135 " fill="#E8E8E8" style="stroke:#181818;stroke-width:1.0;"/><text fill="#000000" font-family="Lato,sans-serif" font-size="12" lengthAdjust="spacing" textLength="129" x="61" y="980.651">Proceed with installation</text><polygon fill="#000000" points="231,1009.5977,221,1013.5977,231,1017.5977" style="stroke:#000000;stroke-width:1.0;"/><line style="stroke:#000000;stroke-width:1.0;stroke-dasharray:2.0,2.0;" x1="225" x2="471" y1="1013.5977" y2="1013.5977"/><text fill="#000000" font-family="Lato,sans-serif" font-size="12" font-weight="bold" lengthAdjust="spacing" textLength="14" x="237" y="1009.0431">23</text><text fill="#000000" font-family="Consolas,Menlo,monospace" font-size="12" lengthAdjust="spacing" textLength="161" x="255" y="1009.3645">PSA_FWU_REBOOT_REQUIRED</text><rect fill="#F08080" height="22" rx="4" ry="4" style="stroke:#181818;stroke-width:1.0;" width="54" x="542" y="1026.5977"/><text fill="#000000" font-family="Lato,sans-serif" font-size="12" lengthAdjust="spacing" textLength="46" x="546" y="1042.4352">STAGED</text><rect fill="#F08080" height="22" rx="4" ry="4" style="stroke:#181818;stroke-width:1.0;" width="54" x="631" y="1026.5977"/><text fill="#000000" font-family="Lato,sans-serif" font-size="12" lengthAdjust="spacing" textLength="46" x="635" y="1042.4352">STAGED</text><rect fill="#808080" height="22" rx="4" ry="4" style="stroke:#181818;stroke-width:1.0;" width="671" x="25" y="1058.9897"/><text fill="#FFFFFF" font-family="Lato,sans-serif" font-size="12" lengthAdjust="spacing" textLength="50" x="335.5" y="1074.8272">REBOOT</text></g></svg>