<?xml version="1.0" encoding="UTF-8" standalone="no"?><svg xmlns="http://www.w3.org/2000/svg" xmlns:xlink="http://www.w3.org/1999/xlink" contentStyleType="text/css" height="638px" preserveAspectRatio="none" style="width:505px;height:638px;background:#FFFFFF55;" version="1.1" viewBox="0 0 505 638" width="505px" zoomAndPan="magnify"><defs/><g><rect fill="#FFFFFF" height="140.8857" style="stroke:#808080;stroke-width:1.0;" width="10" x="59" y="283.1128"/><rect fill="#FFFFFF" height="535.1509" style="stroke:#FFFFFF;stroke-width:1.0;" width="10" x="192" y="44.3921"/><line style="stroke:#808080;stroke-width:1.0;" x1="192" x2="192" y1="44.3921" y2="579.543"/><line style="stroke:#808080;stroke-width:1.0;" x1="202" x2="202" y1="44.3921" y2="579.543"/><line style="stroke:#808080;stroke-width:1.0;" x1="192" x2="202" y1="44.3921" y2="44.3921"/><rect fill="#FFFFFF" height="1" style="stroke:#FFFFFF;stroke-width:1.0;" width="10" x="192" y="621.9351"/><line style="stroke:#808080;stroke-width:1.0;" x1="192" x2="192" y1="621.9351" y2="622.9351"/><line style="stroke:#808080;stroke-width:1.0;" x1="202" x2="202" y1="621.9351" y2="622.9351"/><line style="stroke:#808080;stroke-width:1.0;" x1="192" x2="202" y1="622.9351" y2="622.9351"/><rect fill="#DDDDDD" height="17.1707" style="stroke:#808080;stroke-width:1.0;" width="10" x="438" y="67.6135"/><rect fill="#DDDDDD" height="14" style="stroke:#808080;stroke-width:1.0;" width="10" x="438" y="112.835"/><rect fill="#DDDDDD" height="51.4429" style="stroke:#808080;stroke-width:1.0;" width="10" x="438" y="154.8857"/><rect fill="#DDDDDD" height="17.1707" style="stroke:#808080;stroke-width:1.0;" width="10" x="438" y="237.55"/><rect fill="#DDDDDD" height="14" style="stroke:#808080;stroke-width:1.0;" width="10" x="438" y="311.1636"/><rect fill="#DDDDDD" height="14" style="stroke:#808080;stroke-width:1.0;" width="10" x="438" y="381.6064"/><rect fill="#DDDDDD" height="14" style="stroke:#808080;stroke-width:1.0;" width="10" x="438" y="452.0493"/><rect fill="#DDDDDD" height="35.3921" style="stroke:#808080;stroke-width:1.0;" width="10" x="438" y="494.1001"/><rect fill="#DDDDDD" height="14" style="stroke:#808080;stroke-width:1.0;" width="10" x="438" y="557.543"/><rect fill="#FFFFFF" height="332.2144" rx="4" ry="4" style="stroke:#808080;stroke-width:1.0;" width="489" x="10" y="169.8857"/><line style="stroke:#808080;stroke-width:0.5;stroke-dasharray:5.0,5.0;" x1="64" x2="64" y1="34.3921" y2="579.543"/><line style="stroke:#808080;stroke-width:1.0;stroke-dasharray:1.0,4.0;" x1="64" x2="64" y1="579.543" y2="621.9351"/><line style="stroke:#808080;stroke-width:0.5;stroke-dasharray:5.0,5.0;" x1="64" x2="64" y1="621.9351" y2="631.9351"/><line style="stroke:#808080;stroke-width:0.5;stroke-dasharray:5.0,5.0;" x1="197" x2="197" y1="34.3921" y2="579.543"/><line style="stroke:#808080;stroke-width:1.0;stroke-dasharray:1.0,4.0;" x1="197" x2="197" y1="579.543" y2="621.9351"/><line style="stroke:#808080;stroke-width:0.5;stroke-dasharray:5.0,5.0;" x1="197" x2="197" y1="621.9351" y2="631.9351"/><line style="stroke:#808080;stroke-width:0.5;stroke-dasharray:5.0,5.0;" x1="443" x2="443" y1="34.3921" y2="579.543"/><line style="stroke:#808080;stroke-width:1.0;stroke-dasharray:1.0,4.0;" x1="443" x2="443" y1="579.543" y2="621.9351"/><line style="stroke:#808080;stroke-width:0.5;stroke-dasharray:5.0,5.0;" x1="443" x2="443" y1="621.9351" y2="631.9351"/><rect fill="#FFFFFF" height="28.3921" rx="4" ry="4" style="stroke:#000000;stroke-width:1.0;" width="88" x="20" y="5"/><text fill="#000000" font-family="Lato,sans-serif" font-size="12" lengthAdjust="spacing" textLength="74" x="27" y="23.8375">Update server</text><rect fill="#FFFFFF" height="28.3921" rx="4" ry="4" style="stroke:#000000;stroke-width:1.0;" width="84" x="155" y="5"/><text fill="#000000" font-family="Lato,sans-serif" font-size="12" lengthAdjust="spacing" textLength="70" x="162" y="23.8375">Update client</text><rect fill="#FFFFFF" height="28.3921" rx="4" ry="4" style="stroke:#000000;stroke-width:1.0;" width="92" x="397" y="5"/><text fill="#000000" font-family="Lato,sans-serif" font-size="12" lengthAdjust="spacing" textLength="78" x="404" y="23.8375">Update service</text><rect fill="#FFFFFF" height="140.8857" style="stroke:#808080;stroke-width:1.0;" width="10" x="59" y="283.1128"/><rect fill="#FFFFFF" height="535.1509" style="stroke:#FFFFFF;stroke-width:1.0;" width="10" x="192" y="44.3921"/><line style="stroke:#808080;stroke-width:1.0;" x1="192" x2="192" y1="44.3921" y2="579.543"/><line style="stroke:#808080;stroke-width:1.0;" x1="202" x2="202" y1="44.3921" y2="579.543"/><line style="stroke:#808080;stroke-width:1.0;" x1="192" x2="202" y1="44.3921" y2="44.3921"/><rect fill="#FFFFFF" height="1" style="stroke:#FFFFFF;stroke-width:1.0;" width="10" x="192" y="621.9351"/><line style="stroke:#808080;stroke-width:1.0;" x1="192" x2="192" y1="621.9351" y2="622.9351"/><line style="stroke:#808080;stroke-width:1.0;" x1="202" x2="202" y1="621.9351" y2="622.9351"/><line style="stroke:#808080;stroke-width:1.0;" x1="192" x2="202" y1="622.9351" y2="622.9351"/><rect fill="#DDDDDD" height="17.1707" style="stroke:#808080;stroke-width:1.0;" width="10" x="438" y="67.6135"/><rect fill="#DDDDDD" height="14" style="stroke:#808080;stroke-width:1.0;" width="10" x="438" y="112.835"/><rect fill="#DDDDDD" height="51.4429" style="stroke:#808080;stroke-width:1.0;" width="10" x="438" y="154.8857"/><rect fill="#DDDDDD" height="17.1707" style="stroke:#808080;stroke-width:1.0;" width="10" x="438" y="237.55"/><rect fill="#DDDDDD" height="14" style="stroke:#808080;stroke-width:1.0;" width="10" x="438" y="311.1636"/><rect fill="#DDDDDD" height="14" style="stroke:#808080;stroke-width:1.0;" width="10" x="438" y="381.6064"/><rect fill="#DDDDDD" height="14" style="stroke:#808080;stroke-width:1.0;" width="10" x="438" y="452.0493"/><rect fill="#DDDDDD" height="35.3921" style="stroke:#808080;stroke-width:1.0;" width="10" x="438" y="494.1001"/><rect fill="#DDDDDD" height="14" style="stroke:#808080;stroke-width:1.0;" width="10" x="438" y="557.543"/><polygon fill="#000000" points="426,63.6135,436,67.6135,426,71.6135" style="stroke:#000000;stroke-width:1.0;"/><line style="stroke:#000000;stroke-width:1.0;" x1="202" x2="432" y1="67.6135" y2="67.6135"/><text fill="#000000" font-family="Consolas,Menlo,monospace" font-size="12" lengthAdjust="spacing" textLength="182" x="209" y="63.551">psa_fwu_start(envelope_id)</text><path d="M24,53.3921 L24,69.3921 A4,4 0 0 0 28,73.3921 L183,73.3921 A4,4 0 0 0 187,69.3921 L187,59.3921 L177,49.3921 L28,49.3921 A4,4 0 0 0 24,53.3921 " fill="#E8E8E8" style="stroke:#181818;stroke-width:1.0;"/><path d="M177,49.3921 L177,57.3921 A2,2 0 0 0 179,59.3921 L187,59.3921 L177,49.3921 " fill="#E8E8E8" style="stroke:#181818;stroke-width:1.0;"/><text fill="#000000" font-family="Lato,sans-serif" font-size="12" lengthAdjust="spacing" textLength="142" x="30" y="66.2296">Transfer the SUIT envelope</text><polygon fill="#000000" points="213,80.7842,203,84.7842,213,88.7842" style="stroke:#000000;stroke-width:1.0;"/><line style="stroke:#000000;stroke-width:1.0;stroke-dasharray:2.0,2.0;" x1="207" x2="442" y1="84.7842" y2="84.7842"/><polygon fill="#000000" points="426,108.835,436,112.835,426,116.835" style="stroke:#000000;stroke-width:1.0;"/><line style="stroke:#000000;stroke-width:1.0;" x1="202" x2="432" y1="112.835" y2="112.835"/><text fill="#000000" font-family="Consolas,Menlo,monospace" font-size="12" lengthAdjust="spacing" textLength="217" x="209" y="108.7725">psa_fwu_write(envelope_id, ...)</text><polygon fill="#000000" points="213,122.835,203,126.835,213,130.835" style="stroke:#000000;stroke-width:1.0;"/><line style="stroke:#000000;stroke-width:1.0;stroke-dasharray:2.0,2.0;" x1="207" x2="442" y1="126.835" y2="126.835"/><polygon fill="#000000" points="426,150.8857,436,154.8857,426,158.8857" style="stroke:#000000;stroke-width:1.0;"/><line style="stroke:#000000;stroke-width:1.0;" x1="202" x2="432" y1="154.8857" y2="154.8857"/><text fill="#000000" font-family="Consolas,Menlo,monospace" font-size="12" lengthAdjust="spacing" textLength="189" x="209" y="150.8232">psa_fwu_finish(envelope_id)</text><path d="M14,169.8857 L79,169.8857 L79,176.2778 L69,186.2778 L10,186.2778 L10,173.8857 A4,4 0 0 1 14,169.8857 " fill="#F0F0F0" style="stroke:#808080;stroke-width:1.5;"/><rect fill="none" height="332.2144" rx="4" ry="4" style="stroke:#808080;stroke-width:1.0;" width="489" x="10" y="169.8857"/><text fill="#000000" font-family="Lato,sans-serif" font-size="12" lengthAdjust="spacing" textLength="24" x="25" y="182.7232">loop</text><text fill="#000000" font-family="Lato,sans-serif" font-size="11" font-weight="bold" lengthAdjust="spacing" textLength="100" x="94" y="182.7292">[while need payload]</text><polygon fill="#000000" points="213,202.3286,203,206.3286,213,210.3286" style="stroke:#000000;stroke-width:1.0;"/><line style="stroke:#000000;stroke-width:1.0;stroke-dasharray:2.0,2.0;" x1="207" x2="442" y1="206.3286" y2="206.3286"/><text fill="#000000" font-family="Consolas,Menlo,monospace" font-size="12" lengthAdjust="spacing" textLength="168" x="219" y="202.2661">PSA_FWU_PAYLOAD_REQUIRED</text><polygon fill="#000000" points="426,233.55,436,237.55,426,241.55" style="stroke:#000000;stroke-width:1.0;"/><line style="stroke:#000000;stroke-width:1.0;" x1="202" x2="432" y1="237.55" y2="237.55"/><text fill="#000000" font-family="Consolas,Menlo,monospace" font-size="12" lengthAdjust="spacing" textLength="196" x="209" y="233.4875">psa_fwu_payload(envelope_id)</text><path d="M38,223.3286 L38,239.3286 A4,4 0 0 0 42,243.3286 L183,243.3286 A4,4 0 0 0 187,239.3286 L187,229.3286 L177,219.3286 L42,219.3286 A4,4 0 0 0 38,223.3286 " fill="#E8E8E8" style="stroke:#181818;stroke-width:1.0;"/><path d="M177,219.3286 L177,227.3286 A2,2 0 0 0 179,229.3286 L187,229.3286 L177,219.3286 " fill="#E8E8E8" style="stroke:#181818;stroke-width:1.0;"/><text fill="#000000" font-family="Lato,sans-serif" font-size="12" lengthAdjust="spacing" textLength="128" x="44" y="236.1661">Get payload information</text><polygon fill="#000000" points="213,250.7207,203,254.7207,213,258.7207" style="stroke:#000000;stroke-width:1.0;"/><line style="stroke:#000000;stroke-width:1.0;stroke-dasharray:2.0,2.0;" x1="207" x2="442" y1="254.7207" y2="254.7207"/><line style="stroke:#000000;stroke-width:1.0;" x1="70" x2="80" y1="283.1128" y2="279.1128"/><line style="stroke:#000000;stroke-width:1.0;" x1="70" x2="80" y1="283.1128" y2="287.1128"/><line style="stroke:#000000;stroke-width:1.0;" x1="69" x2="191" y1="283.1128" y2="283.1128"/><text fill="#000000" font-family="Lato,sans-serif" font-size="12" lengthAdjust="spacing" textLength="74" x="86" y="278.5582">Fetch payload</text><polygon fill="#000000" points="426,307.1636,436,311.1636,426,315.1636" style="stroke:#000000;stroke-width:1.0;"/><line style="stroke:#000000;stroke-width:1.0;" x1="202" x2="432" y1="311.1636" y2="311.1636"/><text fill="#000000" font-family="Consolas,Menlo,monospace" font-size="12" lengthAdjust="spacing" textLength="175" x="209" y="307.1011">psa_fwu_start(payload_id)</text><polygon fill="#000000" points="213,321.1636,203,325.1636,213,329.1636" style="stroke:#000000;stroke-width:1.0;"/><line style="stroke:#000000;stroke-width:1.0;stroke-dasharray:2.0,2.0;" x1="207" x2="442" y1="325.1636" y2="325.1636"/><line style="stroke:#000000;stroke-width:1.0;" x1="190" x2="180" y1="353.5557" y2="349.5557"/><line style="stroke:#000000;stroke-width:1.0;" x1="190" x2="180" y1="353.5557" y2="357.5557"/><line style="stroke:#000000;stroke-width:1.0;stroke-dasharray:2.0,2.0;" x1="69" x2="191" y1="353.5557" y2="353.5557"/><text fill="#000000" font-family="Lato,sans-serif" font-size="12" lengthAdjust="spacing" textLength="99" x="76" y="349.0011">Download payload</text><polygon fill="#000000" points="426,377.6064,436,381.6064,426,385.6064" style="stroke:#000000;stroke-width:1.0;"/><line style="stroke:#000000;stroke-width:1.0;" x1="202" x2="432" y1="381.6064" y2="381.6064"/><text fill="#000000" font-family="Consolas,Menlo,monospace" font-size="12" lengthAdjust="spacing" textLength="210" x="209" y="377.5439">psa_fwu_write(payload_id, ...)</text><polygon fill="#000000" points="213,391.6064,203,395.6064,213,399.6064" style="stroke:#000000;stroke-width:1.0;"/><line style="stroke:#000000;stroke-width:1.0;stroke-dasharray:2.0,2.0;" x1="207" x2="442" y1="395.6064" y2="395.6064"/><line style="stroke:#000000;stroke-width:1.0;" x1="190" x2="180" y1="423.9985" y2="419.9985"/><line style="stroke:#000000;stroke-width:1.0;" x1="190" x2="180" y1="423.9985" y2="427.9985"/><line style="stroke:#000000;stroke-width:1.0;stroke-dasharray:2.0,2.0;" x1="64" x2="191" y1="423.9985" y2="423.9985"/><text fill="#000000" font-family="Lato,sans-serif" font-size="12" lengthAdjust="spacing" textLength="99" x="71" y="419.4439">Download payload</text><polygon fill="#000000" points="426,448.0493,436,452.0493,426,456.0493" style="stroke:#000000;stroke-width:1.0;"/><line style="stroke:#000000;stroke-width:1.0;" x1="202" x2="432" y1="452.0493" y2="452.0493"/><text fill="#000000" font-family="Consolas,Menlo,monospace" font-size="12" lengthAdjust="spacing" textLength="210" x="209" y="447.9868">psa_fwu_write(payload_id, ...)</text><polygon fill="#000000" points="213,462.0493,203,466.0493,213,470.0493" style="stroke:#000000;stroke-width:1.0;"/><line style="stroke:#000000;stroke-width:1.0;stroke-dasharray:2.0,2.0;" x1="207" x2="442" y1="466.0493" y2="466.0493"/><polygon fill="#000000" points="426,490.1001,436,494.1001,426,498.1001" style="stroke:#000000;stroke-width:1.0;"/><line style="stroke:#000000;stroke-width:1.0;" x1="202" x2="432" y1="494.1001" y2="494.1001"/><text fill="#000000" font-family="Consolas,Menlo,monospace" font-size="12" lengthAdjust="spacing" textLength="182" x="209" y="490.0376">psa_fwu_finish(payload_id)</text><polygon fill="#000000" points="213,525.4922,203,529.4922,213,533.4922" style="stroke:#000000;stroke-width:1.0;"/><line style="stroke:#000000;stroke-width:1.0;stroke-dasharray:2.0,2.0;" x1="207" x2="442" y1="529.4922" y2="529.4922"/><text fill="#000000" font-family="Lato,sans-serif" font-size="12" lengthAdjust="spacing" textLength="156" x="219" y="524.9376">Manifest processing complete</text><polygon fill="#000000" points="426,553.543,436,557.543,426,561.543" style="stroke:#000000;stroke-width:1.0;"/><line style="stroke:#000000;stroke-width:1.0;" x1="202" x2="432" y1="557.543" y2="557.543"/><text fill="#000000" font-family="Consolas,Menlo,monospace" font-size="12" lengthAdjust="spacing" textLength="119" x="209" y="553.4805">psa_fwu_install()</text><polygon fill="#000000" points="213,567.543,203,571.543,213,575.543" style="stroke:#000000;stroke-width:1.0;"/><line style="stroke:#000000;stroke-width:1.0;stroke-dasharray:2.0,2.0;" x1="207" x2="442" y1="571.543" y2="571.543"/><text fill="#000000" font-family="Lato,sans-serif" font-size="12" lengthAdjust="spacing" textLength="16" x="245.5" y="605.3805">etc</text></g></svg>