<?xml version="1.0" encoding="UTF-8" standalone="no"?><svg xmlns="http://www.w3.org/2000/svg" xmlns:xlink="http://www.w3.org/1999/xlink" contentStyleType="text/css" height="1032px" preserveAspectRatio="none" style="width:851px;height:1032px;background:#FFFFFF55;" version="1.1" viewBox="0 0 851 1032" width="851px" zoomAndPan="magnify"><defs/><g><rect fill="#E0E0E0" fill-opacity="0.75294" height="1013.6542" rx="4" ry="4" style="stroke:none;stroke-width:0.5;" width="96" x="16" y="6"/><text fill="#000000" font-family="Lato,sans-serif" font-size="12" font-weight="bold" lengthAdjust="spacing" textLength="48" x="40" y="17.8441">Network</text><rect fill="#E0E0E0" fill-opacity="0.75294" height="1013.6542" rx="4" ry="4" style="stroke:none;stroke-width:0.5;" width="402" x="163" y="6"/><text fill="#000000" font-family="Lato,sans-serif" font-size="12" font-weight="bold" lengthAdjust="spacing" textLength="36" x="346" y="17.8441">Device</text><rect fill="#FFFFFF" height="123.6004" style="stroke:#808080;stroke-width:1.0;" width="10" x="59" y="556.2526"/><rect fill="#FFFFFF" height="644.4529" style="stroke:#808080;stroke-width:1.0;" width="10" x="210" y="285.6009"/><rect fill="#FFFFFF" height="81.2003" style="stroke:#808080;stroke-width:1.0;" width="10" x="310" y="63.8002"/><rect fill="#FFFFFF" height="766.7533" style="stroke:#808080;stroke-width:1.0;" width="10" x="527.5" y="215.8007"/><rect fill="#DDDDDD" height="31.4001" style="stroke:#808080;stroke-width:1.0;" width="10" x="532.5" y="349.4011"/><rect fill="#DDDDDD" height="76.051" style="stroke:#808080;stroke-width:1.0;" width="10" x="532.5" y="419.4014"/><rect fill="#DDDDDD" height="31.4001" style="stroke:#808080;stroke-width:1.0;" width="10" x="532.5" y="587.6527"/><rect fill="#DDDDDD" height="28.4001" style="stroke:#808080;stroke-width:1.0;" width="10" x="532.5" y="708.2531"/><rect fill="#DDDDDD" height="28.4001" style="stroke:#808080;stroke-width:1.0;" width="10" x="532.5" y="765.0533"/><rect fill="#DDDDDD" height="41.4001" style="stroke:#808080;stroke-width:1.0;" width="10" x="532.5" y="824.8535"/><rect fill="#F08080" height="166.0005" style="stroke:#808080;stroke-width:1.0;" width="10" x="700.5" y="84.2003"/><rect fill="#EEE8AA" height="539.2526" style="stroke:#808080;stroke-width:1.0;" width="10" x="700.5" y="285.6009"/><rect fill="#FAFAD2" height="269.6009" style="stroke:#808080;stroke-width:1.0;" width="10" x="705.5" y="495.4524"/><rect fill="#AAAADD" height="150.4006" style="stroke:#808080;stroke-width:1.0;" width="10" x="700.5" y="866.2536"/><rect fill="#ADD8E6" height="92.2003" style="stroke:#808080;stroke-width:1.0;" width="10" x="789" y="495.4524"/><rect fill="#98FB98" height="146.0005" style="stroke:#808080;stroke-width:1.0;" width="10" x="789" y="619.0528"/><rect fill="#FFFFFF" fill-opacity="0.50196" height="391.2521" rx="4" ry="4" style="stroke:#808080;stroke-width:1.0;" width="824" x="10" y="444.6014"/><line style="stroke:#808080;stroke-width:0.5;stroke-dasharray:5.0,5.0;" x1="64" x2="64" y1="53.8002" y2="1025.6542"/><line style="stroke:#808080;stroke-width:0.5;stroke-dasharray:5.0,5.0;" x1="215" x2="215" y1="53.8002" y2="1025.6542"/><line style="stroke:#808080;stroke-width:0.5;stroke-dasharray:5.0,5.0;" x1="315" x2="315" y1="53.8002" y2="1025.6542"/><line style="stroke:#808080;stroke-width:0.5;stroke-dasharray:5.0,5.0;" x1="430" x2="430" y1="53.8002" y2="1025.6542"/><line style="stroke:#808080;stroke-width:0.5;stroke-dasharray:5.0,5.0;" x1="532" x2="532" y1="53.8002" y2="1025.6542"/><line style="stroke:#808080;stroke-width:0.5;stroke-dasharray:5.0,5.0;" x1="705.5" x2="705.5" y1="53.8002" y2="1025.6542"/><line style="stroke:#808080;stroke-width:0.5;stroke-dasharray:5.0,5.0;" x1="793.5" x2="793.5" y1="53.8002" y2="1025.6542"/><rect fill="#FFFFFF" height="28.4001" rx="4" ry="4" style="stroke:#000000;stroke-width:1.0;" width="88" x="20" y="24.4001"/><text fill="#000000" font-family="Lato,sans-serif" font-size="12" lengthAdjust="spacing" textLength="74" x="27" y="43.2442">Update server</text><rect fill="#FFFFFF" height="28.4001" rx="4" ry="4" style="stroke:#000000;stroke-width:1.0;" width="96" x="167" y="24.4001"/><text fill="#000000" font-family="Lato,sans-serif" font-size="12" lengthAdjust="spacing" textLength="82" x="174" y="43.2442">Payload fetcher</text><rect fill="#FFFFFF" height="28.4001" rx="4" ry="4" style="stroke:#000000;stroke-width:1.0;" width="84" x="273" y="24.4001"/><text fill="#000000" font-family="Lato,sans-serif" font-size="12" lengthAdjust="spacing" textLength="70" x="280" y="43.2442">Update client</text><rect fill="#FFFFFF" height="28.4001" rx="4" ry="4" style="stroke:#000000;stroke-width:1.0;" width="127" x="367" y="24.4001"/><text fill="#000000" font-family="Lato,sans-serif" font-size="12" lengthAdjust="spacing" textLength="113" x="374" y="43.2442">Firmware Update API</text><rect fill="#FFFFFF" height="28.4001" rx="4" ry="4" style="stroke:#000000;stroke-width:1.0;" width="57" x="504" y="24.4001"/><text fill="#000000" font-family="Lato,sans-serif" font-size="12" lengthAdjust="spacing" textLength="43" x="511" y="43.2442">Installer</text><text fill="#000000" font-family="Lato,sans-serif" font-size="12" lengthAdjust="spacing" textLength="76" x="664.5" y="51.2442">Envelope state</text><ellipse cx="705.5" cy="23.4001" fill="#FFFFFF" rx="12" ry="12" style="stroke:#000000;stroke-width:1.0;"/><line style="stroke:#000000;stroke-width:1.0;" x1="693.5" x2="717.5" y1="37.4001" y2="37.4001"/><text fill="#000000" font-family="Lato,sans-serif" font-size="12" lengthAdjust="spacing" textLength="69" x="756.5" y="51.2442">Payload state</text><ellipse cx="794" cy="23.4001" fill="#FFFFFF" rx="12" ry="12" style="stroke:#000000;stroke-width:1.0;"/><line style="stroke:#000000;stroke-width:1.0;" x1="782" x2="806" y1="37.4001" y2="37.4001"/><rect fill="#FFFFFF" height="123.6004" style="stroke:#808080;stroke-width:1.0;" width="10" x="59" y="556.2526"/><rect fill="#FFFFFF" height="644.4529" style="stroke:#808080;stroke-width:1.0;" width="10" x="210" y="285.6009"/><rect fill="#FFFFFF" height="81.2003" style="stroke:#808080;stroke-width:1.0;" width="10" x="310" y="63.8002"/><rect fill="#FFFFFF" height="766.7533" style="stroke:#808080;stroke-width:1.0;" width="10" x="527.5" y="215.8007"/><rect fill="#DDDDDD" height="31.4001" style="stroke:#808080;stroke-width:1.0;" width="10" x="532.5" y="349.4011"/><rect fill="#DDDDDD" height="76.051" style="stroke:#808080;stroke-width:1.0;" width="10" x="532.5" y="419.4014"/><rect fill="#DDDDDD" height="31.4001" style="stroke:#808080;stroke-width:1.0;" width="10" x="532.5" y="587.6527"/><rect fill="#DDDDDD" height="28.4001" style="stroke:#808080;stroke-width:1.0;" width="10" x="532.5" y="708.2531"/><rect fill="#DDDDDD" height="28.4001" style="stroke:#808080;stroke-width:1.0;" width="10" x="532.5" y="765.0533"/><rect fill="#DDDDDD" height="41.4001" style="stroke:#808080;stroke-width:1.0;" width="10" x="532.5" y="824.8535"/><rect fill="#F08080" height="166.0005" style="stroke:#808080;stroke-width:1.0;" width="10" x="700.5" y="84.2003"/><rect fill="#EEE8AA" height="539.2526" style="stroke:#808080;stroke-width:1.0;" width="10" x="700.5" y="285.6009"/><rect fill="#FAFAD2" height="269.6009" style="stroke:#808080;stroke-width:1.0;" width="10" x="705.5" y="495.4524"/><rect fill="#AAAADD" height="150.4006" style="stroke:#808080;stroke-width:1.0;" width="10" x="700.5" y="866.2536"/><rect fill="#ADD8E6" height="92.2003" style="stroke:#808080;stroke-width:1.0;" width="10" x="789" y="495.4524"/><rect fill="#98FB98" height="146.0005" style="stroke:#808080;stroke-width:1.0;" width="10" x="789" y="619.0528"/><polygon fill="#000000" points="331,80.2003,321,84.2003,331,88.2003" style="stroke:#000000;stroke-width:1.0;"/><line style="stroke:#000000;stroke-width:1.0;stroke-dasharray:2.0,2.0;" x1="325" x2="699.5" y1="84.2003" y2="84.2003"/><text fill="#000000" font-family="Lato,sans-serif" font-size="12" font-weight="bold" lengthAdjust="spacing" textLength="14" x="337" y="79.6443">23</text><text fill="#000000" font-family="Consolas,Menlo,monospace" font-size="12" lengthAdjust="spacing" textLength="161" x="355" y="78.9378">PSA_FWU_REBOOT_REQUIRED</text><rect fill="#F08080" height="22" rx="4" ry="4" style="stroke:#181818;stroke-width:1.0;" width="54" x="678" y="97.2003"/><text fill="#000000" font-family="Lato,sans-serif" font-size="12" lengthAdjust="spacing" textLength="46" x="682" y="113.0444">STAGED</text><line style="stroke:#000000;stroke-width:1.0;" x1="842" x2="832" y1="145.0005" y2="141.0005"/><line style="stroke:#000000;stroke-width:1.0;" x1="842" x2="832" y1="145.0005" y2="149.0005"/><line style="stroke:#000000;stroke-width:1.0;stroke-dasharray:2.0,2.0;" x1="315" x2="843" y1="145.0005" y2="145.0005"/><text fill="#000000" font-family="Lato,sans-serif" font-size="12" font-weight="bold" lengthAdjust="spacing" textLength="14" x="322" y="140.4445">24</text><text fill="#000000" font-family="Lato,sans-serif" font-size="12" lengthAdjust="spacing" textLength="81" x="340" y="140.4445">Request reboot</text><rect fill="#EEEEEE" height="3" rx="4" ry="4" style="stroke:#EEEEEE;stroke-width:1.0;" width="844" x="0" y="173.2006"/><line style="stroke:#000000;stroke-width:1.0;" x1="0" x2="844" y1="173.2006" y2="173.2006"/><line style="stroke:#000000;stroke-width:1.0;" x1="0" x2="844" y1="176.2006" y2="176.2006"/><rect fill="#EEEEEE" height="22.4001" rx="4" ry="4" style="stroke:#000000;stroke-width:2.0;" width="98" x="373" y="163.0005"/><text fill="#000000" font-family="Lato,sans-serif" font-size="12" font-weight="bold" lengthAdjust="spacing" textLength="82" x="379" y="178.8446">System restarts</text><line style="stroke:#000000;stroke-width:1.0;" x1="538.5" x2="548.5" y1="215.8007" y2="211.8007"/><line style="stroke:#000000;stroke-width:1.0;" x1="538.5" x2="548.5" y1="215.8007" y2="219.8007"/><line style="stroke:#000000;stroke-width:1.0;stroke-dasharray:2.0,2.0;" x1="537.5" x2="843" y1="215.8007" y2="215.8007"/><text fill="#000000" font-family="Lato,sans-serif" font-size="12" font-weight="bold" lengthAdjust="spacing" textLength="14" x="554.5" y="211.2447">25</text><text fill="#000000" font-family="Lato,sans-serif" font-size="12" lengthAdjust="spacing" textLength="63" x="572.5" y="211.2447">Device boot</text><line style="stroke:#000000;stroke-width:1.0;" x1="537.5" x2="579.5" y1="249.2008" y2="249.2008"/><line style="stroke:#000000;stroke-width:1.0;" x1="579.5" x2="579.5" y1="249.2008" y2="262.2008"/><line style="stroke:#000000;stroke-width:1.0;" x1="532.5" x2="579.5" y1="262.2008" y2="262.2008"/><polygon fill="#000000" points="542.5,258.2008,532.5,262.2008,542.5,266.2008" style="stroke:#000000;stroke-width:1.0;"/><text fill="#000000" font-family="Lato,sans-serif" font-size="12" font-weight="bold" lengthAdjust="spacing" textLength="14" x="544.5" y="244.6448">26</text><text fill="#000000" font-family="Lato,sans-serif" font-size="12" lengthAdjust="spacing" textLength="131" x="562.5" y="244.6448">SUIT Payload Installation</text><path d="M422,236.3007 L422,252.3007 A4,4 0 0 0 426,256.3007 L518,256.3007 A4,4 0 0 0 522,252.3007 L522,242.3007 L512,232.3007 L426,232.3007 A4,4 0 0 0 422,236.3007 " fill="#E8E8E8" style="stroke:#181818;stroke-width:1.0;"/><path d="M512,232.3007 L512,240.3007 A2,2 0 0 0 514,242.3007 L522,242.3007 L512,232.3007 " fill="#E8E8E8" style="stroke:#181818;stroke-width:1.0;"/><text fill="#000000" font-family="Lato,sans-serif" font-size="12" lengthAdjust="spacing" textLength="79" x="428" y="249.1448">Verify manifest</text><line style="stroke:#000000;stroke-width:1.0;" x1="221" x2="231" y1="285.6009" y2="281.6009"/><line style="stroke:#000000;stroke-width:1.0;" x1="221" x2="231" y1="285.6009" y2="289.6009"/><line style="stroke:#000000;stroke-width:1.0;" x1="220" x2="526.5" y1="285.6009" y2="285.6009"/><text fill="#000000" font-family="Lato,sans-serif" font-size="12" font-weight="bold" lengthAdjust="spacing" textLength="14" x="237" y="281.0449">27</text><text fill="#000000" font-family="Lato,sans-serif" font-size="12" lengthAdjust="spacing" textLength="68" x="255" y="281.0449">Start Fetcher</text><rect fill="#EEE8AA" height="22" rx="4" ry="4" style="stroke:#181818;stroke-width:1.0;" width="82" x="664" y="298.6009"/><text fill="#000000" font-family="Lato,sans-serif" font-size="12" lengthAdjust="spacing" textLength="74" x="668" y="314.445">PROCESSING</text><polygon fill="#000000" points="520.5,345.4011,530.5,349.4011,520.5,353.4011" style="stroke:#000000;stroke-width:1.0;"/><line style="stroke:#000000;stroke-width:1.0;" x1="220" x2="526.5" y1="349.4011" y2="349.4011"/><text fill="#000000" font-family="Lato,sans-serif" font-size="12" font-weight="bold" lengthAdjust="spacing" textLength="14" x="227" y="344.8451">28</text><text fill="#000000" font-family="Consolas,Menlo,monospace" font-size="12" lengthAdjust="spacing" textLength="182" x="245" y="344.1386">psa_fwu_query(envelope_id)</text><path d="M67,335.001 L67,351.001 A4,4 0 0 0 71,355.001 L201,355.001 A4,4 0 0 0 205,351.001 L205,341.001 L195,331.001 L71,331.001 A4,4 0 0 0 67,335.001 " fill="#E8E8E8" style="stroke:#181818;stroke-width:1.0;"/><path d="M195,331.001 L195,339.001 A2,2 0 0 0 197,341.001 L205,341.001 L195,331.001 " fill="#E8E8E8" style="stroke:#181818;stroke-width:1.0;"/><text fill="#000000" font-family="Lato,sans-serif" font-size="12" lengthAdjust="spacing" textLength="117" x="73" y="347.8451">Query envelope status</text><polygon fill="#000000" points="231,376.8012,221,380.8012,231,384.8012" style="stroke:#000000;stroke-width:1.0;"/><line style="stroke:#000000;stroke-width:1.0;stroke-dasharray:2.0,2.0;" x1="225" x2="526.5" y1="380.8012" y2="380.8012"/><text fill="#000000" font-family="Lato,sans-serif" font-size="12" font-weight="bold" lengthAdjust="spacing" textLength="14" x="237" y="376.2452">29</text><text fill="#000000" font-family="Consolas,Menlo,monospace" font-size="12" lengthAdjust="spacing" textLength="77" x="255" y="375.5387">PSA_SUCCESS</text><polygon fill="#000000" points="520.5,415.4014,530.5,419.4014,520.5,423.4014" style="stroke:#000000;stroke-width:1.0;"/><line style="stroke:#000000;stroke-width:1.0;" x1="220" x2="526.5" y1="419.4014" y2="419.4014"/><text fill="#000000" font-family="Lato,sans-serif" font-size="12" font-weight="bold" lengthAdjust="spacing" textLength="14" x="227" y="414.8453">30</text><text fill="#000000" font-family="Consolas,Menlo,monospace" font-size="12" lengthAdjust="spacing" textLength="196" x="245" y="414.1388">psa_fwu_process(envelope_id)</text><path d="M55,397.8012 L55,427.8012 A4,4 0 0 0 59,431.8012 L201,431.8012 A4,4 0 0 0 205,427.8012 L205,403.8012 L195,393.8012 L59,393.8012 A4,4 0 0 0 55,397.8012 " fill="#E8E8E8" style="stroke:#181818;stroke-width:1.0;"/><path d="M195,393.8012 L195,401.8012 A2,2 0 0 0 197,403.8012 L205,403.8012 L195,393.8012 " fill="#E8E8E8" style="stroke:#181818;stroke-width:1.0;"/><text fill="#000000" font-family="Lato,sans-serif" font-size="12" lengthAdjust="spacing" textLength="129" x="61" y="410.6453">Process SUIT commands</text><text fill="#000000" font-family="Lato,sans-serif" font-size="12" lengthAdjust="spacing" textLength="112" x="61" y="425.0454">- suit-install sequence</text><path d="M14,444.6014 L79,444.6014 L79,451.0015 L69,461.0015 L10,461.0015 L10,448.6014 A4,4 0 0 1 14,444.6014 " fill="#F0F0F0" style="stroke:#808080;stroke-width:1.5;"/><rect fill="none" height="391.2521" rx="4" ry="4" style="stroke:#808080;stroke-width:1.0;" width="824" x="10" y="444.6014"/><text fill="#000000" font-family="Lato,sans-serif" font-size="12" lengthAdjust="spacing" textLength="24" x="25" y="457.4455">loop</text><text fill="#000000" font-family="Lato,sans-serif" font-size="11" font-weight="bold" lengthAdjust="spacing" textLength="197" x="94" y="457.4586">[While additional payloads are required]</text><polygon fill="#000000" points="231,491.4524,221,495.4524,231,499.4524" style="stroke:#000000;stroke-width:1.0;"/><line style="stroke:#000000;stroke-width:1.0;stroke-dasharray:2.0,2.0;" x1="225" x2="526.5" y1="495.4524" y2="495.4524"/><text fill="#000000" font-family="Lato,sans-serif" font-size="12" font-weight="bold" lengthAdjust="spacing" textLength="14" x="237" y="483.871">31</text><text fill="#000000" font-family="Consolas,Menlo,monospace" font-size="12" lengthAdjust="spacing" textLength="168" x="255" y="475.9644">PSA_FWU_PAYLOAD_REQUIRED</text><text fill="#000000" font-family="Lato,sans-serif" font-size="12" lengthAdjust="spacing" textLength="116" x="259" y="490.8964">+ payload information</text><rect fill="#FAFAD2" height="22" rx="4" ry="4" style="stroke:#181818;stroke-width:1.0;" width="75" x="668" y="508.4524"/><text fill="#000000" font-family="Lato,sans-serif" font-size="12" lengthAdjust="spacing" textLength="67" x="672" y="524.2965">FETCHING ?</text><rect fill="#ADD8E6" height="22" rx="4" ry="4" style="stroke:#181818;stroke-width:1.0;" width="48" x="770" y="508.4524"/><text fill="#000000" font-family="Lato,sans-serif" font-size="12" lengthAdjust="spacing" textLength="40" x="774" y="524.2965">READY</text><line style="stroke:#000000;stroke-width:1.0;" x1="70" x2="80" y1="556.2526" y2="552.2526"/><line style="stroke:#000000;stroke-width:1.0;" x1="70" x2="80" y1="556.2526" y2="560.2526"/><line style="stroke:#000000;stroke-width:1.0;" x1="69" x2="209" y1="556.2526" y2="556.2526"/><text fill="#000000" font-family="Lato,sans-serif" font-size="12" font-weight="bold" lengthAdjust="spacing" textLength="14" x="86" y="551.6966">32</text><text fill="#000000" font-family="Lato,sans-serif" font-size="12" lengthAdjust="spacing" textLength="74" x="104" y="551.6966">Fetch payload</text><polygon fill="#000000" points="520.5,583.6527,530.5,587.6527,520.5,591.6527" style="stroke:#000000;stroke-width:1.0;"/><line style="stroke:#000000;stroke-width:1.0;" x1="220" x2="526.5" y1="587.6527" y2="587.6527"/><text fill="#000000" font-family="Lato,sans-serif" font-size="12" font-weight="bold" lengthAdjust="spacing" textLength="14" x="227" y="583.0967">33</text><text fill="#000000" font-family="Consolas,Menlo,monospace" font-size="12" lengthAdjust="spacing" textLength="175" x="245" y="582.3901">psa_fwu_start(payload_id)</text><path d="M95,573.2526 L95,589.2526 A4,4 0 0 0 99,593.2526 L201,593.2526 A4,4 0 0 0 205,589.2526 L205,579.2526 L195,569.2526 L99,569.2526 A4,4 0 0 0 95,573.2526 " fill="#E8E8E8" style="stroke:#181818;stroke-width:1.0;"/><path d="M195,569.2526 L195,577.2526 A2,2 0 0 0 197,579.2526 L205,579.2526 L195,569.2526 " fill="#E8E8E8" style="stroke:#181818;stroke-width:1.0;"/><text fill="#000000" font-family="Lato,sans-serif" font-size="12" lengthAdjust="spacing" textLength="89" x="101" y="586.0967">Transfer payload</text><polygon fill="#000000" points="231,615.0528,221,619.0528,231,623.0528" style="stroke:#000000;stroke-width:1.0;"/><line style="stroke:#000000;stroke-width:1.0;stroke-dasharray:2.0,2.0;" x1="225" x2="526.5" y1="619.0528" y2="619.0528"/><text fill="#000000" font-family="Lato,sans-serif" font-size="12" font-weight="bold" lengthAdjust="spacing" textLength="14" x="237" y="614.4968">34</text><text fill="#000000" font-family="Consolas,Menlo,monospace" font-size="12" lengthAdjust="spacing" textLength="77" x="255" y="613.7902">PSA_SUCCESS</text><rect fill="#98FB98" height="22" rx="4" ry="4" style="stroke:#181818;stroke-width:1.0;" width="61" x="763" y="632.0528"/><text fill="#000000" font-family="Lato,sans-serif" font-size="12" lengthAdjust="spacing" textLength="53" x="767" y="647.8969">WRITING</text><line style="stroke:#000000;stroke-width:1.0;" x1="208" x2="198" y1="679.853" y2="675.853"/><line style="stroke:#000000;stroke-width:1.0;" x1="208" x2="198" y1="679.853" y2="683.853"/><line style="stroke:#000000;stroke-width:1.0;stroke-dasharray:2.0,2.0;" x1="64" x2="209" y1="679.853" y2="679.853"/><text fill="#000000" font-family="Lato,sans-serif" font-size="12" font-weight="bold" lengthAdjust="spacing" textLength="14" x="71" y="675.297">35</text><text fill="#000000" font-family="Lato,sans-serif" font-size="12" lengthAdjust="spacing" textLength="99" x="89" y="675.297">Download payload</text><polygon fill="#000000" points="520.5,704.2531,530.5,708.2531,520.5,712.2531" style="stroke:#000000;stroke-width:1.0;"/><line style="stroke:#000000;stroke-width:1.0;" x1="220" x2="526.5" y1="708.2531" y2="708.2531"/><text fill="#000000" font-family="Lato,sans-serif" font-size="12" font-weight="bold" lengthAdjust="spacing" textLength="14" x="227" y="703.6971">36</text><text fill="#000000" font-family="Consolas,Menlo,monospace" font-size="12" lengthAdjust="spacing" textLength="210" x="245" y="702.9905">psa_fwu_write(payload_id, ...)</text><polygon fill="#000000" points="231,732.6532,221,736.6532,231,740.6532" style="stroke:#000000;stroke-width:1.0;"/><line style="stroke:#000000;stroke-width:1.0;stroke-dasharray:2.0,2.0;" x1="225" x2="526.5" y1="736.6532" y2="736.6532"/><text fill="#000000" font-family="Lato,sans-serif" font-size="12" font-weight="bold" lengthAdjust="spacing" textLength="14" x="237" y="732.0972">37</text><text fill="#000000" font-family="Consolas,Menlo,monospace" font-size="12" lengthAdjust="spacing" textLength="77" x="255" y="731.3906">PSA_SUCCESS</text><polygon fill="#000000" points="520.5,761.0533,530.5,765.0533,520.5,769.0533" style="stroke:#000000;stroke-width:1.0;"/><line style="stroke:#000000;stroke-width:1.0;" x1="220" x2="526.5" y1="765.0533" y2="765.0533"/><text fill="#000000" font-family="Lato,sans-serif" font-size="12" font-weight="bold" lengthAdjust="spacing" textLength="14" x="227" y="760.4973">38</text><text fill="#000000" font-family="Consolas,Menlo,monospace" font-size="12" lengthAdjust="spacing" textLength="182" x="245" y="759.7907">psa_fwu_finish(payload_id)</text><polygon fill="#000000" points="231,789.4534,221,793.4534,231,797.4534" style="stroke:#000000;stroke-width:1.0;"/><line style="stroke:#000000;stroke-width:1.0;stroke-dasharray:2.0,2.0;" x1="225" x2="526.5" y1="793.4534" y2="793.4534"/><text fill="#000000" font-family="Lato,sans-serif" font-size="12" font-weight="bold" lengthAdjust="spacing" textLength="14" x="237" y="788.8974">39</text><text fill="#000000" font-family="Consolas,Menlo,monospace" font-size="12" lengthAdjust="spacing" textLength="77" x="255" y="788.1908">PSA_SUCCESS</text><polygon fill="#000000" points="520.5,820.8535,530.5,824.8535,520.5,828.8535" style="stroke:#000000;stroke-width:1.0;"/><line style="stroke:#000000;stroke-width:1.0;" x1="220" x2="526.5" y1="824.8535" y2="824.8535"/><text fill="#000000" font-family="Lato,sans-serif" font-size="12" font-weight="bold" lengthAdjust="spacing" textLength="14" x="227" y="820.2975">40</text><text fill="#000000" font-family="Consolas,Menlo,monospace" font-size="12" lengthAdjust="spacing" textLength="196" x="245" y="819.591">psa_fwu_process(envelope_id)</text><path d="M55,810.4534 L55,826.4534 A4,4 0 0 0 59,830.4534 L201,830.4534 A4,4 0 0 0 205,826.4534 L205,816.4534 L195,806.4534 L59,806.4534 A4,4 0 0 0 55,810.4534 " fill="#E8E8E8" style="stroke:#181818;stroke-width:1.0;"/><path d="M195,806.4534 L195,814.4534 A2,2 0 0 0 197,816.4534 L205,816.4534 L195,806.4534 " fill="#E8E8E8" style="stroke:#181818;stroke-width:1.0;"/><text fill="#000000" font-family="Lato,sans-serif" font-size="12" lengthAdjust="spacing" textLength="129" x="61" y="823.2975">Resume SUIT processing</text><polygon fill="#000000" points="231,862.2536,221,866.2536,231,870.2536" style="stroke:#000000;stroke-width:1.0;"/><line style="stroke:#000000;stroke-width:1.0;stroke-dasharray:2.0,2.0;" x1="225" x2="526.5" y1="866.2536" y2="866.2536"/><text fill="#000000" font-family="Lato,sans-serif" font-size="12" font-weight="bold" lengthAdjust="spacing" textLength="14" x="237" y="861.6976">41</text><text fill="#000000" font-family="Consolas,Menlo,monospace" font-size="12" lengthAdjust="spacing" textLength="77" x="255" y="860.9911">PSA_SUCCESS</text><path d="M46,851.8535 L46,867.8535 A4,4 0 0 0 50,871.8535 L201,871.8535 A4,4 0 0 0 205,867.8535 L205,857.8535 L195,847.8535 L50,847.8535 A4,4 0 0 0 46,851.8535 " fill="#E8E8E8" style="stroke:#181818;stroke-width:1.0;"/><path d="M195,847.8535 L195,855.8535 A2,2 0 0 0 197,857.8535 L205,857.8535 L195,847.8535 " fill="#E8E8E8" style="stroke:#181818;stroke-width:1.0;"/><text fill="#000000" font-family="Lato,sans-serif" font-size="12" lengthAdjust="spacing" textLength="138" x="52" y="864.6976">Payload fetching complete</text><rect fill="#AAAADD" height="22" rx="4" ry="4" style="stroke:#181818;stroke-width:1.0;" width="64" x="673" y="882.2536"/><text fill="#000000" font-family="Lato,sans-serif" font-size="12" lengthAdjust="spacing" textLength="56" x="677" y="898.0977">UPDATED</text><polygon fill="#000000" points="287,926.0538,297,930.0538,287,934.0538" style="stroke:#000000;stroke-width:1.0;"/><line style="stroke:#000000;stroke-width:1.0;" x1="215" x2="293" y1="930.0538" y2="930.0538"/><text fill="#000000" font-family="Lato,sans-serif" font-size="12" font-weight="bold" lengthAdjust="spacing" textLength="14" x="222" y="925.4978">42</text><text fill="#000000" font-family="Consolas,Menlo,monospace" font-size="12" lengthAdjust="spacing" textLength="42" x="240" y="924.7913">exit()</text><line style="stroke:#000000;stroke-width:1.0;" x1="537.5" x2="579.5" y1="981.5541" y2="981.5541"/><line style="stroke:#000000;stroke-width:1.0;" x1="579.5" x2="579.5" y1="981.5541" y2="994.5541"/><line style="stroke:#000000;stroke-width:1.0;" x1="532.5" x2="579.5" y1="994.5541" y2="994.5541"/><polygon fill="#000000" points="542.5,990.5541,532.5,994.5541,542.5,998.5541" style="stroke:#000000;stroke-width:1.0;"/><text fill="#000000" font-family="Lato,sans-serif" font-size="12" font-weight="bold" lengthAdjust="spacing" textLength="14" x="544.5" y="976.998">43</text><text fill="#000000" font-family="Lato,sans-serif" font-size="12" lengthAdjust="spacing" textLength="85" x="562.5" y="976.998">SUIT Invocation</text><path d="M372,947.0538 L372,1006.0538 A4,4 0 0 0 376,1010.0538 L518,1010.0538 A4,4 0 0 0 522,1006.0538 L522,953.0538 L512,943.0538 L376,943.0538 A4,4 0 0 0 372,947.0538 " fill="#E8E8E8" style="stroke:#181818;stroke-width:1.0;"/><path d="M512,943.0538 L512,951.0538 A2,2 0 0 0 514,953.0538 L522,953.0538 L512,943.0538 " fill="#E8E8E8" style="stroke:#181818;stroke-width:1.0;"/><text fill="#000000" font-family="Lato,sans-serif" font-size="12" lengthAdjust="spacing" textLength="129" x="378" y="959.8979">Process SUIT commands</text><text fill="#000000" font-family="Lato,sans-serif" font-size="12" lengthAdjust="spacing" textLength="122" x="378" y="974.298">- suit-validate sequence</text><text fill="#000000" font-family="Lato,sans-serif" font-size="12" lengthAdjust="spacing" textLength="104" x="378" y="988.6981">- suit-load sequence</text><text fill="#000000" font-family="Lato,sans-serif" font-size="12" lengthAdjust="spacing" textLength="116" x="378" y="1003.0982">- suit-invoke sequence</text></g></svg>