<?xml version="1.0" encoding="UTF-8" standalone="no"?><svg xmlns="http://www.w3.org/2000/svg" xmlns:xlink="http://www.w3.org/1999/xlink" contentStyleType="text/css" height="1016px" preserveAspectRatio="none" style="width:851px;height:1016px;background:#FFFFFF55;" version="1.1" viewBox="0 0 851 1016" width="851px" zoomAndPan="magnify"><defs/><g><rect fill="#E0E0E0" fill-opacity="0.75294" height="997.854" rx="4" ry="4" style="stroke:none;stroke-width:0.5;" width="96" x="16" y="6"/><text fill="#000000" font-family="Lato,sans-serif" font-size="12" font-weight="bold" lengthAdjust="spacing" textLength="48" x="40" y="17.8441">Network</text><rect fill="#E0E0E0" fill-opacity="0.75294" height="997.854" rx="4" ry="4" style="stroke:none;stroke-width:0.5;" width="402" x="163" y="6"/><text fill="#000000" font-family="Lato,sans-serif" font-size="12" font-weight="bold" lengthAdjust="spacing" textLength="36" x="346" y="17.8441">Device</text><rect fill="#FFFFFF" height="123.6004" style="stroke:#808080;stroke-width:1.0;" width="10" x="59" y="513.4524"/><rect fill="#FFFFFF" height="601.6527" style="stroke:#808080;stroke-width:1.0;" width="10" x="210" y="285.6009"/><rect fill="#FFFFFF" height="81.2003" style="stroke:#808080;stroke-width:1.0;" width="10" x="310" y="63.8002"/><rect fill="#FFFFFF" height="705.853" style="stroke:#808080;stroke-width:1.0;" width="10" x="527.5" y="215.8007"/><rect fill="#DDDDDD" height="103.2511" style="stroke:#808080;stroke-width:1.0;" width="10" x="532.5" y="349.4011"/><rect fill="#DDDDDD" height="31.4001" style="stroke:#808080;stroke-width:1.0;" width="10" x="532.5" y="544.8525"/><rect fill="#DDDDDD" height="28.4001" style="stroke:#808080;stroke-width:1.0;" width="10" x="532.5" y="665.4529"/><rect fill="#DDDDDD" height="28.4001" style="stroke:#808080;stroke-width:1.0;" width="10" x="532.5" y="722.2531"/><rect fill="#DDDDDD" height="41.4001" style="stroke:#808080;stroke-width:1.0;" width="10" x="532.5" y="782.0533"/><rect fill="#F08080" height="166.0005" style="stroke:#808080;stroke-width:1.0;" width="10" x="700.5" y="84.2003"/><rect fill="#EEE8AA" height="496.4524" style="stroke:#808080;stroke-width:1.0;" width="10" x="700.5" y="285.6009"/><rect fill="#AAAADD" height="177.4006" style="stroke:#808080;stroke-width:1.0;" width="10" x="700.5" y="823.4534"/><rect fill="#ADD8E6" height="92.2003" style="stroke:#808080;stroke-width:1.0;" width="10" x="789" y="452.6522"/><rect fill="#98FB98" height="146.0005" style="stroke:#808080;stroke-width:1.0;" width="10" x="789" y="576.2526"/><rect fill="#FFFFFF" fill-opacity="0.50196" height="391.2521" rx="4" ry="4" style="stroke:#808080;stroke-width:1.0;" width="824" x="10" y="401.8012"/><line style="stroke:#808080;stroke-width:0.5;stroke-dasharray:5.0,5.0;" x1="64" x2="64" y1="53.8002" y2="1009.854"/><line style="stroke:#808080;stroke-width:0.5;stroke-dasharray:5.0,5.0;" x1="215" x2="215" y1="53.8002" y2="1009.854"/><line style="stroke:#808080;stroke-width:0.5;stroke-dasharray:5.0,5.0;" x1="315" x2="315" y1="53.8002" y2="1009.854"/><line style="stroke:#808080;stroke-width:0.5;stroke-dasharray:5.0,5.0;" x1="430" x2="430" y1="53.8002" y2="1009.854"/><line style="stroke:#808080;stroke-width:0.5;stroke-dasharray:5.0,5.0;" x1="532" x2="532" y1="53.8002" y2="1009.854"/><line style="stroke:#808080;stroke-width:0.5;stroke-dasharray:5.0,5.0;" x1="705.5" x2="705.5" y1="53.8002" y2="1009.854"/><line style="stroke:#808080;stroke-width:0.5;stroke-dasharray:5.0,5.0;" x1="793.5" x2="793.5" y1="53.8002" y2="1009.854"/><rect fill="#FFFFFF" height="28.4001" rx="4" ry="4" style="stroke:#000000;stroke-width:1.0;" width="88" x="20" y="24.4001"/><text fill="#000000" font-family="Lato,sans-serif" font-size="12" lengthAdjust="spacing" textLength="74" x="27" y="43.2442">Update server</text><rect fill="#FFFFFF" height="28.4001" rx="4" ry="4" style="stroke:#000000;stroke-width:1.0;" width="96" x="167" y="24.4001"/><text fill="#000000" font-family="Lato,sans-serif" font-size="12" lengthAdjust="spacing" textLength="82" x="174" y="43.2442">Payload fetcher</text><rect fill="#FFFFFF" height="28.4001" rx="4" ry="4" style="stroke:#000000;stroke-width:1.0;" width="84" x="273" y="24.4001"/><text fill="#000000" font-family="Lato,sans-serif" font-size="12" lengthAdjust="spacing" textLength="70" x="280" y="43.2442">Update client</text><rect fill="#FFFFFF" height="28.4001" rx="4" ry="4" style="stroke:#000000;stroke-width:1.0;" width="127" x="367" y="24.4001"/><text fill="#000000" font-family="Lato,sans-serif" font-size="12" lengthAdjust="spacing" textLength="113" x="374" y="43.2442">Firmware Update API</text><rect fill="#FFFFFF" height="28.4001" rx="4" ry="4" style="stroke:#000000;stroke-width:1.0;" width="57" x="504" y="24.4001"/><text fill="#000000" font-family="Lato,sans-serif" font-size="12" lengthAdjust="spacing" textLength="43" x="511" y="43.2442">Installer</text><text fill="#000000" font-family="Lato,sans-serif" font-size="12" lengthAdjust="spacing" textLength="76" x="664.5" y="51.2442">Envelope state</text><ellipse cx="705.5" cy="23.4001" fill="#FFFFFF" rx="12" ry="12" style="stroke:#000000;stroke-width:1.0;"/><line style="stroke:#000000;stroke-width:1.0;" x1="693.5" x2="717.5" y1="37.4001" y2="37.4001"/><text fill="#000000" font-family="Lato,sans-serif" font-size="12" lengthAdjust="spacing" textLength="69" x="756.5" y="51.2442">Payload state</text><ellipse cx="794" cy="23.4001" fill="#FFFFFF" rx="12" ry="12" style="stroke:#000000;stroke-width:1.0;"/><line style="stroke:#000000;stroke-width:1.0;" x1="782" x2="806" y1="37.4001" y2="37.4001"/><rect fill="#FFFFFF" height="123.6004" style="stroke:#808080;stroke-width:1.0;" width="10" x="59" y="513.4524"/><rect fill="#FFFFFF" height="601.6527" style="stroke:#808080;stroke-width:1.0;" width="10" x="210" y="285.6009"/><rect fill="#FFFFFF" height="81.2003" style="stroke:#808080;stroke-width:1.0;" width="10" x="310" y="63.8002"/><rect fill="#FFFFFF" height="705.853" style="stroke:#808080;stroke-width:1.0;" width="10" x="527.5" y="215.8007"/><rect fill="#DDDDDD" height="103.2511" style="stroke:#808080;stroke-width:1.0;" width="10" x="532.5" y="349.4011"/><rect fill="#DDDDDD" height="31.4001" style="stroke:#808080;stroke-width:1.0;" width="10" x="532.5" y="544.8525"/><rect fill="#DDDDDD" height="28.4001" style="stroke:#808080;stroke-width:1.0;" width="10" x="532.5" y="665.4529"/><rect fill="#DDDDDD" height="28.4001" style="stroke:#808080;stroke-width:1.0;" width="10" x="532.5" y="722.2531"/><rect fill="#DDDDDD" height="41.4001" style="stroke:#808080;stroke-width:1.0;" width="10" x="532.5" y="782.0533"/><rect fill="#F08080" height="166.0005" style="stroke:#808080;stroke-width:1.0;" width="10" x="700.5" y="84.2003"/><rect fill="#EEE8AA" height="496.4524" style="stroke:#808080;stroke-width:1.0;" width="10" x="700.5" y="285.6009"/><rect fill="#AAAADD" height="177.4006" style="stroke:#808080;stroke-width:1.0;" width="10" x="700.5" y="823.4534"/><rect fill="#ADD8E6" height="92.2003" style="stroke:#808080;stroke-width:1.0;" width="10" x="789" y="452.6522"/><rect fill="#98FB98" height="146.0005" style="stroke:#808080;stroke-width:1.0;" width="10" x="789" y="576.2526"/><polygon fill="#000000" points="331,80.2003,321,84.2003,331,88.2003" style="stroke:#000000;stroke-width:1.0;"/><line style="stroke:#000000;stroke-width:1.0;stroke-dasharray:2.0,2.0;" x1="325" x2="699.5" y1="84.2003" y2="84.2003"/><text fill="#000000" font-family="Lato,sans-serif" font-size="12" font-weight="bold" lengthAdjust="spacing" textLength="14" x="337" y="79.6443">23</text><text fill="#000000" font-family="Consolas,Menlo,monospace" font-size="12" lengthAdjust="spacing" textLength="161" x="355" y="78.9378">PSA_FWU_REBOOT_REQUIRED</text><rect fill="#F08080" height="22" rx="4" ry="4" style="stroke:#181818;stroke-width:1.0;" width="54" x="678" y="97.2003"/><text fill="#000000" font-family="Lato,sans-serif" font-size="12" lengthAdjust="spacing" textLength="46" x="682" y="113.0444">STAGED</text><line style="stroke:#000000;stroke-width:1.0;" x1="842" x2="832" y1="145.0005" y2="141.0005"/><line style="stroke:#000000;stroke-width:1.0;" x1="842" x2="832" y1="145.0005" y2="149.0005"/><line style="stroke:#000000;stroke-width:1.0;stroke-dasharray:2.0,2.0;" x1="315" x2="843" y1="145.0005" y2="145.0005"/><text fill="#000000" font-family="Lato,sans-serif" font-size="12" font-weight="bold" lengthAdjust="spacing" textLength="14" x="322" y="140.4445">24</text><text fill="#000000" font-family="Lato,sans-serif" font-size="12" lengthAdjust="spacing" textLength="81" x="340" y="140.4445">Request reboot</text><rect fill="#EEEEEE" height="3" rx="4" ry="4" style="stroke:#EEEEEE;stroke-width:1.0;" width="844" x="0" y="173.2006"/><line style="stroke:#000000;stroke-width:1.0;" x1="0" x2="844" y1="173.2006" y2="173.2006"/><line style="stroke:#000000;stroke-width:1.0;" x1="0" x2="844" y1="176.2006" y2="176.2006"/><rect fill="#EEEEEE" height="22.4001" rx="4" ry="4" style="stroke:#000000;stroke-width:2.0;" width="98" x="373" y="163.0005"/><text fill="#000000" font-family="Lato,sans-serif" font-size="12" font-weight="bold" lengthAdjust="spacing" textLength="82" x="379" y="178.8446">System restarts</text><line style="stroke:#000000;stroke-width:1.0;" x1="538.5" x2="548.5" y1="215.8007" y2="211.8007"/><line style="stroke:#000000;stroke-width:1.0;" x1="538.5" x2="548.5" y1="215.8007" y2="219.8007"/><line style="stroke:#000000;stroke-width:1.0;stroke-dasharray:2.0,2.0;" x1="537.5" x2="843" y1="215.8007" y2="215.8007"/><text fill="#000000" font-family="Lato,sans-serif" font-size="12" font-weight="bold" lengthAdjust="spacing" textLength="14" x="554.5" y="211.2447">25</text><text fill="#000000" font-family="Lato,sans-serif" font-size="12" lengthAdjust="spacing" textLength="63" x="572.5" y="211.2447">Device boot</text><line style="stroke:#000000;stroke-width:1.0;" x1="537.5" x2="579.5" y1="249.2008" y2="249.2008"/><line style="stroke:#000000;stroke-width:1.0;" x1="579.5" x2="579.5" y1="249.2008" y2="262.2008"/><line style="stroke:#000000;stroke-width:1.0;" x1="532.5" x2="579.5" y1="262.2008" y2="262.2008"/><polygon fill="#000000" points="542.5,258.2008,532.5,262.2008,542.5,266.2008" style="stroke:#000000;stroke-width:1.0;"/><text fill="#000000" font-family="Lato,sans-serif" font-size="12" font-weight="bold" lengthAdjust="spacing" textLength="14" x="544.5" y="244.6448">26</text><text fill="#000000" font-family="Lato,sans-serif" font-size="12" lengthAdjust="spacing" textLength="131" x="562.5" y="244.6448">SUIT Payload Installation</text><path d="M422,236.3007 L422,252.3007 A4,4 0 0 0 426,256.3007 L518,256.3007 A4,4 0 0 0 522,252.3007 L522,242.3007 L512,232.3007 L426,232.3007 A4,4 0 0 0 422,236.3007 " fill="#E8E8E8" style="stroke:#181818;stroke-width:1.0;"/><path d="M512,232.3007 L512,240.3007 A2,2 0 0 0 514,242.3007 L522,242.3007 L512,232.3007 " fill="#E8E8E8" style="stroke:#181818;stroke-width:1.0;"/><text fill="#000000" font-family="Lato,sans-serif" font-size="12" lengthAdjust="spacing" textLength="79" x="428" y="249.1448">Verify manifest</text><line style="stroke:#000000;stroke-width:1.0;" x1="221" x2="231" y1="285.6009" y2="281.6009"/><line style="stroke:#000000;stroke-width:1.0;" x1="221" x2="231" y1="285.6009" y2="289.6009"/><line style="stroke:#000000;stroke-width:1.0;" x1="220" x2="526.5" y1="285.6009" y2="285.6009"/><text fill="#000000" font-family="Lato,sans-serif" font-size="12" font-weight="bold" lengthAdjust="spacing" textLength="14" x="237" y="281.0449">27</text><text fill="#000000" font-family="Lato,sans-serif" font-size="12" lengthAdjust="spacing" textLength="68" x="255" y="281.0449">Start Fetcher</text><rect fill="#EEE8AA" height="22" rx="4" ry="4" style="stroke:#181818;stroke-width:1.0;" width="82" x="664" y="298.6009"/><text fill="#000000" font-family="Lato,sans-serif" font-size="12" lengthAdjust="spacing" textLength="74" x="668" y="314.445">PROCESSING</text><polygon fill="#000000" points="520.5,345.4011,530.5,349.4011,520.5,353.4011" style="stroke:#000000;stroke-width:1.0;"/><line style="stroke:#000000;stroke-width:1.0;" x1="220" x2="526.5" y1="349.4011" y2="349.4011"/><text fill="#000000" font-family="Lato,sans-serif" font-size="12" font-weight="bold" lengthAdjust="spacing" textLength="14" x="227" y="344.8451">28</text><text fill="#000000" font-family="Consolas,Menlo,monospace" font-size="12" lengthAdjust="spacing" textLength="119" x="245" y="344.1386">psa_fwu_process()</text><path d="M55,335.001 L55,351.001 A4,4 0 0 0 59,355.001 L201,355.001 A4,4 0 0 0 205,351.001 L205,341.001 L195,331.001 L59,331.001 A4,4 0 0 0 55,335.001 " fill="#E8E8E8" style="stroke:#181818;stroke-width:1.0;"/><path d="M195,331.001 L195,339.001 A2,2 0 0 0 197,341.001 L205,341.001 L195,331.001 " fill="#E8E8E8" style="stroke:#181818;stroke-width:1.0;"/><text fill="#000000" font-family="Lato,sans-serif" font-size="12" lengthAdjust="spacing" textLength="129" x="61" y="347.8451">Process SUIT commands</text><path d="M451,369.4011 L451,385.4011 A4,4 0 0 0 455,389.4011 L609,389.4011 A4,4 0 0 0 613,385.4011 L613,375.4011 L603,365.4011 L455,365.4011 A4,4 0 0 0 451,369.4011 " fill="#E8E8E8" style="stroke:#181818;stroke-width:1.0;"/><path d="M603,365.4011 L603,373.4011 A2,2 0 0 0 605,375.4011 L613,375.4011 L603,365.4011 " fill="#E8E8E8" style="stroke:#181818;stroke-width:1.0;"/><text fill="#000000" font-family="Consolas,Menlo,monospace" font-size="12" lengthAdjust="spacing" textLength="84" x="457" y="381.7133">suit-install</text><text fill="#000000" font-family="Lato,sans-serif" font-size="12" lengthAdjust="spacing" textLength="50" x="548" y="382.2452">sequence</text><path d="M14,401.8012 L79,401.8012 L79,408.2013 L69,418.2013 L10,418.2013 L10,405.8012 A4,4 0 0 1 14,401.8012 " fill="#F0F0F0" style="stroke:#808080;stroke-width:1.5;"/><rect fill="none" height="391.2521" rx="4" ry="4" style="stroke:#808080;stroke-width:1.0;" width="824" x="10" y="401.8012"/><text fill="#000000" font-family="Lato,sans-serif" font-size="12" lengthAdjust="spacing" textLength="24" x="25" y="414.6453">loop</text><text fill="#000000" font-family="Lato,sans-serif" font-size="11" font-weight="bold" lengthAdjust="spacing" textLength="197" x="94" y="414.6584">[While additional payloads are required]</text><polygon fill="#000000" points="231,448.6522,221,452.6522,231,456.6522" style="stroke:#000000;stroke-width:1.0;"/><line style="stroke:#000000;stroke-width:1.0;stroke-dasharray:2.0,2.0;" x1="225" x2="526.5" y1="452.6522" y2="452.6522"/><text fill="#000000" font-family="Lato,sans-serif" font-size="12" font-weight="bold" lengthAdjust="spacing" textLength="14" x="237" y="441.0708">29</text><text fill="#000000" font-family="Consolas,Menlo,monospace" font-size="12" lengthAdjust="spacing" textLength="168" x="255" y="433.1642">PSA_FWU_PAYLOAD_REQUIRED</text><text fill="#000000" font-family="Lato,sans-serif" font-size="12" lengthAdjust="spacing" textLength="116" x="259" y="448.0962">+ payload information</text><rect fill="#ADD8E6" height="22" rx="4" ry="4" style="stroke:#181818;stroke-width:1.0;" width="48" x="770" y="465.6522"/><text fill="#000000" font-family="Lato,sans-serif" font-size="12" lengthAdjust="spacing" textLength="40" x="774" y="481.4963">READY</text><line style="stroke:#000000;stroke-width:1.0;" x1="70" x2="80" y1="513.4524" y2="509.4524"/><line style="stroke:#000000;stroke-width:1.0;" x1="70" x2="80" y1="513.4524" y2="517.4524"/><line style="stroke:#000000;stroke-width:1.0;" x1="69" x2="209" y1="513.4524" y2="513.4524"/><text fill="#000000" font-family="Lato,sans-serif" font-size="12" font-weight="bold" lengthAdjust="spacing" textLength="14" x="86" y="508.8964">30</text><text fill="#000000" font-family="Lato,sans-serif" font-size="12" lengthAdjust="spacing" textLength="74" x="104" y="508.8964">Fetch payload</text><polygon fill="#000000" points="520.5,540.8525,530.5,544.8525,520.5,548.8525" style="stroke:#000000;stroke-width:1.0;"/><line style="stroke:#000000;stroke-width:1.0;" x1="220" x2="526.5" y1="544.8525" y2="544.8525"/><text fill="#000000" font-family="Lato,sans-serif" font-size="12" font-weight="bold" lengthAdjust="spacing" textLength="14" x="227" y="540.2965">31</text><text fill="#000000" font-family="Consolas,Menlo,monospace" font-size="12" lengthAdjust="spacing" textLength="175" x="245" y="539.5899">psa_fwu_start(payload_id)</text><path d="M95,530.4524 L95,546.4524 A4,4 0 0 0 99,550.4524 L201,550.4524 A4,4 0 0 0 205,546.4524 L205,536.4524 L195,526.4524 L99,526.4524 A4,4 0 0 0 95,530.4524 " fill="#E8E8E8" style="stroke:#181818;stroke-width:1.0;"/><path d="M195,526.4524 L195,534.4524 A2,2 0 0 0 197,536.4524 L205,536.4524 L195,526.4524 " fill="#E8E8E8" style="stroke:#181818;stroke-width:1.0;"/><text fill="#000000" font-family="Lato,sans-serif" font-size="12" lengthAdjust="spacing" textLength="89" x="101" y="543.2965">Transfer payload</text><polygon fill="#000000" points="231,572.2526,221,576.2526,231,580.2526" style="stroke:#000000;stroke-width:1.0;"/><line style="stroke:#000000;stroke-width:1.0;stroke-dasharray:2.0,2.0;" x1="225" x2="526.5" y1="576.2526" y2="576.2526"/><text fill="#000000" font-family="Lato,sans-serif" font-size="12" font-weight="bold" lengthAdjust="spacing" textLength="14" x="237" y="571.6966">32</text><text fill="#000000" font-family="Consolas,Menlo,monospace" font-size="12" lengthAdjust="spacing" textLength="77" x="255" y="570.99">PSA_SUCCESS</text><rect fill="#98FB98" height="22" rx="4" ry="4" style="stroke:#181818;stroke-width:1.0;" width="61" x="763" y="589.2526"/><text fill="#000000" font-family="Lato,sans-serif" font-size="12" lengthAdjust="spacing" textLength="53" x="767" y="605.0967">WRITING</text><line style="stroke:#000000;stroke-width:1.0;" x1="208" x2="198" y1="637.0528" y2="633.0528"/><line style="stroke:#000000;stroke-width:1.0;" x1="208" x2="198" y1="637.0528" y2="641.0528"/><line style="stroke:#000000;stroke-width:1.0;stroke-dasharray:2.0,2.0;" x1="64" x2="209" y1="637.0528" y2="637.0528"/><text fill="#000000" font-family="Lato,sans-serif" font-size="12" font-weight="bold" lengthAdjust="spacing" textLength="14" x="71" y="632.4968">33</text><text fill="#000000" font-family="Lato,sans-serif" font-size="12" lengthAdjust="spacing" textLength="99" x="89" y="632.4968">Download payload</text><polygon fill="#000000" points="520.5,661.4529,530.5,665.4529,520.5,669.4529" style="stroke:#000000;stroke-width:1.0;"/><line style="stroke:#000000;stroke-width:1.0;" x1="220" x2="526.5" y1="665.4529" y2="665.4529"/><text fill="#000000" font-family="Lato,sans-serif" font-size="12" font-weight="bold" lengthAdjust="spacing" textLength="14" x="227" y="660.8969">34</text><text fill="#000000" font-family="Consolas,Menlo,monospace" font-size="12" lengthAdjust="spacing" textLength="210" x="245" y="660.1903">psa_fwu_write(payload_id, ...)</text><polygon fill="#000000" points="231,689.853,221,693.853,231,697.853" style="stroke:#000000;stroke-width:1.0;"/><line style="stroke:#000000;stroke-width:1.0;stroke-dasharray:2.0,2.0;" x1="225" x2="526.5" y1="693.853" y2="693.853"/><text fill="#000000" font-family="Lato,sans-serif" font-size="12" font-weight="bold" lengthAdjust="spacing" textLength="14" x="237" y="689.297">35</text><text fill="#000000" font-family="Consolas,Menlo,monospace" font-size="12" lengthAdjust="spacing" textLength="77" x="255" y="688.5904">PSA_SUCCESS</text><polygon fill="#000000" points="520.5,718.2531,530.5,722.2531,520.5,726.2531" style="stroke:#000000;stroke-width:1.0;"/><line style="stroke:#000000;stroke-width:1.0;" x1="220" x2="526.5" y1="722.2531" y2="722.2531"/><text fill="#000000" font-family="Lato,sans-serif" font-size="12" font-weight="bold" lengthAdjust="spacing" textLength="14" x="227" y="717.6971">36</text><text fill="#000000" font-family="Consolas,Menlo,monospace" font-size="12" lengthAdjust="spacing" textLength="182" x="245" y="716.9905">psa_fwu_finish(payload_id)</text><polygon fill="#000000" points="231,746.6532,221,750.6532,231,754.6532" style="stroke:#000000;stroke-width:1.0;"/><line style="stroke:#000000;stroke-width:1.0;stroke-dasharray:2.0,2.0;" x1="225" x2="526.5" y1="750.6532" y2="750.6532"/><text fill="#000000" font-family="Lato,sans-serif" font-size="12" font-weight="bold" lengthAdjust="spacing" textLength="14" x="237" y="746.0972">37</text><text fill="#000000" font-family="Consolas,Menlo,monospace" font-size="12" lengthAdjust="spacing" textLength="77" x="255" y="745.3906">PSA_SUCCESS</text><polygon fill="#000000" points="520.5,778.0533,530.5,782.0533,520.5,786.0533" style="stroke:#000000;stroke-width:1.0;"/><line style="stroke:#000000;stroke-width:1.0;" x1="220" x2="526.5" y1="782.0533" y2="782.0533"/><text fill="#000000" font-family="Lato,sans-serif" font-size="12" font-weight="bold" lengthAdjust="spacing" textLength="14" x="227" y="777.4973">38</text><text fill="#000000" font-family="Consolas,Menlo,monospace" font-size="12" lengthAdjust="spacing" textLength="119" x="245" y="776.7907">psa_fwu_process()</text><path d="M55,767.6532 L55,783.6532 A4,4 0 0 0 59,787.6532 L201,787.6532 A4,4 0 0 0 205,783.6532 L205,773.6532 L195,763.6532 L59,763.6532 A4,4 0 0 0 55,767.6532 " fill="#E8E8E8" style="stroke:#181818;stroke-width:1.0;"/><path d="M195,763.6532 L195,771.6532 A2,2 0 0 0 197,773.6532 L205,773.6532 L195,763.6532 " fill="#E8E8E8" style="stroke:#181818;stroke-width:1.0;"/><text fill="#000000" font-family="Lato,sans-serif" font-size="12" lengthAdjust="spacing" textLength="129" x="61" y="780.4973">Resume SUIT processing</text><polygon fill="#000000" points="231,819.4534,221,823.4534,231,827.4534" style="stroke:#000000;stroke-width:1.0;"/><line style="stroke:#000000;stroke-width:1.0;stroke-dasharray:2.0,2.0;" x1="225" x2="526.5" y1="823.4534" y2="823.4534"/><text fill="#000000" font-family="Lato,sans-serif" font-size="12" font-weight="bold" lengthAdjust="spacing" textLength="14" x="237" y="818.8974">39</text><text fill="#000000" font-family="Consolas,Menlo,monospace" font-size="12" lengthAdjust="spacing" textLength="77" x="255" y="818.1908">PSA_SUCCESS</text><path d="M46,809.0533 L46,825.0533 A4,4 0 0 0 50,829.0533 L201,829.0533 A4,4 0 0 0 205,825.0533 L205,815.0533 L195,805.0533 L50,805.0533 A4,4 0 0 0 46,809.0533 " fill="#E8E8E8" style="stroke:#181818;stroke-width:1.0;"/><path d="M195,805.0533 L195,813.0533 A2,2 0 0 0 197,815.0533 L205,815.0533 L195,805.0533 " fill="#E8E8E8" style="stroke:#181818;stroke-width:1.0;"/><text fill="#000000" font-family="Lato,sans-serif" font-size="12" lengthAdjust="spacing" textLength="138" x="52" y="821.8974">Payload fetching complete</text><rect fill="#AAAADD" height="22" rx="4" ry="4" style="stroke:#181818;stroke-width:1.0;" width="64" x="673" y="839.4534"/><text fill="#000000" font-family="Lato,sans-serif" font-size="12" lengthAdjust="spacing" textLength="56" x="677" y="855.2975">UPDATED</text><polygon fill="#000000" points="287,883.2536,297,887.2536,287,891.2536" style="stroke:#000000;stroke-width:1.0;"/><line style="stroke:#000000;stroke-width:1.0;" x1="215" x2="293" y1="887.2536" y2="887.2536"/><text fill="#000000" font-family="Lato,sans-serif" font-size="12" font-weight="bold" lengthAdjust="spacing" textLength="14" x="222" y="882.6976">40</text><text fill="#000000" font-family="Consolas,Menlo,monospace" font-size="12" lengthAdjust="spacing" textLength="42" x="240" y="881.9911">exit()</text><line style="stroke:#000000;stroke-width:1.0;" x1="537.5" x2="579.5" y1="920.6537" y2="920.6537"/><line style="stroke:#000000;stroke-width:1.0;" x1="579.5" x2="579.5" y1="920.6537" y2="933.6537"/><line style="stroke:#000000;stroke-width:1.0;" x1="532.5" x2="579.5" y1="933.6537" y2="933.6537"/><polygon fill="#000000" points="542.5,929.6537,532.5,933.6537,542.5,937.6537" style="stroke:#000000;stroke-width:1.0;"/><text fill="#000000" font-family="Lato,sans-serif" font-size="12" font-weight="bold" lengthAdjust="spacing" textLength="14" x="544.5" y="916.0977">41</text><text fill="#000000" font-family="Lato,sans-serif" font-size="12" lengthAdjust="spacing" textLength="85" x="562.5" y="916.0977">SUIT Invocation</text><path d="M448,945.6537 L448,990.6537 A4,4 0 0 0 452,994.6537 L613,994.6537 A4,4 0 0 0 617,990.6537 L617,951.6537 L607,941.6537 L452,941.6537 A4,4 0 0 0 448,945.6537 " fill="#E8E8E8" style="stroke:#181818;stroke-width:1.0;"/><path d="M607,941.6537 L607,949.6537 A2,2 0 0 0 609,951.6537 L617,951.6537 L607,941.6537 " fill="#E8E8E8" style="stroke:#181818;stroke-width:1.0;"/><text fill="#000000" font-family="Consolas,Menlo,monospace" font-size="12" lengthAdjust="spacing" textLength="91" x="454" y="957.9659">suit-validate</text><text fill="#000000" font-family="Lato,sans-serif" font-size="12" lengthAdjust="spacing" textLength="50" x="552" y="958.4978">sequence</text><text fill="#000000" font-family="Consolas,Menlo,monospace" font-size="12" lengthAdjust="spacing" textLength="63" x="454" y="972.366">suit-load</text><text fill="#000000" font-family="Lato,sans-serif" font-size="12" lengthAdjust="spacing" textLength="50" x="524" y="972.8979">sequence</text><text fill="#000000" font-family="Consolas,Menlo,monospace" font-size="12" lengthAdjust="spacing" textLength="77" x="454" y="986.7661">suit-invoke</text><text fill="#000000" font-family="Lato,sans-serif" font-size="12" lengthAdjust="spacing" textLength="50" x="538" y="987.298">sequence</text></g></svg>