<?xml version="1.0" encoding="UTF-8" standalone="no"?><svg xmlns="http://www.w3.org/2000/svg" xmlns:xlink="http://www.w3.org/1999/xlink" contentStyleType="text/css" height="1076px" preserveAspectRatio="none" style="width:786px;height:1076px;background:#FFFFFF55;" version="1.1" viewBox="0 0 786 1076" width="786px" zoomAndPan="magnify"><defs/><g><rect fill="#E0E0E0" fill-opacity="0.75294" height="1057.657" rx="4" ry="4" style="stroke:none;stroke-width:0.5;" width="96" x="16" y="6"/><text fill="#000000" font-family="Lato,sans-serif" font-size="12" font-weight="bold" lengthAdjust="spacing" textLength="48" x="40" y="17.8441">Network</text><rect fill="#E0E0E0" fill-opacity="0.75294" height="1057.657" rx="4" ry="4" style="stroke:none;stroke-width:0.5;" width="520.5" x="166" y="6"/><text fill="#000000" font-family="Lato,sans-serif" font-size="12" font-weight="bold" lengthAdjust="spacing" textLength="36" x="408.25" y="17.8441">Device</text><rect fill="#FFFFFF" height="91.2003" style="stroke:#808080;stroke-width:1.0;" width="10" x="59" y="522.5032"/><rect fill="#FFFFFF" height="591.3034" style="stroke:#808080;stroke-width:1.0;" width="10" x="213" y="272.6009"/><rect fill="#FFFFFF" height="81.2003" style="stroke:#808080;stroke-width:1.0;" width="10" x="313" y="63.8002"/><rect fill="#FFFFFF" height="648.1036" style="stroke:#808080;stroke-width:1.0;" width="10" x="530.5" y="244.2008"/><rect fill="#DDDDDD" height="100.9018" style="stroke:#808080;stroke-width:1.0;" width="10" x="535.5" y="336.4011"/><rect fill="#DDDDDD" height="28.4001" style="stroke:#808080;stroke-width:1.0;" width="10" x="535.5" y="465.703"/><rect fill="#DDDDDD" height="31.4001" style="stroke:#808080;stroke-width:1.0;" width="10" x="535.5" y="553.9033"/><rect fill="#DDDDDD" height="28.4001" style="stroke:#808080;stroke-width:1.0;" width="10" x="535.5" y="642.1036"/><rect fill="#DDDDDD" height="28.4001" style="stroke:#808080;stroke-width:1.0;" width="10" x="535.5" y="698.9038"/><rect fill="#DDDDDD" height="41.4001" style="stroke:#808080;stroke-width:1.0;" width="10" x="535.5" y="758.704"/><rect fill="#FFFFFF" height="28.4001" style="stroke:#808080;stroke-width:1.0;" width="10" x="640.5" y="215.8007"/><rect fill="#FFFFFF" height="97.5524" style="stroke:#808080;stroke-width:1.0;" width="10" x="640.5" y="963.1046"/><rect fill="#F08080" height="160.0005" style="stroke:#808080;stroke-width:1.0;" width="10" x="728.5" y="84.2003"/><rect fill="#FFC0CB" height="486.1031" style="stroke:#808080;stroke-width:1.0;" width="10" x="728.5" y="272.6009"/><rect fill="#AAAADD" height="260.5529" style="stroke:#808080;stroke-width:1.0;" width="10" x="728.5" y="800.1041"/><rect fill="#FFFFFF" fill-opacity="0.50196" height="369.2013" rx="4" ry="4" style="stroke:#808080;stroke-width:1.0;" width="564" x="10" y="400.5027"/><line style="stroke:#808080;stroke-width:0.5;stroke-dasharray:5.0,5.0;" x1="64" x2="64" y1="53.8002" y2="1069.657"/><line style="stroke:#808080;stroke-width:0.5;stroke-dasharray:5.0,5.0;" x1="218" x2="218" y1="53.8002" y2="1069.657"/><line style="stroke:#808080;stroke-width:0.5;stroke-dasharray:5.0,5.0;" x1="318" x2="318" y1="53.8002" y2="1069.657"/><line style="stroke:#808080;stroke-width:0.5;stroke-dasharray:5.0,5.0;" x1="433" x2="433" y1="53.8002" y2="1069.657"/><line style="stroke:#808080;stroke-width:0.5;stroke-dasharray:5.0,5.0;" x1="535" x2="535" y1="53.8002" y2="1069.657"/><line style="stroke:#808080;stroke-width:0.5;stroke-dasharray:5.0,5.0;" x1="645.5" x2="645.5" y1="53.8002" y2="1069.657"/><line style="stroke:#808080;stroke-width:0.5;stroke-dasharray:5.0,5.0;" x1="733.5" x2="733.5" y1="53.8002" y2="1069.657"/><rect fill="#FFFFFF" height="28.4001" rx="4" ry="4" style="stroke:#000000;stroke-width:1.0;" width="88" x="20" y="24.4001"/><text fill="#000000" font-family="Lato,sans-serif" font-size="12" lengthAdjust="spacing" textLength="74" x="27" y="43.2442">Update server</text><rect fill="#FFFFFF" height="28.4001" rx="4" ry="4" style="stroke:#000000;stroke-width:1.0;" width="96" x="170" y="24.4001"/><text fill="#000000" font-family="Lato,sans-serif" font-size="12" lengthAdjust="spacing" textLength="82" x="177" y="43.2442">Payload fetcher</text><rect fill="#FFFFFF" height="28.4001" rx="4" ry="4" style="stroke:#000000;stroke-width:1.0;" width="84" x="276" y="24.4001"/><text fill="#000000" font-family="Lato,sans-serif" font-size="12" lengthAdjust="spacing" textLength="70" x="283" y="43.2442">Update client</text><rect fill="#FFFFFF" height="28.4001" rx="4" ry="4" style="stroke:#000000;stroke-width:1.0;" width="127" x="370" y="24.4001"/><text fill="#000000" font-family="Lato,sans-serif" font-size="12" lengthAdjust="spacing" textLength="113" x="377" y="43.2442">Firmware Update API</text><rect fill="#FFFFFF" height="28.4001" rx="4" ry="4" style="stroke:#000000;stroke-width:1.0;" width="57" x="507" y="24.4001"/><text fill="#000000" font-family="Lato,sans-serif" font-size="12" lengthAdjust="spacing" textLength="43" x="514" y="43.2442">Installer</text><rect fill="#FFFFFF" height="28.4001" rx="4" ry="4" style="stroke:#000000;stroke-width:1.0;" width="74" x="608.5" y="24.4001"/><text fill="#000000" font-family="Lato,sans-serif" font-size="12" lengthAdjust="spacing" textLength="60" x="615.5" y="43.2442">Bootloader</text><text fill="#000000" font-family="Lato,sans-serif" font-size="12" lengthAdjust="spacing" textLength="76" x="692.5" y="51.2442">Envelope state</text><ellipse cx="733.5" cy="23.4001" fill="#FFFFFF" rx="12" ry="12" style="stroke:#000000;stroke-width:1.0;"/><line style="stroke:#000000;stroke-width:1.0;" x1="721.5" x2="745.5" y1="37.4001" y2="37.4001"/><rect fill="#FFFFFF" height="91.2003" style="stroke:#808080;stroke-width:1.0;" width="10" x="59" y="522.5032"/><rect fill="#FFFFFF" height="591.3034" style="stroke:#808080;stroke-width:1.0;" width="10" x="213" y="272.6009"/><rect fill="#FFFFFF" height="81.2003" style="stroke:#808080;stroke-width:1.0;" width="10" x="313" y="63.8002"/><rect fill="#FFFFFF" height="648.1036" style="stroke:#808080;stroke-width:1.0;" width="10" x="530.5" y="244.2008"/><rect fill="#DDDDDD" height="100.9018" style="stroke:#808080;stroke-width:1.0;" width="10" x="535.5" y="336.4011"/><rect fill="#DDDDDD" height="28.4001" style="stroke:#808080;stroke-width:1.0;" width="10" x="535.5" y="465.703"/><rect fill="#DDDDDD" height="31.4001" style="stroke:#808080;stroke-width:1.0;" width="10" x="535.5" y="553.9033"/><rect fill="#DDDDDD" height="28.4001" style="stroke:#808080;stroke-width:1.0;" width="10" x="535.5" y="642.1036"/><rect fill="#DDDDDD" height="28.4001" style="stroke:#808080;stroke-width:1.0;" width="10" x="535.5" y="698.9038"/><rect fill="#DDDDDD" height="41.4001" style="stroke:#808080;stroke-width:1.0;" width="10" x="535.5" y="758.704"/><rect fill="#FFFFFF" height="28.4001" style="stroke:#808080;stroke-width:1.0;" width="10" x="640.5" y="215.8007"/><rect fill="#FFFFFF" height="97.5524" style="stroke:#808080;stroke-width:1.0;" width="10" x="640.5" y="963.1046"/><rect fill="#F08080" height="160.0005" style="stroke:#808080;stroke-width:1.0;" width="10" x="728.5" y="84.2003"/><rect fill="#FFC0CB" height="486.1031" style="stroke:#808080;stroke-width:1.0;" width="10" x="728.5" y="272.6009"/><rect fill="#AAAADD" height="260.5529" style="stroke:#808080;stroke-width:1.0;" width="10" x="728.5" y="800.1041"/><polygon fill="#000000" points="334,80.2003,324,84.2003,334,88.2003" style="stroke:#000000;stroke-width:1.0;"/><line style="stroke:#000000;stroke-width:1.0;stroke-dasharray:2.0,2.0;" x1="328" x2="727.5" y1="84.2003" y2="84.2003"/><text fill="#000000" font-family="Lato,sans-serif" font-size="12" font-weight="bold" lengthAdjust="spacing" textLength="17" x="340" y="79.6443">25:</text><text fill="#000000" font-family="Consolas,Menlo,monospace" font-size="12" lengthAdjust="spacing" textLength="161" x="361" y="78.9378">PSA_FWU_REBOOT_REQUIRED</text><rect fill="#F08080" height="22" rx="4" ry="4" style="stroke:#181818;stroke-width:1.0;" width="54" x="706" y="97.2003"/><text fill="#000000" font-family="Lato,sans-serif" font-size="12" lengthAdjust="spacing" textLength="46" x="710" y="113.0444">STAGED</text><line style="stroke:#000000;stroke-width:1.0;" x1="777.5" x2="767.5" y1="145.0005" y2="141.0005"/><line style="stroke:#000000;stroke-width:1.0;" x1="777.5" x2="767.5" y1="145.0005" y2="149.0005"/><line style="stroke:#000000;stroke-width:1.0;stroke-dasharray:2.0,2.0;" x1="318" x2="778.5" y1="145.0005" y2="145.0005"/><text fill="#000000" font-family="Lato,sans-serif" font-size="12" font-weight="bold" lengthAdjust="spacing" textLength="17" x="325" y="140.4445">26:</text><text fill="#000000" font-family="Lato,sans-serif" font-size="12" lengthAdjust="spacing" textLength="81" x="346" y="140.4445">Request reboot</text><rect fill="#EEEEEE" height="3" rx="4" ry="4" style="stroke:#EEEEEE;stroke-width:1.0;" width="779.5" x="0" y="173.2006"/><line style="stroke:#000000;stroke-width:1.0;" x1="0" x2="779.5" y1="173.2006" y2="173.2006"/><line style="stroke:#000000;stroke-width:1.0;" x1="0" x2="779.5" y1="176.2006" y2="176.2006"/><rect fill="#EEEEEE" height="22.4001" rx="4" ry="4" style="stroke:#000000;stroke-width:2.0;" width="98" x="340.75" y="163.0005"/><text fill="#000000" font-family="Lato,sans-serif" font-size="12" font-weight="bold" lengthAdjust="spacing" textLength="82" x="346.75" y="178.8446">System restarts</text><line style="stroke:#000000;stroke-width:1.0;" x1="651.5" x2="661.5" y1="215.8007" y2="211.8007"/><line style="stroke:#000000;stroke-width:1.0;" x1="651.5" x2="661.5" y1="215.8007" y2="219.8007"/><line style="stroke:#000000;stroke-width:1.0;stroke-dasharray:2.0,2.0;" x1="650.5" x2="778.5" y1="215.8007" y2="215.8007"/><text fill="#000000" font-family="Lato,sans-serif" font-size="12" font-weight="bold" lengthAdjust="spacing" textLength="17" x="667.5" y="211.2447">27:</text><text fill="#000000" font-family="Lato,sans-serif" font-size="12" lengthAdjust="spacing" textLength="63" x="688.5" y="211.2447">Device boot</text><polygon fill="#000000" points="551.5,240.2008,541.5,244.2008,551.5,248.2008" style="stroke:#000000;stroke-width:1.0;"/><line style="stroke:#000000;stroke-width:1.0;" x1="545.5" x2="644.5" y1="244.2008" y2="244.2008"/><text fill="#000000" font-family="Lato,sans-serif" font-size="12" font-weight="bold" lengthAdjust="spacing" textLength="17" x="557.5" y="239.6448">28:</text><text fill="#000000" font-family="Lato,sans-serif" font-size="12" lengthAdjust="spacing" textLength="60" x="578.5" y="239.6448">SUIT Install</text><line style="stroke:#000000;stroke-width:1.0;" x1="224" x2="234" y1="272.6009" y2="268.6009"/><line style="stroke:#000000;stroke-width:1.0;" x1="224" x2="234" y1="272.6009" y2="276.6009"/><line style="stroke:#000000;stroke-width:1.0;" x1="223" x2="529.5" y1="272.6009" y2="272.6009"/><text fill="#000000" font-family="Lato,sans-serif" font-size="12" font-weight="bold" lengthAdjust="spacing" textLength="17" x="240" y="268.0449">29:</text><text fill="#000000" font-family="Lato,sans-serif" font-size="12" lengthAdjust="spacing" textLength="109" x="261" y="268.0449">Start payload fetcher</text><rect fill="#FFC0CB" height="22" rx="4" ry="4" style="stroke:#181818;stroke-width:1.0;" width="76" x="695" y="285.6009"/><text fill="#000000" font-family="Lato,sans-serif" font-size="12" lengthAdjust="spacing" textLength="68" x="699" y="301.445">INSTALLING</text><polygon fill="#000000" points="523.5,332.4011,533.5,336.4011,523.5,340.4011" style="stroke:#000000;stroke-width:1.0;"/><line style="stroke:#000000;stroke-width:1.0;" x1="223" x2="529.5" y1="336.4011" y2="336.4011"/><text fill="#000000" font-family="Lato,sans-serif" font-size="12" font-weight="bold" lengthAdjust="spacing" textLength="17" x="230" y="331.8451">30:</text><text fill="#000000" font-family="Consolas,Menlo,monospace" font-size="12" lengthAdjust="spacing" textLength="119" x="251" y="331.1386">psa_fwu_process()</text><path d="M58,322.001 L58,338.001 A4,4 0 0 0 62,342.001 L204,342.001 A4,4 0 0 0 208,338.001 L208,328.001 L198,318.001 L62,318.001 A4,4 0 0 0 58,322.001 " fill="#E8E8E8" style="stroke:#181818;stroke-width:1.0;"/><path d="M198,318.001 L198,326.001 A2,2 0 0 0 200,328.001 L208,328.001 L198,318.001 " fill="#E8E8E8" style="stroke:#181818;stroke-width:1.0;"/><text fill="#000000" font-family="Lato,sans-serif" font-size="12" lengthAdjust="spacing" textLength="129" x="64" y="334.8451">Process SUIT commands</text><polygon fill="#E8E8E8" points="446,352.4011,625,352.4011,635,370.4011,625,388.4011,446,388.4011,436,370.4011,446,352.4011" style="stroke:#181818;stroke-width:1.0;"/><text fill="#000000" font-family="Consolas,Menlo,monospace" font-size="12" lengthAdjust="spacing" textLength="175" x="448" y="367.364">suit-candidate-validation</text><text fill="#000000" font-family="Consolas,Menlo,monospace" font-size="12" lengthAdjust="spacing" textLength="84" x="448" y="381.4148">suit-install</text><path d="M14,400.5027 L79,400.5027 L79,406.9028 L69,416.9028 L10,416.9028 L10,404.5027 A4,4 0 0 1 14,400.5027 " fill="#F0F0F0" style="stroke:#808080;stroke-width:1.5;"/><rect fill="none" height="369.2013" rx="4" ry="4" style="stroke:#808080;stroke-width:1.0;" width="564" x="10" y="400.5027"/><text fill="#000000" font-family="Lato,sans-serif" font-size="12" lengthAdjust="spacing" textLength="24" x="25" y="413.3468">loop</text><text fill="#000000" font-family="Lato,sans-serif" font-size="11" font-weight="bold" lengthAdjust="spacing" textLength="197" x="94" y="413.3598">[While additional payloads are required]</text><polygon fill="#000000" points="234,433.3029,224,437.3029,234,441.3029" style="stroke:#000000;stroke-width:1.0;"/><line style="stroke:#000000;stroke-width:1.0;stroke-dasharray:2.0,2.0;" x1="228" x2="529.5" y1="437.3029" y2="437.3029"/><text fill="#000000" font-family="Lato,sans-serif" font-size="12" font-weight="bold" lengthAdjust="spacing" textLength="17" x="240" y="432.7469">31:</text><text fill="#000000" font-family="Consolas,Menlo,monospace" font-size="12" lengthAdjust="spacing" textLength="168" x="261" y="432.0403">PSA_FWU_PAYLOAD_REQUIRED</text><polygon fill="#000000" points="523.5,461.703,533.5,465.703,523.5,469.703" style="stroke:#000000;stroke-width:1.0;"/><line style="stroke:#000000;stroke-width:1.0;" x1="223" x2="529.5" y1="465.703" y2="465.703"/><text fill="#000000" font-family="Lato,sans-serif" font-size="12" font-weight="bold" lengthAdjust="spacing" textLength="17" x="230" y="461.147">32:</text><text fill="#000000" font-family="Consolas,Menlo,monospace" font-size="12" lengthAdjust="spacing" textLength="231" x="251" y="460.4404">psa_fwu_query_payload(payload_id)</text><polygon fill="#000000" points="234,490.1031,224,494.1031,234,498.1031" style="stroke:#000000;stroke-width:1.0;"/><line style="stroke:#000000;stroke-width:1.0;stroke-dasharray:2.0,2.0;" x1="228" x2="529.5" y1="494.1031" y2="494.1031"/><text fill="#000000" font-family="Lato,sans-serif" font-size="12" font-weight="bold" lengthAdjust="spacing" textLength="17" x="240" y="489.5471">33:</text><text fill="#000000" font-family="Consolas,Menlo,monospace" font-size="12" lengthAdjust="spacing" textLength="77" x="261" y="489.0152">PSA_SUCCESS</text><text fill="#000000" font-family="Lato,sans-serif" font-size="12" lengthAdjust="spacing" textLength="116" x="340" y="489.5471">+ payload information</text><line style="stroke:#000000;stroke-width:1.0;" x1="70" x2="80" y1="522.5032" y2="518.5032"/><line style="stroke:#000000;stroke-width:1.0;" x1="70" x2="80" y1="522.5032" y2="526.5032"/><line style="stroke:#000000;stroke-width:1.0;" x1="69" x2="212" y1="522.5032" y2="522.5032"/><text fill="#000000" font-family="Lato,sans-serif" font-size="12" font-weight="bold" lengthAdjust="spacing" textLength="17" x="86" y="517.9472">34:</text><text fill="#000000" font-family="Lato,sans-serif" font-size="12" lengthAdjust="spacing" textLength="74" x="107" y="517.9472">Fetch payload</text><polygon fill="#000000" points="523.5,549.9033,533.5,553.9033,523.5,557.9033" style="stroke:#000000;stroke-width:1.0;"/><line style="stroke:#000000;stroke-width:1.0;" x1="223" x2="529.5" y1="553.9033" y2="553.9033"/><text fill="#000000" font-family="Lato,sans-serif" font-size="12" font-weight="bold" lengthAdjust="spacing" textLength="17" x="230" y="549.3473">35:</text><text fill="#000000" font-family="Consolas,Menlo,monospace" font-size="12" lengthAdjust="spacing" textLength="175" x="251" y="548.6407">psa_fwu_start(payload_id)</text><path d="M98,539.5032 L98,555.5032 A4,4 0 0 0 102,559.5032 L204,559.5032 A4,4 0 0 0 208,555.5032 L208,545.5032 L198,535.5032 L102,535.5032 A4,4 0 0 0 98,539.5032 " fill="#E8E8E8" style="stroke:#181818;stroke-width:1.0;"/><path d="M198,535.5032 L198,543.5032 A2,2 0 0 0 200,545.5032 L208,545.5032 L198,535.5032 " fill="#E8E8E8" style="stroke:#181818;stroke-width:1.0;"/><text fill="#000000" font-family="Lato,sans-serif" font-size="12" lengthAdjust="spacing" textLength="89" x="104" y="552.3473">Transfer payload</text><polygon fill="#000000" points="234,581.3034,224,585.3034,234,589.3034" style="stroke:#000000;stroke-width:1.0;"/><line style="stroke:#000000;stroke-width:1.0;stroke-dasharray:2.0,2.0;" x1="228" x2="529.5" y1="585.3034" y2="585.3034"/><text fill="#000000" font-family="Lato,sans-serif" font-size="12" font-weight="bold" lengthAdjust="spacing" textLength="17" x="240" y="580.7474">36:</text><text fill="#000000" font-family="Consolas,Menlo,monospace" font-size="12" lengthAdjust="spacing" textLength="77" x="261" y="580.0408">PSA_SUCCESS</text><line style="stroke:#000000;stroke-width:1.0;" x1="211" x2="201" y1="613.7035" y2="609.7035"/><line style="stroke:#000000;stroke-width:1.0;" x1="211" x2="201" y1="613.7035" y2="617.7035"/><line style="stroke:#000000;stroke-width:1.0;stroke-dasharray:2.0,2.0;" x1="64" x2="212" y1="613.7035" y2="613.7035"/><text fill="#000000" font-family="Lato,sans-serif" font-size="12" font-weight="bold" lengthAdjust="spacing" textLength="17" x="71" y="609.1475">37:</text><text fill="#000000" font-family="Lato,sans-serif" font-size="12" lengthAdjust="spacing" textLength="99" x="92" y="609.1475">Download payload</text><polygon fill="#000000" points="523.5,638.1036,533.5,642.1036,523.5,646.1036" style="stroke:#000000;stroke-width:1.0;"/><line style="stroke:#000000;stroke-width:1.0;" x1="223" x2="529.5" y1="642.1036" y2="642.1036"/><text fill="#000000" font-family="Lato,sans-serif" font-size="12" font-weight="bold" lengthAdjust="spacing" textLength="17" x="230" y="637.5476">38:</text><text fill="#000000" font-family="Consolas,Menlo,monospace" font-size="12" lengthAdjust="spacing" textLength="210" x="251" y="636.841">psa_fwu_write(payload_id, ...)</text><polygon fill="#000000" points="234,666.5037,224,670.5037,234,674.5037" style="stroke:#000000;stroke-width:1.0;"/><line style="stroke:#000000;stroke-width:1.0;stroke-dasharray:2.0,2.0;" x1="228" x2="529.5" y1="670.5037" y2="670.5037"/><text fill="#000000" font-family="Lato,sans-serif" font-size="12" font-weight="bold" lengthAdjust="spacing" textLength="17" x="240" y="665.9477">39:</text><text fill="#000000" font-family="Consolas,Menlo,monospace" font-size="12" lengthAdjust="spacing" textLength="77" x="261" y="665.2411">PSA_SUCCESS</text><polygon fill="#000000" points="523.5,694.9038,533.5,698.9038,523.5,702.9038" style="stroke:#000000;stroke-width:1.0;"/><line style="stroke:#000000;stroke-width:1.0;" x1="223" x2="529.5" y1="698.9038" y2="698.9038"/><text fill="#000000" font-family="Lato,sans-serif" font-size="12" font-weight="bold" lengthAdjust="spacing" textLength="17" x="230" y="694.3478">40:</text><text fill="#000000" font-family="Consolas,Menlo,monospace" font-size="12" lengthAdjust="spacing" textLength="182" x="251" y="693.6412">psa_fwu_finish(payload_id)</text><polygon fill="#000000" points="234,723.3039,224,727.3039,234,731.3039" style="stroke:#000000;stroke-width:1.0;"/><line style="stroke:#000000;stroke-width:1.0;stroke-dasharray:2.0,2.0;" x1="228" x2="529.5" y1="727.3039" y2="727.3039"/><text fill="#000000" font-family="Lato,sans-serif" font-size="12" font-weight="bold" lengthAdjust="spacing" textLength="17" x="240" y="722.7479">41:</text><text fill="#000000" font-family="Consolas,Menlo,monospace" font-size="12" lengthAdjust="spacing" textLength="77" x="261" y="722.0413">PSA_SUCCESS</text><polygon fill="#000000" points="523.5,754.704,533.5,758.704,523.5,762.704" style="stroke:#000000;stroke-width:1.0;"/><line style="stroke:#000000;stroke-width:1.0;" x1="223" x2="529.5" y1="758.704" y2="758.704"/><text fill="#000000" font-family="Lato,sans-serif" font-size="12" font-weight="bold" lengthAdjust="spacing" textLength="17" x="230" y="754.148">42:</text><text fill="#000000" font-family="Consolas,Menlo,monospace" font-size="12" lengthAdjust="spacing" textLength="119" x="251" y="753.4414">psa_fwu_process()</text><path d="M58,744.3039 L58,760.3039 A4,4 0 0 0 62,764.3039 L204,764.3039 A4,4 0 0 0 208,760.3039 L208,750.3039 L198,740.3039 L62,740.3039 A4,4 0 0 0 58,744.3039 " fill="#E8E8E8" style="stroke:#181818;stroke-width:1.0;"/><path d="M198,740.3039 L198,748.3039 A2,2 0 0 0 200,750.3039 L208,750.3039 L198,740.3039 " fill="#E8E8E8" style="stroke:#181818;stroke-width:1.0;"/><text fill="#000000" font-family="Lato,sans-serif" font-size="12" lengthAdjust="spacing" textLength="129" x="64" y="757.148">Resume SUIT processing</text><polygon fill="#000000" points="234,796.1041,224,800.1041,234,804.1041" style="stroke:#000000;stroke-width:1.0;"/><line style="stroke:#000000;stroke-width:1.0;stroke-dasharray:2.0,2.0;" x1="228" x2="529.5" y1="800.1041" y2="800.1041"/><text fill="#000000" font-family="Lato,sans-serif" font-size="12" font-weight="bold" lengthAdjust="spacing" textLength="17" x="240" y="795.5481">43:</text><text fill="#000000" font-family="Consolas,Menlo,monospace" font-size="12" lengthAdjust="spacing" textLength="77" x="261" y="794.8415">PSA_SUCCESS</text><path d="M49,785.704 L49,801.704 A4,4 0 0 0 53,805.704 L204,805.704 A4,4 0 0 0 208,801.704 L208,791.704 L198,781.704 L53,781.704 A4,4 0 0 0 49,785.704 " fill="#E8E8E8" style="stroke:#181818;stroke-width:1.0;"/><path d="M198,781.704 L198,789.704 A2,2 0 0 0 200,791.704 L208,791.704 L198,781.704 " fill="#E8E8E8" style="stroke:#181818;stroke-width:1.0;"/><text fill="#000000" font-family="Lato,sans-serif" font-size="12" lengthAdjust="spacing" textLength="138" x="55" y="798.5481">Payload fetching complete</text><rect fill="#AAAADD" height="22" rx="4" ry="4" style="stroke:#181818;stroke-width:1.0;" width="64" x="701" y="816.1041"/><text fill="#000000" font-family="Lato,sans-serif" font-size="12" lengthAdjust="spacing" textLength="56" x="705" y="831.9482">UPDATED</text><polygon fill="#000000" points="518.5,859.9043,528.5,863.9043,518.5,867.9043" style="stroke:#000000;stroke-width:1.0;"/><line style="stroke:#000000;stroke-width:1.0;" x1="218" x2="524.5" y1="863.9043" y2="863.9043"/><text fill="#000000" font-family="Lato,sans-serif" font-size="12" font-weight="bold" lengthAdjust="spacing" textLength="17" x="225" y="859.3483">44:</text><text fill="#000000" font-family="Consolas,Menlo,monospace" font-size="12" lengthAdjust="spacing" textLength="42" x="246" y="858.6417">exit()</text><line style="stroke:#000000;stroke-width:1.0;" x1="777.5" x2="767.5" y1="892.3044" y2="888.3044"/><line style="stroke:#000000;stroke-width:1.0;" x1="777.5" x2="767.5" y1="892.3044" y2="896.3044"/><line style="stroke:#000000;stroke-width:1.0;stroke-dasharray:2.0,2.0;" x1="535.5" x2="778.5" y1="892.3044" y2="892.3044"/><text fill="#000000" font-family="Lato,sans-serif" font-size="12" font-weight="bold" lengthAdjust="spacing" textLength="17" x="542.5" y="887.7484">45:</text><text fill="#000000" font-family="Lato,sans-serif" font-size="12" lengthAdjust="spacing" textLength="81" x="563.5" y="887.7484">Request reboot</text><rect fill="#EEEEEE" height="3" rx="4" ry="4" style="stroke:#EEEEEE;stroke-width:1.0;" width="779.5" x="0" y="920.5044"/><line style="stroke:#000000;stroke-width:1.0;" x1="0" x2="779.5" y1="920.5044" y2="920.5044"/><line style="stroke:#000000;stroke-width:1.0;" x1="0" x2="779.5" y1="923.5044" y2="923.5044"/><rect fill="#EEEEEE" height="22.4001" rx="4" ry="4" style="stroke:#000000;stroke-width:2.0;" width="98" x="340.75" y="910.3044"/><text fill="#000000" font-family="Lato,sans-serif" font-size="12" font-weight="bold" lengthAdjust="spacing" textLength="82" x="346.75" y="926.1485">System restarts</text><line style="stroke:#000000;stroke-width:1.0;" x1="651.5" x2="661.5" y1="963.1046" y2="959.1046"/><line style="stroke:#000000;stroke-width:1.0;" x1="651.5" x2="661.5" y1="963.1046" y2="967.1046"/><line style="stroke:#000000;stroke-width:1.0;stroke-dasharray:2.0,2.0;" x1="650.5" x2="778.5" y1="963.1046" y2="963.1046"/><text fill="#000000" font-family="Lato,sans-serif" font-size="12" font-weight="bold" lengthAdjust="spacing" textLength="17" x="667.5" y="958.5486">46:</text><text fill="#000000" font-family="Lato,sans-serif" font-size="12" lengthAdjust="spacing" textLength="63" x="688.5" y="958.5486">Device boot</text><polygon fill="#E8E8E8" points="598,976.1046,693,976.1046,703,1001.1046,693,1026.1046,598,1026.1046,588,1001.1046,598,976.1046" style="stroke:#181818;stroke-width:1.0;"/><text fill="#000000" font-family="Consolas,Menlo,monospace" font-size="12" lengthAdjust="spacing" textLength="91" x="600" y="991.0675">suit-validate</text><text fill="#000000" font-family="Consolas,Menlo,monospace" font-size="12" lengthAdjust="spacing" textLength="63" x="600" y="1005.1183">suit-load</text><text fill="#000000" font-family="Consolas,Menlo,monospace" font-size="12" lengthAdjust="spacing" textLength="77" x="600" y="1019.169">suit-invoke</text><line style="stroke:#000000;stroke-width:1.0;" x1="534.5" x2="544.5" y1="1051.657" y2="1047.657"/><line style="stroke:#000000;stroke-width:1.0;" x1="534.5" x2="544.5" y1="1051.657" y2="1055.657"/><line style="stroke:#000000;stroke-width:1.0;stroke-dasharray:2.0,2.0;" x1="533.5" x2="639.5" y1="1051.657" y2="1051.657"/><text fill="#000000" font-family="Lato,sans-serif" font-size="12" font-weight="bold" lengthAdjust="spacing" textLength="17" x="550.5" y="1047.101">47:</text><text fill="#000000" font-family="Lato,sans-serif" font-size="12" lengthAdjust="spacing" textLength="72" x="571.5" y="1047.101">Run firmware</text></g></svg>