<?xml version="1.0" encoding="UTF-8" standalone="no"?><svg xmlns="http://www.w3.org/2000/svg" xmlns:xlink="http://www.w3.org/1999/xlink" contentStyleType="text/css" height="1147px" preserveAspectRatio="none" style="width:704px;height:1147px;background:#FFFFFF55;" version="1.1" viewBox="0 0 704 1147" width="704px" zoomAndPan="magnify"><defs/><g><rect fill="#E0E0E0" fill-opacity="0.75294" height="1128.2546" rx="4" ry="4" style="stroke:none;stroke-width:0.5;" width="96" x="16" y="6"/><text fill="#000000" font-family="Lato,sans-serif" font-size="12" font-weight="bold" lengthAdjust="spacing" textLength="48" x="40" y="17.8441">Network</text><rect fill="#E0E0E0" fill-opacity="0.75294" height="1128.2546" rx="4" ry="4" style="stroke:none;stroke-width:0.5;" width="353" x="169" y="6"/><text fill="#000000" font-family="Lato,sans-serif" font-size="12" font-weight="bold" lengthAdjust="spacing" textLength="36" x="327.5" y="17.8441">Device</text><rect fill="#FFFFFF" height="208.8007" style="stroke:#808080;stroke-width:1.0;" width="10" x="59" y="634.4529"/><rect fill="#FFFFFF" height="1067.4544" style="stroke:#808080;stroke-width:1.0;" width="10" x="210" y="63.8002"/><rect fill="#DDDDDD" height="31.4001" style="stroke:#808080;stroke-width:1.0;" width="10" x="467" y="119.6004"/><rect fill="#DDDDDD" height="28.4001" style="stroke:#808080;stroke-width:1.0;" width="10" x="467" y="211.8007"/><rect fill="#DDDDDD" height="28.4001" style="stroke:#808080;stroke-width:1.0;" width="10" x="467" y="268.6009"/><rect fill="#DDDDDD" height="31.4001" style="stroke:#808080;stroke-width:1.0;" width="10" x="467" y="360.8012"/><rect fill="#DDDDDD" height="117.6512" style="stroke:#808080;stroke-width:1.0;" width="10" x="467" y="456.0015"/><rect fill="#DDDDDD" height="31.4001" style="stroke:#808080;stroke-width:1.0;" width="10" x="467" y="665.853"/><rect fill="#DDDDDD" height="28.4001" style="stroke:#808080;stroke-width:1.0;" width="10" x="467" y="786.4534"/><rect fill="#DDDDDD" height="28.4001" style="stroke:#808080;stroke-width:1.0;" width="10" x="467" y="871.6537"/><rect fill="#DDDDDD" height="28.4001" style="stroke:#808080;stroke-width:1.0;" width="10" x="467" y="928.4539"/><rect fill="#DDDDDD" height="101.6004" style="stroke:#808080;stroke-width:1.0;" width="10" x="467" y="988.2541"/><rect fill="#ADD8E6" height="55.8002" style="stroke:#808080;stroke-width:1.0;" width="10" x="564" y="63.8002"/><rect fill="#98FB98" height="117.6004" style="stroke:#808080;stroke-width:1.0;" width="10" x="564" y="151.0005"/><rect fill="#FFA07A" height="63.8002" style="stroke:#808080;stroke-width:1.0;" width="10" x="564" y="297.001"/><rect fill="#EEE8AA" height="596.0528" style="stroke:#808080;stroke-width:1.0;" width="10" x="564" y="392.2013"/><rect fill="#AAAADD" height="41.4001" style="stroke:#808080;stroke-width:1.0;" width="10" x="564" y="1089.8545"/><rect fill="#ADD8E6" height="92.2003" style="stroke:#808080;stroke-width:1.0;" width="10" x="652.5" y="573.6527"/><rect fill="#98FB98" height="231.2008" style="stroke:#808080;stroke-width:1.0;" width="10" x="652.5" y="697.2531"/><rect fill="#FFFFFF" fill-opacity="0.50196" height="476.4524" rx="4" ry="4" style="stroke:#808080;stroke-width:1.0;" width="688" x="10" y="522.8017"/><line style="stroke:#808080;stroke-width:0.5;stroke-dasharray:5.0,5.0;" x1="64" x2="64" y1="53.8002" y2="1140.2546"/><line style="stroke:#808080;stroke-width:0.5;stroke-dasharray:5.0,5.0;" x1="215" x2="215" y1="53.8002" y2="1140.2546"/><line style="stroke:#808080;stroke-width:0.5;stroke-dasharray:5.0,5.0;" x1="330" x2="330" y1="53.8002" y2="1140.2546"/><line style="stroke:#808080;stroke-width:0.5;stroke-dasharray:5.0,5.0;" x1="472" x2="472" y1="53.8002" y2="1140.2546"/><line style="stroke:#808080;stroke-width:0.5;stroke-dasharray:5.0,5.0;" x1="569" x2="569" y1="53.8002" y2="1140.2546"/><line style="stroke:#808080;stroke-width:0.5;stroke-dasharray:5.0,5.0;" x1="657" x2="657" y1="53.8002" y2="1140.2546"/><rect fill="#FFFFFF" height="28.4001" rx="4" ry="4" style="stroke:#000000;stroke-width:1.0;" width="88" x="20" y="24.4001"/><text fill="#000000" font-family="Lato,sans-serif" font-size="12" lengthAdjust="spacing" textLength="74" x="27" y="43.2442">Update server</text><rect fill="#FFFFFF" height="28.4001" rx="4" ry="4" style="stroke:#000000;stroke-width:1.0;" width="84" x="173" y="24.4001"/><text fill="#000000" font-family="Lato,sans-serif" font-size="12" lengthAdjust="spacing" textLength="70" x="180" y="43.2442">Update client</text><rect fill="#FFFFFF" height="28.4001" rx="4" ry="4" style="stroke:#000000;stroke-width:1.0;" width="127" x="267" y="24.4001"/><text fill="#000000" font-family="Lato,sans-serif" font-size="12" lengthAdjust="spacing" textLength="113" x="274" y="43.2442">Firmware Update API</text><rect fill="#FFFFFF" height="28.4001" rx="4" ry="4" style="stroke:#000000;stroke-width:1.0;" width="92" x="426" y="24.4001"/><text fill="#000000" font-family="Lato,sans-serif" font-size="12" lengthAdjust="spacing" textLength="78" x="433" y="43.2442">Update service</text><text fill="#000000" font-family="Lato,sans-serif" font-size="12" lengthAdjust="spacing" textLength="76" x="528" y="51.2442">Envelope state</text><ellipse cx="569" cy="23.4001" fill="#FFFFFF" rx="12" ry="12" style="stroke:#000000;stroke-width:1.0;"/><line style="stroke:#000000;stroke-width:1.0;" x1="557" x2="581" y1="37.4001" y2="37.4001"/><text fill="#000000" font-family="Lato,sans-serif" font-size="12" lengthAdjust="spacing" textLength="69" x="620" y="51.2442">Payload state</text><ellipse cx="657.5" cy="23.4001" fill="#FFFFFF" rx="12" ry="12" style="stroke:#000000;stroke-width:1.0;"/><line style="stroke:#000000;stroke-width:1.0;" x1="645.5" x2="669.5" y1="37.4001" y2="37.4001"/><rect fill="#FFFFFF" height="208.8007" style="stroke:#808080;stroke-width:1.0;" width="10" x="59" y="634.4529"/><rect fill="#FFFFFF" height="1067.4544" style="stroke:#808080;stroke-width:1.0;" width="10" x="210" y="63.8002"/><rect fill="#DDDDDD" height="31.4001" style="stroke:#808080;stroke-width:1.0;" width="10" x="467" y="119.6004"/><rect fill="#DDDDDD" height="28.4001" style="stroke:#808080;stroke-width:1.0;" width="10" x="467" y="211.8007"/><rect fill="#DDDDDD" height="28.4001" style="stroke:#808080;stroke-width:1.0;" width="10" x="467" y="268.6009"/><rect fill="#DDDDDD" height="31.4001" style="stroke:#808080;stroke-width:1.0;" width="10" x="467" y="360.8012"/><rect fill="#DDDDDD" height="117.6512" style="stroke:#808080;stroke-width:1.0;" width="10" x="467" y="456.0015"/><rect fill="#DDDDDD" height="31.4001" style="stroke:#808080;stroke-width:1.0;" width="10" x="467" y="665.853"/><rect fill="#DDDDDD" height="28.4001" style="stroke:#808080;stroke-width:1.0;" width="10" x="467" y="786.4534"/><rect fill="#DDDDDD" height="28.4001" style="stroke:#808080;stroke-width:1.0;" width="10" x="467" y="871.6537"/><rect fill="#DDDDDD" height="28.4001" style="stroke:#808080;stroke-width:1.0;" width="10" x="467" y="928.4539"/><rect fill="#DDDDDD" height="101.6004" style="stroke:#808080;stroke-width:1.0;" width="10" x="467" y="988.2541"/><rect fill="#ADD8E6" height="55.8002" style="stroke:#808080;stroke-width:1.0;" width="10" x="564" y="63.8002"/><rect fill="#98FB98" height="117.6004" style="stroke:#808080;stroke-width:1.0;" width="10" x="564" y="151.0005"/><rect fill="#FFA07A" height="63.8002" style="stroke:#808080;stroke-width:1.0;" width="10" x="564" y="297.001"/><rect fill="#EEE8AA" height="596.0528" style="stroke:#808080;stroke-width:1.0;" width="10" x="564" y="392.2013"/><rect fill="#AAAADD" height="41.4001" style="stroke:#808080;stroke-width:1.0;" width="10" x="564" y="1089.8545"/><rect fill="#ADD8E6" height="92.2003" style="stroke:#808080;stroke-width:1.0;" width="10" x="652.5" y="573.6527"/><rect fill="#98FB98" height="231.2008" style="stroke:#808080;stroke-width:1.0;" width="10" x="652.5" y="697.2531"/><rect fill="#ADD8E6" height="22" rx="4" ry="4" style="stroke:#181818;stroke-width:1.0;" width="48" x="545" y="68.8002"/><text fill="#000000" font-family="Lato,sans-serif" font-size="12" lengthAdjust="spacing" textLength="40" x="549" y="84.6443">READY</text><polygon fill="#000000" points="455,115.6004,465,119.6004,455,123.6004" style="stroke:#000000;stroke-width:1.0;"/><line style="stroke:#000000;stroke-width:1.0;" x1="220" x2="461" y1="119.6004" y2="119.6004"/><text fill="#000000" font-family="Lato,sans-serif" font-size="12" font-weight="bold" lengthAdjust="spacing" textLength="7" x="227" y="115.0444">1</text><text fill="#000000" font-family="Consolas,Menlo,monospace" font-size="12" lengthAdjust="spacing" textLength="182" x="238" y="114.3379">psa_fwu_start(envelope_id)</text><path d="M60,105.2003 L60,121.2003 A4,4 0 0 0 64,125.2003 L201,125.2003 A4,4 0 0 0 205,121.2003 L205,111.2003 L195,101.2003 L64,101.2003 A4,4 0 0 0 60,105.2003 " fill="#E8E8E8" style="stroke:#181818;stroke-width:1.0;"/><path d="M195,101.2003 L195,109.2003 A2,2 0 0 0 197,111.2003 L205,111.2003 L195,101.2003 " fill="#E8E8E8" style="stroke:#181818;stroke-width:1.0;"/><text fill="#000000" font-family="Lato,sans-serif" font-size="12" lengthAdjust="spacing" textLength="124" x="66" y="118.0444">Transfer SUIT Envelope</text><polygon fill="#000000" points="231,147.0005,221,151.0005,231,155.0005" style="stroke:#000000;stroke-width:1.0;"/><line style="stroke:#000000;stroke-width:1.0;stroke-dasharray:2.0,2.0;" x1="225" x2="471" y1="151.0005" y2="151.0005"/><text fill="#000000" font-family="Lato,sans-serif" font-size="12" font-weight="bold" lengthAdjust="spacing" textLength="7" x="237" y="146.4445">2</text><text fill="#000000" font-family="Consolas,Menlo,monospace" font-size="12" lengthAdjust="spacing" textLength="77" x="248" y="145.738">PSA_SUCCESS</text><rect fill="#98FB98" height="22" rx="4" ry="4" style="stroke:#181818;stroke-width:1.0;" width="61" x="538" y="164.0005"/><text fill="#000000" font-family="Lato,sans-serif" font-size="12" lengthAdjust="spacing" textLength="53" x="542" y="179.8446">WRITING</text><polygon fill="#000000" points="455,207.8007,465,211.8007,455,215.8007" style="stroke:#000000;stroke-width:1.0;"/><line style="stroke:#000000;stroke-width:1.0;" x1="220" x2="461" y1="211.8007" y2="211.8007"/><text fill="#000000" font-family="Lato,sans-serif" font-size="12" font-weight="bold" lengthAdjust="spacing" textLength="7" x="227" y="207.2447">3</text><text fill="#000000" font-family="Consolas,Menlo,monospace" font-size="12" lengthAdjust="spacing" textLength="217" x="238" y="206.5382">psa_fwu_write(envelope_id, ...)</text><polygon fill="#000000" points="231,236.2008,221,240.2008,231,244.2008" style="stroke:#000000;stroke-width:1.0;"/><line style="stroke:#000000;stroke-width:1.0;stroke-dasharray:2.0,2.0;" x1="225" x2="471" y1="240.2008" y2="240.2008"/><text fill="#000000" font-family="Lato,sans-serif" font-size="12" font-weight="bold" lengthAdjust="spacing" textLength="7" x="237" y="235.6448">4</text><text fill="#000000" font-family="Consolas,Menlo,monospace" font-size="12" lengthAdjust="spacing" textLength="77" x="248" y="234.9383">PSA_SUCCESS</text><polygon fill="#000000" points="455,264.6009,465,268.6009,455,272.6009" style="stroke:#000000;stroke-width:1.0;"/><line style="stroke:#000000;stroke-width:1.0;" x1="220" x2="461" y1="268.6009" y2="268.6009"/><text fill="#000000" font-family="Lato,sans-serif" font-size="12" font-weight="bold" lengthAdjust="spacing" textLength="7" x="227" y="264.0449">5</text><text fill="#000000" font-family="Consolas,Menlo,monospace" font-size="12" lengthAdjust="spacing" textLength="189" x="238" y="263.3384">psa_fwu_finish(envelope_id)</text><polygon fill="#000000" points="231,293.001,221,297.001,231,301.001" style="stroke:#000000;stroke-width:1.0;"/><line style="stroke:#000000;stroke-width:1.0;stroke-dasharray:2.0,2.0;" x1="225" x2="471" y1="297.001" y2="297.001"/><text fill="#000000" font-family="Lato,sans-serif" font-size="12" font-weight="bold" lengthAdjust="spacing" textLength="7" x="237" y="292.445">6</text><text fill="#000000" font-family="Consolas,Menlo,monospace" font-size="12" lengthAdjust="spacing" textLength="70" x="248" y="291.7385">PSA_SUCESS</text><rect fill="#FFA07A" height="22" rx="4" ry="4" style="stroke:#181818;stroke-width:1.0;" width="77" x="530" y="310.001"/><text fill="#000000" font-family="Lato,sans-serif" font-size="12" lengthAdjust="spacing" textLength="69" x="534" y="325.8451">CANDIDATE</text><polygon fill="#000000" points="455,356.8012,465,360.8012,455,364.8012" style="stroke:#000000;stroke-width:1.0;"/><line style="stroke:#000000;stroke-width:1.0;" x1="220" x2="461" y1="360.8012" y2="360.8012"/><text fill="#000000" font-family="Lato,sans-serif" font-size="12" font-weight="bold" lengthAdjust="spacing" textLength="7" x="227" y="356.2452">7</text><text fill="#000000" font-family="Consolas,Menlo,monospace" font-size="12" lengthAdjust="spacing" textLength="119" x="238" y="355.5387">psa_fwu_install()</text><path d="M55,346.4011 L55,362.4011 A4,4 0 0 0 59,366.4011 L201,366.4011 A4,4 0 0 0 205,362.4011 L205,352.4011 L195,342.4011 L59,342.4011 A4,4 0 0 0 55,346.4011 " fill="#E8E8E8" style="stroke:#181818;stroke-width:1.0;"/><path d="M195,342.4011 L195,350.4011 A2,2 0 0 0 197,352.4011 L205,352.4011 L195,342.4011 " fill="#E8E8E8" style="stroke:#181818;stroke-width:1.0;"/><text fill="#000000" font-family="Lato,sans-serif" font-size="12" lengthAdjust="spacing" textLength="129" x="61" y="359.2452">Proceed with installation</text><polygon fill="#000000" points="231,388.2013,221,392.2013,231,396.2013" style="stroke:#000000;stroke-width:1.0;"/><line style="stroke:#000000;stroke-width:1.0;stroke-dasharray:2.0,2.0;" x1="225" x2="471" y1="392.2013" y2="392.2013"/><text fill="#000000" font-family="Lato,sans-serif" font-size="12" font-weight="bold" lengthAdjust="spacing" textLength="7" x="237" y="387.6453">8</text><text fill="#000000" font-family="Consolas,Menlo,monospace" font-size="12" lengthAdjust="spacing" textLength="189" x="248" y="386.9388">PSA_FWU_PROCESSING_REQUIRED</text><rect fill="#EEE8AA" height="22" rx="4" ry="4" style="stroke:#181818;stroke-width:1.0;" width="82" x="528" y="405.2013"/><text fill="#000000" font-family="Lato,sans-serif" font-size="12" lengthAdjust="spacing" textLength="74" x="532" y="421.0454">PROCESSING</text><polygon fill="#000000" points="455,452.0015,465,456.0015,455,460.0015" style="stroke:#000000;stroke-width:1.0;"/><line style="stroke:#000000;stroke-width:1.0;" x1="220" x2="461" y1="456.0015" y2="456.0015"/><text fill="#000000" font-family="Lato,sans-serif" font-size="12" font-weight="bold" lengthAdjust="spacing" textLength="7" x="227" y="451.4455">9</text><text fill="#000000" font-family="Consolas,Menlo,monospace" font-size="12" lengthAdjust="spacing" textLength="119" x="238" y="450.739">psa_fwu_process()</text><path d="M55,441.6014 L55,457.6014 A4,4 0 0 0 59,461.6014 L201,461.6014 A4,4 0 0 0 205,457.6014 L205,447.6014 L195,437.6014 L59,437.6014 A4,4 0 0 0 55,441.6014 " fill="#E8E8E8" style="stroke:#181818;stroke-width:1.0;"/><path d="M195,437.6014 L195,445.6014 A2,2 0 0 0 197,447.6014 L205,447.6014 L195,437.6014 " fill="#E8E8E8" style="stroke:#181818;stroke-width:1.0;"/><text fill="#000000" font-family="Lato,sans-serif" font-size="12" lengthAdjust="spacing" textLength="129" x="61" y="454.4455">Process SUIT commands</text><path d="M370,476.0015 L370,506.0015 A4,4 0 0 0 374,510.0015 L570,510.0015 A4,4 0 0 0 574,506.0015 L574,482.0015 L564,472.0015 L374,472.0015 A4,4 0 0 0 370,476.0015 " fill="#E8E8E8" style="stroke:#181818;stroke-width:1.0;"/><path d="M564,472.0015 L564,480.0015 A2,2 0 0 0 566,482.0015 L574,482.0015 L564,472.0015 " fill="#E8E8E8" style="stroke:#181818;stroke-width:1.0;"/><text fill="#000000" font-family="Consolas,Menlo,monospace" font-size="12" lengthAdjust="spacing" textLength="126" x="376" y="488.3137">suit-payload-fetch</text><text fill="#000000" font-family="Lato,sans-serif" font-size="12" lengthAdjust="spacing" textLength="50" x="509" y="488.8456">sequence</text><text fill="#000000" font-family="Consolas,Menlo,monospace" font-size="12" lengthAdjust="spacing" textLength="84" x="376" y="502.7138">suit-install</text><text fill="#000000" font-family="Lato,sans-serif" font-size="12" lengthAdjust="spacing" textLength="50" x="467" y="503.2457">sequence</text><path d="M14,522.8017 L79,522.8017 L79,529.2018 L69,539.2018 L10,539.2018 L10,526.8017 A4,4 0 0 1 14,522.8017 " fill="#F0F0F0" style="stroke:#808080;stroke-width:1.5;"/><rect fill="none" height="476.4524" rx="4" ry="4" style="stroke:#808080;stroke-width:1.0;" width="688" x="10" y="522.8017"/><text fill="#000000" font-family="Lato,sans-serif" font-size="12" lengthAdjust="spacing" textLength="24" x="25" y="535.6458">loop</text><text fill="#000000" font-family="Lato,sans-serif" font-size="11" font-weight="bold" lengthAdjust="spacing" textLength="197" x="94" y="535.6589">[While additional payloads are required]</text><polygon fill="#000000" points="231,569.6527,221,573.6527,231,577.6527" style="stroke:#000000;stroke-width:1.0;"/><line style="stroke:#000000;stroke-width:1.0;stroke-dasharray:2.0,2.0;" x1="225" x2="471" y1="573.6527" y2="573.6527"/><text fill="#000000" font-family="Lato,sans-serif" font-size="12" font-weight="bold" lengthAdjust="spacing" textLength="14" x="237" y="562.0713">10</text><text fill="#000000" font-family="Consolas,Menlo,monospace" font-size="12" lengthAdjust="spacing" textLength="168" x="255" y="554.1647">PSA_FWU_PAYLOAD_REQUIRED</text><text fill="#000000" font-family="Lato,sans-serif" font-size="12" lengthAdjust="spacing" textLength="116" x="259" y="569.0967">+ payload information</text><rect fill="#ADD8E6" height="22" rx="4" ry="4" style="stroke:#181818;stroke-width:1.0;" width="48" x="633" y="586.6527"/><text fill="#000000" font-family="Lato,sans-serif" font-size="12" lengthAdjust="spacing" textLength="40" x="637" y="602.4968">READY</text><line style="stroke:#000000;stroke-width:1.0;" x1="70" x2="80" y1="634.4529" y2="630.4529"/><line style="stroke:#000000;stroke-width:1.0;" x1="70" x2="80" y1="634.4529" y2="638.4529"/><line style="stroke:#000000;stroke-width:1.0;" x1="69" x2="209" y1="634.4529" y2="634.4529"/><text fill="#000000" font-family="Lato,sans-serif" font-size="12" font-weight="bold" lengthAdjust="spacing" textLength="14" x="86" y="629.8969">11</text><text fill="#000000" font-family="Lato,sans-serif" font-size="12" lengthAdjust="spacing" textLength="74" x="104" y="629.8969">Fetch payload</text><polygon fill="#000000" points="455,661.853,465,665.853,455,669.853" style="stroke:#000000;stroke-width:1.0;"/><line style="stroke:#000000;stroke-width:1.0;" x1="220" x2="461" y1="665.853" y2="665.853"/><text fill="#000000" font-family="Lato,sans-serif" font-size="12" font-weight="bold" lengthAdjust="spacing" textLength="14" x="227" y="661.297">12</text><text fill="#000000" font-family="Consolas,Menlo,monospace" font-size="12" lengthAdjust="spacing" textLength="175" x="245" y="660.5904">psa_fwu_start(payload_id)</text><path d="M95,651.4529 L95,667.4529 A4,4 0 0 0 99,671.4529 L201,671.4529 A4,4 0 0 0 205,667.4529 L205,657.4529 L195,647.4529 L99,647.4529 A4,4 0 0 0 95,651.4529 " fill="#E8E8E8" style="stroke:#181818;stroke-width:1.0;"/><path d="M195,647.4529 L195,655.4529 A2,2 0 0 0 197,657.4529 L205,657.4529 L195,647.4529 " fill="#E8E8E8" style="stroke:#181818;stroke-width:1.0;"/><text fill="#000000" font-family="Lato,sans-serif" font-size="12" lengthAdjust="spacing" textLength="89" x="101" y="664.297">Transfer payload</text><polygon fill="#000000" points="231,693.2531,221,697.2531,231,701.2531" style="stroke:#000000;stroke-width:1.0;"/><line style="stroke:#000000;stroke-width:1.0;stroke-dasharray:2.0,2.0;" x1="225" x2="471" y1="697.2531" y2="697.2531"/><text fill="#000000" font-family="Lato,sans-serif" font-size="12" font-weight="bold" lengthAdjust="spacing" textLength="14" x="237" y="692.6971">13</text><text fill="#000000" font-family="Consolas,Menlo,monospace" font-size="12" lengthAdjust="spacing" textLength="77" x="255" y="691.9905">PSA_SUCCESS</text><rect fill="#98FB98" height="22" rx="4" ry="4" style="stroke:#181818;stroke-width:1.0;" width="61" x="627" y="710.2531"/><text fill="#000000" font-family="Lato,sans-serif" font-size="12" lengthAdjust="spacing" textLength="53" x="631" y="726.0972">WRITING</text><line style="stroke:#000000;stroke-width:1.0;" x1="208" x2="198" y1="758.0533" y2="754.0533"/><line style="stroke:#000000;stroke-width:1.0;" x1="208" x2="198" y1="758.0533" y2="762.0533"/><line style="stroke:#000000;stroke-width:1.0;stroke-dasharray:2.0,2.0;" x1="69" x2="209" y1="758.0533" y2="758.0533"/><text fill="#000000" font-family="Lato,sans-serif" font-size="12" font-weight="bold" lengthAdjust="spacing" textLength="14" x="76" y="753.4973">14</text><text fill="#000000" font-family="Lato,sans-serif" font-size="12" lengthAdjust="spacing" textLength="99" x="94" y="753.4973">Download payload</text><polygon fill="#000000" points="455,782.4534,465,786.4534,455,790.4534" style="stroke:#000000;stroke-width:1.0;"/><line style="stroke:#000000;stroke-width:1.0;" x1="220" x2="461" y1="786.4534" y2="786.4534"/><text fill="#000000" font-family="Lato,sans-serif" font-size="12" font-weight="bold" lengthAdjust="spacing" textLength="14" x="227" y="781.8974">15</text><text fill="#000000" font-family="Consolas,Menlo,monospace" font-size="12" lengthAdjust="spacing" textLength="210" x="245" y="781.1908">psa_fwu_write(payload_id, ...)</text><polygon fill="#000000" points="231,810.8535,221,814.8535,231,818.8535" style="stroke:#000000;stroke-width:1.0;"/><line style="stroke:#000000;stroke-width:1.0;stroke-dasharray:2.0,2.0;" x1="225" x2="471" y1="814.8535" y2="814.8535"/><text fill="#000000" font-family="Lato,sans-serif" font-size="12" font-weight="bold" lengthAdjust="spacing" textLength="14" x="237" y="810.2975">16</text><text fill="#000000" font-family="Consolas,Menlo,monospace" font-size="12" lengthAdjust="spacing" textLength="77" x="255" y="809.591">PSA_SUCCESS</text><line style="stroke:#000000;stroke-width:1.0;" x1="208" x2="198" y1="843.2536" y2="839.2536"/><line style="stroke:#000000;stroke-width:1.0;" x1="208" x2="198" y1="843.2536" y2="847.2536"/><line style="stroke:#000000;stroke-width:1.0;stroke-dasharray:2.0,2.0;" x1="64" x2="209" y1="843.2536" y2="843.2536"/><text fill="#000000" font-family="Lato,sans-serif" font-size="12" font-weight="bold" lengthAdjust="spacing" textLength="14" x="71" y="838.6976">17</text><text fill="#000000" font-family="Lato,sans-serif" font-size="12" lengthAdjust="spacing" textLength="99" x="89" y="838.6976">Download payload</text><polygon fill="#000000" points="455,867.6537,465,871.6537,455,875.6537" style="stroke:#000000;stroke-width:1.0;"/><line style="stroke:#000000;stroke-width:1.0;" x1="220" x2="461" y1="871.6537" y2="871.6537"/><text fill="#000000" font-family="Lato,sans-serif" font-size="12" font-weight="bold" lengthAdjust="spacing" textLength="14" x="227" y="867.0977">18</text><text fill="#000000" font-family="Consolas,Menlo,monospace" font-size="12" lengthAdjust="spacing" textLength="210" x="245" y="866.3912">psa_fwu_write(payload_id, ...)</text><polygon fill="#000000" points="231,896.0538,221,900.0538,231,904.0538" style="stroke:#000000;stroke-width:1.0;"/><line style="stroke:#000000;stroke-width:1.0;stroke-dasharray:2.0,2.0;" x1="225" x2="471" y1="900.0538" y2="900.0538"/><text fill="#000000" font-family="Lato,sans-serif" font-size="12" font-weight="bold" lengthAdjust="spacing" textLength="14" x="237" y="895.4978">19</text><text fill="#000000" font-family="Consolas,Menlo,monospace" font-size="12" lengthAdjust="spacing" textLength="77" x="255" y="894.7913">PSA_SUCCESS</text><polygon fill="#000000" points="455,924.4539,465,928.4539,455,932.4539" style="stroke:#000000;stroke-width:1.0;"/><line style="stroke:#000000;stroke-width:1.0;" x1="220" x2="461" y1="928.4539" y2="928.4539"/><text fill="#000000" font-family="Lato,sans-serif" font-size="12" font-weight="bold" lengthAdjust="spacing" textLength="14" x="227" y="923.8979">20</text><text fill="#000000" font-family="Consolas,Menlo,monospace" font-size="12" lengthAdjust="spacing" textLength="182" x="245" y="923.1914">psa_fwu_finish(payload_id)</text><polygon fill="#000000" points="231,952.854,221,956.854,231,960.854" style="stroke:#000000;stroke-width:1.0;"/><line style="stroke:#000000;stroke-width:1.0;stroke-dasharray:2.0,2.0;" x1="225" x2="471" y1="956.854" y2="956.854"/><text fill="#000000" font-family="Lato,sans-serif" font-size="12" font-weight="bold" lengthAdjust="spacing" textLength="14" x="237" y="952.298">21</text><text fill="#000000" font-family="Consolas,Menlo,monospace" font-size="12" lengthAdjust="spacing" textLength="77" x="255" y="951.5915">PSA_SUCCESS</text><polygon fill="#000000" points="455,984.2541,465,988.2541,455,992.2541" style="stroke:#000000;stroke-width:1.0;"/><line style="stroke:#000000;stroke-width:1.0;" x1="220" x2="461" y1="988.2541" y2="988.2541"/><text fill="#000000" font-family="Lato,sans-serif" font-size="12" font-weight="bold" lengthAdjust="spacing" textLength="14" x="227" y="983.6981">22</text><text fill="#000000" font-family="Consolas,Menlo,monospace" font-size="12" lengthAdjust="spacing" textLength="119" x="245" y="982.9916">psa_fwu_process()</text><path d="M55,973.854 L55,989.854 A4,4 0 0 0 59,993.854 L201,993.854 A4,4 0 0 0 205,989.854 L205,979.854 L195,969.854 L59,969.854 A4,4 0 0 0 55,973.854 " fill="#E8E8E8" style="stroke:#181818;stroke-width:1.0;"/><path d="M195,969.854 L195,977.854 A2,2 0 0 0 197,979.854 L205,979.854 L195,969.854 " fill="#E8E8E8" style="stroke:#181818;stroke-width:1.0;"/><text fill="#000000" font-family="Lato,sans-serif" font-size="12" lengthAdjust="spacing" textLength="129" x="61" y="986.6981">Resume SUIT processing</text><path d="M387,1015.2541 L387,1060.2541 A4,4 0 0 0 391,1064.2541 L552,1064.2541 A4,4 0 0 0 556,1060.2541 L556,1021.2541 L546,1011.2541 L391,1011.2541 A4,4 0 0 0 387,1015.2541 " fill="#E8E8E8" style="stroke:#181818;stroke-width:1.0;"/><path d="M546,1011.2541 L546,1019.2541 A2,2 0 0 0 548,1021.2541 L556,1021.2541 L546,1011.2541 " fill="#E8E8E8" style="stroke:#181818;stroke-width:1.0;"/><text fill="#000000" font-family="Consolas,Menlo,monospace" font-size="12" lengthAdjust="spacing" textLength="91" x="393" y="1027.5663">suit-validate</text><text fill="#000000" font-family="Lato,sans-serif" font-size="12" lengthAdjust="spacing" textLength="50" x="491" y="1028.0982">sequence</text><text fill="#000000" font-family="Consolas,Menlo,monospace" font-size="12" lengthAdjust="spacing" textLength="63" x="393" y="1041.9664">suit-load</text><text fill="#000000" font-family="Lato,sans-serif" font-size="12" lengthAdjust="spacing" textLength="50" x="463" y="1042.4983">sequence</text><text fill="#000000" font-family="Consolas,Menlo,monospace" font-size="12" lengthAdjust="spacing" textLength="77" x="393" y="1056.3665">suit-invoke</text><text fill="#000000" font-family="Lato,sans-serif" font-size="12" lengthAdjust="spacing" textLength="50" x="477" y="1056.8984">sequence</text><polygon fill="#000000" points="231,1085.8545,221,1089.8545,231,1093.8545" style="stroke:#000000;stroke-width:1.0;"/><line style="stroke:#000000;stroke-width:1.0;stroke-dasharray:2.0,2.0;" x1="225" x2="471" y1="1089.8545" y2="1089.8545"/><text fill="#000000" font-family="Lato,sans-serif" font-size="12" font-weight="bold" lengthAdjust="spacing" textLength="14" x="237" y="1085.2985">23</text><text fill="#000000" font-family="Consolas,Menlo,monospace" font-size="12" lengthAdjust="spacing" textLength="77" x="255" y="1084.592">PSA_SUCCESS</text><rect fill="#AAAADD" height="22" rx="4" ry="4" style="stroke:#181818;stroke-width:1.0;" width="64" x="537" y="1102.8545"/><text fill="#000000" font-family="Lato,sans-serif" font-size="12" lengthAdjust="spacing" textLength="56" x="541" y="1118.6986">UPDATED</text></g></svg>