<?xml version="1.0" encoding="UTF-8" standalone="no"?><svg xmlns="http://www.w3.org/2000/svg" xmlns:xlink="http://www.w3.org/1999/xlink" contentStyleType="text/css" height="1041px" preserveAspectRatio="none" style="width:593px;height:1041px;background:#FFFFFF55;" version="1.1" viewBox="0 0 593 1041" width="593px" zoomAndPan="magnify"><defs/><g><rect fill="#E0E0E0" fill-opacity="0.75294" height="1022.5583" rx="4" ry="4" style="stroke:none;stroke-width:0.5;" width="96" x="48" y="6"/><text fill="#000000" font-family="Lato,sans-serif" font-size="12" font-weight="bold" lengthAdjust="spacing" textLength="48" x="72" y="17.8441">Network</text><rect fill="#E0E0E0" fill-opacity="0.75294" height="1022.5583" rx="4" ry="4" style="stroke:none;stroke-width:0.5;" width="356" x="146" y="6"/><text fill="#000000" font-family="Lato,sans-serif" font-size="12" font-weight="bold" lengthAdjust="spacing" textLength="36" x="306" y="17.8441">Device</text><rect fill="#FFFFFF" height="961.7581" style="stroke:#808080;stroke-width:1.0;" width="10" x="187" y="63.8002"/><rect fill="#DDDDDD" height="31.4001" style="stroke:#808080;stroke-width:1.0;" width="10" x="447" y="119.6004"/><rect fill="#DDDDDD" height="28.4001" style="stroke:#808080;stroke-width:1.0;" width="10" x="447" y="211.8007"/><rect fill="#DDDDDD" height="28.4001" style="stroke:#808080;stroke-width:1.0;" width="10" x="447" y="268.6009"/><rect fill="#DDDDDD" height="100.9018" style="stroke:#808080;stroke-width:1.0;" width="10" x="447" y="360.8012"/><rect fill="#DDDDDD" height="38.4001" style="stroke:#808080;stroke-width:1.0;" width="10" x="447" y="524.5032"/><rect fill="#DDDDDD" height="31.4001" style="stroke:#808080;stroke-width:1.0;" width="10" x="447" y="629.7035"/><rect fill="#DDDDDD" height="100.9018" style="stroke:#808080;stroke-width:1.0;" width="10" x="447" y="724.9038"/><rect fill="#DDDDDD" height="95.5524" style="stroke:#808080;stroke-width:1.0;" width="10" x="447" y="888.6057"/><rect fill="#ADD8E6" height="55.8002" style="stroke:#808080;stroke-width:1.0;" width="10" x="544" y="63.8002"/><rect fill="#98FB98" height="117.6004" style="stroke:#808080;stroke-width:1.0;" width="10" x="544" y="151.0005"/><rect fill="#EEE8AA" height="227.5022" style="stroke:#808080;stroke-width:1.0;" width="10" x="544" y="297.001"/><rect fill="#FFA07A" height="66.8002" style="stroke:#808080;stroke-width:1.0;" width="10" x="544" y="562.9033"/><rect fill="#FFC0CB" height="227.5022" style="stroke:#808080;stroke-width:1.0;" width="10" x="544" y="661.1036"/><rect fill="#AAAADD" height="41.4001" style="stroke:#808080;stroke-width:1.0;" width="10" x="544" y="984.1582"/><rect fill="#FFFFFF" fill-opacity="0.50196" height="107.6004" rx="4" ry="4" style="stroke:#808080;stroke-width:1.0;" width="465" x="43" y="424.9028"/><rect fill="#FFFFFF" fill-opacity="0.50196" height="107.6004" rx="4" ry="4" style="stroke:#808080;stroke-width:1.0;" width="465" x="43" y="789.0053"/><line style="stroke:#808080;stroke-width:0.5;stroke-dasharray:5.0,5.0;" x1="96" x2="96" y1="53.8002" y2="1034.5583"/><line style="stroke:#808080;stroke-width:0.5;stroke-dasharray:5.0,5.0;" x1="192" x2="192" y1="53.8002" y2="1034.5583"/><line style="stroke:#808080;stroke-width:0.5;stroke-dasharray:5.0,5.0;" x1="307" x2="307" y1="53.8002" y2="1034.5583"/><line style="stroke:#808080;stroke-width:0.5;stroke-dasharray:5.0,5.0;" x1="452" x2="452" y1="53.8002" y2="1034.5583"/><line style="stroke:#808080;stroke-width:0.5;stroke-dasharray:5.0,5.0;" x1="549" x2="549" y1="53.8002" y2="1034.5583"/><rect fill="#FFFFFF" height="28.4001" rx="4" ry="4" style="stroke:#000000;stroke-width:1.0;" width="88" x="52" y="24.4001"/><text fill="#000000" font-family="Lato,sans-serif" font-size="12" lengthAdjust="spacing" textLength="74" x="59" y="43.2442">Update server</text><rect fill="#FFFFFF" height="28.4001" rx="4" ry="4" style="stroke:#000000;stroke-width:1.0;" width="84" x="150" y="24.4001"/><text fill="#000000" font-family="Lato,sans-serif" font-size="12" lengthAdjust="spacing" textLength="70" x="157" y="43.2442">Update client</text><rect fill="#FFFFFF" height="28.4001" rx="4" ry="4" style="stroke:#000000;stroke-width:1.0;" width="127" x="244" y="24.4001"/><text fill="#000000" font-family="Lato,sans-serif" font-size="12" lengthAdjust="spacing" textLength="113" x="251" y="43.2442">Firmware Update API</text><rect fill="#FFFFFF" height="28.4001" rx="4" ry="4" style="stroke:#000000;stroke-width:1.0;" width="92" x="406" y="24.4001"/><text fill="#000000" font-family="Lato,sans-serif" font-size="12" lengthAdjust="spacing" textLength="78" x="413" y="43.2442">Update service</text><text fill="#000000" font-family="Lato,sans-serif" font-size="12" lengthAdjust="spacing" textLength="76" x="508" y="51.2442">Envelope state</text><ellipse cx="549" cy="23.4001" fill="#FFFFFF" rx="12" ry="12" style="stroke:#000000;stroke-width:1.0;"/><line style="stroke:#000000;stroke-width:1.0;" x1="537" x2="561" y1="37.4001" y2="37.4001"/><rect fill="#FFFFFF" height="961.7581" style="stroke:#808080;stroke-width:1.0;" width="10" x="187" y="63.8002"/><rect fill="#DDDDDD" height="31.4001" style="stroke:#808080;stroke-width:1.0;" width="10" x="447" y="119.6004"/><rect fill="#DDDDDD" height="28.4001" style="stroke:#808080;stroke-width:1.0;" width="10" x="447" y="211.8007"/><rect fill="#DDDDDD" height="28.4001" style="stroke:#808080;stroke-width:1.0;" width="10" x="447" y="268.6009"/><rect fill="#DDDDDD" height="100.9018" style="stroke:#808080;stroke-width:1.0;" width="10" x="447" y="360.8012"/><rect fill="#DDDDDD" height="38.4001" style="stroke:#808080;stroke-width:1.0;" width="10" x="447" y="524.5032"/><rect fill="#DDDDDD" height="31.4001" style="stroke:#808080;stroke-width:1.0;" width="10" x="447" y="629.7035"/><rect fill="#DDDDDD" height="100.9018" style="stroke:#808080;stroke-width:1.0;" width="10" x="447" y="724.9038"/><rect fill="#DDDDDD" height="95.5524" style="stroke:#808080;stroke-width:1.0;" width="10" x="447" y="888.6057"/><rect fill="#ADD8E6" height="55.8002" style="stroke:#808080;stroke-width:1.0;" width="10" x="544" y="63.8002"/><rect fill="#98FB98" height="117.6004" style="stroke:#808080;stroke-width:1.0;" width="10" x="544" y="151.0005"/><rect fill="#EEE8AA" height="227.5022" style="stroke:#808080;stroke-width:1.0;" width="10" x="544" y="297.001"/><rect fill="#FFA07A" height="66.8002" style="stroke:#808080;stroke-width:1.0;" width="10" x="544" y="562.9033"/><rect fill="#FFC0CB" height="227.5022" style="stroke:#808080;stroke-width:1.0;" width="10" x="544" y="661.1036"/><rect fill="#AAAADD" height="41.4001" style="stroke:#808080;stroke-width:1.0;" width="10" x="544" y="984.1582"/><rect fill="#ADD8E6" height="22" rx="4" ry="4" style="stroke:#181818;stroke-width:1.0;" width="48" x="525" y="68.8002"/><text fill="#000000" font-family="Lato,sans-serif" font-size="12" lengthAdjust="spacing" textLength="40" x="529" y="84.6443">READY</text><polygon fill="#000000" points="435,115.6004,445,119.6004,435,123.6004" style="stroke:#000000;stroke-width:1.0;"/><line style="stroke:#000000;stroke-width:1.0;" x1="197" x2="441" y1="119.6004" y2="119.6004"/><text fill="#000000" font-family="Lato,sans-serif" font-size="12" font-weight="bold" lengthAdjust="spacing" textLength="10" x="204" y="115.0444">1:</text><text fill="#000000" font-family="Consolas,Menlo,monospace" font-size="12" lengthAdjust="spacing" textLength="182" x="218" y="114.3379">psa_fwu_start(envelope_id)</text><path d="M37,105.2003 L37,121.2003 A4,4 0 0 0 41,125.2003 L178,125.2003 A4,4 0 0 0 182,121.2003 L182,111.2003 L172,101.2003 L41,101.2003 A4,4 0 0 0 37,105.2003 " fill="#E8E8E8" style="stroke:#181818;stroke-width:1.0;"/><path d="M172,101.2003 L172,109.2003 A2,2 0 0 0 174,111.2003 L182,111.2003 L172,101.2003 " fill="#E8E8E8" style="stroke:#181818;stroke-width:1.0;"/><text fill="#000000" font-family="Lato,sans-serif" font-size="12" lengthAdjust="spacing" textLength="124" x="43" y="118.0444">Transfer SUIT Envelope</text><polygon fill="#000000" points="208,147.0005,198,151.0005,208,155.0005" style="stroke:#000000;stroke-width:1.0;"/><line style="stroke:#000000;stroke-width:1.0;stroke-dasharray:2.0,2.0;" x1="202" x2="451" y1="151.0005" y2="151.0005"/><text fill="#000000" font-family="Lato,sans-serif" font-size="12" font-weight="bold" lengthAdjust="spacing" textLength="10" x="214" y="146.4445">2:</text><text fill="#000000" font-family="Consolas,Menlo,monospace" font-size="12" lengthAdjust="spacing" textLength="77" x="228" y="145.738">PSA_SUCCESS</text><rect fill="#98FB98" height="22" rx="4" ry="4" style="stroke:#181818;stroke-width:1.0;" width="61" x="518" y="164.0005"/><text fill="#000000" font-family="Lato,sans-serif" font-size="12" lengthAdjust="spacing" textLength="53" x="522" y="179.8446">WRITING</text><polygon fill="#000000" points="435,207.8007,445,211.8007,435,215.8007" style="stroke:#000000;stroke-width:1.0;"/><line style="stroke:#000000;stroke-width:1.0;" x1="197" x2="441" y1="211.8007" y2="211.8007"/><text fill="#000000" font-family="Lato,sans-serif" font-size="12" font-weight="bold" lengthAdjust="spacing" textLength="10" x="204" y="207.2447">3:</text><text fill="#000000" font-family="Consolas,Menlo,monospace" font-size="12" lengthAdjust="spacing" textLength="217" x="218" y="206.5382">psa_fwu_write(envelope_id, ...)</text><polygon fill="#000000" points="208,236.2008,198,240.2008,208,244.2008" style="stroke:#000000;stroke-width:1.0;"/><line style="stroke:#000000;stroke-width:1.0;stroke-dasharray:2.0,2.0;" x1="202" x2="451" y1="240.2008" y2="240.2008"/><text fill="#000000" font-family="Lato,sans-serif" font-size="12" font-weight="bold" lengthAdjust="spacing" textLength="10" x="214" y="235.6448">4:</text><text fill="#000000" font-family="Consolas,Menlo,monospace" font-size="12" lengthAdjust="spacing" textLength="77" x="228" y="234.9383">PSA_SUCCESS</text><polygon fill="#000000" points="435,264.6009,445,268.6009,435,272.6009" style="stroke:#000000;stroke-width:1.0;"/><line style="stroke:#000000;stroke-width:1.0;" x1="197" x2="441" y1="268.6009" y2="268.6009"/><text fill="#000000" font-family="Lato,sans-serif" font-size="12" font-weight="bold" lengthAdjust="spacing" textLength="10" x="204" y="264.0449">5:</text><text fill="#000000" font-family="Consolas,Menlo,monospace" font-size="12" lengthAdjust="spacing" textLength="189" x="218" y="263.3384">psa_fwu_finish(envelope_id)</text><polygon fill="#000000" points="208,293.001,198,297.001,208,301.001" style="stroke:#000000;stroke-width:1.0;"/><line style="stroke:#000000;stroke-width:1.0;stroke-dasharray:2.0,2.0;" x1="202" x2="451" y1="297.001" y2="297.001"/><text fill="#000000" font-family="Lato,sans-serif" font-size="12" font-weight="bold" lengthAdjust="spacing" textLength="10" x="214" y="292.445">6:</text><text fill="#000000" font-family="Consolas,Menlo,monospace" font-size="12" lengthAdjust="spacing" textLength="189" x="228" y="291.7385">PSA_FWU_PROCESSING_REQUIRED</text><rect fill="#EEE8AA" height="22" rx="4" ry="4" style="stroke:#181818;stroke-width:1.0;" width="68" x="515" y="310.001"/><text fill="#000000" font-family="Lato,sans-serif" font-size="12" lengthAdjust="spacing" textLength="60" x="519" y="325.8451">FETCHING</text><polygon fill="#000000" points="435,356.8012,445,360.8012,435,364.8012" style="stroke:#000000;stroke-width:1.0;"/><line style="stroke:#000000;stroke-width:1.0;" x1="197" x2="441" y1="360.8012" y2="360.8012"/><text fill="#000000" font-family="Lato,sans-serif" font-size="12" font-weight="bold" lengthAdjust="spacing" textLength="10" x="204" y="356.2452">7:</text><text fill="#000000" font-family="Consolas,Menlo,monospace" font-size="12" lengthAdjust="spacing" textLength="119" x="218" y="355.5387">psa_fwu_process()</text><path d="M45,346.4011 L45,362.4011 A4,4 0 0 0 49,366.4011 L178,366.4011 A4,4 0 0 0 182,362.4011 L182,352.4011 L172,342.4011 L49,342.4011 A4,4 0 0 0 45,346.4011 " fill="#E8E8E8" style="stroke:#181818;stroke-width:1.0;"/><path d="M172,342.4011 L172,350.4011 A2,2 0 0 0 174,352.4011 L182,352.4011 L172,342.4011 " fill="#E8E8E8" style="stroke:#181818;stroke-width:1.0;"/><text fill="#000000" font-family="Lato,sans-serif" font-size="12" lengthAdjust="spacing" textLength="116" x="51" y="359.2452">Process SUIT manifest</text><polygon fill="#E8E8E8" points="362,376.8012,541,376.8012,551,394.8012,541,412.8012,362,412.8012,352,394.8012,362,376.8012" style="stroke:#181818;stroke-width:1.0;"/><text fill="#000000" font-family="Consolas,Menlo,monospace" font-size="12" lengthAdjust="spacing" textLength="175" x="364" y="391.7641">suit-resolve-dependencies</text><text fill="#000000" font-family="Consolas,Menlo,monospace" font-size="12" lengthAdjust="spacing" textLength="126" x="364" y="405.8149">suit-payload-fetch</text><path d="M47,424.9028 L112,424.9028 L112,431.3029 L102,441.3029 L43,441.3029 L43,428.9028 A4,4 0 0 1 47,424.9028 " fill="#F0F0F0" style="stroke:#808080;stroke-width:1.5;"/><rect fill="none" height="107.6004" rx="4" ry="4" style="stroke:#808080;stroke-width:1.0;" width="465" x="43" y="424.9028"/><text fill="#000000" font-family="Lato,sans-serif" font-size="12" lengthAdjust="spacing" textLength="24" x="58" y="437.7469">loop</text><text fill="#000000" font-family="Lato,sans-serif" font-size="11" font-weight="bold" lengthAdjust="spacing" textLength="197" x="127" y="437.7599">[While additional payloads are required]</text><polygon fill="#000000" points="208,457.703,198,461.703,208,465.703" style="stroke:#000000;stroke-width:1.0;"/><line style="stroke:#000000;stroke-width:1.0;stroke-dasharray:2.0,2.0;" x1="202" x2="451" y1="461.703" y2="461.703"/><text fill="#000000" font-family="Lato,sans-serif" font-size="12" font-weight="bold" lengthAdjust="spacing" textLength="10" x="214" y="457.147">8:</text><text fill="#000000" font-family="Consolas,Menlo,monospace" font-size="12" lengthAdjust="spacing" textLength="168" x="228" y="456.4404">PSA_FWU_PAYLOAD_REQUIRED</text><path d="M53,478.703 L53,494.703 A4,4 0 0 0 57,498.703 L490,498.703 A4,4 0 0 0 494,494.703 L494,484.703 L484,474.703 L57,474.703 A4,4 0 0 0 53,478.703 " fill="#E8E8E8" style="stroke:#181818;stroke-width:1.0;"/><path d="M484,474.703 L484,482.703 A2,2 0 0 0 486,484.703 L494,484.703 L484,474.703 " fill="#E8E8E8" style="stroke:#181818;stroke-width:1.0;"/><text fill="#000000" font-family="Lato,sans-serif" font-size="12" lengthAdjust="spacing" textLength="89" x="224.5" y="491.5471">Transfer payload</text><polygon fill="#000000" points="435,520.5032,445,524.5032,435,528.5032" style="stroke:#000000;stroke-width:1.0;"/><line style="stroke:#000000;stroke-width:1.0;" x1="197" x2="441" y1="524.5032" y2="524.5032"/><text fill="#000000" font-family="Lato,sans-serif" font-size="12" font-weight="bold" lengthAdjust="spacing" textLength="17" x="204" y="519.9472">22:</text><text fill="#000000" font-family="Consolas,Menlo,monospace" font-size="12" lengthAdjust="spacing" textLength="119" x="225" y="519.2406">psa_fwu_process()</text><polygon fill="#000000" points="208,558.9033,198,562.9033,208,566.9033" style="stroke:#000000;stroke-width:1.0;"/><line style="stroke:#000000;stroke-width:1.0;stroke-dasharray:2.0,2.0;" x1="202" x2="451" y1="562.9033" y2="562.9033"/><text fill="#000000" font-family="Lato,sans-serif" font-size="12" font-weight="bold" lengthAdjust="spacing" textLength="17" x="214" y="558.3473">23:</text><text fill="#000000" font-family="Consolas,Menlo,monospace" font-size="12" lengthAdjust="spacing" textLength="77" x="235" y="557.6407">PSA_SUCCESS</text><path d="M5,548.5032 L5,564.5032 A4,4 0 0 0 9,568.5032 L178,568.5032 A4,4 0 0 0 182,564.5032 L182,554.5032 L172,544.5032 L9,544.5032 A4,4 0 0 0 5,548.5032 " fill="#E8E8E8" style="stroke:#181818;stroke-width:1.0;"/><path d="M172,544.5032 L172,552.5032 A2,2 0 0 0 174,554.5032 L182,554.5032 L172,544.5032 " fill="#E8E8E8" style="stroke:#181818;stroke-width:1.0;"/><text fill="#000000" font-family="Lato,sans-serif" font-size="12" lengthAdjust="spacing" textLength="156" x="11" y="561.3473">Manifest processing complete</text><rect fill="#FFA07A" height="22" rx="4" ry="4" style="stroke:#181818;stroke-width:1.0;" width="77" x="510" y="578.9033"/><text fill="#000000" font-family="Lato,sans-serif" font-size="12" lengthAdjust="spacing" textLength="69" x="514" y="594.7474">CANDIDATE</text><polygon fill="#000000" points="435,625.7035,445,629.7035,435,633.7035" style="stroke:#000000;stroke-width:1.0;"/><line style="stroke:#000000;stroke-width:1.0;" x1="197" x2="441" y1="629.7035" y2="629.7035"/><text fill="#000000" font-family="Lato,sans-serif" font-size="12" font-weight="bold" lengthAdjust="spacing" textLength="17" x="204" y="625.1475">24:</text><text fill="#000000" font-family="Consolas,Menlo,monospace" font-size="12" lengthAdjust="spacing" textLength="119" x="225" y="624.4409">psa_fwu_install()</text><path d="M32,615.3034 L32,631.3034 A4,4 0 0 0 36,635.3034 L178,635.3034 A4,4 0 0 0 182,631.3034 L182,621.3034 L172,611.3034 L36,611.3034 A4,4 0 0 0 32,615.3034 " fill="#E8E8E8" style="stroke:#181818;stroke-width:1.0;"/><path d="M172,611.3034 L172,619.3034 A2,2 0 0 0 174,621.3034 L182,621.3034 L172,611.3034 " fill="#E8E8E8" style="stroke:#181818;stroke-width:1.0;"/><text fill="#000000" font-family="Lato,sans-serif" font-size="12" lengthAdjust="spacing" textLength="129" x="38" y="628.1475">Proceed with installation</text><polygon fill="#000000" points="208,657.1036,198,661.1036,208,665.1036" style="stroke:#000000;stroke-width:1.0;"/><line style="stroke:#000000;stroke-width:1.0;stroke-dasharray:2.0,2.0;" x1="202" x2="451" y1="661.1036" y2="661.1036"/><text fill="#000000" font-family="Lato,sans-serif" font-size="12" font-weight="bold" lengthAdjust="spacing" textLength="17" x="214" y="656.5476">25:</text><text fill="#000000" font-family="Consolas,Menlo,monospace" font-size="12" lengthAdjust="spacing" textLength="189" x="235" y="655.841">PSA_FWU_PROCESSING_REQUIRED</text><rect fill="#FFC0CB" height="22" rx="4" ry="4" style="stroke:#181818;stroke-width:1.0;" width="76" x="511" y="674.1036"/><text fill="#000000" font-family="Lato,sans-serif" font-size="12" lengthAdjust="spacing" textLength="68" x="515" y="689.9477">INSTALLING</text><polygon fill="#000000" points="435,720.9038,445,724.9038,435,728.9038" style="stroke:#000000;stroke-width:1.0;"/><line style="stroke:#000000;stroke-width:1.0;" x1="197" x2="441" y1="724.9038" y2="724.9038"/><text fill="#000000" font-family="Lato,sans-serif" font-size="12" font-weight="bold" lengthAdjust="spacing" textLength="17" x="204" y="720.3478">26:</text><text fill="#000000" font-family="Consolas,Menlo,monospace" font-size="12" lengthAdjust="spacing" textLength="119" x="225" y="719.6412">psa_fwu_process()</text><path d="M32,710.5037 L32,726.5037 A4,4 0 0 0 36,730.5037 L178,730.5037 A4,4 0 0 0 182,726.5037 L182,716.5037 L172,706.5037 L36,706.5037 A4,4 0 0 0 32,710.5037 " fill="#E8E8E8" style="stroke:#181818;stroke-width:1.0;"/><path d="M172,706.5037 L172,714.5037 A2,2 0 0 0 174,716.5037 L182,716.5037 L172,706.5037 " fill="#E8E8E8" style="stroke:#181818;stroke-width:1.0;"/><text fill="#000000" font-family="Lato,sans-serif" font-size="12" lengthAdjust="spacing" textLength="129" x="38" y="723.3478">Process SUIT commands</text><polygon fill="#E8E8E8" points="362,740.9038,541,740.9038,551,758.9038,541,776.9038,362,776.9038,352,758.9038,362,740.9038" style="stroke:#181818;stroke-width:1.0;"/><text fill="#000000" font-family="Consolas,Menlo,monospace" font-size="12" lengthAdjust="spacing" textLength="175" x="364" y="755.8667">suit-candidate-validation</text><text fill="#000000" font-family="Consolas,Menlo,monospace" font-size="12" lengthAdjust="spacing" textLength="84" x="364" y="769.9174">suit-install</text><path d="M47,789.0053 L112,789.0053 L112,795.4054 L102,805.4054 L43,805.4054 L43,793.0053 A4,4 0 0 1 47,789.0053 " fill="#F0F0F0" style="stroke:#808080;stroke-width:1.5;"/><rect fill="none" height="107.6004" rx="4" ry="4" style="stroke:#808080;stroke-width:1.0;" width="465" x="43" y="789.0053"/><text fill="#000000" font-family="Lato,sans-serif" font-size="12" lengthAdjust="spacing" textLength="24" x="58" y="801.8494">loop</text><text fill="#000000" font-family="Lato,sans-serif" font-size="11" font-weight="bold" lengthAdjust="spacing" textLength="197" x="127" y="801.8625">[While additional payloads are required]</text><polygon fill="#000000" points="208,821.8055,198,825.8055,208,829.8055" style="stroke:#000000;stroke-width:1.0;"/><line style="stroke:#000000;stroke-width:1.0;stroke-dasharray:2.0,2.0;" x1="202" x2="451" y1="825.8055" y2="825.8055"/><text fill="#000000" font-family="Lato,sans-serif" font-size="12" font-weight="bold" lengthAdjust="spacing" textLength="17" x="214" y="821.2495">27:</text><text fill="#000000" font-family="Consolas,Menlo,monospace" font-size="12" lengthAdjust="spacing" textLength="168" x="235" y="820.543">PSA_FWU_PAYLOAD_REQUIRED</text><path d="M53,842.8055 L53,858.8055 A4,4 0 0 0 57,862.8055 L490,862.8055 A4,4 0 0 0 494,858.8055 L494,848.8055 L484,838.8055 L57,838.8055 A4,4 0 0 0 53,842.8055 " fill="#E8E8E8" style="stroke:#181818;stroke-width:1.0;"/><path d="M484,838.8055 L484,846.8055 A2,2 0 0 0 486,848.8055 L494,848.8055 L484,838.8055 " fill="#E8E8E8" style="stroke:#181818;stroke-width:1.0;"/><text fill="#000000" font-family="Lato,sans-serif" font-size="12" lengthAdjust="spacing" textLength="89" x="224.5" y="855.6496">Transfer payload</text><polygon fill="#000000" points="435,884.6057,445,888.6057,435,892.6057" style="stroke:#000000;stroke-width:1.0;"/><line style="stroke:#000000;stroke-width:1.0;" x1="197" x2="441" y1="888.6057" y2="888.6057"/><text fill="#000000" font-family="Lato,sans-serif" font-size="12" font-weight="bold" lengthAdjust="spacing" textLength="17" x="204" y="884.0497">28:</text><text fill="#000000" font-family="Consolas,Menlo,monospace" font-size="12" lengthAdjust="spacing" textLength="119" x="225" y="883.3432">psa_fwu_process()</text><polygon fill="#E8E8E8" points="404,908.6057,499,908.6057,509,933.6057,499,958.6057,404,958.6057,394,933.6057,404,908.6057" style="stroke:#181818;stroke-width:1.0;"/><text fill="#000000" font-family="Consolas,Menlo,monospace" font-size="12" lengthAdjust="spacing" textLength="91" x="406" y="923.5686">suit-validate</text><text fill="#000000" font-family="Consolas,Menlo,monospace" font-size="12" lengthAdjust="spacing" textLength="63" x="406" y="937.6194">suit-load</text><text fill="#000000" font-family="Consolas,Menlo,monospace" font-size="12" lengthAdjust="spacing" textLength="77" x="406" y="951.6702">suit-invoke</text><polygon fill="#000000" points="208,980.1582,198,984.1582,208,988.1582" style="stroke:#000000;stroke-width:1.0;"/><line style="stroke:#000000;stroke-width:1.0;stroke-dasharray:2.0,2.0;" x1="202" x2="451" y1="984.1582" y2="984.1582"/><text fill="#000000" font-family="Lato,sans-serif" font-size="12" font-weight="bold" lengthAdjust="spacing" textLength="17" x="214" y="979.6022">29:</text><text fill="#000000" font-family="Consolas,Menlo,monospace" font-size="12" lengthAdjust="spacing" textLength="77" x="235" y="978.8956">PSA_SUCCESS</text><rect fill="#AAAADD" height="22" rx="4" ry="4" style="stroke:#181818;stroke-width:1.0;" width="64" x="517" y="997.1582"/><text fill="#000000" font-family="Lato,sans-serif" font-size="12" lengthAdjust="spacing" textLength="56" x="521" y="1013.0023">UPDATED</text></g></svg>