<?xml version="1.0" encoding="UTF-8" standalone="no"?><svg xmlns="http://www.w3.org/2000/svg" xmlns:xlink="http://www.w3.org/1999/xlink" contentStyleType="text/css" height="950px" preserveAspectRatio="none" style="width:673px;height:950px;background:#FFFFFF55;" version="1.1" viewBox="0 0 673 950" width="673px" zoomAndPan="magnify"><defs/><g><rect fill="#E0E0E0" fill-opacity="0.75294" height="931.8032" rx="4" ry="4" style="stroke:none;stroke-width:0.5;" width="96" x="48" y="6"/><text fill="#000000" font-family="Lato,sans-serif" font-size="12" font-weight="bold" lengthAdjust="spacing" textLength="48" x="72" y="17.8441">Network</text><rect fill="#E0E0E0" fill-opacity="0.75294" height="931.8032" rx="4" ry="4" style="stroke:none;stroke-width:0.5;" width="353" x="146" y="6"/><text fill="#000000" font-family="Lato,sans-serif" font-size="12" font-weight="bold" lengthAdjust="spacing" textLength="36" x="304.5" y="17.8441">Device</text><rect fill="#FFFFFF" height="871.003" style="stroke:#808080;stroke-width:1.0;" width="10" x="187" y="63.8002"/><rect fill="#DDDDDD" height="31.4001" style="stroke:#808080;stroke-width:1.0;" width="10" x="444" y="119.6004"/><rect fill="#DDDDDD" height="28.4001" style="stroke:#808080;stroke-width:1.0;" width="10" x="444" y="211.8007"/><rect fill="#DDDDDD" height="28.4001" style="stroke:#808080;stroke-width:1.0;" width="10" x="444" y="268.6009"/><rect fill="#DDDDDD" height="162.4006" style="stroke:#808080;stroke-width:1.0;" width="10" x="444" y="360.8012"/><rect fill="#DDDDDD" height="31.4001" style="stroke:#808080;stroke-width:1.0;" width="10" x="444" y="590.002"/><rect fill="#DDDDDD" height="208.2008" style="stroke:#808080;stroke-width:1.0;" width="10" x="444" y="685.2023"/><rect fill="#ADD8E6" height="55.8002" style="stroke:#808080;stroke-width:1.0;" width="10" x="541" y="63.8002"/><rect fill="#98FB98" height="117.6004" style="stroke:#808080;stroke-width:1.0;" width="10" x="541" y="151.0005"/><rect fill="#EEE8AA" height="63.8002" style="stroke:#808080;stroke-width:1.0;" width="10" x="541" y="297.001"/><rect fill="#FFA07A" height="66.8002" style="stroke:#808080;stroke-width:1.0;" width="10" x="541" y="523.2018"/><rect fill="#EEE8AA" height="63.8002" style="stroke:#808080;stroke-width:1.0;" width="10" x="541" y="621.4021"/><rect fill="#AAAADD" height="41.4001" style="stroke:#808080;stroke-width:1.0;" width="10" x="541" y="893.4031"/><rect fill="#FFFFFF" fill-opacity="0.50196" height="65.2003" rx="4" ry="4" style="stroke:#808080;stroke-width:1.0;" width="458" x="43" y="427.6014"/><rect fill="#FFFFFF" fill-opacity="0.50196" height="65.2003" rx="4" ry="4" style="stroke:#808080;stroke-width:1.0;" width="458" x="43" y="737.6024"/><line style="stroke:#808080;stroke-width:0.5;stroke-dasharray:5.0,5.0;" x1="96" x2="96" y1="53.8002" y2="943.8032"/><line style="stroke:#808080;stroke-width:0.5;stroke-dasharray:5.0,5.0;" x1="192" x2="192" y1="53.8002" y2="943.8032"/><line style="stroke:#808080;stroke-width:0.5;stroke-dasharray:5.0,5.0;" x1="307" x2="307" y1="53.8002" y2="943.8032"/><line style="stroke:#808080;stroke-width:0.5;stroke-dasharray:5.0,5.0;" x1="449" x2="449" y1="53.8002" y2="943.8032"/><line style="stroke:#808080;stroke-width:0.5;stroke-dasharray:5.0,5.0;" x1="546" x2="546" y1="53.8002" y2="943.8032"/><line style="stroke:#808080;stroke-width:0.5;stroke-dasharray:5.0,5.0;" x1="634" x2="634" y1="53.8002" y2="943.8032"/><rect fill="#FFFFFF" height="28.4001" rx="4" ry="4" style="stroke:#000000;stroke-width:1.0;" width="88" x="52" y="24.4001"/><text fill="#000000" font-family="Lato,sans-serif" font-size="12" lengthAdjust="spacing" textLength="74" x="59" y="43.2442">Update server</text><rect fill="#FFFFFF" height="28.4001" rx="4" ry="4" style="stroke:#000000;stroke-width:1.0;" width="84" x="150" y="24.4001"/><text fill="#000000" font-family="Lato,sans-serif" font-size="12" lengthAdjust="spacing" textLength="70" x="157" y="43.2442">Update client</text><rect fill="#FFFFFF" height="28.4001" rx="4" ry="4" style="stroke:#000000;stroke-width:1.0;" width="127" x="244" y="24.4001"/><text fill="#000000" font-family="Lato,sans-serif" font-size="12" lengthAdjust="spacing" textLength="113" x="251" y="43.2442">Firmware Update API</text><rect fill="#FFFFFF" height="28.4001" rx="4" ry="4" style="stroke:#000000;stroke-width:1.0;" width="92" x="403" y="24.4001"/><text fill="#000000" font-family="Lato,sans-serif" font-size="12" lengthAdjust="spacing" textLength="78" x="410" y="43.2442">Update service</text><text fill="#000000" font-family="Lato,sans-serif" font-size="12" lengthAdjust="spacing" textLength="76" x="505" y="51.2442">Envelope state</text><ellipse cx="546" cy="23.4001" fill="#FFFFFF" rx="12" ry="12" style="stroke:#000000;stroke-width:1.0;"/><line style="stroke:#000000;stroke-width:1.0;" x1="534" x2="558" y1="37.4001" y2="37.4001"/><text fill="#000000" font-family="Lato,sans-serif" font-size="12" lengthAdjust="spacing" textLength="69" x="597" y="51.2442">Payload state</text><ellipse cx="634.5" cy="23.4001" fill="#FFFFFF" rx="12" ry="12" style="stroke:#000000;stroke-width:1.0;"/><line style="stroke:#000000;stroke-width:1.0;" x1="622.5" x2="646.5" y1="37.4001" y2="37.4001"/><rect fill="#FFFFFF" height="871.003" style="stroke:#808080;stroke-width:1.0;" width="10" x="187" y="63.8002"/><rect fill="#DDDDDD" height="31.4001" style="stroke:#808080;stroke-width:1.0;" width="10" x="444" y="119.6004"/><rect fill="#DDDDDD" height="28.4001" style="stroke:#808080;stroke-width:1.0;" width="10" x="444" y="211.8007"/><rect fill="#DDDDDD" height="28.4001" style="stroke:#808080;stroke-width:1.0;" width="10" x="444" y="268.6009"/><rect fill="#DDDDDD" height="162.4006" style="stroke:#808080;stroke-width:1.0;" width="10" x="444" y="360.8012"/><rect fill="#DDDDDD" height="31.4001" style="stroke:#808080;stroke-width:1.0;" width="10" x="444" y="590.002"/><rect fill="#DDDDDD" height="208.2008" style="stroke:#808080;stroke-width:1.0;" width="10" x="444" y="685.2023"/><rect fill="#ADD8E6" height="55.8002" style="stroke:#808080;stroke-width:1.0;" width="10" x="541" y="63.8002"/><rect fill="#98FB98" height="117.6004" style="stroke:#808080;stroke-width:1.0;" width="10" x="541" y="151.0005"/><rect fill="#EEE8AA" height="63.8002" style="stroke:#808080;stroke-width:1.0;" width="10" x="541" y="297.001"/><rect fill="#FFA07A" height="66.8002" style="stroke:#808080;stroke-width:1.0;" width="10" x="541" y="523.2018"/><rect fill="#EEE8AA" height="63.8002" style="stroke:#808080;stroke-width:1.0;" width="10" x="541" y="621.4021"/><rect fill="#AAAADD" height="41.4001" style="stroke:#808080;stroke-width:1.0;" width="10" x="541" y="893.4031"/><rect fill="#ADD8E6" height="22" rx="4" ry="4" style="stroke:#181818;stroke-width:1.0;" width="48" x="522" y="68.8002"/><text fill="#000000" font-family="Lato,sans-serif" font-size="12" lengthAdjust="spacing" textLength="40" x="526" y="84.6443">READY</text><polygon fill="#000000" points="432,115.6004,442,119.6004,432,123.6004" style="stroke:#000000;stroke-width:1.0;"/><line style="stroke:#000000;stroke-width:1.0;" x1="197" x2="438" y1="119.6004" y2="119.6004"/><text fill="#000000" font-family="Lato,sans-serif" font-size="12" font-weight="bold" lengthAdjust="spacing" textLength="7" x="204" y="115.0444">1</text><text fill="#000000" font-family="Consolas,Menlo,monospace" font-size="12" lengthAdjust="spacing" textLength="182" x="215" y="114.3379">psa_fwu_start(envelope_id)</text><path d="M37,105.2003 L37,121.2003 A4,4 0 0 0 41,125.2003 L178,125.2003 A4,4 0 0 0 182,121.2003 L182,111.2003 L172,101.2003 L41,101.2003 A4,4 0 0 0 37,105.2003 " fill="#E8E8E8" style="stroke:#181818;stroke-width:1.0;"/><path d="M172,101.2003 L172,109.2003 A2,2 0 0 0 174,111.2003 L182,111.2003 L172,101.2003 " fill="#E8E8E8" style="stroke:#181818;stroke-width:1.0;"/><text fill="#000000" font-family="Lato,sans-serif" font-size="12" lengthAdjust="spacing" textLength="124" x="43" y="118.0444">Transfer SUIT Envelope</text><polygon fill="#000000" points="208,147.0005,198,151.0005,208,155.0005" style="stroke:#000000;stroke-width:1.0;"/><line style="stroke:#000000;stroke-width:1.0;stroke-dasharray:2.0,2.0;" x1="202" x2="448" y1="151.0005" y2="151.0005"/><text fill="#000000" font-family="Lato,sans-serif" font-size="12" font-weight="bold" lengthAdjust="spacing" textLength="7" x="214" y="146.4445">2</text><text fill="#000000" font-family="Consolas,Menlo,monospace" font-size="12" lengthAdjust="spacing" textLength="77" x="225" y="145.738">PSA_SUCCESS</text><rect fill="#98FB98" height="22" rx="4" ry="4" style="stroke:#181818;stroke-width:1.0;" width="61" x="515" y="164.0005"/><text fill="#000000" font-family="Lato,sans-serif" font-size="12" lengthAdjust="spacing" textLength="53" x="519" y="179.8446">WRITING</text><polygon fill="#000000" points="432,207.8007,442,211.8007,432,215.8007" style="stroke:#000000;stroke-width:1.0;"/><line style="stroke:#000000;stroke-width:1.0;" x1="197" x2="438" y1="211.8007" y2="211.8007"/><text fill="#000000" font-family="Lato,sans-serif" font-size="12" font-weight="bold" lengthAdjust="spacing" textLength="7" x="204" y="207.2447">3</text><text fill="#000000" font-family="Consolas,Menlo,monospace" font-size="12" lengthAdjust="spacing" textLength="217" x="215" y="206.5382">psa_fwu_write(envelope_id, ...)</text><polygon fill="#000000" points="208,236.2008,198,240.2008,208,244.2008" style="stroke:#000000;stroke-width:1.0;"/><line style="stroke:#000000;stroke-width:1.0;stroke-dasharray:2.0,2.0;" x1="202" x2="448" y1="240.2008" y2="240.2008"/><text fill="#000000" font-family="Lato,sans-serif" font-size="12" font-weight="bold" lengthAdjust="spacing" textLength="7" x="214" y="235.6448">4</text><text fill="#000000" font-family="Consolas,Menlo,monospace" font-size="12" lengthAdjust="spacing" textLength="77" x="225" y="234.9383">PSA_SUCCESS</text><polygon fill="#000000" points="432,264.6009,442,268.6009,432,272.6009" style="stroke:#000000;stroke-width:1.0;"/><line style="stroke:#000000;stroke-width:1.0;" x1="197" x2="438" y1="268.6009" y2="268.6009"/><text fill="#000000" font-family="Lato,sans-serif" font-size="12" font-weight="bold" lengthAdjust="spacing" textLength="7" x="204" y="264.0449">5</text><text fill="#000000" font-family="Consolas,Menlo,monospace" font-size="12" lengthAdjust="spacing" textLength="189" x="215" y="263.3384">psa_fwu_finish(envelope_id)</text><polygon fill="#000000" points="208,293.001,198,297.001,208,301.001" style="stroke:#000000;stroke-width:1.0;"/><line style="stroke:#000000;stroke-width:1.0;stroke-dasharray:2.0,2.0;" x1="202" x2="448" y1="297.001" y2="297.001"/><text fill="#000000" font-family="Lato,sans-serif" font-size="12" font-weight="bold" lengthAdjust="spacing" textLength="7" x="214" y="292.445">6</text><text fill="#000000" font-family="Consolas,Menlo,monospace" font-size="12" lengthAdjust="spacing" textLength="189" x="225" y="291.7385">PSA_FWU_PROCESSING_REQUIRED</text><rect fill="#EEE8AA" height="22" rx="4" ry="4" style="stroke:#181818;stroke-width:1.0;" width="82" x="505" y="310.001"/><text fill="#000000" font-family="Lato,sans-serif" font-size="12" lengthAdjust="spacing" textLength="74" x="509" y="325.8451">PROCESSING</text><polygon fill="#000000" points="432,356.8012,442,360.8012,432,364.8012" style="stroke:#000000;stroke-width:1.0;"/><line style="stroke:#000000;stroke-width:1.0;" x1="197" x2="438" y1="360.8012" y2="360.8012"/><text fill="#000000" font-family="Lato,sans-serif" font-size="12" font-weight="bold" lengthAdjust="spacing" textLength="7" x="204" y="356.2452">7</text><text fill="#000000" font-family="Consolas,Menlo,monospace" font-size="12" lengthAdjust="spacing" textLength="119" x="215" y="355.5387">psa_fwu_process()</text><path d="M45,346.4011 L45,362.4011 A4,4 0 0 0 49,366.4011 L178,366.4011 A4,4 0 0 0 182,362.4011 L182,352.4011 L172,342.4011 L49,342.4011 A4,4 0 0 0 45,346.4011 " fill="#E8E8E8" style="stroke:#181818;stroke-width:1.0;"/><path d="M172,342.4011 L172,350.4011 A2,2 0 0 0 174,352.4011 L182,352.4011 L172,342.4011 " fill="#E8E8E8" style="stroke:#181818;stroke-width:1.0;"/><text fill="#000000" font-family="Lato,sans-serif" font-size="12" lengthAdjust="spacing" textLength="116" x="51" y="359.2452">Process SUIT manifest</text><path d="M347,380.8012 L347,410.8012 A4,4 0 0 0 351,414.8012 L547,414.8012 A4,4 0 0 0 551,410.8012 L551,386.8012 L541,376.8012 L351,376.8012 A4,4 0 0 0 347,380.8012 " fill="#E8E8E8" style="stroke:#181818;stroke-width:1.0;"/><path d="M541,376.8012 L541,384.8012 A2,2 0 0 0 543,386.8012 L551,386.8012 L541,376.8012 " fill="#E8E8E8" style="stroke:#181818;stroke-width:1.0;"/><text fill="#000000" font-family="Lato,sans-serif" font-size="12" lengthAdjust="spacing" textLength="79" x="353" y="393.6453">Verify manifest</text><text fill="#000000" font-family="Consolas,Menlo,monospace" font-size="12" lengthAdjust="spacing" textLength="126" x="353" y="407.5135">suit-payload-fetch</text><text fill="#000000" font-family="Lato,sans-serif" font-size="12" lengthAdjust="spacing" textLength="50" x="486" y="408.0454">sequence</text><path d="M47,427.6014 L112,427.6014 L112,434.0015 L102,444.0015 L43,444.0015 L43,431.6014 A4,4 0 0 1 47,427.6014 " fill="#F0F0F0" style="stroke:#808080;stroke-width:1.5;"/><rect fill="none" height="65.2003" rx="4" ry="4" style="stroke:#808080;stroke-width:1.0;" width="458" x="43" y="427.6014"/><text fill="#000000" font-family="Lato,sans-serif" font-size="12" lengthAdjust="spacing" textLength="24" x="58" y="440.4455">loop</text><text fill="#000000" font-family="Lato,sans-serif" font-size="11" font-weight="bold" lengthAdjust="spacing" textLength="197" x="127" y="440.4586">[While additional payloads are required]</text><path d="M53,453.0015 L53,483.0015 A4,4 0 0 0 57,487.0015 L487,487.0015 A4,4 0 0 0 491,483.0015 L491,459.0015 L481,449.0015 L57,449.0015 A4,4 0 0 0 53,453.0015 " fill="#E8E8E8" style="stroke:#181818;stroke-width:1.0;"/><path d="M481,449.0015 L481,457.0015 A2,2 0 0 0 483,459.0015 L491,459.0015 L481,449.0015 " fill="#E8E8E8" style="stroke:#181818;stroke-width:1.0;"/><text fill="#000000" font-family="Lato,sans-serif" font-size="12" lengthAdjust="spacing" textLength="45" x="240" y="465.8456">Transfer</text><text fill="#000000" font-family="Lato,sans-serif" font-size="12" lengthAdjust="spacing" textLength="55" x="240" y="480.2457">payload(s)</text><polygon fill="#000000" points="208,519.2018,198,523.2018,208,527.2018" style="stroke:#000000;stroke-width:1.0;"/><line style="stroke:#000000;stroke-width:1.0;stroke-dasharray:2.0,2.0;" x1="202" x2="448" y1="523.2018" y2="523.2018"/><text fill="#000000" font-family="Lato,sans-serif" font-size="12" font-weight="bold" lengthAdjust="spacing" textLength="14" x="214" y="518.6458">21</text><text fill="#000000" font-family="Consolas,Menlo,monospace" font-size="12" lengthAdjust="spacing" textLength="77" x="232" y="517.9393">PSA_SUCCESS</text><path d="M5,508.8017 L5,524.8017 A4,4 0 0 0 9,528.8017 L178,528.8017 A4,4 0 0 0 182,524.8017 L182,514.8017 L172,504.8017 L9,504.8017 A4,4 0 0 0 5,508.8017 " fill="#E8E8E8" style="stroke:#181818;stroke-width:1.0;"/><path d="M172,504.8017 L172,512.8017 A2,2 0 0 0 174,514.8017 L182,514.8017 L172,504.8017 " fill="#E8E8E8" style="stroke:#181818;stroke-width:1.0;"/><text fill="#000000" font-family="Lato,sans-serif" font-size="12" lengthAdjust="spacing" textLength="156" x="11" y="521.6458">Manifest processing complete</text><rect fill="#FFA07A" height="22" rx="4" ry="4" style="stroke:#181818;stroke-width:1.0;" width="77" x="507" y="539.2018"/><text fill="#000000" font-family="Lato,sans-serif" font-size="12" lengthAdjust="spacing" textLength="69" x="511" y="555.0459">CANDIDATE</text><polygon fill="#000000" points="432,586.002,442,590.002,432,594.002" style="stroke:#000000;stroke-width:1.0;"/><line style="stroke:#000000;stroke-width:1.0;" x1="197" x2="438" y1="590.002" y2="590.002"/><text fill="#000000" font-family="Lato,sans-serif" font-size="12" font-weight="bold" lengthAdjust="spacing" textLength="14" x="204" y="585.446">22</text><text fill="#000000" font-family="Consolas,Menlo,monospace" font-size="12" lengthAdjust="spacing" textLength="119" x="222" y="584.7395">psa_fwu_install()</text><path d="M32,575.6019 L32,591.6019 A4,4 0 0 0 36,595.6019 L178,595.6019 A4,4 0 0 0 182,591.6019 L182,581.6019 L172,571.6019 L36,571.6019 A4,4 0 0 0 32,575.6019 " fill="#E8E8E8" style="stroke:#181818;stroke-width:1.0;"/><path d="M172,571.6019 L172,579.6019 A2,2 0 0 0 174,581.6019 L182,581.6019 L172,571.6019 " fill="#E8E8E8" style="stroke:#181818;stroke-width:1.0;"/><text fill="#000000" font-family="Lato,sans-serif" font-size="12" lengthAdjust="spacing" textLength="129" x="38" y="588.446">Proceed with installation</text><polygon fill="#000000" points="208,617.4021,198,621.4021,208,625.4021" style="stroke:#000000;stroke-width:1.0;"/><line style="stroke:#000000;stroke-width:1.0;stroke-dasharray:2.0,2.0;" x1="202" x2="448" y1="621.4021" y2="621.4021"/><text fill="#000000" font-family="Lato,sans-serif" font-size="12" font-weight="bold" lengthAdjust="spacing" textLength="14" x="214" y="616.8461">23</text><text fill="#000000" font-family="Consolas,Menlo,monospace" font-size="12" lengthAdjust="spacing" textLength="189" x="232" y="616.1396">PSA_FWU_PROCESSING_REQUIRED</text><rect fill="#EEE8AA" height="22" rx="4" ry="4" style="stroke:#181818;stroke-width:1.0;" width="82" x="505" y="634.4021"/><text fill="#000000" font-family="Lato,sans-serif" font-size="12" lengthAdjust="spacing" textLength="74" x="509" y="650.2462">PROCESSING</text><polygon fill="#000000" points="432,681.2023,442,685.2023,432,689.2023" style="stroke:#000000;stroke-width:1.0;"/><line style="stroke:#000000;stroke-width:1.0;" x1="197" x2="438" y1="685.2023" y2="685.2023"/><text fill="#000000" font-family="Lato,sans-serif" font-size="12" font-weight="bold" lengthAdjust="spacing" textLength="14" x="204" y="680.6463">24</text><text fill="#000000" font-family="Consolas,Menlo,monospace" font-size="12" lengthAdjust="spacing" textLength="119" x="222" y="679.9398">psa_fwu_process()</text><path d="M32,670.8022 L32,686.8022 A4,4 0 0 0 36,690.8022 L178,690.8022 A4,4 0 0 0 182,686.8022 L182,676.8022 L172,666.8022 L36,666.8022 A4,4 0 0 0 32,670.8022 " fill="#E8E8E8" style="stroke:#181818;stroke-width:1.0;"/><path d="M172,666.8022 L172,674.8022 A2,2 0 0 0 174,676.8022 L182,676.8022 L172,666.8022 " fill="#E8E8E8" style="stroke:#181818;stroke-width:1.0;"/><text fill="#000000" font-family="Lato,sans-serif" font-size="12" lengthAdjust="spacing" textLength="129" x="38" y="683.6463">Process SUIT commands</text><path d="M368,705.2023 L368,721.2023 A4,4 0 0 0 372,725.2023 L526,725.2023 A4,4 0 0 0 530,721.2023 L530,711.2023 L520,701.2023 L372,701.2023 A4,4 0 0 0 368,705.2023 " fill="#E8E8E8" style="stroke:#181818;stroke-width:1.0;"/><path d="M520,701.2023 L520,709.2023 A2,2 0 0 0 522,711.2023 L530,711.2023 L520,701.2023 " fill="#E8E8E8" style="stroke:#181818;stroke-width:1.0;"/><text fill="#000000" font-family="Consolas,Menlo,monospace" font-size="12" lengthAdjust="spacing" textLength="84" x="374" y="717.5145">suit-install</text><text fill="#000000" font-family="Lato,sans-serif" font-size="12" lengthAdjust="spacing" textLength="50" x="465" y="718.0464">sequence</text><path d="M47,737.6024 L112,737.6024 L112,744.0025 L102,754.0025 L43,754.0025 L43,741.6024 A4,4 0 0 1 47,737.6024 " fill="#F0F0F0" style="stroke:#808080;stroke-width:1.5;"/><rect fill="none" height="65.2003" rx="4" ry="4" style="stroke:#808080;stroke-width:1.0;" width="458" x="43" y="737.6024"/><text fill="#000000" font-family="Lato,sans-serif" font-size="12" lengthAdjust="spacing" textLength="24" x="58" y="750.4465">loop</text><text fill="#000000" font-family="Lato,sans-serif" font-size="11" font-weight="bold" lengthAdjust="spacing" textLength="197" x="127" y="750.4596">[While additional payloads are required]</text><path d="M53,763.0025 L53,793.0025 A4,4 0 0 0 57,797.0025 L487,797.0025 A4,4 0 0 0 491,793.0025 L491,769.0025 L481,759.0025 L57,759.0025 A4,4 0 0 0 53,763.0025 " fill="#E8E8E8" style="stroke:#181818;stroke-width:1.0;"/><path d="M481,759.0025 L481,767.0025 A2,2 0 0 0 483,769.0025 L491,769.0025 L481,759.0025 " fill="#E8E8E8" style="stroke:#181818;stroke-width:1.0;"/><text fill="#000000" font-family="Lato,sans-serif" font-size="12" lengthAdjust="spacing" textLength="45" x="240" y="775.8466">Transfer</text><text fill="#000000" font-family="Lato,sans-serif" font-size="12" lengthAdjust="spacing" textLength="55" x="240" y="790.2467">payload(s)</text><path d="M364,818.8027 L364,863.8027 A4,4 0 0 0 368,867.8027 L529,867.8027 A4,4 0 0 0 533,863.8027 L533,824.8027 L523,814.8027 L368,814.8027 A4,4 0 0 0 364,818.8027 " fill="#E8E8E8" style="stroke:#181818;stroke-width:1.0;"/><path d="M523,814.8027 L523,822.8027 A2,2 0 0 0 525,824.8027 L533,824.8027 L523,814.8027 " fill="#E8E8E8" style="stroke:#181818;stroke-width:1.0;"/><text fill="#000000" font-family="Consolas,Menlo,monospace" font-size="12" lengthAdjust="spacing" textLength="91" x="370" y="831.1149">suit-validate</text><text fill="#000000" font-family="Lato,sans-serif" font-size="12" lengthAdjust="spacing" textLength="50" x="468" y="831.6468">sequence</text><text fill="#000000" font-family="Consolas,Menlo,monospace" font-size="12" lengthAdjust="spacing" textLength="63" x="370" y="845.515">suit-load</text><text fill="#000000" font-family="Lato,sans-serif" font-size="12" lengthAdjust="spacing" textLength="50" x="440" y="846.0469">sequence</text><text fill="#000000" font-family="Consolas,Menlo,monospace" font-size="12" lengthAdjust="spacing" textLength="77" x="370" y="859.9151">suit-invoke</text><text fill="#000000" font-family="Lato,sans-serif" font-size="12" lengthAdjust="spacing" textLength="50" x="454" y="860.447">sequence</text><polygon fill="#000000" points="208,889.4031,198,893.4031,208,897.4031" style="stroke:#000000;stroke-width:1.0;"/><line style="stroke:#000000;stroke-width:1.0;stroke-dasharray:2.0,2.0;" x1="202" x2="448" y1="893.4031" y2="893.4031"/><text fill="#000000" font-family="Lato,sans-serif" font-size="12" font-weight="bold" lengthAdjust="spacing" textLength="14" x="214" y="888.8471">38</text><text fill="#000000" font-family="Consolas,Menlo,monospace" font-size="12" lengthAdjust="spacing" textLength="77" x="232" y="888.1406">PSA_SUCCESS</text><rect fill="#AAAADD" height="22" rx="4" ry="4" style="stroke:#181818;stroke-width:1.0;" width="64" x="514" y="906.4031"/><text fill="#000000" font-family="Lato,sans-serif" font-size="12" lengthAdjust="spacing" textLength="56" x="518" y="922.2472">UPDATED</text></g></svg>