<?xml version="1.0" encoding="UTF-8" standalone="no"?><svg xmlns="http://www.w3.org/2000/svg" xmlns:xlink="http://www.w3.org/1999/xlink" contentStyleType="text/css" height="631px" preserveAspectRatio="none" style="width:685px;height:631px;background:#FFFFFF55;" version="1.1" viewBox="0 0 685 631" width="685px" zoomAndPan="magnify"><defs/><g><rect fill="#E0E0E0" fill-opacity="0.75294" height="612.6019" rx="4" ry="4" style="stroke:none;stroke-width:0.5;" width="96" x="16" y="6"/><text fill="#000000" font-family="Lato,sans-serif" font-size="12" font-weight="bold" lengthAdjust="spacing" textLength="48" x="40" y="17.8441">Network</text><rect fill="#E0E0E0" fill-opacity="0.75294" height="612.6019" rx="4" ry="4" style="stroke:none;stroke-width:0.5;" width="383.5" x="215" y="6"/><text fill="#000000" font-family="Lato,sans-serif" font-size="12" font-weight="bold" lengthAdjust="spacing" textLength="36" x="388.75" y="17.8441">Device</text><rect fill="#FFFFFF" height="389.2013" style="stroke:#808080;stroke-width:1.0;" width="10" x="256" y="63.8002"/><rect fill="#FFFFFF" height="389.2013" style="stroke:#808080;stroke-width:1.0;" width="10" x="449" y="63.8002"/><rect fill="#FFFFFF" height="91.8002" style="stroke:#808080;stroke-width:1.0;" width="10" x="561" y="523.8017"/><rect fill="#FFFFFF" fill-opacity="0.50196" height="143.0005" rx="4" ry="4" style="stroke:#808080;stroke-width:1.0;" width="556" x="10" y="197.4006"/><line style="stroke:#808080;stroke-width:0.5;stroke-dasharray:5.0,5.0;" x1="64" x2="64" y1="53.8002" y2="624.6019"/><line style="stroke:#808080;stroke-width:0.5;stroke-dasharray:5.0,5.0;" x1="261" x2="261" y1="53.8002" y2="624.6019"/><line style="stroke:#808080;stroke-width:0.5;stroke-dasharray:5.0,5.0;" x1="454" x2="454" y1="53.8002" y2="624.6019"/><line style="stroke:#808080;stroke-width:0.5;stroke-dasharray:5.0,5.0;" x1="565.5" x2="565.5" y1="53.8002" y2="624.6019"/><rect fill="#FFFFFF" height="28.4001" rx="4" ry="4" style="stroke:#000000;stroke-width:1.0;" width="88" x="20" y="24.4001"/><text fill="#000000" font-family="Lato,sans-serif" font-size="12" lengthAdjust="spacing" textLength="74" x="27" y="43.2442">Update server</text><rect fill="#FFFFFF" height="28.4001" rx="4" ry="4" style="stroke:#000000;stroke-width:1.0;" width="84" x="219" y="24.4001"/><text fill="#000000" font-family="Lato,sans-serif" font-size="12" lengthAdjust="spacing" textLength="70" x="226" y="43.2442">Update client</text><rect fill="#FFFFFF" height="28.4001" rx="4" ry="4" style="stroke:#000000;stroke-width:1.0;" width="92" x="408" y="24.4001"/><text fill="#000000" font-family="Lato,sans-serif" font-size="12" lengthAdjust="spacing" textLength="78" x="415" y="43.2442">Update service</text><rect fill="#FFFFFF" height="28.4001" rx="4" ry="4" style="stroke:#000000;stroke-width:1.0;" width="57" x="537.5" y="24.4001"/><text fill="#000000" font-family="Lato,sans-serif" font-size="12" lengthAdjust="spacing" textLength="43" x="544.5" y="43.2442">Installer</text><rect fill="#FFFFFF" height="389.2013" style="stroke:#808080;stroke-width:1.0;" width="10" x="256" y="63.8002"/><rect fill="#FFFFFF" height="389.2013" style="stroke:#808080;stroke-width:1.0;" width="10" x="449" y="63.8002"/><rect fill="#FFFFFF" height="91.8002" style="stroke:#808080;stroke-width:1.0;" width="10" x="561" y="523.8017"/><line style="stroke:#000000;stroke-width:1.0;" x1="254" x2="244" y1="84.2003" y2="80.2003"/><line style="stroke:#000000;stroke-width:1.0;" x1="254" x2="244" y1="84.2003" y2="88.2003"/><line style="stroke:#000000;stroke-width:1.0;" x1="64" x2="255" y1="84.2003" y2="84.2003"/><text fill="#000000" font-family="Lato,sans-serif" font-size="12" lengthAdjust="spacing" textLength="168" x="71" y="79.6443">Notify that an update is available</text><line style="stroke:#000000;stroke-width:1.0;" x1="254" x2="244" y1="112.6004" y2="108.6004"/><line style="stroke:#000000;stroke-width:1.0;" x1="254" x2="244" y1="112.6004" y2="116.6004"/><line style="stroke:#000000;stroke-width:1.0;" x1="64" x2="255" y1="112.6004" y2="112.6004"/><text fill="#000000" font-family="Lato,sans-serif" font-size="12" lengthAdjust="spacing" textLength="133" x="71" y="108.0444">Download SUIT envelope</text><line style="stroke:#000000;stroke-width:1.0;" x1="447" x2="437" y1="141.0005" y2="137.0005"/><line style="stroke:#000000;stroke-width:1.0;" x1="447" x2="437" y1="141.0005" y2="145.0005"/><line style="stroke:#000000;stroke-width:1.0;" x1="266" x2="448" y1="141.0005" y2="141.0005"/><text fill="#000000" font-family="Lato,sans-serif" font-size="12" lengthAdjust="spacing" textLength="95" x="273" y="136.4445">Transfer envelope</text><line style="stroke:#000000;stroke-width:1.0;" x1="459" x2="501" y1="169.4006" y2="169.4006"/><line style="stroke:#000000;stroke-width:1.0;" x1="501" x2="501" y1="169.4006" y2="182.4006"/><line style="stroke:#000000;stroke-width:1.0;" x1="460" x2="501" y1="182.4006" y2="182.4006"/><line style="stroke:#000000;stroke-width:1.0;" x1="460" x2="470" y1="182.4006" y2="178.4006"/><line style="stroke:#000000;stroke-width:1.0;" x1="460" x2="470" y1="182.4006" y2="186.4006"/><text fill="#000000" font-family="Lato,sans-serif" font-size="12" lengthAdjust="spacing" textLength="88" x="466" y="164.8446">Process manifest</text><path d="M14,197.4006 L79,197.4006 L79,203.8007 L69,213.8007 L10,213.8007 L10,201.4006 A4,4 0 0 1 14,197.4006 " fill="#F0F0F0" style="stroke:#808080;stroke-width:1.5;"/><rect fill="none" height="143.0005" rx="4" ry="4" style="stroke:#808080;stroke-width:1.0;" width="556" x="10" y="197.4006"/><text fill="#000000" font-family="Lato,sans-serif" font-size="12" lengthAdjust="spacing" textLength="24" x="25" y="210.2447">loop</text><text fill="#000000" font-family="Lato,sans-serif" font-size="11" font-weight="bold" lengthAdjust="spacing" textLength="100" x="94" y="210.2578">[while need payload]</text><line style="stroke:#000000;stroke-width:1.0;" x1="267" x2="277" y1="234.2008" y2="230.2008"/><line style="stroke:#000000;stroke-width:1.0;" x1="267" x2="277" y1="234.2008" y2="238.2008"/><line style="stroke:#000000;stroke-width:1.0;" x1="266" x2="448" y1="234.2008" y2="234.2008"/><text fill="#000000" font-family="Lato,sans-serif" font-size="12" lengthAdjust="spacing" textLength="87" x="283" y="229.6448">Request payload</text><line style="stroke:#000000;stroke-width:1.0;" x1="254" x2="244" y1="262.6009" y2="258.6009"/><line style="stroke:#000000;stroke-width:1.0;" x1="254" x2="244" y1="262.6009" y2="266.6009"/><line style="stroke:#000000;stroke-width:1.0;" x1="64" x2="255" y1="262.6009" y2="262.6009"/><text fill="#000000" font-family="Lato,sans-serif" font-size="12" lengthAdjust="spacing" textLength="99" x="71" y="258.0449">Download payload</text><line style="stroke:#000000;stroke-width:1.0;" x1="447" x2="437" y1="291.001" y2="287.001"/><line style="stroke:#000000;stroke-width:1.0;" x1="447" x2="437" y1="291.001" y2="295.001"/><line style="stroke:#000000;stroke-width:1.0;" x1="266" x2="448" y1="291.001" y2="291.001"/><text fill="#000000" font-family="Lato,sans-serif" font-size="12" lengthAdjust="spacing" textLength="89" x="273" y="286.445">Transfer payload</text><line style="stroke:#000000;stroke-width:1.0;" x1="459" x2="501" y1="319.4011" y2="319.4011"/><line style="stroke:#000000;stroke-width:1.0;" x1="501" x2="501" y1="319.4011" y2="332.4011"/><line style="stroke:#000000;stroke-width:1.0;" x1="460" x2="501" y1="332.4011" y2="332.4011"/><line style="stroke:#000000;stroke-width:1.0;" x1="460" x2="470" y1="332.4011" y2="328.4011"/><line style="stroke:#000000;stroke-width:1.0;" x1="460" x2="470" y1="332.4011" y2="336.4011"/><text fill="#000000" font-family="Lato,sans-serif" font-size="12" lengthAdjust="spacing" textLength="88" x="466" y="314.8451">Process manifest</text><line style="stroke:#000000;stroke-width:1.0;" x1="267" x2="277" y1="367.8012" y2="363.8012"/><line style="stroke:#000000;stroke-width:1.0;" x1="267" x2="277" y1="367.8012" y2="371.8012"/><line style="stroke:#000000;stroke-width:1.0;" x1="266" x2="448" y1="367.8012" y2="367.8012"/><text fill="#000000" font-family="Lato,sans-serif" font-size="12" lengthAdjust="spacing" textLength="159" x="283" y="363.2452">Envelope processing complete</text><line style="stroke:#000000;stroke-width:1.0;" x1="65" x2="75" y1="396.2013" y2="392.2013"/><line style="stroke:#000000;stroke-width:1.0;" x1="65" x2="75" y1="396.2013" y2="400.2013"/><line style="stroke:#000000;stroke-width:1.0;" x1="64" x2="255" y1="396.2013" y2="396.2013"/><text fill="#000000" font-family="Lato,sans-serif" font-size="12" lengthAdjust="spacing" textLength="143" x="81" y="391.6453">Report download complete</text><line style="stroke:#000000;stroke-width:1.0;" x1="254" x2="244" y1="424.6014" y2="420.6014"/><line style="stroke:#000000;stroke-width:1.0;" x1="254" x2="244" y1="424.6014" y2="428.6014"/><line style="stroke:#000000;stroke-width:1.0;" x1="64" x2="255" y1="424.6014" y2="424.6014"/><text fill="#000000" font-family="Lato,sans-serif" font-size="12" lengthAdjust="spacing" textLength="126" x="71" y="420.0454">Request to apply update</text><line style="stroke:#000000;stroke-width:1.0;" x1="676" x2="666" y1="453.0015" y2="449.0015"/><line style="stroke:#000000;stroke-width:1.0;" x1="676" x2="666" y1="453.0015" y2="457.0015"/><line style="stroke:#000000;stroke-width:1.0;stroke-dasharray:2.0,2.0;" x1="261" x2="677" y1="453.0015" y2="453.0015"/><text fill="#000000" font-family="Lato,sans-serif" font-size="12" lengthAdjust="spacing" textLength="81" x="268" y="448.4455">Request reboot</text><rect fill="#EEEEEE" height="3" rx="4" ry="4" style="stroke:#EEEEEE;stroke-width:1.0;" width="678" x="0" y="481.2016"/><line style="stroke:#000000;stroke-width:1.0;" x1="0" x2="678" y1="481.2016" y2="481.2016"/><line style="stroke:#000000;stroke-width:1.0;" x1="0" x2="678" y1="484.2016" y2="484.2016"/><rect fill="#EEEEEE" height="22.4001" rx="4" ry="4" style="stroke:#000000;stroke-width:2.0;" width="98" x="290" y="471.0015"/><text fill="#000000" font-family="Lato,sans-serif" font-size="12" font-weight="bold" lengthAdjust="spacing" textLength="82" x="296" y="486.8456">System restarts</text><line style="stroke:#000000;stroke-width:1.0;" x1="572" x2="582" y1="523.8017" y2="519.8017"/><line style="stroke:#000000;stroke-width:1.0;" x1="572" x2="582" y1="523.8017" y2="527.8017"/><line style="stroke:#000000;stroke-width:1.0;stroke-dasharray:2.0,2.0;" x1="571" x2="677" y1="523.8017" y2="523.8017"/><text fill="#000000" font-family="Lato,sans-serif" font-size="12" lengthAdjust="spacing" textLength="63" x="588" y="519.2457">Device boot</text><line style="stroke:#000000;stroke-width:1.0;" x1="571" x2="613" y1="552.2018" y2="552.2018"/><line style="stroke:#000000;stroke-width:1.0;" x1="613" x2="613" y1="552.2018" y2="565.2018"/><line style="stroke:#000000;stroke-width:1.0;" x1="572" x2="613" y1="565.2018" y2="565.2018"/><line style="stroke:#000000;stroke-width:1.0;" x1="572" x2="582" y1="565.2018" y2="561.2018"/><line style="stroke:#000000;stroke-width:1.0;" x1="572" x2="582" y1="565.2018" y2="569.2018"/><text fill="#000000" font-family="Lato,sans-serif" font-size="12" lengthAdjust="spacing" textLength="88" x="578" y="547.6458">Process manifest</text><line style="stroke:#000000;stroke-width:1.0;" x1="571" x2="613" y1="593.6019" y2="593.6019"/><line style="stroke:#000000;stroke-width:1.0;" x1="613" x2="613" y1="593.6019" y2="606.6019"/><line style="stroke:#000000;stroke-width:1.0;" x1="572" x2="613" y1="606.6019" y2="606.6019"/><line style="stroke:#000000;stroke-width:1.0;" x1="572" x2="582" y1="606.6019" y2="602.6019"/><line style="stroke:#000000;stroke-width:1.0;" x1="572" x2="582" y1="606.6019" y2="610.6019"/><text fill="#000000" font-family="Lato,sans-serif" font-size="12" lengthAdjust="spacing" textLength="81" x="578" y="589.0459">Install payloads</text></g></svg>