<?xml version="1.0" encoding="UTF-8" standalone="no"?><svg xmlns="http://www.w3.org/2000/svg" xmlns:xlink="http://www.w3.org/1999/xlink" contentStyleType="text/css" height="569px" preserveAspectRatio="none" style="width:692px;height:569px;background:#FFFFFF55;" version="1.1" viewBox="0 0 692 569" width="692px" zoomAndPan="magnify"><defs/><g><rect fill="#FFFFFF" height="142.9604" rx="4" ry="4" style="stroke:#808080;stroke-width:1.0;" width="536" x="10" y="192.3525"/><line style="stroke:#808080;stroke-width:0.5;stroke-dasharray:5.0,5.0;" x1="64" x2="64" y1="48.7842" y2="562.6655"/><line style="stroke:#808080;stroke-width:0.5;stroke-dasharray:5.0,5.0;" x1="256" x2="256" y1="48.7842" y2="562.6655"/><line style="stroke:#808080;stroke-width:0.5;stroke-dasharray:5.0,5.0;" x1="345" x2="345" y1="48.7842" y2="562.6655"/><line style="stroke:#808080;stroke-width:0.5;stroke-dasharray:5.0,5.0;" x1="439" x2="439" y1="48.7842" y2="562.6655"/><line style="stroke:#808080;stroke-width:0.5;stroke-dasharray:5.0,5.0;" x1="555" x2="555" y1="48.7842" y2="562.6655"/><rect fill="#FFFFFF" height="28.3921" rx="4" ry="4" style="stroke:#000000;stroke-width:1.0;" width="88" x="20" y="19.3921"/><text fill="#000000" font-family="Lato,sans-serif" font-size="12" lengthAdjust="spacing" textLength="74" x="27" y="38.2296">Update server</text><rect fill="#FFFFFF" height="28.3921" rx="4" ry="4" style="stroke:#000000;stroke-width:1.0;" width="84" x="214" y="19.3921"/><text fill="#000000" font-family="Lato,sans-serif" font-size="12" lengthAdjust="spacing" textLength="70" x="221" y="38.2296">Update client</text><rect fill="#FFFFFF" height="42.7842" rx="4" ry="4" style="stroke:#000000;stroke-width:1.0;" width="74" x="308" y="5"/><text fill="#000000" font-family="Lato,sans-serif" font-size="12" lengthAdjust="spacing" textLength="51" x="319.5" y="23.8375">Firmware</text><text fill="#000000" font-family="Lato,sans-serif" font-size="12" lengthAdjust="spacing" textLength="60" x="315" y="38.2296">Update API</text><rect fill="#FFFFFF" height="28.3921" rx="4" ry="4" style="stroke:#000000;stroke-width:1.0;" width="92" x="393" y="19.3921"/><text fill="#000000" font-family="Lato,sans-serif" font-size="12" lengthAdjust="spacing" textLength="78" x="400" y="38.2296">Update service</text><rect fill="#FFFFFF" height="28.3921" rx="4" ry="4" style="stroke:#000000;stroke-width:1.0;" width="121" x="495" y="19.3921"/><text fill="#000000" font-family="Lato,sans-serif" font-size="12" lengthAdjust="spacing" textLength="107" x="502" y="38.2296">Installer/Bootloader</text><line style="stroke:#000000;stroke-width:1.0;" x1="254" x2="244" y1="79.1763" y2="75.1763"/><line style="stroke:#000000;stroke-width:1.0;" x1="254" x2="244" y1="79.1763" y2="83.1763"/><line style="stroke:#000000;stroke-width:1.0;" x1="64" x2="255" y1="79.1763" y2="79.1763"/><text fill="#000000" font-family="Lato,sans-serif" font-size="12" lengthAdjust="spacing" textLength="168" x="71" y="74.6217">Notify that an update is available</text><line style="stroke:#000000;stroke-width:1.0;" x1="254" x2="244" y1="107.5684" y2="103.5684"/><line style="stroke:#000000;stroke-width:1.0;" x1="254" x2="244" y1="107.5684" y2="111.5684"/><line style="stroke:#000000;stroke-width:1.0;" x1="64" x2="255" y1="107.5684" y2="107.5684"/><text fill="#000000" font-family="Lato,sans-serif" font-size="12" lengthAdjust="spacing" textLength="133" x="71" y="103.0138">Download SUIT envelope</text><line style="stroke:#000000;stroke-width:1.0;" x1="437" x2="427" y1="135.9604" y2="131.9604"/><line style="stroke:#000000;stroke-width:1.0;" x1="437" x2="427" y1="135.9604" y2="139.9604"/><line style="stroke:#000000;stroke-width:1.0;" x1="256" x2="438" y1="135.9604" y2="135.9604"/><text fill="#000000" font-family="Lato,sans-serif" font-size="12" lengthAdjust="spacing" textLength="95" x="263" y="131.4059">Transfer envelope</text><line style="stroke:#000000;stroke-width:1.0;" x1="439" x2="481" y1="164.3525" y2="164.3525"/><line style="stroke:#000000;stroke-width:1.0;" x1="481" x2="481" y1="164.3525" y2="177.3525"/><line style="stroke:#000000;stroke-width:1.0;" x1="440" x2="481" y1="177.3525" y2="177.3525"/><line style="stroke:#000000;stroke-width:1.0;" x1="440" x2="450" y1="177.3525" y2="173.3525"/><line style="stroke:#000000;stroke-width:1.0;" x1="440" x2="450" y1="177.3525" y2="181.3525"/><text fill="#000000" font-family="Lato,sans-serif" font-size="12" lengthAdjust="spacing" textLength="88" x="446" y="159.7979">Process manifest</text><path d="M14,192.3525 L79,192.3525 L79,198.7446 L69,208.7446 L10,208.7446 L10,196.3525 A4,4 0 0 1 14,192.3525 " fill="#F0F0F0" style="stroke:#808080;stroke-width:1.5;"/><rect fill="none" height="142.9604" rx="4" ry="4" style="stroke:#808080;stroke-width:1.0;" width="536" x="10" y="192.3525"/><text fill="#000000" font-family="Lato,sans-serif" font-size="12" lengthAdjust="spacing" textLength="24" x="25" y="205.19">loop</text><text fill="#000000" font-family="Lato,sans-serif" font-size="11" font-weight="bold" lengthAdjust="spacing" textLength="100" x="94" y="205.196">[while need payload]</text><line style="stroke:#000000;stroke-width:1.0;" x1="257" x2="267" y1="229.1367" y2="225.1367"/><line style="stroke:#000000;stroke-width:1.0;" x1="257" x2="267" y1="229.1367" y2="233.1367"/><line style="stroke:#000000;stroke-width:1.0;" x1="256" x2="438" y1="229.1367" y2="229.1367"/><text fill="#000000" font-family="Lato,sans-serif" font-size="12" lengthAdjust="spacing" textLength="87" x="273" y="224.5821">Request payload</text><line style="stroke:#000000;stroke-width:1.0;" x1="254" x2="244" y1="257.5288" y2="253.5288"/><line style="stroke:#000000;stroke-width:1.0;" x1="254" x2="244" y1="257.5288" y2="261.5288"/><line style="stroke:#000000;stroke-width:1.0;" x1="64" x2="255" y1="257.5288" y2="257.5288"/><text fill="#000000" font-family="Lato,sans-serif" font-size="12" lengthAdjust="spacing" textLength="99" x="71" y="252.9742">Download payload</text><line style="stroke:#000000;stroke-width:1.0;" x1="437" x2="427" y1="285.9209" y2="281.9209"/><line style="stroke:#000000;stroke-width:1.0;" x1="437" x2="427" y1="285.9209" y2="289.9209"/><line style="stroke:#000000;stroke-width:1.0;" x1="256" x2="438" y1="285.9209" y2="285.9209"/><text fill="#000000" font-family="Lato,sans-serif" font-size="12" lengthAdjust="spacing" textLength="89" x="263" y="281.3663">Transfer payload</text><line style="stroke:#000000;stroke-width:1.0;" x1="439" x2="481" y1="314.313" y2="314.313"/><line style="stroke:#000000;stroke-width:1.0;" x1="481" x2="481" y1="314.313" y2="327.313"/><line style="stroke:#000000;stroke-width:1.0;" x1="440" x2="481" y1="327.313" y2="327.313"/><line style="stroke:#000000;stroke-width:1.0;" x1="440" x2="450" y1="327.313" y2="323.313"/><line style="stroke:#000000;stroke-width:1.0;" x1="440" x2="450" y1="327.313" y2="331.313"/><text fill="#000000" font-family="Lato,sans-serif" font-size="12" lengthAdjust="spacing" textLength="88" x="446" y="309.7584">Process manifest</text><line style="stroke:#000000;stroke-width:1.0;" x1="257" x2="267" y1="362.7051" y2="358.7051"/><line style="stroke:#000000;stroke-width:1.0;" x1="257" x2="267" y1="362.7051" y2="366.7051"/><line style="stroke:#000000;stroke-width:1.0;" x1="256" x2="438" y1="362.7051" y2="362.7051"/><text fill="#000000" font-family="Lato,sans-serif" font-size="12" lengthAdjust="spacing" textLength="159" x="273" y="358.1505">Envelope processing complete</text><line style="stroke:#000000;stroke-width:1.0;" x1="65" x2="75" y1="391.0972" y2="387.0972"/><line style="stroke:#000000;stroke-width:1.0;" x1="65" x2="75" y1="391.0972" y2="395.0972"/><line style="stroke:#000000;stroke-width:1.0;" x1="64" x2="255" y1="391.0972" y2="391.0972"/><text fill="#000000" font-family="Lato,sans-serif" font-size="12" lengthAdjust="spacing" textLength="143" x="81" y="386.5426">Report download complete</text><line style="stroke:#000000;stroke-width:1.0;" x1="254" x2="244" y1="419.4893" y2="415.4893"/><line style="stroke:#000000;stroke-width:1.0;" x1="254" x2="244" y1="419.4893" y2="423.4893"/><line style="stroke:#000000;stroke-width:1.0;" x1="64" x2="255" y1="419.4893" y2="419.4893"/><text fill="#000000" font-family="Lato,sans-serif" font-size="12" lengthAdjust="spacing" textLength="126" x="71" y="414.9347">Request to apply update</text><rect fill="#EEEEEE" height="3" rx="4" ry="4" style="stroke:#EEEEEE;stroke-width:1.0;" width="685.5" x="0" y="447.6853"/><line style="stroke:#000000;stroke-width:1.0;" x1="0" x2="685.5" y1="447.6853" y2="447.6853"/><line style="stroke:#000000;stroke-width:1.0;" x1="0" x2="685.5" y1="450.6853" y2="450.6853"/><rect fill="#EEEEEE" height="22.3921" rx="4" ry="4" style="stroke:#000000;stroke-width:2.0;" width="98" x="293.75" y="437.4893"/><text fill="#000000" font-family="Lato,sans-serif" font-size="12" font-weight="bold" lengthAdjust="spacing" textLength="82" x="299.75" y="453.3268">System restarts</text><line style="stroke:#000000;stroke-width:1.0;" x1="555.5" x2="597.5" y1="490.2734" y2="490.2734"/><line style="stroke:#000000;stroke-width:1.0;" x1="597.5" x2="597.5" y1="490.2734" y2="503.2734"/><line style="stroke:#000000;stroke-width:1.0;" x1="556.5" x2="597.5" y1="503.2734" y2="503.2734"/><line style="stroke:#000000;stroke-width:1.0;" x1="556.5" x2="566.5" y1="503.2734" y2="499.2734"/><line style="stroke:#000000;stroke-width:1.0;" x1="556.5" x2="566.5" y1="503.2734" y2="507.2734"/><text fill="#000000" font-family="Lato,sans-serif" font-size="12" lengthAdjust="spacing" textLength="116" x="562.5" y="485.7188">Process SUIT manifest</text><line style="stroke:#000000;stroke-width:1.0;" x1="555.5" x2="597.5" y1="531.6655" y2="531.6655"/><line style="stroke:#000000;stroke-width:1.0;" x1="597.5" x2="597.5" y1="531.6655" y2="544.6655"/><line style="stroke:#000000;stroke-width:1.0;" x1="556.5" x2="597.5" y1="544.6655" y2="544.6655"/><line style="stroke:#000000;stroke-width:1.0;" x1="556.5" x2="566.5" y1="544.6655" y2="540.6655"/><line style="stroke:#000000;stroke-width:1.0;" x1="556.5" x2="566.5" y1="544.6655" y2="548.6655"/><text fill="#000000" font-family="Lato,sans-serif" font-size="12" lengthAdjust="spacing" textLength="81" x="562.5" y="527.1109">Install payloads</text></g></svg>