<?xml version="1.0" encoding="UTF-8" standalone="no"?><svg xmlns="http://www.w3.org/2000/svg" xmlns:xlink="http://www.w3.org/1999/xlink" contentStyleType="text/css" height="463px" preserveAspectRatio="none" style="width:501px;height:463px;background:#FFFFFF55;" version="1.1" viewBox="0 0 501 463" width="501px" zoomAndPan="magnify"><defs/><g><rect fill="#E0E0E0" fill-opacity="0.75294" height="444.6014" rx="4" ry="4" style="stroke:none;stroke-width:0.5;" width="96" x="16" y="6"/><text fill="#000000" font-family="Lato,sans-serif" font-size="12" font-weight="bold" lengthAdjust="spacing" textLength="48" x="40" y="17.8441">Network</text><rect fill="#E0E0E0" fill-opacity="0.75294" height="444.6014" rx="4" ry="4" style="stroke:none;stroke-width:0.5;" width="265" x="140" y="6"/><text fill="#000000" font-family="Lato,sans-serif" font-size="12" font-weight="bold" lengthAdjust="spacing" textLength="36" x="254.5" y="17.8441">Device</text><rect fill="#FFFFFF" height="226.8007" style="stroke:#808080;stroke-width:1.0;" width="10" x="187" y="183.4006"/><rect fill="#FFFFFF" height="20.4001" style="stroke:#808080;stroke-width:1.0;" width="10" x="287" y="63.8002"/><rect fill="#FFFFFF" height="283.6009" style="stroke:#808080;stroke-width:1.0;" width="10" x="367.5" y="155.0005"/><rect fill="#FFFFFF" fill-opacity="0.50196" height="143.0005" rx="4" ry="4" style="stroke:#808080;stroke-width:1.0;" width="474.5" x="10" y="239.8007"/><line style="stroke:#808080;stroke-width:0.5;stroke-dasharray:5.0,5.0;" x1="64" x2="64" y1="53.8002" y2="456.6014"/><line style="stroke:#808080;stroke-width:0.5;stroke-dasharray:5.0,5.0;" x1="192" x2="192" y1="53.8002" y2="456.6014"/><line style="stroke:#808080;stroke-width:0.5;stroke-dasharray:5.0,5.0;" x1="292" x2="292" y1="53.8002" y2="456.6014"/><line style="stroke:#808080;stroke-width:0.5;stroke-dasharray:5.0,5.0;" x1="372" x2="372" y1="53.8002" y2="456.6014"/><rect fill="#FFFFFF" height="28.4001" rx="4" ry="4" style="stroke:#000000;stroke-width:1.0;" width="88" x="20" y="24.4001"/><text fill="#000000" font-family="Lato,sans-serif" font-size="12" lengthAdjust="spacing" textLength="74" x="27" y="43.2442">Update server</text><rect fill="#FFFFFF" height="28.4001" rx="4" ry="4" style="stroke:#000000;stroke-width:1.0;" width="96" x="144" y="24.4001"/><text fill="#000000" font-family="Lato,sans-serif" font-size="12" lengthAdjust="spacing" textLength="82" x="151" y="43.2442">Payload fetcher</text><rect fill="#FFFFFF" height="28.4001" rx="4" ry="4" style="stroke:#000000;stroke-width:1.0;" width="84" x="250" y="24.4001"/><text fill="#000000" font-family="Lato,sans-serif" font-size="12" lengthAdjust="spacing" textLength="70" x="257" y="43.2442">Update client</text><rect fill="#FFFFFF" height="28.4001" rx="4" ry="4" style="stroke:#000000;stroke-width:1.0;" width="57" x="344" y="24.4001"/><text fill="#000000" font-family="Lato,sans-serif" font-size="12" lengthAdjust="spacing" textLength="43" x="351" y="43.2442">Installer</text><rect fill="#FFFFFF" height="226.8007" style="stroke:#808080;stroke-width:1.0;" width="10" x="187" y="183.4006"/><rect fill="#FFFFFF" height="20.4001" style="stroke:#808080;stroke-width:1.0;" width="10" x="287" y="63.8002"/><rect fill="#FFFFFF" height="283.6009" style="stroke:#808080;stroke-width:1.0;" width="10" x="367.5" y="155.0005"/><line style="stroke:#000000;stroke-width:1.0;" x1="492.5" x2="482.5" y1="84.2003" y2="80.2003"/><line style="stroke:#000000;stroke-width:1.0;" x1="492.5" x2="482.5" y1="84.2003" y2="88.2003"/><line style="stroke:#000000;stroke-width:1.0;stroke-dasharray:2.0,2.0;" x1="292" x2="493.5" y1="84.2003" y2="84.2003"/><text fill="#000000" font-family="Lato,sans-serif" font-size="12" lengthAdjust="spacing" textLength="81" x="299" y="79.6443">Request reboot</text><rect fill="#EEEEEE" height="3" rx="4" ry="4" style="stroke:#EEEEEE;stroke-width:1.0;" width="494.5" x="0" y="112.4004"/><line style="stroke:#000000;stroke-width:1.0;" x1="0" x2="494.5" y1="112.4004" y2="112.4004"/><line style="stroke:#000000;stroke-width:1.0;" x1="0" x2="494.5" y1="115.4004" y2="115.4004"/><rect fill="#EEEEEE" height="22.4001" rx="4" ry="4" style="stroke:#000000;stroke-width:2.0;" width="98" x="198.25" y="102.2003"/><text fill="#000000" font-family="Lato,sans-serif" font-size="12" font-weight="bold" lengthAdjust="spacing" textLength="82" x="204.25" y="118.0444">System restarts</text><line style="stroke:#000000;stroke-width:1.0;" x1="378.5" x2="388.5" y1="155.0005" y2="151.0005"/><line style="stroke:#000000;stroke-width:1.0;" x1="378.5" x2="388.5" y1="155.0005" y2="159.0005"/><line style="stroke:#000000;stroke-width:1.0;stroke-dasharray:2.0,2.0;" x1="377.5" x2="493.5" y1="155.0005" y2="155.0005"/><text fill="#000000" font-family="Lato,sans-serif" font-size="12" lengthAdjust="spacing" textLength="63" x="394.5" y="150.4445">Device boot</text><line style="stroke:#000000;stroke-width:1.0;" x1="198" x2="208" y1="183.4006" y2="179.4006"/><line style="stroke:#000000;stroke-width:1.0;" x1="198" x2="208" y1="183.4006" y2="187.4006"/><line style="stroke:#000000;stroke-width:1.0;" x1="197" x2="366.5" y1="183.4006" y2="183.4006"/><text fill="#000000" font-family="Lato,sans-serif" font-size="12" lengthAdjust="spacing" textLength="65" x="214" y="178.8446">Start fetcher</text><line style="stroke:#000000;stroke-width:1.0;" x1="377.5" x2="419.5" y1="211.8007" y2="211.8007"/><line style="stroke:#000000;stroke-width:1.0;" x1="419.5" x2="419.5" y1="211.8007" y2="224.8007"/><line style="stroke:#000000;stroke-width:1.0;" x1="378.5" x2="419.5" y1="224.8007" y2="224.8007"/><line style="stroke:#000000;stroke-width:1.0;" x1="378.5" x2="388.5" y1="224.8007" y2="220.8007"/><line style="stroke:#000000;stroke-width:1.0;" x1="378.5" x2="388.5" y1="224.8007" y2="228.8007"/><text fill="#000000" font-family="Lato,sans-serif" font-size="12" lengthAdjust="spacing" textLength="88" x="384.5" y="207.2447">Process manifest</text><path d="M14,239.8007 L79,239.8007 L79,246.2008 L69,256.2008 L10,256.2008 L10,243.8007 A4,4 0 0 1 14,239.8007 " fill="#F0F0F0" style="stroke:#808080;stroke-width:1.5;"/><rect fill="none" height="143.0005" rx="4" ry="4" style="stroke:#808080;stroke-width:1.0;" width="474.5" x="10" y="239.8007"/><text fill="#000000" font-family="Lato,sans-serif" font-size="12" lengthAdjust="spacing" textLength="24" x="25" y="252.6448">loop</text><text fill="#000000" font-family="Lato,sans-serif" font-size="11" font-weight="bold" lengthAdjust="spacing" textLength="100" x="94" y="252.6579">[while need payload]</text><line style="stroke:#000000;stroke-width:1.0;" x1="198" x2="208" y1="276.6009" y2="272.6009"/><line style="stroke:#000000;stroke-width:1.0;" x1="198" x2="208" y1="276.6009" y2="280.6009"/><line style="stroke:#000000;stroke-width:1.0;" x1="197" x2="366.5" y1="276.6009" y2="276.6009"/><text fill="#000000" font-family="Lato,sans-serif" font-size="12" lengthAdjust="spacing" textLength="87" x="214" y="272.0449">Request payload</text><line style="stroke:#000000;stroke-width:1.0;" x1="185" x2="175" y1="305.001" y2="301.001"/><line style="stroke:#000000;stroke-width:1.0;" x1="185" x2="175" y1="305.001" y2="309.001"/><line style="stroke:#000000;stroke-width:1.0;" x1="64" x2="186" y1="305.001" y2="305.001"/><text fill="#000000" font-family="Lato,sans-serif" font-size="12" lengthAdjust="spacing" textLength="99" x="71" y="300.445">Download payload</text><line style="stroke:#000000;stroke-width:1.0;" x1="365.5" x2="355.5" y1="333.4011" y2="329.4011"/><line style="stroke:#000000;stroke-width:1.0;" x1="365.5" x2="355.5" y1="333.4011" y2="337.4011"/><line style="stroke:#000000;stroke-width:1.0;" x1="197" x2="366.5" y1="333.4011" y2="333.4011"/><text fill="#000000" font-family="Lato,sans-serif" font-size="12" lengthAdjust="spacing" textLength="89" x="204" y="328.8451">Transfer payload</text><line style="stroke:#000000;stroke-width:1.0;" x1="377.5" x2="419.5" y1="361.8012" y2="361.8012"/><line style="stroke:#000000;stroke-width:1.0;" x1="419.5" x2="419.5" y1="361.8012" y2="374.8012"/><line style="stroke:#000000;stroke-width:1.0;" x1="378.5" x2="419.5" y1="374.8012" y2="374.8012"/><line style="stroke:#000000;stroke-width:1.0;" x1="378.5" x2="388.5" y1="374.8012" y2="370.8012"/><line style="stroke:#000000;stroke-width:1.0;" x1="378.5" x2="388.5" y1="374.8012" y2="378.8012"/><text fill="#000000" font-family="Lato,sans-serif" font-size="12" lengthAdjust="spacing" textLength="88" x="384.5" y="357.2452">Process manifest</text><line style="stroke:#000000;stroke-width:1.0;" x1="193" x2="203" y1="410.2013" y2="406.2013"/><line style="stroke:#000000;stroke-width:1.0;" x1="193" x2="203" y1="410.2013" y2="414.2013"/><line style="stroke:#000000;stroke-width:1.0;" x1="192" x2="366.5" y1="410.2013" y2="410.2013"/><text fill="#000000" font-family="Lato,sans-serif" font-size="12" lengthAdjust="spacing" textLength="138" x="209" y="405.6453">Payload fetching complete</text><line style="stroke:#000000;stroke-width:1.0;" x1="211.5" x2="221.5" y1="438.6014" y2="434.6014"/><line style="stroke:#000000;stroke-width:1.0;" x1="211.5" x2="221.5" y1="438.6014" y2="442.6014"/><line style="stroke:#000000;stroke-width:1.0;" x1="210.5" x2="371.5" y1="438.6014" y2="438.6014"/><text fill="#000000" font-family="Lato,sans-serif" font-size="12" lengthAdjust="spacing" textLength="138" x="227.5" y="434.0454">Execute installed firmware</text></g></svg>