<svg xmlns="http://www.w3.org/2000/svg" xmlns:xlink="http://www.w3.org/1999/xlink" contentStyleType="text/css" data-diagram-type="DESCRIPTION" height="223px" preserveAspectRatio="none" style="width:679px;height:223px;background:#FFFFFF55;" version="1.1" viewBox="0 0 679 223" width="679px" zoomAndPan="magnify"><defs/><g><rect fill="#FFFFFF" fill-opacity="0.33333" height="223" style="stroke:none;stroke-width:1;" width="679" x="0" y="0"/><g class="cluster" data-entity="##3" data-source-line="14" data-uid="ent0004" id="cluster_##3"><rect fill="#FFFFFF" fill-opacity="0.56471" height="210.8" style="stroke:#8B0000;stroke-width:1;stroke-dasharray:7.0,7.0;" width="490" x="183.78" y="7"/><text fill="#000000" font-family="Lato,sans-serif" font-size="11" font-style="italic" lengthAdjust="spacing" textLength="87.9835" x="384.7883" y="19.857">&#171;System boundary&#187;</text></g><!--entity app--><g class="entity" data-entity="app" data-source-line="9" data-uid="ent0005" id="entity_app"><rect fill="#FFFFFF" height="34.4" rx="35" ry="35" style="stroke:#000000;stroke-width:1;" width="79.664" x="199.95" y="43.5"/><text fill="#000000" font-family="Lato,sans-serif" font-size="12" lengthAdjust="spacing" textLength="59.664" x="209.95" y="65.344">Application</text></g><!--entity crypto--><g class="entity" data-entity="crypto" data-source-line="10" data-uid="ent0006" id="entity_crypto"><rect fill="#FFFFFF" height="34.4" rx="35" ry="35" style="stroke:#000000;stroke-width:1;" width="107.93" x="393.82" y="43.5"/><text fill="#000000" font-family="Lato,sans-serif" font-size="12" lengthAdjust="spacing" textLength="87.93" x="403.82" y="65.344">Cryptoprocessor</text></g><!--entity keys--><g class="entity" data-entity="keys" data-source-line="11" data-uid="ent0007" id="entity_keys"><path d="M585.85,49 C585.85,39 621.782,39 621.782,39 C621.782,39 657.714,39 657.714,49 L657.714,72.4 C657.714,82.4 621.782,82.4 621.782,82.4 C621.782,82.4 585.85,82.4 585.85,72.4 L585.85,49" fill="#FFFFFF" style="stroke:#000000;stroke-width:1;"/><path d="M585.85,49 C585.85,59 621.782,59 621.782,59 C621.782,59 657.714,59 657.714,49" fill="none" style="stroke:#000000;stroke-width:1;"/><text fill="#000000" font-family="Lato,sans-serif" font-size="12" lengthAdjust="spacing" textLength="51.864" x="595.85" y="74.844">Key Store</text></g><!--entity nvm--><g class="entity" data-entity="nvm" data-source-line="12" data-uid="ent0008" id="entity_nvm"><path d="M215.57,168.4 C215.57,158.4 239.784,158.4 239.784,158.4 C239.784,158.4 263.998,158.4 263.998,168.4 L263.998,191.8 C263.998,201.8 239.784,201.8 239.784,201.8 C239.784,201.8 215.57,201.8 215.57,191.8 L215.57,168.4" fill="#FFFFFF" style="stroke:#000000;stroke-width:1;"/><path d="M215.57,168.4 C215.57,178.4 239.784,178.4 239.784,178.4 C239.784,178.4 263.998,178.4 263.998,168.4" fill="none" style="stroke:#000000;stroke-width:1;"/><text fill="#000000" font-family="Lato,sans-serif" font-size="12" lengthAdjust="spacing" textLength="28.428" x="225.57" y="194.244">NVM</text></g><!--entity ext--><g class="entity" data-entity="ext" data-source-line="7" data-uid="ent0002" id="entity_ext"><rect fill="#FFFFFF" height="34.4" rx="4" ry="4" style="stroke:#000000;stroke-width:1;" width="103.562" x="7" y="43.5"/><text fill="#000000" font-family="Lato,sans-serif" font-size="12" lengthAdjust="spacing" textLength="83.562" x="17" y="65.344">External system</text></g><!--link ext to app--><g class="link" data-entity-1="ext" data-entity-2="app" data-source-line="15" data-uid="lnk9" id="link_ext_app"><path d="M116.65,60.7 C144.96,60.7 167.48,60.7 193.7,60.7" fill="none" id="ext-app" style="stroke:#000000;stroke-width:1;"/><polygon fill="#000000" points="110.65,60.7,119.65,64.7,115.65,60.7,119.65,56.7,110.65,60.7" style="stroke:#000000;stroke-width:1;"/><polygon fill="#000000" points="199.7,60.7,190.7,56.7,194.7,60.7,190.7,64.7,199.7,60.7" style="stroke:#000000;stroke-width:1;"/><text fill="#000000" font-family="Lato,sans-serif" font-size="12" lengthAdjust="spacing" textLength="53.652" x="128.76" y="54.544">ciphertext</text></g><!--link app to crypto--><g class="link" data-entity-1="app" data-entity-2="crypto" data-source-line="16" data-uid="lnk10" id="link_app_crypto"><path d="M279.89,60.7 C312.23,60.7 352.04,60.7 387.64,60.7" fill="none" id="app-to-crypto" style="stroke:#000000;stroke-width:1;"/><polygon fill="#000000" points="393.64,60.7,384.64,56.7,388.64,60.7,384.64,64.7,393.64,60.7" style="stroke:#000000;stroke-width:1;"/><text fill="#000000" font-family="Lato,sans-serif" font-size="12" lengthAdjust="spacing" textLength="78.594" x="297.71" y="54.544">Crypto API call</text></g><!--reverse link app to crypto--><g class="link" data-entity-1="app" data-entity-2="crypto" data-source-line="17" data-uid="lnk11" id="link_app_crypto"><path d="M285.8381,74.7152 C296.2181,77.4052 301.64,78.34 312.21,79.7 C338.97,83.15 368.65,79.81 393.4,75.01" fill="none" id="app-backto-crypto" style="stroke:#000000;stroke-width:1;"/><polygon fill="#000000" points="280.03,73.21,287.7387,79.3399,284.8701,74.4643,289.7457,71.5957,280.03,73.21" style="stroke:#000000;stroke-width:1;"/><text fill="#000000" font-family="Lato,sans-serif" font-size="12" lengthAdjust="spacing" textLength="47.658" x="313.21" y="76.544">response</text></g><!--link crypto to keys--><g class="link" data-entity-1="crypto" data-entity-2="keys" data-source-line="18" data-uid="lnk12" id="link_crypto_keys"><path d="M501.88,60.7 C529.12,60.7 555.4,60.7 579.6,60.7" fill="none" id="crypto-to-keys" style="stroke:#000000;stroke-width:1;"/><polygon fill="#000000" points="585.6,60.7,576.6,56.7,580.6,60.7,576.6,64.7,585.6,60.7" style="stroke:#000000;stroke-width:1;"/><text fill="#000000" font-family="Lato,sans-serif" font-size="12" lengthAdjust="spacing" textLength="48.696" x="519.8" y="54.544">store key</text></g><!--reverse link crypto to keys--><g class="link" data-entity-1="crypto" data-entity-2="keys" data-source-line="19" data-uid="lnk13" id="link_crypto_keys"><path d="M507.9027,78.0106 C528.2327,82.0906 545.65,83.25 566.8,79.7 C572.97,78.66 579.38,77.01 585.55,75.11" fill="none" id="crypto-backto-keys" style="stroke:#000000;stroke-width:1;"/><polygon fill="#000000" points="502.02,76.83,510.057,82.5227,506.9223,77.8138,511.6311,74.6791,502.02,76.83" style="stroke:#000000;stroke-width:1;"/><text fill="#000000" font-family="Lato,sans-serif" font-size="12" lengthAdjust="spacing" textLength="44.01" x="521.8" y="76.544">load key</text></g><!--link app to nvm--><g class="link" data-entity-1="app" data-entity-2="nvm" data-source-line="20" data-uid="lnk14" id="link_app_nvm"><path d="M239.78,84.27 C239.78,105.26 239.78,129.42 239.78,152.26" fill="none" id="app-nvm" style="stroke:#000000;stroke-width:1;"/><polygon fill="#000000" points="239.78,78.27,235.78,87.27,239.78,83.27,243.78,87.27,239.78,78.27" style="stroke:#000000;stroke-width:1;"/><polygon fill="#000000" points="239.78,158.26,243.78,149.26,239.78,153.26,235.78,149.26,239.78,158.26" style="stroke:#000000;stroke-width:1;"/><text fill="#000000" font-family="Lato,sans-serif" font-size="12" lengthAdjust="spacing" textLength="53.652" x="240.78" y="125.244">ciphertext</text></g></g></svg>