<svg xmlns="http://www.w3.org/2000/svg" xmlns:xlink="http://www.w3.org/1999/xlink" contentStyleType="text/css" data-diagram-type="SEQUENCE" height="660px" preserveAspectRatio="none" style="width:622px;height:660px;background:#FFFFFF55;" version="1.1" viewBox="0 0 622 660" width="622px" zoomAndPan="magnify"><defs><style type="text/css">@import url('https://fonts.googleapis.com/css?family=Roboto:400,100,100italic,300,300italic,400italic,500,500italic,700,700italic,900,900italic');</style></defs><g><rect fill="#FFFFFF" fill-opacity="0.33333" height="660" style="stroke:none;stroke-width:1;" width="622" x="0" y="0"/><g><title>User</title><rect fill="#000000" fill-opacity="0.00000" height="619.2969" width="8" x="151.2051" y="34.0625"/><line style="stroke:#808080;stroke-width:0.5;stroke-dasharray:5.0,5.0;" x1="155.0029" x2="155.0029" y1="34.0625" y2="653.3594"/></g><g><title>Peer</title><rect fill="#000000" fill-opacity="0.00000" height="619.2969" width="8" x="461.4453" y="34.0625"/><line style="stroke:#808080;stroke-width:0.5;stroke-dasharray:5.0,5.0;" x1="465.2637" x2="465.2637" y1="34.0625" y2="653.3594"/></g><g class="participant participant-head" data-participant="User"><rect fill="#FFFFFF" height="28.0625" rx="4" ry="4" style="stroke:#000000;stroke-width:1;" width="38.4043" x="136.0029" y="5"/><text fill="#000000" font-family="Roboto,sans-serif" font-size="12" lengthAdjust="spacing" textLength="24.4043" x="143.0029" y="23.1328">User</text></g><g class="participant participant-head" data-participant="Peer"><rect fill="#FFFFFF" height="28.0625" rx="4" ry="4" style="stroke:#000000;stroke-width:1;" width="38.3633" x="446.2637" y="5"/><text fill="#000000" font-family="Roboto,sans-serif" font-size="12" lengthAdjust="spacing" textLength="24.3633" x="453.2637" y="23.1328">Peer</text></g><path d="M138,53.0625 L138,69.0625 A4,4 0 0 0 142,73.0625 L477,73.0625 A4,4 0 0 0 481,69.0625 L481,59.0625 L471,49.0625 L142,49.0625 A4,4 0 0 0 138,53.0625" fill="#E8E8E8" style="stroke:#7D868C;stroke-width:1;"/><path d="M471,49.0625 L471,57.0625 A2,2 0 0 0 473,59.0625 L481,59.0625 L471,49.0625" fill="#E8E8E8" style="stroke:#7D868C;stroke-width:1;"/><text fill="#000000" font-family="Roboto,sans-serif" font-size="12" lengthAdjust="spacing" textLength="208.8105" x="146.2563" y="65.1953">Shared information: cipher suite, secret</text><text fill="#000000" font-family="Roboto,sans-serif" font-size="12" font-style="italic" lengthAdjust="spacing" textLength="6.0059" x="358.0435" y="65.1953">s</text><text fill="#000000" font-family="Roboto,sans-serif" font-size="12" lengthAdjust="spacing" textLength="2.3613" x="364.0493" y="65.1953">,</text><text fill="#000000" font-family="Roboto,sans-serif" font-size="12" font-style="italic" lengthAdjust="spacing" textLength="33.3926" x="369.3872" y="65.1953">UserId</text><text fill="#000000" font-family="Roboto,sans-serif" font-size="12" lengthAdjust="spacing" textLength="25.2598" x="402.7798" y="65.1953">, and</text><text fill="#000000" font-family="Roboto,sans-serif" font-size="12" font-style="italic" lengthAdjust="spacing" textLength="33.3516" x="431.0161" y="65.1953">PeerId</text><g class="message" data-participant-1="User" data-participant-2="User"><line style="stroke:#000000;stroke-width:1;" x1="155.2051" x2="197.2051" y1="131.6035" y2="131.6035"/><line style="stroke:#000000;stroke-width:1;" x1="197.2051" x2="197.2051" y1="131.6035" y2="144.6035"/><line style="stroke:#000000;stroke-width:1;" x1="156.2051" x2="197.2051" y1="144.6035" y2="144.6035"/><polygon fill="#000000" points="166.2051,140.6035,156.2051,144.6035,166.2051,148.6035" style="stroke:#000000;stroke-width:1;"/><text fill="#000000" font-family="Roboto Mono,monospace" font-size="12" lengthAdjust="spacing" textLength="115.2188" x="162.2051" y="94.6992">psa_pake_setup()</text><text fill="#000000" font-family="Roboto Mono,monospace" font-size="12" lengthAdjust="spacing" textLength="136.8223" x="162.2051" y="110.5254">psa_pake_set_user()</text><text fill="#000000" font-family="Roboto Mono,monospace" font-size="12" lengthAdjust="spacing" textLength="136.8223" x="162.2051" y="126.3516">psa_pake_set_peer()</text></g><path d="M21,161.6035 L21,205.6035 A4,4 0 0 0 25,209.6035 L284,209.6035 A4,4 0 0 0 288,205.6035 L288,167.6035 L278,157.6035 L25,157.6035 A4,4 0 0 0 21,161.6035" fill="#E8E8E8" style="stroke:#7D868C;stroke-width:1;"/><path d="M278,157.6035 L278,165.6035 A2,2 0 0 0 280,167.6035 L288,167.6035 L278,157.6035" fill="#E8E8E8" style="stroke:#7D868C;stroke-width:1;"/><text fill="#000000" font-family="Roboto,sans-serif" font-size="12" lengthAdjust="spacing" textLength="48.4102" x="27" y="173.7363">Generate</text><text fill="#000000" font-family="Roboto,sans-serif" font-size="12" font-style="italic" lengthAdjust="spacing" textLength="12.3164" x="78.3867" y="173.7363">x1</text><text fill="#000000" font-family="Roboto,sans-serif" font-size="12" lengthAdjust="spacing" textLength="19.9219" x="93.6797" y="173.7363">and</text><text fill="#000000" font-family="Roboto,sans-serif" font-size="12" font-style="italic" lengthAdjust="spacing" textLength="12.3164" x="116.5781" y="173.7363">x2</text><text fill="#000000" font-family="Roboto,sans-serif" font-size="12" lengthAdjust="spacing" textLength="111.2988" x="27" y="187.7988">Compute public keys</text><text fill="#000000" font-family="Roboto,sans-serif" font-size="12" font-style="italic" lengthAdjust="spacing" textLength="13.0781" x="141.2754" y="187.7988">g1</text><text fill="#000000" font-family="Roboto,sans-serif" font-size="12" lengthAdjust="spacing" textLength="19.9219" x="157.3301" y="187.7988">and</text><text fill="#000000" font-family="Roboto,sans-serif" font-size="12" font-style="italic" lengthAdjust="spacing" textLength="13.0781" x="180.2285" y="187.7988">g2</text><text fill="#000000" font-family="Roboto,sans-serif" font-size="12" lengthAdjust="spacing" textLength="74.0859" x="27" y="201.8613">Compute ZKP</text><text fill="#000000" font-family="Roboto,sans-serif" font-size="12" font-style="italic" lengthAdjust="spacing" textLength="37.7109" x="104.0625" y="201.8613">(V1, r1)</text><text fill="#000000" font-family="Roboto,sans-serif" font-size="12" lengthAdjust="spacing" textLength="15.082" x="144.75" y="201.8613">for</text><text fill="#000000" font-family="Roboto,sans-serif" font-size="12" font-style="italic" lengthAdjust="spacing" textLength="13.0781" x="162.8086" y="201.8613">g1</text><text fill="#000000" font-family="Roboto,sans-serif" font-size="12" lengthAdjust="spacing" textLength="19.9219" x="178.8633" y="201.8613">and</text><text fill="#000000" font-family="Roboto,sans-serif" font-size="12" font-style="italic" lengthAdjust="spacing" textLength="37.7109" x="201.7617" y="201.8613">(V2, r2)</text><text fill="#000000" font-family="Roboto,sans-serif" font-size="12" lengthAdjust="spacing" textLength="15.082" x="242.4492" y="201.8613">for</text><text fill="#000000" font-family="Roboto,sans-serif" font-size="12" font-style="italic" lengthAdjust="spacing" textLength="13.0781" x="260.5078" y="201.8613">g2</text><path d="M328,161.6035 L328,205.6035 A4,4 0 0 0 332,209.6035 L597,209.6035 A4,4 0 0 0 601,205.6035 L601,167.6035 L591,157.6035 L332,157.6035 A4,4 0 0 0 328,161.6035" fill="#E8E8E8" style="stroke:#7D868C;stroke-width:1;"/><path d="M591,157.6035 L591,165.6035 A2,2 0 0 0 593,167.6035 L601,167.6035 L591,157.6035" fill="#E8E8E8" style="stroke:#7D868C;stroke-width:1;"/><text fill="#000000" font-family="Roboto,sans-serif" font-size="12" lengthAdjust="spacing" textLength="48.4102" x="334" y="173.7363">Generate</text><text fill="#000000" font-family="Roboto,sans-serif" font-size="12" font-style="italic" lengthAdjust="spacing" textLength="12.3164" x="385.3867" y="173.7363">x3</text><text fill="#000000" font-family="Roboto,sans-serif" font-size="12" lengthAdjust="spacing" textLength="19.9219" x="400.6797" y="173.7363">and</text><text fill="#000000" font-family="Roboto,sans-serif" font-size="12" font-style="italic" lengthAdjust="spacing" textLength="12.3164" x="423.5781" y="173.7363">x4</text><text fill="#000000" font-family="Roboto,sans-serif" font-size="12" lengthAdjust="spacing" textLength="111.2988" x="334" y="187.7988">Compute public keys</text><text fill="#000000" font-family="Roboto,sans-serif" font-size="12" font-style="italic" lengthAdjust="spacing" textLength="13.0781" x="448.2754" y="187.7988">g3</text><text fill="#000000" font-family="Roboto,sans-serif" font-size="12" lengthAdjust="spacing" textLength="19.9219" x="464.3301" y="187.7988">and</text><text fill="#000000" font-family="Roboto,sans-serif" font-size="12" font-style="italic" lengthAdjust="spacing" textLength="13.0781" x="487.2285" y="187.7988">g4</text><text fill="#000000" font-family="Roboto,sans-serif" font-size="12" lengthAdjust="spacing" textLength="80.2793" x="334" y="201.8613">Compute ZKPs</text><text fill="#000000" font-family="Roboto,sans-serif" font-size="12" font-style="italic" lengthAdjust="spacing" textLength="37.7109" x="417.2559" y="201.8613">(V3, r3)</text><text fill="#000000" font-family="Roboto,sans-serif" font-size="12" lengthAdjust="spacing" textLength="15.082" x="457.9434" y="201.8613">for</text><text fill="#000000" font-family="Roboto,sans-serif" font-size="12" font-style="italic" lengthAdjust="spacing" textLength="13.0781" x="476.002" y="201.8613">g3</text><text fill="#000000" font-family="Roboto,sans-serif" font-size="12" lengthAdjust="spacing" textLength="19.9219" x="492.0566" y="201.8613">and</text><text fill="#000000" font-family="Roboto,sans-serif" font-size="12" font-style="italic" lengthAdjust="spacing" textLength="37.7109" x="514.9551" y="201.8613">(V4, r4)</text><text fill="#000000" font-family="Roboto,sans-serif" font-size="12" lengthAdjust="spacing" textLength="15.082" x="555.6426" y="201.8613">for</text><text fill="#000000" font-family="Roboto,sans-serif" font-size="12" font-style="italic" lengthAdjust="spacing" textLength="13.0781" x="573.7012" y="201.8613">g4</text><g class="message" data-participant-1="User" data-participant-2="User"><line style="stroke:#000000;stroke-width:1;" x1="155.2051" x2="197.2051" y1="236.6172" y2="236.6172"/><line style="stroke:#000000;stroke-width:1;" x1="197.2051" x2="197.2051" y1="236.6172" y2="249.6172"/><line style="stroke:#000000;stroke-width:1;" x1="156.2051" x2="197.2051" y1="249.6172" y2="249.6172"/><polygon fill="#000000" points="166.2051,245.6172,156.2051,249.6172,166.2051,253.6172" style="stroke:#000000;stroke-width:1;"/><text fill="#000000" font-family="Roboto Mono,monospace" font-size="12" lengthAdjust="spacing" textLength="122.4199" x="162.2051" y="231.3652">psa_pake_output()</text><text fill="#000000" font-family="Roboto,sans-serif" font-size="12" lengthAdjust="spacing" textLength="15.082" x="287.6016" y="231.6875">for</text><text fill="#000000" font-family="Roboto,sans-serif" font-size="12" font-style="italic" lengthAdjust="spacing" textLength="85.4941" x="305.6602" y="231.6875">g1, V1, r1, g2, V2</text><text fill="#000000" font-family="Roboto,sans-serif" font-size="12" lengthAdjust="spacing" textLength="25.2598" x="391.1543" y="231.6875">, and</text><text fill="#000000" font-family="Roboto,sans-serif" font-size="12" font-style="italic" lengthAdjust="spacing" textLength="10.4824" x="419.3906" y="231.6875">r2</text></g><g class="message" data-participant-1="User" data-participant-2="Peer"><line style="stroke:#000000;stroke-width:1;" x1="463.4453" x2="453.4453" y1="277.6797" y2="273.6797"/><line style="stroke:#000000;stroke-width:1;" x1="463.4453" x2="453.4453" y1="277.6797" y2="281.6797"/><line style="stroke:#000000;stroke-width:1;" x1="155.2051" x2="464.4453" y1="277.6797" y2="277.6797"/><text fill="#000000" font-family="Roboto,sans-serif" font-size="12" font-style="italic" lengthAdjust="spacing" textLength="109.2539" x="162.2051" y="272.75">(g1, V1, r1, g2, V2, r2)</text></g><g class="message" data-participant-1="Peer" data-participant-2="User"><line style="stroke:#000000;stroke-width:1;" x1="156.2051" x2="166.2051" y1="305.7422" y2="301.7422"/><line style="stroke:#000000;stroke-width:1;" x1="156.2051" x2="166.2051" y1="305.7422" y2="309.7422"/><line style="stroke:#000000;stroke-width:1;" x1="155.2051" x2="464.4453" y1="305.7422" y2="305.7422"/><text fill="#000000" font-family="Roboto,sans-serif" font-size="12" font-style="italic" lengthAdjust="spacing" textLength="109.2539" x="172.2051" y="300.8125">(g3, V3, r3, g4, V4, r4)</text></g><g class="message" data-participant-1="User" data-participant-2="User"><line style="stroke:#000000;stroke-width:1;" x1="155.2051" x2="197.2051" y1="335.5684" y2="335.5684"/><line style="stroke:#000000;stroke-width:1;" x1="197.2051" x2="197.2051" y1="335.5684" y2="348.5684"/><line style="stroke:#000000;stroke-width:1;" x1="156.2051" x2="197.2051" y1="348.5684" y2="348.5684"/><polygon fill="#000000" points="166.2051,344.5684,156.2051,348.5684,166.2051,352.5684" style="stroke:#000000;stroke-width:1;"/><text fill="#000000" font-family="Roboto Mono,monospace" font-size="12" lengthAdjust="spacing" textLength="115.2188" x="162.2051" y="330.3164">psa_pake_input()</text><text fill="#000000" font-family="Roboto,sans-serif" font-size="12" lengthAdjust="spacing" textLength="15.082" x="280.4004" y="330.6387">for</text><text fill="#000000" font-family="Roboto,sans-serif" font-size="12" font-style="italic" lengthAdjust="spacing" textLength="85.4941" x="298.459" y="330.6387">g3, V3, r3, g4, V4</text><text fill="#000000" font-family="Roboto,sans-serif" font-size="12" lengthAdjust="spacing" textLength="25.2598" x="383.9531" y="330.6387">, and</text><text fill="#000000" font-family="Roboto,sans-serif" font-size="12" font-style="italic" lengthAdjust="spacing" textLength="10.4824" x="412.1895" y="330.6387">r4</text></g><path d="M5,365.5684 L5,381.5684 A4,4 0 0 0 9,385.5684 L301,385.5684 A4,4 0 0 0 305,381.5684 L305,371.5684 L295,361.5684 L9,361.5684 A4,4 0 0 0 5,365.5684" fill="#E8E8E8" style="stroke:#7D868C;stroke-width:1;"/><path d="M295,361.5684 L295,369.5684 A2,2 0 0 0 297,371.5684 L305,371.5684 L295,361.5684" fill="#E8E8E8" style="stroke:#7D868C;stroke-width:1;"/><text fill="#000000" font-family="Roboto,sans-serif" font-size="12" lengthAdjust="spacing" textLength="135.4629" x="11" y="377.7012">Verify ZKPs and compute</text><text fill="#000000" font-family="Roboto,sans-serif" font-size="12" font-style="italic" lengthAdjust="spacing" textLength="7.5938" x="149.4395" y="377.7012">A</text><text fill="#000000" font-family="Roboto,sans-serif" font-size="12" lengthAdjust="spacing" textLength="45.1875" x="160.0098" y="377.7012">and ZKP</text><text fill="#000000" font-family="Roboto,sans-serif" font-size="12" font-style="italic" lengthAdjust="spacing" textLength="37.7109" x="208.1738" y="377.7012">(V5, r5)</text><text fill="#000000" font-family="Roboto,sans-serif" font-size="12" lengthAdjust="spacing" textLength="15.082" x="248.8613" y="377.7012">for</text><text fill="#000000" font-family="Roboto,sans-serif" font-size="12" font-style="italic" lengthAdjust="spacing" textLength="12.3164" x="266.9199" y="377.7012">x2</text><text fill="#000000" font-family="Roboto,sans-serif" font-size="12" lengthAdjust="spacing" textLength="5.168" x="279.2363" y="377.7012">*</text><text fill="#000000" font-family="Roboto,sans-serif" font-size="12" font-style="italic" lengthAdjust="spacing" textLength="6.0059" x="284.4043" y="377.7012">s</text><path d="M315,365.5684 L315,381.5684 A4,4 0 0 0 319,385.5684 L611,385.5684 A4,4 0 0 0 615,381.5684 L615,371.5684 L605,361.5684 L319,361.5684 A4,4 0 0 0 315,365.5684" fill="#E8E8E8" style="stroke:#7D868C;stroke-width:1;"/><path d="M605,361.5684 L605,369.5684 A2,2 0 0 0 607,371.5684 L615,371.5684 L605,361.5684" fill="#E8E8E8" style="stroke:#7D868C;stroke-width:1;"/><text fill="#000000" font-family="Roboto,sans-serif" font-size="12" lengthAdjust="spacing" textLength="135.4629" x="321" y="377.7012">Verify ZKPs and compute</text><text fill="#000000" font-family="Roboto,sans-serif" font-size="12" font-style="italic" lengthAdjust="spacing" textLength="7.2539" x="459.4395" y="377.7012">B</text><text fill="#000000" font-family="Roboto,sans-serif" font-size="12" lengthAdjust="spacing" textLength="45.1875" x="469.6699" y="377.7012">and ZKP</text><text fill="#000000" font-family="Roboto,sans-serif" font-size="12" font-style="italic" lengthAdjust="spacing" textLength="37.7109" x="517.834" y="377.7012">(V6, r6)</text><text fill="#000000" font-family="Roboto,sans-serif" font-size="12" lengthAdjust="spacing" textLength="15.082" x="558.5215" y="377.7012">for</text><text fill="#000000" font-family="Roboto,sans-serif" font-size="12" font-style="italic" lengthAdjust="spacing" textLength="12.3164" x="576.5801" y="377.7012">x4</text><text fill="#000000" font-family="Roboto,sans-serif" font-size="12" lengthAdjust="spacing" textLength="5.168" x="588.8965" y="377.7012">*</text><text fill="#000000" font-family="Roboto,sans-serif" font-size="12" font-style="italic" lengthAdjust="spacing" textLength="6.0059" x="594.0645" y="377.7012">s</text><g class="message" data-participant-1="User" data-participant-2="User"><line style="stroke:#000000;stroke-width:1;" x1="155.2051" x2="197.2051" y1="412.457" y2="412.457"/><line style="stroke:#000000;stroke-width:1;" x1="197.2051" x2="197.2051" y1="412.457" y2="425.457"/><line style="stroke:#000000;stroke-width:1;" x1="156.2051" x2="197.2051" y1="425.457" y2="425.457"/><polygon fill="#000000" points="166.2051,421.457,156.2051,425.457,166.2051,429.457" style="stroke:#000000;stroke-width:1;"/><text fill="#000000" font-family="Roboto Mono,monospace" font-size="12" lengthAdjust="spacing" textLength="122.4199" x="162.2051" y="407.2051">psa_pake_output()</text><text fill="#000000" font-family="Roboto,sans-serif" font-size="12" lengthAdjust="spacing" textLength="15.082" x="287.6016" y="407.5273">for</text><text fill="#000000" font-family="Roboto,sans-serif" font-size="12" font-style="italic" lengthAdjust="spacing" textLength="26.7832" x="305.6602" y="407.5273">A, V5</text><text fill="#000000" font-family="Roboto,sans-serif" font-size="12" lengthAdjust="spacing" textLength="25.2598" x="332.4434" y="407.5273">, and</text><text fill="#000000" font-family="Roboto,sans-serif" font-size="12" font-style="italic" lengthAdjust="spacing" textLength="10.4824" x="360.6797" y="407.5273">r5</text></g><g class="message" data-participant-1="User" data-participant-2="Peer"><line style="stroke:#000000;stroke-width:1;" x1="463.4453" x2="453.4453" y1="453.5195" y2="449.5195"/><line style="stroke:#000000;stroke-width:1;" x1="463.4453" x2="453.4453" y1="453.5195" y2="457.5195"/><line style="stroke:#000000;stroke-width:1;" x1="155.2051" x2="464.4453" y1="453.5195" y2="453.5195"/><text fill="#000000" font-family="Roboto,sans-serif" font-size="12" font-style="italic" lengthAdjust="spacing" textLength="50.543" x="162.2051" y="448.5898">(A, V5, r5)</text></g><g class="message" data-participant-1="Peer" data-participant-2="User"><line style="stroke:#000000;stroke-width:1;" x1="156.2051" x2="166.2051" y1="481.582" y2="477.582"/><line style="stroke:#000000;stroke-width:1;" x1="156.2051" x2="166.2051" y1="481.582" y2="485.582"/><line style="stroke:#000000;stroke-width:1;" x1="155.2051" x2="464.4453" y1="481.582" y2="481.582"/><text fill="#000000" font-family="Roboto,sans-serif" font-size="12" font-style="italic" lengthAdjust="spacing" textLength="50.2031" x="172.2051" y="476.6523">(B, V6, r6)</text></g><g class="message" data-participant-1="User" data-participant-2="User"><line style="stroke:#000000;stroke-width:1;" x1="155.2051" x2="197.2051" y1="511.4082" y2="511.4082"/><line style="stroke:#000000;stroke-width:1;" x1="197.2051" x2="197.2051" y1="511.4082" y2="524.4082"/><line style="stroke:#000000;stroke-width:1;" x1="156.2051" x2="197.2051" y1="524.4082" y2="524.4082"/><polygon fill="#000000" points="166.2051,520.4082,156.2051,524.4082,166.2051,528.4082" style="stroke:#000000;stroke-width:1;"/><text fill="#000000" font-family="Roboto Mono,monospace" font-size="12" lengthAdjust="spacing" textLength="115.2188" x="162.2051" y="506.1563">psa_pake_input()</text><text fill="#000000" font-family="Roboto,sans-serif" font-size="12" lengthAdjust="spacing" textLength="15.082" x="280.4004" y="506.4785">for</text><text fill="#000000" font-family="Roboto,sans-serif" font-size="12" font-style="italic" lengthAdjust="spacing" textLength="26.4434" x="298.459" y="506.4785">B, V6</text><text fill="#000000" font-family="Roboto,sans-serif" font-size="12" lengthAdjust="spacing" textLength="25.2598" x="324.9023" y="506.4785">, and</text><text fill="#000000" font-family="Roboto,sans-serif" font-size="12" font-style="italic" lengthAdjust="spacing" textLength="10.4824" x="353.1387" y="506.4785">r6</text></g><path d="M71,541.4082 L71,557.4082 A4,4 0 0 0 75,561.4082 L233,561.4082 A4,4 0 0 0 237,557.4082 L237,547.4082 L227,537.4082 L75,537.4082 A4,4 0 0 0 71,541.4082" fill="#E8E8E8" style="stroke:#7D868C;stroke-width:1;"/><path d="M227,537.4082 L227,545.4082 A2,2 0 0 0 229,547.4082 L237,547.4082 L227,537.4082" fill="#E8E8E8" style="stroke:#7D868C;stroke-width:1;"/><text fill="#000000" font-family="Roboto,sans-serif" font-size="12" lengthAdjust="spacing" textLength="129.2695" x="77" y="553.541">Verify ZKP and compute</text><text fill="#000000" font-family="Roboto,sans-serif" font-size="12" font-style="italic" lengthAdjust="spacing" textLength="13.6348" x="209.2461" y="553.541">Ka</text><path d="M381,541.4082 L381,557.4082 A4,4 0 0 0 385,561.4082 L544,561.4082 A4,4 0 0 0 548,557.4082 L548,547.4082 L538,537.4082 L385,537.4082 A4,4 0 0 0 381,541.4082" fill="#E8E8E8" style="stroke:#7D868C;stroke-width:1;"/><path d="M538,537.4082 L538,545.4082 A2,2 0 0 0 540,547.4082 L548,547.4082 L538,537.4082" fill="#E8E8E8" style="stroke:#7D868C;stroke-width:1;"/><text fill="#000000" font-family="Roboto,sans-serif" font-size="12" lengthAdjust="spacing" textLength="129.2695" x="387" y="553.541">Verify ZKP and compute</text><text fill="#000000" font-family="Roboto,sans-serif" font-size="12" font-style="italic" lengthAdjust="spacing" textLength="13.8398" x="519.2461" y="553.541">Kb</text><path d="M138,575.4707 L138,591.4707 A4,4 0 0 0 142,595.4707 L477,595.4707 A4,4 0 0 0 481,591.4707 L481,581.4707 L471,571.4707 L142,571.4707 A4,4 0 0 0 138,575.4707" fill="#E8E8E8" style="stroke:#7D868C;stroke-width:1;"/><path d="M471,571.4707 L471,579.4707 A2,2 0 0 0 473,581.4707 L481,581.4707 L471,571.4707" fill="#E8E8E8" style="stroke:#7D868C;stroke-width:1;"/><text fill="#000000" font-family="Roboto,sans-serif" font-size="12" lengthAdjust="spacing" textLength="183.4863" x="173.1509" y="587.6035">If both sides used the same secret</text><text fill="#000000" font-family="Roboto,sans-serif" font-size="12" font-style="italic" lengthAdjust="spacing" textLength="6.0059" x="359.6138" y="587.6035">s</text><text fill="#000000" font-family="Roboto,sans-serif" font-size="12" lengthAdjust="spacing" textLength="28.8633" x="365.6196" y="587.6035">, then</text><text fill="#000000" font-family="Roboto,sans-serif" font-size="12" font-style="italic" lengthAdjust="spacing" textLength="13.6348" x="397.4595" y="587.6035">Ka</text><text fill="#000000" font-family="Roboto,sans-serif" font-size="12" lengthAdjust="spacing" textLength="6.5859" x="414.0708" y="587.6035">=</text><text fill="#000000" font-family="Roboto,sans-serif" font-size="12" font-style="italic" lengthAdjust="spacing" textLength="13.8398" x="423.6333" y="587.6035">Kb</text><g class="message" data-participant-1="User" data-participant-2="User"><line style="stroke:#000000;stroke-width:1;" x1="155.2051" x2="197.2051" y1="622.3594" y2="622.3594"/><line style="stroke:#000000;stroke-width:1;" x1="197.2051" x2="197.2051" y1="622.3594" y2="635.3594"/><line style="stroke:#000000;stroke-width:1;" x1="156.2051" x2="197.2051" y1="635.3594" y2="635.3594"/><polygon fill="#000000" points="166.2051,631.3594,156.2051,635.3594,166.2051,639.3594" style="stroke:#000000;stroke-width:1;"/><text fill="#000000" font-family="Roboto Mono,monospace" font-size="12" lengthAdjust="spacing" textLength="180.0293" x="162.2051" y="617.1074">psa_pake_get_shared_key()</text><text fill="#000000" font-family="Roboto,sans-serif" font-size="12" lengthAdjust="spacing" textLength="50.7891" x="345.2109" y="617.4297">to extract</text><text fill="#000000" font-family="Roboto,sans-serif" font-size="12" font-style="italic" lengthAdjust="spacing" textLength="13.6348" x="398.9766" y="617.4297">Ka</text></g></g></svg>