<svg xmlns="http://www.w3.org/2000/svg" xmlns:xlink="http://www.w3.org/1999/xlink" contentStyleType="text/css" data-diagram-type="SEQUENCE" height="522px" preserveAspectRatio="none" style="width:916px;height:522px;background:#FFFFFF55;" version="1.1" viewBox="0 0 916 522" width="916px" zoomAndPan="magnify"><defs><style type="text/css">@import url('https://fonts.googleapis.com/css?family=Roboto:400,100,100italic,300,300italic,400italic,500,500italic,700,700italic,900,900italic');</style></defs><g><rect fill="#FFFFFF" fill-opacity="0.33333" height="522" style="stroke:none;stroke-width:1;" width="916" x="0" y="0"/><rect fill="#FFFFFF" fill-opacity="0.50196" height="261.9727" rx="4" ry="4" style="stroke:#808080;stroke-width:1;" width="900.7754" x="9" y="202.4297"/><path d="M9,335.7969 L909.7754,335.7969 L909.7754,460.4023 A4,4 0 0 1 905.7754,464.4023 L13,464.4023 A4,4 0 0 1 9,460.4023 L9,335.7969" fill="#FFFFFF" fill-opacity="0.50196" style="stroke:none;stroke-width:1;"/><g><title>Prover  //(Client role)//</title><rect fill="#000000" fill-opacity="0.00000" height="481.4023" width="8" x="196.6309" y="34.0625"/><line style="stroke:#808080;stroke-width:0.5;stroke-dasharray:5.0,5.0;" x1="200.1875" x2="200.1875" y1="34.0625" y2="515.4648"/></g><g><title>Verifier  //(Server role)//</title><rect fill="#000000" fill-opacity="0.00000" height="481.4023" width="8" x="549.0859" y="34.0625"/><line style="stroke:#808080;stroke-width:0.5;stroke-dasharray:5.0,5.0;" x1="552.1826" x2="552.1826" y1="34.0625" y2="515.4648"/></g><g class="participant participant-head" data-participant="Prover"><rect fill="#FFFFFF" height="28.0625" rx="4" ry="4" style="stroke:#000000;stroke-width:1;" width="114.8867" x="143.1875" y="5"/><text fill="#000000" font-family="Roboto,sans-serif" font-size="12" lengthAdjust="spacing" textLength="34.7227" x="150.1875" y="23.1328">Prover</text><text fill="#000000" font-family="Roboto,sans-serif" font-size="12" font-style="italic" lengthAdjust="spacing" textLength="60.2109" x="190.8633" y="23.1328">(Client role)</text></g><g class="participant participant-head" data-participant="Verifier"><rect fill="#FFFFFF" height="28.0625" rx="4" ry="4" style="stroke:#000000;stroke-width:1;" width="121.8066" x="492.1826" y="5"/><text fill="#000000" font-family="Roboto,sans-serif" font-size="12" lengthAdjust="spacing" textLength="38.5078" x="499.1826" y="23.1328">Verifier</text><text fill="#000000" font-family="Roboto,sans-serif" font-size="12" font-style="italic" lengthAdjust="spacing" textLength="63.3457" x="543.6436" y="23.1328">(Server role)</text></g><path d="M143,53.0625 L143,69.0625 A4,4 0 0 0 147,73.0625 L604,73.0625 A4,4 0 0 0 608,69.0625 L608,59.0625 L598,49.0625 L147,49.0625 A4,4 0 0 0 143,53.0625" fill="#E8E8E8" style="stroke:#7D868C;stroke-width:1;"/><path d="M598,49.0625 L598,57.0625 A2,2 0 0 0 600,59.0625 L608,59.0625 L598,49.0625" fill="#E8E8E8" style="stroke:#7D868C;stroke-width:1;"/><text fill="#000000" font-family="Roboto,sans-serif" font-size="12" lengthAdjust="spacing" textLength="167.2559" x="218.9517" y="65.1953">Initial information : cipher suite,</text><text fill="#000000" font-family="Roboto,sans-serif" font-size="12" font-style="italic" lengthAdjust="spacing" textLength="78.5508" x="389.1841" y="65.1953">PBKDF-params</text><text fill="#000000" font-family="Roboto,sans-serif" font-size="12" lengthAdjust="spacing" textLength="2.3613" x="467.7349" y="65.1953">,</text><text fill="#000000" font-family="Roboto,sans-serif" font-size="12" font-style="italic" lengthAdjust="spacing" textLength="50.7773" x="473.0728" y="65.1953">password</text><g class="message" data-participant-1="Prover" data-participant-2="Prover"><line style="stroke:#000000;stroke-width:1;" x1="200.6309" x2="242.6309" y1="131.6035" y2="131.6035"/><line style="stroke:#000000;stroke-width:1;" x1="242.6309" x2="242.6309" y1="131.6035" y2="144.6035"/><line style="stroke:#000000;stroke-width:1;" x1="201.6309" x2="242.6309" y1="144.6035" y2="144.6035"/><polygon fill="#000000" points="211.6309,140.6035,201.6309,144.6035,211.6309,148.6035" style="stroke:#000000;stroke-width:1;"/><text fill="#000000" font-family="Roboto Mono,monospace" font-size="12" lengthAdjust="spacing" textLength="223.2363" x="207.6309" y="94.6992">psa_key_derivation_setup(PBKDF)</text><text fill="#000000" font-family="Roboto Mono,monospace" font-size="12" lengthAdjust="spacing" textLength="273.6445" x="207.6309" y="110.5254">psa_key_derivation_input_key(password)</text><text fill="#000000" font-family="Roboto Mono,monospace" font-size="12" lengthAdjust="spacing" textLength="216.0352" x="207.6309" y="126.3516">psa_key_derivation_input_xxx()</text><text fill="#000000" font-family="Roboto,sans-serif" font-size="12" lengthAdjust="spacing" textLength="15.082" x="426.6426" y="126.6738">for</text><text fill="#000000" font-family="Roboto,sans-serif" font-size="12" font-style="italic" lengthAdjust="spacing" textLength="78.5508" x="444.7012" y="126.6738">PBKDF-params</text></g><g class="message" data-participant-1="Prover" data-participant-2="Prover"><line style="stroke:#000000;stroke-width:1;" x1="200.6309" x2="242.6309" y1="174.4297" y2="174.4297"/><line style="stroke:#000000;stroke-width:1;" x1="242.6309" x2="242.6309" y1="174.4297" y2="187.4297"/><line style="stroke:#000000;stroke-width:1;" x1="201.6309" x2="242.6309" y1="187.4297" y2="187.4297"/><polygon fill="#000000" points="211.6309,183.4297,201.6309,187.4297,211.6309,191.4297" style="stroke:#000000;stroke-width:1;"/><text fill="#000000" font-family="Roboto Mono,monospace" font-size="12" lengthAdjust="spacing" textLength="338.4551" x="207.6309" y="169.1777">psa_key_derivation_output_key(SPAKE2P_KEY_PAIR)</text></g><path d="M34,165.9854 L34,181.9854 A4,4 0 0 0 38,185.9854 L191,185.9854 A4,4 0 0 0 195,181.9854 L195,171.9854 L185,161.9854 L38,161.9854 A4,4 0 0 0 34,165.9854" fill="#E8E8E8" style="stroke:#7D868C;stroke-width:1;"/><path d="M185,161.9854 L185,169.9854 A2,2 0 0 0 187,171.9854 L195,171.9854 L185,161.9854" fill="#E8E8E8" style="stroke:#7D868C;stroke-width:1;"/><text fill="#000000" font-family="Roboto,sans-serif" font-size="12" lengthAdjust="spacing" textLength="100.2305" x="40" y="178.1182">Compute key pair (</text><text fill="#000000" font-family="Roboto,sans-serif" font-size="12" font-style="italic" lengthAdjust="spacing" textLength="15.2871" x="140.2305" y="178.1182">w0</text><text fill="#000000" font-family="Roboto,sans-serif" font-size="12" lengthAdjust="spacing" textLength="2.3613" x="155.5176" y="178.1182">,</text><text fill="#000000" font-family="Roboto,sans-serif" font-size="12" font-style="italic" lengthAdjust="spacing" textLength="15.2871" x="160.8555" y="178.1182">w1</text><text fill="#000000" font-family="Roboto,sans-serif" font-size="12" lengthAdjust="spacing" textLength="4.1777" x="176.1426" y="178.1182">)</text><path d="M13,202.4297 L67.3711,202.4297 L67.3711,208.4922 L57.3711,218.4922 L9,218.4922 L9,206.4297 A4,4 0 0 1 13,202.4297" fill="#F0F0F0" style="stroke:#808080;stroke-width:1.5;"/><rect fill="none" height="261.9727" rx="4" ry="4" style="stroke:#808080;stroke-width:1;" width="900.7754" x="9" y="202.4297"/><text fill="#000000" font-family="Roboto,sans-serif" font-size="12" lengthAdjust="spacing" textLength="13.3711" x="24" y="214.5625">alt</text><text fill="#000000" font-family="Roboto,sans-serif" font-size="11" font-weight="bold" lengthAdjust="spacing" textLength="128.1167" x="82.3711" y="214.6348">[Independent registration]</text><g class="message" data-participant-1="Verifier" data-participant-2="Verifier"><line style="stroke:#000000;stroke-width:1;" x1="553.0859" x2="595.0859" y1="271.9707" y2="271.9707"/><line style="stroke:#000000;stroke-width:1;" x1="595.0859" x2="595.0859" y1="271.9707" y2="284.9707"/><line style="stroke:#000000;stroke-width:1;" x1="554.0859" x2="595.0859" y1="284.9707" y2="284.9707"/><polygon fill="#000000" points="564.0859,280.9707,554.0859,284.9707,564.0859,288.9707" style="stroke:#000000;stroke-width:1;"/><text fill="#000000" font-family="Roboto Mono,monospace" font-size="12" lengthAdjust="spacing" textLength="223.2363" x="560.0859" y="235.0664">psa_key_derivation_setup(PBKDF)</text><text fill="#000000" font-family="Roboto Mono,monospace" font-size="12" lengthAdjust="spacing" textLength="273.6445" x="560.0859" y="250.8926">psa_key_derivation_input_key(password)</text><text fill="#000000" font-family="Roboto Mono,monospace" font-size="12" lengthAdjust="spacing" textLength="216.0352" x="560.0859" y="266.7188">psa_key_derivation_input_xxx()</text><text fill="#000000" font-family="Roboto,sans-serif" font-size="12" lengthAdjust="spacing" textLength="15.082" x="779.0977" y="267.041">for</text><text fill="#000000" font-family="Roboto,sans-serif" font-size="12" font-style="italic" lengthAdjust="spacing" textLength="78.5508" x="797.1563" y="267.041">PBKDF-params</text></g><g class="message" data-participant-1="Verifier" data-participant-2="Verifier"><line style="stroke:#000000;stroke-width:1;" x1="553.0859" x2="595.0859" y1="314.7969" y2="314.7969"/><line style="stroke:#000000;stroke-width:1;" x1="595.0859" x2="595.0859" y1="314.7969" y2="327.7969"/><line style="stroke:#000000;stroke-width:1;" x1="554.0859" x2="595.0859" y1="327.7969" y2="327.7969"/><polygon fill="#000000" points="564.0859,323.7969,554.0859,327.7969,564.0859,331.7969" style="stroke:#000000;stroke-width:1;"/><text fill="#000000" font-family="Roboto Mono,monospace" font-size="12" lengthAdjust="spacing" textLength="338.4551" x="560.0859" y="309.5449">psa_key_derivation_output_key(SPAKE2P_KEY_PAIR)</text></g><path d="M386,306.3525 L386,322.3525 A4,4 0 0 0 390,326.3525 L543,326.3525 A4,4 0 0 0 547,322.3525 L547,312.3525 L537,302.3525 L390,302.3525 A4,4 0 0 0 386,306.3525" fill="#E8E8E8" style="stroke:#7D868C;stroke-width:1;"/><path d="M537,302.3525 L537,310.3525 A2,2 0 0 0 539,312.3525 L547,312.3525 L537,302.3525" fill="#E8E8E8" style="stroke:#7D868C;stroke-width:1;"/><text fill="#000000" font-family="Roboto,sans-serif" font-size="12" lengthAdjust="spacing" textLength="100.2305" x="392" y="318.4854">Compute key pair (</text><text fill="#000000" font-family="Roboto,sans-serif" font-size="12" font-style="italic" lengthAdjust="spacing" textLength="15.2871" x="492.2305" y="318.4854">w0</text><text fill="#000000" font-family="Roboto,sans-serif" font-size="12" lengthAdjust="spacing" textLength="2.3613" x="507.5176" y="318.4854">,</text><text fill="#000000" font-family="Roboto,sans-serif" font-size="12" font-style="italic" lengthAdjust="spacing" textLength="15.2871" x="512.8555" y="318.4854">w1</text><text fill="#000000" font-family="Roboto,sans-serif" font-size="12" lengthAdjust="spacing" textLength="4.1777" x="528.1426" y="318.4854">)</text><line style="stroke:#808080;stroke-width:1;stroke-dasharray:2.0,2.0;" x1="9" x2="909.7754" y1="336.7969" y2="336.7969"/><text fill="#000000" font-family="Roboto,sans-serif" font-size="11" font-weight="bold" lengthAdjust="spacing" textLength="119.5498" x="14" y="347.002">[Connected registration]</text><g class="message" data-participant-1="Prover" data-participant-2="Prover"><line style="stroke:#000000;stroke-width:1;" x1="200.6309" x2="242.6309" y1="372.5137" y2="372.5137"/><line style="stroke:#000000;stroke-width:1;" x1="242.6309" x2="242.6309" y1="372.5137" y2="385.5137"/><line style="stroke:#000000;stroke-width:1;" x1="201.6309" x2="242.6309" y1="385.5137" y2="385.5137"/><polygon fill="#000000" points="211.6309,381.5137,201.6309,385.5137,211.6309,389.5137" style="stroke:#000000;stroke-width:1;"/><text fill="#000000" font-family="Roboto Mono,monospace" font-size="12" lengthAdjust="spacing" textLength="165.627" x="207.6309" y="367.2617">psa_export_public_key()</text></g><path d="M19,364.0693 L19,380.0693 A4,4 0 0 0 23,384.0693 L190,384.0693 A4,4 0 0 0 194,380.0693 L194,370.0693 L184,360.0693 L23,360.0693 A4,4 0 0 0 19,364.0693" fill="#E8E8E8" style="stroke:#7D868C;stroke-width:1;"/><path d="M184,360.0693 L184,368.0693 A2,2 0 0 0 186,370.0693 L194,370.0693 L184,360.0693" fill="#E8E8E8" style="stroke:#7D868C;stroke-width:1;"/><text fill="#000000" font-family="Roboto,sans-serif" font-size="12" lengthAdjust="spacing" textLength="48.8203" x="25" y="376.2021">Compute</text><text fill="#000000" font-family="Roboto,sans-serif" font-size="12" font-style="italic" lengthAdjust="spacing" textLength="6.2695" x="76.7969" y="376.2021">L</text><text fill="#000000" font-family="Roboto,sans-serif" font-size="12" lengthAdjust="spacing" textLength="57.5625" x="86.043" y="376.2021">and output</text><text fill="#000000" font-family="Roboto,sans-serif" font-size="12" font-style="italic" lengthAdjust="spacing" textLength="15.2871" x="146.582" y="376.2021">w0</text><text fill="#000000" font-family="Roboto,sans-serif" font-size="12" lengthAdjust="spacing" textLength="5.8594" x="164.8457" y="376.2021">||</text><text fill="#000000" font-family="Roboto,sans-serif" font-size="12" font-style="italic" lengthAdjust="spacing" textLength="6.2695" x="173.6816" y="376.2021">L</text><g class="message" data-participant-1="Prover" data-participant-2="Verifier"><line style="stroke:#000000;stroke-width:1;" x1="551.0859" x2="541.0859" y1="413.5762" y2="409.5762"/><line style="stroke:#000000;stroke-width:1;" x1="551.0859" x2="541.0859" y1="413.5762" y2="417.5762"/><line style="stroke:#000000;stroke-width:1;" x1="200.6309" x2="552.0859" y1="413.5762" y2="413.5762"/><text fill="#000000" font-family="Roboto,sans-serif" font-size="12" lengthAdjust="spacing" textLength="108.8906" x="207.6309" y="408.6465">Registration record (</text><text fill="#000000" font-family="Roboto,sans-serif" font-size="12" font-style="italic" lengthAdjust="spacing" textLength="15.2871" x="319.498" y="408.6465">w0</text><text fill="#000000" font-family="Roboto,sans-serif" font-size="12" lengthAdjust="spacing" textLength="5.8594" x="337.7617" y="408.6465">||</text><text fill="#000000" font-family="Roboto,sans-serif" font-size="12" font-style="italic" lengthAdjust="spacing" textLength="6.2695" x="346.5977" y="408.6465">L</text><text fill="#000000" font-family="Roboto,sans-serif" font-size="12" lengthAdjust="spacing" textLength="4.1777" x="355.8438" y="408.6465">)</text></g><g class="message" data-participant-1="Verifier" data-participant-2="Verifier"><line style="stroke:#000000;stroke-width:1;" x1="553.0859" x2="595.0859" y1="443.4023" y2="443.4023"/><line style="stroke:#000000;stroke-width:1;" x1="595.0859" x2="595.0859" y1="443.4023" y2="456.4023"/><line style="stroke:#000000;stroke-width:1;" x1="554.0859" x2="595.0859" y1="456.4023" y2="456.4023"/><polygon fill="#000000" points="564.0859,452.4023,554.0859,456.4023,564.0859,460.4023" style="stroke:#000000;stroke-width:1;"/><text fill="#000000" font-family="Roboto Mono,monospace" font-size="12" lengthAdjust="spacing" textLength="244.8398" x="560.0859" y="438.1504">psa_import_key(SPAKE2P_PUBLIC_KEY)</text><text fill="#000000" font-family="Roboto,sans-serif" font-size="12" lengthAdjust="spacing" textLength="25.6055" x="807.9023" y="438.4727">from</text><text fill="#000000" font-family="Roboto,sans-serif" font-size="12" font-style="italic" lengthAdjust="spacing" textLength="15.2871" x="836.4844" y="438.4727">w0</text><text fill="#000000" font-family="Roboto,sans-serif" font-size="12" lengthAdjust="spacing" textLength="5.8594" x="854.748" y="438.4727">||</text><text fill="#000000" font-family="Roboto,sans-serif" font-size="12" font-style="italic" lengthAdjust="spacing" textLength="6.2695" x="863.584" y="438.4727">L</text></g><path d="M397,434.958 L397,450.958 A4,4 0 0 0 401,454.958 L543,454.958 A4,4 0 0 0 547,450.958 L547,440.958 L537,430.958 L401,430.958 A4,4 0 0 0 397,434.958" fill="#E8E8E8" style="stroke:#7D868C;stroke-width:1;"/><path d="M537,430.958 L537,438.958 A2,2 0 0 0 539,440.958 L547,440.958 L537,430.958" fill="#E8E8E8" style="stroke:#7D868C;stroke-width:1;"/><text fill="#000000" font-family="Roboto,sans-serif" font-size="12" lengthAdjust="spacing" textLength="98.7305" x="403" y="447.0908">Import public key (</text><text fill="#000000" font-family="Roboto,sans-serif" font-size="12" font-style="italic" lengthAdjust="spacing" textLength="15.2871" x="501.7305" y="447.0908">w0</text><text fill="#000000" font-family="Roboto,sans-serif" font-size="12" lengthAdjust="spacing" textLength="2.3613" x="517.0176" y="447.0908">,</text><text fill="#000000" font-family="Roboto,sans-serif" font-size="12" font-style="italic" lengthAdjust="spacing" textLength="6.2695" x="522.3555" y="447.0908">L</text><text fill="#000000" font-family="Roboto,sans-serif" font-size="12" lengthAdjust="spacing" textLength="4.1777" x="528.625" y="447.0908">)</text><path d="M96,480.4023 L96,496.4023 A4,4 0 0 0 100,500.4023 L301,500.4023 A4,4 0 0 0 305,496.4023 L305,486.4023 L295,476.4023 L100,476.4023 A4,4 0 0 0 96,480.4023" fill="#E8E8E8" style="stroke:#7D868C;stroke-width:1;"/><path d="M295,476.4023 L295,484.4023 A2,2 0 0 0 297,486.4023 L305,486.4023 L295,476.4023" fill="#E8E8E8" style="stroke:#7D868C;stroke-width:1;"/><text fill="#000000" font-family="Roboto,sans-serif" font-size="12" lengthAdjust="spacing" textLength="188.2617" x="102" y="492.5352">Use key pair for authentication flow</text><path d="M460,480.4023 L460,496.4023 A4,4 0 0 0 464,500.4023 L642,500.4023 A4,4 0 0 0 646,496.4023 L646,486.4023 L636,476.4023 L464,476.4023 A4,4 0 0 0 460,480.4023" fill="#E8E8E8" style="stroke:#7D868C;stroke-width:1;"/><path d="M636,476.4023 L636,484.4023 A2,2 0 0 0 638,486.4023 L646,486.4023 L636,476.4023" fill="#E8E8E8" style="stroke:#7D868C;stroke-width:1;"/><text fill="#000000" font-family="Roboto,sans-serif" font-size="12" lengthAdjust="spacing" textLength="165.0352" x="466" y="492.5352">Use key for authentication flow</text></g></svg>