<?xml version="1.0" encoding="UTF-8" standalone="no"?><svg xmlns="http://www.w3.org/2000/svg" xmlns:xlink="http://www.w3.org/1999/xlink" contentStyleType="text/css" height="507px" preserveAspectRatio="none" style="width:897px;height:507px;background:#FFFFFF55;" version="1.1" viewBox="0 0 897 507" width="897px" zoomAndPan="magnify"><defs/><g><rect fill="#FFFFFF" fill-opacity="0.50196" height="253.0037" rx="4" ry="4" style="stroke:#808080;stroke-width:1.0;" width="880" x="10" y="196.3526"/><path d="M10,323.3052 L890,323.3052 L890,445.3564 A4,4 0 0 1 886,449.3564 L14,449.3564 A4,4 0 0 1 10,445.3564 L10,323.3052 " fill="#FFFFFF" fill-opacity="0.50196" style="stroke:none;stroke-width:1.0;"/><line style="stroke:#808080;stroke-width:0.5;stroke-dasharray:5.0,5.0;" x1="199" x2="199" y1="34.4001" y2="500.7565"/><line style="stroke:#808080;stroke-width:0.5;stroke-dasharray:5.0,5.0;" x1="541.5" x2="541.5" y1="34.4001" y2="500.7565"/><rect fill="#FFFFFF" height="28.4001" rx="4" ry="4" style="stroke:#000000;stroke-width:1.0;" width="110" x="144" y="5"/><text fill="#000000" font-family="Lato,sans-serif" font-size="12" lengthAdjust="spacing" textLength="36" x="151" y="23.8441">Prover</text><text fill="#000000" font-family="Lato,sans-serif" font-size="12" font-style="italic" lengthAdjust="spacing" textLength="56" x="191" y="23.8441">(Client role)</text><rect fill="#FFFFFF" height="28.4001" rx="4" ry="4" style="stroke:#000000;stroke-width:1.0;" width="117" x="483.5" y="5"/><text fill="#000000" font-family="Lato,sans-serif" font-size="12" lengthAdjust="spacing" textLength="40" x="490.5" y="23.8441">Verifier</text><text fill="#000000" font-family="Lato,sans-serif" font-size="12" font-style="italic" lengthAdjust="spacing" textLength="59" x="534.5" y="23.8441">(Server role)</text><path d="M144,53.4001 L144,69.4001 A4,4 0 0 0 148,73.4001 L591,73.4001 A4,4 0 0 0 595,69.4001 L595,59.4001 L585,49.4001 L148,49.4001 A4,4 0 0 0 144,53.4001 " fill="#E8E8E8" style="stroke:#181818;stroke-width:1.0;"/><path d="M585,49.4001 L585,57.4001 A2,2 0 0 0 587,59.4001 L595,59.4001 L585,49.4001 " fill="#E8E8E8" style="stroke:#181818;stroke-width:1.0;"/><text fill="#000000" font-family="Lato,sans-serif" font-size="12" lengthAdjust="spacing" textLength="166" x="217.25" y="66.2442">Initial information : cipher suite,</text><text fill="#000000" font-family="Lato,sans-serif" font-size="12" font-style="italic" lengthAdjust="spacing" textLength="76" x="385.25" y="66.2442">PBKDF-params</text><text fill="#000000" font-family="Lato,sans-serif" font-size="12" lengthAdjust="spacing" textLength="3" x="461.25" y="66.2442">,</text><text fill="#000000" font-family="Lato,sans-serif" font-size="12" font-style="italic" lengthAdjust="spacing" textLength="47" x="466.25" y="66.2442">password</text><line style="stroke:#000000;stroke-width:1.0;" x1="199" x2="241" y1="127.3019" y2="127.3019"/><line style="stroke:#000000;stroke-width:1.0;" x1="241" x2="241" y1="127.3019" y2="140.3019"/><line style="stroke:#000000;stroke-width:1.0;" x1="200" x2="241" y1="140.3019" y2="140.3019"/><polygon fill="#000000" points="210,136.3019,200,140.3019,210,144.3019" style="stroke:#000000;stroke-width:1.0;"/><text fill="#000000" font-family="Consolas,Menlo,monospace" font-size="12" lengthAdjust="spacing" textLength="217" x="206" y="93.7631">psa_key_derivation_setup(PBKDF)</text><text fill="#000000" font-family="Consolas,Menlo,monospace" font-size="12" lengthAdjust="spacing" textLength="266" x="206" y="107.8139">psa_key_derivation_input_key(password)</text><text fill="#000000" font-family="Consolas,Menlo,monospace" font-size="12" lengthAdjust="spacing" textLength="210" x="206" y="122.214">psa_key_derivation_input_xxx()</text><text fill="#000000" font-family="Lato,sans-serif" font-size="12" lengthAdjust="spacing" textLength="16" x="418" y="122.7458">for</text><text fill="#000000" font-family="Lato,sans-serif" font-size="12" font-style="italic" lengthAdjust="spacing" textLength="76" x="436" y="122.7458">PBKDF-params</text><line style="stroke:#000000;stroke-width:1.0;" x1="199" x2="241" y1="168.3526" y2="168.3526"/><line style="stroke:#000000;stroke-width:1.0;" x1="241" x2="241" y1="168.3526" y2="181.3526"/><line style="stroke:#000000;stroke-width:1.0;" x1="200" x2="241" y1="181.3526" y2="181.3526"/><polygon fill="#000000" points="210,177.3526,200,181.3526,210,185.3526" style="stroke:#000000;stroke-width:1.0;"/><text fill="#000000" font-family="Consolas,Menlo,monospace" font-size="12" lengthAdjust="spacing" textLength="329" x="206" y="163.2648">psa_key_derivation_output_key(SPAKE2P_KEY_PAIR)</text><path d="M34,160.6272 L34,176.6272 A4,4 0 0 0 38,180.6272 L190,180.6272 A4,4 0 0 0 194,176.6272 L194,166.6272 L184,156.6272 L38,156.6272 A4,4 0 0 0 34,160.6272 " fill="#E8E8E8" style="stroke:#181818;stroke-width:1.0;"/><path d="M184,156.6272 L184,164.6272 A2,2 0 0 0 186,166.6272 L194,166.6272 L184,156.6272 " fill="#E8E8E8" style="stroke:#181818;stroke-width:1.0;"/><text fill="#000000" font-family="Lato,sans-serif" font-size="12" lengthAdjust="spacing" textLength="98" x="40" y="173.4713">Compute key pair (</text><text fill="#000000" font-family="Lato,sans-serif" font-size="12" font-style="italic" lengthAdjust="spacing" textLength="16" x="138" y="173.4713">w0</text><text fill="#000000" font-family="Lato,sans-serif" font-size="12" lengthAdjust="spacing" textLength="3" x="154" y="173.4713">,</text><text fill="#000000" font-family="Lato,sans-serif" font-size="12" font-style="italic" lengthAdjust="spacing" textLength="16" x="159" y="173.4713">w1</text><text fill="#000000" font-family="Lato,sans-serif" font-size="12" lengthAdjust="spacing" textLength="4" x="175" y="173.4713">)</text><path d="M14,196.3526 L68,196.3526 L68,202.7527 L58,212.7527 L10,212.7527 L10,200.3526 A4,4 0 0 1 14,196.3526 " fill="#F0F0F0" style="stroke:#808080;stroke-width:1.5;"/><rect fill="none" height="253.0037" rx="4" ry="4" style="stroke:#808080;stroke-width:1.0;" width="880" x="10" y="196.3526"/><text fill="#000000" font-family="Lato,sans-serif" font-size="12" lengthAdjust="spacing" textLength="13" x="25" y="209.1967">alt</text><text fill="#000000" font-family="Lato,sans-serif" font-size="11" font-weight="bold" lengthAdjust="spacing" textLength="128" x="83" y="209.2098">[Independent registration]</text><line style="stroke:#000000;stroke-width:1.0;" x1="542" x2="584" y1="261.2544" y2="261.2544"/><line style="stroke:#000000;stroke-width:1.0;" x1="584" x2="584" y1="261.2544" y2="274.2544"/><line style="stroke:#000000;stroke-width:1.0;" x1="543" x2="584" y1="274.2544" y2="274.2544"/><polygon fill="#000000" points="553,270.2544,543,274.2544,553,278.2544" style="stroke:#000000;stroke-width:1.0;"/><text fill="#000000" font-family="Consolas,Menlo,monospace" font-size="12" lengthAdjust="spacing" textLength="217" x="549" y="227.7156">psa_key_derivation_setup(PBKDF)</text><text fill="#000000" font-family="Consolas,Menlo,monospace" font-size="12" lengthAdjust="spacing" textLength="266" x="549" y="241.7664">psa_key_derivation_input_key(password)</text><text fill="#000000" font-family="Consolas,Menlo,monospace" font-size="12" lengthAdjust="spacing" textLength="210" x="549" y="256.1665">psa_key_derivation_input_xxx()</text><text fill="#000000" font-family="Lato,sans-serif" font-size="12" lengthAdjust="spacing" textLength="16" x="761" y="256.6984">for</text><text fill="#000000" font-family="Lato,sans-serif" font-size="12" font-style="italic" lengthAdjust="spacing" textLength="76" x="779" y="256.6984">PBKDF-params</text><line style="stroke:#000000;stroke-width:1.0;" x1="542" x2="584" y1="302.3052" y2="302.3052"/><line style="stroke:#000000;stroke-width:1.0;" x1="584" x2="584" y1="302.3052" y2="315.3052"/><line style="stroke:#000000;stroke-width:1.0;" x1="543" x2="584" y1="315.3052" y2="315.3052"/><polygon fill="#000000" points="553,311.3052,543,315.3052,553,319.3052" style="stroke:#000000;stroke-width:1.0;"/><text fill="#000000" font-family="Consolas,Menlo,monospace" font-size="12" lengthAdjust="spacing" textLength="329" x="549" y="297.2173">psa_key_derivation_output_key(SPAKE2P_KEY_PAIR)</text><path d="M377,294.5798 L377,310.5798 A4,4 0 0 0 381,314.5798 L533,314.5798 A4,4 0 0 0 537,310.5798 L537,300.5798 L527,290.5798 L381,290.5798 A4,4 0 0 0 377,294.5798 " fill="#E8E8E8" style="stroke:#181818;stroke-width:1.0;"/><path d="M527,290.5798 L527,298.5798 A2,2 0 0 0 529,300.5798 L537,300.5798 L527,290.5798 " fill="#E8E8E8" style="stroke:#181818;stroke-width:1.0;"/><text fill="#000000" font-family="Lato,sans-serif" font-size="12" lengthAdjust="spacing" textLength="98" x="383" y="307.4238">Compute key pair (</text><text fill="#000000" font-family="Lato,sans-serif" font-size="12" font-style="italic" lengthAdjust="spacing" textLength="16" x="481" y="307.4238">w0</text><text fill="#000000" font-family="Lato,sans-serif" font-size="12" lengthAdjust="spacing" textLength="3" x="497" y="307.4238">,</text><text fill="#000000" font-family="Lato,sans-serif" font-size="12" font-style="italic" lengthAdjust="spacing" textLength="16" x="502" y="307.4238">w1</text><text fill="#000000" font-family="Lato,sans-serif" font-size="12" lengthAdjust="spacing" textLength="4" x="518" y="307.4238">)</text><line style="stroke:#808080;stroke-width:1.0;stroke-dasharray:2.0,2.0;" x1="10" x2="890" y1="324.3052" y2="324.3052"/><text fill="#000000" font-family="Lato,sans-serif" font-size="11" font-weight="bold" lengthAdjust="spacing" textLength="119" x="15" y="335.1623">[Connected registration]</text><line style="stroke:#000000;stroke-width:1.0;" x1="199" x2="241" y1="358.5562" y2="358.5562"/><line style="stroke:#000000;stroke-width:1.0;" x1="241" x2="241" y1="358.5562" y2="371.5562"/><line style="stroke:#000000;stroke-width:1.0;" x1="200" x2="241" y1="371.5562" y2="371.5562"/><polygon fill="#000000" points="210,367.5562,200,371.5562,210,375.5562" style="stroke:#000000;stroke-width:1.0;"/><text fill="#000000" font-family="Consolas,Menlo,monospace" font-size="12" lengthAdjust="spacing" textLength="161" x="206" y="353.4683">psa_export_public_key()</text><path d="M20,350.8307 L20,366.8307 A4,4 0 0 0 24,370.8307 L190,370.8307 A4,4 0 0 0 194,366.8307 L194,356.8307 L184,346.8307 L24,346.8307 A4,4 0 0 0 20,350.8307 " fill="#E8E8E8" style="stroke:#181818;stroke-width:1.0;"/><path d="M184,346.8307 L184,354.8307 A2,2 0 0 0 186,356.8307 L194,356.8307 L184,346.8307 " fill="#E8E8E8" style="stroke:#181818;stroke-width:1.0;"/><text fill="#000000" font-family="Lato,sans-serif" font-size="12" lengthAdjust="spacing" textLength="49" x="26" y="363.6748">Compute</text><text fill="#000000" font-family="Lato,sans-serif" font-size="12" font-style="italic" lengthAdjust="spacing" textLength="6" x="77" y="363.6748">L</text><text fill="#000000" font-family="Lato,sans-serif" font-size="12" lengthAdjust="spacing" textLength="58" x="85" y="363.6748">and output</text><text fill="#000000" font-family="Lato,sans-serif" font-size="12" font-style="italic" lengthAdjust="spacing" textLength="16" x="145" y="363.6748">w0</text><text fill="#000000" font-family="Lato,sans-serif" font-size="12" lengthAdjust="spacing" textLength="8" x="163" y="363.6748">||</text><text fill="#000000" font-family="Lato,sans-serif" font-size="12" font-style="italic" lengthAdjust="spacing" textLength="6" x="173" y="363.6748">L</text><line style="stroke:#000000;stroke-width:1.0;" x1="540" x2="530" y1="399.9563" y2="395.9563"/><line style="stroke:#000000;stroke-width:1.0;" x1="540" x2="530" y1="399.9563" y2="403.9563"/><line style="stroke:#000000;stroke-width:1.0;" x1="199" x2="541" y1="399.9563" y2="399.9563"/><text fill="#000000" font-family="Lato,sans-serif" font-size="12" lengthAdjust="spacing" textLength="108" x="206" y="395.4002">Registration record (</text><text fill="#000000" font-family="Lato,sans-serif" font-size="12" font-style="italic" lengthAdjust="spacing" textLength="16" x="316" y="395.4002">w0</text><text fill="#000000" font-family="Lato,sans-serif" font-size="12" lengthAdjust="spacing" textLength="8" x="334" y="395.4002">||</text><text fill="#000000" font-family="Lato,sans-serif" font-size="12" font-style="italic" lengthAdjust="spacing" textLength="6" x="344" y="395.4002">L</text><text fill="#000000" font-family="Lato,sans-serif" font-size="12" lengthAdjust="spacing" textLength="4" x="352" y="395.4002">)</text><line style="stroke:#000000;stroke-width:1.0;" x1="542" x2="584" y1="428.3564" y2="428.3564"/><line style="stroke:#000000;stroke-width:1.0;" x1="584" x2="584" y1="428.3564" y2="441.3564"/><line style="stroke:#000000;stroke-width:1.0;" x1="543" x2="584" y1="441.3564" y2="441.3564"/><polygon fill="#000000" points="553,437.3564,543,441.3564,553,445.3564" style="stroke:#000000;stroke-width:1.0;"/><text fill="#000000" font-family="Consolas,Menlo,monospace" font-size="12" lengthAdjust="spacing" textLength="238" x="549" y="423.2685">psa_import_key(SPAKE2P_PUBLIC_KEY)</text><text fill="#000000" font-family="Lato,sans-serif" font-size="12" lengthAdjust="spacing" textLength="26" x="789" y="423.8003">from</text><text fill="#000000" font-family="Lato,sans-serif" font-size="12" font-style="italic" lengthAdjust="spacing" textLength="16" x="817" y="423.8003">w0</text><text fill="#000000" font-family="Lato,sans-serif" font-size="12" lengthAdjust="spacing" textLength="8" x="835" y="423.8003">||</text><text fill="#000000" font-family="Lato,sans-serif" font-size="12" font-style="italic" lengthAdjust="spacing" textLength="6" x="845" y="423.8003">L</text><path d="M387,420.4563 L387,436.4563 A4,4 0 0 0 391,440.4563 L533,440.4563 A4,4 0 0 0 537,436.4563 L537,426.4563 L527,416.4563 L391,416.4563 A4,4 0 0 0 387,420.4563 " fill="#E8E8E8" style="stroke:#181818;stroke-width:1.0;"/><path d="M527,416.4563 L527,424.4563 A2,2 0 0 0 529,426.4563 L537,426.4563 L527,416.4563 " fill="#E8E8E8" style="stroke:#181818;stroke-width:1.0;"/><text fill="#000000" font-family="Lato,sans-serif" font-size="12" lengthAdjust="spacing" textLength="98" x="393" y="433.3003">Import public key (</text><text fill="#000000" font-family="Lato,sans-serif" font-size="12" font-style="italic" lengthAdjust="spacing" textLength="16" x="491" y="433.3003">w0</text><text fill="#000000" font-family="Lato,sans-serif" font-size="12" lengthAdjust="spacing" textLength="3" x="507" y="433.3003">,</text><text fill="#000000" font-family="Lato,sans-serif" font-size="12" font-style="italic" lengthAdjust="spacing" textLength="6" x="512" y="433.3003">L</text><text fill="#000000" font-family="Lato,sans-serif" font-size="12" lengthAdjust="spacing" textLength="4" x="518" y="433.3003">)</text><path d="M96,465.3564 L96,481.3564 A4,4 0 0 0 100,485.3564 L298,485.3564 A4,4 0 0 0 302,481.3564 L302,471.3564 L292,461.3564 L100,461.3564 A4,4 0 0 0 96,465.3564 " fill="#E8E8E8" style="stroke:#181818;stroke-width:1.0;"/><path d="M292,461.3564 L292,469.3564 A2,2 0 0 0 294,471.3564 L302,471.3564 L292,461.3564 " fill="#E8E8E8" style="stroke:#181818;stroke-width:1.0;"/><text fill="#000000" font-family="Lato,sans-serif" font-size="12" lengthAdjust="spacing" textLength="185" x="102" y="478.2004">Use key pair for authentication flow</text><path d="M450,465.3564 L450,481.3564 A4,4 0 0 0 454,485.3564 L629,485.3564 A4,4 0 0 0 633,481.3564 L633,471.3564 L623,461.3564 L454,461.3564 A4,4 0 0 0 450,465.3564 " fill="#E8E8E8" style="stroke:#181818;stroke-width:1.0;"/><path d="M623,461.3564 L623,469.3564 A2,2 0 0 0 625,471.3564 L633,471.3564 L623,461.3564 " fill="#E8E8E8" style="stroke:#181818;stroke-width:1.0;"/><text fill="#000000" font-family="Lato,sans-serif" font-size="12" lengthAdjust="spacing" textLength="162" x="456" y="478.2004">Use key for authentication flow</text></g></svg>