<svg xmlns="http://www.w3.org/2000/svg" xmlns:xlink="http://www.w3.org/1999/xlink" contentStyleType="text/css" data-diagram-type="SEQUENCE" height="873px" preserveAspectRatio="none" style="width:771px;height:873px;background:#FFFFFF55;" version="1.1" viewBox="0 0 771 873" width="771px" zoomAndPan="magnify"><defs><style type="text/css">@import url('https://fonts.googleapis.com/css?family=Roboto:400,100,100italic,300,300italic,400italic,500,500italic,700,700italic,900,900italic');</style></defs><g><rect fill="#FFFFFF" fill-opacity="0.33333" height="873" style="stroke:none;stroke-width:1;" width="771" x="0" y="0"/><g><title>Prover //(Client role)//</title><rect fill="#000000" fill-opacity="0.00000" height="832.1973" width="8" x="169.6797" y="34.0625"/><line style="stroke:#808080;stroke-width:0.5;stroke-dasharray:5.0,5.0;" x1="172.7246" x2="172.7246" y1="34.0625" y2="866.2598"/></g><g><title>Verifier //(Server role)//</title><rect fill="#000000" fill-opacity="0.00000" height="832.1973" width="8" x="468.4277" y="34.0625"/><line style="stroke:#808080;stroke-width:0.5;stroke-dasharray:5.0,5.0;" x1="472.0127" x2="472.0127" y1="34.0625" y2="866.2598"/></g><g class="participant participant-head" data-participant="Prover"><rect fill="#FFFFFF" height="28.0625" rx="4" ry="4" style="stroke:#000000;stroke-width:1;" width="111.9102" x="117.7246" y="5"/><text fill="#000000" font-family="Roboto,sans-serif" font-size="12" lengthAdjust="spacing" textLength="34.7227" x="124.7246" y="23.1328">Prover</text><text fill="#000000" font-family="Roboto,sans-serif" font-size="12" font-style="italic" lengthAdjust="spacing" textLength="60.2109" x="162.4238" y="23.1328">(Client role)</text></g><g class="participant participant-head" data-participant="Verifier"><rect fill="#FFFFFF" height="28.0625" rx="4" ry="4" style="stroke:#000000;stroke-width:1;" width="118.8301" x="413.0127" y="5"/><text fill="#000000" font-family="Roboto,sans-serif" font-size="12" lengthAdjust="spacing" textLength="38.5078" x="420.0127" y="23.1328">Verifier</text><text fill="#000000" font-family="Roboto,sans-serif" font-size="12" font-style="italic" lengthAdjust="spacing" textLength="63.3457" x="461.4971" y="23.1328">(Server role)</text></g><path d="M118,53.0625 L118,69.0625 A4,4 0 0 0 122,73.0625 L523,73.0625 A4,4 0 0 0 527,69.0625 L527,59.0625 L517,49.0625 L122,49.0625 A4,4 0 0 0 118,53.0625" fill="#E8E8E8" style="stroke:#7D868C;stroke-width:1;"/><path d="M517,49.0625 L517,57.0625 A2,2 0 0 0 519,59.0625 L527,59.0625 L517,49.0625" fill="#E8E8E8" style="stroke:#7D868C;stroke-width:1;"/><text fill="#000000" font-family="Roboto,sans-serif" font-size="12" lengthAdjust="spacing" textLength="175.6172" x="146.6343" y="65.1953">Shared information : cipher suite,</text><text fill="#000000" font-family="Roboto,sans-serif" font-size="12" font-style="italic" lengthAdjust="spacing" textLength="43.4004" x="325.228" y="65.1953">ProverId</text><text fill="#000000" font-family="Roboto,sans-serif" font-size="12" lengthAdjust="spacing" textLength="2.3613" x="368.6284" y="65.1953">,</text><text fill="#000000" font-family="Roboto,sans-serif" font-size="12" font-style="italic" lengthAdjust="spacing" textLength="47.0742" x="373.9663" y="65.1953">VerifierId</text><text fill="#000000" font-family="Roboto,sans-serif" font-size="12" lengthAdjust="spacing" textLength="25.2598" x="421.0405" y="65.1953">, and</text><text fill="#000000" font-family="Roboto,sans-serif" font-size="12" font-style="italic" lengthAdjust="spacing" textLength="40.207" x="449.2769" y="65.1953">Context</text><path d="M328,87.125 L328,103.125 A4,4 0 0 0 332,107.125 L610,107.125 A4,4 0 0 0 614,103.125 L614,93.125 L604,83.125 L332,83.125 A4,4 0 0 0 328,87.125" fill="#E8E8E8" style="stroke:#7D868C;stroke-width:1;"/><path d="M604,83.125 L604,91.125 A2,2 0 0 0 606,93.125 L614,93.125 L604,83.125" fill="#E8E8E8" style="stroke:#7D868C;stroke-width:1;"/><text fill="#000000" font-family="Roboto,sans-serif" font-size="12" lengthAdjust="spacing" textLength="108.8906" x="334" y="99.2578">Registration record (</text><text fill="#000000" font-family="Roboto,sans-serif" font-size="12" font-style="italic" lengthAdjust="spacing" textLength="15.2871" x="442.8906" y="99.2578">w0</text><text fill="#000000" font-family="Roboto,sans-serif" font-size="12" lengthAdjust="spacing" textLength="2.3613" x="458.1777" y="99.2578">,</text><text fill="#000000" font-family="Roboto,sans-serif" font-size="12" font-style="italic" lengthAdjust="spacing" textLength="6.2695" x="463.5156" y="99.2578">L</text><text fill="#000000" font-family="Roboto,sans-serif" font-size="12" lengthAdjust="spacing" textLength="130.1191" x="469.7852" y="99.2578">) derived from password</text><path d="M35,87.125 L35,103.125 A4,4 0 0 0 39,107.125 L308,107.125 A4,4 0 0 0 312,103.125 L312,93.125 L302,83.125 L39,83.125 A4,4 0 0 0 35,87.125" fill="#E8E8E8" style="stroke:#7D868C;stroke-width:1;"/><path d="M302,83.125 L302,91.125 A2,2 0 0 0 304,93.125 L312,93.125 L302,83.125" fill="#E8E8E8" style="stroke:#7D868C;stroke-width:1;"/><text fill="#000000" font-family="Roboto,sans-serif" font-size="12" lengthAdjust="spacing" textLength="90.3281" x="41" y="99.2578">Prover 'key pair' (</text><text fill="#000000" font-family="Roboto,sans-serif" font-size="12" font-style="italic" lengthAdjust="spacing" textLength="15.2871" x="131.3281" y="99.2578">w0</text><text fill="#000000" font-family="Roboto,sans-serif" font-size="12" lengthAdjust="spacing" textLength="2.3613" x="146.6152" y="99.2578">,</text><text fill="#000000" font-family="Roboto,sans-serif" font-size="12" font-style="italic" lengthAdjust="spacing" textLength="15.2871" x="151.9531" y="99.2578">w1</text><text fill="#000000" font-family="Roboto,sans-serif" font-size="12" lengthAdjust="spacing" textLength="130.1191" x="167.2402" y="99.2578">) derived from password</text><g class="message" data-participant-1="Prover" data-participant-2="Prover"><line style="stroke:#000000;stroke-width:1;" x1="173.6797" x2="215.6797" y1="197.3184" y2="197.3184"/><line style="stroke:#000000;stroke-width:1;" x1="215.6797" x2="215.6797" y1="197.3184" y2="210.3184"/><line style="stroke:#000000;stroke-width:1;" x1="174.6797" x2="215.6797" y1="210.3184" y2="210.3184"/><polygon fill="#000000" points="184.6797,206.3184,174.6797,210.3184,184.6797,214.3184" style="stroke:#000000;stroke-width:1;"/><text fill="#000000" font-family="Roboto Mono,monospace" font-size="12" lengthAdjust="spacing" textLength="115.2188" x="180.6797" y="128.7617">psa_pake_setup()</text><text fill="#000000" font-family="Roboto,sans-serif" font-size="12" lengthAdjust="spacing" textLength="50.6543" x="298.875" y="129.084">with key (</text><text fill="#000000" font-family="Roboto,sans-serif" font-size="12" font-style="italic" lengthAdjust="spacing" textLength="15.2871" x="349.5293" y="129.084">w0</text><text fill="#000000" font-family="Roboto,sans-serif" font-size="12" lengthAdjust="spacing" textLength="2.3613" x="364.8164" y="129.084">,</text><text fill="#000000" font-family="Roboto,sans-serif" font-size="12" font-style="italic" lengthAdjust="spacing" textLength="15.2871" x="370.1543" y="129.084">w1</text><text fill="#000000" font-family="Roboto,sans-serif" font-size="12" lengthAdjust="spacing" textLength="4.1777" x="385.4414" y="129.084">)</text><text fill="#000000" font-family="Roboto Mono,monospace" font-size="12" lengthAdjust="spacing" textLength="280.8457" x="180.6797" y="144.5879">psa_pake_set_role(PSA_PAKE_ROLE_CLIENT)</text><text fill="#000000" font-family="Roboto Mono,monospace" font-size="12" lengthAdjust="spacing" textLength="194.4316" x="180.6797" y="160.4141">psa_pake_set_user(ProverId)</text><text fill="#000000" font-family="Roboto Mono,monospace" font-size="12" lengthAdjust="spacing" textLength="208.834" x="180.6797" y="176.2402">psa_pake_set_peer(VerifierId)</text><text fill="#000000" font-family="Roboto Mono,monospace" font-size="12" lengthAdjust="spacing" textLength="208.834" x="180.6797" y="192.0664">psa_pake_set_context(Context)</text></g><g class="message" data-participant-1="Prover" data-participant-2="Prover"><line style="stroke:#000000;stroke-width:1;" x1="173.6797" x2="215.6797" y1="240.1445" y2="240.1445"/><line style="stroke:#000000;stroke-width:1;" x1="215.6797" x2="215.6797" y1="240.1445" y2="253.1445"/><line style="stroke:#000000;stroke-width:1;" x1="174.6797" x2="215.6797" y1="253.1445" y2="253.1445"/><polygon fill="#000000" points="184.6797,249.1445,174.6797,253.1445,184.6797,257.1445" style="stroke:#000000;stroke-width:1;"/><text fill="#000000" font-family="Roboto Mono,monospace" font-size="12" lengthAdjust="spacing" textLength="122.4199" x="180.6797" y="234.8926">psa_pake_output()</text><text fill="#000000" font-family="Roboto,sans-serif" font-size="12" lengthAdjust="spacing" textLength="15.082" x="306.0762" y="235.2148">for</text><text fill="#000000" font-family="Roboto,sans-serif" font-size="12" font-style="italic" lengthAdjust="spacing" textLength="36.2051" x="324.1348" y="235.2148">shareP</text><text fill="#000000" font-family="Roboto,sans-serif" font-size="12" lengthAdjust="spacing" textLength="6.5859" x="363.3164" y="235.2148">=</text><text fill="#000000" font-family="Roboto,sans-serif" font-size="12" font-style="italic" lengthAdjust="spacing" textLength="7.2949" x="372.8789" y="235.2148">X</text></g><path d="M35,231.7002 L35,247.7002 A4,4 0 0 0 39,251.7002 L164,251.7002 A4,4 0 0 0 168,247.7002 L168,237.7002 L158,227.7002 L39,227.7002 A4,4 0 0 0 35,231.7002" fill="#E8E8E8" style="stroke:#7D868C;stroke-width:1;"/><path d="M158,227.7002 L158,235.7002 A2,2 0 0 0 160,237.7002 L168,237.7002 L158,227.7002" fill="#E8E8E8" style="stroke:#7D868C;stroke-width:1;"/><text fill="#000000" font-family="Roboto,sans-serif" font-size="12" lengthAdjust="spacing" textLength="102.2461" x="41" y="243.833">Generate key share</text><text fill="#000000" font-family="Roboto,sans-serif" font-size="12" font-style="italic" lengthAdjust="spacing" textLength="7.2949" x="146.2227" y="243.833">X</text><g class="message" data-participant-1="Prover" data-participant-2="Verifier"><line style="stroke:#000000;stroke-width:1;" x1="470.4277" x2="460.4277" y1="281.207" y2="277.207"/><line style="stroke:#000000;stroke-width:1;" x1="470.4277" x2="460.4277" y1="281.207" y2="285.207"/><line style="stroke:#000000;stroke-width:1;" x1="173.6797" x2="471.4277" y1="281.207" y2="281.207"/><text fill="#000000" font-family="Roboto,sans-serif" font-size="12" lengthAdjust="spacing" textLength="4.1074" x="180.6797" y="276.2773">(</text><text fill="#000000" font-family="Roboto,sans-serif" font-size="12" font-style="italic" lengthAdjust="spacing" textLength="36.2051" x="184.7871" y="276.2773">shareP</text><text fill="#000000" font-family="Roboto,sans-serif" font-size="12" lengthAdjust="spacing" textLength="4.1777" x="220.9922" y="276.2773">)</text></g><g class="message" data-participant-1="Verifier" data-participant-2="Verifier"><line style="stroke:#000000;stroke-width:1;" x1="472.4277" x2="514.4277" y1="374.3379" y2="374.3379"/><line style="stroke:#000000;stroke-width:1;" x1="514.4277" x2="514.4277" y1="374.3379" y2="387.3379"/><line style="stroke:#000000;stroke-width:1;" x1="473.4277" x2="514.4277" y1="387.3379" y2="387.3379"/><polygon fill="#000000" points="483.4277,383.3379,473.4277,387.3379,483.4277,391.3379" style="stroke:#000000;stroke-width:1;"/><text fill="#000000" font-family="Roboto Mono,monospace" font-size="12" lengthAdjust="spacing" textLength="115.2188" x="479.4277" y="305.7813">psa_pake_setup()</text><text fill="#000000" font-family="Roboto,sans-serif" font-size="12" lengthAdjust="spacing" textLength="50.6543" x="597.623" y="306.1035">with key (</text><text fill="#000000" font-family="Roboto,sans-serif" font-size="12" font-style="italic" lengthAdjust="spacing" textLength="15.2871" x="648.2773" y="306.1035">w0</text><text fill="#000000" font-family="Roboto,sans-serif" font-size="12" lengthAdjust="spacing" textLength="2.3613" x="663.5645" y="306.1035">,</text><text fill="#000000" font-family="Roboto,sans-serif" font-size="12" font-style="italic" lengthAdjust="spacing" textLength="6.2695" x="668.9023" y="306.1035">L</text><text fill="#000000" font-family="Roboto,sans-serif" font-size="12" lengthAdjust="spacing" textLength="46.248" x="675.1719" y="306.1035">) or key (</text><text fill="#000000" font-family="Roboto,sans-serif" font-size="12" font-style="italic" lengthAdjust="spacing" textLength="15.2871" x="721.4199" y="306.1035">w0</text><text fill="#000000" font-family="Roboto,sans-serif" font-size="12" lengthAdjust="spacing" textLength="2.3613" x="736.707" y="306.1035">,</text><text fill="#000000" font-family="Roboto,sans-serif" font-size="12" font-style="italic" lengthAdjust="spacing" textLength="15.2871" x="742.0449" y="306.1035">w1</text><text fill="#000000" font-family="Roboto,sans-serif" font-size="12" lengthAdjust="spacing" textLength="4.1777" x="757.332" y="306.1035">)</text><text fill="#000000" font-family="Roboto Mono,monospace" font-size="12" lengthAdjust="spacing" textLength="280.8457" x="479.4277" y="321.6074">psa_pake_set_role(PSA_PAKE_ROLE_SERVER)</text><text fill="#000000" font-family="Roboto Mono,monospace" font-size="12" lengthAdjust="spacing" textLength="208.834" x="479.4277" y="337.4336">psa_pake_set_user(VerifierId)</text><text fill="#000000" font-family="Roboto Mono,monospace" font-size="12" lengthAdjust="spacing" textLength="194.4316" x="479.4277" y="353.2598">psa_pake_set_peer(ProverId)</text><text fill="#000000" font-family="Roboto Mono,monospace" font-size="12" lengthAdjust="spacing" textLength="208.834" x="479.4277" y="369.0859">psa_pake_set_context(Context)</text></g><g class="message" data-participant-1="Verifier" data-participant-2="Verifier"><line style="stroke:#000000;stroke-width:1;" x1="472.4277" x2="514.4277" y1="417.1641" y2="417.1641"/><line style="stroke:#000000;stroke-width:1;" x1="514.4277" x2="514.4277" y1="417.1641" y2="430.1641"/><line style="stroke:#000000;stroke-width:1;" x1="473.4277" x2="514.4277" y1="430.1641" y2="430.1641"/><polygon fill="#000000" points="483.4277,426.1641,473.4277,430.1641,483.4277,434.1641" style="stroke:#000000;stroke-width:1;"/><text fill="#000000" font-family="Roboto Mono,monospace" font-size="12" lengthAdjust="spacing" textLength="115.2188" x="479.4277" y="411.9121">psa_pake_input()</text><text fill="#000000" font-family="Roboto,sans-serif" font-size="12" lengthAdjust="spacing" textLength="15.082" x="597.623" y="412.2344">for</text><text fill="#000000" font-family="Roboto,sans-serif" font-size="12" font-style="italic" lengthAdjust="spacing" textLength="36.2051" x="615.6816" y="412.2344">shareP</text></g><path d="M363,408.7197 L363,424.7197 A4,4 0 0 0 367,428.7197 L462,428.7197 A4,4 0 0 0 466,424.7197 L466,414.7197 L456,404.7197 L367,404.7197 A4,4 0 0 0 363,408.7197" fill="#E8E8E8" style="stroke:#7D868C;stroke-width:1;"/><path d="M456,404.7197 L456,412.7197 A2,2 0 0 0 458,414.7197 L466,414.7197 L456,404.7197" fill="#E8E8E8" style="stroke:#7D868C;stroke-width:1;"/><text fill="#000000" font-family="Roboto,sans-serif" font-size="12" lengthAdjust="spacing" textLength="43.5879" x="369" y="420.8525">Validate</text><text fill="#000000" font-family="Roboto,sans-serif" font-size="12" font-style="italic" lengthAdjust="spacing" textLength="36.2051" x="415.5645" y="420.8525">shareP</text><g class="message" data-participant-1="Verifier" data-participant-2="Verifier"><line style="stroke:#000000;stroke-width:1;" x1="472.4277" x2="514.4277" y1="459.9902" y2="459.9902"/><line style="stroke:#000000;stroke-width:1;" x1="514.4277" x2="514.4277" y1="459.9902" y2="472.9902"/><line style="stroke:#000000;stroke-width:1;" x1="473.4277" x2="514.4277" y1="472.9902" y2="472.9902"/><polygon fill="#000000" points="483.4277,468.9902,473.4277,472.9902,483.4277,476.9902" style="stroke:#000000;stroke-width:1;"/><text fill="#000000" font-family="Roboto Mono,monospace" font-size="12" lengthAdjust="spacing" textLength="122.4199" x="479.4277" y="454.7383">psa_pake_output()</text><text fill="#000000" font-family="Roboto,sans-serif" font-size="12" lengthAdjust="spacing" textLength="15.082" x="604.8242" y="455.0605">for</text><text fill="#000000" font-family="Roboto,sans-serif" font-size="12" font-style="italic" lengthAdjust="spacing" textLength="36.2754" x="622.8828" y="455.0605">shareV</text><text fill="#000000" font-family="Roboto,sans-serif" font-size="12" lengthAdjust="spacing" textLength="6.5859" x="662.1348" y="455.0605">=</text><text fill="#000000" font-family="Roboto,sans-serif" font-size="12" font-style="italic" lengthAdjust="spacing" textLength="6.9902" x="671.6973" y="455.0605">Y</text></g><path d="M334,451.5459 L334,467.5459 A4,4 0 0 0 338,471.5459 L463,471.5459 A4,4 0 0 0 467,467.5459 L467,457.5459 L457,447.5459 L338,447.5459 A4,4 0 0 0 334,451.5459" fill="#E8E8E8" style="stroke:#7D868C;stroke-width:1;"/><path d="M457,447.5459 L457,455.5459 A2,2 0 0 0 459,457.5459 L467,457.5459 L457,447.5459" fill="#E8E8E8" style="stroke:#7D868C;stroke-width:1;"/><text fill="#000000" font-family="Roboto,sans-serif" font-size="12" lengthAdjust="spacing" textLength="102.2461" x="340" y="463.6787">Generate key share</text><text fill="#000000" font-family="Roboto,sans-serif" font-size="12" font-style="italic" lengthAdjust="spacing" textLength="6.9902" x="445.2227" y="463.6787">Y</text><g class="message" data-participant-1="Verifier" data-participant-2="Verifier"><line style="stroke:#000000;stroke-width:1;" x1="472.4277" x2="514.4277" y1="502.8164" y2="502.8164"/><line style="stroke:#000000;stroke-width:1;" x1="514.4277" x2="514.4277" y1="502.8164" y2="515.8164"/><line style="stroke:#000000;stroke-width:1;" x1="473.4277" x2="514.4277" y1="515.8164" y2="515.8164"/><polygon fill="#000000" points="483.4277,511.8164,473.4277,515.8164,483.4277,519.8164" style="stroke:#000000;stroke-width:1;"/><text fill="#000000" font-family="Roboto Mono,monospace" font-size="12" lengthAdjust="spacing" textLength="122.4199" x="479.4277" y="497.5645">psa_pake_output()</text><text fill="#000000" font-family="Roboto,sans-serif" font-size="12" lengthAdjust="spacing" textLength="15.082" x="604.8242" y="497.8867">for</text><text fill="#000000" font-family="Roboto,sans-serif" font-size="12" font-style="italic" lengthAdjust="spacing" textLength="47.6016" x="622.8828" y="497.8867">confirmV</text></g><path d="M218,494.3721 L218,510.3721 A4,4 0 0 0 222,514.3721 L463,514.3721 A4,4 0 0 0 467,510.3721 L467,500.3721 L457,490.3721 L222,490.3721 A4,4 0 0 0 218,494.3721" fill="#E8E8E8" style="stroke:#7D868C;stroke-width:1;"/><path d="M457,490.3721 L457,498.3721 A2,2 0 0 0 459,500.3721 L467,500.3721 L457,490.3721" fill="#E8E8E8" style="stroke:#7D868C;stroke-width:1;"/><text fill="#000000" font-family="Roboto,sans-serif" font-size="12" lengthAdjust="spacing" textLength="48.8203" x="224" y="506.5049">Compute</text><text fill="#000000" font-family="Roboto,sans-serif" font-size="12" font-style="italic" lengthAdjust="spacing" textLength="47.9766" x="275.7969" y="506.5049">K_shared</text><text fill="#000000" font-family="Roboto,sans-serif" font-size="12" lengthAdjust="spacing" textLength="2.3613" x="323.7734" y="506.5049">,</text><text fill="#000000" font-family="Roboto,sans-serif" font-size="12" font-style="italic" lengthAdjust="spacing" textLength="49.5645" x="329.1113" y="506.5049">confirmP'</text><text fill="#000000" font-family="Roboto,sans-serif" font-size="12" lengthAdjust="spacing" textLength="19.9219" x="381.6523" y="506.5049">and</text><text fill="#000000" font-family="Roboto,sans-serif" font-size="12" font-style="italic" lengthAdjust="spacing" textLength="47.6016" x="404.5508" y="506.5049">confirmV</text><g class="message" data-participant-1="Verifier" data-participant-2="Prover"><line style="stroke:#000000;stroke-width:1;" x1="174.6797" x2="184.6797" y1="543.8789" y2="539.8789"/><line style="stroke:#000000;stroke-width:1;" x1="174.6797" x2="184.6797" y1="543.8789" y2="547.8789"/><line style="stroke:#000000;stroke-width:1;" x1="173.6797" x2="471.4277" y1="543.8789" y2="543.8789"/><text fill="#000000" font-family="Roboto,sans-serif" font-size="12" lengthAdjust="spacing" textLength="4.1074" x="190.6797" y="538.9492">(</text><text fill="#000000" font-family="Roboto,sans-serif" font-size="12" font-style="italic" lengthAdjust="spacing" textLength="36.2754" x="194.7871" y="538.9492">shareV</text><text fill="#000000" font-family="Roboto,sans-serif" font-size="12" lengthAdjust="spacing" textLength="2.3613" x="231.0625" y="538.9492">,</text><text fill="#000000" font-family="Roboto,sans-serif" font-size="12" font-style="italic" lengthAdjust="spacing" textLength="47.6016" x="236.4004" y="538.9492">confirmV</text><text fill="#000000" font-family="Roboto,sans-serif" font-size="12" lengthAdjust="spacing" textLength="4.1777" x="284.002" y="538.9492">)</text></g><g class="message" data-participant-1="Prover" data-participant-2="Prover"><line style="stroke:#000000;stroke-width:1;" x1="173.6797" x2="215.6797" y1="573.7051" y2="573.7051"/><line style="stroke:#000000;stroke-width:1;" x1="215.6797" x2="215.6797" y1="573.7051" y2="586.7051"/><line style="stroke:#000000;stroke-width:1;" x1="174.6797" x2="215.6797" y1="586.7051" y2="586.7051"/><polygon fill="#000000" points="184.6797,582.7051,174.6797,586.7051,184.6797,590.7051" style="stroke:#000000;stroke-width:1;"/><text fill="#000000" font-family="Roboto Mono,monospace" font-size="12" lengthAdjust="spacing" textLength="115.2188" x="180.6797" y="568.4531">psa_pake_input()</text><text fill="#000000" font-family="Roboto,sans-serif" font-size="12" lengthAdjust="spacing" textLength="15.082" x="298.875" y="568.7754">for</text><text fill="#000000" font-family="Roboto,sans-serif" font-size="12" font-style="italic" lengthAdjust="spacing" textLength="36.2754" x="316.9336" y="568.7754">shareV</text></g><path d="M64,565.2607 L64,581.2607 A4,4 0 0 0 68,585.2607 L163,585.2607 A4,4 0 0 0 167,581.2607 L167,571.2607 L157,561.2607 L68,561.2607 A4,4 0 0 0 64,565.2607" fill="#E8E8E8" style="stroke:#7D868C;stroke-width:1;"/><path d="M157,561.2607 L157,569.2607 A2,2 0 0 0 159,571.2607 L167,571.2607 L157,561.2607" fill="#E8E8E8" style="stroke:#7D868C;stroke-width:1;"/><text fill="#000000" font-family="Roboto,sans-serif" font-size="12" lengthAdjust="spacing" textLength="43.5879" x="70" y="577.3936">Validate</text><text fill="#000000" font-family="Roboto,sans-serif" font-size="12" font-style="italic" lengthAdjust="spacing" textLength="36.2754" x="116.5645" y="577.3936">shareV</text><g class="message" data-participant-1="Prover" data-participant-2="Prover"><line style="stroke:#000000;stroke-width:1;" x1="173.6797" x2="215.6797" y1="626.2119" y2="626.2119"/><line style="stroke:#000000;stroke-width:1;" x1="215.6797" x2="215.6797" y1="626.2119" y2="639.2119"/><line style="stroke:#000000;stroke-width:1;" x1="174.6797" x2="215.6797" y1="639.2119" y2="639.2119"/><polygon fill="#000000" points="184.6797,635.2119,174.6797,639.2119,184.6797,643.2119" style="stroke:#000000;stroke-width:1;"/><text fill="#000000" font-family="Roboto Mono,monospace" font-size="12" lengthAdjust="spacing" textLength="115.2188" x="180.6797" y="620.96">psa_pake_input()</text><text fill="#000000" font-family="Roboto,sans-serif" font-size="12" lengthAdjust="spacing" textLength="15.082" x="298.875" y="621.2822">for</text><text fill="#000000" font-family="Roboto,sans-serif" font-size="12" font-style="italic" lengthAdjust="spacing" textLength="47.6016" x="316.9336" y="621.2822">confirmV</text></g><path d="M5,603.7051 L5,647.7051 A4,4 0 0 0 9,651.7051 L165,651.7051 A4,4 0 0 0 169,647.7051 L169,609.7051 L159,599.7051 L9,599.7051 A4,4 0 0 0 5,603.7051" fill="#E8E8E8" style="stroke:#7D868C;stroke-width:1;"/><path d="M159,599.7051 L159,607.7051 A2,2 0 0 0 161,609.7051 L169,609.7051 L159,599.7051" fill="#E8E8E8" style="stroke:#7D868C;stroke-width:1;"/><text fill="#000000" font-family="Roboto,sans-serif" font-size="12" lengthAdjust="spacing" textLength="48.8203" x="11" y="615.8379">Compute</text><text fill="#000000" font-family="Roboto,sans-serif" font-size="12" font-style="italic" lengthAdjust="spacing" textLength="47.9766" x="62.7969" y="615.8379">K_shared</text><text fill="#000000" font-family="Roboto,sans-serif" font-size="12" lengthAdjust="spacing" textLength="2.3613" x="110.7734" y="615.8379">,</text><text fill="#000000" font-family="Roboto,sans-serif" font-size="12" lengthAdjust="spacing" textLength="11.9063" x="11" y="629.9004">&#160;&#160;&#160;&#160;</text><text fill="#000000" font-family="Roboto,sans-serif" font-size="12" font-style="italic" lengthAdjust="spacing" textLength="47.5313" x="22.9063" y="629.9004">confirmP</text><text fill="#000000" font-family="Roboto,sans-serif" font-size="12" lengthAdjust="spacing" textLength="19.9219" x="73.4141" y="629.9004">and</text><text fill="#000000" font-family="Roboto,sans-serif" font-size="12" font-style="italic" lengthAdjust="spacing" textLength="49.6348" x="96.3125" y="629.9004">confirmV'</text><text fill="#000000" font-family="Roboto,sans-serif" font-size="12" lengthAdjust="spacing" textLength="30.8379" x="11" y="643.9629">Verify</text><text fill="#000000" font-family="Roboto,sans-serif" font-size="12" font-style="italic" lengthAdjust="spacing" textLength="49.6348" x="44.8145" y="643.9629">confirmV'</text><text fill="#000000" font-family="Roboto,sans-serif" font-size="12" lengthAdjust="spacing" textLength="6.5859" x="97.4258" y="643.9629">=</text><text fill="#000000" font-family="Roboto,sans-serif" font-size="12" font-style="italic" lengthAdjust="spacing" textLength="47.6016" x="106.9883" y="643.9629">confirmV</text><g class="message" data-participant-1="Prover" data-participant-2="Prover"><line style="stroke:#000000;stroke-width:1;" x1="173.6797" x2="215.6797" y1="678.7188" y2="678.7188"/><line style="stroke:#000000;stroke-width:1;" x1="215.6797" x2="215.6797" y1="678.7188" y2="691.7188"/><line style="stroke:#000000;stroke-width:1;" x1="174.6797" x2="215.6797" y1="691.7188" y2="691.7188"/><polygon fill="#000000" points="184.6797,687.7188,174.6797,691.7188,184.6797,695.7188" style="stroke:#000000;stroke-width:1;"/><text fill="#000000" font-family="Roboto Mono,monospace" font-size="12" lengthAdjust="spacing" textLength="122.4199" x="180.6797" y="673.4668">psa_pake_output()</text><text fill="#000000" font-family="Roboto,sans-serif" font-size="12" lengthAdjust="spacing" textLength="15.082" x="306.0762" y="673.7891">for</text><text fill="#000000" font-family="Roboto,sans-serif" font-size="12" font-style="italic" lengthAdjust="spacing" textLength="47.5313" x="324.1348" y="673.7891">confirmP</text></g><g class="message" data-participant-1="Prover" data-participant-2="Verifier"><line style="stroke:#000000;stroke-width:1;" x1="470.4277" x2="460.4277" y1="719.7813" y2="715.7813"/><line style="stroke:#000000;stroke-width:1;" x1="470.4277" x2="460.4277" y1="719.7813" y2="723.7813"/><line style="stroke:#000000;stroke-width:1;" x1="173.6797" x2="471.4277" y1="719.7813" y2="719.7813"/><text fill="#000000" font-family="Roboto,sans-serif" font-size="12" lengthAdjust="spacing" textLength="4.1074" x="180.6797" y="714.8516">(</text><text fill="#000000" font-family="Roboto,sans-serif" font-size="12" font-style="italic" lengthAdjust="spacing" textLength="47.5313" x="184.7871" y="714.8516">confirmP</text><text fill="#000000" font-family="Roboto,sans-serif" font-size="12" lengthAdjust="spacing" textLength="4.1777" x="232.3184" y="714.8516">)</text></g><g class="message" data-participant-1="Prover" data-participant-2="Prover"><line style="stroke:#000000;stroke-width:1;" x1="173.6797" x2="215.6797" y1="749.6074" y2="749.6074"/><line style="stroke:#000000;stroke-width:1;" x1="215.6797" x2="215.6797" y1="749.6074" y2="762.6074"/><line style="stroke:#000000;stroke-width:1;" x1="174.6797" x2="215.6797" y1="762.6074" y2="762.6074"/><polygon fill="#000000" points="184.6797,758.6074,174.6797,762.6074,184.6797,766.6074" style="stroke:#000000;stroke-width:1;"/><text fill="#000000" font-family="Roboto Mono,monospace" font-size="12" lengthAdjust="spacing" textLength="180.0293" x="180.6797" y="744.3555">psa_pake_get_shared_key()</text><text fill="#000000" font-family="Roboto,sans-serif" font-size="12" lengthAdjust="spacing" textLength="50.7891" x="363.6855" y="744.6777">to extract</text><text fill="#000000" font-family="Roboto,sans-serif" font-size="12" font-style="italic" lengthAdjust="spacing" textLength="47.9766" x="417.4512" y="744.6777">K_shared</text></g><g class="message" data-participant-1="Verifier" data-participant-2="Verifier"><line style="stroke:#000000;stroke-width:1;" x1="472.4277" x2="514.4277" y1="792.4336" y2="792.4336"/><line style="stroke:#000000;stroke-width:1;" x1="514.4277" x2="514.4277" y1="792.4336" y2="805.4336"/><line style="stroke:#000000;stroke-width:1;" x1="473.4277" x2="514.4277" y1="805.4336" y2="805.4336"/><polygon fill="#000000" points="483.4277,801.4336,473.4277,805.4336,483.4277,809.4336" style="stroke:#000000;stroke-width:1;"/><text fill="#000000" font-family="Roboto Mono,monospace" font-size="12" lengthAdjust="spacing" textLength="115.2188" x="479.4277" y="787.1816">psa_pake_input()</text><text fill="#000000" font-family="Roboto,sans-serif" font-size="12" lengthAdjust="spacing" textLength="15.082" x="597.623" y="787.5039">for</text><text fill="#000000" font-family="Roboto,sans-serif" font-size="12" font-style="italic" lengthAdjust="spacing" textLength="47.5313" x="615.6816" y="787.5039">confirmP</text></g><path d="M302,783.9893 L302,799.9893 A4,4 0 0 0 306,803.9893 L462,803.9893 A4,4 0 0 0 466,799.9893 L466,789.9893 L456,779.9893 L306,779.9893 A4,4 0 0 0 302,783.9893" fill="#E8E8E8" style="stroke:#7D868C;stroke-width:1;"/><path d="M456,779.9893 L456,787.9893 A2,2 0 0 0 458,789.9893 L466,789.9893 L456,779.9893" fill="#E8E8E8" style="stroke:#7D868C;stroke-width:1;"/><text fill="#000000" font-family="Roboto,sans-serif" font-size="12" lengthAdjust="spacing" textLength="30.8379" x="308" y="796.1221">Verify</text><text fill="#000000" font-family="Roboto,sans-serif" font-size="12" font-style="italic" lengthAdjust="spacing" textLength="49.5645" x="341.8145" y="796.1221">confirmP'</text><text fill="#000000" font-family="Roboto,sans-serif" font-size="12" lengthAdjust="spacing" textLength="6.5859" x="394.3555" y="796.1221">=</text><text fill="#000000" font-family="Roboto,sans-serif" font-size="12" font-style="italic" lengthAdjust="spacing" textLength="47.5313" x="403.918" y="796.1221">confirmP</text><g class="message" data-participant-1="Verifier" data-participant-2="Verifier"><line style="stroke:#000000;stroke-width:1;" x1="472.4277" x2="514.4277" y1="835.2598" y2="835.2598"/><line style="stroke:#000000;stroke-width:1;" x1="514.4277" x2="514.4277" y1="835.2598" y2="848.2598"/><line style="stroke:#000000;stroke-width:1;" x1="473.4277" x2="514.4277" y1="848.2598" y2="848.2598"/><polygon fill="#000000" points="483.4277,844.2598,473.4277,848.2598,483.4277,852.2598" style="stroke:#000000;stroke-width:1;"/><text fill="#000000" font-family="Roboto Mono,monospace" font-size="12" lengthAdjust="spacing" textLength="180.0293" x="479.4277" y="830.0078">psa_pake_get_shared_key()</text><text fill="#000000" font-family="Roboto,sans-serif" font-size="12" lengthAdjust="spacing" textLength="50.7891" x="662.4336" y="830.3301">to extract</text><text fill="#000000" font-family="Roboto,sans-serif" font-size="12" font-style="italic" lengthAdjust="spacing" textLength="47.9766" x="716.1992" y="830.3301">K_shared</text></g></g></svg>