<svg xmlns="http://www.w3.org/2000/svg" xmlns:xlink="http://www.w3.org/1999/xlink" contentStyleType="text/css" data-diagram-type="SEQUENCE" height="723px" preserveAspectRatio="none" style="width:645px;height:723px;background:#FFFFFF55;" version="1.1" viewBox="0 0 645 723" width="645px" zoomAndPan="magnify"><defs><style type="text/css">@import url('https://fonts.googleapis.com/css?family=Roboto:400,100,100italic,300,300italic,400italic,500,500italic,700,700italic,900,900italic');</style></defs><g><rect fill="#FFFFFF" fill-opacity="0.33333" height="723" style="stroke:none;stroke-width:1;" width="645" x="0" y="0"/><rect fill="#FFFFFF" fill-opacity="0.50196" height="129.7773" rx="4" ry="4" style="stroke:#808080;stroke-width:1;" width="556.4434" x="83" y="377.6309"/><rect fill="#FFFFFF" fill-opacity="0.50196" height="58.8887" rx="4" ry="4" style="stroke:#808080;stroke-width:1;" width="231.6914" x="178" y="597.5957"/><g><title>STA-A</title><rect fill="#000000" fill-opacity="0.00000" height="682.248" width="8" x="207.6289" y="34.0625"/><line style="stroke:#808080;stroke-width:0.5;stroke-dasharray:5.0,5.0;" x1="211" x2="211" y1="34.0625" y2="716.3105"/></g><g><title>STA-B</title><rect fill="#000000" fill-opacity="0.00000" height="682.248" width="8" x="601.9902" y="34.0625"/><line style="stroke:#808080;stroke-width:0.5;stroke-dasharray:5.0,5.0;" x1="605.5371" x2="605.5371" y1="34.0625" y2="716.3105"/></g><g class="participant participant-head" data-participant="STAA"><rect fill="#FFFFFF" height="28.0625" rx="4" ry="4" style="stroke:#000000;stroke-width:1;" width="47.2578" x="188" y="5"/><text fill="#000000" font-family="Roboto,sans-serif" font-size="12" lengthAdjust="spacing" textLength="33.2578" x="195" y="23.1328">STA-A</text></g><g class="participant participant-head" data-participant="STAB"><rect fill="#FFFFFF" height="28.0625" rx="4" ry="4" style="stroke:#000000;stroke-width:1;" width="46.9063" x="582.5371" y="5"/><text fill="#000000" font-family="Roboto,sans-serif" font-size="12" lengthAdjust="spacing" textLength="32.9063" x="589.5371" y="23.1328">STA-B</text></g><path d="M190,53.0625 L190,97.0625 A4,4 0 0 0 194,101.0625 L622,101.0625 A4,4 0 0 0 626,97.0625 L626,59.0625 L616,49.0625 L194,49.0625 A4,4 0 0 0 190,53.0625" fill="#E8E8E8" style="stroke:#7D868C;stroke-width:1;"/><path d="M616,49.0625 L616,57.0625 A2,2 0 0 0 618,59.0625 L626,59.0625 L616,49.0625" fill="#E8E8E8" style="stroke:#7D868C;stroke-width:1;"/><text fill="#000000" font-family="Roboto,sans-serif" font-size="12" lengthAdjust="spacing" textLength="172.6406" x="252.6055" y="65.1953">Shared information: cipher suite,</text><text fill="#000000" font-family="Roboto,sans-serif" font-size="12" font-style="italic" lengthAdjust="spacing" textLength="60.8086" x="428.2227" y="65.1953">STA-A-MAC</text><text fill="#000000" font-family="Roboto,sans-serif" font-size="12" lengthAdjust="spacing" textLength="2.3613" x="489.0313" y="65.1953">,</text><text fill="#000000" font-family="Roboto,sans-serif" font-size="12" font-style="italic" lengthAdjust="spacing" textLength="60.4688" x="494.3691" y="65.1953">STA-B-MAC</text><text fill="#000000" font-family="Roboto,sans-serif" font-size="12" lengthAdjust="spacing" textLength="156.2227" x="252.6055" y="79.2578">If generating PWE by looping:</text><text fill="#000000" font-family="Roboto,sans-serif" font-size="12" font-style="italic" lengthAdjust="spacing" textLength="50.7773" x="411.8047" y="79.2578">password</text><text fill="#000000" font-family="Roboto,sans-serif" font-size="12" lengthAdjust="spacing" textLength="203.0215" x="252.6055" y="93.3203">If generating PWE by hash-to-element:</text><text fill="#000000" font-family="Roboto,sans-serif" font-size="12" font-style="italic" lengthAdjust="spacing" textLength="14.2852" x="458.6035" y="93.3203">PT</text><g class="message" data-participant-1="STAA" data-participant-2="STAA"><line style="stroke:#000000;stroke-width:1;" x1="211.6289" x2="253.6289" y1="159.7285" y2="159.7285"/><line style="stroke:#000000;stroke-width:1;" x1="253.6289" x2="253.6289" y1="159.7285" y2="172.7285"/><line style="stroke:#000000;stroke-width:1;" x1="212.6289" x2="253.6289" y1="172.7285" y2="172.7285"/><polygon fill="#000000" points="222.6289,168.7285,212.6289,172.7285,222.6289,176.7285" style="stroke:#000000;stroke-width:1;"/><text fill="#000000" font-family="Roboto Mono,monospace" font-size="12" lengthAdjust="spacing" textLength="115.2188" x="218.6289" y="122.8242">psa_pake_setup()</text><text fill="#000000" font-family="Roboto Mono,monospace" font-size="12" lengthAdjust="spacing" textLength="201.6328" x="218.6289" y="138.6504">psa_pake_set_user(STA-A-MAC)</text><text fill="#000000" font-family="Roboto Mono,monospace" font-size="12" lengthAdjust="spacing" textLength="201.6328" x="218.6289" y="154.4766">psa_pake_set_peer(STA-B-MAC)</text></g><path d="M11,120.5137 L11,165.5137 A4,4 0 0 0 15,169.5137 L202,169.5137 A4,4 0 0 0 206,165.5137 L206,126.5137 L196,116.5137 L15,116.5137 A4,4 0 0 0 11,120.5137" fill="#E8E8E8" style="stroke:#7D868C;stroke-width:1;"/><path d="M196,116.5137 L196,124.5137 A2,2 0 0 0 198,126.5137 L206,126.5137 L196,116.5137" fill="#E8E8E8" style="stroke:#7D868C;stroke-width:1;"/><text fill="#000000" font-family="Roboto,sans-serif" font-size="12" lengthAdjust="spacing" textLength="73.5645" x="17" y="132.6465">Provide either</text><text fill="#000000" font-family="Roboto,sans-serif" font-size="12" font-style="italic" lengthAdjust="spacing" textLength="50.7773" x="93.541" y="132.6465">password</text><text fill="#000000" font-family="Roboto,sans-serif" font-size="12" lengthAdjust="spacing" textLength="10.9102" x="147.2949" y="132.6465">or</text><text fill="#000000" font-family="Roboto,sans-serif" font-size="12" font-style="italic" lengthAdjust="spacing" textLength="14.2852" x="161.1816" y="132.6465">PT</text><text fill="#000000" font-family="Roboto,sans-serif" font-size="12" lengthAdjust="spacing" textLength="10.7695" x="178.4434" y="132.6465">to</text><text fill="#000000" font-family="Roboto Mono,monospace" font-size="12" lengthAdjust="spacing" textLength="115.2188" x="17" y="148.1504">psa_pake_setup()</text><text fill="#000000" font-family="Roboto,sans-serif" font-size="12" lengthAdjust="spacing" textLength="55.9102" x="135.1953" y="148.4727">depending</text><text fill="#000000" font-family="Roboto,sans-serif" font-size="12" lengthAdjust="spacing" textLength="145.4707" x="17" y="162.5352">on PWE generation method</text><g class="message" data-participant-1="STAA" data-participant-2="STAA"><line style="stroke:#000000;stroke-width:1;" x1="211.6289" x2="253.6289" y1="205.2041" y2="205.2041"/><line style="stroke:#000000;stroke-width:1;" x1="253.6289" x2="253.6289" y1="205.2041" y2="218.2041"/><line style="stroke:#000000;stroke-width:1;" x1="212.6289" x2="253.6289" y1="218.2041" y2="218.2041"/><polygon fill="#000000" points="222.6289,214.2041,212.6289,218.2041,222.6289,222.2041" style="stroke:#000000;stroke-width:1;"/><text fill="#000000" font-family="Roboto Mono,monospace" font-size="12" lengthAdjust="spacing" textLength="122.4199" x="218.6289" y="199.9521">psa_pake_output()</text><text fill="#000000" font-family="Roboto,sans-serif" font-size="12" lengthAdjust="spacing" textLength="15.082" x="344.0254" y="200.2744">for</text><text fill="#000000" font-family="Roboto,sans-serif" font-size="12" font-style="italic" lengthAdjust="spacing" textLength="74.543" x="362.084" y="200.2744">commit-scalar</text><text fill="#000000" font-family="Roboto,sans-serif" font-size="12" lengthAdjust="spacing" textLength="5.8594" x="439.6035" y="200.2744">||</text><text fill="#000000" font-family="Roboto,sans-serif" font-size="12" font-style="italic" lengthAdjust="spacing" textLength="100.752" x="448.4395" y="200.2744">COMMIT-ELEMENT</text></g><path d="M5,189.7285 L5,219.7285 A4,4 0 0 0 9,223.7285 L202,223.7285 A4,4 0 0 0 206,219.7285 L206,195.7285 L196,185.7285 L9,185.7285 A4,4 0 0 0 5,189.7285" fill="#E8E8E8" style="stroke:#7D868C;stroke-width:1;"/><path d="M196,185.7285 L196,193.7285 A2,2 0 0 0 198,195.7285 L206,195.7285 L196,185.7285" fill="#E8E8E8" style="stroke:#7D868C;stroke-width:1;"/><text fill="#000000" font-family="Roboto,sans-serif" font-size="12" lengthAdjust="spacing" textLength="48.4102" x="11" y="201.8613">Generate</text><text fill="#000000" font-family="Roboto,sans-serif" font-size="12" font-style="italic" lengthAdjust="spacing" textLength="23.2676" x="62.3867" y="201.8613">rand</text><text fill="#000000" font-family="Roboto,sans-serif" font-size="12" lengthAdjust="spacing" textLength="2.3613" x="85.6543" y="201.8613">,</text><text fill="#000000" font-family="Roboto,sans-serif" font-size="12" font-style="italic" lengthAdjust="spacing" textLength="28.4473" x="90.9922" y="201.8613">mask</text><text fill="#000000" font-family="Roboto,sans-serif" font-size="12" lengthAdjust="spacing" textLength="52.8047" x="119.4395" y="201.8613">; compute</text><text fill="#000000" font-family="Roboto,sans-serif" font-size="12" font-style="italic" lengthAdjust="spacing" textLength="74.543" x="11" y="215.9238">commit-scalar</text><text fill="#000000" font-family="Roboto,sans-serif" font-size="12" lengthAdjust="spacing" textLength="2.3613" x="85.543" y="215.9238">,</text><text fill="#000000" font-family="Roboto,sans-serif" font-size="12" font-style="italic" lengthAdjust="spacing" textLength="100.752" x="90.8809" y="215.9238">COMMIT-ELEMENT</text><g class="message" data-participant-1="STAA" data-participant-2="STAB"><line style="stroke:#000000;stroke-width:1;" x1="603.9902" x2="593.9902" y1="248.916" y2="244.916"/><line style="stroke:#000000;stroke-width:1;" x1="603.9902" x2="593.9902" y1="248.916" y2="252.916"/><line style="stroke:#000000;stroke-width:1;" x1="211.6289" x2="604.9902" y1="248.916" y2="248.916"/><text fill="#000000" font-family="Roboto,sans-serif" font-size="12" font-style="italic" lengthAdjust="spacing" textLength="65.3379" x="218.6289" y="243.9863">SAE Commit</text><text fill="#000000" font-family="Roboto,sans-serif" font-size="12" lengthAdjust="spacing" textLength="31.6523" x="286.9434" y="243.9863">frame</text><text fill="#000000" font-family="Roboto,sans-serif" font-size="12" font-style="italic" lengthAdjust="spacing" textLength="188.5723" x="321.5723" y="243.9863">(commit-scalar, COMMIT-ELEMENT)</text></g><g class="message" data-participant-1="STAB" data-participant-2="STAA"><line style="stroke:#000000;stroke-width:1;" x1="212.6289" x2="222.6289" y1="276.9785" y2="272.9785"/><line style="stroke:#000000;stroke-width:1;" x1="212.6289" x2="222.6289" y1="276.9785" y2="280.9785"/><line style="stroke:#000000;stroke-width:1;" x1="211.6289" x2="604.9902" y1="276.9785" y2="276.9785"/><text fill="#000000" font-family="Roboto,sans-serif" font-size="12" font-style="italic" lengthAdjust="spacing" textLength="65.3379" x="228.6289" y="272.0488">SAE Commit</text><text fill="#000000" font-family="Roboto,sans-serif" font-size="12" lengthAdjust="spacing" textLength="31.6523" x="296.9434" y="272.0488">frame</text><text fill="#000000" font-family="Roboto,sans-serif" font-size="12" font-style="italic" lengthAdjust="spacing" textLength="245.5723" x="331.5723" y="272.0488">(peer-commit-scalar, PEER-COMMIT-ELEMENT)</text></g><g class="message" data-participant-1="STAA" data-participant-2="STAA"><line style="stroke:#000000;stroke-width:1;" x1="211.6289" x2="253.6289" y1="306.8047" y2="306.8047"/><line style="stroke:#000000;stroke-width:1;" x1="253.6289" x2="253.6289" y1="306.8047" y2="319.8047"/><line style="stroke:#000000;stroke-width:1;" x1="212.6289" x2="253.6289" y1="319.8047" y2="319.8047"/><polygon fill="#000000" points="222.6289,315.8047,212.6289,319.8047,222.6289,323.8047" style="stroke:#000000;stroke-width:1;"/><text fill="#000000" font-family="Roboto Mono,monospace" font-size="12" lengthAdjust="spacing" textLength="115.2188" x="218.6289" y="301.5527">psa_pake_input()</text><text fill="#000000" font-family="Roboto,sans-serif" font-size="12" lengthAdjust="spacing" textLength="15.082" x="336.8242" y="301.875">for</text><text fill="#000000" font-family="Roboto,sans-serif" font-size="12" font-style="italic" lengthAdjust="spacing" textLength="100.582" x="354.8828" y="301.875">peer-commit-scalar</text><text fill="#000000" font-family="Roboto,sans-serif" font-size="12" lengthAdjust="spacing" textLength="5.8594" x="458.4414" y="301.875">||</text><text fill="#000000" font-family="Roboto,sans-serif" font-size="12" font-style="italic" lengthAdjust="spacing" textLength="131.7129" x="467.2773" y="301.875">PEER-COMMIT-ELEMENT</text></g><path d="M44,298.3604 L44,314.3604 A4,4 0 0 0 48,318.3604 L202,318.3604 A4,4 0 0 0 206,314.3604 L206,304.3604 L196,294.3604 L48,294.3604 A4,4 0 0 0 44,298.3604" fill="#E8E8E8" style="stroke:#7D868C;stroke-width:1;"/><path d="M196,294.3604 L196,302.3604 A2,2 0 0 0 198,304.3604 L206,304.3604 L196,294.3604" fill="#E8E8E8" style="stroke:#7D868C;stroke-width:1;"/><text fill="#000000" font-family="Roboto,sans-serif" font-size="12" lengthAdjust="spacing" textLength="132.3867" x="50" y="310.4932">Validate inputs; compute</text><text fill="#000000" font-family="Roboto,sans-serif" font-size="12" font-style="italic" lengthAdjust="spacing" textLength="5.9004" x="185.3633" y="310.4932">k</text><g class="message" data-participant-1="STAA" data-participant-2="STAA"><line style="stroke:#000000;stroke-width:1;" x1="211.6289" x2="253.6289" y1="349.6309" y2="349.6309"/><line style="stroke:#000000;stroke-width:1;" x1="253.6289" x2="253.6289" y1="349.6309" y2="362.6309"/><line style="stroke:#000000;stroke-width:1;" x1="212.6289" x2="253.6289" y1="362.6309" y2="362.6309"/><polygon fill="#000000" points="222.6289,358.6309,212.6289,362.6309,222.6289,366.6309" style="stroke:#000000;stroke-width:1;"/><text fill="#000000" font-family="Roboto Mono,monospace" font-size="12" lengthAdjust="spacing" textLength="115.2188" x="218.6289" y="344.3789">psa_pake_input()</text><text fill="#000000" font-family="Roboto,sans-serif" font-size="12" lengthAdjust="spacing" textLength="15.082" x="336.8242" y="344.7012">for</text><text fill="#000000" font-family="Roboto,sans-serif" font-size="12" font-style="italic" lengthAdjust="spacing" textLength="18.9785" x="354.8828" y="344.7012">salt</text></g><path d="M57,341.1865 L57,357.1865 A4,4 0 0 0 61,361.1865 L202,361.1865 A4,4 0 0 0 206,357.1865 L206,347.1865 L196,337.1865 L61,337.1865 A4,4 0 0 0 57,341.1865" fill="#E8E8E8" style="stroke:#7D868C;stroke-width:1;"/><path d="M196,337.1865 L196,345.1865 A2,2 0 0 0 198,347.1865 L206,347.1865 L196,337.1865" fill="#E8E8E8" style="stroke:#7D868C;stroke-width:1;"/><text fill="#000000" font-family="Roboto,sans-serif" font-size="12" lengthAdjust="spacing" textLength="48.8203" x="63" y="353.3193">Compute</text><text fill="#000000" font-family="Roboto,sans-serif" font-size="12" font-style="italic" lengthAdjust="spacing" textLength="46.5176" x="114.7969" y="353.3193">SAE-KCK</text><text fill="#000000" font-family="Roboto,sans-serif" font-size="12" lengthAdjust="spacing" textLength="2.3613" x="161.3145" y="353.3193">,</text><text fill="#000000" font-family="Roboto,sans-serif" font-size="12" font-style="italic" lengthAdjust="spacing" textLength="24.8027" x="166.6523" y="353.3193">PMK</text><path d="M87,377.6309 L151.3438,377.6309 L151.3438,383.6934 L141.3438,393.6934 L83,393.6934 L83,381.6309 A4,4 0 0 1 87,377.6309" fill="#F0F0F0" style="stroke:#808080;stroke-width:1.5;"/><rect fill="none" height="129.7773" rx="4" ry="4" style="stroke:#808080;stroke-width:1;" width="556.4434" x="83" y="377.6309"/><text fill="#000000" font-family="Roboto,sans-serif" font-size="12" lengthAdjust="spacing" textLength="23.3438" x="98" y="389.7637">loop</text><text fill="#000000" font-family="Roboto,sans-serif" font-size="11" font-weight="bold" lengthAdjust="spacing" textLength="26.0068" x="166.3438" y="389.8359">[Until</text><text fill="#000000" font-family="Roboto,sans-serif" font-size="11" font-style="italic" font-weight="bold" lengthAdjust="spacing" textLength="61.2317" x="195.0845" y="389.8359">SAE Confirm</text><text fill="#000000" font-family="Roboto,sans-serif" font-size="11" font-weight="bold" lengthAdjust="spacing" textLength="204.4614" x="259.0501" y="389.8359">frame is successfully delivered to STA-B]</text><g class="message" data-participant-1="STAA" data-participant-2="STAA"><line style="stroke:#000000;stroke-width:1;" x1="211.6289" x2="253.6289" y1="415.5195" y2="415.5195"/><line style="stroke:#000000;stroke-width:1;" x1="253.6289" x2="253.6289" y1="415.5195" y2="428.5195"/><line style="stroke:#000000;stroke-width:1;" x1="212.6289" x2="253.6289" y1="428.5195" y2="428.5195"/><polygon fill="#000000" points="222.6289,424.5195,212.6289,428.5195,222.6289,432.5195" style="stroke:#000000;stroke-width:1;"/><text fill="#000000" font-family="Roboto Mono,monospace" font-size="12" lengthAdjust="spacing" textLength="115.2188" x="218.6289" y="410.2676">psa_pake_input()</text><text fill="#000000" font-family="Roboto,sans-serif" font-size="12" lengthAdjust="spacing" textLength="15.082" x="336.8242" y="410.5898">for</text><text fill="#000000" font-family="Roboto,sans-serif" font-size="12" font-style="italic" lengthAdjust="spacing" textLength="68.5723" x="354.8828" y="410.5898">send-confirm</text><text fill="#000000" font-family="Roboto,sans-serif" font-size="12" lengthAdjust="spacing" textLength="40.7227" x="426.4316" y="410.5898">counter</text></g><g class="message" data-participant-1="STAA" data-participant-2="STAA"><line style="stroke:#000000;stroke-width:1;" x1="211.6289" x2="253.6289" y1="458.3457" y2="458.3457"/><line style="stroke:#000000;stroke-width:1;" x1="253.6289" x2="253.6289" y1="458.3457" y2="471.3457"/><line style="stroke:#000000;stroke-width:1;" x1="212.6289" x2="253.6289" y1="471.3457" y2="471.3457"/><polygon fill="#000000" points="222.6289,467.3457,212.6289,471.3457,222.6289,475.3457" style="stroke:#000000;stroke-width:1;"/><text fill="#000000" font-family="Roboto Mono,monospace" font-size="12" lengthAdjust="spacing" textLength="122.4199" x="218.6289" y="453.0938">psa_pake_output()</text><text fill="#000000" font-family="Roboto,sans-serif" font-size="12" lengthAdjust="spacing" textLength="15.082" x="344.0254" y="453.416">for</text><text fill="#000000" font-family="Roboto,sans-serif" font-size="12" font-style="italic" lengthAdjust="spacing" textLength="68.5723" x="362.084" y="453.416">send-confirm</text><text fill="#000000" font-family="Roboto,sans-serif" font-size="12" lengthAdjust="spacing" textLength="5.8594" x="433.6328" y="453.416">||</text><text fill="#000000" font-family="Roboto,sans-serif" font-size="12" font-style="italic" lengthAdjust="spacing" textLength="40.1895" x="442.4688" y="453.416">confirm</text></g><path d="M93,449.9014 L93,465.9014 A4,4 0 0 0 97,469.9014 L201,469.9014 A4,4 0 0 0 205,465.9014 L205,455.9014 L195,445.9014 L97,445.9014 A4,4 0 0 0 93,449.9014" fill="#E8E8E8" style="stroke:#7D868C;stroke-width:1;"/><path d="M195,445.9014 L195,453.9014 A2,2 0 0 0 197,455.9014 L205,455.9014 L195,445.9014" fill="#E8E8E8" style="stroke:#7D868C;stroke-width:1;"/><text fill="#000000" font-family="Roboto,sans-serif" font-size="12" lengthAdjust="spacing" textLength="48.8203" x="99" y="462.0342">Compute</text><text fill="#000000" font-family="Roboto,sans-serif" font-size="12" font-style="italic" lengthAdjust="spacing" textLength="40.1895" x="150.7969" y="462.0342">confirm</text><g class="message" data-participant-1="STAA" data-participant-2="STAB"><line style="stroke:#000000;stroke-width:1;" x1="603.9902" x2="593.9902" y1="499.4082" y2="495.4082"/><line style="stroke:#000000;stroke-width:1;" x1="603.9902" x2="593.9902" y1="499.4082" y2="503.4082"/><line style="stroke:#000000;stroke-width:1;" x1="211.6289" x2="604.9902" y1="499.4082" y2="499.4082"/><text fill="#000000" font-family="Roboto,sans-serif" font-size="12" font-style="italic" lengthAdjust="spacing" textLength="65.7422" x="218.6289" y="494.4785">SAE Confirm</text><text fill="#000000" font-family="Roboto,sans-serif" font-size="12" lengthAdjust="spacing" textLength="31.6523" x="287.3477" y="494.4785">frame</text><text fill="#000000" font-family="Roboto,sans-serif" font-size="12" font-style="italic" lengthAdjust="spacing" textLength="122.0391" x="321.9766" y="494.4785">(send-confirm, confirm)</text></g><g class="message" data-participant-1="STAB" data-participant-2="STAA"><line style="stroke:#000000;stroke-width:1;" x1="212.6289" x2="222.6289" y1="534.4707" y2="530.4707"/><line style="stroke:#000000;stroke-width:1;" x1="212.6289" x2="222.6289" y1="534.4707" y2="538.4707"/><line style="stroke:#000000;stroke-width:1;" x1="211.6289" x2="604.9902" y1="534.4707" y2="534.4707"/><text fill="#000000" font-family="Roboto,sans-serif" font-size="12" font-style="italic" lengthAdjust="spacing" textLength="65.7422" x="228.6289" y="529.541">SAE Confirm</text><text fill="#000000" font-family="Roboto,sans-serif" font-size="12" lengthAdjust="spacing" textLength="31.6523" x="297.3477" y="529.541">frame</text><text fill="#000000" font-family="Roboto,sans-serif" font-size="12" font-style="italic" lengthAdjust="spacing" textLength="174.1172" x="331.9766" y="529.541">(peer-send-confirm, peer-confirm)</text></g><g class="message" data-participant-1="STAA" data-participant-2="STAA"><line style="stroke:#000000;stroke-width:1;" x1="211.6289" x2="253.6289" y1="566.9463" y2="566.9463"/><line style="stroke:#000000;stroke-width:1;" x1="253.6289" x2="253.6289" y1="566.9463" y2="579.9463"/><line style="stroke:#000000;stroke-width:1;" x1="212.6289" x2="253.6289" y1="579.9463" y2="579.9463"/><polygon fill="#000000" points="222.6289,575.9463,212.6289,579.9463,222.6289,583.9463" style="stroke:#000000;stroke-width:1;"/><text fill="#000000" font-family="Roboto Mono,monospace" font-size="12" lengthAdjust="spacing" textLength="115.2188" x="218.6289" y="561.6943">psa_pake_input()</text><text fill="#000000" font-family="Roboto,sans-serif" font-size="12" lengthAdjust="spacing" textLength="15.082" x="336.8242" y="562.0166">for</text><text fill="#000000" font-family="Roboto,sans-serif" font-size="12" font-style="italic" lengthAdjust="spacing" textLength="94.6113" x="354.8828" y="562.0166">peer-send-confirm</text><text fill="#000000" font-family="Roboto,sans-serif" font-size="12" lengthAdjust="spacing" textLength="5.8594" x="452.4707" y="562.0166">||</text><text fill="#000000" font-family="Roboto,sans-serif" font-size="12" font-style="italic" lengthAdjust="spacing" textLength="66.2285" x="461.3066" y="562.0166">peer-confirm</text></g><path d="M52,551.4707 L52,581.4707 A4,4 0 0 0 56,585.4707 L201,585.4707 A4,4 0 0 0 205,581.4707 L205,557.4707 L195,547.4707 L56,547.4707 A4,4 0 0 0 52,551.4707" fill="#E8E8E8" style="stroke:#7D868C;stroke-width:1;"/><path d="M195,547.4707 L195,555.4707 A2,2 0 0 0 197,557.4707 L205,557.4707 L195,547.4707" fill="#E8E8E8" style="stroke:#7D868C;stroke-width:1;"/><text fill="#000000" font-family="Roboto,sans-serif" font-size="12" lengthAdjust="spacing" textLength="116.4551" x="58" y="563.6035">Compute and validate</text><text fill="#000000" font-family="Roboto,sans-serif" font-size="12" font-style="italic" lengthAdjust="spacing" textLength="54.1758" x="58" y="577.666">peer-verify</text><text fill="#000000" font-family="Roboto,sans-serif" font-size="12" lengthAdjust="spacing" textLength="6.5859" x="115.1523" y="577.666">=</text><text fill="#000000" font-family="Roboto,sans-serif" font-size="12" font-style="italic" lengthAdjust="spacing" textLength="66.2285" x="124.7148" y="577.666">peer-confirm</text><path d="M182,597.5957 L240.5078,597.5957 L240.5078,603.6582 L230.5078,613.6582 L178,613.6582 L178,601.5957 A4,4 0 0 1 182,597.5957" fill="#F0F0F0" style="stroke:#808080;stroke-width:1.5;"/><rect fill="none" height="58.8887" rx="4" ry="4" style="stroke:#808080;stroke-width:1;" width="231.6914" x="178" y="597.5957"/><text fill="#000000" font-family="Roboto,sans-serif" font-size="12" lengthAdjust="spacing" textLength="17.5078" x="193" y="609.7285">opt</text><g class="message" data-participant-1="STAA" data-participant-2="STAA"><line style="stroke:#000000;stroke-width:1;" x1="211.6289" x2="253.6289" y1="635.4844" y2="635.4844"/><line style="stroke:#000000;stroke-width:1;" x1="253.6289" x2="253.6289" y1="635.4844" y2="648.4844"/><line style="stroke:#000000;stroke-width:1;" x1="212.6289" x2="253.6289" y1="648.4844" y2="648.4844"/><polygon fill="#000000" points="222.6289,644.4844,212.6289,648.4844,222.6289,652.4844" style="stroke:#000000;stroke-width:1;"/><text fill="#000000" font-family="Roboto Mono,monospace" font-size="12" lengthAdjust="spacing" textLength="122.4199" x="218.6289" y="630.2324">psa_pake_output()</text><text fill="#000000" font-family="Roboto,sans-serif" font-size="12" lengthAdjust="spacing" textLength="15.082" x="344.0254" y="630.5547">for</text><text fill="#000000" font-family="Roboto,sans-serif" font-size="12" font-style="italic" lengthAdjust="spacing" textLength="35.6074" x="362.084" y="630.5547">PMKID</text></g><g class="message" data-participant-1="STAA" data-participant-2="STAA"><line style="stroke:#000000;stroke-width:1;" x1="211.6289" x2="253.6289" y1="685.3105" y2="685.3105"/><line style="stroke:#000000;stroke-width:1;" x1="253.6289" x2="253.6289" y1="685.3105" y2="698.3105"/><line style="stroke:#000000;stroke-width:1;" x1="212.6289" x2="253.6289" y1="698.3105" y2="698.3105"/><polygon fill="#000000" points="222.6289,694.3105,212.6289,698.3105,222.6289,702.3105" style="stroke:#000000;stroke-width:1;"/><text fill="#000000" font-family="Roboto Mono,monospace" font-size="12" lengthAdjust="spacing" textLength="180.0293" x="218.6289" y="680.0586">psa_pake_get_shared_key()</text><text fill="#000000" font-family="Roboto,sans-serif" font-size="12" lengthAdjust="spacing" textLength="50.7891" x="401.6348" y="680.3809">to extract</text><text fill="#000000" font-family="Roboto,sans-serif" font-size="12" font-style="italic" lengthAdjust="spacing" textLength="24.8027" x="455.4004" y="680.3809">PMK</text></g></g></svg>