<svg xmlns="http://www.w3.org/2000/svg" xmlns:xlink="http://www.w3.org/1999/xlink" contentStyleType="text/css" data-diagram-type="SEQUENCE" height="398px" preserveAspectRatio="none" style="width:653px;height:398px;background:#FFFFFF55;" version="1.1" viewBox="0 0 653 398" width="653px" zoomAndPan="magnify"><defs><style type="text/css">@import url('https://fonts.googleapis.com/css?family=Roboto:400,100,100italic,300,300italic,400italic,500,500italic,700,700italic,900,900italic');</style></defs><g><rect fill="#FFFFFF" fill-opacity="0.33333" height="398" style="stroke:none;stroke-width:1;" width="653" x="0" y="0"/><rect fill="#FFFFFF" fill-opacity="0.50196" height="289.2715" rx="4" ry="4" style="stroke:#808080;stroke-width:1;" width="637.8359" x="9" y="85.125"/><rect fill="#FFFFFF" fill-opacity="0.50196" height="58.8887" rx="4" ry="4" style="stroke:#808080;stroke-width:1;" width="488.8359" x="148" y="182.666"/><path d="M9,325.4434 L646.8359,325.4434 L646.8359,370.3965 A4,4 0 0 1 642.8359,374.3965 L13,374.3965 A4,4 0 0 1 9,370.3965 L9,325.4434" fill="#FFFFFF" fill-opacity="0.50196" style="stroke:none;stroke-width:1;"/><g><title>station (STA)</title><rect fill="#000000" fill-opacity="0.00000" height="357.334" width="8" x="196.168" y="34.0625"/><line style="stroke:#808080;stroke-width:0.5;stroke-dasharray:5.0,5.0;" x1="200" x2="200" y1="34.0625" y2="391.3965"/></g><g class="participant participant-head" data-participant="Participant"><rect fill="#FFFFFF" height="28.0625" rx="4" ry="4" style="stroke:#000000;stroke-width:1;" width="84.3359" x="158" y="5"/><text fill="#000000" font-family="Roboto,sans-serif" font-size="12" lengthAdjust="spacing" textLength="70.3359" x="165" y="23.1328">station (STA)</text></g><path d="M7,53.0625 L7,69.0625 A4,4 0 0 0 11,73.0625 L389,73.0625 A4,4 0 0 0 393,69.0625 L393,59.0625 L383,49.0625 L11,49.0625 A4,4 0 0 0 7,53.0625" fill="#E8E8E8" style="stroke:#7D868C;stroke-width:1;"/><path d="M383,49.0625 L383,57.0625 A2,2 0 0 0 385,59.0625 L393,59.0625 L383,49.0625" fill="#E8E8E8" style="stroke:#7D868C;stroke-width:1;"/><text fill="#000000" font-family="Roboto,sans-serif" font-size="12" lengthAdjust="spacing" textLength="167.2559" x="13" y="65.1953">Initial information : cipher suite,</text><text fill="#000000" font-family="Roboto,sans-serif" font-size="12" font-style="italic" lengthAdjust="spacing" textLength="24.6328" x="183.2324" y="65.1953">SSID</text><text fill="#000000" font-family="Roboto,sans-serif" font-size="12" lengthAdjust="spacing" textLength="2.3613" x="207.8652" y="65.1953">,</text><text fill="#000000" font-family="Roboto,sans-serif" font-size="12" font-style="italic" lengthAdjust="spacing" textLength="50.7773" x="213.2031" y="65.1953">password</text><text fill="#000000" font-family="Roboto,sans-serif" font-size="12" lengthAdjust="spacing" textLength="5.543" x="266.957" y="65.1953">[,</text><text fill="#000000" font-family="Roboto,sans-serif" font-size="12" font-style="italic" lengthAdjust="spacing" textLength="99.6152" x="275.4766" y="65.1953">password-identifier</text><text fill="#000000" font-family="Roboto,sans-serif" font-size="12" lengthAdjust="spacing" textLength="3.1816" x="375.0918" y="65.1953">]</text><path d="M13,85.125 L67.3711,85.125 L67.3711,91.1875 L57.3711,101.1875 L9,101.1875 L9,89.125 A4,4 0 0 1 13,85.125" fill="#F0F0F0" style="stroke:#808080;stroke-width:1.5;"/><rect fill="none" height="289.2715" rx="4" ry="4" style="stroke:#808080;stroke-width:1;" width="637.8359" x="9" y="85.125"/><text fill="#000000" font-family="Roboto,sans-serif" font-size="12" lengthAdjust="spacing" textLength="13.3711" x="24" y="97.2578">alt</text><text fill="#000000" font-family="Roboto,sans-serif" font-size="11" font-weight="bold" lengthAdjust="spacing" textLength="252.6724" x="82.3711" y="97.3301">[Hash-to-element generation of password element]</text><g class="message" data-participant-1="Participant" data-participant-2="Participant"><line style="stroke:#000000;stroke-width:1;" x1="200.168" x2="242.168" y1="154.666" y2="154.666"/><line style="stroke:#000000;stroke-width:1;" x1="242.168" x2="242.168" y1="154.666" y2="167.666"/><line style="stroke:#000000;stroke-width:1;" x1="201.168" x2="242.168" y1="167.666" y2="167.666"/><polygon fill="#000000" points="211.168,163.666,201.168,167.666,211.168,171.666" style="stroke:#000000;stroke-width:1;"/><text fill="#000000" font-family="Roboto Mono,monospace" font-size="12" lengthAdjust="spacing" textLength="273.6445" x="207.168" y="117.7617">psa_key_derivation_setup(WPA3_SAE_H2E)</text><text fill="#000000" font-family="Roboto Mono,monospace" font-size="12" lengthAdjust="spacing" textLength="309.6504" x="207.168" y="133.5879">psa_key_derivation_input_bytes(SALT = SSID)</text><text fill="#000000" font-family="Roboto Mono,monospace" font-size="12" lengthAdjust="spacing" textLength="352.8574" x="207.168" y="149.4141">psa_key_derivation_input_key(PASSWORD = password)</text></g><path d="M152,182.666 L210.5078,182.666 L210.5078,188.7285 L200.5078,198.7285 L148,198.7285 L148,186.666 A4,4 0 0 1 152,182.666" fill="#F0F0F0" style="stroke:#808080;stroke-width:1.5;"/><rect fill="none" height="58.8887" rx="4" ry="4" style="stroke:#808080;stroke-width:1;" width="488.8359" x="148" y="182.666"/><text fill="#000000" font-family="Roboto,sans-serif" font-size="12" lengthAdjust="spacing" textLength="17.5078" x="163" y="194.7988">opt</text><g class="message" data-participant-1="Participant" data-participant-2="Participant"><line style="stroke:#000000;stroke-width:1;" x1="200.168" x2="242.168" y1="220.5547" y2="220.5547"/><line style="stroke:#000000;stroke-width:1;" x1="242.168" x2="242.168" y1="220.5547" y2="233.5547"/><line style="stroke:#000000;stroke-width:1;" x1="201.168" x2="242.168" y1="233.5547" y2="233.5547"/><polygon fill="#000000" points="211.168,229.5547,201.168,233.5547,211.168,237.5547" style="stroke:#000000;stroke-width:1;"/><text fill="#000000" font-family="Roboto Mono,monospace" font-size="12" lengthAdjust="spacing" textLength="417.668" x="207.168" y="215.3027">psa_key_derivation_input_bytes(INFO = password-identifier)</text></g><g class="message" data-participant-1="Participant" data-participant-2="Participant"><line style="stroke:#000000;stroke-width:1;" x1="200.168" x2="242.168" y1="270.3809" y2="270.3809"/><line style="stroke:#000000;stroke-width:1;" x1="242.168" x2="242.168" y1="270.3809" y2="283.3809"/><line style="stroke:#000000;stroke-width:1;" x1="201.168" x2="242.168" y1="283.3809" y2="283.3809"/><polygon fill="#000000" points="211.168,279.3809,201.168,283.3809,211.168,287.3809" style="stroke:#000000;stroke-width:1;"/><text fill="#000000" font-family="Roboto Mono,monospace" font-size="12" lengthAdjust="spacing" textLength="302.4492" x="207.168" y="265.1289">psa_key_derivation_output_key(WPA3_SAE_XX)</text></g><path d="M19,261.9365 L19,277.9365 A4,4 0 0 0 23,281.9365 L190,281.9365 A4,4 0 0 0 194,277.9365 L194,267.9365 L184,257.9365 L23,257.9365 A4,4 0 0 0 19,261.9365" fill="#E8E8E8" style="stroke:#7D868C;stroke-width:1;"/><path d="M184,257.9365 L184,265.9365 A2,2 0 0 0 186,267.9365 L194,267.9365 L184,257.9365" fill="#E8E8E8" style="stroke:#7D868C;stroke-width:1;"/><text fill="#000000" font-family="Roboto,sans-serif" font-size="12" lengthAdjust="spacing" textLength="136.9629" x="25" y="274.0693">Compute password token</text><text fill="#000000" font-family="Roboto,sans-serif" font-size="12" font-style="italic" lengthAdjust="spacing" textLength="14.2852" x="164.9395" y="274.0693">PT</text><path d="M109,300.3809 L109,316.3809 A4,4 0 0 0 113,320.3809 L287,320.3809 A4,4 0 0 0 291,316.3809 L291,306.3809 L281,296.3809 L113,296.3809 A4,4 0 0 0 109,300.3809" fill="#E8E8E8" style="stroke:#7D868C;stroke-width:1;"/><path d="M281,296.3809 L281,304.3809 A2,2 0 0 0 283,306.3809 L291,306.3809 L281,296.3809" fill="#E8E8E8" style="stroke:#7D868C;stroke-width:1;"/><text fill="#000000" font-family="Roboto,sans-serif" font-size="12" lengthAdjust="spacing" textLength="20.3379" x="115" y="312.5137">Use</text><text fill="#000000" font-family="Roboto,sans-serif" font-size="12" font-style="italic" lengthAdjust="spacing" textLength="14.2852" x="138.3145" y="312.5137">PT</text><text fill="#000000" font-family="Roboto,sans-serif" font-size="12" lengthAdjust="spacing" textLength="120.6211" x="155.5762" y="312.5137">for authentication flow</text><line style="stroke:#808080;stroke-width:1;stroke-dasharray:2.0,2.0;" x1="9" x2="646.8359" y1="326.4434" y2="326.4434"/><text fill="#000000" font-family="Roboto,sans-serif" font-size="11" font-weight="bold" lengthAdjust="spacing" textLength="239.5669" x="14" y="336.6484">[Generation of the password element by looping]</text><path d="M90,349.334 L90,365.334 A4,4 0 0 0 94,369.334 L304,369.334 A4,4 0 0 0 308,365.334 L308,355.334 L298,345.334 L94,345.334 A4,4 0 0 0 90,349.334" fill="#E8E8E8" style="stroke:#7D868C;stroke-width:1;"/><path d="M298,345.334 L298,353.334 A2,2 0 0 0 300,355.334 L308,355.334 L298,345.334" fill="#E8E8E8" style="stroke:#7D868C;stroke-width:1;"/><text fill="#000000" font-family="Roboto,sans-serif" font-size="12" lengthAdjust="spacing" textLength="20.3379" x="96" y="361.4668">Use</text><text fill="#000000" font-family="Roboto,sans-serif" font-size="12" font-style="italic" lengthAdjust="spacing" textLength="50.7773" x="119.3145" y="361.4668">password</text><text fill="#000000" font-family="Roboto,sans-serif" font-size="12" lengthAdjust="spacing" textLength="120.6211" x="173.0684" y="361.4668">for authentication flow</text></g></svg>