<?xml version="1.0" encoding="UTF-8" standalone="no"?><svg xmlns="http://www.w3.org/2000/svg" xmlns:xlink="http://www.w3.org/1999/xlink" contentStyleType="text/css" height="391px" preserveAspectRatio="none" style="width:637px;height:391px;background:#FFFFFF55;" version="1.1" viewBox="0 0 637 391" width="637px" zoomAndPan="magnify"><defs/><g><rect fill="#FFFFFF" fill-opacity="0.50196" height="282.0545" rx="4" ry="4" style="stroke:#808080;stroke-width:1.0;" width="621.5" x="9" y="85.8002"/><rect fill="#FFFFFF" fill-opacity="0.50196" height="57.4509" rx="4" ry="4" style="stroke:#808080;stroke-width:1.0;" width="475.5" x="145" y="178.3526"/><path d="M9,318.2544 L630.5,318.2544 L630.5,363.8547 A4,4 0 0 1 626.5,367.8547 L13,367.8547 A4,4 0 0 1 9,363.8547 L9,318.2544 " fill="#FFFFFF" fill-opacity="0.50196" style="stroke:none;stroke-width:1.0;"/><line style="stroke:#808080;stroke-width:0.5;stroke-dasharray:5.0,5.0;" x1="195" x2="195" y1="34.4001" y2="384.8547"/><rect fill="#FFFFFF" height="28.4001" rx="4" ry="4" style="stroke:#000000;stroke-width:1.0;" width="81" x="155" y="5"/><text fill="#000000" font-family="Lato,sans-serif" font-size="12" lengthAdjust="spacing" textLength="67" x="162" y="23.8441">station (STA)</text><path d="M8,53.4001 L8,69.4001 A4,4 0 0 0 12,73.4001 L379,73.4001 A4,4 0 0 0 383,69.4001 L383,59.4001 L373,49.4001 L12,49.4001 A4,4 0 0 0 8,53.4001 " fill="#E8E8E8" style="stroke:#181818;stroke-width:1.0;"/><path d="M373,49.4001 L373,57.4001 A2,2 0 0 0 375,59.4001 L383,59.4001 L373,49.4001 " fill="#E8E8E8" style="stroke:#181818;stroke-width:1.0;"/><text fill="#000000" font-family="Lato,sans-serif" font-size="12" lengthAdjust="spacing" textLength="166" x="14" y="66.2442">Initial information : cipher suite,</text><text fill="#000000" font-family="Lato,sans-serif" font-size="12" font-style="italic" lengthAdjust="spacing" textLength="23" x="182" y="66.2442">SSID</text><text fill="#000000" font-family="Lato,sans-serif" font-size="12" lengthAdjust="spacing" textLength="3" x="205" y="66.2442">,</text><text fill="#000000" font-family="Lato,sans-serif" font-size="12" font-style="italic" lengthAdjust="spacing" textLength="47" x="210" y="66.2442">password</text><text fill="#000000" font-family="Lato,sans-serif" font-size="12" lengthAdjust="spacing" textLength="7" x="259" y="66.2442">[,</text><text fill="#000000" font-family="Lato,sans-serif" font-size="12" font-style="italic" lengthAdjust="spacing" textLength="96" x="268" y="66.2442">password-identifier</text><text fill="#000000" font-family="Lato,sans-serif" font-size="12" lengthAdjust="spacing" textLength="4" x="364" y="66.2442">]</text><path d="M13,85.8002 L67,85.8002 L67,92.2003 L57,102.2003 L9,102.2003 L9,89.8002 A4,4 0 0 1 13,85.8002 " fill="#F0F0F0" style="stroke:#808080;stroke-width:1.5;"/><rect fill="none" height="282.0545" rx="4" ry="4" style="stroke:#808080;stroke-width:1.0;" width="621.5" x="9" y="85.8002"/><text fill="#000000" font-family="Lato,sans-serif" font-size="12" lengthAdjust="spacing" textLength="13" x="24" y="98.6443">alt</text><text fill="#000000" font-family="Lato,sans-serif" font-size="11" font-weight="bold" lengthAdjust="spacing" textLength="249" x="82" y="98.6574">[Hash-to-element generation of password element]</text><line style="stroke:#000000;stroke-width:1.0;" x1="195.5" x2="237.5" y1="150.3526" y2="150.3526"/><line style="stroke:#000000;stroke-width:1.0;" x1="237.5" x2="237.5" y1="150.3526" y2="163.3526"/><line style="stroke:#000000;stroke-width:1.0;" x1="196.5" x2="237.5" y1="163.3526" y2="163.3526"/><polygon fill="#000000" points="206.5,159.3526,196.5,163.3526,206.5,167.3526" style="stroke:#000000;stroke-width:1.0;"/><text fill="#000000" font-family="Consolas,Menlo,monospace" font-size="12" lengthAdjust="spacing" textLength="266" x="202.5" y="117.1632">psa_key_derivation_setup(WPA3_SAE_H2E)</text><text fill="#000000" font-family="Consolas,Menlo,monospace" font-size="12" lengthAdjust="spacing" textLength="301" x="202.5" y="131.214">psa_key_derivation_input_bytes(SALT = SSID)</text><text fill="#000000" font-family="Consolas,Menlo,monospace" font-size="12" lengthAdjust="spacing" textLength="343" x="202.5" y="145.2648">psa_key_derivation_input_key(PASSWORD = password)</text><path d="M149,178.3526 L208,178.3526 L208,184.7527 L198,194.7527 L145,194.7527 L145,182.3526 A4,4 0 0 1 149,178.3526 " fill="#F0F0F0" style="stroke:#808080;stroke-width:1.5;"/><rect fill="none" height="57.4509" rx="4" ry="4" style="stroke:#808080;stroke-width:1.0;" width="475.5" x="145" y="178.3526"/><text fill="#000000" font-family="Lato,sans-serif" font-size="12" lengthAdjust="spacing" textLength="18" x="160" y="191.1967">opt</text><line style="stroke:#000000;stroke-width:1.0;" x1="195.5" x2="237.5" y1="214.8035" y2="214.8035"/><line style="stroke:#000000;stroke-width:1.0;" x1="237.5" x2="237.5" y1="214.8035" y2="227.8035"/><line style="stroke:#000000;stroke-width:1.0;" x1="196.5" x2="237.5" y1="227.8035" y2="227.8035"/><polygon fill="#000000" points="206.5,223.8035,196.5,227.8035,206.5,231.8035" style="stroke:#000000;stroke-width:1.0;"/><text fill="#000000" font-family="Consolas,Menlo,monospace" font-size="12" lengthAdjust="spacing" textLength="406" x="202.5" y="209.7156">psa_key_derivation_input_bytes(INFO = password-identifier)</text><line style="stroke:#000000;stroke-width:1.0;" x1="195.5" x2="237.5" y1="262.8543" y2="262.8543"/><line style="stroke:#000000;stroke-width:1.0;" x1="237.5" x2="237.5" y1="262.8543" y2="275.8543"/><line style="stroke:#000000;stroke-width:1.0;" x1="196.5" x2="237.5" y1="275.8543" y2="275.8543"/><polygon fill="#000000" points="206.5,271.8543,196.5,275.8543,206.5,279.8543" style="stroke:#000000;stroke-width:1.0;"/><text fill="#000000" font-family="Consolas,Menlo,monospace" font-size="12" lengthAdjust="spacing" textLength="315" x="202.5" y="257.7664">psa_key_derivation_output_key(WPA3_SAE_XX_PT)</text><path d="M19,255.1289 L19,271.1289 A4,4 0 0 0 23,275.1289 L186,275.1289 A4,4 0 0 0 190,271.1289 L190,261.1289 L180,251.1289 L23,251.1289 A4,4 0 0 0 19,255.1289 " fill="#E8E8E8" style="stroke:#181818;stroke-width:1.0;"/><path d="M180,251.1289 L180,259.1289 A2,2 0 0 0 182,261.1289 L190,261.1289 L180,251.1289 " fill="#E8E8E8" style="stroke:#181818;stroke-width:1.0;"/><text fill="#000000" font-family="Lato,sans-serif" font-size="12" lengthAdjust="spacing" textLength="134" x="25" y="267.973">Compute password token</text><text fill="#000000" font-family="Lato,sans-serif" font-size="12" font-style="italic" lengthAdjust="spacing" textLength="14" x="161" y="267.973">PT</text><path d="M106,292.8543 L106,308.8543 A4,4 0 0 0 110,312.8543 L281,312.8543 A4,4 0 0 0 285,308.8543 L285,298.8543 L275,288.8543 L110,288.8543 A4,4 0 0 0 106,292.8543 " fill="#E8E8E8" style="stroke:#181818;stroke-width:1.0;"/><path d="M275,288.8543 L275,296.8543 A2,2 0 0 0 277,298.8543 L285,298.8543 L275,288.8543 " fill="#E8E8E8" style="stroke:#181818;stroke-width:1.0;"/><text fill="#000000" font-family="Lato,sans-serif" font-size="12" lengthAdjust="spacing" textLength="20" x="112" y="305.6984">Use</text><text fill="#000000" font-family="Lato,sans-serif" font-size="12" font-style="italic" lengthAdjust="spacing" textLength="14" x="134" y="305.6984">PT</text><text fill="#000000" font-family="Lato,sans-serif" font-size="12" lengthAdjust="spacing" textLength="120" x="150" y="305.6984">for authentication flow</text><line style="stroke:#808080;stroke-width:1.0;stroke-dasharray:2.0,2.0;" x1="9" x2="630.5" y1="319.2544" y2="319.2544"/><text fill="#000000" font-family="Lato,sans-serif" font-size="11" font-weight="bold" lengthAdjust="spacing" textLength="236" x="14" y="330.1116">[Generation of the password element by looping]</text><path d="M89,342.4546 L89,358.4546 A4,4 0 0 0 93,362.4546 L297,362.4546 A4,4 0 0 0 301,358.4546 L301,348.4546 L291,338.4546 L93,338.4546 A4,4 0 0 0 89,342.4546 " fill="#E8E8E8" style="stroke:#181818;stroke-width:1.0;"/><path d="M291,338.4546 L291,346.4546 A2,2 0 0 0 293,348.4546 L301,348.4546 L291,338.4546 " fill="#E8E8E8" style="stroke:#181818;stroke-width:1.0;"/><text fill="#000000" font-family="Lato,sans-serif" font-size="12" lengthAdjust="spacing" textLength="20" x="95" y="355.2987">Use</text><text fill="#000000" font-family="Lato,sans-serif" font-size="12" font-style="italic" lengthAdjust="spacing" textLength="47" x="117" y="355.2987">password</text><text fill="#000000" font-family="Lato,sans-serif" font-size="12" lengthAdjust="spacing" textLength="120" x="166" y="355.2987">for authentication flow</text></g></svg>