<svg xmlns="http://www.w3.org/2000/svg" xmlns:xlink="http://www.w3.org/1999/xlink" contentStyleType="text/css" data-diagram-type="SEQUENCE" height="834px" preserveAspectRatio="none" style="width:739px;height:834px;background:#FFFFFF55;" version="1.1" viewBox="0 0 739 834" width="739px" zoomAndPan="magnify"><defs/><g><rect fill="#FFFFFF" fill-opacity="0.33333" height="834" style="stroke:none;stroke-width:1;" width="739" x="0" y="0"/><g><title>Prover //(Client role)//</title><rect fill="#000000" fill-opacity="0.00000" height="793.304" width="8" x="168.417" y="34.4"/><line style="stroke:#808080;stroke-width:0.5;stroke-dasharray:5.0,5.0;" x1="171.699" x2="171.699" y1="34.4" y2="827.704"/></g><g><title>Verifier //(Server role)//</title><rect fill="#000000" fill-opacity="0.00000" height="793.304" width="8" x="458.293" y="34.4"/><line style="stroke:#808080;stroke-width:0.5;stroke-dasharray:5.0,5.0;" x1="461.35" x2="461.35" y1="34.4" y2="827.704"/></g><g class="participant participant-head" data-participant="Prover"><rect fill="#FFFFFF" height="28.4" rx="4" ry="4" style="stroke:#000000;stroke-width:1;" width="109.436" x="117.699" y="5"/><text fill="#000000" font-family="Lato,sans-serif" font-size="12" lengthAdjust="spacing" textLength="35.274" x="124.699" y="23.844">Prover</text><text fill="#000000" font-family="Lato,sans-serif" font-size="12" font-style="italic" lengthAdjust="spacing" textLength="57.09" x="163.045" y="23.844">(Client role)</text></g><g class="participant participant-head" data-participant="Verifier"><rect fill="#FFFFFF" height="28.4" rx="4" ry="4" style="stroke:#000000;stroke-width:1;" width="115.886" x="404.35" y="5"/><text fill="#000000" font-family="Lato,sans-serif" font-size="12" lengthAdjust="spacing" textLength="39.498" x="411.35" y="23.844">Verifier</text><text fill="#000000" font-family="Lato,sans-serif" font-size="12" font-style="italic" lengthAdjust="spacing" textLength="59.316" x="453.92" y="23.844">(Server role)</text></g><path d="M118,53.4 L118,69.4 A4,4 0 0 0 122,73.4 L511,73.4 A4,4 0 0 0 515,69.4 L515,59.4 L505,49.4 L122,49.4 A4,4 0 0 0 118,53.4" fill="#E8E8E8" style="stroke:#7D868C;stroke-width:1;"/><path d="M505,49.4 L505,57.4 A2,2 0 0 0 507,59.4 L515,59.4 L505,49.4" fill="#E8E8E8" style="stroke:#7D868C;stroke-width:1;"/><text fill="#000000" font-family="Lato,sans-serif" font-size="12" lengthAdjust="spacing" textLength="174.216" x="142.4655" y="66.244">Shared information : cipher suite,</text><text fill="#000000" font-family="Lato,sans-serif" font-size="12" font-style="italic" lengthAdjust="spacing" textLength="42.216" x="319.7535" y="66.244">ProverId</text><text fill="#000000" font-family="Lato,sans-serif" font-size="12" lengthAdjust="spacing" textLength="2.724" x="361.9695" y="66.244">,</text><text fill="#000000" font-family="Lato,sans-serif" font-size="12" font-style="italic" lengthAdjust="spacing" textLength="46.158" x="367.7655" y="66.244">VerifierId</text><text fill="#000000" font-family="Lato,sans-serif" font-size="12" lengthAdjust="spacing" textLength="25.176" x="413.9235" y="66.244">, and</text><text fill="#000000" font-family="Lato,sans-serif" font-size="12" font-style="italic" lengthAdjust="spacing" textLength="39.9" x="442.1715" y="66.244">Context</text><path d="M320,87.8 L320,103.8 A4,4 0 0 0 324,107.8 L598,107.8 A4,4 0 0 0 602,103.8 L602,93.8 L592,83.8 L324,83.8 A4,4 0 0 0 320,87.8" fill="#E8E8E8" style="stroke:#7D868C;stroke-width:1;"/><path d="M592,83.8 L592,91.8 A2,2 0 0 0 594,93.8 L602,93.8 L592,83.8" fill="#E8E8E8" style="stroke:#7D868C;stroke-width:1;"/><text fill="#000000" font-family="Lato,sans-serif" font-size="12" lengthAdjust="spacing" textLength="107.16" x="326" y="100.644">Registration record (</text><text fill="#000000" font-family="Lato,sans-serif" font-size="12" font-style="italic" lengthAdjust="spacing" textLength="15.636" x="433.16" y="100.644">w0</text><text fill="#000000" font-family="Lato,sans-serif" font-size="12" lengthAdjust="spacing" textLength="2.724" x="448.796" y="100.644">,</text><text fill="#000000" font-family="Lato,sans-serif" font-size="12" font-style="italic" lengthAdjust="spacing" textLength="5.706" x="454.592" y="100.644">L</text><text fill="#000000" font-family="Lato,sans-serif" font-size="12" lengthAdjust="spacing" textLength="127.62" x="460.298" y="100.644">) derived from password</text><path d="M34,87.8 L34,103.8 A4,4 0 0 0 38,107.8 L306,107.8 A4,4 0 0 0 310,103.8 L310,93.8 L300,83.8 L38,83.8 A4,4 0 0 0 34,87.8" fill="#E8E8E8" style="stroke:#7D868C;stroke-width:1;"/><path d="M300,83.8 L300,91.8 A2,2 0 0 0 302,93.8 L310,93.8 L300,83.8" fill="#E8E8E8" style="stroke:#7D868C;stroke-width:1;"/><text fill="#000000" font-family="Lato,sans-serif" font-size="12" lengthAdjust="spacing" textLength="91.146" x="40" y="100.644">Prover 'key pair' (</text><text fill="#000000" font-family="Lato,sans-serif" font-size="12" font-style="italic" lengthAdjust="spacing" textLength="15.636" x="131.146" y="100.644">w0</text><text fill="#000000" font-family="Lato,sans-serif" font-size="12" lengthAdjust="spacing" textLength="2.724" x="146.782" y="100.644">,</text><text fill="#000000" font-family="Lato,sans-serif" font-size="12" font-style="italic" lengthAdjust="spacing" textLength="15.636" x="152.578" y="100.644">w1</text><text fill="#000000" font-family="Lato,sans-serif" font-size="12" lengthAdjust="spacing" textLength="127.62" x="168.214" y="100.644">) derived from password</text><g class="message" data-participant-1="Prover" data-participant-2="Prover"><line style="stroke:#000000;stroke-width:1;" x1="172.417" x2="214.417" y1="183.952" y2="183.952"/><line style="stroke:#000000;stroke-width:1;" x1="214.417" x2="214.417" y1="183.952" y2="196.952"/><line style="stroke:#000000;stroke-width:1;" x1="173.417" x2="214.417" y1="196.952" y2="196.952"/><polygon fill="#000000" points="183.417,192.952,173.417,196.952,183.417,200.952" style="stroke:#000000;stroke-width:1;"/><text fill="#000000" font-family="Inconsolata,monospace" font-size="12" lengthAdjust="spacing" textLength="96" x="179.417" y="129.32">psa_pake_setup()</text><text fill="#000000" font-family="Lato,sans-serif" font-size="12" lengthAdjust="spacing" textLength="51.27" x="278.489" y="129.044">with key (</text><text fill="#000000" font-family="Lato,sans-serif" font-size="12" font-style="italic" lengthAdjust="spacing" textLength="15.636" x="329.759" y="129.044">w0</text><text fill="#000000" font-family="Lato,sans-serif" font-size="12" lengthAdjust="spacing" textLength="2.724" x="345.395" y="129.044">,</text><text fill="#000000" font-family="Lato,sans-serif" font-size="12" font-style="italic" lengthAdjust="spacing" textLength="15.636" x="351.191" y="129.044">w1</text><text fill="#000000" font-family="Lato,sans-serif" font-size="12" lengthAdjust="spacing" textLength="3.204" x="366.827" y="129.044">)</text><text fill="#000000" font-family="Inconsolata,monospace" font-size="12" lengthAdjust="spacing" textLength="234" x="179.417" y="141.908">psa_pake_set_role(PSA_PAKE_ROLE_CLIENT)</text><text fill="#000000" font-family="Inconsolata,monospace" font-size="12" lengthAdjust="spacing" textLength="162" x="179.417" y="154.496">psa_pake_set_user(ProverId)</text><text fill="#000000" font-family="Inconsolata,monospace" font-size="12" lengthAdjust="spacing" textLength="174" x="179.417" y="167.084">psa_pake_set_peer(VerifierId)</text><text fill="#000000" font-family="Inconsolata,monospace" font-size="12" lengthAdjust="spacing" textLength="174" x="179.417" y="179.672">psa_pake_set_context(Context)</text></g><g class="message" data-participant-1="Prover" data-participant-2="Prover"><line style="stroke:#000000;stroke-width:1;" x1="172.417" x2="214.417" y1="225.352" y2="225.352"/><line style="stroke:#000000;stroke-width:1;" x1="214.417" x2="214.417" y1="225.352" y2="238.352"/><line style="stroke:#000000;stroke-width:1;" x1="173.417" x2="214.417" y1="238.352" y2="238.352"/><polygon fill="#000000" points="183.417,234.352,173.417,238.352,183.417,242.352" style="stroke:#000000;stroke-width:1;"/><text fill="#000000" font-family="Inconsolata,monospace" font-size="12" lengthAdjust="spacing" textLength="102" x="179.417" y="221.072">psa_pake_output()</text><text fill="#000000" font-family="Lato,sans-serif" font-size="12" lengthAdjust="spacing" textLength="15.378" x="284.489" y="220.796">for</text><text fill="#000000" font-family="Lato,sans-serif" font-size="12" font-style="italic" lengthAdjust="spacing" textLength="33.876" x="302.939" y="220.796">shareP</text><text fill="#000000" font-family="Lato,sans-serif" font-size="12" lengthAdjust="spacing" textLength="6.96" x="339.887" y="220.796">=</text><text fill="#000000" font-family="Lato,sans-serif" font-size="12" font-style="italic" lengthAdjust="spacing" textLength="7.308" x="349.919" y="220.796">X</text></g><path d="M33,217.452 L33,233.452 A4,4 0 0 0 37,237.452 L162,237.452 A4,4 0 0 0 166,233.452 L166,223.452 L156,213.452 L37,213.452 A4,4 0 0 0 33,217.452" fill="#E8E8E8" style="stroke:#7D868C;stroke-width:1;"/><path d="M156,213.452 L156,221.452 A2,2 0 0 0 158,223.452 L166,223.452 L156,213.452" fill="#E8E8E8" style="stroke:#7D868C;stroke-width:1;"/><text fill="#000000" font-family="Lato,sans-serif" font-size="12" lengthAdjust="spacing" textLength="102.426" x="39" y="230.296">Generate key share</text><text fill="#000000" font-family="Lato,sans-serif" font-size="12" font-style="italic" lengthAdjust="spacing" textLength="7.308" x="144.498" y="230.296">X</text><g class="message" data-participant-1="Prover" data-participant-2="Verifier"><line style="stroke:#000000;stroke-width:1;" x1="460.293" x2="450.293" y1="266.752" y2="262.752"/><line style="stroke:#000000;stroke-width:1;" x1="460.293" x2="450.293" y1="266.752" y2="270.752"/><line style="stroke:#000000;stroke-width:1;" x1="172.417" x2="461.293" y1="266.752" y2="266.752"/><text fill="#000000" font-family="Lato,sans-serif" font-size="12" lengthAdjust="spacing" textLength="3.204" x="179.417" y="262.196">(</text><text fill="#000000" font-family="Lato,sans-serif" font-size="12" font-style="italic" lengthAdjust="spacing" textLength="33.876" x="182.621" y="262.196">shareP</text><text fill="#000000" font-family="Lato,sans-serif" font-size="12" lengthAdjust="spacing" textLength="3.204" x="216.497" y="262.196">)</text></g><g class="message" data-participant-1="Verifier" data-participant-2="Verifier"><line style="stroke:#000000;stroke-width:1;" x1="462.293" x2="504.293" y1="345.504" y2="345.504"/><line style="stroke:#000000;stroke-width:1;" x1="504.293" x2="504.293" y1="345.504" y2="358.504"/><line style="stroke:#000000;stroke-width:1;" x1="463.293" x2="504.293" y1="358.504" y2="358.504"/><polygon fill="#000000" points="473.293,354.504,463.293,358.504,473.293,362.504" style="stroke:#000000;stroke-width:1;"/><text fill="#000000" font-family="Inconsolata,monospace" font-size="12" lengthAdjust="spacing" textLength="96" x="469.293" y="290.872">psa_pake_setup()</text><text fill="#000000" font-family="Lato,sans-serif" font-size="12" lengthAdjust="spacing" textLength="51.27" x="568.365" y="290.596">with key (</text><text fill="#000000" font-family="Lato,sans-serif" font-size="12" font-style="italic" lengthAdjust="spacing" textLength="15.636" x="619.635" y="290.596">w0</text><text fill="#000000" font-family="Lato,sans-serif" font-size="12" lengthAdjust="spacing" textLength="2.724" x="635.271" y="290.596">,</text><text fill="#000000" font-family="Lato,sans-serif" font-size="12" font-style="italic" lengthAdjust="spacing" textLength="5.706" x="641.067" y="290.596">L</text><text fill="#000000" font-family="Lato,sans-serif" font-size="12" lengthAdjust="spacing" textLength="45.414" x="646.773" y="290.596">) or key (</text><text fill="#000000" font-family="Lato,sans-serif" font-size="12" font-style="italic" lengthAdjust="spacing" textLength="15.636" x="692.187" y="290.596">w0</text><text fill="#000000" font-family="Lato,sans-serif" font-size="12" lengthAdjust="spacing" textLength="2.724" x="707.823" y="290.596">,</text><text fill="#000000" font-family="Lato,sans-serif" font-size="12" font-style="italic" lengthAdjust="spacing" textLength="15.636" x="713.619" y="290.596">w1</text><text fill="#000000" font-family="Lato,sans-serif" font-size="12" lengthAdjust="spacing" textLength="3.204" x="729.255" y="290.596">)</text><text fill="#000000" font-family="Inconsolata,monospace" font-size="12" lengthAdjust="spacing" textLength="234" x="469.293" y="303.46">psa_pake_set_role(PSA_PAKE_ROLE_SERVER)</text><text fill="#000000" font-family="Inconsolata,monospace" font-size="12" lengthAdjust="spacing" textLength="174" x="469.293" y="316.048">psa_pake_set_user(VerifierId)</text><text fill="#000000" font-family="Inconsolata,monospace" font-size="12" lengthAdjust="spacing" textLength="162" x="469.293" y="328.636">psa_pake_set_peer(ProverId)</text><text fill="#000000" font-family="Inconsolata,monospace" font-size="12" lengthAdjust="spacing" textLength="174" x="469.293" y="341.224">psa_pake_set_context(Context)</text></g><g class="message" data-participant-1="Verifier" data-participant-2="Verifier"><line style="stroke:#000000;stroke-width:1;" x1="462.293" x2="504.293" y1="386.904" y2="386.904"/><line style="stroke:#000000;stroke-width:1;" x1="504.293" x2="504.293" y1="386.904" y2="399.904"/><line style="stroke:#000000;stroke-width:1;" x1="463.293" x2="504.293" y1="399.904" y2="399.904"/><polygon fill="#000000" points="473.293,395.904,463.293,399.904,473.293,403.904" style="stroke:#000000;stroke-width:1;"/><text fill="#000000" font-family="Inconsolata,monospace" font-size="12" lengthAdjust="spacing" textLength="96" x="469.293" y="382.624">psa_pake_input()</text><text fill="#000000" font-family="Lato,sans-serif" font-size="12" lengthAdjust="spacing" textLength="15.378" x="568.365" y="382.348">for</text><text fill="#000000" font-family="Lato,sans-serif" font-size="12" font-style="italic" lengthAdjust="spacing" textLength="33.876" x="586.815" y="382.348">shareP</text></g><path d="M356,379.004 L356,395.004 A4,4 0 0 0 360,399.004 L453,399.004 A4,4 0 0 0 457,395.004 L457,385.004 L447,375.004 L360,375.004 A4,4 0 0 0 356,379.004" fill="#E8E8E8" style="stroke:#7D868C;stroke-width:1;"/><path d="M447,375.004 L447,383.004 A2,2 0 0 0 449,385.004 L457,385.004 L447,375.004" fill="#E8E8E8" style="stroke:#7D868C;stroke-width:1;"/><text fill="#000000" font-family="Lato,sans-serif" font-size="12" lengthAdjust="spacing" textLength="43.122" x="362" y="391.848">Validate</text><text fill="#000000" font-family="Lato,sans-serif" font-size="12" font-style="italic" lengthAdjust="spacing" textLength="33.876" x="408.194" y="391.848">shareP</text><g class="message" data-participant-1="Verifier" data-participant-2="Verifier"><line style="stroke:#000000;stroke-width:1;" x1="462.293" x2="504.293" y1="428.304" y2="428.304"/><line style="stroke:#000000;stroke-width:1;" x1="504.293" x2="504.293" y1="428.304" y2="441.304"/><line style="stroke:#000000;stroke-width:1;" x1="463.293" x2="504.293" y1="441.304" y2="441.304"/><polygon fill="#000000" points="473.293,437.304,463.293,441.304,473.293,445.304" style="stroke:#000000;stroke-width:1;"/><text fill="#000000" font-family="Inconsolata,monospace" font-size="12" lengthAdjust="spacing" textLength="102" x="469.293" y="424.024">psa_pake_output()</text><text fill="#000000" font-family="Lato,sans-serif" font-size="12" lengthAdjust="spacing" textLength="15.378" x="574.365" y="423.748">for</text><text fill="#000000" font-family="Lato,sans-serif" font-size="12" font-style="italic" lengthAdjust="spacing" textLength="34.686" x="592.815" y="423.748">shareV</text><text fill="#000000" font-family="Lato,sans-serif" font-size="12" lengthAdjust="spacing" textLength="6.96" x="630.573" y="423.748">=</text><text fill="#000000" font-family="Lato,sans-serif" font-size="12" font-style="italic" lengthAdjust="spacing" textLength="6.984" x="640.605" y="423.748">Y</text></g><path d="M323,420.404 L323,436.404 A4,4 0 0 0 327,440.404 L452,440.404 A4,4 0 0 0 456,436.404 L456,426.404 L446,416.404 L327,416.404 A4,4 0 0 0 323,420.404" fill="#E8E8E8" style="stroke:#7D868C;stroke-width:1;"/><path d="M446,416.404 L446,424.404 A2,2 0 0 0 448,426.404 L456,426.404 L446,416.404" fill="#E8E8E8" style="stroke:#7D868C;stroke-width:1;"/><text fill="#000000" font-family="Lato,sans-serif" font-size="12" lengthAdjust="spacing" textLength="102.426" x="329" y="433.248">Generate key share</text><text fill="#000000" font-family="Lato,sans-serif" font-size="12" font-style="italic" lengthAdjust="spacing" textLength="6.984" x="434.498" y="433.248">Y</text><g class="message" data-participant-1="Verifier" data-participant-2="Verifier"><line style="stroke:#000000;stroke-width:1;" x1="462.293" x2="504.293" y1="469.704" y2="469.704"/><line style="stroke:#000000;stroke-width:1;" x1="504.293" x2="504.293" y1="469.704" y2="482.704"/><line style="stroke:#000000;stroke-width:1;" x1="463.293" x2="504.293" y1="482.704" y2="482.704"/><polygon fill="#000000" points="473.293,478.704,463.293,482.704,473.293,486.704" style="stroke:#000000;stroke-width:1;"/><text fill="#000000" font-family="Inconsolata,monospace" font-size="12" lengthAdjust="spacing" textLength="102" x="469.293" y="465.424">psa_pake_output()</text><text fill="#000000" font-family="Lato,sans-serif" font-size="12" lengthAdjust="spacing" textLength="15.378" x="574.365" y="465.148">for</text><text fill="#000000" font-family="Lato,sans-serif" font-size="12" font-style="italic" lengthAdjust="spacing" textLength="45.75" x="592.815" y="465.148">confirmV</text></g><path d="M213,461.804 L213,477.804 A4,4 0 0 0 217,481.804 L452,481.804 A4,4 0 0 0 456,477.804 L456,467.804 L446,457.804 L217,457.804 A4,4 0 0 0 213,461.804" fill="#E8E8E8" style="stroke:#7D868C;stroke-width:1;"/><path d="M446,457.804 L446,465.804 A2,2 0 0 0 448,467.804 L456,467.804 L446,457.804" fill="#E8E8E8" style="stroke:#7D868C;stroke-width:1;"/><text fill="#000000" font-family="Lato,sans-serif" font-size="12" lengthAdjust="spacing" textLength="48.744" x="219" y="474.648">Compute</text><text fill="#000000" font-family="Lato,sans-serif" font-size="12" font-style="italic" lengthAdjust="spacing" textLength="46.224" x="270.816" y="474.648">K_shared</text><text fill="#000000" font-family="Lato,sans-serif" font-size="12" lengthAdjust="spacing" textLength="2.724" x="317.04" y="474.648">,</text><text fill="#000000" font-family="Lato,sans-serif" font-size="12" font-style="italic" lengthAdjust="spacing" textLength="47.274" x="322.836" y="474.648">confirmP'</text><text fill="#000000" font-family="Lato,sans-serif" font-size="12" lengthAdjust="spacing" textLength="19.38" x="373.182" y="474.648">and</text><text fill="#000000" font-family="Lato,sans-serif" font-size="12" font-style="italic" lengthAdjust="spacing" textLength="45.75" x="395.634" y="474.648">confirmV</text><g class="message" data-participant-1="Verifier" data-participant-2="Prover"><line style="stroke:#000000;stroke-width:1;" x1="173.417" x2="183.417" y1="511.104" y2="507.104"/><line style="stroke:#000000;stroke-width:1;" x1="173.417" x2="183.417" y1="511.104" y2="515.104"/><line style="stroke:#000000;stroke-width:1;" x1="172.417" x2="461.293" y1="511.104" y2="511.104"/><text fill="#000000" font-family="Lato,sans-serif" font-size="12" lengthAdjust="spacing" textLength="3.204" x="189.417" y="506.548">(</text><text fill="#000000" font-family="Lato,sans-serif" font-size="12" font-style="italic" lengthAdjust="spacing" textLength="34.686" x="192.621" y="506.548">shareV</text><text fill="#000000" font-family="Lato,sans-serif" font-size="12" lengthAdjust="spacing" textLength="2.724" x="227.307" y="506.548">,</text><text fill="#000000" font-family="Lato,sans-serif" font-size="12" font-style="italic" lengthAdjust="spacing" textLength="45.75" x="233.103" y="506.548">confirmV</text><text fill="#000000" font-family="Lato,sans-serif" font-size="12" lengthAdjust="spacing" textLength="3.204" x="278.853" y="506.548">)</text></g><g class="message" data-participant-1="Prover" data-participant-2="Prover"><line style="stroke:#000000;stroke-width:1;" x1="172.417" x2="214.417" y1="539.504" y2="539.504"/><line style="stroke:#000000;stroke-width:1;" x1="214.417" x2="214.417" y1="539.504" y2="552.504"/><line style="stroke:#000000;stroke-width:1;" x1="173.417" x2="214.417" y1="552.504" y2="552.504"/><polygon fill="#000000" points="183.417,548.504,173.417,552.504,183.417,556.504" style="stroke:#000000;stroke-width:1;"/><text fill="#000000" font-family="Inconsolata,monospace" font-size="12" lengthAdjust="spacing" textLength="96" x="179.417" y="535.224">psa_pake_input()</text><text fill="#000000" font-family="Lato,sans-serif" font-size="12" lengthAdjust="spacing" textLength="15.378" x="278.489" y="534.948">for</text><text fill="#000000" font-family="Lato,sans-serif" font-size="12" font-style="italic" lengthAdjust="spacing" textLength="34.686" x="296.939" y="534.948">shareV</text></g><path d="M65,531.604 L65,547.604 A4,4 0 0 0 69,551.604 L162,551.604 A4,4 0 0 0 166,547.604 L166,537.604 L156,527.604 L69,527.604 A4,4 0 0 0 65,531.604" fill="#E8E8E8" style="stroke:#7D868C;stroke-width:1;"/><path d="M156,527.604 L156,535.604 A2,2 0 0 0 158,537.604 L166,537.604 L156,527.604" fill="#E8E8E8" style="stroke:#7D868C;stroke-width:1;"/><text fill="#000000" font-family="Lato,sans-serif" font-size="12" lengthAdjust="spacing" textLength="43.122" x="71" y="544.448">Validate</text><text fill="#000000" font-family="Lato,sans-serif" font-size="12" font-style="italic" lengthAdjust="spacing" textLength="34.686" x="117.194" y="544.448">shareV</text><g class="message" data-participant-1="Prover" data-participant-2="Prover"><line style="stroke:#000000;stroke-width:1;" x1="172.417" x2="214.417" y1="591.804" y2="591.804"/><line style="stroke:#000000;stroke-width:1;" x1="214.417" x2="214.417" y1="591.804" y2="604.804"/><line style="stroke:#000000;stroke-width:1;" x1="173.417" x2="214.417" y1="604.804" y2="604.804"/><polygon fill="#000000" points="183.417,600.804,173.417,604.804,183.417,608.804" style="stroke:#000000;stroke-width:1;"/><text fill="#000000" font-family="Inconsolata,monospace" font-size="12" lengthAdjust="spacing" textLength="96" x="179.417" y="587.524">psa_pake_input()</text><text fill="#000000" font-family="Lato,sans-serif" font-size="12" lengthAdjust="spacing" textLength="15.378" x="278.489" y="587.248">for</text><text fill="#000000" font-family="Lato,sans-serif" font-size="12" font-style="italic" lengthAdjust="spacing" textLength="45.75" x="296.939" y="587.248">confirmV</text></g><path d="M5,569.504 L5,614.504 A4,4 0 0 0 9,618.504 L164,618.504 A4,4 0 0 0 168,614.504 L168,575.504 L158,565.504 L9,565.504 A4,4 0 0 0 5,569.504" fill="#E8E8E8" style="stroke:#7D868C;stroke-width:1;"/><path d="M158,565.504 L158,573.504 A2,2 0 0 0 160,575.504 L168,575.504 L158,565.504" fill="#E8E8E8" style="stroke:#7D868C;stroke-width:1;"/><text fill="#000000" font-family="Lato,sans-serif" font-size="12" lengthAdjust="spacing" textLength="48.744" x="11" y="582.348">Compute</text><text fill="#000000" font-family="Lato,sans-serif" font-size="12" font-style="italic" lengthAdjust="spacing" textLength="46.224" x="62.816" y="582.348">K_shared</text><text fill="#000000" font-family="Lato,sans-serif" font-size="12" lengthAdjust="spacing" textLength="2.724" x="109.04" y="582.348">,</text><text fill="#000000" font-family="Lato,sans-serif" font-size="12" lengthAdjust="spacing" textLength="12.288" x="11" y="596.748">&#160;&#160;&#160;&#160;</text><text fill="#000000" font-family="Lato,sans-serif" font-size="12" font-style="italic" lengthAdjust="spacing" textLength="44.94" x="23.288" y="596.748">confirmP</text><text fill="#000000" font-family="Lato,sans-serif" font-size="12" lengthAdjust="spacing" textLength="19.38" x="71.3" y="596.748">and</text><text fill="#000000" font-family="Lato,sans-serif" font-size="12" font-style="italic" lengthAdjust="spacing" textLength="48.084" x="93.752" y="596.748">confirmV'</text><text fill="#000000" font-family="Lato,sans-serif" font-size="12" lengthAdjust="spacing" textLength="32.1" x="11" y="611.148">Verify</text><text fill="#000000" font-family="Lato,sans-serif" font-size="12" font-style="italic" lengthAdjust="spacing" textLength="48.084" x="46.172" y="611.148">confirmV'</text><text fill="#000000" font-family="Lato,sans-serif" font-size="12" lengthAdjust="spacing" textLength="6.96" x="97.328" y="611.148">=</text><text fill="#000000" font-family="Lato,sans-serif" font-size="12" font-style="italic" lengthAdjust="spacing" textLength="45.75" x="107.36" y="611.148">confirmV</text><g class="message" data-participant-1="Prover" data-participant-2="Prover"><line style="stroke:#000000;stroke-width:1;" x1="172.417" x2="214.417" y1="644.104" y2="644.104"/><line style="stroke:#000000;stroke-width:1;" x1="214.417" x2="214.417" y1="644.104" y2="657.104"/><line style="stroke:#000000;stroke-width:1;" x1="173.417" x2="214.417" y1="657.104" y2="657.104"/><polygon fill="#000000" points="183.417,653.104,173.417,657.104,183.417,661.104" style="stroke:#000000;stroke-width:1;"/><text fill="#000000" font-family="Inconsolata,monospace" font-size="12" lengthAdjust="spacing" textLength="102" x="179.417" y="639.824">psa_pake_output()</text><text fill="#000000" font-family="Lato,sans-serif" font-size="12" lengthAdjust="spacing" textLength="15.378" x="284.489" y="639.548">for</text><text fill="#000000" font-family="Lato,sans-serif" font-size="12" font-style="italic" lengthAdjust="spacing" textLength="44.94" x="302.939" y="639.548">confirmP</text></g><g class="message" data-participant-1="Prover" data-participant-2="Verifier"><line style="stroke:#000000;stroke-width:1;" x1="460.293" x2="450.293" y1="685.504" y2="681.504"/><line style="stroke:#000000;stroke-width:1;" x1="460.293" x2="450.293" y1="685.504" y2="689.504"/><line style="stroke:#000000;stroke-width:1;" x1="172.417" x2="461.293" y1="685.504" y2="685.504"/><text fill="#000000" font-family="Lato,sans-serif" font-size="12" lengthAdjust="spacing" textLength="3.204" x="179.417" y="680.948">(</text><text fill="#000000" font-family="Lato,sans-serif" font-size="12" font-style="italic" lengthAdjust="spacing" textLength="44.94" x="182.621" y="680.948">confirmP</text><text fill="#000000" font-family="Lato,sans-serif" font-size="12" lengthAdjust="spacing" textLength="3.204" x="227.561" y="680.948">)</text></g><g class="message" data-participant-1="Prover" data-participant-2="Prover"><line style="stroke:#000000;stroke-width:1;" x1="172.417" x2="214.417" y1="713.904" y2="713.904"/><line style="stroke:#000000;stroke-width:1;" x1="214.417" x2="214.417" y1="713.904" y2="726.904"/><line style="stroke:#000000;stroke-width:1;" x1="173.417" x2="214.417" y1="726.904" y2="726.904"/><polygon fill="#000000" points="183.417,722.904,173.417,726.904,183.417,730.904" style="stroke:#000000;stroke-width:1;"/><text fill="#000000" font-family="Inconsolata,monospace" font-size="12" lengthAdjust="spacing" textLength="150" x="179.417" y="709.624">psa_pake_get_shared_key()</text><text fill="#000000" font-family="Lato,sans-serif" font-size="12" lengthAdjust="spacing" textLength="51.156" x="332.489" y="709.348">to extract</text><text fill="#000000" font-family="Lato,sans-serif" font-size="12" font-style="italic" lengthAdjust="spacing" textLength="46.224" x="386.717" y="709.348">K_shared</text></g><g class="message" data-participant-1="Verifier" data-participant-2="Verifier"><line style="stroke:#000000;stroke-width:1;" x1="462.293" x2="504.293" y1="755.304" y2="755.304"/><line style="stroke:#000000;stroke-width:1;" x1="504.293" x2="504.293" y1="755.304" y2="768.304"/><line style="stroke:#000000;stroke-width:1;" x1="463.293" x2="504.293" y1="768.304" y2="768.304"/><polygon fill="#000000" points="473.293,764.304,463.293,768.304,473.293,772.304" style="stroke:#000000;stroke-width:1;"/><text fill="#000000" font-family="Inconsolata,monospace" font-size="12" lengthAdjust="spacing" textLength="96" x="469.293" y="751.024">psa_pake_input()</text><text fill="#000000" font-family="Lato,sans-serif" font-size="12" lengthAdjust="spacing" textLength="15.378" x="568.365" y="750.748">for</text><text fill="#000000" font-family="Lato,sans-serif" font-size="12" font-style="italic" lengthAdjust="spacing" textLength="44.94" x="586.815" y="750.748">confirmP</text></g><path d="M295,747.404 L295,763.404 A4,4 0 0 0 299,767.404 L452,767.404 A4,4 0 0 0 456,763.404 L456,753.404 L446,743.404 L299,743.404 A4,4 0 0 0 295,747.404" fill="#E8E8E8" style="stroke:#7D868C;stroke-width:1;"/><path d="M446,743.404 L446,751.404 A2,2 0 0 0 448,753.404 L456,753.404 L446,743.404" fill="#E8E8E8" style="stroke:#7D868C;stroke-width:1;"/><text fill="#000000" font-family="Lato,sans-serif" font-size="12" lengthAdjust="spacing" textLength="32.1" x="301" y="760.248">Verify</text><text fill="#000000" font-family="Lato,sans-serif" font-size="12" font-style="italic" lengthAdjust="spacing" textLength="47.274" x="336.172" y="760.248">confirmP'</text><text fill="#000000" font-family="Lato,sans-serif" font-size="12" lengthAdjust="spacing" textLength="6.96" x="386.518" y="760.248">=</text><text fill="#000000" font-family="Lato,sans-serif" font-size="12" font-style="italic" lengthAdjust="spacing" textLength="44.94" x="396.55" y="760.248">confirmP</text><g class="message" data-participant-1="Verifier" data-participant-2="Verifier"><line style="stroke:#000000;stroke-width:1;" x1="462.293" x2="504.293" y1="796.704" y2="796.704"/><line style="stroke:#000000;stroke-width:1;" x1="504.293" x2="504.293" y1="796.704" y2="809.704"/><line style="stroke:#000000;stroke-width:1;" x1="463.293" x2="504.293" y1="809.704" y2="809.704"/><polygon fill="#000000" points="473.293,805.704,463.293,809.704,473.293,813.704" style="stroke:#000000;stroke-width:1;"/><text fill="#000000" font-family="Inconsolata,monospace" font-size="12" lengthAdjust="spacing" textLength="150" x="469.293" y="792.424">psa_pake_get_shared_key()</text><text fill="#000000" font-family="Lato,sans-serif" font-size="12" lengthAdjust="spacing" textLength="51.156" x="622.365" y="792.148">to extract</text><text fill="#000000" font-family="Lato,sans-serif" font-size="12" font-style="italic" lengthAdjust="spacing" textLength="46.224" x="676.593" y="792.148">K_shared</text></g></g></svg>