<svg xmlns="http://www.w3.org/2000/svg" xmlns:xlink="http://www.w3.org/1999/xlink" contentStyleType="text/css" data-diagram-type="SEQUENCE" height="384px" preserveAspectRatio="none" style="width:581px;height:384px;background:#FFFFFF55;" version="1.1" viewBox="0 0 581 384" width="581px" zoomAndPan="magnify"><defs/><g><rect fill="#FFFFFF" fill-opacity="0.33333" height="384" style="stroke:none;stroke-width:1;" width="581" x="0" y="0"/><rect fill="#FFFFFF" fill-opacity="0.50196" height="274.74" rx="4" ry="4" style="stroke:#808080;stroke-width:1;" width="565.672" x="9" y="85.8"/><rect fill="#FFFFFF" fill-opacity="0.50196" height="55.988" rx="4" ry="4" style="stroke:#808080;stroke-width:1;" width="417.672" x="147" y="173.964"/><path d="M9,310.94 L574.672,310.94 L574.672,356.54 A4,4 0 0 1 570.672,360.54 L13,360.54 A4,4 0 0 1 9,356.54 L9,310.94" fill="#FFFFFF" fill-opacity="0.50196" style="stroke:none;stroke-width:1;"/><g><title>station (STA)</title><rect fill="#000000" fill-opacity="0.00000" height="343.14" width="8" x="193.672" y="34.4"/><line style="stroke:#808080;stroke-width:0.5;stroke-dasharray:5.0,5.0;" x1="197" x2="197" y1="34.4" y2="377.54"/></g><g class="participant participant-head" data-participant="Participant"><rect fill="#FFFFFF" height="28.4" rx="4" ry="4" style="stroke:#000000;stroke-width:1;" width="81.344" x="157" y="5"/><text fill="#000000" font-family="Lato,sans-serif" font-size="12" lengthAdjust="spacing" textLength="67.344" x="164" y="23.844">station (STA)</text></g><path d="M7,53.4 L7,69.4 A4,4 0 0 0 11,73.4 L383,73.4 A4,4 0 0 0 387,69.4 L387,59.4 L377,49.4 L11,49.4 A4,4 0 0 0 7,53.4" fill="#E8E8E8" style="stroke:#7D868C;stroke-width:1;"/><path d="M377,49.4 L377,57.4 A2,2 0 0 0 379,59.4 L387,59.4 L377,49.4" fill="#E8E8E8" style="stroke:#7D868C;stroke-width:1;"/><text fill="#000000" font-family="Lato,sans-serif" font-size="12" lengthAdjust="spacing" textLength="166.536" x="13" y="66.244">Initial information : cipher suite,</text><text fill="#000000" font-family="Lato,sans-serif" font-size="12" font-style="italic" lengthAdjust="spacing" textLength="23.88" x="182.608" y="66.244">SSID</text><text fill="#000000" font-family="Lato,sans-serif" font-size="12" lengthAdjust="spacing" textLength="2.724" x="206.488" y="66.244">,</text><text fill="#000000" font-family="Lato,sans-serif" font-size="12" font-style="italic" lengthAdjust="spacing" textLength="47.43" x="212.284" y="66.244">password</text><text fill="#000000" font-family="Lato,sans-serif" font-size="12" lengthAdjust="spacing" textLength="6.396" x="262.786" y="66.244">[,</text><text fill="#000000" font-family="Lato,sans-serif" font-size="12" font-style="italic" lengthAdjust="spacing" textLength="96.318" x="272.254" y="66.244">password-identifier</text><text fill="#000000" font-family="Lato,sans-serif" font-size="12" lengthAdjust="spacing" textLength="3.672" x="368.572" y="66.244">]</text><path d="M13,85.8 L67.098,85.8 L67.098,92.2 L57.098,102.2 L9,102.2 L9,89.8 A4,4 0 0 1 13,85.8" fill="#F0F0F0" style="stroke:#808080;stroke-width:1.5;"/><rect fill="none" height="274.74" rx="4" ry="4" style="stroke:#808080;stroke-width:1;" width="565.672" x="9" y="85.8"/><text fill="#000000" font-family="Lato,sans-serif" font-size="12" lengthAdjust="spacing" textLength="13.098" x="24" y="98.644">alt</text><text fill="#000000" font-family="Lato,sans-serif" font-size="11" font-weight="bold" lengthAdjust="spacing" textLength="251.141" x="82.098" y="98.657">[Hash-to-element generation of password element]</text><g class="message" data-participant-1="Participant" data-participant-2="Participant"><line style="stroke:#000000;stroke-width:1;" x1="197.672" x2="239.672" y1="145.964" y2="145.964"/><line style="stroke:#000000;stroke-width:1;" x1="239.672" x2="239.672" y1="145.964" y2="158.964"/><line style="stroke:#000000;stroke-width:1;" x1="198.672" x2="239.672" y1="158.964" y2="158.964"/><polygon fill="#000000" points="208.672,154.964,198.672,158.964,208.672,162.964" style="stroke:#000000;stroke-width:1;"/><text fill="#000000" font-family="Inconsolata,monospace" font-size="12" lengthAdjust="spacing" textLength="228" x="204.672" y="116.508">psa_key_derivation_setup(WPA3_SAE_H2E)</text><text fill="#000000" font-family="Inconsolata,monospace" font-size="12" lengthAdjust="spacing" textLength="258" x="204.672" y="129.096">psa_key_derivation_input_bytes(SALT = SSID)</text><text fill="#000000" font-family="Inconsolata,monospace" font-size="12" lengthAdjust="spacing" textLength="294" x="204.672" y="141.684">psa_key_derivation_input_key(PASSWORD = password)</text></g><path d="M151,173.964 L209.832,173.964 L209.832,180.364 L199.832,190.364 L147,190.364 L147,177.964 A4,4 0 0 1 151,173.964" fill="#F0F0F0" style="stroke:#808080;stroke-width:1.5;"/><rect fill="none" height="55.988" rx="4" ry="4" style="stroke:#808080;stroke-width:1;" width="417.672" x="147" y="173.964"/><text fill="#000000" font-family="Lato,sans-serif" font-size="12" lengthAdjust="spacing" textLength="17.832" x="162" y="186.808">opt</text><g class="message" data-participant-1="Participant" data-participant-2="Participant"><line style="stroke:#000000;stroke-width:1;" x1="197.672" x2="239.672" y1="208.952" y2="208.952"/><line style="stroke:#000000;stroke-width:1;" x1="239.672" x2="239.672" y1="208.952" y2="221.952"/><line style="stroke:#000000;stroke-width:1;" x1="198.672" x2="239.672" y1="221.952" y2="221.952"/><polygon fill="#000000" points="208.672,217.952,198.672,221.952,208.672,225.952" style="stroke:#000000;stroke-width:1;"/><text fill="#000000" font-family="Inconsolata,monospace" font-size="12" lengthAdjust="spacing" textLength="348" x="204.672" y="204.672">psa_key_derivation_input_bytes(INFO = password-identifier)</text></g><g class="message" data-participant-1="Participant" data-participant-2="Participant"><line style="stroke:#000000;stroke-width:1;" x1="197.672" x2="239.672" y1="255.54" y2="255.54"/><line style="stroke:#000000;stroke-width:1;" x1="239.672" x2="239.672" y1="255.54" y2="268.54"/><line style="stroke:#000000;stroke-width:1;" x1="198.672" x2="239.672" y1="268.54" y2="268.54"/><polygon fill="#000000" points="208.672,264.54,198.672,268.54,208.672,272.54" style="stroke:#000000;stroke-width:1;"/><text fill="#000000" font-family="Inconsolata,monospace" font-size="12" lengthAdjust="spacing" textLength="252" x="204.672" y="251.26">psa_key_derivation_output_key(WPA3_SAE_XX)</text></g><path d="M19,248.546 L19,264.546 A4,4 0 0 0 23,268.546 L187,268.546 A4,4 0 0 0 191,264.546 L191,254.546 L181,244.546 L23,244.546 A4,4 0 0 0 19,248.546" fill="#E8E8E8" style="stroke:#7D868C;stroke-width:1;"/><path d="M181,244.546 L181,252.546 A2,2 0 0 0 183,254.546 L191,254.546 L181,244.546" fill="#E8E8E8" style="stroke:#7D868C;stroke-width:1;"/><text fill="#000000" font-family="Lato,sans-serif" font-size="12" lengthAdjust="spacing" textLength="135.522" x="25" y="261.39">Compute password token</text><text fill="#000000" font-family="Lato,sans-serif" font-size="12" font-style="italic" lengthAdjust="spacing" textLength="13.296" x="163.594" y="261.39">PT</text><path d="M106,285.54 L106,301.54 A4,4 0 0 0 110,305.54 L283,305.54 A4,4 0 0 0 287,301.54 L287,291.54 L277,281.54 L110,281.54 A4,4 0 0 0 106,285.54" fill="#E8E8E8" style="stroke:#7D868C;stroke-width:1;"/><path d="M277,281.54 L277,289.54 A2,2 0 0 0 279,291.54 L287,291.54 L277,281.54" fill="#E8E8E8" style="stroke:#7D868C;stroke-width:1;"/><text fill="#000000" font-family="Lato,sans-serif" font-size="12" lengthAdjust="spacing" textLength="20.358" x="112" y="298.384">Use</text><text fill="#000000" font-family="Lato,sans-serif" font-size="12" font-style="italic" lengthAdjust="spacing" textLength="13.296" x="135.43" y="298.384">PT</text><text fill="#000000" font-family="Lato,sans-serif" font-size="12" lengthAdjust="spacing" textLength="121.032" x="151.798" y="298.384">for authentication flow</text><line style="stroke:#808080;stroke-width:1;stroke-dasharray:2.0,2.0;" x1="9" x2="574.672" y1="311.94" y2="311.94"/><text fill="#000000" font-family="Lato,sans-serif" font-size="11" font-weight="bold" lengthAdjust="spacing" textLength="239.7285" x="14" y="322.797">[Generation of the password element by looping]</text><path d="M89,335.14 L89,351.14 A4,4 0 0 0 93,355.14 L300,355.14 A4,4 0 0 0 304,351.14 L304,341.14 L294,331.14 L93,331.14 A4,4 0 0 0 89,335.14" fill="#E8E8E8" style="stroke:#7D868C;stroke-width:1;"/><path d="M294,331.14 L294,339.14 A2,2 0 0 0 296,341.14 L304,341.14 L294,331.14" fill="#E8E8E8" style="stroke:#7D868C;stroke-width:1;"/><text fill="#000000" font-family="Lato,sans-serif" font-size="12" lengthAdjust="spacing" textLength="20.358" x="95" y="347.984">Use</text><text fill="#000000" font-family="Lato,sans-serif" font-size="12" font-style="italic" lengthAdjust="spacing" textLength="47.43" x="118.43" y="347.984">password</text><text fill="#000000" font-family="Lato,sans-serif" font-size="12" lengthAdjust="spacing" textLength="121.032" x="168.932" y="347.984">for authentication flow</text></g></svg>