<svg xmlns="http://www.w3.org/2000/svg" xmlns:xlink="http://www.w3.org/1999/xlink" contentStyleType="text/css" data-diagram-type="DESCRIPTION" height="197px" preserveAspectRatio="none" style="width:454px;height:197px;background:#FFFFFF55;" version="1.1" viewBox="0 0 454 197" width="454px" zoomAndPan="magnify"><defs><style type="text/css">@import url('https://fonts.googleapis.com/css?family=Roboto:400,100,100italic,300,300italic,400italic,500,500italic,700,700italic,900,900italic');</style></defs><g><rect fill="#FFFFFF" fill-opacity="0.33333" height="197" style="stroke:none;stroke-width:1;" width="454" x="0" y="0"/><!--cluster Internet--><g class="cluster" data-entity="Internet" data-source-line="14" data-uid="ent0003" id="cluster_Internet"><path d="M146.5023,16.8199 C150.0694,11.2144 154.8249,9.9083 158.7797,16.4273 C160.9085,12.0287 164.5968,10.9931 167.699,15.4466 C171.1062,9.3681 175.9846,9.5765 180.0865,14.6769 C182.3993,8.2223 187.151,8.1878 191.5677,12.4156 C194.5659,6.1504 198.5394,6 202.51,11.5122 C206.5936,7.4449 209.8025,8.3819 211.8971,13.5367 C215.5982,9.0787 219.8807,8.4675 222.9639,14.2073 C227.5585,8.0878 232.4906,8.5341 235.7526,15.5088 C239.2941,10.4291 242.6964,9.6798 246.7214,14.9988 C250.052,11.3291 255.0526,11.7226 256.7555,16.8545 C262.5799,18.407 263.1624,21.8117 259.9932,26.4111 C266.2807,28.7985 268.0845,34.8116 261.8997,39.0765 C267.1572,41.0136 267.4512,44.1491 263.8677,48.0296 C267.9845,53.0882 267.1522,57.0766 260.5499,58.8478 C265.4842,62.7378 265.8848,66.209 259.986,69.5268 C263.6845,73.9519 262.3739,79.9375 256.1976,81.1417 C254.2099,86.5909 248.9409,88.3287 244.7253,83.6705 C242.0242,88.2188 238.0181,89.0934 234.728,84.3008 C231.4386,90.6714 227.5486,90.5472 222.6177,86.1464 C221.2636,91.4796 216.8018,93.4258 212.5971,89.1053 C210.2262,94.1348 205.8718,95.661 201.9974,90.7006 C197.1886,94.8178 191.8751,95.0531 189.9077,87.7046 C186.1125,91.5851 182.6371,90.8263 180.5377,85.9003 C176.9473,90.7357 171.216,91.3446 168.8763,84.6367 C164.6236,89.0745 158.8239,87.6145 156.7389,82.0153 C152.7722,86.2261 149.5172,85.1944 146.7264,80.6678 C141.5095,79.2124 139.5226,76.0774 143.3918,71.3651 C138.2523,68.6407 137.3421,65.0589 141.5365,60.7093 C134.5942,59.1143 131.8727,53.4992 137.3191,47.8432 C134.221,43.4896 135.7537,40.1692 140.7143,38.8621 C136.4095,34.4125 136.9664,28.7847 143.8469,27.3893 C140.3197,22.7278 140.3828,19.0579 146.5023,16.8199" fill="#FFFFFF" style="stroke:#7D868C;stroke-width:1;"/><text fill="#000000" font-family="Roboto,sans-serif" font-size="11" font-weight="bold" lengthAdjust="spacing" textLength="38.9028" x="181.1286" y="30.4389">Internet</text></g><g class="cluster" data-entity="##6" data-source-line="15" data-uid="ent0007" id="cluster_##6"><rect fill="#FFFFFF" fill-opacity="0.56471" height="184.12" style="stroke:#8B0000;stroke-width:1;stroke-dasharray:7.0,7.0;" width="132" x="316.58" y="7.2338"/><text fill="#000000" font-family="Roboto,sans-serif" font-size="11" font-style="italic" lengthAdjust="spacing" textLength="41.7764" x="361.6918" y="19.4389">&#171;Device&#187;</text></g><!--entity server--><g class="entity" data-entity="server" data-source-line="15" data-uid="ent0004" id="entity_server"><rect fill="#7D868C" height="34.0625" rx="4" ry="4" width="93.9453" x="153.61" y="38.2338"/><text fill="#FFFFFF" font-family="Roboto,sans-serif" font-size="12" lengthAdjust="spacing" textLength="73.9453" x="163.61" y="59.3666">Update server</text></g><!--entity client--><g class="entity" data-entity="client" data-source-line="20" data-uid="ent0008" id="entity_client"><rect fill="#0091BD" height="34.0625" rx="4" ry="4" width="90.1133" x="336.53" y="38.2338"/><text fill="#FFFFFF" font-family="Roboto,sans-serif" font-size="12" lengthAdjust="spacing" textLength="70.1133" x="346.53" y="59.3666">Update client</text></g><!--entity store--><g class="entity" data-entity="store" data-source-line="21" data-uid="ent0009" id="entity_store"><path d="M332.34,142.2938 C332.34,132.2938 382.5822,132.2938 382.5822,132.2938 C382.5822,132.2938 432.8244,132.2938 432.8244,142.2938 L432.8244,165.3563 C432.8244,175.3563 382.5822,175.3563 382.5822,175.3563 C382.5822,175.3563 332.34,175.3563 332.34,165.3563 L332.34,142.2938" fill="#E5ECEB" style="stroke:#7D868C;stroke-width:1;"/><path d="M332.34,142.2938 C332.34,152.2938 382.5822,152.2938 382.5822,152.2938 C382.5822,152.2938 432.8244,152.2938 432.8244,142.2938" fill="none" style="stroke:#7D868C;stroke-width:1;"/><text fill="#000000" font-family="Roboto,sans-serif" font-size="12" lengthAdjust="spacing" textLength="80.4844" x="342.34" y="167.4266">Firmware store</text></g><!--entity creator--><g class="entity" data-entity="creator" data-source-line="13" data-uid="ent0002" id="entity_creator"><rect fill="#002B49" height="34.0625" rx="4" ry="4" width="111.166" x="7" y="38.2338"/><text fill="#FFFFFF" font-family="Roboto,sans-serif" font-size="12" lengthAdjust="spacing" textLength="91.166" x="17" y="59.3666">Firmware creator</text></g><!--entity tls--><g class="entity" data-entity="tls" data-source-line="17" data-uid="ent0005" id="entity_tls"><ellipse cx="291.58" cy="55.2638" fill="#E5ECEB" rx="8" ry="8" style="stroke:#7D868C;stroke-width:1;"/><text fill="#000000" font-family="Roboto,sans-serif" font-size="12" lengthAdjust="spacing" textLength="33.0527" x="272.7919" y="83.3966">MQTT</text><text fill="#000000" font-family="Roboto,sans-serif" font-size="12" lengthAdjust="spacing" textLength="30.0527" x="275.7685" y="97.4591">CoAP</text><text fill="#000000" font-family="Roboto,sans-serif" font-size="12" lengthAdjust="spacing" textLength="37.5762" x="272.7919" y="111.5216">HTTPS</text><text fill="#000000" font-family="Roboto,sans-serif" font-size="12" lengthAdjust="spacing" textLength="9.4922" x="287.6747" y="125.5841">...</text></g><!--link creator to server--><g class="link" data-entity-1="creator" data-entity-2="server" data-source-line="24" data-uid="lnk10" id="link_creator_server"><path d="M118.65,55.2638 C130.17,55.2638 135.69,55.2638 147.21,55.2638" fill="none" id="creator-to-server" style="stroke:#000000;stroke-width:1;"/><polygon fill="#000000" points="153.21,55.2638,144.21,51.2638,148.21,55.2638,144.21,59.2638,153.21,55.2638" style="stroke:#000000;stroke-width:1;"/></g><!--reverse link server to tls--><g class="link" data-entity-1="server" data-entity-2="tls" data-source-line="25" data-uid="lnk12" id="link_server_tls"><path d="M253.86,55.2638 C265.36,55.2638 270.86,55.2638 282.36,55.2638" fill="none" id="server-backto-tls" style="stroke:#000000;stroke-width:1;"/><polygon fill="#000000" points="247.86,55.2638,256.86,59.2638,252.86,55.2638,256.86,51.2638,247.86,55.2638" style="stroke:#000000;stroke-width:1;"/></g><!--link tls to client--><g class="link" data-entity-1="tls" data-entity-2="client" data-source-line="26" data-uid="lnk13" id="link_tls_client"><path d="M301.08,55.2638 C312.82,55.2638 318.56,55.2638 330.3,55.2638" fill="none" id="tls-to-client" style="stroke:#000000;stroke-width:1;"/><polygon fill="#000000" points="336.3,55.2638,327.3,51.2638,331.3,55.2638,327.3,59.2638,336.3,55.2638" style="stroke:#000000;stroke-width:1;"/></g><!--link client to store--><g class="link" data-entity-1="client" data-entity-2="store" data-source-line="27" data-uid="lnk14" id="link_client_store"><path d="M381.75,72.6438 C381.92,88.9938 382.1159,108.1942 382.3059,125.9742" fill="none" id="client-to-store" style="stroke:#000000;stroke-width:1;"/><polygon fill="#000000" points="382.37,131.9738,386.2736,122.9316,382.3166,126.9741,378.2741,123.0171,382.37,131.9738" style="stroke:#000000;stroke-width:1;"/></g></g></svg>