<?xml version="1.0" encoding="UTF-8" standalone="no"?><svg xmlns="http://www.w3.org/2000/svg" xmlns:xlink="http://www.w3.org/1999/xlink" contentStyleType="text/css" height="199px" preserveAspectRatio="none" style="width:749px;height:199px;background:#FFFFFF;" version="1.1" viewBox="0 0 749 199" width="749px" zoomAndPan="magnify"><defs/><g><!--MD5=[07074073229a58b98d86dbf75a12e332]
cluster Internet--><g id="cluster_Internet"><path d="M147.8249,18.4993 C149.8634,13.1362 153.0548,12.4608 157.3594,16.0991 C159.6814,10.8228 164.9586,9.9734 168.9263,14.0676 C171.9339,9.4253 176.5941,10.2217 179.137,14.5941 C182.4055,7.2095 186.7029,7.9201 191.9817,12.4218 C194.1232,6.5645 197.6697,6 201.9167,10.3782 C206.9283,6.066 210.3264,7.4735 213.0793,12.953 C217.4052,8.0785 220.5365,9.7162 223.3944,14.5179 C226.3436,10.0076 231.5873,9.7629 234.2098,14.8848 C238.6515,9.7893 242.8105,11.1355 245.0975,17.0212 C249.2595,10.6793 254.1074,11.1144 257.9483,17.3492 C263.9882,19.973 263.8858,25.196 259.0873,28.8895 C264.6481,31.7509 265.5885,35.6944 260.342,39.7988 C267.4438,41.6431 267.5978,46.519 263.5018,51.4106 C268.7158,55.9592 266.3967,61.034 260.7937,63.0703 C265.3152,66.9346 264.8838,70.8826 259.3156,73.2872 C264.1224,77.8591 263.44,82.2813 257.0166,84.5636 C253.7179,88.7477 250.0775,88.901 246.745,84.6046 C243.1668,89.5107 238.9983,90.0201 235.9116,84.1122 C232.8577,90.8452 229.0637,91.2563 224.2031,85.8558 C221.1163,90.2797 217.2914,91.0177 214.0763,85.9933 C210.6614,90.8912 206.4991,91.0821 202.6531,86.5135 C198.6711,90.5108 194.8006,89.8609 192.0145,85.0665 C188.5113,89.6582 183.324,90.646 180.3695,84.4729 C177.0189,89.1431 172.7861,90.2956 169.5478,84.3585 C166.1579,89.1819 162.6683,89.6725 158.4399,85.3802 C153.8448,89.415 149.6668,89.1849 147.2705,82.9815 C142.1213,80.8926 140.3384,76.4258 145.4423,72.5413 C139.5578,69.2267 139.406,65.4073 145.1636,61.7909 C139.9899,58.0138 140.316,54.9082 145.4568,51.4227 C140.1928,47.0998 141.086,43.0895 146.6497,39.8862 C141.8287,36.6675 142.2389,32.2224 146.9476,29.271 C142.6894,25.4096 142.2673,21.5613 147.8249,18.4993 " fill="#FFFFFF" style="stroke:#7D868C;stroke-width:1.0;"/><text fill="#000000" font-family="Lato,sans-serif" font-size="11" font-weight="bold" lengthAdjust="spacing" textLength="40" x="181" y="32.7286">Internet</text></g><g id="cluster_##6"><rect fill="#FFFFFF" fill-opacity="0.56471" height="185" rx="2.5" ry="2.5" style="stroke:#8B0000;stroke-width:1.0;stroke-dasharray:7.0,7.0;" width="423" x="320" y="8.8851"/><text fill="#000000" font-family="Lato,sans-serif" font-size="11" font-style="italic" lengthAdjust="spacing" textLength="41" x="511" y="21.7286">«Device»</text></g><!--MD5=[dd82451e1dd92fe3da01853750f49ff6]
entity server--><g id="elem_server"><rect fill="#7D868C" height="34.3921" rx="2.5" ry="2.5" style="stroke:#000000;stroke-width:0.0;" width="94" x="154" y="40.8851"/><text fill="#FFFFFF" font-family="Lato,sans-serif" font-size="12" lengthAdjust="spacing" textLength="74" x="164" y="62.7226">Update server</text></g><!--MD5=[4a65e84059005d12693a083370a06717]
entity client--><g id="elem_client"><rect fill="#7D868C" height="34.3921" rx="2.5" ry="2.5" style="stroke:#000000;stroke-width:0.0;" width="90" x="336" y="40.8851"/><text fill="#FFFFFF" font-family="Lato,sans-serif" font-size="12" lengthAdjust="spacing" textLength="70" x="346" y="62.7226">Update client</text></g><!--MD5=[e2307af040e3f87d22824e7603ca28ec]
entity api--><g id="elem_api"><ellipse cx="470" cy="57.8851" fill="#95D600" rx="8" ry="8" style="stroke:#7D868C;stroke-width:1.0;"/><text fill="#000000" font-family="Lato,sans-serif" font-size="12" font-weight="bold" lengthAdjust="spacing" textLength="51" x="442.5" y="86.7226">Firmware</text><text fill="#000000" font-family="Lato,sans-serif" font-size="12" font-weight="bold" lengthAdjust="spacing" textLength="63" x="438.5" y="101.1146">Update API</text></g><!--MD5=[38bfa9dc6018363cafe15f923a4b8db9]
entity service--><g id="elem_service"><rect fill="#0091BD" height="34.3921" rx="2.5" ry="2.5" style="stroke:#000000;stroke-width:0.0;" width="98" x="514" y="40.8851"/><text fill="#FFFFFF" font-family="Lato,sans-serif" font-size="12" lengthAdjust="spacing" textLength="78" x="524" y="62.7226">Update service</text></g><!--MD5=[0686720d71d32ea68f81164171d509ce]
entity store--><g id="elem_store"><path d="M570,144.8851 C570,134.8851 620,134.8851 620,134.8851 C620,134.8851 670,134.8851 670,144.8851 L670,168.2771 C670,178.2771 620,178.2771 620,178.2771 C620,178.2771 570,178.2771 570,168.2771 L570,144.8851 " fill="#E5ECEB" style="stroke:#7D868C;stroke-width:1.0;"/><path d="M570,144.8851 C570,154.8851 620,154.8851 620,154.8851 C620,154.8851 670,154.8851 670,144.8851 " fill="none" style="stroke:#7D868C;stroke-width:1.0;"/><text fill="#000000" font-family="Lato,sans-serif" font-size="12" lengthAdjust="spacing" textLength="80" x="580" y="170.7226">Firmware store</text></g><!--MD5=[f9240c011011a8880de7611d65d98344]
entity bootloader--><g id="elem_bootloader"><rect fill="#0091BD" height="34.3921" rx="2.5" ry="2.5" style="stroke:#000000;stroke-width:0.0;" width="80" x="647" y="40.8851"/><text fill="#FFFFFF" font-family="Lato,sans-serif" font-size="12" lengthAdjust="spacing" textLength="60" x="657" y="62.7226">Bootloader</text></g><!--MD5=[047b2bc0105c3139e3e48092a86620e4]
entity creator--><g id="elem_creator"><rect fill="#002B49" height="34.3921" rx="2.5" ry="2.5" style="stroke:#000000;stroke-width:0.0;" width="112" x="7" y="40.8851"/><text fill="#FFFFFF" font-family="Lato,sans-serif" font-size="12" lengthAdjust="spacing" textLength="92" x="17" y="62.7226">Firmware creator</text></g><!--MD5=[71457ea29a5a3cf1aa4f13fecb197da8]
entity tls--><g id="elem_tls"><ellipse cx="292" cy="57.8851" fill="#E5ECEB" rx="8" ry="8" style="stroke:#7D868C;stroke-width:1.0;"/><text fill="#000000" font-family="Lato,sans-serif" font-size="12" lengthAdjust="spacing" textLength="35" x="274" y="86.7226">MQTT</text><text fill="#000000" font-family="Lato,sans-serif" font-size="12" lengthAdjust="spacing" textLength="30" x="276" y="101.1146">CoAP</text><text fill="#000000" font-family="Lato,sans-serif" font-size="12" lengthAdjust="spacing" textLength="36" x="274" y="115.5067">HTTPS</text><text fill="#000000" font-family="Lato,sans-serif" font-size="12" lengthAdjust="spacing" textLength="9" x="286" y="129.8988">...</text></g><!--MD5=[41bc4e4e6fea70a93be6da1129fc717b]
link creator to server--><g id="link_creator_server"><path d="M119.06,57.8851 C128.97,57.8851 138.87,57.8851 148.77,57.8851 " fill="none" id="creator-to-server" style="stroke:#000000;stroke-width:1.0;"/><polygon fill="#000000" points="153.95,57.8851,144.95,53.8851,148.95,57.8851,144.95,61.8851,153.95,57.8851" style="stroke:#000000;stroke-width:1.0;"/></g><!--MD5=[e4ba6bd3088feaf6592114192c23d752]
reverse link server to tls--><g id="link_server_tls"><path d="M253.4,57.8851 C263.19,57.8851 272.98,57.8851 282.78,57.8851 " fill="none" id="server-backto-tls" style="stroke:#000000;stroke-width:1.0;"/><polygon fill="#000000" points="248.28,57.8851,257.28,61.8851,253.28,57.8851,257.28,53.8851,248.28,57.8851" style="stroke:#000000;stroke-width:1.0;"/></g><!--MD5=[0416c271e414555717e9210f2f4947bc]
link tls to client--><g id="link_tls_client"><path d="M301.04,57.8851 C310.88,57.8851 320.72,57.8851 330.56,57.8851 " fill="none" id="tls-to-client" style="stroke:#000000;stroke-width:1.0;"/><polygon fill="#000000" points="335.71,57.8851,326.71,53.8851,330.71,57.8851,326.71,61.8851,335.71,57.8851" style="stroke:#000000;stroke-width:1.0;"/></g><!--MD5=[d4ad1d5275391ca8d3acb292d4b26dc5]
link client to api--><g id="link_client_api"><path d="M426.2,57.8851 C437.72,57.8851 449.24,57.8851 460.76,57.8851 " fill="none" id="client-api" style="stroke:#000000;stroke-width:1.0;"/></g><!--MD5=[1c521d26b07f62f1c62f7b4ad904b4ec]
link api to service--><g id="link_api_service"><path d="M479.08,57.8851 C488.95,57.8851 498.81,57.8851 508.67,57.8851 " fill="none" id="api-to-service" style="stroke:#000000;stroke-width:1.0;"/><polygon fill="#000000" points="513.83,57.8851,504.83,53.8851,508.83,57.8851,504.83,61.8851,513.83,57.8851" style="stroke:#000000;stroke-width:1.0;"/></g><!--MD5=[ed03d9e8372767f52fa40155923214fd]
link service to store--><g id="link_service_store"><path d="M572.67,75.2551 C581.5,90.1951 594.68,112.5251 604.9,129.8151 " fill="none" id="service-to-store" style="stroke:#000000;stroke-width:1.0;"/><polygon fill="#000000" points="607.69,134.5451,606.5661,124.7605,605.1512,130.2376,599.6741,128.8227,607.69,134.5451" style="stroke:#000000;stroke-width:1.0;"/></g><!--MD5=[b2c3693cc77b3eda2064568fff50fa14]
link service to bootloader--><!--MD5=[00736459551cbf36f84ac77ffa3c6a29]
link bootloader to store--><g id="link_bootloader_store"><path d="M675.63,75.2551 C665.17,90.3251 649.49,112.9051 637.45,130.2551 " fill="none" id="bootloader-to-store" style="stroke:#000000;stroke-width:1.0;"/><polygon fill="#000000" points="634.47,134.5451,642.8974,129.448,637.3287,130.4429,636.3339,124.8742,634.47,134.5451" style="stroke:#000000;stroke-width:1.0;"/></g></g></svg>