<?xml version="1.0" encoding="UTF-8" standalone="no"?><svg xmlns="http://www.w3.org/2000/svg" xmlns:xlink="http://www.w3.org/1999/xlink" contentStyleType="text/css" height="241px" preserveAspectRatio="none" style="width:637px;height:241px;background:#FFFFFF55;" version="1.1" viewBox="0 0 637 241" width="637px" zoomAndPan="magnify"><defs/><g><g id="cluster_##2"><rect fill="#FFFFFF" fill-opacity="0.56471" height="102" rx="2.5" ry="2.5" style="stroke:#8B0000;stroke-width:1.0;stroke-dasharray:7.0,7.0;" width="300" x="7" y="7"/><text fill="#000000" font-family="Lato,sans-serif" font-size="11" font-style="italic" lengthAdjust="spacing" textLength="112" x="101" y="19.8435">«Application boundary»</text></g><g id="cluster_##6"><rect fill="#FFFFFF" fill-opacity="0.56471" height="92" rx="2.5" ry="2.5" style="stroke:#8B0000;stroke-width:1.0;stroke-dasharray:7.0,7.0;" width="296" x="335" y="75"/><text fill="#000000" font-family="Lato,sans-serif" font-size="11" font-style="italic" lengthAdjust="spacing" textLength="132" x="417" y="87.8435">«Data protection boundary»</text></g><g id="cluster_##10"><rect fill="#FFFFFF" fill-opacity="0.56471" height="102" rx="2.5" ry="2.5" style="stroke:#8B0000;stroke-width:1.0;stroke-dasharray:7.0,7.0;" width="300" x="7" y="133"/><text fill="#000000" font-family="Lato,sans-serif" font-size="11" font-style="italic" lengthAdjust="spacing" textLength="112" x="101" y="145.8435">«Application boundary»</text></g><!--MD5=[4049e4175d626f035568dddd2d8bc5d3]
entity caller1--><g id="elem_caller1"><rect fill="#7D868C" height="34.3921" rx="2.5" ry="2.5" style="stroke:#000000;stroke-width:0.0;" width="90" x="23" y="49"/><text fill="#FFFFFF" font-family="Lato,sans-serif" font-size="12" lengthAdjust="spacing" textLength="70" x="33" y="70.8375">Application 1</text></g><!--MD5=[292e5a3114c0f5c68837ca2833dd9f72]
entity api1--><g id="elem_api1"><ellipse cx="232" cy="66" fill="#95D600" rx="8" ry="8" style="stroke:#7D868C;stroke-width:1.0;"/><text fill="#000000" font-family="Lato,sans-serif" font-size="12" font-weight="bold" lengthAdjust="spacing" textLength="102" x="181" y="94.8375">Secure Storage API</text></g><!--MD5=[38bfa9dc6018363cafe15f923a4b8db9]
entity service--><g id="elem_service"><rect fill="#0091BD" height="34.3921" rx="2.5" ry="2.5" style="stroke:#000000;stroke-width:0.0;" width="99" x="351" y="112"/><text fill="#FFFFFF" font-family="Lato,sans-serif" font-size="12" lengthAdjust="spacing" textLength="79" x="361" y="133.8375">Storage service</text></g><!--MD5=[0686720d71d32ea68f81164171d509ce]
entity store--><g id="elem_store"><path d="M510,117.5 C510,107.5 562.5,107.5 562.5,107.5 C562.5,107.5 615,107.5 615,117.5 L615,140.8921 C615,150.8921 562.5,150.8921 562.5,150.8921 C562.5,150.8921 510,150.8921 510,140.8921 L510,117.5 " fill="#E5ECEB" style="stroke:#7D868C;stroke-width:1.0;"/><path d="M510,117.5 C510,127.5 562.5,127.5 562.5,127.5 C562.5,127.5 615,127.5 615,117.5 " fill="none" style="stroke:#7D868C;stroke-width:1.0;"/><text fill="#000000" font-family="Lato,sans-serif" font-size="12" lengthAdjust="spacing" textLength="85" x="520" y="143.3375">Storage medium</text></g><!--MD5=[7175c50600189eb8393c594a0a1e321a]
entity api2--><g id="elem_api2"><ellipse cx="232" cy="192" fill="#95D600" rx="8" ry="8" style="stroke:#7D868C;stroke-width:1.0;"/><text fill="#000000" font-family="Lato,sans-serif" font-size="12" font-weight="bold" lengthAdjust="spacing" textLength="102" x="181" y="220.8375">Secure Storage API</text></g><!--MD5=[c3c87a563b1880fa783985ba4cde4ef0]
entity caller2--><g id="elem_caller2"><rect fill="#7D868C" height="34.3921" rx="2.5" ry="2.5" style="stroke:#000000;stroke-width:0.0;" width="90" x="23" y="175"/><text fill="#FFFFFF" font-family="Lato,sans-serif" font-size="12" lengthAdjust="spacing" textLength="70" x="33" y="196.8375">Application 2</text></g><!--MD5=[56215ddf652ba979ec69187568d10354]
link caller1 to api1--><g id="link_caller1_api1"><path d="M113.27,66 C151.3,66 203.05,66 222.84,66 " fill="none" id="caller1-api1" style="stroke:#000000;stroke-width:1.0;"/></g><!--MD5=[16fd6fb043220838fbcc45b9a487f1b7]
link api1 to service--><g id="link_api1_service"><path d="M241.03,69.04 C260.3,76.33 310.45,95.3 349.22,109.97 " fill="none" id="api1-to-service" style="stroke:#000000;stroke-width:1.0;"/><polygon fill="#000000" points="354.37,111.92,347.373,104.9888,349.6948,110.1472,344.5365,112.469,354.37,111.92" style="stroke:#000000;stroke-width:1.0;"/></g><!--MD5=[ed03d9e8372767f52fa40155923214fd]
link service to store--><g id="link_service_store"><path d="M455.74,129 C471.46,129 488.66,129 504.54,129 " fill="none" id="service-store" style="stroke:#000000;stroke-width:1.0;"/><polygon fill="#000000" points="509.87,129,500.87,125,504.87,129,500.87,133,509.87,129" style="stroke:#000000;stroke-width:1.0;"/><polygon fill="#000000" points="450.37,129,459.37,133,455.37,129,459.37,125,450.37,129" style="stroke:#000000;stroke-width:1.0;"/></g><!--MD5=[feda11b69b51ccc9907fd52c5692afd0]
link caller2 to api2--><g id="link_caller2_api2"><path d="M113.27,192 C151.3,192 203.05,192 222.84,192 " fill="none" id="caller2-api2" style="stroke:#000000;stroke-width:1.0;"/></g><!--MD5=[82cc0bb2ae07b272842b60255e084762]
link api2 to service--><g id="link_api2_service"><path d="M241.03,188.96 C260.3,181.67 310.45,162.7 349.22,148.03 " fill="none" id="api2-to-service" style="stroke:#000000;stroke-width:1.0;"/><polygon fill="#000000" points="354.37,146.08,344.5365,145.531,349.6948,147.8528,347.373,153.0112,354.37,146.08" style="stroke:#000000;stroke-width:1.0;"/></g></g></svg>