<?xml version="1.0" encoding="UTF-8" standalone="no"?><svg xmlns="http://www.w3.org/2000/svg" xmlns:xlink="http://www.w3.org/1999/xlink" contentStyleType="text/css" height="172px" preserveAspectRatio="none" style="width:683px;height:172px;background:#FFFFFF55;" version="1.1" viewBox="0 0 683 172" width="683px" zoomAndPan="magnify"><defs/><g><g id="cluster_##2"><rect fill="#FFFFFF" fill-opacity="0.56471" height="159" rx="2.5" ry="2.5" style="stroke:#8B0000;stroke-width:1.0;stroke-dasharray:7.0,7.0;" width="670" x="7" y="7"/><text fill="#000000" font-family="Lato,sans-serif" font-size="11" font-style="italic" lengthAdjust="spacing" textLength="41" x="321.5" y="19.8435">«Device»</text></g><!--MD5=[aec96949da387e78ae944f502a40a29a]
cluster Platform Root of Trust--><g id="cluster_Platform Root of Trust"><rect fill="#FFFFFF" fill-opacity="0.56471" height="95" rx="2.5" ry="2.5" style="stroke:#8B0000;stroke-width:1.0;stroke-dasharray:7.0,7.0;" width="131" x="354" y="47"/><text fill="#000000" font-family="Lato,sans-serif" font-size="11" font-style="italic" lengthAdjust="spacing" textLength="79" x="380" y="59.8435">«trust boundary»</text><text fill="#000000" font-family="Lato,sans-serif" font-size="11" font-weight="bold" lengthAdjust="spacing" textLength="110" x="364.5" y="73.0271">Platform Root of Trust</text></g><!--MD5=[199196004143ad81764c15ef5a1e7d18]
entity caller--><g id="elem_caller"><rect fill="#7D868C" height="34.3921" rx="2.5" ry="2.5" style="stroke:#000000;stroke-width:0.0;" width="81" x="23" y="92"/><text fill="#FFFFFF" font-family="Lato,sans-serif" font-size="12" lengthAdjust="spacing" textLength="61" x="33" y="113.8375">Application</text></g><!--MD5=[e2307af040e3f87d22824e7603ca28ec]
entity api--><g id="elem_api"><ellipse cx="224" cy="109" fill="#95D600" rx="8" ry="8" style="stroke:#7D868C;stroke-width:1.0;"/><text fill="#000000" font-family="Lato,sans-serif" font-size="12" font-weight="bold" lengthAdjust="spacing" textLength="102" x="173" y="137.8375">Secure Storage API</text></g><!--MD5=[0686720d71d32ea68f81164171d509ce]
entity store--><g id="elem_store"><path d="M556,97.5 C556,87.5 608.5,87.5 608.5,87.5 C608.5,87.5 661,87.5 661,97.5 L661,120.8921 C661,130.8921 608.5,130.8921 608.5,130.8921 C608.5,130.8921 556,130.8921 556,120.8921 L556,97.5 " fill="#E5ECEB" style="stroke:#7D868C;stroke-width:1.0;"/><path d="M556,97.5 C556,107.5 608.5,107.5 608.5,107.5 C608.5,107.5 661,107.5 661,97.5 " fill="none" style="stroke:#7D868C;stroke-width:1.0;"/><text fill="#000000" font-family="Lato,sans-serif" font-size="12" lengthAdjust="spacing" textLength="85" x="566" y="123.3375">Storage medium</text></g><!--MD5=[38bfa9dc6018363cafe15f923a4b8db9]
entity service--><g id="elem_service"><rect fill="#0091BD" height="34.3921" rx="2.5" ry="2.5" style="stroke:#000000;stroke-width:0.0;" width="99" x="370" y="92"/><text fill="#FFFFFF" font-family="Lato,sans-serif" font-size="12" lengthAdjust="spacing" textLength="79" x="380" y="113.8375">Storage service</text></g><!--MD5=[a2305c5d0ff17a079d97a2d45501c866]
link caller to api--><g id="link_caller_api"><path d="M104.09,109 C141.5,109 194.8,109 214.9,109 " fill="none" id="caller-api" style="stroke:#000000;stroke-width:1.0;"/></g><!--MD5=[1c521d26b07f62f1c62f7b4ad904b4ec]
link api to service--><g id="link_api_service"><path d="M233.31,109 C255.6,109 318.13,109 364.4,109 " fill="none" id="api-to-service" style="stroke:#000000;stroke-width:1.0;"/><polygon fill="#000000" points="369.67,109,360.67,105,364.67,109,360.67,113,369.67,109" style="stroke:#000000;stroke-width:1.0;"/><text fill="#000000" font-family="Lato,sans-serif" font-size="12" lengthAdjust="spacing" textLength="23" x="314" y="105.8375">DF1</text></g><!--MD5=[ed03d9e8372767f52fa40155923214fd]
link service to store--><g id="link_service_store"><path d="M474.21,109 C498.16,109 526.4,109 550.7,109 " fill="none" id="service-store" style="stroke:#000000;stroke-width:1.0;"/><polygon fill="#000000" points="555.83,109,546.83,105,550.83,109,546.83,113,555.83,109" style="stroke:#000000;stroke-width:1.0;"/><polygon fill="#000000" points="469.14,109,478.14,113,474.14,109,478.14,105,469.14,109" style="stroke:#000000;stroke-width:1.0;"/><text fill="#000000" font-family="Lato,sans-serif" font-size="12" lengthAdjust="spacing" textLength="23" x="502" y="105.8375">DF3</text></g></g></svg>