<svg xmlns="http://www.w3.org/2000/svg" xmlns:xlink="http://www.w3.org/1999/xlink" contentStyleType="text/css" data-diagram-type="DESCRIPTION" height="172px" preserveAspectRatio="none" style="width:682px;height:172px;background:#FFFFFF55;" version="1.1" viewBox="0 0 682 172" width="682px" zoomAndPan="magnify"><defs/><g><rect fill="#FFFFFF" fill-opacity="0.33333" height="172" style="stroke:none;stroke-width:1;" width="682" x="0" y="0"/><g class="cluster" data-entity="##2" data-source-line="14" data-uid="ent0003" id="cluster_##2"><rect fill="#FFFFFF" fill-opacity="0.56471" height="159" style="stroke:#8B0000;stroke-width:1;stroke-dasharray:7.0,7.0;" width="669.26" x="7" y="7"/><text fill="#000000" font-family="Lato,sans-serif" font-size="11" font-style="italic" lengthAdjust="spacing" textLength="39.7815" x="321.7392" y="19.857">&#171;Device&#187;</text></g><!--cluster Platform Root of Trust--><g class="cluster" data-entity="Platform Root of Trust" data-source-line="16" data-uid="ent0006" id="cluster_Platform Root of Trust"><rect fill="#FFFFFF" fill-opacity="0.56471" height="95" style="stroke:#8B0000;stroke-width:1;stroke-dasharray:7.0,7.0;" width="132.64" x="351.66" y="47"/><text fill="#000000" font-family="Lato,sans-serif" font-size="11" font-style="italic" lengthAdjust="spacing" textLength="76.6865" x="379.6368" y="59.857">&#171;trust boundary&#187;</text><text fill="#000000" font-family="Lato,sans-serif" font-size="11" font-weight="bold" lengthAdjust="spacing" textLength="110.715" x="362.6225" y="73.057">Platform Root of Trust</text></g><!--entity caller--><g class="entity" data-entity="caller" data-source-line="16" data-uid="ent0004" id="entity_caller"><rect fill="#7D868C" height="34.4" rx="4" ry="4" width="79.664" x="23" y="91.8"/><text fill="#FFFFFF" font-family="Lato,sans-serif" font-size="12" lengthAdjust="spacing" textLength="59.664" x="33" y="113.644">Application</text></g><!--entity api--><g class="entity" data-entity="api" data-source-line="17" data-uid="ent0005" id="entity_api"><ellipse cx="222.66" cy="109" fill="#95D600" rx="8" ry="8" style="stroke:#7D868C;stroke-width:1;"/><text fill="#000000" font-family="Lato,sans-serif" font-size="12" font-weight="bold" lengthAdjust="spacing" textLength="102.828" x="171.246" y="137.844">Secure Storage API</text></g><!--entity store--><g class="entity" data-entity="store" data-source-line="21" data-uid="ent0008" id="entity_store"><path d="M554.3,97.3 C554.3,87.3 607.281,87.3 607.281,87.3 C607.281,87.3 660.262,87.3 660.262,97.3 L660.262,120.7 C660.262,130.7 607.281,130.7 607.281,130.7 C607.281,130.7 554.3,130.7 554.3,120.7 L554.3,97.3" fill="#E5ECEB" style="stroke:#7D868C;stroke-width:1;"/><path d="M554.3,97.3 C554.3,107.3 607.281,107.3 607.281,107.3 C607.281,107.3 660.262,107.3 660.262,97.3" fill="none" style="stroke:#7D868C;stroke-width:1;"/><text fill="#000000" font-family="Lato,sans-serif" font-size="12" lengthAdjust="spacing" textLength="85.962" x="564.3" y="123.144">Storage medium</text></g><!--entity service--><g class="entity" data-entity="service" data-source-line="19" data-uid="ent0007" id="entity_service"><rect fill="#0091BD" height="34.4" rx="4" ry="4" width="100.634" x="367.66" y="91.8"/><text fill="#FFFFFF" font-family="Lato,sans-serif" font-size="12" lengthAdjust="spacing" textLength="80.634" x="377.66" y="113.644">Storage service</text></g><!--link caller to api--><g class="link" data-entity-1="caller" data-entity-2="api" data-source-line="24" data-uid="lnk9" id="link_caller_api"><path d="M102.85,109 C140.27,109 193.95,109 213.85,109" fill="none" id="caller-api" style="stroke:#000000;stroke-width:1;"/></g><!--link api to service--><g class="link" data-entity-1="api" data-entity-2="service" data-source-line="25" data-uid="lnk10" id="link_api_service"><path d="M231.48,109 C254.02,109 314.48,109 361.38,109" fill="none" id="api-to-service" style="stroke:#000000;stroke-width:1;"/><polygon fill="#000000" points="367.38,109,358.38,105,362.38,109,358.38,113,367.38,109" style="stroke:#000000;stroke-width:1;"/><text fill="#000000" font-family="Lato,sans-serif" font-size="12" lengthAdjust="spacing" textLength="22.872" x="312.66" y="105.844">DF1</text></g><!--link service to store--><g class="link" data-entity-1="service" data-entity-2="store" data-source-line="26" data-uid="lnk11" id="link_service_store"><path d="M474.68,109 C501.02,109 521.35,109 548.05,109" fill="none" id="service-store" style="stroke:#000000;stroke-width:1;"/><polygon fill="#000000" points="468.68,109,477.68,113,473.68,109,477.68,105,468.68,109" style="stroke:#000000;stroke-width:1;"/><polygon fill="#000000" points="554.05,109,545.05,105,549.05,109,545.05,113,554.05,109" style="stroke:#000000;stroke-width:1;"/><text fill="#000000" font-family="Lato,sans-serif" font-size="12" lengthAdjust="spacing" textLength="22.872" x="501.3" y="105.844">DF3</text></g></g></svg>