<?xml version="1.0" encoding="UTF-8" standalone="no"?><svg xmlns="http://www.w3.org/2000/svg" xmlns:xlink="http://www.w3.org/1999/xlink" contentStyleType="text/css" height="171px" preserveAspectRatio="none" style="width:787px;height:171px;background:#FFFFFF55;" version="1.1" viewBox="0 0 787 171" width="787px" zoomAndPan="magnify"><defs/><g><!--MD5=[005506d257fab70adc88451566f9129d]
cluster r1--><g id="cluster_r1"><rect fill="#0091BD" fill-opacity="0.12549" height="112" rx="4" ry="4" style="stroke:#0091BD;stroke-width:0.0;" width="296" x="7" y="53.5"/><line style="stroke:#0091BD;stroke-width:0.0;" x1="7" x2="303" y1="70.6836" y2="70.6836"/><text fill="#000000" font-family="Lato,sans-serif" font-size="11" font-weight="bold" lengthAdjust="spacing" textLength="73" x="118.5" y="66.3435">Manufacturing</text></g><!--MD5=[752525c06a6a34605e879100972458c5]
cluster r3--><g id="cluster_r3"><rect fill="#0091BD" fill-opacity="0.12549" height="82" rx="4" ry="4" style="stroke:#0091BD;stroke-width:0.0;" width="267.5" x="358.5" y="69.5"/><line style="stroke:#0091BD;stroke-width:0.0;" x1="358.5" x2="626" y1="86.6836" y2="86.6836"/><text fill="#000000" font-family="Lato,sans-serif" font-size="11" font-weight="bold" lengthAdjust="spacing" textLength="60" x="462.25" y="82.3435">Operational</text></g><!--MD5=[86e116b88bc2fa5f55fa925b0a356aa0]
cluster r5--><g id="cluster_r5"><rect fill="#0091BD" fill-opacity="0.12549" height="98" rx="4" ry="4" style="stroke:#0091BD;stroke-width:0.0;" width="126" x="654" y="61.5"/><line style="stroke:#0091BD;stroke-width:0.0;" x1="654" x2="780" y1="78.6836" y2="78.6836"/><text fill="#000000" font-family="Lato,sans-serif" font-size="11" font-weight="bold" lengthAdjust="spacing" textLength="48" x="693" y="74.3435">End of life</text></g><!--MD5=[9624e15c31868e617e8ae41e3b1a9e47]
entity lc1--><g id="elem_lc1"><rect fill="#0091BD" height="63.1763" rx="4" ry="4" style="stroke:#8B0000;stroke-width:0.0;" width="107" x="23" y="86"/><text fill="#FFFFFF" font-family="Lato,sans-serif" font-size="12" lengthAdjust="spacing" textLength="37" x="33" y="107.8375">System</text><text fill="#FFFFFF" font-family="Lato,sans-serif" font-size="12" lengthAdjust="spacing" textLength="78" x="33" y="122.2296">manufacturing</text><text fill="#FFFFFF" font-family="Lato,sans-serif" font-size="12" lengthAdjust="spacing" textLength="87" x="33" y="136.6217">and initialization</text></g><!--MD5=[9a50fb77d217c2dd04862824df733257]
entity lc2--><g id="elem_lc2"><rect fill="#0091BD" height="63.1763" rx="4" ry="4" style="stroke:#8B0000;stroke-width:0.0;" width="89" x="198" y="86"/><text fill="#FFFFFF" font-family="Lato,sans-serif" font-size="12" lengthAdjust="spacing" textLength="63" x="208" y="107.8375">Provision of</text><text fill="#FFFFFF" font-family="Lato,sans-serif" font-size="12" lengthAdjust="spacing" textLength="69" x="208" y="122.2296">Root of Trust</text><text fill="#FFFFFF" font-family="Lato,sans-serif" font-size="12" lengthAdjust="spacing" textLength="37" x="208" y="136.6217">secrets</text></g><!--MD5=[a04d7d0ab78d1e07373afa2352505a63]
entity lc3--><g id="elem_lc3"><rect fill="#0091BD" height="34.3921" rx="4" ry="4" style="stroke:#8B0000;stroke-width:0.0;" width="46" x="374.5" y="101.5"/><text fill="#FFFFFF" font-family="Lato,sans-serif" font-size="12" lengthAdjust="spacing" textLength="26" x="384.5" y="123.3375">Boot</text></g><!--MD5=[042684866a165d6c5766a4eb03c1ce59]
entity lc4--><g id="elem_lc4"><rect fill="#0091BD" height="34.3921" rx="4" ry="4" style="stroke:#8B0000;stroke-width:0.0;" width="110" x="500" y="101.5"/><text fill="#FFFFFF" font-family="Lato,sans-serif" font-size="12" lengthAdjust="spacing" textLength="90" x="510" y="123.3375">Secure operation</text></g><!--MD5=[8c425d1d980cfa542f24f5bb0b6eb568]
entity lc5--><g id="elem_lc5"><rect fill="#0091BD" height="48.7842" rx="4" ry="4" style="stroke:#8B0000;stroke-width:0.0;" width="94" x="670" y="94"/><text fill="#FFFFFF" font-family="Lato,sans-serif" font-size="12" lengthAdjust="spacing" textLength="50" x="680" y="115.8375">Return to</text><text fill="#FFFFFF" font-family="Lato,sans-serif" font-size="12" lengthAdjust="spacing" textLength="74" x="680" y="130.2296">Manufacturer</text></g><g id="elem_n1"><path d="M32,17.5 L32,33.8921 A4,4 0 0 0 36,37.8921 L117,37.8921 A4,4 0 0 0 121,33.8921 L121,23.5 L111,13.5 L36,13.5 A4,4 0 0 0 32,17.5 " fill="#E8E8E8" style="stroke:#181818;stroke-width:1.0;"/><path d="M111,13.5 L111,21.5 A2,2 0 0 0 113,23.5 L121,23.5 L111,13.5 " fill="#E8E8E8" style="stroke:#181818;stroke-width:1.0;"/><text fill="#000000" font-family="Lato,sans-serif" font-size="12" lengthAdjust="spacing" textLength="68" x="38" y="30.3375">SiP and OEM</text></g><g id="elem_n2"><path d="M190,17.5 L190,33.8921 A4,4 0 0 0 194,37.8921 L291,37.8921 A4,4 0 0 0 295,33.8921 L295,23.5 L285,13.5 L194,13.5 A4,4 0 0 0 190,17.5 " fill="#E8E8E8" style="stroke:#181818;stroke-width:1.0;"/><path d="M285,13.5 L285,21.5 A2,2 0 0 0 287,23.5 L295,23.5 L285,13.5 " fill="#E8E8E8" style="stroke:#181818;stroke-width:1.0;"/><text fill="#000000" font-family="Lato,sans-serif" font-size="12" lengthAdjust="spacing" textLength="84" x="196" y="30.3375">SiP and/or OEM</text></g><g id="elem_n3"><path d="M355,17.5 L355,33.8921 A4,4 0 0 0 359,37.8921 L436,37.8921 A4,4 0 0 0 440,33.8921 L440,23.5 L430,13.5 L359,13.5 A4,4 0 0 0 355,17.5 " fill="#E8E8E8" style="stroke:#181818;stroke-width:1.0;"/><path d="M430,13.5 L430,21.5 A2,2 0 0 0 432,23.5 L440,23.5 L430,13.5 " fill="#E8E8E8" style="stroke:#181818;stroke-width:1.0;"/><text fill="#000000" font-family="Lato,sans-serif" font-size="12" lengthAdjust="spacing" textLength="64" x="361" y="30.3375">[everybody]</text></g><!--MD5=[0b26ee167f1f179fc42f4bee4e93b180]
entity n4--><g id="elem_n5"><path d="M677,10 L677,40.7842 A4,4 0 0 0 681,44.7842 L753,44.7842 A4,4 0 0 0 757,40.7842 L757,16 L747,6 L681,6 A4,4 0 0 0 677,10 " fill="#E8E8E8" style="stroke:#181818;stroke-width:1.0;"/><path d="M747,6 L747,14 A2,2 0 0 0 749,16 L757,16 L747,6 " fill="#E8E8E8" style="stroke:#181818;stroke-width:1.0;"/><text fill="#000000" font-family="Lato,sans-serif" font-size="12" lengthAdjust="spacing" textLength="52" x="683" y="22.8375">SiP, OEM,</text><text fill="#000000" font-family="Lato,sans-serif" font-size="12" lengthAdjust="spacing" textLength="59" x="683" y="37.2296">and Owner</text></g><!--MD5=[78c6aacf3cb8d374b9f64c757ee9ccdc]
link lc1 to lc2--><g id="link_lc1_lc2"><path d="M130.29,117.5 C150.32,117.5 173.02,117.5 192.67,117.5 " fill="none" id="lc1-to-lc2" style="stroke:#000000;stroke-width:1.0;"/><polygon fill="#000000" points="197.86,117.5,188.86,113.5,192.86,117.5,188.86,121.5,197.86,117.5" style="stroke:#000000;stroke-width:1.0;"/></g><!--MD5=[3e5d5a81a9dc63b0ed99eb4328d98be9]
link lc2 to lc3--><g id="link_lc2_lc3"><path d="M287.34,117.79 C313.67,117.96 346.34,118.17 369.05,118.32 " fill="none" id="lc2-to-lc3" style="stroke:#000000;stroke-width:1.0;"/><polygon fill="#000000" points="374.31,118.35,365.333,114.2986,369.3101,118.3214,365.2873,122.2985,374.31,118.35" style="stroke:#000000;stroke-width:1.0;"/></g><!--MD5=[ec8ef96423d0fed29266ca60177cb9b1]
link lc3 to lc4--><g id="link_lc3_lc4"><path d="M420.78,118.5 C440.07,118.5 468.86,118.5 494.75,118.5 " fill="none" id="lc3-to-lc4" style="stroke:#000000;stroke-width:1.0;"/><polygon fill="#000000" points="499.88,118.5,490.88,114.5,494.88,118.5,490.88,122.5,499.88,118.5" style="stroke:#000000;stroke-width:1.0;"/></g><!--MD5=[6b7aaaf665d169f761bcf162ef3a0652]
link lc4 to lc5--><g id="link_lc4_lc5"><path d="M610.17,118.5 C627.75,118.5 647.2,118.5 664.57,118.5 " fill="none" id="lc4-to-lc5" style="stroke:#000000;stroke-width:1.0;"/><polygon fill="#000000" points="669.9,118.5,660.9,114.5,664.9,118.5,660.9,122.5,669.9,118.5" style="stroke:#000000;stroke-width:1.0;"/></g><!--MD5=[389c40c0a93432b43a57b69afe6f5a43]
link n1 to n2--><!--MD5=[fe166d59fdc099b1f138f87219860a4e]
link n2 to n3--><!--MD5=[3c6776f7648f41e76d7cdf83e31fe108]
link n3 to n4--><!--MD5=[64aaa30b00e5b2b0680c62f3c95bffef]
link n4 to n5--><!--MD5=[46fcca230aaaeb0278bf0ce304bc0b56]
link lc1 to n1--></g></svg>