<svg xmlns="http://www.w3.org/2000/svg" xmlns:xlink="http://www.w3.org/1999/xlink" contentStyleType="text/css" data-diagram-type="DESCRIPTION" height="171px" preserveAspectRatio="none" style="width:785px;height:171px;background:#FFFFFF55;" version="1.1" viewBox="0 0 785 171" width="785px" zoomAndPan="magnify"><defs/><g><rect fill="#FFFFFF" fill-opacity="0.33333" height="171" style="stroke:none;stroke-width:1;" width="785" x="0" y="0"/><!--cluster r1--><g class="cluster" data-entity="r1" data-source-line="14" data-uid="ent0007" id="cluster_r1"><rect fill="#0091BD" fill-opacity="0.12549" height="112" width="296.64" x="7" y="53.4"/><line x1="7" x2="303.64" y1="70.6" y2="70.6"/><text fill="#000000" font-family="Lato,sans-serif" font-size="11" font-weight="bold" lengthAdjust="spacing" textLength="72.4185" x="119.1108" y="66.257">Manufacturing</text></g><!--cluster r3--><g class="cluster" data-entity="r3" data-source-line="18" data-uid="ent0010" id="cluster_r3"><rect fill="#0091BD" fill-opacity="0.12549" height="82" width="266.85" x="359.49" y="68.4"/><line x1="359.49" x2="626.34" y1="85.6" y2="85.6"/><text fill="#000000" font-family="Lato,sans-serif" font-size="11" font-weight="bold" lengthAdjust="spacing" textLength="58.421" x="463.7045" y="81.257">Operational</text></g><!--cluster r5--><g class="cluster" data-entity="r5" data-source-line="22" data-uid="ent0013" id="cluster_r5"><rect fill="#0091BD" fill-opacity="0.12549" height="96" width="124.46" x="654.34" y="61.4"/><line x1="654.34" x2="778.8" y1="78.6" y2="78.6"/><text fill="#000000" font-family="Lato,sans-serif" font-size="11" font-weight="bold" lengthAdjust="spacing" textLength="49.7255" x="691.7072" y="74.257">End of life</text></g><!--entity lc1--><g class="entity" data-entity="lc1" data-source-line="15" data-uid="ent0008" id="entity_lc1"><rect fill="#0091BD" height="63.2" rx="4" ry="4" width="105.836" x="23" y="85.8"/><text fill="#FFFFFF" font-family="Lato,sans-serif" font-size="12" lengthAdjust="spacing" textLength="38.4" x="33" y="107.644">System</text><text fill="#FFFFFF" font-family="Lato,sans-serif" font-size="12" lengthAdjust="spacing" textLength="76.296" x="33" y="122.044">manufacturing</text><text fill="#FFFFFF" font-family="Lato,sans-serif" font-size="12" lengthAdjust="spacing" textLength="85.836" x="33" y="136.444">and initialization</text></g><!--entity lc2--><g class="entity" data-entity="lc2" data-source-line="16" data-uid="ent0009" id="entity_lc2"><rect fill="#0091BD" height="63.2" rx="4" ry="4" width="90.224" x="197.42" y="85.8"/><text fill="#FFFFFF" font-family="Lato,sans-serif" font-size="12" lengthAdjust="spacing" textLength="63.108" x="207.42" y="107.644">Provision of</text><text fill="#FFFFFF" font-family="Lato,sans-serif" font-size="12" lengthAdjust="spacing" textLength="70.224" x="207.42" y="122.044">Root of Trust</text><text fill="#FFFFFF" font-family="Lato,sans-serif" font-size="12" lengthAdjust="spacing" textLength="37.464" x="207.42" y="136.444">secrets</text></g><!--entity lc3--><g class="entity" data-entity="lc3" data-source-line="19" data-uid="ent0011" id="entity_lc3"><rect fill="#0091BD" height="34.4" rx="4" ry="4" width="45.668" x="375.49" y="100.2"/><text fill="#FFFFFF" font-family="Lato,sans-serif" font-size="12" lengthAdjust="spacing" textLength="25.668" x="385.49" y="122.044">Boot</text></g><!--entity lc4--><g class="entity" data-entity="lc4" data-source-line="20" data-uid="ent0012" id="entity_lc4"><rect fill="#0091BD" height="34.4" rx="4" ry="4" width="109.922" x="500.42" y="100.2"/><text fill="#FFFFFF" font-family="Lato,sans-serif" font-size="12" lengthAdjust="spacing" textLength="89.922" x="510.42" y="122.044">Secure operation</text></g><!--entity lc5--><g class="entity" data-entity="lc5" data-source-line="23" data-uid="ent0014" id="entity_lc5"><rect fill="#0091BD" height="48.8" rx="4" ry="4" width="92.456" x="670.34" y="93"/><text fill="#FFFFFF" font-family="Lato,sans-serif" font-size="12" lengthAdjust="spacing" textLength="50.088" x="680.34" y="114.844">Return to</text><text fill="#FFFFFF" font-family="Lato,sans-serif" font-size="12" lengthAdjust="spacing" textLength="72.456" x="680.34" y="129.244">Manufacturer</text></g><g class="entity" data-entity="n1" data-source-line="8" data-uid="ent0002" id="entity_n1"><path d="M30.52,17.2 L30.52,33.6 A4,4 0 0 0 34.52,37.6 L117.318,37.6 A4,4 0 0 0 121.318,33.6 L121.318,23.2 L111.318,13.2 L34.52,13.2 A4,4 0 0 0 30.52,17.2" fill="#E8E8E8" style="stroke:#7D868C;stroke-width:1;"/><path d="M111.318,13.2 L111.318,21.2 A2,2 0 0 0 113.318,23.2 L121.318,23.2 L111.318,13.2" fill="#E8E8E8" style="stroke:#7D868C;stroke-width:1;"/><text fill="#000000" font-family="Lato,sans-serif" font-size="12" lengthAdjust="spacing" textLength="69.798" x="36.52" y="30.044">SiP and OEM</text></g><g class="entity" data-entity="n2" data-source-line="9" data-uid="ent0003" id="entity_n2"><path d="M188.84,17.2 L188.84,33.6 A4,4 0 0 0 192.84,37.6 L292.234,37.6 A4,4 0 0 0 296.234,33.6 L296.234,23.2 L286.234,13.2 L192.84,13.2 A4,4 0 0 0 188.84,17.2" fill="#E8E8E8" style="stroke:#7D868C;stroke-width:1;"/><path d="M286.234,13.2 L286.234,21.2 A2,2 0 0 0 288.234,23.2 L296.234,23.2 L286.234,13.2" fill="#E8E8E8" style="stroke:#7D868C;stroke-width:1;"/><text fill="#000000" font-family="Lato,sans-serif" font-size="12" lengthAdjust="spacing" textLength="86.394" x="194.84" y="30.044">SiP and/or OEM</text></g><g class="entity" data-entity="n3" data-source-line="10" data-uid="ent0004" id="entity_n3"><path d="M356.23,17.2 L356.23,33.6 A4,4 0 0 0 360.23,37.6 L436.422,37.6 A4,4 0 0 0 440.422,33.6 L440.422,23.2 L430.422,13.2 L360.23,13.2 A4,4 0 0 0 356.23,17.2" fill="#E8E8E8" style="stroke:#7D868C;stroke-width:1;"/><path d="M430.422,13.2 L430.422,21.2 A2,2 0 0 0 432.422,23.2 L440.422,23.2 L430.422,13.2" fill="#E8E8E8" style="stroke:#7D868C;stroke-width:1;"/><text fill="#000000" font-family="Lato,sans-serif" font-size="12" lengthAdjust="spacing" textLength="63.192" x="362.23" y="30.044">[everybody]</text></g><!--entity n4--><g class="entity" data-entity="n5" data-source-line="12" data-uid="ent0006" id="entity_n5"><path d="M676.63,10 L676.63,40.8 A4,4 0 0 0 680.63,44.8 L752.514,44.8 A4,4 0 0 0 756.514,40.8 L756.514,16 L746.514,6 L680.63,6 A4,4 0 0 0 676.63,10" fill="#E8E8E8" style="stroke:#7D868C;stroke-width:1;"/><path d="M746.514,6 L746.514,14 A2,2 0 0 0 748.514,16 L756.514,16 L746.514,6" fill="#E8E8E8" style="stroke:#7D868C;stroke-width:1;"/><text fill="#000000" font-family="Lato,sans-serif" font-size="12" lengthAdjust="spacing" textLength="52.794" x="682.63" y="22.844">SiP, OEM,</text><text fill="#000000" font-family="Lato,sans-serif" font-size="12" lengthAdjust="spacing" textLength="58.884" x="682.63" y="37.244">and Owner</text></g><!--link lc1 to lc2--><g class="link" data-entity-1="lc1" data-entity-2="lc2" data-source-line="26" data-uid="lnk15" id="link_lc1_lc2"><path d="M129,117.4 C150.86,117.4 170.01,117.4 190.99,117.4" fill="none" id="lc1-to-lc2" style="stroke:#000000;stroke-width:1;"/><polygon fill="#000000" points="196.99,117.4,187.99,113.4,191.99,117.4,187.99,121.4,196.99,117.4" style="stroke:#000000;stroke-width:1;"/></g><!--link lc2 to lc3--><g class="link" data-entity-1="lc2" data-entity-2="lc3" data-source-line="27" data-uid="lnk16" id="link_lc2_lc3"><path d="M288.02,117.4 C316.58,117.4 346.45,117.4 369.14,117.4" fill="none" id="lc2-to-lc3" style="stroke:#000000;stroke-width:1;"/><polygon fill="#000000" points="375.14,117.4,366.14,113.4,370.14,117.4,366.14,121.4,375.14,117.4" style="stroke:#000000;stroke-width:1;"/></g><!--link lc3 to lc4--><g class="link" data-entity-1="lc3" data-entity-2="lc4" data-source-line="28" data-uid="lnk17" id="link_lc3_lc4"><path d="M421.54,117.4 C441.97,117.4 467.1,117.4 494.09,117.4" fill="none" id="lc3-to-lc4" style="stroke:#000000;stroke-width:1;"/><polygon fill="#000000" points="500.09,117.4,491.09,113.4,495.09,117.4,491.09,121.4,500.09,117.4" style="stroke:#000000;stroke-width:1;"/></g><!--link lc4 to lc5--><g class="link" data-entity-1="lc4" data-entity-2="lc5" data-source-line="29" data-uid="lnk18" id="link_lc4_lc5"><path d="M610.72,117.4 C630,117.4 645.48,117.4 663.95,117.4" fill="none" id="lc4-to-lc5" style="stroke:#000000;stroke-width:1;"/><polygon fill="#000000" points="669.95,117.4,660.95,113.4,664.95,117.4,660.95,121.4,669.95,117.4" style="stroke:#000000;stroke-width:1;"/></g><!--link n1 to n2--><!--link n2 to n3--><!--link n3 to n4--><!--link n4 to n5--><!--link lc1 to n1--></g></svg>