<?xml version="1.0" encoding="UTF-8" standalone="no"?><svg xmlns="http://www.w3.org/2000/svg" xmlns:xlink="http://www.w3.org/1999/xlink" contentStyleType="text/css" height="208px" preserveAspectRatio="none" style="width:836px;height:208px;background:#FFFFFF;" version="1.1" viewBox="0 0 836 208" width="836px" zoomAndPan="magnify"><defs/><g><rect fill="#E0E0E0" height="189.062" style="stroke:#7D868C;stroke-width:0.5;" width="545.5" x="284.5" y="6"/><text fill="#000000" font-family="Lato,sans-serif" font-size="12" font-weight="bold" lengthAdjust="spacing" textLength="121" x="496.75" y="17.8375">Platform Root of Trust</text><line style="stroke:#808080;stroke-width:0.5;stroke-dasharray:5.0,5.0;" x1="42" x2="42" y1="68.1763" y2="201.062"/><line style="stroke:#808080;stroke-width:0.5;stroke-dasharray:5.0,5.0;" x1="332.5" x2="332.5" y1="68.1763" y2="201.062"/><line style="stroke:#808080;stroke-width:0.5;stroke-dasharray:5.0,5.0;" x1="776" x2="776" y1="68.1763" y2="201.062"/><rect fill="#FFFFFF" height="28.3921" rx="2.5" ry="2.5" style="stroke:#000000;stroke-width:1.0;" width="75" x="5" y="38.7842"/><text fill="#000000" font-family="Lato,sans-serif" font-size="12" lengthAdjust="spacing" textLength="61" x="12" y="57.6217">Application</text><rect fill="#FFFFFF" height="42.7842" rx="2.5" ry="2.5" style="stroke:#000000;stroke-width:1.0;" width="88" x="288.5" y="24.3921"/><text fill="#000000" font-family="Lato,sans-serif" font-size="12" lengthAdjust="spacing" textLength="74" x="295.5" y="43.2296">Cryptography</text><text fill="#000000" font-family="Lato,sans-serif" font-size="12" lengthAdjust="spacing" textLength="37" x="314" y="57.6217">service</text><rect fill="#FFFFFF" height="42.7842" rx="2.5" ry="2.5" style="stroke:#000000;stroke-width:1.0;" width="99" x="727" y="24.3921"/><text fill="#000000" font-family="Lato,sans-serif" font-size="12" lengthAdjust="spacing" textLength="85" x="734" y="43.2296">Internal Trusted</text><text fill="#000000" font-family="Lato,sans-serif" font-size="12" lengthAdjust="spacing" textLength="79" x="737" y="57.6217">Storage service</text><polygon fill="#000000" points="320.5,94.2271,330.5,98.2271,320.5,102.2271" style="stroke:#000000;stroke-width:1.0;"/><line style="stroke:#000000;stroke-width:1.0;" x1="42.5" x2="326.5" y1="98.2271" y2="98.2271"/><text fill="#000000" font-family="Consolas,Menlo,monospace" font-size="12" lengthAdjust="spacing" textLength="266" x="49.5" y="94.1646">psa_import_key(key_slot, key_material)</text><polygon fill="#000000" points="764.5,122.2778,774.5,126.2778,764.5,130.2778" style="stroke:#000000;stroke-width:1.0;"/><line style="stroke:#000000;stroke-width:1.0;" x1="332.5" x2="770.5" y1="126.2778" y2="126.2778"/><text fill="#000000" font-family="Consolas,Menlo,monospace" font-size="12" lengthAdjust="spacing" textLength="420" x="339.5" y="122.2153">psa_its_set(partition_id&lt;&lt;32 | key_identifier, key_material)</text><polygon fill="#000000" points="343.5,150.6699,333.5,154.6699,343.5,158.6699" style="stroke:#000000;stroke-width:1.0;"/><line style="stroke:#000000;stroke-width:1.0;stroke-dasharray:2.0,2.0;" x1="337.5" x2="775.5" y1="154.6699" y2="154.6699"/><text fill="#000000" font-family="Lato,sans-serif" font-size="12" lengthAdjust="spacing" textLength="43" x="349.5" y="150.1153">pass/fail</text><polygon fill="#000000" points="53.5,179.062,43.5,183.062,53.5,187.062" style="stroke:#000000;stroke-width:1.0;"/><line style="stroke:#000000;stroke-width:1.0;stroke-dasharray:2.0,2.0;" x1="47.5" x2="331.5" y1="183.062" y2="183.062"/><text fill="#000000" font-family="Lato,sans-serif" font-size="12" lengthAdjust="spacing" textLength="43" x="59.5" y="178.5074">pass/fail</text></g></svg>