<svg xmlns="http://www.w3.org/2000/svg" xmlns:xlink="http://www.w3.org/1999/xlink" contentStyleType="text/css" data-diagram-type="DESCRIPTION" height="457px" preserveAspectRatio="none" style="width:535px;height:457px;background:#FFFFFF55;" version="1.1" viewBox="0 0 535 457" width="535px" zoomAndPan="magnify"><defs/><g><rect fill="#FFFFFF" fill-opacity="0.33333" height="457" style="stroke:none;stroke-width:1;" width="535" x="0" y="0"/><g class="cluster" data-entity="##4" data-source-line="14" data-uid="ent0005" id="cluster_##4"><rect fill="#FFFFFF" fill-opacity="0.56471" height="444.2" style="stroke:#8B0000;stroke-width:1;stroke-dasharray:7.0,7.0;" width="403" x="126.78" y="7"/><text fill="#000000" font-family="Lato,sans-serif" font-size="11" font-style="italic" lengthAdjust="spacing" textLength="87.9835" x="284.2883" y="19.857">&#171;System boundary&#187;</text></g><g class="cluster" data-entity="##6" data-source-line="14" data-uid="ent0007" id="cluster_##6"><rect fill="#FFFFFF" fill-opacity="0.56471" height="82.4" style="stroke:#8B0000;stroke-width:1;stroke-dasharray:7.0,7.0;" width="123" x="194.78" y="47"/><text fill="#000000" font-family="Lato,sans-serif" font-size="11" font-style="italic" lengthAdjust="spacing" textLength="107.063" x="202.7485" y="59.857">&#171;Application boundary&#187;</text></g><g class="cluster" data-entity="##10" data-source-line="14" data-uid="ent0011" id="cluster_##10"><rect fill="#FFFFFF" fill-opacity="0.56471" height="82.4" style="stroke:#8B0000;stroke-width:1;stroke-dasharray:7.0,7.0;" width="144" x="191.78" y="344.8"/><text fill="#000000" font-family="Lato,sans-serif" font-size="11" font-style="italic" lengthAdjust="spacing" textLength="107.063" x="210.2485" y="357.657">&#171;Application boundary&#187;</text></g><g class="cluster" data-entity="##13" data-source-line="14" data-uid="ent0014" id="cluster_##13"><rect fill="#FFFFFF" fill-opacity="0.56471" height="91.4" style="stroke:#8B0000;stroke-width:1;stroke-dasharray:7.0,7.0;" width="296" x="209.78" y="191.4"/><text fill="#000000" font-family="Lato,sans-serif" font-size="11" font-style="italic" lengthAdjust="spacing" textLength="130.0475" x="292.7562" y="204.257">&#171;Cryptoprocessor boundary&#187;</text></g><!--entity nvm--><g class="entity" data-entity="nvm" data-source-line="13" data-uid="ent0009" id="entity_nvm"><path d="M142.57,233.4 C142.57,223.4 166.784,223.4 166.784,223.4 C166.784,223.4 190.998,223.4 190.998,233.4 L190.998,256.8 C190.998,266.8 166.784,266.8 166.784,266.8 C166.784,266.8 142.57,266.8 142.57,256.8 L142.57,233.4" fill="#FFFFFF" style="stroke:#000000;stroke-width:1;"/><path d="M142.57,233.4 C142.57,243.4 166.784,243.4 166.784,243.4 C166.784,243.4 190.998,243.4 190.998,233.4" fill="none" style="stroke:#000000;stroke-width:1;"/><text fill="#000000" font-family="Lato,sans-serif" font-size="12" lengthAdjust="spacing" textLength="28.428" x="152.57" y="259.244">NVM</text></g><!--entity app--><g class="entity" data-entity="app" data-source-line="11" data-uid="ent0008" id="entity_app"><rect fill="#FFFFFF" height="34.4" rx="35" ry="35" style="stroke:#000000;stroke-width:1;" width="79.664" x="215.95" y="79"/><text fill="#000000" font-family="Lato,sans-serif" font-size="12" lengthAdjust="spacing" textLength="59.664" x="225.95" y="100.844">Application</text></g><!--entity app2--><g class="entity" data-entity="app2" data-source-line="15" data-uid="ent0012" id="entity_app2"><rect fill="#FFFFFF" height="34.4" rx="35" ry="35" style="stroke:#000000;stroke-width:1;" width="111.884" x="207.84" y="376.8"/><text fill="#000000" font-family="Lato,sans-serif" font-size="12" lengthAdjust="spacing" textLength="91.884" x="217.84" y="398.644">Other application</text></g><!--entity crypto--><g class="entity" data-entity="crypto" data-source-line="18" data-uid="ent0015" id="entity_crypto"><rect fill="#FFFFFF" height="34.4" rx="35" ry="35" style="stroke:#000000;stroke-width:1;" width="107.93" x="225.82" y="227.9"/><text fill="#000000" font-family="Lato,sans-serif" font-size="12" lengthAdjust="spacing" textLength="87.93" x="235.82" y="249.744">Cryptoprocessor</text></g><!--entity keys--><g class="entity" data-entity="keys" data-source-line="19" data-uid="ent0016" id="entity_keys"><path d="M417.85,233.4 C417.85,223.4 453.782,223.4 453.782,223.4 C453.782,223.4 489.714,223.4 489.714,233.4 L489.714,256.8 C489.714,266.8 453.782,266.8 453.782,266.8 C453.782,266.8 417.85,266.8 417.85,256.8 L417.85,233.4" fill="#FFFFFF" style="stroke:#000000;stroke-width:1;"/><path d="M417.85,233.4 C417.85,243.4 453.782,243.4 453.782,243.4 C453.782,243.4 489.714,243.4 489.714,233.4" fill="none" style="stroke:#000000;stroke-width:1;"/><text fill="#000000" font-family="Lato,sans-serif" font-size="12" lengthAdjust="spacing" textLength="51.864" x="427.85" y="259.244">Key Store</text></g><!--entity ext--><g class="entity" data-entity="ext" data-source-line="7" data-uid="ent0002" id="entity_ext"><rect fill="#FFFFFF" height="34.4" rx="4" ry="4" style="stroke:#000000;stroke-width:1;" width="103.562" x="7" y="79"/><text fill="#000000" font-family="Lato,sans-serif" font-size="12" lengthAdjust="spacing" textLength="83.562" x="17" y="100.844">External system</text></g><!--entity ext2--><g class="entity" data-entity="ext2" data-source-line="8" data-uid="ent0003" id="entity_ext2"><rect fill="#FFFFFF" height="34.4" rx="4" ry="4" style="stroke:#000000;stroke-width:1;" width="103.562" x="7" y="376.8"/><text fill="#000000" font-family="Lato,sans-serif" font-size="12" lengthAdjust="spacing" textLength="83.562" x="17" y="398.644">External system</text></g><!--link ext to app--><g class="link" data-entity-1="ext" data-entity-2="app" data-source-line="23" data-uid="lnk17" id="link_ext_app"><path d="M117.06,96.2 C149.77,96.2 179.28,96.2 209.45,96.2" fill="none" id="ext-app" style="stroke:#000000;stroke-width:1;"/><polygon fill="#000000" points="111.06,96.2,120.06,100.2,116.06,96.2,120.06,92.2,111.06,96.2" style="stroke:#000000;stroke-width:1;"/><polygon fill="#000000" points="215.45,96.2,206.45,92.2,210.45,96.2,206.45,100.2,215.45,96.2" style="stroke:#000000;stroke-width:1;"/><text fill="#000000" font-family="Lato,sans-serif" font-size="12" lengthAdjust="spacing" textLength="53.652" x="136.76" y="90.044">ciphertext</text></g><!--link ext2 to app2--><g class="link" data-entity-1="ext2" data-entity-2="app2" data-source-line="24" data-uid="lnk18" id="link_ext2_app2"><path d="M117.04,394 C146.58,394 171.51,394 201.66,394" fill="none" id="ext2-app2" style="stroke:#000000;stroke-width:1;"/><polygon fill="#000000" points="111.04,394,120.04,398,116.04,394,120.04,390,111.04,394" style="stroke:#000000;stroke-width:1;"/><polygon fill="#000000" points="207.66,394,198.66,390,202.66,394,198.66,398,207.66,394" style="stroke:#000000;stroke-width:1;"/><text fill="#000000" font-family="Lato,sans-serif" font-size="12" lengthAdjust="spacing" textLength="53.652" x="132.7" y="387.844">ciphertext</text></g><!--link app to nvm--><g class="link" data-entity-1="app" data-entity-2="nvm" data-source-line="25" data-uid="lnk19" id="link_app_nvm"><path d="M227.0698,117.414 C216.3398,125.834 208.99,133.17 200.78,145.4 C184.61,169.47 176.666,196.1516 172.016,217.1716" fill="none" id="app-nvm" style="stroke:#000000;stroke-width:1;"/><polygon fill="#000000" points="231.79,113.71,222.2404,116.1192,227.8565,116.7967,227.179,122.4128,231.79,113.71" style="stroke:#000000;stroke-width:1;"/><polygon fill="#000000" points="170.72,223.03,176.5695,215.1064,171.8,218.148,168.7584,213.3785,170.72,223.03" style="stroke:#000000;stroke-width:1;"/><text fill="#000000" font-family="Lato,sans-serif" font-size="12" lengthAdjust="spacing" textLength="53.652" x="201.78" y="165.244">ciphertext</text></g><!--link nvm to app2--><g class="link" data-entity-1="nvm" data-entity-2="app2" data-source-line="26" data-uid="lnk20" id="link_nvm_app2"><path d="M176.06,272.7542 C182.5,290.0842 190.82,309.28 203.78,328.8 C215.6,346.59 228.087,359.9901 240.917,372.2201" fill="none" id="nvm-app2" style="stroke:#000000;stroke-width:1;"/><polygon fill="#000000" points="173.97,267.13,173.3555,276.9597,175.7117,271.8168,180.8545,274.173,173.97,267.13" style="stroke:#000000;stroke-width:1;"/><polygon fill="#000000" points="245.26,376.36,241.5055,367.2549,241.6409,372.9101,235.9856,373.0455,245.26,376.36" style="stroke:#000000;stroke-width:1;"/><text fill="#000000" font-family="Lato,sans-serif" font-size="12" lengthAdjust="spacing" textLength="53.652" x="204.78" y="318.644">ciphertext</text></g><!--link nvm to crypto--><!--link ext to ext2--><!--link app to crypto--><g class="link" data-entity-1="app" data-entity-2="crypto" data-source-line="30" data-uid="lnk23" id="link_app_crypto"><path d="M258.49,113.77 C263.12,142.13 271.553,193.7284 276.153,221.8984" fill="none" id="app-to-crypto" style="stroke:#000000;stroke-width:1;"/><polygon fill="#000000" points="277.12,227.82,279.6173,218.293,276.3142,222.8854,271.7218,219.5823,277.12,227.82" style="stroke:#000000;stroke-width:1;"/><text fill="#000000" font-family="Lato,sans-serif" font-size="12" lengthAdjust="spacing" textLength="58.164" x="269.5" y="158.244">Crypto API</text><text fill="#000000" font-family="Lato,sans-serif" font-size="12" lengthAdjust="spacing" textLength="17.358" x="289.903" y="172.644">call</text></g><!--reverse link app to crypto--><g class="link" data-entity-1="app" data-entity-2="crypto" data-source-line="31" data-uid="lnk24" id="link_app_crypto"><path d="M301.1852,114.8245 C315.8252,122.4245 325.49,130.52 333.78,145.4 C349.86,174.23 321.17,208.01 299.82,227.64" fill="none" id="app-backto-crypto" style="stroke:#000000;stroke-width:1;"/><polygon fill="#000000" points="295.86,112.06,302.0048,119.7568,300.2977,114.3637,305.6908,112.6565,295.86,112.06" style="stroke:#000000;stroke-width:1;"/><text fill="#000000" font-family="Lato,sans-serif" font-size="12" lengthAdjust="spacing" textLength="47.658" x="339.47" y="165.244">response</text></g><!--link crypto to keys--><g class="link" data-entity-1="crypto" data-entity-2="keys" data-source-line="32" data-uid="lnk25" id="link_crypto_keys"><path d="M333.88,245.1 C361.12,245.1 387.4,245.1 411.6,245.1" fill="none" id="crypto-to-keys" style="stroke:#000000;stroke-width:1;"/><polygon fill="#000000" points="417.6,245.1,408.6,241.1,412.6,245.1,408.6,249.1,417.6,245.1" style="stroke:#000000;stroke-width:1;"/><text fill="#000000" font-family="Lato,sans-serif" font-size="12" lengthAdjust="spacing" textLength="48.696" x="351.8" y="238.944">store key</text></g><!--reverse link crypto to keys--><g class="link" data-entity-1="crypto" data-entity-2="keys" data-source-line="33" data-uid="lnk26" id="link_crypto_keys"><path d="M339.9027,262.4106 C360.2327,266.4906 377.65,267.65 398.8,264.1 C404.97,263.06 411.38,261.41 417.55,259.51" fill="none" id="crypto-backto-keys" style="stroke:#000000;stroke-width:1;"/><polygon fill="#000000" points="334.02,261.23,342.057,266.9227,338.9223,262.2138,343.6311,259.0791,334.02,261.23" style="stroke:#000000;stroke-width:1;"/><text fill="#000000" font-family="Lato,sans-serif" font-size="12" lengthAdjust="spacing" textLength="44.01" x="353.8" y="260.944">load key</text></g><!--reverse link crypto to app2--><g class="link" data-entity-1="crypto" data-entity-2="app2" data-source-line="34" data-uid="lnk27" id="link_crypto_app2"><path d="M274.8677,268.5021 C272.6977,278.8421 271.32,286.6 269.78,298.8 C266.35,325.95 264.84,357.77 264.21,376.6" fill="none" id="crypto-backto-app2" style="stroke:#000000;stroke-width:1;"/><polygon fill="#000000" points="276.1,262.63,270.3368,270.6166,275.073,267.5234,278.1662,272.2597,276.1,262.63" style="stroke:#000000;stroke-width:1;"/><text fill="#000000" font-family="Lato,sans-serif" font-size="12" lengthAdjust="spacing" textLength="58.164" x="270.78" y="311.644">Crypto API</text><text fill="#000000" font-family="Lato,sans-serif" font-size="12" lengthAdjust="spacing" textLength="17.358" x="291.183" y="326.044">call</text></g><!--link crypto to app2--><g class="link" data-entity-1="crypto" data-entity-2="app2" data-source-line="35" data-uid="lnk28" id="link_crypto_app2"><path d="M304.14,262.65 C315.43,271.83 327.68,284.31 333.78,298.8 C338.96,311.09 339.15,316.59 333.78,328.8 C325.02,348.73 311.5567,361.6746 295.8467,372.9346" fill="none" id="crypto-to-app2" style="stroke:#000000;stroke-width:1;"/><polygon fill="#000000" points="290.97,376.43,300.6153,374.4381,295.0339,373.5172,295.9549,367.9358,290.97,376.43" style="stroke:#000000;stroke-width:1;"/><text fill="#000000" font-family="Lato,sans-serif" font-size="12" lengthAdjust="spacing" textLength="47.658" x="338.74" y="318.644">response</text></g></g></svg>