<?xml version="1.0" encoding="UTF-8" standalone="no"?><svg xmlns="http://www.w3.org/2000/svg" xmlns:xlink="http://www.w3.org/1999/xlink" contentStyleType="text/css" height="846px" preserveAspectRatio="none" style="width:747px;height:846px;background:#FFFFFF55;" version="1.1" viewBox="0 0 747 846" width="747px" zoomAndPan="magnify"><defs/><g><line style="stroke:#808080;stroke-width:0.5;stroke-dasharray:5.0,5.0;" x1="169" x2="169" y1="34.3921" y2="839.248"/><line style="stroke:#808080;stroke-width:0.5;stroke-dasharray:5.0,5.0;" x1="458" x2="458" y1="34.3921" y2="839.248"/><rect fill="#FFFFFF" height="28.3921" rx="4" ry="4" style="stroke:#000000;stroke-width:1.0;" width="108" x="115" y="5"/><text fill="#000000" font-family="Lato,sans-serif" font-size="12" lengthAdjust="spacing" textLength="36" x="122" y="23.8375">Prover</text><text fill="#000000" font-family="Lato,sans-serif" font-size="12" font-style="italic" lengthAdjust="spacing" textLength="56" x="160" y="23.8375">(Client role)</text><rect fill="#FFFFFF" height="28.3921" rx="4" ry="4" style="stroke:#000000;stroke-width:1.0;" width="115" x="401" y="5"/><text fill="#000000" font-family="Lato,sans-serif" font-size="12" lengthAdjust="spacing" textLength="40" x="408" y="23.8375">Verifier</text><text fill="#000000" font-family="Lato,sans-serif" font-size="12" font-style="italic" lengthAdjust="spacing" textLength="59" x="450" y="23.8375">(Server role)</text><path d="M115,53.3921 L115,69.3921 A4,4 0 0 0 119,73.3921 L507,73.3921 A4,4 0 0 0 511,69.3921 L511,59.3921 L501,49.3921 L119,49.3921 A4,4 0 0 0 115,53.3921 " fill="#E8E8E8" style="stroke:#181818;stroke-width:1.0;"/><path d="M501,49.3921 L501,57.3921 A2,2 0 0 0 503,59.3921 L511,59.3921 L501,49.3921 " fill="#E8E8E8" style="stroke:#181818;stroke-width:1.0;"/><text fill="#000000" font-family="Lato,sans-serif" font-size="12" lengthAdjust="spacing" textLength="173" x="141" y="66.2296">Shared information : cipher suite,</text><text fill="#000000" font-family="Lato,sans-serif" font-size="12" font-style="italic" lengthAdjust="spacing" textLength="42" x="316" y="66.2296">ProverId</text><text fill="#000000" font-family="Lato,sans-serif" font-size="12" lengthAdjust="spacing" textLength="3" x="358" y="66.2296">,</text><text fill="#000000" font-family="Lato,sans-serif" font-size="12" font-style="italic" lengthAdjust="spacing" textLength="47" x="363" y="66.2296">VerifierId</text><text fill="#000000" font-family="Lato,sans-serif" font-size="12" lengthAdjust="spacing" textLength="25" x="410" y="66.2296">, and</text><text fill="#000000" font-family="Lato,sans-serif" font-size="12" font-style="italic" lengthAdjust="spacing" textLength="39" x="437" y="66.2296">Context</text><path d="M317,87.7842 L317,103.7842 A4,4 0 0 0 321,107.7842 L596,107.7842 A4,4 0 0 0 600,103.7842 L600,93.7842 L590,83.7842 L321,83.7842 A4,4 0 0 0 317,87.7842 " fill="#E8E8E8" style="stroke:#181818;stroke-width:1.0;"/><path d="M590,83.7842 L590,91.7842 A2,2 0 0 0 592,93.7842 L600,93.7842 L590,83.7842 " fill="#E8E8E8" style="stroke:#181818;stroke-width:1.0;"/><text fill="#000000" font-family="Lato,sans-serif" font-size="12" lengthAdjust="spacing" textLength="108" x="323" y="100.6217">Registration record (</text><text fill="#000000" font-family="Lato,sans-serif" font-size="12" font-style="italic" lengthAdjust="spacing" textLength="16" x="431" y="100.6217">w0</text><text fill="#000000" font-family="Lato,sans-serif" font-size="12" lengthAdjust="spacing" textLength="3" x="447" y="100.6217">,</text><text fill="#000000" font-family="Lato,sans-serif" font-size="12" font-style="italic" lengthAdjust="spacing" textLength="6" x="452" y="100.6217">L</text><text fill="#000000" font-family="Lato,sans-serif" font-size="12" lengthAdjust="spacing" textLength="127" x="458" y="100.6217">) derived from password</text><path d="M31,87.7842 L31,103.7842 A4,4 0 0 0 35,107.7842 L303,107.7842 A4,4 0 0 0 307,103.7842 L307,93.7842 L297,83.7842 L35,83.7842 A4,4 0 0 0 31,87.7842 " fill="#E8E8E8" style="stroke:#181818;stroke-width:1.0;"/><path d="M297,83.7842 L297,91.7842 A2,2 0 0 0 299,93.7842 L307,93.7842 L297,83.7842 " fill="#E8E8E8" style="stroke:#181818;stroke-width:1.0;"/><text fill="#000000" font-family="Lato,sans-serif" font-size="12" lengthAdjust="spacing" textLength="91" x="37" y="100.6217">Prover 'key pair' (</text><text fill="#000000" font-family="Lato,sans-serif" font-size="12" font-style="italic" lengthAdjust="spacing" textLength="16" x="128" y="100.6217">w0</text><text fill="#000000" font-family="Lato,sans-serif" font-size="12" lengthAdjust="spacing" textLength="3" x="144" y="100.6217">,</text><text fill="#000000" font-family="Lato,sans-serif" font-size="12" font-style="italic" lengthAdjust="spacing" textLength="16" x="149" y="100.6217">w1</text><text fill="#000000" font-family="Lato,sans-serif" font-size="12" lengthAdjust="spacing" textLength="127" x="165" y="100.6217">) derived from password</text><line style="stroke:#000000;stroke-width:1.0;" x1="169" x2="211" y1="189.7715" y2="189.7715"/><line style="stroke:#000000;stroke-width:1.0;" x1="211" x2="211" y1="189.7715" y2="202.7715"/><line style="stroke:#000000;stroke-width:1.0;" x1="170" x2="211" y1="202.7715" y2="202.7715"/><polygon fill="#000000" points="180,198.7715,170,202.7715,180,206.7715" style="stroke:#000000;stroke-width:1.0;"/><text fill="#000000" font-family="Consolas,Menlo,monospace" font-size="12" lengthAdjust="spacing" textLength="112" x="176" y="129.5059">psa_pake_setup()</text><text fill="#000000" font-family="Lato,sans-serif" font-size="12" lengthAdjust="spacing" textLength="49" x="290" y="129.0138">with key (</text><text fill="#000000" font-family="Lato,sans-serif" font-size="12" font-style="italic" lengthAdjust="spacing" textLength="16" x="339" y="129.0138">w0</text><text fill="#000000" font-family="Lato,sans-serif" font-size="12" lengthAdjust="spacing" textLength="3" x="355" y="129.0138">,</text><text fill="#000000" font-family="Lato,sans-serif" font-size="12" font-style="italic" lengthAdjust="spacing" textLength="16" x="360" y="129.0138">w1</text><text fill="#000000" font-family="Lato,sans-serif" font-size="12" lengthAdjust="spacing" textLength="4" x="376" y="129.0138">)</text><text fill="#000000" font-family="Consolas,Menlo,monospace" font-size="12" lengthAdjust="spacing" textLength="273" x="176" y="143.5566">psa_pake_set_role(PSA_PAKE_ROLE_CLIENT)</text><text fill="#000000" font-family="Consolas,Menlo,monospace" font-size="12" lengthAdjust="spacing" textLength="189" x="176" y="157.6074">psa_pake_set_user(ProverId)</text><text fill="#000000" font-family="Consolas,Menlo,monospace" font-size="12" lengthAdjust="spacing" textLength="203" x="176" y="171.6582">psa_pake_set_peer(VerifierId)</text><text fill="#000000" font-family="Consolas,Menlo,monospace" font-size="12" lengthAdjust="spacing" textLength="203" x="176" y="185.709">psa_pake_set_context(Context)</text><line style="stroke:#000000;stroke-width:1.0;" x1="169" x2="211" y1="231.1636" y2="231.1636"/><line style="stroke:#000000;stroke-width:1.0;" x1="211" x2="211" y1="231.1636" y2="244.1636"/><line style="stroke:#000000;stroke-width:1.0;" x1="170" x2="211" y1="244.1636" y2="244.1636"/><polygon fill="#000000" points="180,240.1636,170,244.1636,180,248.1636" style="stroke:#000000;stroke-width:1.0;"/><text fill="#000000" font-family="Consolas,Menlo,monospace" font-size="12" lengthAdjust="spacing" textLength="119" x="176" y="227.1011">psa_pake_output()</text><text fill="#000000" font-family="Lato,sans-serif" font-size="12" lengthAdjust="spacing" textLength="16" x="297" y="226.609">for</text><text fill="#000000" font-family="Lato,sans-serif" font-size="12" font-style="italic" lengthAdjust="spacing" textLength="34" x="315" y="226.609">shareP</text><text fill="#000000" font-family="Lato,sans-serif" font-size="12" lengthAdjust="spacing" textLength="7" x="351" y="226.609">=</text><text fill="#000000" font-family="Lato,sans-serif" font-size="12" font-style="italic" lengthAdjust="spacing" textLength="7" x="360" y="226.609">X</text><path d="M34,223.2715 L34,239.2715 A4,4 0 0 0 38,243.2715 L160,243.2715 A4,4 0 0 0 164,239.2715 L164,229.2715 L154,219.2715 L38,219.2715 A4,4 0 0 0 34,223.2715 " fill="#E8E8E8" style="stroke:#181818;stroke-width:1.0;"/><path d="M154,219.2715 L154,227.2715 A2,2 0 0 0 156,229.2715 L164,229.2715 L154,219.2715 " fill="#E8E8E8" style="stroke:#181818;stroke-width:1.0;"/><text fill="#000000" font-family="Lato,sans-serif" font-size="12" lengthAdjust="spacing" textLength="100" x="40" y="236.109">Generate key share</text><text fill="#000000" font-family="Lato,sans-serif" font-size="12" font-style="italic" lengthAdjust="spacing" textLength="7" x="142" y="236.109">X</text><line style="stroke:#000000;stroke-width:1.0;" x1="456.5" x2="446.5" y1="272.5557" y2="268.5557"/><line style="stroke:#000000;stroke-width:1.0;" x1="456.5" x2="446.5" y1="272.5557" y2="276.5557"/><line style="stroke:#000000;stroke-width:1.0;" x1="169" x2="457.5" y1="272.5557" y2="272.5557"/><text fill="#000000" font-family="Lato,sans-serif" font-size="12" lengthAdjust="spacing" textLength="4" x="176" y="268.0011">(</text><text fill="#000000" font-family="Lato,sans-serif" font-size="12" font-style="italic" lengthAdjust="spacing" textLength="34" x="180" y="268.0011">shareP</text><text fill="#000000" font-family="Lato,sans-serif" font-size="12" lengthAdjust="spacing" textLength="4" x="214" y="268.0011">)</text><line style="stroke:#000000;stroke-width:1.0;" x1="458.5" x2="500.5" y1="357.1509" y2="357.1509"/><line style="stroke:#000000;stroke-width:1.0;" x1="500.5" x2="500.5" y1="357.1509" y2="370.1509"/><line style="stroke:#000000;stroke-width:1.0;" x1="459.5" x2="500.5" y1="370.1509" y2="370.1509"/><polygon fill="#000000" points="469.5,366.1509,459.5,370.1509,469.5,374.1509" style="stroke:#000000;stroke-width:1.0;"/><text fill="#000000" font-family="Consolas,Menlo,monospace" font-size="12" lengthAdjust="spacing" textLength="112" x="465.5" y="296.8853">psa_pake_setup()</text><text fill="#000000" font-family="Lato,sans-serif" font-size="12" lengthAdjust="spacing" textLength="49" x="579.5" y="296.3932">with key (</text><text fill="#000000" font-family="Lato,sans-serif" font-size="12" font-style="italic" lengthAdjust="spacing" textLength="16" x="628.5" y="296.3932">w0</text><text fill="#000000" font-family="Lato,sans-serif" font-size="12" lengthAdjust="spacing" textLength="3" x="644.5" y="296.3932">,</text><text fill="#000000" font-family="Lato,sans-serif" font-size="12" font-style="italic" lengthAdjust="spacing" textLength="6" x="649.5" y="296.3932">L</text><text fill="#000000" font-family="Lato,sans-serif" font-size="12" lengthAdjust="spacing" textLength="44" x="655.5" y="296.3932">) or key (</text><text fill="#000000" font-family="Lato,sans-serif" font-size="12" font-style="italic" lengthAdjust="spacing" textLength="16" x="699.5" y="296.3932">w0</text><text fill="#000000" font-family="Lato,sans-serif" font-size="12" lengthAdjust="spacing" textLength="3" x="715.5" y="296.3932">,</text><text fill="#000000" font-family="Lato,sans-serif" font-size="12" font-style="italic" lengthAdjust="spacing" textLength="16" x="720.5" y="296.3932">w1</text><text fill="#000000" font-family="Lato,sans-serif" font-size="12" lengthAdjust="spacing" textLength="4" x="736.5" y="296.3932">)</text><text fill="#000000" font-family="Consolas,Menlo,monospace" font-size="12" lengthAdjust="spacing" textLength="273" x="465.5" y="310.936">psa_pake_set_role(PSA_PAKE_ROLE_SERVER)</text><text fill="#000000" font-family="Consolas,Menlo,monospace" font-size="12" lengthAdjust="spacing" textLength="203" x="465.5" y="324.9868">psa_pake_set_user(VerifierId)</text><text fill="#000000" font-family="Consolas,Menlo,monospace" font-size="12" lengthAdjust="spacing" textLength="189" x="465.5" y="339.0376">psa_pake_set_peer(ProverId)</text><text fill="#000000" font-family="Consolas,Menlo,monospace" font-size="12" lengthAdjust="spacing" textLength="203" x="465.5" y="353.0884">psa_pake_set_context(Context)</text><line style="stroke:#000000;stroke-width:1.0;" x1="458.5" x2="500.5" y1="398.543" y2="398.543"/><line style="stroke:#000000;stroke-width:1.0;" x1="500.5" x2="500.5" y1="398.543" y2="411.543"/><line style="stroke:#000000;stroke-width:1.0;" x1="459.5" x2="500.5" y1="411.543" y2="411.543"/><polygon fill="#000000" points="469.5,407.543,459.5,411.543,469.5,415.543" style="stroke:#000000;stroke-width:1.0;"/><text fill="#000000" font-family="Consolas,Menlo,monospace" font-size="12" lengthAdjust="spacing" textLength="112" x="465.5" y="394.4805">psa_pake_input()</text><text fill="#000000" font-family="Lato,sans-serif" font-size="12" lengthAdjust="spacing" textLength="16" x="579.5" y="393.9884">for</text><text fill="#000000" font-family="Lato,sans-serif" font-size="12" font-style="italic" lengthAdjust="spacing" textLength="34" x="597.5" y="393.9884">shareP</text><path d="M353,390.6509 L353,406.6509 A4,4 0 0 0 357,410.6509 L449,410.6509 A4,4 0 0 0 453,406.6509 L453,396.6509 L443,386.6509 L357,386.6509 A4,4 0 0 0 353,390.6509 " fill="#E8E8E8" style="stroke:#181818;stroke-width:1.0;"/><path d="M443,386.6509 L443,394.6509 A2,2 0 0 0 445,396.6509 L453,396.6509 L443,386.6509 " fill="#E8E8E8" style="stroke:#181818;stroke-width:1.0;"/><text fill="#000000" font-family="Lato,sans-serif" font-size="12" lengthAdjust="spacing" textLength="43" x="359" y="403.4884">Validate</text><text fill="#000000" font-family="Lato,sans-serif" font-size="12" font-style="italic" lengthAdjust="spacing" textLength="34" x="404" y="403.4884">shareP</text><line style="stroke:#000000;stroke-width:1.0;" x1="458.5" x2="500.5" y1="439.9351" y2="439.9351"/><line style="stroke:#000000;stroke-width:1.0;" x1="500.5" x2="500.5" y1="439.9351" y2="452.9351"/><line style="stroke:#000000;stroke-width:1.0;" x1="459.5" x2="500.5" y1="452.9351" y2="452.9351"/><polygon fill="#000000" points="469.5,448.9351,459.5,452.9351,469.5,456.9351" style="stroke:#000000;stroke-width:1.0;"/><text fill="#000000" font-family="Consolas,Menlo,monospace" font-size="12" lengthAdjust="spacing" textLength="119" x="465.5" y="435.8726">psa_pake_output()</text><text fill="#000000" font-family="Lato,sans-serif" font-size="12" lengthAdjust="spacing" textLength="16" x="586.5" y="435.3805">for</text><text fill="#000000" font-family="Lato,sans-serif" font-size="12" font-style="italic" lengthAdjust="spacing" textLength="35" x="604.5" y="435.3805">shareV</text><text fill="#000000" font-family="Lato,sans-serif" font-size="12" lengthAdjust="spacing" textLength="7" x="641.5" y="435.3805">=</text><text fill="#000000" font-family="Lato,sans-serif" font-size="12" font-style="italic" lengthAdjust="spacing" textLength="7" x="650.5" y="435.3805">Y</text><path d="M323,432.043 L323,448.043 A4,4 0 0 0 327,452.043 L449,452.043 A4,4 0 0 0 453,448.043 L453,438.043 L443,428.043 L327,428.043 A4,4 0 0 0 323,432.043 " fill="#E8E8E8" style="stroke:#181818;stroke-width:1.0;"/><path d="M443,428.043 L443,436.043 A2,2 0 0 0 445,438.043 L453,438.043 L443,428.043 " fill="#E8E8E8" style="stroke:#181818;stroke-width:1.0;"/><text fill="#000000" font-family="Lato,sans-serif" font-size="12" lengthAdjust="spacing" textLength="100" x="329" y="444.8805">Generate key share</text><text fill="#000000" font-family="Lato,sans-serif" font-size="12" font-style="italic" lengthAdjust="spacing" textLength="7" x="431" y="444.8805">Y</text><line style="stroke:#000000;stroke-width:1.0;" x1="458.5" x2="500.5" y1="481.3271" y2="481.3271"/><line style="stroke:#000000;stroke-width:1.0;" x1="500.5" x2="500.5" y1="481.3271" y2="494.3271"/><line style="stroke:#000000;stroke-width:1.0;" x1="459.5" x2="500.5" y1="494.3271" y2="494.3271"/><polygon fill="#000000" points="469.5,490.3271,459.5,494.3271,469.5,498.3271" style="stroke:#000000;stroke-width:1.0;"/><text fill="#000000" font-family="Consolas,Menlo,monospace" font-size="12" lengthAdjust="spacing" textLength="119" x="465.5" y="477.2646">psa_pake_output()</text><text fill="#000000" font-family="Lato,sans-serif" font-size="12" lengthAdjust="spacing" textLength="16" x="586.5" y="476.7726">for</text><text fill="#000000" font-family="Lato,sans-serif" font-size="12" font-style="italic" lengthAdjust="spacing" textLength="45" x="604.5" y="476.7726">confirmV</text><path d="M215,473.4351 L215,489.4351 A4,4 0 0 0 219,493.4351 L449,493.4351 A4,4 0 0 0 453,489.4351 L453,479.4351 L443,469.4351 L219,469.4351 A4,4 0 0 0 215,473.4351 " fill="#E8E8E8" style="stroke:#181818;stroke-width:1.0;"/><path d="M443,469.4351 L443,477.4351 A2,2 0 0 0 445,479.4351 L453,479.4351 L443,469.4351 " fill="#E8E8E8" style="stroke:#181818;stroke-width:1.0;"/><text fill="#000000" font-family="Lato,sans-serif" font-size="12" lengthAdjust="spacing" textLength="49" x="221" y="486.2726">Compute</text><text fill="#000000" font-family="Lato,sans-serif" font-size="12" font-style="italic" lengthAdjust="spacing" textLength="45" x="272" y="486.2726">K_shared</text><text fill="#000000" font-family="Lato,sans-serif" font-size="12" lengthAdjust="spacing" textLength="3" x="317" y="486.2726">,</text><text fill="#000000" font-family="Lato,sans-serif" font-size="12" font-style="italic" lengthAdjust="spacing" textLength="47" x="322" y="486.2726">confirmP'</text><text fill="#000000" font-family="Lato,sans-serif" font-size="12" lengthAdjust="spacing" textLength="20" x="371" y="486.2726">and</text><text fill="#000000" font-family="Lato,sans-serif" font-size="12" font-style="italic" lengthAdjust="spacing" textLength="45" x="393" y="486.2726">confirmV</text><line style="stroke:#000000;stroke-width:1.0;" x1="170" x2="180" y1="522.7192" y2="518.7192"/><line style="stroke:#000000;stroke-width:1.0;" x1="170" x2="180" y1="522.7192" y2="526.7192"/><line style="stroke:#000000;stroke-width:1.0;" x1="169" x2="457.5" y1="522.7192" y2="522.7192"/><text fill="#000000" font-family="Lato,sans-serif" font-size="12" lengthAdjust="spacing" textLength="4" x="186" y="518.1646">(</text><text fill="#000000" font-family="Lato,sans-serif" font-size="12" font-style="italic" lengthAdjust="spacing" textLength="35" x="190" y="518.1646">shareV</text><text fill="#000000" font-family="Lato,sans-serif" font-size="12" lengthAdjust="spacing" textLength="3" x="225" y="518.1646">,</text><text fill="#000000" font-family="Lato,sans-serif" font-size="12" font-style="italic" lengthAdjust="spacing" textLength="45" x="230" y="518.1646">confirmV</text><text fill="#000000" font-family="Lato,sans-serif" font-size="12" lengthAdjust="spacing" textLength="4" x="275" y="518.1646">)</text><line style="stroke:#000000;stroke-width:1.0;" x1="169" x2="211" y1="551.1113" y2="551.1113"/><line style="stroke:#000000;stroke-width:1.0;" x1="211" x2="211" y1="551.1113" y2="564.1113"/><line style="stroke:#000000;stroke-width:1.0;" x1="170" x2="211" y1="564.1113" y2="564.1113"/><polygon fill="#000000" points="180,560.1113,170,564.1113,180,568.1113" style="stroke:#000000;stroke-width:1.0;"/><text fill="#000000" font-family="Consolas,Menlo,monospace" font-size="12" lengthAdjust="spacing" textLength="112" x="176" y="547.0488">psa_pake_input()</text><text fill="#000000" font-family="Lato,sans-serif" font-size="12" lengthAdjust="spacing" textLength="16" x="290" y="546.5567">for</text><text fill="#000000" font-family="Lato,sans-serif" font-size="12" font-style="italic" lengthAdjust="spacing" textLength="35" x="308" y="546.5567">shareV</text><path d="M63,543.2192 L63,559.2192 A4,4 0 0 0 67,563.2192 L160,563.2192 A4,4 0 0 0 164,559.2192 L164,549.2192 L154,539.2192 L67,539.2192 A4,4 0 0 0 63,543.2192 " fill="#E8E8E8" style="stroke:#181818;stroke-width:1.0;"/><path d="M154,539.2192 L154,547.2192 A2,2 0 0 0 156,549.2192 L164,549.2192 L154,539.2192 " fill="#E8E8E8" style="stroke:#181818;stroke-width:1.0;"/><text fill="#000000" font-family="Lato,sans-serif" font-size="12" lengthAdjust="spacing" textLength="43" x="69" y="556.0567">Validate</text><text fill="#000000" font-family="Lato,sans-serif" font-size="12" font-style="italic" lengthAdjust="spacing" textLength="35" x="114" y="556.0567">shareV</text><line style="stroke:#000000;stroke-width:1.0;" x1="169" x2="211" y1="603.3955" y2="603.3955"/><line style="stroke:#000000;stroke-width:1.0;" x1="211" x2="211" y1="603.3955" y2="616.3955"/><line style="stroke:#000000;stroke-width:1.0;" x1="170" x2="211" y1="616.3955" y2="616.3955"/><polygon fill="#000000" points="180,612.3955,170,616.3955,180,620.3955" style="stroke:#000000;stroke-width:1.0;"/><text fill="#000000" font-family="Consolas,Menlo,monospace" font-size="12" lengthAdjust="spacing" textLength="112" x="176" y="599.333">psa_pake_input()</text><text fill="#000000" font-family="Lato,sans-serif" font-size="12" lengthAdjust="spacing" textLength="16" x="290" y="598.8409">for</text><text fill="#000000" font-family="Lato,sans-serif" font-size="12" font-style="italic" lengthAdjust="spacing" textLength="45" x="308" y="598.8409">confirmV</text><path d="M5,581.1113 L5,626.1113 A4,4 0 0 0 9,630.1113 L160,630.1113 A4,4 0 0 0 164,626.1113 L164,587.1113 L154,577.1113 L9,577.1113 A4,4 0 0 0 5,581.1113 " fill="#E8E8E8" style="stroke:#181818;stroke-width:1.0;"/><path d="M154,577.1113 L154,585.1113 A2,2 0 0 0 156,587.1113 L164,587.1113 L154,577.1113 " fill="#E8E8E8" style="stroke:#181818;stroke-width:1.0;"/><text fill="#000000" font-family="Lato,sans-serif" font-size="12" lengthAdjust="spacing" textLength="49" x="11" y="593.9488">Compute</text><text fill="#000000" font-family="Lato,sans-serif" font-size="12" font-style="italic" lengthAdjust="spacing" textLength="45" x="62" y="593.9488">K_shared</text><text fill="#000000" font-family="Lato,sans-serif" font-size="12" lengthAdjust="spacing" textLength="3" x="107" y="593.9488">,</text><text fill="#000000" font-family="Lato,sans-serif" font-size="12" lengthAdjust="spacing" textLength="8" x="11" y="608.3409">    </text><text fill="#000000" font-family="Lato,sans-serif" font-size="12" font-style="italic" lengthAdjust="spacing" textLength="44" x="19" y="608.3409">confirmP</text><text fill="#000000" font-family="Lato,sans-serif" font-size="12" lengthAdjust="spacing" textLength="20" x="65" y="608.3409">and</text><text fill="#000000" font-family="Lato,sans-serif" font-size="12" font-style="italic" lengthAdjust="spacing" textLength="48" x="87" y="608.3409">confirmV'</text><text fill="#000000" font-family="Lato,sans-serif" font-size="12" lengthAdjust="spacing" textLength="32" x="11" y="622.733">Verify</text><text fill="#000000" font-family="Lato,sans-serif" font-size="12" font-style="italic" lengthAdjust="spacing" textLength="48" x="45" y="622.733">confirmV'</text><text fill="#000000" font-family="Lato,sans-serif" font-size="12" lengthAdjust="spacing" textLength="7" x="95" y="622.733">=</text><text fill="#000000" font-family="Lato,sans-serif" font-size="12" font-style="italic" lengthAdjust="spacing" textLength="45" x="104" y="622.733">confirmV</text><line style="stroke:#000000;stroke-width:1.0;" x1="169" x2="211" y1="655.6797" y2="655.6797"/><line style="stroke:#000000;stroke-width:1.0;" x1="211" x2="211" y1="655.6797" y2="668.6797"/><line style="stroke:#000000;stroke-width:1.0;" x1="170" x2="211" y1="668.6797" y2="668.6797"/><polygon fill="#000000" points="180,664.6797,170,668.6797,180,672.6797" style="stroke:#000000;stroke-width:1.0;"/><text fill="#000000" font-family="Consolas,Menlo,monospace" font-size="12" lengthAdjust="spacing" textLength="119" x="176" y="651.6172">psa_pake_output()</text><text fill="#000000" font-family="Lato,sans-serif" font-size="12" lengthAdjust="spacing" textLength="16" x="297" y="651.1251">for</text><text fill="#000000" font-family="Lato,sans-serif" font-size="12" font-style="italic" lengthAdjust="spacing" textLength="44" x="315" y="651.1251">confirmP</text><line style="stroke:#000000;stroke-width:1.0;" x1="456.5" x2="446.5" y1="697.0718" y2="693.0718"/><line style="stroke:#000000;stroke-width:1.0;" x1="456.5" x2="446.5" y1="697.0718" y2="701.0718"/><line style="stroke:#000000;stroke-width:1.0;" x1="169" x2="457.5" y1="697.0718" y2="697.0718"/><text fill="#000000" font-family="Lato,sans-serif" font-size="12" lengthAdjust="spacing" textLength="4" x="176" y="692.5172">(</text><text fill="#000000" font-family="Lato,sans-serif" font-size="12" font-style="italic" lengthAdjust="spacing" textLength="44" x="180" y="692.5172">confirmP</text><text fill="#000000" font-family="Lato,sans-serif" font-size="12" lengthAdjust="spacing" textLength="4" x="224" y="692.5172">)</text><line style="stroke:#000000;stroke-width:1.0;" x1="169" x2="211" y1="725.4639" y2="725.4639"/><line style="stroke:#000000;stroke-width:1.0;" x1="211" x2="211" y1="725.4639" y2="738.4639"/><line style="stroke:#000000;stroke-width:1.0;" x1="170" x2="211" y1="738.4639" y2="738.4639"/><polygon fill="#000000" points="180,734.4639,170,738.4639,180,742.4639" style="stroke:#000000;stroke-width:1.0;"/><text fill="#000000" font-family="Consolas,Menlo,monospace" font-size="12" lengthAdjust="spacing" textLength="175" x="176" y="721.4014">psa_pake_get_shared_key()</text><text fill="#000000" font-family="Lato,sans-serif" font-size="12" lengthAdjust="spacing" textLength="50" x="353" y="720.9093">to extract</text><text fill="#000000" font-family="Lato,sans-serif" font-size="12" font-style="italic" lengthAdjust="spacing" textLength="45" x="405" y="720.9093">K_shared</text><line style="stroke:#000000;stroke-width:1.0;" x1="458.5" x2="500.5" y1="766.856" y2="766.856"/><line style="stroke:#000000;stroke-width:1.0;" x1="500.5" x2="500.5" y1="766.856" y2="779.856"/><line style="stroke:#000000;stroke-width:1.0;" x1="459.5" x2="500.5" y1="779.856" y2="779.856"/><polygon fill="#000000" points="469.5,775.856,459.5,779.856,469.5,783.856" style="stroke:#000000;stroke-width:1.0;"/><text fill="#000000" font-family="Consolas,Menlo,monospace" font-size="12" lengthAdjust="spacing" textLength="112" x="465.5" y="762.7935">psa_pake_input()</text><text fill="#000000" font-family="Lato,sans-serif" font-size="12" lengthAdjust="spacing" textLength="16" x="579.5" y="762.3014">for</text><text fill="#000000" font-family="Lato,sans-serif" font-size="12" font-style="italic" lengthAdjust="spacing" textLength="44" x="597.5" y="762.3014">confirmP</text><path d="M296,758.9639 L296,774.9639 A4,4 0 0 0 300,778.9639 L449,778.9639 A4,4 0 0 0 453,774.9639 L453,764.9639 L443,754.9639 L300,754.9639 A4,4 0 0 0 296,758.9639 " fill="#E8E8E8" style="stroke:#181818;stroke-width:1.0;"/><path d="M443,754.9639 L443,762.9639 A2,2 0 0 0 445,764.9639 L453,764.9639 L443,754.9639 " fill="#E8E8E8" style="stroke:#181818;stroke-width:1.0;"/><text fill="#000000" font-family="Lato,sans-serif" font-size="12" lengthAdjust="spacing" textLength="32" x="302" y="771.8014">Verify</text><text fill="#000000" font-family="Lato,sans-serif" font-size="12" font-style="italic" lengthAdjust="spacing" textLength="47" x="336" y="771.8014">confirmP'</text><text fill="#000000" font-family="Lato,sans-serif" font-size="12" lengthAdjust="spacing" textLength="7" x="385" y="771.8014">=</text><text fill="#000000" font-family="Lato,sans-serif" font-size="12" font-style="italic" lengthAdjust="spacing" textLength="44" x="394" y="771.8014">confirmP</text><line style="stroke:#000000;stroke-width:1.0;" x1="458.5" x2="500.5" y1="808.248" y2="808.248"/><line style="stroke:#000000;stroke-width:1.0;" x1="500.5" x2="500.5" y1="808.248" y2="821.248"/><line style="stroke:#000000;stroke-width:1.0;" x1="459.5" x2="500.5" y1="821.248" y2="821.248"/><polygon fill="#000000" points="469.5,817.248,459.5,821.248,469.5,825.248" style="stroke:#000000;stroke-width:1.0;"/><text fill="#000000" font-family="Consolas,Menlo,monospace" font-size="12" lengthAdjust="spacing" textLength="175" x="465.5" y="804.1855">psa_pake_get_shared_key()</text><text fill="#000000" font-family="Lato,sans-serif" font-size="12" lengthAdjust="spacing" textLength="50" x="642.5" y="803.6935">to extract</text><text fill="#000000" font-family="Lato,sans-serif" font-size="12" font-style="italic" lengthAdjust="spacing" textLength="45" x="694.5" y="803.6935">K_shared</text></g></svg>