<?xml version="1.0" encoding="UTF-8" standalone="no"?><svg xmlns="http://www.w3.org/2000/svg" xmlns:xlink="http://www.w3.org/1999/xlink" contentStyleType="text/css" height="651px" preserveAspectRatio="none" style="width:602px;height:651px;background:#FFFFFF55;" version="1.1" viewBox="0 0 602 651" width="602px" zoomAndPan="magnify"><defs/><g><line style="stroke:#808080;stroke-width:0.5;stroke-dasharray:5.0,5.0;" x1="149.5" x2="149.5" y1="34.3921" y2="644.8179"/><line style="stroke:#808080;stroke-width:0.5;stroke-dasharray:5.0,5.0;" x1="450" x2="450" y1="34.3921" y2="644.8179"/><rect fill="#FFFFFF" height="28.3921" rx="2.5" ry="2.5" style="stroke:#000000;stroke-width:1.0;" width="39" x="130.5" y="5"/><text fill="#000000" font-family="Lato,sans-serif" font-size="12" lengthAdjust="spacing" textLength="25" x="137.5" y="23.8375">User</text><rect fill="#FFFFFF" height="28.3921" rx="2.5" ry="2.5" style="stroke:#000000;stroke-width:1.0;" width="38" x="431" y="5"/><text fill="#000000" font-family="Lato,sans-serif" font-size="12" lengthAdjust="spacing" textLength="24" x="438" y="23.8375">Peer</text><path d="M133,49.3921 L133,73.3921 L466,73.3921 L466,59.3921 L456,49.3921 L133,49.3921 " fill="#E8E8E8" style="stroke:#181818;stroke-width:1.0;"/><path d="M456,49.3921 L456,59.3921 L466,59.3921 L456,49.3921 " fill="#E8E8E8" style="stroke:#181818;stroke-width:1.0;"/><text fill="#000000" font-family="Lato,sans-serif" font-size="12" lengthAdjust="spacing" textLength="205" x="141.25" y="66.2296">Shared information: cipher suite, secret</text><text fill="#000000" font-family="Lato,sans-serif" font-size="12" font-style="italic" lengthAdjust="spacing" textLength="5" x="348.25" y="66.2296">s</text><text fill="#000000" font-family="Lato,sans-serif" font-size="12" lengthAdjust="spacing" textLength="3" x="353.25" y="66.2296">,</text><text fill="#000000" font-family="Lato,sans-serif" font-size="12" font-style="italic" lengthAdjust="spacing" textLength="32" x="358.25" y="66.2296">UserId</text><text fill="#000000" font-family="Lato,sans-serif" font-size="12" lengthAdjust="spacing" textLength="25" x="390.25" y="66.2296">, and</text><text fill="#000000" font-family="Lato,sans-serif" font-size="12" font-style="italic" lengthAdjust="spacing" textLength="32" x="417.25" y="66.2296">PeerId</text><line style="stroke:#000000;stroke-width:1.0;" x1="150" x2="192" y1="126.9365" y2="126.9365"/><line style="stroke:#000000;stroke-width:1.0;" x1="192" x2="192" y1="126.9365" y2="139.9365"/><line style="stroke:#000000;stroke-width:1.0;" x1="151" x2="192" y1="139.9365" y2="139.9365"/><polygon fill="#000000" points="161,135.9365,151,139.9365,161,143.9365" style="stroke:#000000;stroke-width:1.0;"/><text fill="#000000" font-family="Consolas,Menlo,monospace" font-size="12" lengthAdjust="spacing" textLength="112" x="157" y="94.7725">psa_pake_setup()</text><text fill="#000000" font-family="Consolas,Menlo,monospace" font-size="12" lengthAdjust="spacing" textLength="133" x="157" y="108.8232">psa_pake_set_user()</text><text fill="#000000" font-family="Consolas,Menlo,monospace" font-size="12" lengthAdjust="spacing" textLength="133" x="157" y="122.874">psa_pake_set_peer()</text><path d="M20,152.9365 L20,205.9365 L280,205.9365 L280,162.9365 L270,152.9365 L20,152.9365 " fill="#E8E8E8" style="stroke:#181818;stroke-width:1.0;"/><path d="M270,152.9365 L270,162.9365 L280,162.9365 L270,152.9365 " fill="#E8E8E8" style="stroke:#181818;stroke-width:1.0;"/><text fill="#000000" font-family="Lato,sans-serif" font-size="12" lengthAdjust="spacing" textLength="49" x="26" y="169.774">Generate</text><text fill="#000000" font-family="Lato,sans-serif" font-size="12" font-style="italic" lengthAdjust="spacing" textLength="13" x="77" y="169.774">x1</text><text fill="#000000" font-family="Lato,sans-serif" font-size="12" lengthAdjust="spacing" textLength="20" x="92" y="169.774">and</text><text fill="#000000" font-family="Lato,sans-serif" font-size="12" font-style="italic" lengthAdjust="spacing" textLength="13" x="114" y="169.774">x2</text><text fill="#000000" font-family="Lato,sans-serif" font-size="12" lengthAdjust="spacing" textLength="109" x="26" y="184.1661">Compute public keys</text><text fill="#000000" font-family="Lato,sans-serif" font-size="12" font-style="italic" lengthAdjust="spacing" textLength="13" x="137" y="184.1661">g1</text><text fill="#000000" font-family="Lato,sans-serif" font-size="12" lengthAdjust="spacing" textLength="20" x="152" y="184.1661">and</text><text fill="#000000" font-family="Lato,sans-serif" font-size="12" font-style="italic" lengthAdjust="spacing" textLength="13" x="174" y="184.1661">g2</text><text fill="#000000" font-family="Lato,sans-serif" font-size="12" lengthAdjust="spacing" textLength="73" x="26" y="198.5582">Compute ZKP</text><text fill="#000000" font-family="Lato,sans-serif" font-size="12" font-style="italic" lengthAdjust="spacing" textLength="37" x="101" y="198.5582">(V1, r1)</text><text fill="#000000" font-family="Lato,sans-serif" font-size="12" lengthAdjust="spacing" textLength="16" x="140" y="198.5582">for</text><text fill="#000000" font-family="Lato,sans-serif" font-size="12" font-style="italic" lengthAdjust="spacing" textLength="13" x="158" y="198.5582">g1</text><text fill="#000000" font-family="Lato,sans-serif" font-size="12" lengthAdjust="spacing" textLength="20" x="173" y="198.5582">and</text><text fill="#000000" font-family="Lato,sans-serif" font-size="12" font-style="italic" lengthAdjust="spacing" textLength="37" x="195" y="198.5582">(V2, r2)</text><text fill="#000000" font-family="Lato,sans-serif" font-size="12" lengthAdjust="spacing" textLength="16" x="234" y="198.5582">for</text><text fill="#000000" font-family="Lato,sans-serif" font-size="12" font-style="italic" lengthAdjust="spacing" textLength="13" x="252" y="198.5582">g2</text><path d="M317,152.9365 L317,205.9365 L582,205.9365 L582,162.9365 L572,152.9365 L317,152.9365 " fill="#E8E8E8" style="stroke:#181818;stroke-width:1.0;"/><path d="M572,152.9365 L572,162.9365 L582,162.9365 L572,152.9365 " fill="#E8E8E8" style="stroke:#181818;stroke-width:1.0;"/><text fill="#000000" font-family="Lato,sans-serif" font-size="12" lengthAdjust="spacing" textLength="49" x="323" y="169.774">Generate</text><text fill="#000000" font-family="Lato,sans-serif" font-size="12" font-style="italic" lengthAdjust="spacing" textLength="13" x="374" y="169.774">x3</text><text fill="#000000" font-family="Lato,sans-serif" font-size="12" lengthAdjust="spacing" textLength="20" x="389" y="169.774">and</text><text fill="#000000" font-family="Lato,sans-serif" font-size="12" font-style="italic" lengthAdjust="spacing" textLength="13" x="411" y="169.774">x4</text><text fill="#000000" font-family="Lato,sans-serif" font-size="12" lengthAdjust="spacing" textLength="109" x="323" y="184.1661">Compute public keys</text><text fill="#000000" font-family="Lato,sans-serif" font-size="12" font-style="italic" lengthAdjust="spacing" textLength="13" x="434" y="184.1661">g3</text><text fill="#000000" font-family="Lato,sans-serif" font-size="12" lengthAdjust="spacing" textLength="20" x="449" y="184.1661">and</text><text fill="#000000" font-family="Lato,sans-serif" font-size="12" font-style="italic" lengthAdjust="spacing" textLength="13" x="471" y="184.1661">g4</text><text fill="#000000" font-family="Lato,sans-serif" font-size="12" lengthAdjust="spacing" textLength="78" x="323" y="198.5582">Compute ZKPs</text><text fill="#000000" font-family="Lato,sans-serif" font-size="12" font-style="italic" lengthAdjust="spacing" textLength="37" x="403" y="198.5582">(V3, r3)</text><text fill="#000000" font-family="Lato,sans-serif" font-size="12" lengthAdjust="spacing" textLength="16" x="442" y="198.5582">for</text><text fill="#000000" font-family="Lato,sans-serif" font-size="12" font-style="italic" lengthAdjust="spacing" textLength="13" x="460" y="198.5582">g3</text><text fill="#000000" font-family="Lato,sans-serif" font-size="12" lengthAdjust="spacing" textLength="20" x="475" y="198.5582">and</text><text fill="#000000" font-family="Lato,sans-serif" font-size="12" font-style="italic" lengthAdjust="spacing" textLength="37" x="497" y="198.5582">(V4, r4)</text><text fill="#000000" font-family="Lato,sans-serif" font-size="12" lengthAdjust="spacing" textLength="16" x="536" y="198.5582">for</text><text fill="#000000" font-family="Lato,sans-serif" font-size="12" font-style="italic" lengthAdjust="spacing" textLength="13" x="554" y="198.5582">g4</text><line style="stroke:#000000;stroke-width:1.0;" x1="150" x2="192" y1="231.5049" y2="231.5049"/><line style="stroke:#000000;stroke-width:1.0;" x1="192" x2="192" y1="231.5049" y2="244.5049"/><line style="stroke:#000000;stroke-width:1.0;" x1="151" x2="192" y1="244.5049" y2="244.5049"/><polygon fill="#000000" points="161,240.5049,151,244.5049,161,248.5049" style="stroke:#000000;stroke-width:1.0;"/><text fill="#000000" font-family="Consolas,Menlo,monospace" font-size="12" lengthAdjust="spacing" textLength="119" x="157" y="227.4424">psa_pake_output()</text><text fill="#000000" font-family="Lato,sans-serif" font-size="12" lengthAdjust="spacing" textLength="16" x="278" y="226.9503">for</text><text fill="#000000" font-family="Lato,sans-serif" font-size="12" font-style="italic" lengthAdjust="spacing" textLength="87" x="296" y="226.9503">g1, V1, r1, g2, V2</text><text fill="#000000" font-family="Lato,sans-serif" font-size="12" lengthAdjust="spacing" textLength="25" x="383" y="226.9503">, and</text><text fill="#000000" font-family="Lato,sans-serif" font-size="12" font-style="italic" lengthAdjust="spacing" textLength="11" x="410" y="226.9503">r2</text><line style="stroke:#000000;stroke-width:1.0;" x1="448" x2="438" y1="272.897" y2="268.897"/><line style="stroke:#000000;stroke-width:1.0;" x1="448" x2="438" y1="272.897" y2="276.897"/><line style="stroke:#000000;stroke-width:1.0;" x1="150" x2="449" y1="272.897" y2="272.897"/><text fill="#000000" font-family="Lato,sans-serif" font-size="12" font-style="italic" lengthAdjust="spacing" textLength="109" x="157" y="268.3424">(g1, V1, r1, g2, V2, r2)</text><line style="stroke:#000000;stroke-width:1.0;" x1="151" x2="161" y1="301.2891" y2="297.2891"/><line style="stroke:#000000;stroke-width:1.0;" x1="151" x2="161" y1="301.2891" y2="305.2891"/><line style="stroke:#000000;stroke-width:1.0;" x1="150" x2="449" y1="301.2891" y2="301.2891"/><text fill="#000000" font-family="Lato,sans-serif" font-size="12" font-style="italic" lengthAdjust="spacing" textLength="109" x="167" y="296.7345">(g3, V3, r3, g4, V4, r4)</text><line style="stroke:#000000;stroke-width:1.0;" x1="150" x2="192" y1="329.6812" y2="329.6812"/><line style="stroke:#000000;stroke-width:1.0;" x1="192" x2="192" y1="329.6812" y2="342.6812"/><line style="stroke:#000000;stroke-width:1.0;" x1="151" x2="192" y1="342.6812" y2="342.6812"/><polygon fill="#000000" points="161,338.6812,151,342.6812,161,346.6812" style="stroke:#000000;stroke-width:1.0;"/><text fill="#000000" font-family="Consolas,Menlo,monospace" font-size="12" lengthAdjust="spacing" textLength="112" x="157" y="325.6187">psa_pake_input()</text><text fill="#000000" font-family="Lato,sans-serif" font-size="12" lengthAdjust="spacing" textLength="16" x="271" y="325.1266">for</text><text fill="#000000" font-family="Lato,sans-serif" font-size="12" font-style="italic" lengthAdjust="spacing" textLength="87" x="289" y="325.1266">g3, V3, r3, g4, V4</text><text fill="#000000" font-family="Lato,sans-serif" font-size="12" lengthAdjust="spacing" textLength="25" x="376" y="325.1266">, and</text><text fill="#000000" font-family="Lato,sans-serif" font-size="12" font-style="italic" lengthAdjust="spacing" textLength="11" x="403" y="325.1266">r4</text><path d="M5,355.6812 L5,379.6812 L295,379.6812 L295,365.6812 L285,355.6812 L5,355.6812 " fill="#E8E8E8" style="stroke:#181818;stroke-width:1.0;"/><path d="M285,355.6812 L285,365.6812 L295,365.6812 L285,355.6812 " fill="#E8E8E8" style="stroke:#181818;stroke-width:1.0;"/><text fill="#000000" font-family="Lato,sans-serif" font-size="12" lengthAdjust="spacing" textLength="132" x="11" y="372.5186">Verify ZKPs and compute</text><text fill="#000000" font-family="Lato,sans-serif" font-size="12" font-style="italic" lengthAdjust="spacing" textLength="7" x="145" y="372.5186">A</text><text fill="#000000" font-family="Lato,sans-serif" font-size="12" lengthAdjust="spacing" textLength="44" x="154" y="372.5186">and ZKP</text><text fill="#000000" font-family="Lato,sans-serif" font-size="12" font-style="italic" lengthAdjust="spacing" textLength="37" x="200" y="372.5186">(V5, r5)</text><text fill="#000000" font-family="Lato,sans-serif" font-size="12" lengthAdjust="spacing" textLength="16" x="239" y="372.5186">for</text><text fill="#000000" font-family="Lato,sans-serif" font-size="12" font-style="italic" lengthAdjust="spacing" textLength="13" x="257" y="372.5186">x2</text><text fill="#000000" font-family="Lato,sans-serif" font-size="12" lengthAdjust="spacing" textLength="5" x="270" y="372.5186">*</text><text fill="#000000" font-family="Lato,sans-serif" font-size="12" font-style="italic" lengthAdjust="spacing" textLength="5" x="275" y="372.5186">s</text><path d="M305,355.6812 L305,379.6812 L595,379.6812 L595,365.6812 L585,355.6812 L305,355.6812 " fill="#E8E8E8" style="stroke:#181818;stroke-width:1.0;"/><path d="M585,355.6812 L585,365.6812 L595,365.6812 L585,355.6812 " fill="#E8E8E8" style="stroke:#181818;stroke-width:1.0;"/><text fill="#000000" font-family="Lato,sans-serif" font-size="12" lengthAdjust="spacing" textLength="132" x="311" y="372.5186">Verify ZKPs and compute</text><text fill="#000000" font-family="Lato,sans-serif" font-size="12" font-style="italic" lengthAdjust="spacing" textLength="7" x="445" y="372.5186">B</text><text fill="#000000" font-family="Lato,sans-serif" font-size="12" lengthAdjust="spacing" textLength="44" x="454" y="372.5186">and ZKP</text><text fill="#000000" font-family="Lato,sans-serif" font-size="12" font-style="italic" lengthAdjust="spacing" textLength="37" x="500" y="372.5186">(V6, r6)</text><text fill="#000000" font-family="Lato,sans-serif" font-size="12" lengthAdjust="spacing" textLength="16" x="539" y="372.5186">for</text><text fill="#000000" font-family="Lato,sans-serif" font-size="12" font-style="italic" lengthAdjust="spacing" textLength="13" x="557" y="372.5186">x4</text><text fill="#000000" font-family="Lato,sans-serif" font-size="12" lengthAdjust="spacing" textLength="5" x="570" y="372.5186">*</text><text fill="#000000" font-family="Lato,sans-serif" font-size="12" font-style="italic" lengthAdjust="spacing" textLength="5" x="575" y="372.5186">s</text><line style="stroke:#000000;stroke-width:1.0;" x1="150" x2="192" y1="405.4653" y2="405.4653"/><line style="stroke:#000000;stroke-width:1.0;" x1="192" x2="192" y1="405.4653" y2="418.4653"/><line style="stroke:#000000;stroke-width:1.0;" x1="151" x2="192" y1="418.4653" y2="418.4653"/><polygon fill="#000000" points="161,414.4653,151,418.4653,161,422.4653" style="stroke:#000000;stroke-width:1.0;"/><text fill="#000000" font-family="Consolas,Menlo,monospace" font-size="12" lengthAdjust="spacing" textLength="119" x="157" y="401.4028">psa_pake_output()</text><text fill="#000000" font-family="Lato,sans-serif" font-size="12" lengthAdjust="spacing" textLength="16" x="278" y="400.9107">for</text><text fill="#000000" font-family="Lato,sans-serif" font-size="12" font-style="italic" lengthAdjust="spacing" textLength="27" x="296" y="400.9107">A, V5</text><text fill="#000000" font-family="Lato,sans-serif" font-size="12" lengthAdjust="spacing" textLength="25" x="323" y="400.9107">, and</text><text fill="#000000" font-family="Lato,sans-serif" font-size="12" font-style="italic" lengthAdjust="spacing" textLength="11" x="350" y="400.9107">r5</text><line style="stroke:#000000;stroke-width:1.0;" x1="448" x2="438" y1="446.8574" y2="442.8574"/><line style="stroke:#000000;stroke-width:1.0;" x1="448" x2="438" y1="446.8574" y2="450.8574"/><line style="stroke:#000000;stroke-width:1.0;" x1="150" x2="449" y1="446.8574" y2="446.8574"/><text fill="#000000" font-family="Lato,sans-serif" font-size="12" font-style="italic" lengthAdjust="spacing" textLength="49" x="157" y="442.3028">(A, V5, r5)</text><line style="stroke:#000000;stroke-width:1.0;" x1="151" x2="161" y1="475.2495" y2="471.2495"/><line style="stroke:#000000;stroke-width:1.0;" x1="151" x2="161" y1="475.2495" y2="479.2495"/><line style="stroke:#000000;stroke-width:1.0;" x1="150" x2="449" y1="475.2495" y2="475.2495"/><text fill="#000000" font-family="Lato,sans-serif" font-size="12" font-style="italic" lengthAdjust="spacing" textLength="49" x="167" y="470.6949">(B, V6, r6)</text><line style="stroke:#000000;stroke-width:1.0;" x1="150" x2="192" y1="503.6416" y2="503.6416"/><line style="stroke:#000000;stroke-width:1.0;" x1="192" x2="192" y1="503.6416" y2="516.6416"/><line style="stroke:#000000;stroke-width:1.0;" x1="151" x2="192" y1="516.6416" y2="516.6416"/><polygon fill="#000000" points="161,512.6416,151,516.6416,161,520.6416" style="stroke:#000000;stroke-width:1.0;"/><text fill="#000000" font-family="Consolas,Menlo,monospace" font-size="12" lengthAdjust="spacing" textLength="112" x="157" y="499.5791">psa_pake_input()</text><text fill="#000000" font-family="Lato,sans-serif" font-size="12" lengthAdjust="spacing" textLength="16" x="271" y="499.087">for</text><text fill="#000000" font-family="Lato,sans-serif" font-size="12" font-style="italic" lengthAdjust="spacing" textLength="27" x="289" y="499.087">B, V6</text><text fill="#000000" font-family="Lato,sans-serif" font-size="12" lengthAdjust="spacing" textLength="25" x="316" y="499.087">, and</text><text fill="#000000" font-family="Lato,sans-serif" font-size="12" font-style="italic" lengthAdjust="spacing" textLength="11" x="343" y="499.087">r6</text><path d="M68,529.6416 L68,553.6416 L232,553.6416 L232,539.6416 L222,529.6416 L68,529.6416 " fill="#E8E8E8" style="stroke:#181818;stroke-width:1.0;"/><path d="M222,529.6416 L222,539.6416 L232,539.6416 L222,529.6416 " fill="#E8E8E8" style="stroke:#181818;stroke-width:1.0;"/><text fill="#000000" font-family="Lato,sans-serif" font-size="12" lengthAdjust="spacing" textLength="127" x="74" y="546.4791">Verify ZKP and compute</text><text fill="#000000" font-family="Lato,sans-serif" font-size="12" font-style="italic" lengthAdjust="spacing" textLength="14" x="203" y="546.4791">Ka</text><path d="M368,529.6416 L368,553.6416 L532,553.6416 L532,539.6416 L522,529.6416 L368,529.6416 " fill="#E8E8E8" style="stroke:#181818;stroke-width:1.0;"/><path d="M522,529.6416 L522,539.6416 L532,539.6416 L522,529.6416 " fill="#E8E8E8" style="stroke:#181818;stroke-width:1.0;"/><text fill="#000000" font-family="Lato,sans-serif" font-size="12" lengthAdjust="spacing" textLength="127" x="374" y="546.4791">Verify ZKP and compute</text><text fill="#000000" font-family="Lato,sans-serif" font-size="12" font-style="italic" lengthAdjust="spacing" textLength="14" x="503" y="546.4791">Kb</text><path d="M133,564.0337 L133,588.0337 L466,588.0337 L466,574.0337 L456,564.0337 L133,564.0337 " fill="#E8E8E8" style="stroke:#181818;stroke-width:1.0;"/><path d="M456,564.0337 L456,574.0337 L466,574.0337 L456,564.0337 " fill="#E8E8E8" style="stroke:#181818;stroke-width:1.0;"/><text fill="#000000" font-family="Lato,sans-serif" font-size="12" lengthAdjust="spacing" textLength="172" x="170.75" y="580.8712">If both sides used the same secret</text><text fill="#000000" font-family="Lato,sans-serif" font-size="12" font-style="italic" lengthAdjust="spacing" textLength="5" x="344.75" y="580.8712">s</text><text fill="#000000" font-family="Lato,sans-serif" font-size="12" lengthAdjust="spacing" textLength="29" x="349.75" y="580.8712">, then</text><text fill="#000000" font-family="Lato,sans-serif" font-size="12" font-style="italic" lengthAdjust="spacing" textLength="14" x="380.75" y="580.8712">Ka</text><text fill="#000000" font-family="Lato,sans-serif" font-size="12" lengthAdjust="spacing" textLength="7" x="396.75" y="580.8712">=</text><text fill="#000000" font-family="Lato,sans-serif" font-size="12" font-style="italic" lengthAdjust="spacing" textLength="14" x="405.75" y="580.8712">Kb</text><line style="stroke:#000000;stroke-width:1.0;" x1="150" x2="192" y1="613.8179" y2="613.8179"/><line style="stroke:#000000;stroke-width:1.0;" x1="192" x2="192" y1="613.8179" y2="626.8179"/><line style="stroke:#000000;stroke-width:1.0;" x1="151" x2="192" y1="626.8179" y2="626.8179"/><polygon fill="#000000" points="161,622.8179,151,626.8179,161,630.8179" style="stroke:#000000;stroke-width:1.0;"/><text fill="#000000" font-family="Consolas,Menlo,monospace" font-size="12" lengthAdjust="spacing" textLength="189" x="157" y="609.7554">psa_pake_get_implicit_key()</text><text fill="#000000" font-family="Lato,sans-serif" font-size="12" lengthAdjust="spacing" textLength="50" x="348" y="609.2633">to extract</text><text fill="#000000" font-family="Lato,sans-serif" font-size="12" font-style="italic" lengthAdjust="spacing" textLength="14" x="400" y="609.2633">Ka</text></g></svg>