<?xml version="1.0" encoding="UTF-8" standalone="no"?><svg xmlns="http://www.w3.org/2000/svg" xmlns:xlink="http://www.w3.org/1999/xlink" contentStyleType="text/css" height="507px" preserveAspectRatio="none" style="width:911px;height:507px;background:#FFFFFF55;" version="1.1" viewBox="0 0 911 507" width="911px" zoomAndPan="magnify"><defs/><g><rect fill="#FFFFFF" height="252.9551" style="stroke:#808080;stroke-width:1.0;" width="894" x="10" y="196.3286"/><rect fill="#FFFFFF" height="126.0186" style="stroke:none;stroke-width:1.0;" width="894" x="10" y="323.2651"/><line style="stroke:#808080;stroke-width:0.5;stroke-dasharray:5.0,5.0;" x1="199" x2="199" y1="34.3921" y2="500.6758"/><line style="stroke:#808080;stroke-width:0.5;stroke-dasharray:5.0,5.0;" x1="541.5" x2="541.5" y1="34.3921" y2="500.6758"/><rect fill="#FFFFFF" height="28.3921" rx="2.5" ry="2.5" style="stroke:#000000;stroke-width:1.0;" width="110" x="144" y="5"/><text fill="#000000" font-family="Lato,sans-serif" font-size="12" lengthAdjust="spacing" textLength="36" x="151" y="23.8375">Prover</text><text fill="#000000" font-family="Lato,sans-serif" font-size="12" font-style="italic" lengthAdjust="spacing" textLength="56" x="191" y="23.8375">(Client role)</text><rect fill="#FFFFFF" height="28.3921" rx="2.5" ry="2.5" style="stroke:#000000;stroke-width:1.0;" width="117" x="483.5" y="5"/><text fill="#000000" font-family="Lato,sans-serif" font-size="12" lengthAdjust="spacing" textLength="40" x="490.5" y="23.8375">Verifier</text><text fill="#000000" font-family="Lato,sans-serif" font-size="12" font-style="italic" lengthAdjust="spacing" textLength="59" x="534.5" y="23.8375">(Server role)</text><path d="M144,49.3921 L144,73.3921 L595,73.3921 L595,59.3921 L585,49.3921 L144,49.3921 " fill="#E8E8E8" style="stroke:#181818;stroke-width:1.0;"/><path d="M585,49.3921 L585,59.3921 L595,59.3921 L585,49.3921 " fill="#E8E8E8" style="stroke:#181818;stroke-width:1.0;"/><text fill="#000000" font-family="Lato,sans-serif" font-size="12" lengthAdjust="spacing" textLength="166" x="217.25" y="66.2296">Initial information : cipher suite,</text><text fill="#000000" font-family="Lato,sans-serif" font-size="12" font-style="italic" lengthAdjust="spacing" textLength="76" x="385.25" y="66.2296">PBKDF-params</text><text fill="#000000" font-family="Lato,sans-serif" font-size="12" lengthAdjust="spacing" textLength="3" x="461.25" y="66.2296">,</text><text fill="#000000" font-family="Lato,sans-serif" font-size="12" font-style="italic" lengthAdjust="spacing" textLength="47" x="466.25" y="66.2296">password</text><line style="stroke:#000000;stroke-width:1.0;" x1="199" x2="241" y1="127.2778" y2="127.2778"/><line style="stroke:#000000;stroke-width:1.0;" x1="241" x2="241" y1="127.2778" y2="140.2778"/><line style="stroke:#000000;stroke-width:1.0;" x1="200" x2="241" y1="140.2778" y2="140.2778"/><polygon fill="#000000" points="210,136.2778,200,140.2778,210,144.2778" style="stroke:#000000;stroke-width:1.0;"/><text fill="#000000" font-family="Consolas,Menlo,monospace" font-size="12" lengthAdjust="spacing" textLength="217" x="206" y="94.7725">psa_key_derivation_setup(PBKDF)</text><text fill="#000000" font-family="Consolas,Menlo,monospace" font-size="12" lengthAdjust="spacing" textLength="266" x="206" y="108.8232">psa_key_derivation_input_key(password)</text><text fill="#000000" font-family="Consolas,Menlo,monospace" font-size="12" lengthAdjust="spacing" textLength="210" x="206" y="123.2153">psa_key_derivation_input_xxx()</text><text fill="#000000" font-family="Lato,sans-serif" font-size="12" lengthAdjust="spacing" textLength="16" x="418" y="122.7232">for</text><text fill="#000000" font-family="Lato,sans-serif" font-size="12" font-style="italic" lengthAdjust="spacing" textLength="76" x="436" y="122.7232">PBKDF-params</text><line style="stroke:#000000;stroke-width:1.0;" x1="199" x2="241" y1="168.3286" y2="168.3286"/><line style="stroke:#000000;stroke-width:1.0;" x1="241" x2="241" y1="168.3286" y2="181.3286"/><line style="stroke:#000000;stroke-width:1.0;" x1="200" x2="241" y1="181.3286" y2="181.3286"/><polygon fill="#000000" points="210,177.3286,200,181.3286,210,185.3286" style="stroke:#000000;stroke-width:1.0;"/><text fill="#000000" font-family="Consolas,Menlo,monospace" font-size="12" lengthAdjust="spacing" textLength="329" x="206" y="164.2661">psa_key_derivation_output_key(SPAKE2P_KEY_PAIR)</text><path d="M32,156.6072 L32,180.6072 L194,180.6072 L194,166.6072 L184,156.6072 L32,156.6072 " fill="#E8E8E8" style="stroke:#181818;stroke-width:1.0;"/><path d="M184,156.6072 L184,166.6072 L194,166.6072 L184,156.6072 " fill="#E8E8E8" style="stroke:#181818;stroke-width:1.0;"/><text fill="#000000" font-family="Lato,sans-serif" font-size="12" lengthAdjust="spacing" textLength="100" x="38" y="173.4447">Compute key-pair (</text><text fill="#000000" font-family="Lato,sans-serif" font-size="12" font-style="italic" lengthAdjust="spacing" textLength="16" x="138" y="173.4447">w0</text><text fill="#000000" font-family="Lato,sans-serif" font-size="12" lengthAdjust="spacing" textLength="3" x="154" y="173.4447">,</text><text fill="#000000" font-family="Lato,sans-serif" font-size="12" font-style="italic" lengthAdjust="spacing" textLength="16" x="159" y="173.4447">w1</text><text fill="#000000" font-family="Lato,sans-serif" font-size="12" lengthAdjust="spacing" textLength="4" x="175" y="173.4447">)</text><path d="M10,196.3286 L68,196.3286 L68,202.7207 L58,212.7207 L10,212.7207 L10,196.3286 " fill="#F0F0F0" style="stroke:#808080;stroke-width:1.5;"/><rect fill="none" height="252.9551" style="stroke:#808080;stroke-width:1.0;" width="894" x="10" y="196.3286"/><text fill="#000000" font-family="Lato,sans-serif" font-size="12" lengthAdjust="spacing" textLength="13" x="25" y="209.1661">alt</text><text fill="#000000" font-family="Lato,sans-serif" font-size="11" font-weight="bold" lengthAdjust="spacing" textLength="128" x="83" y="209.1721">[Independent registration]</text><line style="stroke:#000000;stroke-width:1.0;" x1="542" x2="584" y1="261.2144" y2="261.2144"/><line style="stroke:#000000;stroke-width:1.0;" x1="584" x2="584" y1="261.2144" y2="274.2144"/><line style="stroke:#000000;stroke-width:1.0;" x1="543" x2="584" y1="274.2144" y2="274.2144"/><polygon fill="#000000" points="553,270.2144,543,274.2144,553,278.2144" style="stroke:#000000;stroke-width:1.0;"/><text fill="#000000" font-family="Consolas,Menlo,monospace" font-size="12" lengthAdjust="spacing" textLength="217" x="549" y="228.709">psa_key_derivation_setup(PBKDF)</text><text fill="#000000" font-family="Consolas,Menlo,monospace" font-size="12" lengthAdjust="spacing" textLength="266" x="549" y="242.7598">psa_key_derivation_input_key(password)</text><text fill="#000000" font-family="Consolas,Menlo,monospace" font-size="12" lengthAdjust="spacing" textLength="210" x="549" y="257.1519">psa_key_derivation_input_xxx()</text><text fill="#000000" font-family="Lato,sans-serif" font-size="12" lengthAdjust="spacing" textLength="16" x="761" y="256.6598">for</text><text fill="#000000" font-family="Lato,sans-serif" font-size="12" font-style="italic" lengthAdjust="spacing" textLength="76" x="779" y="256.6598">PBKDF-params</text><line style="stroke:#000000;stroke-width:1.0;" x1="542" x2="584" y1="302.2651" y2="302.2651"/><line style="stroke:#000000;stroke-width:1.0;" x1="584" x2="584" y1="302.2651" y2="315.2651"/><line style="stroke:#000000;stroke-width:1.0;" x1="543" x2="584" y1="315.2651" y2="315.2651"/><polygon fill="#000000" points="553,311.2651,543,315.2651,553,319.2651" style="stroke:#000000;stroke-width:1.0;"/><text fill="#000000" font-family="Consolas,Menlo,monospace" font-size="12" lengthAdjust="spacing" textLength="343" x="549" y="298.2026">psa_key_derivation_output_key(SPAKE2P_PUBLIC_KEY)</text><path d="M373,290.5437 L373,314.5437 L537,314.5437 L537,300.5437 L527,290.5437 L373,290.5437 " fill="#E8E8E8" style="stroke:#181818;stroke-width:1.0;"/><path d="M527,290.5437 L527,300.5437 L537,300.5437 L527,290.5437 " fill="#E8E8E8" style="stroke:#181818;stroke-width:1.0;"/><text fill="#000000" font-family="Lato,sans-serif" font-size="12" lengthAdjust="spacing" textLength="112" x="379" y="307.3812">Compute public-key (</text><text fill="#000000" font-family="Lato,sans-serif" font-size="12" font-style="italic" lengthAdjust="spacing" textLength="16" x="491" y="307.3812">w0</text><text fill="#000000" font-family="Lato,sans-serif" font-size="12" lengthAdjust="spacing" textLength="3" x="507" y="307.3812">,</text><text fill="#000000" font-family="Lato,sans-serif" font-size="12" font-style="italic" lengthAdjust="spacing" textLength="6" x="512" y="307.3812">L</text><text fill="#000000" font-family="Lato,sans-serif" font-size="12" lengthAdjust="spacing" textLength="4" x="518" y="307.3812">)</text><line style="stroke:#808080;stroke-width:1.0;stroke-dasharray:2.0,2.0;" x1="10" x2="904" y1="324.2651" y2="324.2651"/><text fill="#000000" font-family="Lato,sans-serif" font-size="11" font-weight="bold" lengthAdjust="spacing" textLength="119" x="15" y="335.1086">[Connected registration]</text><line style="stroke:#000000;stroke-width:1.0;" x1="199" x2="241" y1="358.4995" y2="358.4995"/><line style="stroke:#000000;stroke-width:1.0;" x1="241" x2="241" y1="358.4995" y2="371.4995"/><line style="stroke:#000000;stroke-width:1.0;" x1="200" x2="241" y1="371.4995" y2="371.4995"/><polygon fill="#000000" points="210,367.4995,200,371.4995,210,375.4995" style="stroke:#000000;stroke-width:1.0;"/><text fill="#000000" font-family="Consolas,Menlo,monospace" font-size="12" lengthAdjust="spacing" textLength="161" x="206" y="354.437">psa_export_public_key()</text><path d="M20,346.7781 L20,370.7781 L194,370.7781 L194,356.7781 L184,346.7781 L20,346.7781 " fill="#E8E8E8" style="stroke:#181818;stroke-width:1.0;"/><path d="M184,346.7781 L184,356.7781 L194,356.7781 L184,346.7781 " fill="#E8E8E8" style="stroke:#181818;stroke-width:1.0;"/><text fill="#000000" font-family="Lato,sans-serif" font-size="12" lengthAdjust="spacing" textLength="49" x="26" y="363.6156">Compute</text><text fill="#000000" font-family="Lato,sans-serif" font-size="12" font-style="italic" lengthAdjust="spacing" textLength="6" x="77" y="363.6156">L</text><text fill="#000000" font-family="Lato,sans-serif" font-size="12" lengthAdjust="spacing" textLength="58" x="85" y="363.6156">and output</text><text fill="#000000" font-family="Lato,sans-serif" font-size="12" font-style="italic" lengthAdjust="spacing" textLength="16" x="145" y="363.6156">w0</text><text fill="#000000" font-family="Lato,sans-serif" font-size="12" lengthAdjust="spacing" textLength="8" x="163" y="363.6156">||</text><text fill="#000000" font-family="Lato,sans-serif" font-size="12" font-style="italic" lengthAdjust="spacing" textLength="6" x="173" y="363.6156">L</text><line style="stroke:#000000;stroke-width:1.0;" x1="540" x2="530" y1="399.8916" y2="395.8916"/><line style="stroke:#000000;stroke-width:1.0;" x1="540" x2="530" y1="399.8916" y2="403.8916"/><line style="stroke:#000000;stroke-width:1.0;" x1="199" x2="541" y1="399.8916" y2="399.8916"/><text fill="#000000" font-family="Lato,sans-serif" font-size="12" lengthAdjust="spacing" textLength="108" x="206" y="395.337">Registration record (</text><text fill="#000000" font-family="Lato,sans-serif" font-size="12" font-style="italic" lengthAdjust="spacing" textLength="16" x="316" y="395.337">w0</text><text fill="#000000" font-family="Lato,sans-serif" font-size="12" lengthAdjust="spacing" textLength="8" x="334" y="395.337">||</text><text fill="#000000" font-family="Lato,sans-serif" font-size="12" font-style="italic" lengthAdjust="spacing" textLength="6" x="344" y="395.337">L</text><text fill="#000000" font-family="Lato,sans-serif" font-size="12" lengthAdjust="spacing" textLength="4" x="352" y="395.337">)</text><line style="stroke:#000000;stroke-width:1.0;" x1="542" x2="584" y1="428.2837" y2="428.2837"/><line style="stroke:#000000;stroke-width:1.0;" x1="584" x2="584" y1="428.2837" y2="441.2837"/><line style="stroke:#000000;stroke-width:1.0;" x1="543" x2="584" y1="441.2837" y2="441.2837"/><polygon fill="#000000" points="553,437.2837,543,441.2837,553,445.2837" style="stroke:#000000;stroke-width:1.0;"/><text fill="#000000" font-family="Consolas,Menlo,monospace" font-size="12" lengthAdjust="spacing" textLength="238" x="549" y="424.2212">psa_import_key(SPAKE2P_PUBLIC_KEY)</text><text fill="#000000" font-family="Lato,sans-serif" font-size="12" lengthAdjust="spacing" textLength="26" x="789" y="423.7291">from</text><text fill="#000000" font-family="Lato,sans-serif" font-size="12" font-style="italic" lengthAdjust="spacing" textLength="16" x="817" y="423.7291">w0</text><text fill="#000000" font-family="Lato,sans-serif" font-size="12" lengthAdjust="spacing" textLength="8" x="835" y="423.7291">||</text><text fill="#000000" font-family="Lato,sans-serif" font-size="12" font-style="italic" lengthAdjust="spacing" textLength="6" x="845" y="423.7291">L</text><path d="M385,416.3916 L385,440.3916 L537,440.3916 L537,426.3916 L527,416.3916 L385,416.3916 " fill="#E8E8E8" style="stroke:#181818;stroke-width:1.0;"/><path d="M527,416.3916 L527,426.3916 L537,426.3916 L527,416.3916 " fill="#E8E8E8" style="stroke:#181818;stroke-width:1.0;"/><text fill="#000000" font-family="Lato,sans-serif" font-size="12" lengthAdjust="spacing" textLength="100" x="391" y="433.2291">Import public-key (</text><text fill="#000000" font-family="Lato,sans-serif" font-size="12" font-style="italic" lengthAdjust="spacing" textLength="16" x="491" y="433.2291">w0</text><text fill="#000000" font-family="Lato,sans-serif" font-size="12" lengthAdjust="spacing" textLength="3" x="507" y="433.2291">,</text><text fill="#000000" font-family="Lato,sans-serif" font-size="12" font-style="italic" lengthAdjust="spacing" textLength="6" x="512" y="433.2291">L</text><text fill="#000000" font-family="Lato,sans-serif" font-size="12" lengthAdjust="spacing" textLength="4" x="518" y="433.2291">)</text><path d="M95,461.2837 L95,485.2837 L303,485.2837 L303,471.2837 L293,461.2837 L95,461.2837 " fill="#E8E8E8" style="stroke:#181818;stroke-width:1.0;"/><path d="M293,461.2837 L293,471.2837 L303,471.2837 L293,461.2837 " fill="#E8E8E8" style="stroke:#181818;stroke-width:1.0;"/><text fill="#000000" font-family="Lato,sans-serif" font-size="12" lengthAdjust="spacing" textLength="187" x="101" y="478.1212">Use key-pair for authentication flow</text><path d="M432,461.2837 L432,485.2837 L652,485.2837 L652,471.2837 L642,461.2837 L432,461.2837 " fill="#E8E8E8" style="stroke:#181818;stroke-width:1.0;"/><path d="M642,461.2837 L642,471.2837 L652,471.2837 L642,461.2837 " fill="#E8E8E8" style="stroke:#181818;stroke-width:1.0;"/><text fill="#000000" font-family="Lato,sans-serif" font-size="12" lengthAdjust="spacing" textLength="199" x="438" y="478.1212">Use public-key for authentication flow</text></g></svg>