<?xml version="1.0" encoding="UTF-8" standalone="no"?><svg xmlns="http://www.w3.org/2000/svg" xmlns:xlink="http://www.w3.org/1999/xlink" contentStyleType="text/css" height="1046px" preserveAspectRatio="none" style="width:720px;height:1046px;background:#FFFFFF55;" version="1.1" viewBox="0 0 720 1046" width="720px" zoomAndPan="magnify"><defs/><g><line style="stroke:#808080;stroke-width:0.5;stroke-dasharray:5.0,5.0;" x1="143" x2="143" y1="34.3921" y2="113.1763"/><line style="stroke:#808080;stroke-width:1.0;stroke-dasharray:1.0,4.0;" x1="143" x2="143" y1="113.1763" y2="141.1763"/><line style="stroke:#808080;stroke-width:0.5;stroke-dasharray:5.0,5.0;" x1="143" x2="143" y1="141.1763" y2="1039.2085"/><line style="stroke:#808080;stroke-width:0.5;stroke-dasharray:5.0,5.0;" x1="432" x2="432" y1="34.3921" y2="113.1763"/><line style="stroke:#808080;stroke-width:1.0;stroke-dasharray:1.0,4.0;" x1="432" x2="432" y1="113.1763" y2="141.1763"/><line style="stroke:#808080;stroke-width:0.5;stroke-dasharray:5.0,5.0;" x1="432" x2="432" y1="141.1763" y2="1039.2085"/><rect fill="#FFFFFF" height="28.3921" rx="2.5" ry="2.5" style="stroke:#000000;stroke-width:1.0;" width="108" x="89" y="5"/><text fill="#000000" font-family="Lato,sans-serif" font-size="12" lengthAdjust="spacing" textLength="36" x="96" y="23.8375">Prover</text><text fill="#000000" font-family="Lato,sans-serif" font-size="12" font-style="italic" lengthAdjust="spacing" textLength="56" x="134" y="23.8375">(Client role)</text><rect fill="#FFFFFF" height="28.3921" rx="2.5" ry="2.5" style="stroke:#000000;stroke-width:1.0;" width="115" x="375" y="5"/><text fill="#000000" font-family="Lato,sans-serif" font-size="12" lengthAdjust="spacing" textLength="40" x="382" y="23.8375">Verifier</text><text fill="#000000" font-family="Lato,sans-serif" font-size="12" font-style="italic" lengthAdjust="spacing" textLength="59" x="424" y="23.8375">(Server role)</text><path d="M89,49.3921 L89,73.3921 L485,73.3921 L485,59.3921 L475,49.3921 L89,49.3921 " fill="#E8E8E8" style="stroke:#181818;stroke-width:1.0;"/><path d="M475,49.3921 L475,59.3921 L485,59.3921 L475,49.3921 " fill="#E8E8E8" style="stroke:#181818;stroke-width:1.0;"/><text fill="#000000" font-family="Lato,sans-serif" font-size="12" lengthAdjust="spacing" textLength="173" x="115" y="66.2296">Shared information : cipher suite,</text><text fill="#000000" font-family="Lato,sans-serif" font-size="12" font-style="italic" lengthAdjust="spacing" textLength="42" x="290" y="66.2296">ProverId</text><text fill="#000000" font-family="Lato,sans-serif" font-size="12" lengthAdjust="spacing" textLength="3" x="332" y="66.2296">,</text><text fill="#000000" font-family="Lato,sans-serif" font-size="12" font-style="italic" lengthAdjust="spacing" textLength="47" x="337" y="66.2296">VerifierId</text><text fill="#000000" font-family="Lato,sans-serif" font-size="12" lengthAdjust="spacing" textLength="25" x="384" y="66.2296">, and</text><text fill="#000000" font-family="Lato,sans-serif" font-size="12" font-style="italic" lengthAdjust="spacing" textLength="39" x="411" y="66.2296">Context</text><path d="M291,83.7842 L291,107.7842 L574,107.7842 L574,93.7842 L564,83.7842 L291,83.7842 " fill="#E8E8E8" style="stroke:#181818;stroke-width:1.0;"/><path d="M564,83.7842 L564,93.7842 L574,93.7842 L564,83.7842 " fill="#E8E8E8" style="stroke:#181818;stroke-width:1.0;"/><text fill="#000000" font-family="Lato,sans-serif" font-size="12" lengthAdjust="spacing" textLength="108" x="297" y="100.6217">Registration record (</text><text fill="#000000" font-family="Lato,sans-serif" font-size="12" font-style="italic" lengthAdjust="spacing" textLength="16" x="405" y="100.6217">w0</text><text fill="#000000" font-family="Lato,sans-serif" font-size="12" lengthAdjust="spacing" textLength="3" x="421" y="100.6217">,</text><text fill="#000000" font-family="Lato,sans-serif" font-size="12" font-style="italic" lengthAdjust="spacing" textLength="6" x="426" y="100.6217">L</text><text fill="#000000" font-family="Lato,sans-serif" font-size="12" lengthAdjust="spacing" textLength="127" x="432" y="100.6217">) derived from password</text><path d="M5,83.7842 L5,107.7842 L281,107.7842 L281,93.7842 L271,83.7842 L5,83.7842 " fill="#E8E8E8" style="stroke:#181818;stroke-width:1.0;"/><path d="M271,83.7842 L271,93.7842 L281,93.7842 L271,83.7842 " fill="#E8E8E8" style="stroke:#181818;stroke-width:1.0;"/><text fill="#000000" font-family="Lato,sans-serif" font-size="12" lengthAdjust="spacing" textLength="91" x="11" y="100.6217">Prover 'key pair' (</text><text fill="#000000" font-family="Lato,sans-serif" font-size="12" font-style="italic" lengthAdjust="spacing" textLength="16" x="102" y="100.6217">w0</text><text fill="#000000" font-family="Lato,sans-serif" font-size="12" lengthAdjust="spacing" textLength="3" x="118" y="100.6217">,</text><text fill="#000000" font-family="Lato,sans-serif" font-size="12" font-style="italic" lengthAdjust="spacing" textLength="16" x="123" y="100.6217">w1</text><text fill="#000000" font-family="Lato,sans-serif" font-size="12" lengthAdjust="spacing" textLength="127" x="139" y="100.6217">) derived from password</text><line style="stroke:#000000;stroke-width:1.0;" x1="143" x2="185" y1="217.7715" y2="217.7715"/><line style="stroke:#000000;stroke-width:1.0;" x1="185" x2="185" y1="217.7715" y2="230.7715"/><line style="stroke:#000000;stroke-width:1.0;" x1="144" x2="185" y1="230.7715" y2="230.7715"/><polygon fill="#000000" points="154,226.7715,144,230.7715,154,234.7715" style="stroke:#000000;stroke-width:1.0;"/><text fill="#000000" font-family="Consolas,Menlo,monospace" font-size="12" lengthAdjust="spacing" textLength="112" x="150" y="157.5059">psa_pake_setup()</text><text fill="#000000" font-family="Lato,sans-serif" font-size="12" lengthAdjust="spacing" textLength="49" x="264" y="157.0138">with key (</text><text fill="#000000" font-family="Lato,sans-serif" font-size="12" font-style="italic" lengthAdjust="spacing" textLength="16" x="313" y="157.0138">w0</text><text fill="#000000" font-family="Lato,sans-serif" font-size="12" lengthAdjust="spacing" textLength="3" x="329" y="157.0138">,</text><text fill="#000000" font-family="Lato,sans-serif" font-size="12" font-style="italic" lengthAdjust="spacing" textLength="16" x="334" y="157.0138">w1</text><text fill="#000000" font-family="Lato,sans-serif" font-size="12" lengthAdjust="spacing" textLength="4" x="350" y="157.0138">)</text><text fill="#000000" font-family="Consolas,Menlo,monospace" font-size="12" lengthAdjust="spacing" textLength="273" x="150" y="171.5566">psa_pake_set_role(PSA_PAKE_ROLE_CLIENT)</text><text fill="#000000" font-family="Consolas,Menlo,monospace" font-size="12" lengthAdjust="spacing" textLength="189" x="150" y="185.6074">psa_pake_set_user(ProverId)</text><text fill="#000000" font-family="Consolas,Menlo,monospace" font-size="12" lengthAdjust="spacing" textLength="203" x="150" y="199.6582">psa_pake_set_peer(VerifierId)</text><text fill="#000000" font-family="Consolas,Menlo,monospace" font-size="12" lengthAdjust="spacing" textLength="203" x="150" y="213.709">psa_pake_set_context(Context)</text><path d="M78,243.7715 L78,267.7715 L208,267.7715 L208,253.7715 L198,243.7715 L78,243.7715 " fill="#E8E8E8" style="stroke:#181818;stroke-width:1.0;"/><path d="M198,243.7715 L198,253.7715 L208,253.7715 L198,243.7715 " fill="#E8E8E8" style="stroke:#181818;stroke-width:1.0;"/><text fill="#000000" font-family="Lato,sans-serif" font-size="12" lengthAdjust="spacing" textLength="100" x="84" y="260.609">Generate key share</text><text fill="#000000" font-family="Lato,sans-serif" font-size="12" font-style="italic" lengthAdjust="spacing" textLength="7" x="186" y="260.609">X</text><line style="stroke:#000000;stroke-width:1.0;" x1="143" x2="185" y1="293.5557" y2="293.5557"/><line style="stroke:#000000;stroke-width:1.0;" x1="185" x2="185" y1="293.5557" y2="306.5557"/><line style="stroke:#000000;stroke-width:1.0;" x1="144" x2="185" y1="306.5557" y2="306.5557"/><polygon fill="#000000" points="154,302.5557,144,306.5557,154,310.5557" style="stroke:#000000;stroke-width:1.0;"/><text fill="#000000" font-family="Consolas,Menlo,monospace" font-size="12" lengthAdjust="spacing" textLength="119" x="150" y="289.4932">psa_pake_output()</text><text fill="#000000" font-family="Lato,sans-serif" font-size="12" lengthAdjust="spacing" textLength="16" x="271" y="289.0011">for</text><text fill="#000000" font-family="Lato,sans-serif" font-size="12" font-style="italic" lengthAdjust="spacing" textLength="34" x="289" y="289.0011">shareP</text><text fill="#000000" font-family="Lato,sans-serif" font-size="12" lengthAdjust="spacing" textLength="7" x="325" y="289.0011">=</text><text fill="#000000" font-family="Lato,sans-serif" font-size="12" font-style="italic" lengthAdjust="spacing" textLength="7" x="334" y="289.0011">X</text><line style="stroke:#000000;stroke-width:1.0;" x1="430.5" x2="420.5" y1="334.9478" y2="330.9478"/><line style="stroke:#000000;stroke-width:1.0;" x1="430.5" x2="420.5" y1="334.9478" y2="338.9478"/><line style="stroke:#000000;stroke-width:1.0;" x1="143" x2="431.5" y1="334.9478" y2="334.9478"/><text fill="#000000" font-family="Lato,sans-serif" font-size="12" lengthAdjust="spacing" textLength="4" x="150" y="330.3932">(</text><text fill="#000000" font-family="Lato,sans-serif" font-size="12" font-style="italic" lengthAdjust="spacing" textLength="34" x="154" y="330.3932">shareP</text><text fill="#000000" font-family="Lato,sans-serif" font-size="12" lengthAdjust="spacing" textLength="4" x="188" y="330.3932">)</text><line style="stroke:#000000;stroke-width:1.0;" x1="432.5" x2="474.5" y1="419.543" y2="419.543"/><line style="stroke:#000000;stroke-width:1.0;" x1="474.5" x2="474.5" y1="419.543" y2="432.543"/><line style="stroke:#000000;stroke-width:1.0;" x1="433.5" x2="474.5" y1="432.543" y2="432.543"/><polygon fill="#000000" points="443.5,428.543,433.5,432.543,443.5,436.543" style="stroke:#000000;stroke-width:1.0;"/><text fill="#000000" font-family="Consolas,Menlo,monospace" font-size="12" lengthAdjust="spacing" textLength="112" x="439.5" y="359.2773">psa_pake_setup()</text><text fill="#000000" font-family="Lato,sans-serif" font-size="12" lengthAdjust="spacing" textLength="49" x="553.5" y="358.7852">with key (</text><text fill="#000000" font-family="Lato,sans-serif" font-size="12" font-style="italic" lengthAdjust="spacing" textLength="16" x="602.5" y="358.7852">w0</text><text fill="#000000" font-family="Lato,sans-serif" font-size="12" lengthAdjust="spacing" textLength="3" x="618.5" y="358.7852">,</text><text fill="#000000" font-family="Lato,sans-serif" font-size="12" font-style="italic" lengthAdjust="spacing" textLength="6" x="623.5" y="358.7852">L</text><text fill="#000000" font-family="Lato,sans-serif" font-size="12" lengthAdjust="spacing" textLength="4" x="629.5" y="358.7852">)</text><text fill="#000000" font-family="Consolas,Menlo,monospace" font-size="12" lengthAdjust="spacing" textLength="273" x="439.5" y="373.3281">psa_pake_set_role(PSA_PAKE_ROLE_SERVER)</text><text fill="#000000" font-family="Consolas,Menlo,monospace" font-size="12" lengthAdjust="spacing" textLength="203" x="439.5" y="387.3789">psa_pake_set_user(VerifierId)</text><text fill="#000000" font-family="Consolas,Menlo,monospace" font-size="12" lengthAdjust="spacing" textLength="189" x="439.5" y="401.4297">psa_pake_set_peer(ProverId)</text><text fill="#000000" font-family="Consolas,Menlo,monospace" font-size="12" lengthAdjust="spacing" textLength="203" x="439.5" y="415.4805">psa_pake_set_context(Context)</text><path d="M367,445.543 L367,469.543 L497,469.543 L497,455.543 L487,445.543 L367,445.543 " fill="#E8E8E8" style="stroke:#181818;stroke-width:1.0;"/><path d="M487,445.543 L487,455.543 L497,455.543 L487,445.543 " fill="#E8E8E8" style="stroke:#181818;stroke-width:1.0;"/><text fill="#000000" font-family="Lato,sans-serif" font-size="12" lengthAdjust="spacing" textLength="100" x="373" y="462.3805">Generate key share</text><text fill="#000000" font-family="Lato,sans-serif" font-size="12" font-style="italic" lengthAdjust="spacing" textLength="7" x="475" y="462.3805">Y</text><line style="stroke:#000000;stroke-width:1.0;" x1="432.5" x2="474.5" y1="495.3271" y2="495.3271"/><line style="stroke:#000000;stroke-width:1.0;" x1="474.5" x2="474.5" y1="495.3271" y2="508.3271"/><line style="stroke:#000000;stroke-width:1.0;" x1="433.5" x2="474.5" y1="508.3271" y2="508.3271"/><polygon fill="#000000" points="443.5,504.3271,433.5,508.3271,443.5,512.3271" style="stroke:#000000;stroke-width:1.0;"/><text fill="#000000" font-family="Consolas,Menlo,monospace" font-size="12" lengthAdjust="spacing" textLength="112" x="439.5" y="491.2646">psa_pake_input()</text><text fill="#000000" font-family="Lato,sans-serif" font-size="12" lengthAdjust="spacing" textLength="16" x="553.5" y="490.7726">for</text><text fill="#000000" font-family="Lato,sans-serif" font-size="12" font-style="italic" lengthAdjust="spacing" textLength="34" x="571.5" y="490.7726">shareP</text><path d="M313,521.3271 L313,559.3271 L551,559.3271 L551,531.3271 L541,521.3271 L313,521.3271 " fill="#E8E8E8" style="stroke:#181818;stroke-width:1.0;"/><path d="M541,521.3271 L541,531.3271 L551,531.3271 L541,521.3271 " fill="#E8E8E8" style="stroke:#181818;stroke-width:1.0;"/><text fill="#000000" font-family="Lato,sans-serif" font-size="12" lengthAdjust="spacing" textLength="43" x="319" y="538.1646">Validate</text><text fill="#000000" font-family="Lato,sans-serif" font-size="12" font-style="italic" lengthAdjust="spacing" textLength="34" x="364" y="538.1646">shareP</text><text fill="#000000" font-family="Lato,sans-serif" font-size="12" lengthAdjust="spacing" textLength="49" x="319" y="552.5567">Compute</text><text fill="#000000" font-family="Lato,sans-serif" font-size="12" font-style="italic" lengthAdjust="spacing" textLength="45" x="370" y="552.5567">K_shared</text><text fill="#000000" font-family="Lato,sans-serif" font-size="12" lengthAdjust="spacing" textLength="3" x="415" y="552.5567">,</text><text fill="#000000" font-family="Lato,sans-serif" font-size="12" font-style="italic" lengthAdjust="spacing" textLength="47" x="420" y="552.5567">confirmP'</text><text fill="#000000" font-family="Lato,sans-serif" font-size="12" lengthAdjust="spacing" textLength="20" x="469" y="552.5567">and</text><text fill="#000000" font-family="Lato,sans-serif" font-size="12" font-style="italic" lengthAdjust="spacing" textLength="45" x="491" y="552.5567">confirmV</text><line style="stroke:#000000;stroke-width:1.0;" x1="432.5" x2="474.5" y1="585.5034" y2="585.5034"/><line style="stroke:#000000;stroke-width:1.0;" x1="474.5" x2="474.5" y1="585.5034" y2="598.5034"/><line style="stroke:#000000;stroke-width:1.0;" x1="433.5" x2="474.5" y1="598.5034" y2="598.5034"/><polygon fill="#000000" points="443.5,594.5034,433.5,598.5034,443.5,602.5034" style="stroke:#000000;stroke-width:1.0;"/><text fill="#000000" font-family="Consolas,Menlo,monospace" font-size="12" lengthAdjust="spacing" textLength="119" x="439.5" y="581.4409">psa_pake_output()</text><text fill="#000000" font-family="Lato,sans-serif" font-size="12" lengthAdjust="spacing" textLength="16" x="560.5" y="580.9488">for</text><text fill="#000000" font-family="Lato,sans-serif" font-size="12" font-style="italic" lengthAdjust="spacing" textLength="35" x="578.5" y="580.9488">shareV</text><text fill="#000000" font-family="Lato,sans-serif" font-size="12" lengthAdjust="spacing" textLength="7" x="615.5" y="580.9488">=</text><text fill="#000000" font-family="Lato,sans-serif" font-size="12" font-style="italic" lengthAdjust="spacing" textLength="7" x="624.5" y="580.9488">Y</text><text fill="#000000" font-family="Lato,sans-serif" font-size="12" lengthAdjust="spacing" textLength="20" x="633.5" y="580.9488">and</text><text fill="#000000" font-family="Lato,sans-serif" font-size="12" font-style="italic" lengthAdjust="spacing" textLength="45" x="655.5" y="580.9488">confirmV</text><line style="stroke:#000000;stroke-width:1.0;" x1="144" x2="154" y1="626.8955" y2="622.8955"/><line style="stroke:#000000;stroke-width:1.0;" x1="144" x2="154" y1="626.8955" y2="630.8955"/><line style="stroke:#000000;stroke-width:1.0;" x1="143" x2="431.5" y1="626.8955" y2="626.8955"/><text fill="#000000" font-family="Lato,sans-serif" font-size="12" lengthAdjust="spacing" textLength="4" x="160" y="622.3409">(</text><text fill="#000000" font-family="Lato,sans-serif" font-size="12" font-style="italic" lengthAdjust="spacing" textLength="35" x="164" y="622.3409">shareV</text><text fill="#000000" font-family="Lato,sans-serif" font-size="12" lengthAdjust="spacing" textLength="3" x="199" y="622.3409">,</text><text fill="#000000" font-family="Lato,sans-serif" font-size="12" font-style="italic" lengthAdjust="spacing" textLength="45" x="204" y="622.3409">confirmV</text><text fill="#000000" font-family="Lato,sans-serif" font-size="12" lengthAdjust="spacing" textLength="4" x="249" y="622.3409">)</text><line style="stroke:#000000;stroke-width:1.0;" x1="143" x2="185" y1="655.2876" y2="655.2876"/><line style="stroke:#000000;stroke-width:1.0;" x1="185" x2="185" y1="655.2876" y2="668.2876"/><line style="stroke:#000000;stroke-width:1.0;" x1="144" x2="185" y1="668.2876" y2="668.2876"/><polygon fill="#000000" points="154,664.2876,144,668.2876,154,672.2876" style="stroke:#000000;stroke-width:1.0;"/><text fill="#000000" font-family="Consolas,Menlo,monospace" font-size="12" lengthAdjust="spacing" textLength="112" x="150" y="651.2251">psa_pake_input()</text><text fill="#000000" font-family="Lato,sans-serif" font-size="12" lengthAdjust="spacing" textLength="16" x="264" y="650.733">for</text><text fill="#000000" font-family="Lato,sans-serif" font-size="12" font-style="italic" lengthAdjust="spacing" textLength="35" x="282" y="650.733">shareV</text><path d="M24,681.2876 L24,719.2876 L262,719.2876 L262,691.2876 L252,681.2876 L24,681.2876 " fill="#E8E8E8" style="stroke:#181818;stroke-width:1.0;"/><path d="M252,681.2876 L252,691.2876 L262,691.2876 L252,681.2876 " fill="#E8E8E8" style="stroke:#181818;stroke-width:1.0;"/><text fill="#000000" font-family="Lato,sans-serif" font-size="12" lengthAdjust="spacing" textLength="43" x="30" y="698.1251">Validate</text><text fill="#000000" font-family="Lato,sans-serif" font-size="12" font-style="italic" lengthAdjust="spacing" textLength="35" x="75" y="698.1251">shareV</text><text fill="#000000" font-family="Lato,sans-serif" font-size="12" lengthAdjust="spacing" textLength="49" x="30" y="712.5172">Compute</text><text fill="#000000" font-family="Lato,sans-serif" font-size="12" font-style="italic" lengthAdjust="spacing" textLength="45" x="81" y="712.5172">K_shared</text><text fill="#000000" font-family="Lato,sans-serif" font-size="12" lengthAdjust="spacing" textLength="3" x="126" y="712.5172">,</text><text fill="#000000" font-family="Lato,sans-serif" font-size="12" font-style="italic" lengthAdjust="spacing" textLength="44" x="131" y="712.5172">confirmP</text><text fill="#000000" font-family="Lato,sans-serif" font-size="12" lengthAdjust="spacing" textLength="20" x="177" y="712.5172">and</text><text fill="#000000" font-family="Lato,sans-serif" font-size="12" font-style="italic" lengthAdjust="spacing" textLength="48" x="199" y="712.5172">confirmV'</text><line style="stroke:#000000;stroke-width:1.0;" x1="143" x2="185" y1="745.4639" y2="745.4639"/><line style="stroke:#000000;stroke-width:1.0;" x1="185" x2="185" y1="745.4639" y2="758.4639"/><line style="stroke:#000000;stroke-width:1.0;" x1="144" x2="185" y1="758.4639" y2="758.4639"/><polygon fill="#000000" points="154,754.4639,144,758.4639,154,762.4639" style="stroke:#000000;stroke-width:1.0;"/><text fill="#000000" font-family="Consolas,Menlo,monospace" font-size="12" lengthAdjust="spacing" textLength="119" x="150" y="741.4014">psa_pake_output()</text><text fill="#000000" font-family="Lato,sans-serif" font-size="12" lengthAdjust="spacing" textLength="16" x="271" y="740.9093">for</text><text fill="#000000" font-family="Lato,sans-serif" font-size="12" font-style="italic" lengthAdjust="spacing" textLength="44" x="289" y="740.9093">confirmP</text><line style="stroke:#000000;stroke-width:1.0;" x1="430.5" x2="420.5" y1="786.856" y2="782.856"/><line style="stroke:#000000;stroke-width:1.0;" x1="430.5" x2="420.5" y1="786.856" y2="790.856"/><line style="stroke:#000000;stroke-width:1.0;" x1="143" x2="431.5" y1="786.856" y2="786.856"/><text fill="#000000" font-family="Lato,sans-serif" font-size="12" lengthAdjust="spacing" textLength="4" x="150" y="782.3014">(</text><text fill="#000000" font-family="Lato,sans-serif" font-size="12" font-style="italic" lengthAdjust="spacing" textLength="44" x="154" y="782.3014">confirmP</text><text fill="#000000" font-family="Lato,sans-serif" font-size="12" lengthAdjust="spacing" textLength="4" x="198" y="782.3014">)</text><line style="stroke:#000000;stroke-width:1.0;" x1="143" x2="185" y1="815.248" y2="815.248"/><line style="stroke:#000000;stroke-width:1.0;" x1="185" x2="185" y1="815.248" y2="828.248"/><line style="stroke:#000000;stroke-width:1.0;" x1="144" x2="185" y1="828.248" y2="828.248"/><polygon fill="#000000" points="154,824.248,144,828.248,154,832.248" style="stroke:#000000;stroke-width:1.0;"/><text fill="#000000" font-family="Consolas,Menlo,monospace" font-size="12" lengthAdjust="spacing" textLength="112" x="150" y="811.1855">psa_pake_input()</text><text fill="#000000" font-family="Lato,sans-serif" font-size="12" lengthAdjust="spacing" textLength="16" x="264" y="810.6935">for</text><text fill="#000000" font-family="Lato,sans-serif" font-size="12" font-style="italic" lengthAdjust="spacing" textLength="45" x="282" y="810.6935">confirmV</text><path d="M52,841.248 L52,865.248 L234,865.248 L234,851.248 L224,841.248 L52,841.248 " fill="#E8E8E8" style="stroke:#181818;stroke-width:1.0;"/><path d="M224,841.248 L224,851.248 L234,851.248 L224,841.248 " fill="#E8E8E8" style="stroke:#181818;stroke-width:1.0;"/><text fill="#000000" font-family="Lato,sans-serif" font-size="12" lengthAdjust="spacing" textLength="55" x="58" y="858.0855">Verify that</text><text fill="#000000" font-family="Lato,sans-serif" font-size="12" font-style="italic" lengthAdjust="spacing" textLength="48" x="115" y="858.0855">confirmV'</text><text fill="#000000" font-family="Lato,sans-serif" font-size="12" lengthAdjust="spacing" textLength="7" x="165" y="858.0855">=</text><text fill="#000000" font-family="Lato,sans-serif" font-size="12" font-style="italic" lengthAdjust="spacing" textLength="45" x="174" y="858.0855">confirmV</text><line style="stroke:#000000;stroke-width:1.0;" x1="143" x2="185" y1="891.0322" y2="891.0322"/><line style="stroke:#000000;stroke-width:1.0;" x1="185" x2="185" y1="891.0322" y2="904.0322"/><line style="stroke:#000000;stroke-width:1.0;" x1="144" x2="185" y1="904.0322" y2="904.0322"/><polygon fill="#000000" points="154,900.0322,144,904.0322,154,908.0322" style="stroke:#000000;stroke-width:1.0;"/><text fill="#000000" font-family="Consolas,Menlo,monospace" font-size="12" lengthAdjust="spacing" textLength="175" x="150" y="886.9697">psa_pake_get_shared_key()</text><text fill="#000000" font-family="Lato,sans-serif" font-size="12" lengthAdjust="spacing" textLength="50" x="327" y="886.4776">to extract</text><text fill="#000000" font-family="Lato,sans-serif" font-size="12" font-style="italic" lengthAdjust="spacing" textLength="45" x="379" y="886.4776">K_shared</text><line style="stroke:#000000;stroke-width:1.0;" x1="432.5" x2="474.5" y1="932.4243" y2="932.4243"/><line style="stroke:#000000;stroke-width:1.0;" x1="474.5" x2="474.5" y1="932.4243" y2="945.4243"/><line style="stroke:#000000;stroke-width:1.0;" x1="433.5" x2="474.5" y1="945.4243" y2="945.4243"/><polygon fill="#000000" points="443.5,941.4243,433.5,945.4243,443.5,949.4243" style="stroke:#000000;stroke-width:1.0;"/><text fill="#000000" font-family="Consolas,Menlo,monospace" font-size="12" lengthAdjust="spacing" textLength="112" x="439.5" y="928.3618">psa_pake_input()</text><text fill="#000000" font-family="Lato,sans-serif" font-size="12" lengthAdjust="spacing" textLength="16" x="553.5" y="927.8697">for</text><text fill="#000000" font-family="Lato,sans-serif" font-size="12" font-style="italic" lengthAdjust="spacing" textLength="44" x="571.5" y="927.8697">confirmP</text><path d="M342,958.4243 L342,982.4243 L522,982.4243 L522,968.4243 L512,958.4243 L342,958.4243 " fill="#E8E8E8" style="stroke:#181818;stroke-width:1.0;"/><path d="M512,958.4243 L512,968.4243 L522,968.4243 L512,958.4243 " fill="#E8E8E8" style="stroke:#181818;stroke-width:1.0;"/><text fill="#000000" font-family="Lato,sans-serif" font-size="12" lengthAdjust="spacing" textLength="55" x="348" y="975.2618">Verify that</text><text fill="#000000" font-family="Lato,sans-serif" font-size="12" font-style="italic" lengthAdjust="spacing" textLength="47" x="405" y="975.2618">confirmP'</text><text fill="#000000" font-family="Lato,sans-serif" font-size="12" lengthAdjust="spacing" textLength="7" x="454" y="975.2618">=</text><text fill="#000000" font-family="Lato,sans-serif" font-size="12" font-style="italic" lengthAdjust="spacing" textLength="44" x="463" y="975.2618">confirmP</text><line style="stroke:#000000;stroke-width:1.0;" x1="432.5" x2="474.5" y1="1008.2085" y2="1008.2085"/><line style="stroke:#000000;stroke-width:1.0;" x1="474.5" x2="474.5" y1="1008.2085" y2="1021.2085"/><line style="stroke:#000000;stroke-width:1.0;" x1="433.5" x2="474.5" y1="1021.2085" y2="1021.2085"/><polygon fill="#000000" points="443.5,1017.2085,433.5,1021.2085,443.5,1025.2085" style="stroke:#000000;stroke-width:1.0;"/><text fill="#000000" font-family="Consolas,Menlo,monospace" font-size="12" lengthAdjust="spacing" textLength="175" x="439.5" y="1004.146">psa_pake_get_shared_key()</text><text fill="#000000" font-family="Lato,sans-serif" font-size="12" lengthAdjust="spacing" textLength="50" x="616.5" y="1003.6539">to extract</text><text fill="#000000" font-family="Lato,sans-serif" font-size="12" font-style="italic" lengthAdjust="spacing" textLength="45" x="668.5" y="1003.6539">K_shared</text></g></svg>