<?xml version="1.0" encoding="UTF-8" standalone="no"?><svg xmlns="http://www.w3.org/2000/svg" xmlns:xlink="http://www.w3.org/1999/xlink" contentStyleType="text/css" height="827px" preserveAspectRatio="none" style="width:725px;height:827px;background:#FFFFFF55;" version="1.1" viewBox="0 0 725 827" width="725px" zoomAndPan="magnify"><defs/><g><line style="stroke:#808080;stroke-width:0.5;stroke-dasharray:5.0,5.0;" x1="147" x2="147" y1="34.3921" y2="820.0322"/><line style="stroke:#808080;stroke-width:0.5;stroke-dasharray:5.0,5.0;" x1="436" x2="436" y1="34.3921" y2="820.0322"/><rect fill="#FFFFFF" height="28.3921" rx="4" ry="4" style="stroke:#000000;stroke-width:1.0;" width="108" x="93" y="5"/><text fill="#000000" font-family="Lato,sans-serif" font-size="12" lengthAdjust="spacing" textLength="36" x="100" y="23.8375">Prover</text><text fill="#000000" font-family="Lato,sans-serif" font-size="12" font-style="italic" lengthAdjust="spacing" textLength="56" x="138" y="23.8375">(Client role)</text><rect fill="#FFFFFF" height="28.3921" rx="4" ry="4" style="stroke:#000000;stroke-width:1.0;" width="115" x="379" y="5"/><text fill="#000000" font-family="Lato,sans-serif" font-size="12" lengthAdjust="spacing" textLength="40" x="386" y="23.8375">Verifier</text><text fill="#000000" font-family="Lato,sans-serif" font-size="12" font-style="italic" lengthAdjust="spacing" textLength="59" x="428" y="23.8375">(Server role)</text><path d="M93,53.3921 L93,69.3921 A4,4 0 0 0 97,73.3921 L485,73.3921 A4,4 0 0 0 489,69.3921 L489,59.3921 L479,49.3921 L97,49.3921 A4,4 0 0 0 93,53.3921 " fill="#E8E8E8" style="stroke:#181818;stroke-width:1.0;"/><path d="M479,49.3921 L479,57.3921 A2,2 0 0 0 481,59.3921 L489,59.3921 L479,49.3921 " fill="#E8E8E8" style="stroke:#181818;stroke-width:1.0;"/><text fill="#000000" font-family="Lato,sans-serif" font-size="12" lengthAdjust="spacing" textLength="173" x="119" y="66.2296">Shared information : cipher suite,</text><text fill="#000000" font-family="Lato,sans-serif" font-size="12" font-style="italic" lengthAdjust="spacing" textLength="42" x="294" y="66.2296">ProverId</text><text fill="#000000" font-family="Lato,sans-serif" font-size="12" lengthAdjust="spacing" textLength="3" x="336" y="66.2296">,</text><text fill="#000000" font-family="Lato,sans-serif" font-size="12" font-style="italic" lengthAdjust="spacing" textLength="47" x="341" y="66.2296">VerifierId</text><text fill="#000000" font-family="Lato,sans-serif" font-size="12" lengthAdjust="spacing" textLength="25" x="388" y="66.2296">, and</text><text fill="#000000" font-family="Lato,sans-serif" font-size="12" font-style="italic" lengthAdjust="spacing" textLength="39" x="415" y="66.2296">Context</text><path d="M295,87.7842 L295,103.7842 A4,4 0 0 0 299,107.7842 L574,107.7842 A4,4 0 0 0 578,103.7842 L578,93.7842 L568,83.7842 L299,83.7842 A4,4 0 0 0 295,87.7842 " fill="#E8E8E8" style="stroke:#181818;stroke-width:1.0;"/><path d="M568,83.7842 L568,91.7842 A2,2 0 0 0 570,93.7842 L578,93.7842 L568,83.7842 " fill="#E8E8E8" style="stroke:#181818;stroke-width:1.0;"/><text fill="#000000" font-family="Lato,sans-serif" font-size="12" lengthAdjust="spacing" textLength="108" x="301" y="100.6217">Registration record (</text><text fill="#000000" font-family="Lato,sans-serif" font-size="12" font-style="italic" lengthAdjust="spacing" textLength="16" x="409" y="100.6217">w0</text><text fill="#000000" font-family="Lato,sans-serif" font-size="12" lengthAdjust="spacing" textLength="3" x="425" y="100.6217">,</text><text fill="#000000" font-family="Lato,sans-serif" font-size="12" font-style="italic" lengthAdjust="spacing" textLength="6" x="430" y="100.6217">L</text><text fill="#000000" font-family="Lato,sans-serif" font-size="12" lengthAdjust="spacing" textLength="127" x="436" y="100.6217">) derived from password</text><path d="M9,87.7842 L9,103.7842 A4,4 0 0 0 13,107.7842 L281,107.7842 A4,4 0 0 0 285,103.7842 L285,93.7842 L275,83.7842 L13,83.7842 A4,4 0 0 0 9,87.7842 " fill="#E8E8E8" style="stroke:#181818;stroke-width:1.0;"/><path d="M275,83.7842 L275,91.7842 A2,2 0 0 0 277,93.7842 L285,93.7842 L275,83.7842 " fill="#E8E8E8" style="stroke:#181818;stroke-width:1.0;"/><text fill="#000000" font-family="Lato,sans-serif" font-size="12" lengthAdjust="spacing" textLength="91" x="15" y="100.6217">Prover 'key pair' (</text><text fill="#000000" font-family="Lato,sans-serif" font-size="12" font-style="italic" lengthAdjust="spacing" textLength="16" x="106" y="100.6217">w0</text><text fill="#000000" font-family="Lato,sans-serif" font-size="12" lengthAdjust="spacing" textLength="3" x="122" y="100.6217">,</text><text fill="#000000" font-family="Lato,sans-serif" font-size="12" font-style="italic" lengthAdjust="spacing" textLength="16" x="127" y="100.6217">w1</text><text fill="#000000" font-family="Lato,sans-serif" font-size="12" lengthAdjust="spacing" textLength="127" x="143" y="100.6217">) derived from password</text><line style="stroke:#000000;stroke-width:1.0;" x1="147" x2="189" y1="189.7715" y2="189.7715"/><line style="stroke:#000000;stroke-width:1.0;" x1="189" x2="189" y1="189.7715" y2="202.7715"/><line style="stroke:#000000;stroke-width:1.0;" x1="148" x2="189" y1="202.7715" y2="202.7715"/><polygon fill="#000000" points="158,198.7715,148,202.7715,158,206.7715" style="stroke:#000000;stroke-width:1.0;"/><text fill="#000000" font-family="Consolas,Menlo,monospace" font-size="12" lengthAdjust="spacing" textLength="112" x="154" y="129.5059">psa_pake_setup()</text><text fill="#000000" font-family="Lato,sans-serif" font-size="12" lengthAdjust="spacing" textLength="49" x="268" y="129.0138">with key (</text><text fill="#000000" font-family="Lato,sans-serif" font-size="12" font-style="italic" lengthAdjust="spacing" textLength="16" x="317" y="129.0138">w0</text><text fill="#000000" font-family="Lato,sans-serif" font-size="12" lengthAdjust="spacing" textLength="3" x="333" y="129.0138">,</text><text fill="#000000" font-family="Lato,sans-serif" font-size="12" font-style="italic" lengthAdjust="spacing" textLength="16" x="338" y="129.0138">w1</text><text fill="#000000" font-family="Lato,sans-serif" font-size="12" lengthAdjust="spacing" textLength="4" x="354" y="129.0138">)</text><text fill="#000000" font-family="Consolas,Menlo,monospace" font-size="12" lengthAdjust="spacing" textLength="273" x="154" y="143.5566">psa_pake_set_role(PSA_PAKE_ROLE_CLIENT)</text><text fill="#000000" font-family="Consolas,Menlo,monospace" font-size="12" lengthAdjust="spacing" textLength="189" x="154" y="157.6074">psa_pake_set_user(ProverId)</text><text fill="#000000" font-family="Consolas,Menlo,monospace" font-size="12" lengthAdjust="spacing" textLength="203" x="154" y="171.6582">psa_pake_set_peer(VerifierId)</text><text fill="#000000" font-family="Consolas,Menlo,monospace" font-size="12" lengthAdjust="spacing" textLength="203" x="154" y="185.709">psa_pake_set_context(Context)</text><line style="stroke:#000000;stroke-width:1.0;" x1="147" x2="189" y1="231.1636" y2="231.1636"/><line style="stroke:#000000;stroke-width:1.0;" x1="189" x2="189" y1="231.1636" y2="244.1636"/><line style="stroke:#000000;stroke-width:1.0;" x1="148" x2="189" y1="244.1636" y2="244.1636"/><polygon fill="#000000" points="158,240.1636,148,244.1636,158,248.1636" style="stroke:#000000;stroke-width:1.0;"/><text fill="#000000" font-family="Consolas,Menlo,monospace" font-size="12" lengthAdjust="spacing" textLength="119" x="154" y="227.1011">psa_pake_output()</text><text fill="#000000" font-family="Lato,sans-serif" font-size="12" lengthAdjust="spacing" textLength="16" x="275" y="226.609">for</text><text fill="#000000" font-family="Lato,sans-serif" font-size="12" font-style="italic" lengthAdjust="spacing" textLength="34" x="293" y="226.609">shareP</text><text fill="#000000" font-family="Lato,sans-serif" font-size="12" lengthAdjust="spacing" textLength="7" x="329" y="226.609">=</text><text fill="#000000" font-family="Lato,sans-serif" font-size="12" font-style="italic" lengthAdjust="spacing" textLength="7" x="338" y="226.609">X</text><path d="M12,223.2715 L12,239.2715 A4,4 0 0 0 16,243.2715 L138,243.2715 A4,4 0 0 0 142,239.2715 L142,229.2715 L132,219.2715 L16,219.2715 A4,4 0 0 0 12,223.2715 " fill="#E8E8E8" style="stroke:#181818;stroke-width:1.0;"/><path d="M132,219.2715 L132,227.2715 A2,2 0 0 0 134,229.2715 L142,229.2715 L132,219.2715 " fill="#E8E8E8" style="stroke:#181818;stroke-width:1.0;"/><text fill="#000000" font-family="Lato,sans-serif" font-size="12" lengthAdjust="spacing" textLength="100" x="18" y="236.109">Generate key share</text><text fill="#000000" font-family="Lato,sans-serif" font-size="12" font-style="italic" lengthAdjust="spacing" textLength="7" x="120" y="236.109">X</text><line style="stroke:#000000;stroke-width:1.0;" x1="434.5" x2="424.5" y1="272.5557" y2="268.5557"/><line style="stroke:#000000;stroke-width:1.0;" x1="434.5" x2="424.5" y1="272.5557" y2="276.5557"/><line style="stroke:#000000;stroke-width:1.0;" x1="147" x2="435.5" y1="272.5557" y2="272.5557"/><text fill="#000000" font-family="Lato,sans-serif" font-size="12" lengthAdjust="spacing" textLength="4" x="154" y="268.0011">(</text><text fill="#000000" font-family="Lato,sans-serif" font-size="12" font-style="italic" lengthAdjust="spacing" textLength="34" x="158" y="268.0011">shareP</text><text fill="#000000" font-family="Lato,sans-serif" font-size="12" lengthAdjust="spacing" textLength="4" x="192" y="268.0011">)</text><line style="stroke:#000000;stroke-width:1.0;" x1="436.5" x2="478.5" y1="357.1509" y2="357.1509"/><line style="stroke:#000000;stroke-width:1.0;" x1="478.5" x2="478.5" y1="357.1509" y2="370.1509"/><line style="stroke:#000000;stroke-width:1.0;" x1="437.5" x2="478.5" y1="370.1509" y2="370.1509"/><polygon fill="#000000" points="447.5,366.1509,437.5,370.1509,447.5,374.1509" style="stroke:#000000;stroke-width:1.0;"/><text fill="#000000" font-family="Consolas,Menlo,monospace" font-size="12" lengthAdjust="spacing" textLength="112" x="443.5" y="296.8853">psa_pake_setup()</text><text fill="#000000" font-family="Lato,sans-serif" font-size="12" lengthAdjust="spacing" textLength="49" x="557.5" y="296.3932">with key (</text><text fill="#000000" font-family="Lato,sans-serif" font-size="12" font-style="italic" lengthAdjust="spacing" textLength="16" x="606.5" y="296.3932">w0</text><text fill="#000000" font-family="Lato,sans-serif" font-size="12" lengthAdjust="spacing" textLength="3" x="622.5" y="296.3932">,</text><text fill="#000000" font-family="Lato,sans-serif" font-size="12" font-style="italic" lengthAdjust="spacing" textLength="6" x="627.5" y="296.3932">L</text><text fill="#000000" font-family="Lato,sans-serif" font-size="12" lengthAdjust="spacing" textLength="44" x="633.5" y="296.3932">) or key (</text><text fill="#000000" font-family="Lato,sans-serif" font-size="12" font-style="italic" lengthAdjust="spacing" textLength="16" x="677.5" y="296.3932">w0</text><text fill="#000000" font-family="Lato,sans-serif" font-size="12" lengthAdjust="spacing" textLength="3" x="693.5" y="296.3932">,</text><text fill="#000000" font-family="Lato,sans-serif" font-size="12" font-style="italic" lengthAdjust="spacing" textLength="16" x="698.5" y="296.3932">w1</text><text fill="#000000" font-family="Lato,sans-serif" font-size="12" lengthAdjust="spacing" textLength="4" x="714.5" y="296.3932">)</text><text fill="#000000" font-family="Consolas,Menlo,monospace" font-size="12" lengthAdjust="spacing" textLength="273" x="443.5" y="310.936">psa_pake_set_role(PSA_PAKE_ROLE_SERVER)</text><text fill="#000000" font-family="Consolas,Menlo,monospace" font-size="12" lengthAdjust="spacing" textLength="203" x="443.5" y="324.9868">psa_pake_set_user(VerifierId)</text><text fill="#000000" font-family="Consolas,Menlo,monospace" font-size="12" lengthAdjust="spacing" textLength="189" x="443.5" y="339.0376">psa_pake_set_peer(ProverId)</text><text fill="#000000" font-family="Consolas,Menlo,monospace" font-size="12" lengthAdjust="spacing" textLength="203" x="443.5" y="353.0884">psa_pake_set_context(Context)</text><line style="stroke:#000000;stroke-width:1.0;" x1="436.5" x2="478.5" y1="398.543" y2="398.543"/><line style="stroke:#000000;stroke-width:1.0;" x1="478.5" x2="478.5" y1="398.543" y2="411.543"/><line style="stroke:#000000;stroke-width:1.0;" x1="437.5" x2="478.5" y1="411.543" y2="411.543"/><polygon fill="#000000" points="447.5,407.543,437.5,411.543,447.5,415.543" style="stroke:#000000;stroke-width:1.0;"/><text fill="#000000" font-family="Consolas,Menlo,monospace" font-size="12" lengthAdjust="spacing" textLength="112" x="443.5" y="394.4805">psa_pake_input()</text><text fill="#000000" font-family="Lato,sans-serif" font-size="12" lengthAdjust="spacing" textLength="16" x="557.5" y="393.9884">for</text><text fill="#000000" font-family="Lato,sans-serif" font-size="12" font-style="italic" lengthAdjust="spacing" textLength="34" x="575.5" y="393.9884">shareP</text><path d="M331,390.6509 L331,406.6509 A4,4 0 0 0 335,410.6509 L427,410.6509 A4,4 0 0 0 431,406.6509 L431,396.6509 L421,386.6509 L335,386.6509 A4,4 0 0 0 331,390.6509 " fill="#E8E8E8" style="stroke:#181818;stroke-width:1.0;"/><path d="M421,386.6509 L421,394.6509 A2,2 0 0 0 423,396.6509 L431,396.6509 L421,386.6509 " fill="#E8E8E8" style="stroke:#181818;stroke-width:1.0;"/><text fill="#000000" font-family="Lato,sans-serif" font-size="12" lengthAdjust="spacing" textLength="43" x="337" y="403.4884">Validate</text><text fill="#000000" font-family="Lato,sans-serif" font-size="12" font-style="italic" lengthAdjust="spacing" textLength="34" x="382" y="403.4884">shareP</text><line style="stroke:#000000;stroke-width:1.0;" x1="436.5" x2="478.5" y1="450.8271" y2="450.8271"/><line style="stroke:#000000;stroke-width:1.0;" x1="478.5" x2="478.5" y1="450.8271" y2="463.8271"/><line style="stroke:#000000;stroke-width:1.0;" x1="437.5" x2="478.5" y1="463.8271" y2="463.8271"/><polygon fill="#000000" points="447.5,459.8271,437.5,463.8271,447.5,467.8271" style="stroke:#000000;stroke-width:1.0;"/><text fill="#000000" font-family="Consolas,Menlo,monospace" font-size="12" lengthAdjust="spacing" textLength="119" x="443.5" y="446.7646">psa_pake_output()</text><text fill="#000000" font-family="Lato,sans-serif" font-size="12" lengthAdjust="spacing" textLength="16" x="564.5" y="446.2726">for</text><text fill="#000000" font-family="Lato,sans-serif" font-size="12" font-style="italic" lengthAdjust="spacing" textLength="35" x="582.5" y="446.2726">shareV</text><text fill="#000000" font-family="Lato,sans-serif" font-size="12" lengthAdjust="spacing" textLength="7" x="619.5" y="446.2726">=</text><text fill="#000000" font-family="Lato,sans-serif" font-size="12" font-style="italic" lengthAdjust="spacing" textLength="7" x="628.5" y="446.2726">Y</text><text fill="#000000" font-family="Lato,sans-serif" font-size="12" lengthAdjust="spacing" textLength="20" x="637.5" y="446.2726">and</text><text fill="#000000" font-family="Lato,sans-serif" font-size="12" font-style="italic" lengthAdjust="spacing" textLength="45" x="659.5" y="446.2726">confirmV</text><path d="M294,428.543 L294,473.543 A4,4 0 0 0 298,477.543 L427,477.543 A4,4 0 0 0 431,473.543 L431,434.543 L421,424.543 L298,424.543 A4,4 0 0 0 294,428.543 " fill="#E8E8E8" style="stroke:#181818;stroke-width:1.0;"/><path d="M421,424.543 L421,432.543 A2,2 0 0 0 423,434.543 L431,434.543 L421,424.543 " fill="#E8E8E8" style="stroke:#181818;stroke-width:1.0;"/><text fill="#000000" font-family="Lato,sans-serif" font-size="12" lengthAdjust="spacing" textLength="100" x="300" y="441.3805">Generate key share</text><text fill="#000000" font-family="Lato,sans-serif" font-size="12" font-style="italic" lengthAdjust="spacing" textLength="7" x="402" y="441.3805">Y</text><text fill="#000000" font-family="Lato,sans-serif" font-size="12" lengthAdjust="spacing" textLength="49" x="300" y="455.7726">Compute</text><text fill="#000000" font-family="Lato,sans-serif" font-size="12" font-style="italic" lengthAdjust="spacing" textLength="45" x="351" y="455.7726">K_shared</text><text fill="#000000" font-family="Lato,sans-serif" font-size="12" lengthAdjust="spacing" textLength="3" x="396" y="455.7726">,</text><text fill="#000000" font-family="Lato,sans-serif" font-size="12" font-style="italic" lengthAdjust="spacing" textLength="47" x="300" y="470.1646">confirmP'</text><text fill="#000000" font-family="Lato,sans-serif" font-size="12" lengthAdjust="spacing" textLength="20" x="349" y="470.1646">and</text><text fill="#000000" font-family="Lato,sans-serif" font-size="12" font-style="italic" lengthAdjust="spacing" textLength="45" x="371" y="470.1646">confirmV</text><line style="stroke:#000000;stroke-width:1.0;" x1="148" x2="158" y1="503.1113" y2="499.1113"/><line style="stroke:#000000;stroke-width:1.0;" x1="148" x2="158" y1="503.1113" y2="507.1113"/><line style="stroke:#000000;stroke-width:1.0;" x1="147" x2="435.5" y1="503.1113" y2="503.1113"/><text fill="#000000" font-family="Lato,sans-serif" font-size="12" lengthAdjust="spacing" textLength="4" x="164" y="498.5567">(</text><text fill="#000000" font-family="Lato,sans-serif" font-size="12" font-style="italic" lengthAdjust="spacing" textLength="35" x="168" y="498.5567">shareV</text><text fill="#000000" font-family="Lato,sans-serif" font-size="12" lengthAdjust="spacing" textLength="3" x="203" y="498.5567">,</text><text fill="#000000" font-family="Lato,sans-serif" font-size="12" font-style="italic" lengthAdjust="spacing" textLength="45" x="208" y="498.5567">confirmV</text><text fill="#000000" font-family="Lato,sans-serif" font-size="12" lengthAdjust="spacing" textLength="4" x="253" y="498.5567">)</text><line style="stroke:#000000;stroke-width:1.0;" x1="147" x2="189" y1="531.5034" y2="531.5034"/><line style="stroke:#000000;stroke-width:1.0;" x1="189" x2="189" y1="531.5034" y2="544.5034"/><line style="stroke:#000000;stroke-width:1.0;" x1="148" x2="189" y1="544.5034" y2="544.5034"/><polygon fill="#000000" points="158,540.5034,148,544.5034,158,548.5034" style="stroke:#000000;stroke-width:1.0;"/><text fill="#000000" font-family="Consolas,Menlo,monospace" font-size="12" lengthAdjust="spacing" textLength="112" x="154" y="527.4409">psa_pake_input()</text><text fill="#000000" font-family="Lato,sans-serif" font-size="12" lengthAdjust="spacing" textLength="16" x="268" y="526.9488">for</text><text fill="#000000" font-family="Lato,sans-serif" font-size="12" font-style="italic" lengthAdjust="spacing" textLength="35" x="286" y="526.9488">shareV</text><path d="M41,523.6113 L41,539.6113 A4,4 0 0 0 45,543.6113 L138,543.6113 A4,4 0 0 0 142,539.6113 L142,529.6113 L132,519.6113 L45,519.6113 A4,4 0 0 0 41,523.6113 " fill="#E8E8E8" style="stroke:#181818;stroke-width:1.0;"/><path d="M132,519.6113 L132,527.6113 A2,2 0 0 0 134,529.6113 L142,529.6113 L132,519.6113 " fill="#E8E8E8" style="stroke:#181818;stroke-width:1.0;"/><text fill="#000000" font-family="Lato,sans-serif" font-size="12" lengthAdjust="spacing" textLength="43" x="47" y="536.4488">Validate</text><text fill="#000000" font-family="Lato,sans-serif" font-size="12" font-style="italic" lengthAdjust="spacing" textLength="35" x="92" y="536.4488">shareV</text><line style="stroke:#000000;stroke-width:1.0;" x1="147" x2="189" y1="576.5916" y2="576.5916"/><line style="stroke:#000000;stroke-width:1.0;" x1="189" x2="189" y1="576.5916" y2="589.5916"/><line style="stroke:#000000;stroke-width:1.0;" x1="148" x2="189" y1="589.5916" y2="589.5916"/><polygon fill="#000000" points="158,585.5916,148,589.5916,158,593.5916" style="stroke:#000000;stroke-width:1.0;"/><text fill="#000000" font-family="Consolas,Menlo,monospace" font-size="12" lengthAdjust="spacing" textLength="119" x="154" y="572.5291">psa_pake_output()</text><text fill="#000000" font-family="Lato,sans-serif" font-size="12" lengthAdjust="spacing" textLength="16" x="275" y="572.037">for</text><text fill="#000000" font-family="Lato,sans-serif" font-size="12" font-style="italic" lengthAdjust="spacing" textLength="44" x="293" y="572.037">confirmP</text><path d="M5,561.5034 L5,591.5034 A4,4 0 0 0 9,595.5034 L138,595.5034 A4,4 0 0 0 142,591.5034 L142,567.5034 L132,557.5034 L9,557.5034 A4,4 0 0 0 5,561.5034 " fill="#E8E8E8" style="stroke:#181818;stroke-width:1.0;"/><path d="M132,557.5034 L132,565.5034 A2,2 0 0 0 134,567.5034 L142,567.5034 L132,557.5034 " fill="#E8E8E8" style="stroke:#181818;stroke-width:1.0;"/><text fill="#000000" font-family="Lato,sans-serif" font-size="12" lengthAdjust="spacing" textLength="49" x="11" y="574.3409">Compute</text><text fill="#000000" font-family="Lato,sans-serif" font-size="12" font-style="italic" lengthAdjust="spacing" textLength="45" x="62" y="574.3409">K_shared</text><text fill="#000000" font-family="Lato,sans-serif" font-size="12" lengthAdjust="spacing" textLength="3" x="107" y="574.3409">,</text><text fill="#000000" font-family="Lato,sans-serif" font-size="12" font-style="italic" lengthAdjust="spacing" textLength="44" x="11" y="588.733">confirmP</text><text fill="#000000" font-family="Lato,sans-serif" font-size="12" lengthAdjust="spacing" textLength="20" x="57" y="588.733">and</text><text fill="#000000" font-family="Lato,sans-serif" font-size="12" font-style="italic" lengthAdjust="spacing" textLength="48" x="79" y="588.733">confirmV'</text><line style="stroke:#000000;stroke-width:1.0;" x1="434.5" x2="424.5" y1="621.6797" y2="617.6797"/><line style="stroke:#000000;stroke-width:1.0;" x1="434.5" x2="424.5" y1="621.6797" y2="625.6797"/><line style="stroke:#000000;stroke-width:1.0;" x1="147" x2="435.5" y1="621.6797" y2="621.6797"/><text fill="#000000" font-family="Lato,sans-serif" font-size="12" lengthAdjust="spacing" textLength="4" x="154" y="617.1251">(</text><text fill="#000000" font-family="Lato,sans-serif" font-size="12" font-style="italic" lengthAdjust="spacing" textLength="44" x="158" y="617.1251">confirmP</text><text fill="#000000" font-family="Lato,sans-serif" font-size="12" lengthAdjust="spacing" textLength="4" x="202" y="617.1251">)</text><line style="stroke:#000000;stroke-width:1.0;" x1="147" x2="189" y1="653.7678" y2="653.7678"/><line style="stroke:#000000;stroke-width:1.0;" x1="189" x2="189" y1="653.7678" y2="666.7678"/><line style="stroke:#000000;stroke-width:1.0;" x1="148" x2="189" y1="666.7678" y2="666.7678"/><polygon fill="#000000" points="158,662.7678,148,666.7678,158,670.7678" style="stroke:#000000;stroke-width:1.0;"/><text fill="#000000" font-family="Consolas,Menlo,monospace" font-size="12" lengthAdjust="spacing" textLength="112" x="154" y="649.7053">psa_pake_input()</text><text fill="#000000" font-family="Lato,sans-serif" font-size="12" lengthAdjust="spacing" textLength="16" x="268" y="649.2132">for</text><text fill="#000000" font-family="Lato,sans-serif" font-size="12" font-style="italic" lengthAdjust="spacing" textLength="45" x="286" y="649.2132">confirmV</text><path d="M17,638.6797 L17,668.6797 A4,4 0 0 0 21,672.6797 L138,672.6797 A4,4 0 0 0 142,668.6797 L142,644.6797 L132,634.6797 L21,634.6797 A4,4 0 0 0 17,638.6797 " fill="#E8E8E8" style="stroke:#181818;stroke-width:1.0;"/><path d="M132,634.6797 L132,642.6797 A2,2 0 0 0 134,644.6797 L142,644.6797 L132,634.6797 " fill="#E8E8E8" style="stroke:#181818;stroke-width:1.0;"/><text fill="#000000" font-family="Lato,sans-serif" font-size="12" lengthAdjust="spacing" textLength="55" x="23" y="651.5172">Verify that</text><text fill="#000000" font-family="Lato,sans-serif" font-size="12" font-style="italic" lengthAdjust="spacing" textLength="48" x="23" y="665.9093">confirmV'</text><text fill="#000000" font-family="Lato,sans-serif" font-size="12" lengthAdjust="spacing" textLength="7" x="73" y="665.9093">=</text><text fill="#000000" font-family="Lato,sans-serif" font-size="12" font-style="italic" lengthAdjust="spacing" textLength="45" x="82" y="665.9093">confirmV</text><line style="stroke:#000000;stroke-width:1.0;" x1="147" x2="189" y1="698.856" y2="698.856"/><line style="stroke:#000000;stroke-width:1.0;" x1="189" x2="189" y1="698.856" y2="711.856"/><line style="stroke:#000000;stroke-width:1.0;" x1="148" x2="189" y1="711.856" y2="711.856"/><polygon fill="#000000" points="158,707.856,148,711.856,158,715.856" style="stroke:#000000;stroke-width:1.0;"/><text fill="#000000" font-family="Consolas,Menlo,monospace" font-size="12" lengthAdjust="spacing" textLength="175" x="154" y="694.7935">psa_pake_get_shared_key()</text><text fill="#000000" font-family="Lato,sans-serif" font-size="12" lengthAdjust="spacing" textLength="50" x="331" y="694.3014">to extract</text><text fill="#000000" font-family="Lato,sans-serif" font-size="12" font-style="italic" lengthAdjust="spacing" textLength="45" x="383" y="694.3014">K_shared</text><line style="stroke:#000000;stroke-width:1.0;" x1="436.5" x2="478.5" y1="743.9441" y2="743.9441"/><line style="stroke:#000000;stroke-width:1.0;" x1="478.5" x2="478.5" y1="743.9441" y2="756.9441"/><line style="stroke:#000000;stroke-width:1.0;" x1="437.5" x2="478.5" y1="756.9441" y2="756.9441"/><polygon fill="#000000" points="447.5,752.9441,437.5,756.9441,447.5,760.9441" style="stroke:#000000;stroke-width:1.0;"/><text fill="#000000" font-family="Consolas,Menlo,monospace" font-size="12" lengthAdjust="spacing" textLength="112" x="443.5" y="739.8816">psa_pake_input()</text><text fill="#000000" font-family="Lato,sans-serif" font-size="12" lengthAdjust="spacing" textLength="16" x="557.5" y="739.3895">for</text><text fill="#000000" font-family="Lato,sans-serif" font-size="12" font-style="italic" lengthAdjust="spacing" textLength="44" x="575.5" y="739.3895">confirmP</text><path d="M308,728.856 L308,758.856 A4,4 0 0 0 312,762.856 L427,762.856 A4,4 0 0 0 431,758.856 L431,734.856 L421,724.856 L312,724.856 A4,4 0 0 0 308,728.856 " fill="#E8E8E8" style="stroke:#181818;stroke-width:1.0;"/><path d="M421,724.856 L421,732.856 A2,2 0 0 0 423,734.856 L431,734.856 L421,724.856 " fill="#E8E8E8" style="stroke:#181818;stroke-width:1.0;"/><text fill="#000000" font-family="Lato,sans-serif" font-size="12" lengthAdjust="spacing" textLength="55" x="314" y="741.6935">Verify that</text><text fill="#000000" font-family="Lato,sans-serif" font-size="12" font-style="italic" lengthAdjust="spacing" textLength="47" x="314" y="756.0855">confirmP'</text><text fill="#000000" font-family="Lato,sans-serif" font-size="12" lengthAdjust="spacing" textLength="7" x="363" y="756.0855">=</text><text fill="#000000" font-family="Lato,sans-serif" font-size="12" font-style="italic" lengthAdjust="spacing" textLength="44" x="372" y="756.0855">confirmP</text><line style="stroke:#000000;stroke-width:1.0;" x1="436.5" x2="478.5" y1="789.0322" y2="789.0322"/><line style="stroke:#000000;stroke-width:1.0;" x1="478.5" x2="478.5" y1="789.0322" y2="802.0322"/><line style="stroke:#000000;stroke-width:1.0;" x1="437.5" x2="478.5" y1="802.0322" y2="802.0322"/><polygon fill="#000000" points="447.5,798.0322,437.5,802.0322,447.5,806.0322" style="stroke:#000000;stroke-width:1.0;"/><text fill="#000000" font-family="Consolas,Menlo,monospace" font-size="12" lengthAdjust="spacing" textLength="175" x="443.5" y="784.9697">psa_pake_get_shared_key()</text><text fill="#000000" font-family="Lato,sans-serif" font-size="12" lengthAdjust="spacing" textLength="50" x="620.5" y="784.4776">to extract</text><text fill="#000000" font-family="Lato,sans-serif" font-size="12" font-style="italic" lengthAdjust="spacing" textLength="45" x="672.5" y="784.4776">K_shared</text></g></svg>