<?xml version="1.0" encoding="UTF-8" standalone="no"?>
<!DOCTYPE svg PUBLIC "-//W3C//DTD SVG 1.1//EN" "http://www.w3.org/Graphics/SVG/1.1/DTD/svg11.dtd">
<!-- Generated by Microsoft Visio, SVG Export sra-dm-untrusted-staging.svg Page-1 -->
<svg xmlns="http://www.w3.org/2000/svg" xmlns:xlink="http://www.w3.org/1999/xlink" xmlns:ev="http://www.w3.org/2001/xml-events"
		width="9.46618in" height="2.81343in" viewBox="0 0 681.565 202.567" xml:space="preserve" color-interpolation-filters="sRGB"
		class="st24">
	<style type="text/css">
	<![CDATA[
		.st1 {fill:none;stroke:none;stroke-width:0.25}
		.st2 {stroke:#7f7f7f;stroke-dasharray:7,5;stroke-linecap:round;stroke-linejoin:round;stroke-width:1}
		.st3 {fill:#ffcccc;stroke:#ff0000;stroke-width:0.25}
		.st4 {stroke:#ff0000;stroke-width:0.25}
		.st5 {fill:#e2efd9;stroke:#70ad47;stroke-width:0.25}
		.st6 {fill:#000000;font-family:Lato;font-size:0.833336em;font-weight:bold}
		.st7 {font-size:1em}
		.st8 {fill:#fff2cc;stroke:#fec000;stroke-width:0.25}
		.st9 {fill:#fff2cc}
		.st10 {stroke:#fec000;stroke-width:0.25}
		.st11 {fill:#000000;font-family:Lato;font-size:0.833336em;font-style:italic;font-weight:bold}
		.st12 {font-size:1em;font-style:normal}
		.st13 {fill:#e2efd9}
		.st14 {stroke:#70ad47;stroke-width:0.25}
		.st15 {fill:none;stroke:#7f7f7f;stroke-dasharray:7,5;stroke-width:1}
		.st16 {marker-end:url(#mrkr5-66);stroke:#000000;stroke-linecap:round;stroke-linejoin:round;stroke-width:0.75}
		.st17 {fill:#000000;fill-opacity:1;stroke:#000000;stroke-opacity:1;stroke-width:0.22935779816514}
		.st18 {fill:#ffffff;stroke:none;stroke-linecap:butt;stroke-width:7.2}
		.st19 {fill:#000000;font-family:Lato;font-size:0.666664em}
		.st20 {fill:#000000;font-family:Lato;font-size:0.75em}
		.st21 {marker-end:url(#mrkr5-66);marker-start:url(#mrkr5-99);stroke:#000000;stroke-linecap:round;stroke-linejoin:round;stroke-width:0.75}
		.st22 {fill:#ffffff;stroke:none;stroke-linecap:butt}
		.st23 {marker-start:url(#mrkr5-99);stroke:#000000;stroke-linecap:round;stroke-linejoin:round;stroke-width:0.75}
		.st24 {fill:none;fill-rule:evenodd;font-size:12px;overflow:visible;stroke-linecap:square;stroke-miterlimit:3}
	]]>
	</style>

	<defs id="Markers">
		<g id="lend5">
			<path d="M 2 1 L 0 0 L 1.98117 -0.993387 C 1.67173 -0.364515 1.67301 0.372641 1.98465 1.00043 " style="stroke:none"/>
		</g>
		<marker id="mrkr5-66" class="st17" refX="-7.63" orient="auto" markerUnits="strokeWidth" overflow="visible">
			<use xlink:href="#lend5" transform="scale(-4.36,-4.36) "/>
		</marker>
		<marker id="mrkr5-99" class="st17" refX="7.15" orient="auto" markerUnits="strokeWidth" overflow="visible">
			<use xlink:href="#lend5" transform="scale(4.36) "/>
		</marker>
	</defs>
	<g>
		<title>Page-1</title>
		<g id="shape154-1" transform="translate(556.644,-34.3232)">
			<title>Rectangle.154</title>
			<rect x="0" y="181.737" width="44.148" height="20.8303" class="st1"/>
		</g>
		<g id="shape153-3" transform="translate(445.893,-178.89)">
			<title>Rectangle</title>
			<rect x="0" y="181.737" width="44.148" height="20.8303" class="st1"/>
		</g>
		<g id="shape155-5" transform="translate(467.967,-178.89)">
			<title>Dynamic connector</title>
			<path d="M0 202.57 L0 266.68 L110.75 266.68 L110.75 326.3" class="st2"/>
		</g>
		<g id="group38-8" transform="translate(285.022,8.08665) rotate(90)">
			<title>Sheet.38</title>
			<g id="shape32-9">
				<title>Sheet.32</title>
				<path d="M16.24 88.6 C16.15 71.3 26.96 58.12 40.38 59.17 C45.82 59.6 51.11 62.35 55.42 67.02 C61.55 56.39 73.53 54.79
							 82.18 63.45 C83.69 64.96 85.03 66.73 86.18 68.71 C91.02 59.85 100.78 58.21 107.98 65.06 C109.97 66.97
							 111.63 69.4 112.83 72.18 C119.96 64.44 131.02 66.06 137.52 75.79 C140.25 79.88 141.86 84.98 142.06 90.2
							 C151.84 96.31 156.46 111.2 152.38 123.48 C152.04 124.52 151.64 125.51 151.19 126.46 C157.95 142.05 153.99
							 160.93 142.34 168.64 C138.72 171.04 134.61 172.15 130.42 171.86 C128.85 186.38 118.34 195.72 106.95
							 192.72 C103.15 191.72 99.56 189.4 96.6 186 C91.08 201.34 76.69 207.16 64.46 199 C59.33 195.58 55.16
							 190.04 52.67 183.32 C38.61 190.07 22.23 180.37 16.09 161.68 C16.01 161.44 15.93 161.22 15.86 160.98
							 C7.19 160.09 0.25 150.36 0.35 139.23 C0.41 133.3 2.5 127.89 6.06 124.42 C-0.77 116.99 -2.01 104.17 3.28
							 95.78 C6.34 90.93 11.08 88.42 16.06 89.02 L16.24 88.6 Z" class="st3"/>
			</g>
			<g id="shape36-11" transform="translate(6.27989,-17.0686)">
				<title>Sheet.36</title>
				<path d="M8.77 145.91 C5.58 145.43 2.52 143.71 0 140.97" class="st4"/>
				<path d="M13.78 177.15 C12.44 177.47 11.07 177.57 9.69 177.43" class="st4"/>
				<path d="M46.43 199.8 C45.67 197.73 45.07 195.58 44.64 193.37" class="st4"/>
				<path d="M91.98 196.41 C91.62 198.54 91.09 200.61 90.38 202.57" class="st4"/>
				<path d="M114.92 161.69 C121.62 167.95 125.19 178.39 124.09 188.52" class="st4"/>
				<path d="M144.87 143.16 C143.36 146.32 141.28 148.94 138.79 150.81" class="st4"/>
				<path d="M135.85 106.78 C135.9 108.22 135.85 109.67 135.69 111.08" class="st4"/>
				<path d="M103.35 93.5 C104.23 91.71 105.3 90.12 106.55 88.77" class="st4"/>
				<path d="M78.34 89.8 C78.78 88.26 79.36 86.81 80.09 85.47" class="st4"/>
				<path d="M49.12 84.05 C50.67 85.73 52.08 87.63 53.3 89.73" class="st4"/>
				<path d="M10.29 110.61 C10.07 108.97 9.97 107.32 9.96 105.67" class="st4"/>
			</g>
		</g>
		<g id="shape2-24" transform="translate(0.25,-64.0869)">
			<title>Rectangle.2</title>
			<desc>Firmware creator</desc>
			<rect x="0" y="96.2681" width="62.0558" height="106.299" class="st5"/>
			<text x="9.33" y="146.42" class="st6">Firmware <tspan x="14.49" dy="1.2em" class="st7">creator</tspan></text>		</g>
		<g id="shape16-28" transform="translate(278.352,-64.0869)">
			<title>Rectangle.16</title>
			<desc>Update client</desc>
			<rect x="0" y="96.2681" width="62.0558" height="106.299" class="st8"/>
			<text x="14.49" y="146.42" class="st6">Update <tspan x="18.48" dy="1.2em" class="st7">client</tspan></text>		</g>
		<g id="shape17-32" transform="translate(382.927,-64.0869)">
			<title>Rectangle.17</title>
			<desc>Update service</desc>
			<rect x="0" y="96.2681" width="62.0558" height="106.299" class="st8"/>
			<text x="14.49" y="146.42" class="st6">Update <tspan x="15.05" dy="1.2em" class="st7">service</tspan></text>		</g>
		<g id="shape19-36" transform="translate(600.792,-64.0869)">
			<title>Rectangle.19</title>
			<desc>Bootloader</desc>
			<rect x="0" y="96.2681" width="62.0558" height="106.299" class="st5"/>
			<text x="5.77" y="152.42" class="st6">Bootloader</text>		</g>
		<g id="shape22-39" transform="translate(490.95,-59.835)">
			<title>Datastore</title>
			<desc>Second image</desc>
			<path d="M0 162.14 L0 194.81 A31.0279 7.75697 -180 1 0 62.06 194.81 L62.06 162.14 A31.0279 7.75697 -180 0 0 0 162.14 Z"
					class="st9"/>
			<path d="M0 162.14 L0 194.81 A31.0279 7.75697 -180 1 0 62.06 194.81 L62.06 162.14 A31.0279 7.75697 -180 0 0 0 162.14"
					class="st10"/>
			<path d="M0 162.14 A31.0279 7.75697 -180 0 0 62.06 162.14" class="st10"/>
			<text x="16.08" y="179.35" class="st11">Second <tspan x="17.59" dy="1.2em" class="st12">image</tspan></text>		</g>
		<g id="shape24-45" transform="translate(490.644,-122.197)">
			<title>Datastore.24</title>
			<desc>Active image</desc>
			<path d="M0 162.14 L0 194.81 A31.0279 7.75697 -180 0 0 62.06 194.81 L62.06 162.14 A31.0279 7.75697 -180 0 0 0 162.14 Z"
					class="st13"/>
			<path d="M0 162.14 L0 194.81 A31.0279 7.75697 -180 0 0 62.06 194.81 L62.06 162.14 A31.0279 7.75697 -180 0 0 0 162.14"
					class="st14"/>
			<path d="M0 162.14 A31.0279 7.75697 -180 0 0 62.06 162.14" class="st14"/>
			<text x="17.73" y="179.35" class="st11">Active <tspan x="17.59" dy="1.2em" class="st12">image</tspan></text>		</g>
		<g id="shape25-51" transform="translate(262.455,-37.1578)">
			<title>Rectangle.25</title>
			<desc>Device implementing Firmware update</desc>
			<path d="M0 202.57 L418.11 202.57 L418.11 38.16 L0 38.16 L0 202.57 Z" class="st15"/>
			<text x="122.36" y="195.57" class="st6">Device implementing Firmware update</text>		</g>
		<g id="shape15-54" transform="translate(122.14,-64.0869)">
			<title>Rectangle.15</title>
			<desc>Update server</desc>
			<rect x="0" y="96.2681" width="62.0558" height="106.299" class="st8"/>
			<text x="14.49" y="146.42" class="st6">Update <tspan x="16.75" dy="1.2em" class="st7">server</tspan></text>		</g>
		<g id="shape101-58" transform="translate(477.801,-177.902)">
			<title>Rectangle.101</title>
			<desc>Firmware store</desc>
			<rect x="0" y="181.737" width="88.4575" height="20.8303" class="st1"/>
			<text x="9.88" y="194.74" class="st6">Firmware store</text>		</g>
		<g id="shape103-61" transform="translate(62.3058,-124.323)">
			<title>Dynamic connector.103</title>
			<desc>DF.A</desc>
			<path d="M0 209.65 L54.11 209.65" class="st16"/>
			<rect x="11.2319" y="204.974" width="17.688" height="9.59985" class="st18"/>
			<text x="11.23" y="212.17" class="st19">DF.A</text>		</g>
		<g id="group135-69" transform="translate(62.3058,-1)">
			<title>Sheet.135</title>
			<g id="shape130-70" transform="translate(24.5197,-5.19399E-07)">
				<title>Rectangle.130</title>
				<desc>Trust boundary</desc>
				<rect x="0" y="186.945" width="103.949" height="15.6227" class="st1"/>
				<text x="4" y="197.46" class="st20">Trust boundary</text>			</g>
			<g id="shape134-73">
				<title>Rectangle.155</title>
				<path d="M0 202.57 L17.01 202.57 L17.01 186.94 L0 186.94 L0 202.57 Z" class="st15"/>
			</g>
		</g>
		<g id="group136-75" transform="translate(199.301,-0.999992)">
			<title>Sheet.136</title>
			<g id="shape1-76" transform="translate(0,-8.47828E-06)">
				<title>Rectangle</title>
				<rect x="0" y="186.945" width="17.0079" height="15.6227" class="st5"/>
			</g>
			<g id="shape122-78" transform="translate(24.5197,2.84217E-14)">
				<title>Rectangle.122</title>
				<desc>Trusted component</desc>
				<rect x="0" y="186.945" width="103.949" height="15.6227" class="st1"/>
				<text x="4" y="197.46" class="st20">Trusted component</text>			</g>
		</g>
		<g id="group137-81" transform="translate(336.297,-0.999992)">
			<title>Sheet.137</title>
			<g id="shape3-82">
				<title>Rectangle.3</title>
				<rect x="0" y="186.945" width="17.0079" height="15.6227" class="st8"/>
			</g>
			<g id="shape121-84" transform="translate(24.035,0)">
				<title>Rectangle.121</title>
				<desc>Untrusted component</desc>
				<rect x="0" y="186.945" width="103.949" height="15.6227" class="st1"/>
				<text x="4" y="197.46" class="st20">Untrusted component</text>			</g>
		</g>
		<g id="group138-87" transform="translate(472.808,-0.999992)">
			<title>Sheet.138</title>
			<g id="shape127-88">
				<title>Rectangle.127</title>
				<rect x="0" y="186.945" width="17.0079" height="15.6227" class="st3"/>
			</g>
			<g id="shape128-90" transform="translate(24.035,2.84217E-14)">
				<title>Rectangle.128</title>
				<desc>Untrusted environment</desc>
				<rect x="0" y="186.945" width="103.949" height="15.6227" class="st1"/>
				<text x="4" y="197.46" class="st20">Untrusted environment</text>			</g>
		</g>
		<g id="shape139-93" transform="translate(184.196,-124.323)">
			<title>Dynamic connector.139</title>
			<desc>DF.B</desc>
			<path d="M5.36 209.65 L5.72 209.65 L88.43 209.65" class="st21"/>
			<rect x="32.0779" y="205.355" width="17.424" height="9.59985" class="st18"/>
			<text x="32.08" y="212.55" class="st19">DF.B</text>		</g>
		<g id="shape140-103" transform="translate(340.407,-110.15)">
			<title>Dynamic connector.140</title>
			<desc>DF.C</desc>
			<path d="M5.36 195.48 L5.72 195.48 L36.8 195.48" class="st21"/>
			<rect x="12.3959" y="190.569" width="17.7281" height="9.59985" class="st22"/>
			<text x="12.4" y="197.77" class="st19">DF.C</text>		</g>
		<g id="shape141-112" transform="translate(444.983,-117.237)">
			<title>Dynamic connector.141</title>
			<desc>DF.D</desc>
			<path d="M4.52 199.69 L4.83 199.5 L20.99 189.21 A2.3622 2.3622 0 1 1 24.98 186.67 L45.66 173.51" class="st23"/>
			<rect x="13.8474" y="183.736" width="18.2722" height="9.59985" class="st18"/>
			<text x="13.85" y="190.94" class="st19">DF.D</text>		</g>
		<g id="shape142-119" transform="translate(444.983,-117.237)">
			<title>Dynamic connector.142</title>
			<desc>DF.E</desc>
			<path d="M4.34 205.71 L4.63 205.92 L41.33 232.52" class="st21"/>
			<rect x="14.5355" y="214.067" width="16.8961" height="9.59985" class="st18"/>
			<text x="14.54" y="221.27" class="st19">DF.E</text>		</g>
		<g id="shape143-128" transform="translate(553.006,-83.9295)">
			<title>Dynamic connector.143</title>
			<desc>DF.G</desc>
			<path d="M4.4 199.5 L4.69 199.3 L23.77 186 A2.3622 2.3622 0 1 1 27.65 183.3 L43.09 172.53" class="st21"/>
			<rect x="12.1998" y="180.76" width="18.12" height="9.59985" class="st18"/>
			<text x="12.2" y="187.96" class="st19">DF.G</text>		</g>
		<g id="shape144-137" transform="translate(552.699,-146.292)">
			<title>Dynamic connector.144</title>
			<desc>DF.F</desc>
			<path d="M4.59 205.34 L4.9 205.53 L43.19 228.66" class="st21"/>
			<rect x="15.1625" y="211.941" width="16.7761" height="9.59985" class="st18"/>
			<text x="15.16" y="219.14" class="st19">DF.F</text>		</g>
	</g>
</svg>
