<?xml version="1.0" encoding="UTF-8" standalone="no"?>
<!DOCTYPE svg PUBLIC "-//W3C//DTD SVG 1.1//EN" "http://www.w3.org/Graphics/SVG/1.1/DTD/svg11.dtd">
<!-- Generated by Microsoft Visio, SVG Export sra-dm-untrusted-staging-detail.svg Page-1 -->
<svg xmlns="http://www.w3.org/2000/svg" xmlns:xlink="http://www.w3.org/1999/xlink" xmlns:ev="http://www.w3.org/2001/xml-events"
		width="9.69904in" height="5.06715in" viewBox="0 0 698.331 364.835" xml:space="preserve" color-interpolation-filters="sRGB"
		class="st29">
	<style type="text/css">
	<![CDATA[
		.st1 {fill:none;stroke:#7f7f7f;stroke-dasharray:7,5;stroke-width:1}
		.st2 {fill:#000000;font-family:Lato;font-size:0.833336em;font-weight:bold}
		.st3 {stroke:#7f7f7f;stroke-dasharray:7,5;stroke-width:1}
		.st4 {fill:#4672c4;stroke:#c7c8c8;stroke-width:0.25}
		.st5 {fill:#ffcccc;stroke:#ff0000;stroke-width:0.25}
		.st6 {stroke:#ff0000;stroke-width:0.25}
		.st7 {fill:#e2efd9;stroke:#70ad47;stroke-width:0.25}
		.st8 {fill:#fff2cc;stroke:#fec000;stroke-width:0.25}
		.st9 {fill:#fff2cc}
		.st10 {stroke:#fec000;stroke-width:0.25}
		.st11 {fill:#000000;font-family:Lato;font-size:0.833336em;font-style:italic;font-weight:bold}
		.st12 {font-size:1em;font-style:normal}
		.st13 {fill:#e2efd9}
		.st14 {stroke:#70ad47;stroke-width:0.25}
		.st15 {fill:#ffe495;stroke:#000000;stroke-width:0.25}
		.st16 {fill:#000000;font-family:Lato;font-size:0.75em}
		.st17 {font-size:1em}
		.st18 {fill:#c5e0b3;stroke:#000000;stroke-width:0.25}
		.st19 {marker-end:url(#mrkr5-73);stroke:#000000;stroke-linecap:round;stroke-linejoin:round;stroke-width:0.75}
		.st20 {fill:#000000;fill-opacity:1;stroke:#000000;stroke-opacity:1;stroke-width:0.22935779816514}
		.st21 {fill:#ffffff;stroke:none;stroke-linecap:butt;stroke-width:7.2}
		.st22 {fill:#000000;font-family:Lato;font-size:0.666664em}
		.st23 {fill:#ffffff;stroke:none;stroke-linecap:butt}
		.st24 {marker-end:url(#mrkr5-185);stroke:#000000;stroke-linecap:round;stroke-linejoin:round;stroke-width:0.75}
		.st25 {marker-end:url(#mrkr5-185);stroke:#000000;stroke-dasharray:2.25,2.25;stroke-linecap:round;stroke-linejoin:round;stroke-width:0.75}
		.st26 {fill:#000000;font-family:Lato;font-size:0.666664em;font-style:italic}
		.st27 {marker-end:url(#mrkr5-185);marker-start:url(#mrkr5-255);stroke:#000000;stroke-linecap:round;stroke-linejoin:round;stroke-width:0.75}
		.st28 {fill:none;stroke:none;stroke-width:0.25}
		.st29 {fill:none;fill-rule:evenodd;font-size:12px;overflow:visible;stroke-linecap:square;stroke-miterlimit:3}
	]]>
	</style>

	<defs id="Markers">
		<g id="lend5">
			<path d="M 2 1 L 0 0 L 1.98117 -0.993387 C 1.67173 -0.364515 1.67301 0.372641 1.98465 1.00043 " style="stroke:none"/>
		</g>
		<marker id="mrkr5-73" class="st20" refX="-7.63" orient="auto" markerUnits="strokeWidth" overflow="visible">
			<use xlink:href="#lend5" transform="scale(-4.36,-4.36) "/>
		</marker>
		<marker id="mrkr5-185" class="st20" refX="-7.15" orient="auto" markerUnits="strokeWidth" overflow="visible">
			<use xlink:href="#lend5" transform="scale(-4.36,-4.36) "/>
		</marker>
		<marker id="mrkr5-255" class="st20" refX="7.15" orient="auto" markerUnits="strokeWidth" overflow="visible">
			<use xlink:href="#lend5" transform="scale(4.36) "/>
		</marker>
	</defs>
	<g>
		<title>Page-1</title>
		<g id="shape154-1" transform="translate(260.723,-1)">
			<title>Rectangle.25</title>
			<desc>Device implementing Firmware update</desc>
			<path d="M0 364.83 L436.61 364.83 L436.61 2 L0 2 L0 364.83 Z" class="st1"/>
			<text x="131.61" y="357.83" class="st2">Device implementing Firmware update</text>		</g>
		<g id="shape153-4" transform="translate(826.959,-97.5383) rotate(72.4722)">
			<title>Multi-Line</title>
			<path d="M0 364.83 L132.88 405.31 L164.46 305.3 L357.66 364.83" class="st3"/>
		</g>
		<g id="shape98-7" transform="translate(347.355,-201.292) rotate(-30)">
			<title>Octagon.98</title>
			<path d="M12.03 347.83 L4.98 347.83 L0 352.81 L0 359.85 L4.98 364.83 L12.03 364.83 L17.01 359.85 L17.01 352.81 L12.03
						 347.83 Z" class="st4"/>
		</g>
		<g id="shape97-9" transform="translate(524.381,-72.1402)">
			<title>Octagon.97</title>
			<path d="M12.03 347.83 L4.98 347.83 L0 352.81 L0 359.85 L4.98 364.83 L12.03 364.83 L17.01 359.85 L17.01 352.81 L12.03
						 347.83 Z" class="st4"/>
		</g>
		<g id="shape93-11" transform="translate(432.446,-97.2085) rotate(-15)">
			<title>Octagon</title>
			<path d="M12.03 347.83 L4.98 347.83 L0 352.81 L0 359.85 L4.98 364.83 L12.03 364.83 L17.01 359.85 L17.01 352.81 L12.03
						 347.83 Z" class="st4"/>
		</g>
		<g id="group38-13" transform="translate(461.22,29.3465) rotate(90)">
			<title>Sheet.38</title>
			<g id="shape32-14">
				<title>Sheet.32</title>
				<path d="M29.2 250.87 C29.04 233.56 48.48 220.39 72.61 221.44 C82.39 221.86 91.91 224.62 99.65 229.29 C110.68 218.66
							 132.22 217.06 147.77 225.71 C150.49 227.23 152.9 228.99 154.96 230.98 C163.66 222.12 181.22 220.48 194.16
							 227.33 C197.74 229.23 200.74 231.67 202.88 234.45 C215.71 226.71 235.6 228.33 247.29 238.06 C252.19
							 242.15 255.08 247.24 255.44 252.47 C273.03 258.58 281.34 273.47 274.01 285.75 C273.39 286.78 272.67
							 287.78 271.86 288.73 C284.02 304.31 276.9 323.19 255.96 330.91 C249.44 333.3 242.05 334.41 234.52 334.12
							 C231.7 348.65 212.8 357.99 192.32 354.98 C185.48 353.99 179.03 351.67 173.7 348.27 C163.78 363.6 137.9
							 369.42 115.9 361.27 C106.68 357.85 99.19 352.31 94.7 345.58 C69.42 352.33 39.97 342.64 28.92 323.95
							 C28.78 323.71 28.65 323.48 28.52 323.24 C12.93 322.36 0.45 312.63 0.64 301.5 C0.74 295.57 4.49 290.15
							 10.89 286.68 C-1.38 279.26 -3.62 266.44 5.9 258.05 C11.39 253.2 19.92 250.69 28.88 251.28 L29.2 250.87
							 Z" class="st5"/>
			</g>
			<g id="shape36-16" transform="translate(11.2923,-17.0686)">
				<title>Sheet.36</title>
				<path d="M15.78 308.18 C10.04 307.7 4.53 305.97 0 303.23" class="st6"/>
				<path d="M24.78 339.42 C22.38 339.73 19.9 339.83 17.43 339.69" class="st6"/>
				<path d="M83.5 362.07 C82.12 360 81.04 357.84 80.28 355.63" class="st6"/>
				<path d="M165.4 358.68 C164.75 360.81 163.79 362.88 162.52 364.83" class="st6"/>
				<path d="M206.64 323.96 C218.69 330.22 225.11 340.65 223.14 350.79" class="st6"/>
				<path d="M260.5 305.43 C257.78 308.59 254.04 311.21 249.57 313.08" class="st6"/>
				<path d="M244.28 269.05 C244.38 270.48 244.28 271.94 243.99 273.35" class="st6"/>
				<path d="M185.85 255.77 C187.42 253.98 189.34 252.39 191.59 251.04" class="st6"/>
				<path d="M140.86 252.07 C141.65 250.53 142.7 249.08 144.01 247.74" class="st6"/>
				<path d="M88.33 246.32 C91.12 247.99 93.65 249.9 95.85 251.99" class="st6"/>
				<path d="M18.49 272.88 C18.11 271.24 17.92 269.59 17.9 267.93" class="st6"/>
			</g>
		</g>
		<g id="shape2-29" transform="translate(1,-182.417)">
			<title>Rectangle.2</title>
			<desc>Firmware creator</desc>
			<rect x="0" y="194.756" width="88.4575" height="170.079" class="st7"/>
			<text x="5.02" y="207.76" class="st2">Firmware creator</text>		</g>
		<g id="shape16-32" transform="translate(271.827,-12.3386)">
			<title>Rectangle.16</title>
			<desc>Update client</desc>
			<rect x="0" y="24.6772" width="88.4575" height="340.157" class="st8"/>
			<text x="14.18" y="37.68" class="st2">Update client</text>		</g>
		<g id="shape17-35" transform="translate(380.363,-52.0236)">
			<title>Rectangle.17</title>
			<desc>Update service</desc>
			<rect x="0" y="64.3622" width="88.4575" height="300.472" class="st8"/>
			<text x="10.74" y="77.36" class="st2">Update service</text>		</g>
		<g id="shape19-38" transform="translate(597.535,-11.4407)">
			<title>Rectangle.19</title>
			<desc>Bootloader</desc>
			<rect x="0" y="23.7793" width="88.4575" height="341.055" class="st7"/>
			<text x="18.97" y="36.78" class="st2">Bootloader</text>		</g>
		<g id="shape22-41" transform="translate(488.656,-52.0236)">
			<title>Datastore</title>
			<desc>Second image</desc>
			<path d="M0 222.82 L0 353.78 A44.2288 11.0572 -180 1 0 88.46 353.78 L88.46 222.82 A44.2288 11.0572 -180 0 0 0 222.82 Z"
					class="st9"/>
			<path d="M0 222.82 L0 353.78 A44.2288 11.0572 -180 1 0 88.46 353.78 L88.46 222.82 A44.2288 11.0572 -180 0 0 0 222.82"
					class="st10"/>
			<path d="M0 222.82 A44.2288 11.0572 -180 1 0 88.46 222.82" class="st10"/>
			<text x="14.87" y="246.88" class="st11">Second <tspan class="st12">image</tspan></text>		</g>
		<g id="shape24-47" transform="translate(488.656,-224.982)">
			<title>Datastore.24</title>
			<desc>Active image</desc>
			<path d="M0 276.72 L0 353.78 A44.2288 11.0572 -180 0 0 88.46 353.78 L88.46 276.72 A44.2288 11.0572 -180 0 0 0 276.72 Z"
					class="st13"/>
			<path d="M0 276.72 L0 353.78 A44.2288 11.0572 -180 0 0 88.46 353.78 L88.46 276.72 A44.2288 11.0572 -180 0 0 0 276.72"
					class="st14"/>
			<path d="M0 276.72 A44.2288 11.0572 -180 0 0 88.46 276.72" class="st14"/>
			<text x="16.53" y="300.78" class="st11">Active <tspan class="st12">image</tspan></text>		</g>
		<g id="shape15-53" transform="translate(130.861,-96.8276)">
			<title>Rectangle.15</title>
			<desc>Update server</desc>
			<rect x="0" y="171.528" width="88.4575" height="193.306" class="st8"/>
			<text x="12.44" y="184.53" class="st2">Update server</text>		</g>
		<g id="shape43-56" transform="translate(139.087,-192.959)">
			<title>Rectangle.43</title>
			<desc>Notify devices of new update</desc>
			<rect x="0" y="337.438" width="72.0053" height="27.3969" class="st15"/>
			<text x="7.84" y="348.44" class="st16">Notify devices <tspan x="8.12" dy="1.2em" class="st17">of new update</tspan></text>		</g>
		<g id="shape44-60" transform="translate(9.22612,-279.745)">
			<title>Rectangle.44</title>
			<desc>Create firmware</desc>
			<rect x="0" y="337.438" width="72.0053" height="27.3969" class="st18"/>
			<text x="22.43" y="348.44" class="st16">Create <tspan x="17.93" dy="1.2em" class="st17">firmware</tspan></text>		</g>
		<g id="shape45-64" transform="translate(9.22612,-192.959)">
			<title>Rectangle.45</title>
			<desc>Upload firmware</desc>
			<rect x="0" y="337.438" width="72.0053" height="27.3969" class="st18"/>
			<text x="21.78" y="348.44" class="st16">Upload <tspan x="17.93" dy="1.2em" class="st17">firmware</tspan></text>		</g>
		<g id="shape46-68" transform="translate(38.1421,-236.439)">
			<title>Dynamic connector</title>
			<path d="M7.09 364.83 L7.09 375.19" class="st19"/>
		</g>
		<g id="shape47-74" transform="translate(81.2314,-199.571)">
			<title>Dynamic connector.47</title>
			<desc>DF.4</desc>
			<path d="M0 357.75 L52.13 357.75" class="st19"/>
			<rect x="20.484" y="352.948" width="16.8882" height="9.59985" class="st21"/>
			<text x="20.48" y="360.15" class="st22">DF.4</text>		</g>
		<g id="shape48-81" transform="translate(139.087,-149.316)">
			<title>Rectangle.48</title>
			<desc>Deliver update</desc>
			<rect x="0" y="337.438" width="72.0053" height="27.3969" class="st15"/>
			<text x="6.79" y="353.84" class="st16">Deliver update</text>		</g>
		<g id="shape51-84" transform="translate(279.499,-192.854)">
			<title>Rectangle.51</title>
			<desc>Request firmare update</desc>
			<rect x="0" y="337.438" width="72.0053" height="27.3969" class="st15"/>
			<text x="4.24" y="348.44" class="st16">Request firmare <tspan x="22.18" dy="1.2em" class="st17">update</tspan></text>		</g>
		<g id="shape52-88" transform="translate(279.499,-280.024)">
			<title>Rectangle.52</title>
			<desc>Query firmware state</desc>
			<rect x="0" y="337.438" width="72.0053" height="27.3969" class="st15"/>
			<text x="4.49" y="348.44" class="st16">Query firmware <tspan x="26.05" dy="1.2em" class="st17">state</tspan></text>		</g>
		<g id="shape54-92" transform="translate(279.499,-149.153)">
			<title>Rectangle.54</title>
			<desc>Prepare update</desc>
			<rect x="0" y="337.438" width="72.0053" height="27.3969" class="st15"/>
			<text x="5.46" y="353.84" class="st16">Prepare update</text>		</g>
		<g id="shape55-95" transform="translate(280.054,-61.7512)">
			<title>Rectangle.55</title>
			<desc>Request installation</desc>
			<rect x="0" y="337.438" width="72.0053" height="27.3969" class="st15"/>
			<text x="19.74" y="348.44" class="st16">Request <tspan x="14.02" dy="1.2em" class="st17">installation</tspan></text>		</g>
		<g id="shape56-99" transform="translate(279.499,-105.452)">
			<title>Rectangle.56</title>
			<desc>Report update is ready</desc>
			<rect x="0" y="337.438" width="72.0053" height="27.3969" class="st15"/>
			<text x="7.58" y="348.44" class="st16">Report update <tspan x="20.76" dy="1.2em" class="st17">is ready</tspan></text>		</g>
		<g id="shape57-103" transform="translate(280.054,-19)">
			<title>Rectangle.57</title>
			<desc>Reboot</desc>
			<rect x="0" y="337.438" width="72.0053" height="27.3969" class="st15"/>
			<text x="21.55" y="353.84" class="st16">Reboot</text>		</g>
		<g id="shape58-106" transform="translate(308.415,-149.153)">
			<title>Dynamic connector.58</title>
			<path d="M7.09 364.83 L7.09 375.42" class="st19"/>
		</g>
		<g id="shape59-111" transform="translate(308.97,-61.7512)">
			<title>Dynamic connector.59</title>
			<path d="M7.09 364.83 L7.09 374.47" class="st19"/>
		</g>
		<g id="shape60-116" transform="translate(211.093,-213.691)">
			<title>Dynamic connector.60</title>
			<desc>DF.5</desc>
			<path d="M0 371.87 L62.68 371.97" class="st19"/>
			<rect x="31.3373" y="367.214" width="16.8882" height="9.59985" class="st21"/>
			<text x="31.34" y="374.41" class="st22">DF.5</text>		</g>
		<g id="shape61-123" transform="translate(315.501,-192.854)">
			<title>Dynamic connector.61</title>
			<desc>DF.6</desc>
			<path d="M0 364.83 L-98.91 393.1" class="st19"/>
			<rect x="-73.0713" y="378.975" width="16.8882" height="9.59985" class="st23"/>
			<text x="-73.07" y="386.17" class="st22">DF.6</text>		</g>
		<g id="shape63-130" transform="translate(211.093,-170.019)">
			<title>Dynamic connector.63</title>
			<desc>DF.7</desc>
			<path d="M0 371.84 L62.68 371.99" class="st19"/>
			<rect x="29.92" y="367.48" width="16.8882" height="9.59985" class="st21"/>
			<text x="29.92" y="374.68" class="st22">DF.7</text>		</g>
		<g id="shape64-137" transform="translate(139.087,-105.452)">
			<title>Rectangle.64</title>
			<desc>Request to apply update</desc>
			<rect x="0" y="337.438" width="72.0053" height="27.3969" class="st15"/>
			<text x="14.69" y="348.44" class="st16">Request to <tspan x="10.61" dy="1.2em" class="st17">apply update</tspan></text>		</g>
		<g id="shape65-141" transform="translate(279.499,-112.064)">
			<title>Dynamic connector.65</title>
			<desc>DF.10</desc>
			<path d="M0 357.75 L-62.68 357.75" class="st19"/>
			<rect x="-44.9671" y="352.948" width="21.5283" height="9.59985" class="st21"/>
			<text x="-44.97" y="360.15" class="st22">DF.10</text>		</g>
		<g id="shape66-148" transform="translate(175.09,-105.452)">
			<title>Dynamic connector.66</title>
			<desc>DF.11</desc>
			<path d="M0 364.83 L99.46 393.26" class="st19"/>
			<rect x="52.264" y="378.03" width="21.5283" height="9.59985" class="st21"/>
			<text x="52.26" y="385.23" class="st22">DF.11</text>		</g>
		<g id="shape67-155" transform="translate(389.202,-280.024)">
			<title>Rectangle.67</title>
			<desc>Get firmware status</desc>
			<rect x="0" y="337.438" width="72.0053" height="27.3969" class="st15"/>
			<text x="9.72" y="348.44" class="st16">Get firmware <tspan x="23.96" dy="1.2em" class="st17">status</tspan></text>		</g>
		<g id="shape68-159" transform="translate(388.589,-149.153)">
			<title>Rectangle.68</title>
			<desc>Write image to store</desc>
			<rect x="0" y="337.438" width="72.0053" height="27.3969" class="st15"/>
			<text x="6.71" y="348.44" class="st16">Write image to <tspan x="25.7" dy="1.2em" class="st17">store</tspan></text>		</g>
		<g id="shape69-163" transform="translate(388.589,-61.7512)">
			<title>Rectangle.69</title>
			<desc>Stage update</desc>
			<rect x="0" y="337.438" width="72.0053" height="27.3969" class="st15"/>
			<text x="10.31" y="353.84" class="st16">Stage update</text>		</g>
		<g id="shape71-166" transform="translate(389.202,-286.635)">
			<title>Dynamic connector.71</title>
			<desc>DF.2</desc>
			<path d="M0 357.75 L-31.98 357.75" class="st19"/>
			<rect x="-27.2931" y="352.948" width="16.8882" height="9.59985" class="st21"/>
			<text x="-27.29" y="360.15" class="st22">DF.2</text>		</g>
		<g id="shape72-173" transform="translate(351.504,-155.765)">
			<title>Dynamic connector.72</title>
			<desc>DF.8</desc>
			<path d="M0 357.75 L31.36 357.75" class="st19"/>
			<rect x="10.0984" y="352.948" width="16.8882" height="9.59985" class="st23"/>
			<text x="10.1" y="360.15" class="st22">DF.8</text>		</g>
		<g id="shape73-180" transform="translate(460.594,-162.851)">
			<title>Dynamic connector.73</title>
			<desc>DF.9</desc>
			<path d="M0 364.83 C12.16 364.83 15.38 393.79 57.6 405.09 L57.95 405.18" class="st24"/>
			<rect x="10.025" y="377.319" width="16.8882" height="9.59985" class="st21"/>
			<text x="10.02" y="384.52" class="st22">DF.9</text>		</g>
		<g id="shape74-188" transform="translate(527.281,-127.358)">
			<title>Dynamic connector.74</title>
			<path d="M0 364.83 C-76.12 303.37 -45.53 220.12 -61.3 201.63 L-61.6 201.43" class="st24"/>
		</g>
		<g id="shape75-193" transform="translate(460.594,-75.4496)">
			<title>Dynamic connector.75</title>
			<desc>DF.13</desc>
			<path d="M0 364.83 C12.19 364.83 15.4 344.53 59.61 327.78 L59.95 327.66" class="st24"/>
			<rect x="9.12226" y="342.359" width="21.5283" height="9.59985" class="st21"/>
			<text x="9.12" y="349.56" class="st22">DF.13</text>		</g>
		<g id="shape76-200" transform="translate(352.059,-68.363)">
			<title>Dynamic connector.76</title>
			<desc>DF.12</desc>
			<path d="M0 357.75 L30.81 357.75" class="st19"/>
			<rect x="6.25585" y="353.697" width="21.5283" height="9.59985" class="st21"/>
			<text x="6.26" y="360.9" class="st22">DF.12</text>		</g>
		<g id="shape79-207" transform="translate(605.761,-170.887)">
			<title>Rectangle.79</title>
			<desc>Install update</desc>
			<rect x="0" y="337.438" width="72.0053" height="27.3969" class="st18"/>
			<text x="9.21" y="353.84" class="st16">Install update</text>		</g>
		<g id="shape80-210" transform="translate(605.761,-61.7512)">
			<title>Rectangle.80</title>
			<desc>Check firmware state</desc>
			<rect x="0" y="337.438" width="72.0053" height="27.3969" class="st18"/>
			<text x="4.66" y="348.44" class="st16">Check firmware <tspan x="26.05" dy="1.2em" class="st17">state</tspan></text>		</g>
		<g id="shape81-214" transform="translate(605.761,-280.024)">
			<title>Rectangle.81</title>
			<desc>Authenticate &#38; run firmware</desc>
			<rect x="0" y="337.438" width="72.0053" height="27.3969" class="st18"/>
			<text x="6.12" y="348.44" class="st16">Authenticate &#38; <tspan x="10.24" dy="1.2em" class="st17">run firmware</tspan></text>		</g>
		<g id="shape82-218" transform="translate(352.059,-32.6984)">
			<title>Dynamic connector.82</title>
			<desc>Device restarts</desc>
			<path d="M0 364.83 C68.8 364.83 257.81 370.44 286.6 340.59 L286.8 340.29" class="st25"/>
			<rect x="123.9" y="359.135" width="48.7279" height="9.59985" class="st21"/>
			<text x="123.9" y="366.33" class="st26">Device restarts</text>		</g>
		<g id="shape83-225" transform="translate(634.677,-89.148)">
			<title>Dynamic connector.83</title>
			<path d="M7.09 364.83 L7.09 288.82" class="st19"/>
		</g>
		<g id="shape84-230" transform="translate(634.677,-198.284)">
			<title>Dynamic connector.84</title>
			<path d="M7.09 364.83 L7.09 288.82" class="st19"/>
		</g>
		<g id="shape85-235" transform="translate(538.488,-112.753)">
			<title>Dynamic connector.85</title>
			<desc>DF.14</desc>
			<path d="M0 364.83 C15.95 389.74 35.73 401.28 61.55 402.12 L61.91 402.12" class="st24"/>
			<rect x="33.2752" y="395.252" width="21.5283" height="9.59985" class="st21"/>
			<text x="33.28" y="402.45" class="st22">DF.14</text>		</g>
		<g id="shape86-242" transform="translate(605.761,-184.586)">
			<title>Dynamic connector.86</title>
			<desc>DF.16</desc>
			<path d="M0 364.83 C-7.82 348.04 -26.65 308.81 -60.18 295.16 L-60.52 295.04" class="st24"/>
			<rect x="-35.4146" y="319.684" width="21.5283" height="9.59985" class="st21"/>
			<text x="-35.41" y="326.88" class="st22">DF.16</text>		</g>
		<g id="shape87-249" transform="translate(605.761,-184.586)">
			<title>Dynamic connector.87</title>
			<desc>DF.15</desc>
			<path d="M-5.27 365.85 L-5.62 365.92 C-27.54 372.96 -30.9 410.02 -60.15 421.94 L-60.49 422.05" class="st27"/>
			<rect x="-37.3459" y="385.712" width="21.5283" height="9.59985" class="st21"/>
			<text x="-37.35" y="392.91" class="st22">DF.15</text>		</g>
		<g id="shape99-259" transform="translate(542.011,-262.989)">
			<title>Dynamic connector.99</title>
			<desc>DF.17</desc>
			<path d="M0 364.83 C19.44 357.97 35.01 353.8 59.06 337.38 L59.36 337.18" class="st24"/>
			<rect x="31.1701" y="344.228" width="21.5283" height="9.59985" class="st23"/>
			<text x="31.17" y="351.43" class="st22">DF.17</text>		</g>
		<g id="shape101-266" transform="translate(488.898,-331.666)">
			<title>Rectangle.101</title>
			<desc>Firmware store</desc>
			<rect x="0" y="344.004" width="88.4575" height="20.8303" class="st28"/>
			<text x="9.88" y="357" class="st2">Firmware store</text>		</g>
		<g id="shape103-269" transform="translate(523.759,-260.586)">
			<title>Dynamic connector.103</title>
			<desc>DF.1</desc>
			<path d="M0 364.83 C-17.67 358.51 -38.3 345.98 -57.62 334.6 L-57.93 334.41" class="st24"/>
			<rect x="-53.1401" y="337.574" width="16.8882" height="9.59985" class="st23"/>
			<text x="-53.14" y="344.77" class="st22">DF.1</text>		</g>
		<g id="shape110-276" transform="translate(9.22612,-236.439)">
			<title>Rectangle.110</title>
			<desc>Sign firmware</desc>
			<rect x="0" y="337.438" width="72.0053" height="27.3969" class="st18"/>
			<text x="8.72" y="353.84" class="st16">Sign firmware</text>		</g>
		<g id="shape111-279" transform="translate(38.1421,-279.745)">
			<title>Dynamic connector.111</title>
			<path d="M7.09 364.83 L7.09 375.02" class="st19"/>
		</g>
		<g id="shape112-284" transform="translate(279.499,-236.439)">
			<title>Rectangle.112</title>
			<desc>Report firmware state</desc>
			<rect x="0" y="337.438" width="72.0053" height="27.3969" class="st15"/>
			<text x="22.27" y="348.44" class="st16">Report <tspan x="7.11" dy="1.2em" class="st17">firmware state</tspan></text>		</g>
		<g id="shape113-288" transform="translate(308.415,-280.024)">
			<title>Dynamic connector.113</title>
			<path d="M7.09 364.83 L7.09 375.3" class="st19"/>
		</g>
		<g id="shape114-293" transform="translate(279.499,-243.05)">
			<title>Dynamic connector.114</title>
			<desc>DF.3</desc>
			<path d="M0 357.75 L-62.68 357.75" class="st19"/>
			<rect x="-38.486" y="352.636" width="16.8882" height="9.59985" class="st23"/>
			<text x="-38.49" y="359.84" class="st22">DF.3</text>		</g>
		<g id="shape116-300" transform="translate(641.763,-300.334)">
			<title>Dynamic connector.116</title>
			<path d="M0 357.75 C-1.07 325.68 -282.85 329.22 -322.17 353.75 L-322.43 354" class="st25"/>
		</g>
		<g id="shape1-305" transform="translate(1,-40.685)">
			<title>Rectangle</title>
			<rect x="0" y="349.212" width="17.0079" height="15.6227" class="st7"/>
		</g>
		<g id="shape3-307" transform="translate(1,-20.8425)">
			<title>Rectangle.3</title>
			<rect x="0" y="349.212" width="17.0079" height="15.6227" class="st8"/>
		</g>
		<g id="shape121-309" transform="translate(25.035,-20.8425)">
			<title>Rectangle.121</title>
			<desc>Untrusted component</desc>
			<rect x="0" y="349.212" width="124.724" height="15.6227" class="st28"/>
			<text x="4" y="359.72" class="st16">Untrusted component</text>		</g>
		<g id="shape122-312" transform="translate(25.5197,-40.685)">
			<title>Rectangle.122</title>
			<desc>Trusted component</desc>
			<rect x="0" y="349.212" width="124.724" height="15.6227" class="st28"/>
			<text x="4" y="359.72" class="st16">Trusted component</text>		</g>
		<g id="shape124-315" transform="translate(139.087,-236.439)">
			<title>Rectangle.124</title>
			<desc>Track firmware status</desc>
			<rect x="0" y="337.438" width="72.0053" height="27.3969" class="st15"/>
			<text x="5.85" y="348.44" class="st16">Track firmware <tspan x="23.96" dy="1.2em" class="st17">status</tspan></text>		</g>
		<g id="shape126-319" transform="translate(168.003,-236.439)">
			<title>Dynamic connector.126</title>
			<path d="M7.09 364.83 L7.09 375.19" class="st19"/>
		</g>
		<g id="shape127-324" transform="translate(1,-1.00001)">
			<title>Rectangle.127</title>
			<rect x="0" y="349.212" width="17.0079" height="15.6227" class="st5"/>
		</g>
		<g id="shape128-326" transform="translate(25.035,-1.00001)">
			<title>Rectangle.128</title>
			<rect x="0" y="349.212" width="124.724" height="15.6227" class="st28"/>
		</g>
		<g id="shape129-328" transform="translate(25.035,-1.00001)">
			<title>Rectangle.129</title>
			<desc>Untrusted environment</desc>
			<rect x="0" y="349.212" width="124.724" height="15.6227" class="st28"/>
			<text x="4" y="359.72" class="st16">Untrusted environment</text>		</g>
		<g id="shape130-331" transform="translate(25.5197,-60.5276)">
			<title>Rectangle.130</title>
			<desc>Trust boundary</desc>
			<rect x="0" y="349.212" width="124.724" height="15.6227" class="st28"/>
			<text x="4" y="359.72" class="st16">Trust boundary</text>		</g>
		<g id="shape155-334" transform="translate(1,-60.5276)">
			<title>Rectangle.155</title>
			<path d="M0 364.83 L17.01 364.83 L17.01 349.21 L0 349.21 L0 364.83 Z" class="st1"/>
		</g>
	</g>
</svg>
