<?xml version="1.0" encoding="UTF-8" standalone="no"?><svg xmlns="http://www.w3.org/2000/svg" xmlns:xlink="http://www.w3.org/1999/xlink" contentStyleType="text/css" height="206px" preserveAspectRatio="none" style="width:867px;height:206px;background:#FFFFFF;" version="1.1" viewBox="0 0 867 206" width="867px" zoomAndPan="magnify"><defs/><g><!--MD5=[752525c06a6a34605e879100972458c5]
cluster r3--><g id="cluster_r3"><rect fill="#0091BD" fill-opacity="0.12549" height="148" rx="2.5" ry="2.5" style="stroke:#0091BD;stroke-width:1.0;stroke-dasharray:7.0,7.0;" width="409" x="314" y="52.5"/><text fill="#000000" font-family="Lato,sans-serif" font-size="11" font-style="italic" lengthAdjust="spacing" textLength="96" x="470.5" y="65.3435">«Operational phase»</text><text fill="#000000" font-family="Lato,sans-serif" font-size="11" font-weight="bold" lengthAdjust="spacing" textLength="2" x="517.5" y="78.5271"> </text></g><!--MD5=[6e114ad835a98b39dfa588c73f22387b]
entity lc31--><g id="elem_lc31"><rect fill="#0091BD" height="48.7842" rx="2.5" ry="2.5" style="stroke:#8B0000;stroke-width:0.0;" width="99" x="330" y="98"/><text fill="#FFFFFF" font-family="Lato,sans-serif" font-size="12" lengthAdjust="spacing" textLength="26" x="340" y="119.8375">Boot</text><text fill="#FFFFFF" font-family="Lato,sans-serif" font-size="12" lengthAdjust="spacing" textLength="79" x="340" y="134.2296">(Install update)</text></g><!--MD5=[12ace1f44c92c56255014131a4efc320]
entity lc32--><g id="elem_lc32"><rect fill="#0091BD" height="48.7842" rx="2.5" ry="2.5" style="stroke:#8B0000;stroke-width:0.0;" width="109" x="489" y="98"/><text fill="#FFFFFF" font-family="Lato,sans-serif" font-size="12" lengthAdjust="spacing" textLength="55" x="499" y="119.8375">Operation</text><text fill="#FFFFFF" font-family="Lato,sans-serif" font-size="12" lengthAdjust="spacing" textLength="89" x="499" y="134.2296">(Prepare update)</text></g><!--MD5=[d4fd20bf07c3bb17158f5b6e00fe42c0]
entity lc33--><g id="elem_lc33"><rect fill="#0091BD" height="34.3921" rx="2.5" ry="2.5" style="stroke:#8B0000;stroke-width:0.0;" width="49" x="658" y="105.5"/><text fill="#FFFFFF" font-family="Lato,sans-serif" font-size="12" lengthAdjust="spacing" textLength="29" x="668" y="127.3375">Reset</text></g><g id="elem_n1"><path d="M16,20.5 L16,44.8921 L105,44.8921 L105,30.5 L95,20.5 L16,20.5 " fill="#E8E8E8" style="stroke:#181818;stroke-width:1.0;"/><path d="M95,20.5 L95,30.5 L105,30.5 L95,20.5 " fill="#E8E8E8" style="stroke:#181818;stroke-width:1.0;"/><text fill="#000000" font-family="Lato,sans-serif" font-size="12" lengthAdjust="spacing" textLength="68" x="22" y="37.3375">SiP and OEM</text></g><!--MD5=[9624e15c31868e617e8ae41e3b1a9e47]
entity lc1--><g id="elem_lc1"><rect fill="#0091BD" height="63.1763" rx="2.5" ry="2.5" style="stroke:#8B0000;stroke-width:0.0;" width="107" x="7" y="82"/><text fill="#FFFFFF" font-family="Lato,sans-serif" font-size="12" lengthAdjust="spacing" textLength="37" x="17" y="103.8375">System</text><text fill="#FFFFFF" font-family="Lato,sans-serif" font-size="12" lengthAdjust="spacing" textLength="78" x="17" y="118.2296">manufacturing</text><text fill="#FFFFFF" font-family="Lato,sans-serif" font-size="12" lengthAdjust="spacing" textLength="87" x="17" y="132.6217">and initialization</text></g><g id="elem_n2"><path d="M174,11 L174,49.7842 L270,49.7842 L270,21 L260,11 L174,11 " fill="#E8E8E8" style="stroke:#181818;stroke-width:1.0;"/><path d="M260,11 L260,21 L270,21 L260,11 " fill="#E8E8E8" style="stroke:#181818;stroke-width:1.0;"/><text fill="#000000" font-family="Lato,sans-serif" font-size="12" lengthAdjust="spacing" textLength="52" x="180" y="27.8375">SiP, OEM,</text><text fill="#000000" font-family="Lato,sans-serif" font-size="12" lengthAdjust="spacing" textLength="75" x="180" y="42.2296">and/or Owner</text></g><!--MD5=[9a50fb77d217c2dd04862824df733257]
entity lc2--><g id="elem_lc2"><rect fill="#0091BD" height="63.1763" rx="2.5" ry="2.5" style="stroke:#8B0000;stroke-width:0.0;" width="92" x="176" y="85"/><text fill="#FFFFFF" font-family="Lato,sans-serif" font-size="12" lengthAdjust="spacing" textLength="63" x="186" y="106.8375">Provision of</text><text fill="#FFFFFF" font-family="Lato,sans-serif" font-size="12" lengthAdjust="spacing" textLength="72" x="186" y="121.2296">authorization</text><text fill="#FFFFFF" font-family="Lato,sans-serif" font-size="12" lengthAdjust="spacing" textLength="58" x="186" y="135.6217">credentials</text></g><g id="elem_n3"><path d="M337,12.5 L337,36.8921 L422,36.8921 L422,22.5 L412,12.5 L337,12.5 " fill="#E8E8E8" style="stroke:#181818;stroke-width:1.0;"/><path d="M412,12.5 L412,22.5 L422,22.5 L412,12.5 " fill="#E8E8E8" style="stroke:#181818;stroke-width:1.0;"/><text fill="#000000" font-family="Lato,sans-serif" font-size="12" lengthAdjust="spacing" textLength="64" x="343" y="29.3375">[everybody]</text></g><g id="elem_n4"><path d="M774,6 L774,44.7842 L854,44.7842 L854,16 L844,6 L774,6 " fill="#E8E8E8" style="stroke:#181818;stroke-width:1.0;"/><path d="M844,6 L844,16 L854,16 L844,6 " fill="#E8E8E8" style="stroke:#181818;stroke-width:1.0;"/><text fill="#000000" font-family="Lato,sans-serif" font-size="12" lengthAdjust="spacing" textLength="52" x="780" y="22.8375">SiP, OEM,</text><text fill="#000000" font-family="Lato,sans-serif" font-size="12" lengthAdjust="spacing" textLength="59" x="780" y="37.2296">and Owner</text></g><!--MD5=[042684866a165d6c5766a4eb03c1ce59]
entity lc4--><g id="elem_lc4"><rect fill="#0091BD" height="48.7842" rx="2.5" ry="2.5" style="stroke:#8B0000;stroke-width:0.0;" width="94" x="767" y="86"/><text fill="#FFFFFF" font-family="Lato,sans-serif" font-size="12" lengthAdjust="spacing" textLength="50" x="777" y="107.8375">Return to</text><text fill="#FFFFFF" font-family="Lato,sans-serif" font-size="12" lengthAdjust="spacing" textLength="74" x="777" y="122.2296">Manufacturer</text></g><!--MD5=[2f972e11e68c2202a7adc4f7d3fdb384]
link n1 to lc1--><g id="link_n1_lc1"><path d="M60.5,44.84 C60.5,57.18 60.5,69.52 60.5,81.86 " fill="none" id="n1-lc1" style="stroke:#000000;stroke-width:1.0;stroke-dasharray:7.0,7.0;"/></g><!--MD5=[845dede78496c99f43c25fdec0838eff]
link n2 to lc2--><g id="link_n2_lc2"><path d="M222,50.06 C222,61.68 222,73.3 222,84.92 " fill="none" id="n2-lc2" style="stroke:#000000;stroke-width:1.0;stroke-dasharray:7.0,7.0;"/></g><!--MD5=[a9b38564109499b36a5db51d29601412]
link n3 to lc31--><!--MD5=[16d5b91ae44af932421466655ce2c9b9]
link n4 to lc4--><g id="link_n4_lc4"><path d="M814,45.33 C814,58.86 814,72.4 814,85.93 " fill="none" id="n4-lc4" style="stroke:#000000;stroke-width:1.0;stroke-dasharray:7.0,7.0;"/></g><!--MD5=[389c40c0a93432b43a57b69afe6f5a43]
link n1 to n2--><!--MD5=[78c6aacf3cb8d374b9f64c757ee9ccdc]
link lc1 to lc2--><g id="link_lc1_lc2"><path d="M114.17,114.49 C132.42,114.83 152.81,115.22 170.85,115.56 " fill="none" id="lc1-to-lc2" style="stroke:#000000;stroke-width:1.0;"/><polygon fill="#000000" points="175.87,115.65,166.9399,111.4963,170.8707,115.5643,166.8028,119.4951,175.87,115.65" style="stroke:#000000;stroke-width:1.0;"/></g><!--MD5=[fe166d59fdc099b1f138f87219860a4e]
link n2 to n3--><!--MD5=[e464afe88358ec688441cdf4091d4125]
link lc2 to lc31--><g id="link_lc2_lc31"><path d="M268.4,118.25 C286.01,118.93 306.33,119.72 324.67,120.42 " fill="none" id="lc2-to-lc31" style="stroke:#000000;stroke-width:1.0;"/><polygon fill="#000000" points="329.79,120.62,320.9447,116.2887,324.7934,120.4344,320.6477,124.2832,329.79,120.62" style="stroke:#000000;stroke-width:1.0;"/></g><!--MD5=[aa0746b568d03464a97110e79620184a]
link n3 to lc32--><!--MD5=[a37acc5d35b5e838eeea9d4f21794a06]
link lc31 to lc32--><g id="link_lc31_lc32"><path d="M429.11,122.5 C446.31,122.5 465.86,122.5 483.81,122.5 " fill="none" id="lc31-to-lc32" style="stroke:#000000;stroke-width:1.0;"/><polygon fill="#000000" points="488.83,122.5,479.83,118.5,483.83,122.5,479.83,126.5,488.83,122.5" style="stroke:#000000;stroke-width:1.0;"/></g><!--MD5=[a58d78467d3a2a16c4e8239fa9bde7a4]
link lc32 to lc33--><g id="link_lc32_lc33"><path d="M598.25,122.5 C616.84,122.5 636.95,122.5 652.75,122.5 " fill="none" id="lc32-to-lc33" style="stroke:#000000;stroke-width:1.0;"/><polygon fill="#000000" points="657.93,122.5,648.93,118.5,652.93,122.5,648.93,126.5,657.93,122.5" style="stroke:#000000;stroke-width:1.0;"/></g><!--MD5=[34734da18c3f87831c9ff1a8d1ba33fc]
reverse link lc31 to lc33--><g id="link_lc31_lc33"><path d="M433.86,147.65 C451.07,154.53 470.49,161.04 489,164.5 C536.62,173.4 550.86,175.69 598,164.5 C619.47,159.4 641.7,147.87 657.81,138.17 " fill="none" id="lc31-backto-lc33" style="stroke:#000000;stroke-width:1.0;"/><polygon fill="#000000" points="429.07,145.7,435.8956,152.8,433.7005,147.5865,438.914,145.3913,429.07,145.7" style="stroke:#000000;stroke-width:1.0;"/></g><!--MD5=[3c6776f7648f41e76d7cdf83e31fe108]
link n3 to n4--><!--MD5=[47396dd739ccb476caf683842f4f56f5]
link lc33 to lc4--><g id="link_lc33_lc4"><path d="M707.25,120.3 C722.47,118.89 742.82,117 761.6,115.26 " fill="none" id="lc33-to-lc4" style="stroke:#000000;stroke-width:1.0;"/><polygon fill="#000000" points="766.85,114.78,757.5126,111.6475,761.8723,115.252,758.2678,119.6118,766.85,114.78" style="stroke:#000000;stroke-width:1.0;"/></g></g></svg>