<svg xmlns="http://www.w3.org/2000/svg" xmlns:xlink="http://www.w3.org/1999/xlink" contentStyleType="text/css" data-diagram-type="DESCRIPTION" height="194px" preserveAspectRatio="none" style="width:900px;height:194px;background:#FFFFFF55;" version="1.1" viewBox="0 0 900 194" width="900px" zoomAndPan="magnify"><defs><style type="text/css">@import url('https://fonts.googleapis.com/css?family=Roboto:400,100,100italic,300,300italic,400italic,500,500italic,700,700italic,900,900italic');</style></defs><g><rect fill="#FFFFFF" fill-opacity="0.33333" height="194" style="stroke:none;stroke-width:1;" width="900" x="0" y="0"/><!--cluster p1--><g class="cluster" data-entity="p1" data-source-line="15" data-uid="ent0008" id="cluster_p1"><rect fill="#0091BD" fill-opacity="0.12549" height="109" width="291.56" x="7" y="60.06"/><line x1="7" x2="298.56" y1="76.9506" y2="76.9506"/><text fill="#000000" font-family="Roboto,sans-serif" font-size="11" font-weight="bold" lengthAdjust="spacing" textLength="72.6709" x="116.4446" y="72.2651">Manufacturing</text></g><!--cluster p3--><g class="cluster" data-entity="p3" data-source-line="19" data-uid="ent0011" id="cluster_p3"><rect fill="#0091BD" fill-opacity="0.12549" height="132" width="412.71" x="328.45" y="56.06"/><line x1="328.45" x2="741.16" y1="72.9506" y2="72.9506"/><text fill="#000000" font-family="Roboto,sans-serif" font-size="11" font-weight="bold" lengthAdjust="spacing" textLength="48.6353" x="510.4874" y="68.2651">Operation</text></g><!--cluster p6--><g class="cluster" data-entity="p6" data-source-line="24" data-uid="ent0015" id="cluster_p6"><rect fill="#0091BD" fill-opacity="0.12549" height="95" width="124.26" x="769.16" y="77.06"/><line x1="769.16" x2="893.42" y1="93.9506" y2="93.9506"/><text fill="#000000" font-family="Roboto,sans-serif" font-size="11" font-weight="bold" lengthAdjust="spacing" textLength="49.8599" x="806.3601" y="89.2651">End of life</text></g><!--entity s1--><g class="entity" data-entity="s1" data-source-line="16" data-uid="ent0009" id="entity_s1"><rect fill="#0091BD" height="62.1875" rx="4" ry="4" width="107.3633" x="23" y="90.97"/><text fill="#FFFFFF" font-family="Roboto,sans-serif" font-size="12" lengthAdjust="spacing" textLength="39.8086" x="33" y="112.1028">System</text><text fill="#FFFFFF" font-family="Roboto,sans-serif" font-size="12" lengthAdjust="spacing" textLength="78.1641" x="33" y="126.1653">manufacturing</text><text fill="#FFFFFF" font-family="Roboto,sans-serif" font-size="12" lengthAdjust="spacing" textLength="87.3633" x="33" y="140.2278">and initialization</text></g><!--entity s2--><g class="entity" data-entity="s2" data-source-line="17" data-uid="ent0010" id="entity_s2"><rect fill="#0091BD" height="62.1875" rx="4" ry="4" width="90.3008" x="192.26" y="90.97"/><text fill="#FFFFFF" font-family="Roboto,sans-serif" font-size="12" lengthAdjust="spacing" textLength="63.7852" x="202.26" y="112.1028">Provision of</text><text fill="#FFFFFF" font-family="Roboto,sans-serif" font-size="12" lengthAdjust="spacing" textLength="70.3008" x="202.26" y="126.1653">authorization</text><text fill="#FFFFFF" font-family="Roboto,sans-serif" font-size="12" lengthAdjust="spacing" textLength="58.9512" x="202.26" y="140.2278">credentials</text></g><!--entity s3--><g class="entity" data-entity="s3" data-source-line="20" data-uid="ent0012" id="entity_s3"><rect fill="#0091BD" height="48.125" rx="4" ry="4" width="100.5723" x="344.45" y="98"/><text fill="#FFFFFF" font-family="Roboto,sans-serif" font-size="12" lengthAdjust="spacing" textLength="25.0898" x="354.45" y="119.1328">Boot</text><text fill="#FFFFFF" font-family="Roboto,sans-serif" font-size="12" lengthAdjust="spacing" textLength="80.5723" x="354.45" y="133.1953">(Install update)</text></g><!--entity s4--><g class="entity" data-entity="s4" data-source-line="21" data-uid="ent0013" id="entity_s4"><rect fill="#0091BD" height="48.125" rx="4" ry="4" width="109.8945" x="505.03" y="124"/><text fill="#FFFFFF" font-family="Roboto,sans-serif" font-size="12" lengthAdjust="spacing" textLength="52.2656" x="515.03" y="145.1328">Operation</text><text fill="#FFFFFF" font-family="Roboto,sans-serif" font-size="12" lengthAdjust="spacing" textLength="89.8945" x="515.03" y="159.1953">(Prepare update)</text></g><!--entity s5--><g class="entity" data-entity="s5" data-source-line="22" data-uid="ent0014" id="entity_s5"><rect fill="#0091BD" height="34.0625" rx="4" ry="4" width="50.2402" x="674.92" y="115.03"/><text fill="#FFFFFF" font-family="Roboto,sans-serif" font-size="12" lengthAdjust="spacing" textLength="30.2402" x="684.92" y="136.1628">Reset</text></g><!--entity s6--><g class="entity" data-entity="s6" data-source-line="25" data-uid="ent0016" id="entity_s6"><rect fill="#0091BD" height="48.125" rx="4" ry="4" width="92.2637" x="785.16" y="108"/><text fill="#FFFFFF" font-family="Roboto,sans-serif" font-size="12" lengthAdjust="spacing" textLength="48.7383" x="795.16" y="129.1328">Return to</text><text fill="#FFFFFF" font-family="Roboto,sans-serif" font-size="12" lengthAdjust="spacing" textLength="72.2637" x="795.16" y="143.1953">Manufacturer</text></g><g class="entity" data-entity="k1" data-source-line="8" data-uid="ent0002" id="entity_k1"><path d="M31.66,21.03 L31.66,37.0925 A4,4 0 0 0 35.66,41.0925 L117.701,41.0925 A4,4 0 0 0 121.701,37.0925 L121.701,27.03 L111.701,17.03 L35.66,17.03 A4,4 0 0 0 31.66,21.03" fill="#E8E8E8" style="stroke:#7D868C;stroke-width:1;"/><path d="M111.701,17.03 L111.701,25.03 A2,2 0 0 0 113.701,27.03 L121.701,27.03 L111.701,17.03" fill="#E8E8E8" style="stroke:#7D868C;stroke-width:1;"/><text fill="#000000" font-family="Roboto,sans-serif" font-size="12" lengthAdjust="spacing" textLength="69.041" x="37.66" y="33.1628">SiP and OEM</text></g><g class="entity" data-entity="k2" data-source-line="9" data-uid="ent0003" id="entity_k2"><path d="M190.36,10 L190.36,40.125 A4,4 0 0 0 194.36,44.125 L280.4498,44.125 A4,4 0 0 0 284.4498,40.125 L284.4498,16 L274.4498,6 L194.36,6 A4,4 0 0 0 190.36,10" fill="#E8E8E8" style="stroke:#7D868C;stroke-width:1;"/><path d="M274.4498,6 L274.4498,14 A2,2 0 0 0 276.4498,16 L284.4498,16 L274.4498,6" fill="#E8E8E8" style="stroke:#7D868C;stroke-width:1;"/><text fill="#000000" font-family="Roboto,sans-serif" font-size="12" lengthAdjust="spacing" textLength="50.8652" x="196.36" y="22.1328">SiP, OEM,</text><text fill="#000000" font-family="Roboto,sans-serif" font-size="12" lengthAdjust="spacing" textLength="73.0898" x="196.36" y="36.1953">and/or Owner</text></g><g class="entity" data-entity="k3" data-source-line="10" data-uid="ent0004" id="entity_k3"><path d="M353.9,17.03 L353.9,33.0925 A4,4 0 0 0 357.9,37.0925 L431.5738,37.0925 A4,4 0 0 0 435.5738,33.0925 L435.5738,23.03 L425.5738,13.03 L357.9,13.03 A4,4 0 0 0 353.9,17.03" fill="#E8E8E8" style="stroke:#7D868C;stroke-width:1;"/><path d="M425.5738,13.03 L425.5738,21.03 A2,2 0 0 0 427.5738,23.03 L435.5738,23.03 L425.5738,13.03" fill="#E8E8E8" style="stroke:#7D868C;stroke-width:1;"/><text fill="#000000" font-family="Roboto,sans-serif" font-size="12" lengthAdjust="spacing" textLength="60.6738" x="359.9" y="29.1628">[everybody]</text></g><!--entity k4--><!--entity k5--><g class="entity" data-entity="k6" data-source-line="13" data-uid="ent0007" id="entity_k6"><path d="M792.18,10 L792.18,40.125 A4,4 0 0 0 796.18,44.125 L866.4085,44.125 A4,4 0 0 0 870.4085,40.125 L870.4085,16 L860.4085,6 L796.18,6 A4,4 0 0 0 792.18,10" fill="#E8E8E8" style="stroke:#7D868C;stroke-width:1;"/><path d="M860.4085,6 L860.4085,14 A2,2 0 0 0 862.4085,16 L870.4085,16 L860.4085,6" fill="#E8E8E8" style="stroke:#7D868C;stroke-width:1;"/><text fill="#000000" font-family="Roboto,sans-serif" font-size="12" lengthAdjust="spacing" textLength="50.8652" x="798.18" y="22.1328">SiP, OEM,</text><text fill="#000000" font-family="Roboto,sans-serif" font-size="12" lengthAdjust="spacing" textLength="57.2285" x="798.18" y="36.1953">and Owner</text></g><!--link s1 to k1--><!--link s1 to s2--><g class="link" data-entity-1="s1" data-entity-2="s2" data-source-line="30" data-uid="lnk19" id="link_s1_s2"><path d="M130.54,122.06 C150.47,122.06 166.92,122.06 186,122.06" fill="none" id="s1-to-s2" style="stroke:#000000;stroke-width:1;"/><polygon fill="#000000" points="192,122.06,183,118.06,187,122.06,183,126.06,192,122.06" style="stroke:#000000;stroke-width:1;"/></g><!--link s2 to s3--><g class="link" data-entity-1="s2" data-entity-2="s3" data-source-line="31" data-uid="lnk20" id="link_s2_s3"><path d="M282.92,122.06 C302.01,122.06 318.4,122.06 338.04,122.06" fill="none" id="s2-to-s3" style="stroke:#000000;stroke-width:1;"/><polygon fill="#000000" points="344.04,122.06,335.04,118.06,339.04,122.06,335.04,126.06,344.04,122.06" style="stroke:#000000;stroke-width:1;"/></g><!--link s3 to s4--><g class="link" data-entity-1="s3" data-entity-2="s4" data-source-line="32" data-uid="lnk21" id="link_s3_s4"><path d="M445.16,129.93 C463.92,132.92 479.4748,135.3957 498.6748,138.4557" fill="none" id="s3-to-s4" style="stroke:#000000;stroke-width:1;"/><polygon fill="#000000" points="504.6,139.4,496.3417,134.0334,499.6623,138.6131,495.0826,141.9336,504.6,139.4" style="stroke:#000000;stroke-width:1;"/></g><!--link s4 to s5--><g class="link" data-entity-1="s4" data-entity-2="s5" data-source-line="33" data-uid="lnk22" id="link_s4_s5"><path d="M615.14,141.78 C635.69,139.4 652.1299,137.5008 668.6099,135.5908" fill="none" id="s4-to-s5" style="stroke:#000000;stroke-width:1;"/><polygon fill="#000000" points="674.57,134.9,665.1693,131.9627,669.6032,135.4756,666.0904,139.9095,674.57,134.9" style="stroke:#000000;stroke-width:1;"/></g><!--reverse link s3 to s5--><g class="link" data-entity-1="s3" data-entity-2="s5" data-source-line="34" data-uid="lnk23" id="link_s3_s5"><path d="M451.079,111.2277 C495.669,103.8277 557.01,97.31 614.92,106.06 C635.48,109.16 657.93,116.31 674.47,122.32" fill="none" id="s3-backto-s5" style="stroke:#000000;stroke-width:1;"/><polygon fill="#000000" points="445.16,112.21,454.6934,114.6826,450.0925,111.3914,453.3837,106.7905,445.16,112.21" style="stroke:#000000;stroke-width:1;"/></g><!--link s5 to s6--><g class="link" data-entity-1="s5" data-entity-2="s6" data-source-line="35" data-uid="lnk24" id="link_s5_s6"><path d="M725.66,132.06 C742.36,132.06 758.93,132.06 778.84,132.06" fill="none" id="s5-to-s6" style="stroke:#000000;stroke-width:1;"/><polygon fill="#000000" points="784.84,132.06,775.84,128.06,779.84,132.06,775.84,136.06,784.84,132.06" style="stroke:#000000;stroke-width:1;"/></g><!--link k1 to k2--><!--link k2 to k3--><!--link k3 to k4--><!--link k4 to k5--><!--link k5 to k6--></g></svg>