<?xml version="1.0" encoding="UTF-8" standalone="no"?><svg xmlns="http://www.w3.org/2000/svg" xmlns:xlink="http://www.w3.org/1999/xlink" contentStyleType="text/css" height="491px" preserveAspectRatio="none" style="width:338px;height:491px;background:#FFFFFF;" version="1.1" viewBox="0 0 338 491" width="338px" zoomAndPan="magnify"><defs/><g><rect fill="#FFFFFF" height="40" rx="12.5" ry="12.5" style="stroke:#000000;stroke-width:1.0;" width="50" x="106.33" y="121"/><text fill="#000000" font-family="Lato,sans-serif" font-size="12" font-style="italic" lengthAdjust="spacing" textLength="39" x="111.83" y="145.6414">inactive</text><rect fill="#FFFFFF" height="40" rx="12.5" ry="12.5" style="stroke:#000000;stroke-width:1.0;" width="50" x="52.33" y="237"/><text fill="#000000" font-family="Lato,sans-serif" font-size="12" font-style="italic" lengthAdjust="spacing" textLength="30" x="62.33" y="261.6414">active</text><rect fill="#FFFFFF" height="40" rx="12.5" ry="12.5" style="stroke:#8B0000;stroke-width:1.0;" width="50" x="134.33" y="367"/><text fill="#8B0000" font-family="Lato,sans-serif" font-size="12" font-style="italic" lengthAdjust="spacing" textLength="24" x="147.33" y="391.6414">error</text><ellipse cx="131.33" cy="25.5" fill="#222222" rx="10" ry="10" style="stroke:none;stroke-width:1.0;"/><g id="elem_N1"><path d="M176.83,6 L176.83,44.7842 L331.83,44.7842 L331.83,16 L321.83,6 L176.83,6 " fill="#E8E8E8" style="stroke:#181818;stroke-width:1.0;"/><path d="M321.83,6 L321.83,16 L331.83,16 L321.83,6 " fill="#E8E8E8" style="stroke:#181818;stroke-width:1.0;"/><text fill="#000000" font-family="Lato,sans-serif" font-size="12" lengthAdjust="spacing" textLength="134" x="182.83" y="22.8375">Operation object starts as</text><text fill="#000000" font-family="Lato,sans-serif" font-size="12" lengthAdjust="spacing" textLength="110" x="182.83" y="37.2296">uninitialised memory</text></g><!--MD5=[cbf22ba017f8334a6284ec7023148ed4]
link *start to inactive--><g id="link_*start_inactive"><path d="M131.33,35.79 C131.33,53.09 131.33,90.75 131.33,115.74 " fill="none" id="*start-to-inactive" style="stroke:#000000;stroke-width:1.0;"/><polygon fill="#000000" points="131.33,120.87,135.33,111.87,131.33,115.87,127.33,111.87,131.33,120.87" style="stroke:#000000;stroke-width:1.0;"/><text fill="#000000" font-family="Lato,sans-serif" font-size="12" font-weight="bold" lengthAdjust="spacing" textLength="46" x="132.33" y="87.8375">Initialize</text></g><!--MD5=[24a3f507ae4be35bb92705f568c1523d]
link inactive to active--><g id="link_inactive_active"><path d="M105.99,144.99 C79.04,149.67 37.69,161.5 18.33,191 C6,209.79 27.47,228.51 47.88,241 " fill="none" id="inactive-to-active" style="stroke:#000000;stroke-width:1.0;"/><polygon fill="#000000" points="52.21,243.57,46.519,235.5318,47.9125,241.0143,42.43,242.4078,52.21,243.57" style="stroke:#000000;stroke-width:1.0;"/><text fill="#000000" font-family="Lato,sans-serif" font-size="12" font-weight="bold" lengthAdjust="spacing" textLength="31" x="19.33" y="203.8375">Setup</text></g><!--MD5=[791ada642fd2d6774a49c3ceec6b12b0]
link active to inactive--><g id="link_active_inactive"><path d="M79.08,236.74 C80.85,223.38 84.38,205.46 91.33,191 C95.75,181.82 102.23,172.85 108.68,165.15 " fill="none" id="active-to-inactive" style="stroke:#000000;stroke-width:1.0;"/><polygon fill="#000000" points="112.25,161.01,103.3389,165.2043,108.9808,164.7932,109.3919,170.435,112.25,161.01" style="stroke:#000000;stroke-width:1.0;"/><text fill="#000000" font-family="Lato,sans-serif" font-size="12" font-weight="bold" lengthAdjust="spacing" textLength="32" x="92.33" y="203.8375">Finish</text></g><!--MD5=[791ada642fd2d6774a49c3ceec6b12b0]
link active to inactive--><g id="link_active_inactive"><path d="M102.5,239.18 C112.78,230.83 123.58,219.78 129.33,207 C135.01,194.39 135.71,178.96 134.9,166.3 " fill="none" id="active-to-inactive-1" style="stroke:#0000FF;stroke-width:1.0;stroke-dasharray:1.0,3.0;"/><polygon fill="#0000FF" points="134.47,161.06,131.2312,170.3611,134.8852,166.0427,139.2036,169.6967,134.47,161.06" style="stroke:#0000FF;stroke-width:1.0;"/><text fill="#0000FF" font-family="Lato,sans-serif" font-size="12" font-weight="bold" lengthAdjust="spacing" textLength="33" x="135.33" y="203.8375">Abort</text></g><!--MD5=[2a34e9032f4d101d087b2d1552062dfb]
link active to active--><g id="link_active_active"><path d="M102.61,247.19 C120.11,244.21 137.33,247.48 137.33,257 C137.33,265.55 123.43,269.06 107.92,267.53 " fill="none" id="active-to-active" style="stroke:#000000;stroke-width:1.0;"/><polygon fill="#000000" points="102.61,266.81,111.0063,271.958,107.5666,267.4671,112.0576,264.0274,102.61,266.81" style="stroke:#000000;stroke-width:1.0;"/><text fill="#000000" font-family="Lato,sans-serif" font-size="12" font-weight="bold" lengthAdjust="spacing" textLength="40" x="143.33" y="261.8375">Update</text></g><!--MD5=[631e2c4411ceec93d7ddb8ab8941d657]
link error to inactive--><g id="link_error_inactive"><path d="M168.33,366.8 C172.2,357.9 176.48,347.08 179.33,337 C191.52,294.03 195.02,281.3 189.33,237 C186.65,216.04 187.55,209.5 177.33,191 C172.1,181.52 164.61,172.47 157.2,164.79 " fill="none" id="error-to-inactive" style="stroke:#8B0000;stroke-width:1.0;stroke-dasharray:7.0,7.0;"/><polygon fill="#8B0000" points="153.57,161.13,157.0684,170.3366,157.0912,164.6798,162.7481,164.7026,153.57,161.13" style="stroke:#8B0000;stroke-width:1.0;"/><text fill="#8B0000" font-family="Lato,sans-serif" font-size="12" font-weight="bold" lengthAdjust="spacing" textLength="33" x="193.33" y="261.8375">Abort</text></g><!--MD5=[b5694bddbc9c5a839673aa770770a59b]
link inactive to inactive--><g id="link_inactive_inactive"><path d="M156.61,131.19 C174.11,128.21 191.33,131.48 191.33,141 C191.33,149.55 177.43,153.06 161.92,151.53 " fill="none" id="inactive-to-inactive" style="stroke:#8B0000;stroke-width:1.0;stroke-dasharray:7.0,7.0;"/><polygon fill="#8B0000" points="156.61,150.81,165.0063,155.958,161.5666,151.4671,166.0576,148.0274,156.61,150.81" style="stroke:#8B0000;stroke-width:1.0;"/><text fill="#8B0000" font-family="Lato,sans-serif" font-size="12" font-weight="bold" lengthAdjust="spacing" textLength="31" x="197.33" y="138.8375">Setup</text><text fill="#8B0000" font-family="Lato,sans-serif" font-size="12" font-style="italic" lengthAdjust="spacing" textLength="21" x="202.33" y="153.2296">fails</text></g><!--MD5=[cda5f9a819e769cf6bdd637224e7aab7]
link active to error--><g id="link_active_error"><path d="M71.17,277.24 C66.95,294.15 63.83,318.82 74.33,337 C86.12,357.39 109.97,370.05 129.42,377.38 " fill="none" id="active-to-error" style="stroke:#8B0000;stroke-width:1.0;stroke-dasharray:7.0,7.0;"/><polygon fill="#8B0000" points="134.26,379.13,127.1572,372.3073,129.5581,377.4293,124.4361,379.8303,134.26,379.13" style="stroke:#8B0000;stroke-width:1.0;"/><text fill="#8B0000" font-family="Lato,sans-serif" font-size="12" font-weight="bold" lengthAdjust="spacing" textLength="40" x="75.33" y="319.8375">Update</text><text fill="#8B0000" font-family="Lato,sans-serif" font-size="12" font-style="italic" lengthAdjust="spacing" textLength="21" x="84.83" y="334.2296">fails</text></g><!--MD5=[cda5f9a819e769cf6bdd637224e7aab7]
link active to error--><g id="link_active_error"><path d="M96.16,277.07 C104.18,285.77 113.29,296.46 120.33,307 C131.97,324.4 142.31,345.77 149.41,361.9 " fill="none" id="active-to-error-1" style="stroke:#8B0000;stroke-width:1.0;stroke-dasharray:7.0,7.0;"/><polygon fill="#8B0000" points="151.51,366.72,151.6043,356.8716,149.5232,362.1317,144.2631,360.0505,151.51,366.72" style="stroke:#8B0000;stroke-width:1.0;"/><text fill="#8B0000" font-family="Lato,sans-serif" font-size="12" font-weight="bold" lengthAdjust="spacing" textLength="32" x="138.33" y="319.8375">Finish</text><text fill="#8B0000" font-family="Lato,sans-serif" font-size="12" font-style="italic" lengthAdjust="spacing" textLength="21" x="143.83" y="334.2296">fails</text></g><rect fill="#DDDDDD" height="55.1763" id="_legend" rx="7.5" ry="7.5" style="stroke:#000000;stroke-width:1.0;" width="248" x="38.415" y="420"/><text fill="#000000" font-family="Consolas,Menlo,monospace" font-size="12" lengthAdjust="spacing" text-decoration="line-through" textLength="21" x="44.415" y="438.3296">———</text><text fill="#000000" font-family="Lato,sans-serif" font-size="12" lengthAdjust="spacing" textLength="192" x="67.415" y="437.8375">Solid lines show successful operation</text><text fill="#8B0000" font-family="Consolas,Menlo,monospace" font-size="12" lengthAdjust="spacing" textLength="21" x="44.415" y="452.7217">---</text><text fill="#000000" font-family="Lato,sans-serif" font-size="12" lengthAdjust="spacing" textLength="156" x="67.415" y="452.2296">Dashed lines show error flows</text><text fill="#0000FF" font-family="Consolas,Menlo,monospace" font-size="12" lengthAdjust="spacing" textLength="21" x="44.415" y="467.1138">………</text><text fill="#000000" font-family="Lato,sans-serif" font-size="12" lengthAdjust="spacing" textLength="213" x="67.415" y="466.6217">Dotted lines show operation cancellation</text></g></svg>