<svg xmlns="http://www.w3.org/2000/svg" xmlns:xlink="http://www.w3.org/1999/xlink" contentStyleType="text/css" data-diagram-type="DESCRIPTION" height="234px" preserveAspectRatio="none" style="width:870px;height:234px;background:#FFFFFF55;" version="1.1" viewBox="0 0 870 234" width="870px" zoomAndPan="magnify"><defs/><g><rect fill="#FFFFFF" fill-opacity="0.33333" height="234" style="stroke:none;stroke-width:1;" width="870" x="0" y="0"/><!--cluster Internet--><g class="cluster" data-entity="Internet" data-source-line="14" data-uid="ent0003" id="cluster_Internet"><path d="M147.2949,34.6143 C149.3334,29.2512 152.5248,28.5757 156.8294,32.214 C159.1514,26.9377 164.4286,26.0883 168.3963,30.1825 C171.4039,25.5403 176.0641,26.3367 178.607,30.709 C181.8755,23.3245 186.1729,24.035 191.4517,28.5367 C193.5932,22.6794 197.1397,22.1149 201.3867,26.4931 C206.3983,22.1809 209.7964,23.5885 212.5493,29.068 C216.8752,24.1935 220.0065,25.8311 222.8644,30.6329 C225.8136,26.1225 231.0573,25.8779 233.6798,30.9998 C238.1215,25.9042 242.2805,27.2505 244.5675,33.1361 C248.7295,26.7942 253.5774,27.2293 257.4183,33.4641 C263.4913,36.1063 263.3854,41.3592 258.5573,45.0711 C264.1496,47.9536 265.093,51.9215 259.812,56.0471 C266.9491,57.9116 267.0968,62.8138 262.9718,67.7255 C268.2199,72.2922 265.8945,77.3975 260.2637,79.4519 C264.8177,83.3367 264.3872,87.3104 258.7856,89.7354 C263.6249,94.3278 262.9438,98.7758 256.4866,101.0786 C253.1879,105.2627 249.5475,105.416 246.215,101.1195 C242.6368,106.0256 238.4683,106.5351 235.3816,100.6272 C232.3277,107.3601 228.5337,107.7713 223.6731,102.3707 C220.5863,106.7947 216.7614,107.5326 213.5463,102.5082 C210.1314,107.4061 205.9691,107.597 202.1231,103.0285 C198.1411,107.0257 194.2706,106.3758 191.4845,101.5815 C187.9813,106.1731 182.794,107.1609 179.8395,100.9879 C176.4889,105.658 172.2561,106.8106 169.0178,100.8734 C165.6279,105.6969 162.1383,106.1875 157.9099,101.8952 C153.3148,105.9299 149.1368,105.6998 146.7405,99.4965 C141.5617,97.389 139.7726,92.8926 144.9123,88.9896 C138.9919,85.6535 138.8397,81.8104 144.6336,78.1726 C139.426,74.372 139.7536,71.2464 144.9268,67.7376 C139.6301,63.3931 140.5261,59.3594 146.1197,56.1345 C141.2679,52.8964 141.6799,48.4233 146.4176,45.4526 C142.1313,41.5696 141.7046,37.6978 147.2949,34.6143" fill="#FFFFFF" style="stroke:#7D868C;stroke-width:1;"/><text fill="#000000" font-family="Lato,sans-serif" font-size="11" font-weight="bold" lengthAdjust="spacing" textLength="39.7045" x="180.6178" y="48.857">Internet</text></g><g class="cluster" data-entity="##6" data-source-line="14" data-uid="ent0007" id="cluster_##6"><rect fill="#FFFFFF" fill-opacity="0.56471" height="221.8" style="stroke:#8B0000;stroke-width:1;stroke-dasharray:7.0,7.0;" width="544" x="320.47" y="7"/><text fill="#000000" font-family="Lato,sans-serif" font-size="11" font-style="italic" lengthAdjust="spacing" textLength="39.7815" x="572.5792" y="19.857">&#171;Device&#187;</text></g><!--entity server--><g class="entity" data-entity="server" data-source-line="15" data-uid="ent0004" id="entity_server"><rect fill="#7D868C" height="34.4" rx="4" ry="4" width="94.742" x="153.1" y="57"/><text fill="#FFFFFF" font-family="Lato,sans-serif" font-size="12" lengthAdjust="spacing" textLength="74.742" x="163.1" y="78.844">Update server</text></g><!--entity client--><g class="entity" data-entity="client" data-source-line="20" data-uid="ent0008" id="entity_client"><rect fill="#7D868C" height="34.4" rx="4" ry="4" width="90.722" x="336.11" y="57"/><text fill="#FFFFFF" font-family="Lato,sans-serif" font-size="12" lengthAdjust="spacing" textLength="70.722" x="346.11" y="78.844">Update client</text></g><!--entity api--><g class="entity" data-entity="api" data-source-line="21" data-uid="ent0009" id="entity_api"><ellipse cx="470.47" cy="74.2" fill="#95D600" rx="8" ry="8" style="stroke:#7D868C;stroke-width:1;"/><text fill="#000000" font-family="Lato,sans-serif" font-size="12" lengthAdjust="spacing" textLength="6.144" x="439.603" y="103.044">&#160;&#160;</text><text fill="#000000" font-family="Lato,sans-serif" font-size="12" font-weight="bold" lengthAdjust="spacing" textLength="50.97" x="445.747" y="103.044">Firmware</text><text fill="#000000" font-family="Lato,sans-serif" font-size="12" font-weight="bold" lengthAdjust="spacing" textLength="61.734" x="439.603" y="117.444">Update API</text></g><!--entity service--><g class="entity" data-entity="service" data-source-line="22" data-uid="ent0010" id="entity_service"><rect fill="#0091BD" height="34.4" rx="4" ry="4" width="98.984" x="513.98" y="57"/><text fill="#FFFFFF" font-family="Lato,sans-serif" font-size="12" lengthAdjust="spacing" textLength="78.984" x="523.98" y="78.844">Update service</text></g><!--entity store--><g class="entity" data-entity="store" data-source-line="23" data-uid="ent0011" id="entity_store"><path d="M575.43,179.4 C575.43,169.4 625.468,169.4 625.468,169.4 C625.468,169.4 675.506,169.4 675.506,179.4 L675.506,202.8 C675.506,212.8 625.468,212.8 625.468,212.8 C625.468,212.8 575.43,212.8 575.43,202.8 L575.43,179.4" fill="#E5ECEB" style="stroke:#7D868C;stroke-width:1;"/><path d="M575.43,179.4 C575.43,189.4 625.468,189.4 625.468,189.4 C625.468,189.4 675.506,189.4 675.506,179.4" fill="none" style="stroke:#7D868C;stroke-width:1;"/><text fill="#000000" font-family="Lato,sans-serif" font-size="12" lengthAdjust="spacing" textLength="80.076" x="585.43" y="205.244">Firmware store</text></g><!--entity bootloader--><g class="entity" data-entity="bootloader" data-source-line="24" data-uid="ent0012" id="entity_bootloader"><rect fill="#0091BD" height="34.4" rx="4" ry="4" width="78.692" x="648.13" y="57"/><text fill="#FFFFFF" font-family="Lato,sans-serif" font-size="12" lengthAdjust="spacing" textLength="58.692" x="658.13" y="78.844">Bootloader</text></g><!--entity anchor--><g class="entity" data-entity="anchor" data-source-line="25" data-uid="ent0013" id="entity_anchor"><text fill="#000000" font-family="Lato,sans-serif" font-size="30" lengthAdjust="spacing" textLength="23.04" x="771.99" y="78.61">&#160;&#160;&#160;</text><path d="M809.78,57.5 C806.33,57.5 803.53,60.3 803.53,63.75 C803.53,64.15 803.53,64.55 803.605,64.925 L796.03,72.5 L796.03,77.5 L803.53,77.5 L803.53,72.5 L808.53,72.5 L808.53,70 L808.605,69.925 C808.98,70 809.38,70 809.78,70 C813.23,70 816.03,67.2 816.03,63.75 C816.03,60.3 813.23,57.5 809.78,57.5 M811.03,60 C812.405,60 813.53,61.125 813.53,62.5 C813.53,63.875 812.405,65 811.03,65 C809.655,65 808.53,63.875 808.53,62.5 C808.53,61.125 809.655,60 811.03,60" fill="#000000"/><text fill="#000000" font-family="Lato,sans-serif" font-size="12" lengthAdjust="spacing" textLength="66.972" x="771.99" y="96.844">Trust anchor</text></g><!--entity creator--><g class="entity" data-entity="creator" data-source-line="13" data-uid="ent0002" id="entity_creator"><rect fill="#002B49" height="34.4" rx="4" ry="4" width="110.942" x="7" y="57"/><text fill="#FFFFFF" font-family="Lato,sans-serif" font-size="12" lengthAdjust="spacing" textLength="90.942" x="17" y="78.844">Firmware creator</text></g><!--entity tls--><g class="entity" data-entity="tls" data-source-line="17" data-uid="ent0005" id="entity_tls"><ellipse cx="292.47" cy="74.2" fill="#E5ECEB" rx="8" ry="8" style="stroke:#7D868C;stroke-width:1;"/><text fill="#000000" font-family="Lato,sans-serif" font-size="12" lengthAdjust="spacing" textLength="34.92" x="273.945" y="103.044">MQTT</text><text fill="#000000" font-family="Lato,sans-serif" font-size="12" lengthAdjust="spacing" textLength="30.15" x="277.017" y="117.444">CoAP</text><text fill="#000000" font-family="Lato,sans-serif" font-size="12" lengthAdjust="spacing" textLength="37.05" x="273.945" y="131.844">HTTPS</text><text fill="#000000" font-family="Lato,sans-serif" font-size="12" lengthAdjust="spacing" textLength="8.496" x="286.233" y="146.244">...</text></g><!--entity drive--><g class="entity" data-entity="drive" data-source-line="28" data-uid="ent0014" id="entity_drive"><path d="M144.63,179.4 C144.63,169.4 197.473,169.4 197.473,169.4 C197.473,169.4 250.316,169.4 250.316,179.4 L250.316,202.8 C250.316,212.8 197.473,212.8 197.473,212.8 C197.473,212.8 144.63,212.8 144.63,202.8 L144.63,179.4" fill="#E5ECEB" style="stroke:#7D868C;stroke-width:1;"/><path d="M144.63,179.4 C144.63,189.4 197.473,189.4 197.473,189.4 C197.473,189.4 250.316,189.4 250.316,179.4" fill="none" style="stroke:#7D868C;stroke-width:1;"/><text fill="#000000" font-family="Lato,sans-serif" font-size="12" lengthAdjust="spacing" textLength="85.686" x="154.63" y="205.244">External storage</text></g><!--entity usb--><g class="entity" data-entity="usb" data-source-line="29" data-uid="ent0015" id="entity_usb"><ellipse cx="294.47" cy="191.1" fill="#E5ECEB" rx="8" ry="8" style="stroke:#7D868C;stroke-width:1;"/><text fill="#000000" font-family="Lato,sans-serif" font-size="12" lengthAdjust="spacing" textLength="23.094" x="282.923" y="219.944">USB</text></g><!--link creator to server--><g class="link" data-entity-1="creator" data-entity-2="server" data-source-line="31" data-uid="lnk16" id="link_creator_server"><path d="M118.26,74.2 C129.72,74.2 135.17,74.2 146.62,74.2" fill="none" id="creator-to-server" style="stroke:#000000;stroke-width:1;"/><polygon fill="#000000" points="152.62,74.2,143.62,70.2,147.62,74.2,143.62,78.2,152.62,74.2" style="stroke:#000000;stroke-width:1;"/></g><!--reverse link server to tls--><g class="link" data-entity-1="server" data-entity-2="tls" data-source-line="32" data-uid="lnk17" id="link_server_tls"><path d="M254.27,74.2 C265.89,74.2 271.52,74.2 283.15,74.2" fill="none" id="server-backto-tls" style="stroke:#000000;stroke-width:1;"/><polygon fill="#000000" points="248.27,74.2,257.27,78.2,253.27,74.2,257.27,70.2,248.27,74.2" style="stroke:#000000;stroke-width:1;"/></g><!--link tls to client--><g class="link" data-entity-1="tls" data-entity-2="client" data-source-line="33" data-uid="lnk18" id="link_tls_client"><path d="M301.86,74.2 C313.16,74.2 318.46,74.2 329.76,74.2" fill="none" id="tls-to-client" style="stroke:#000000;stroke-width:1;"/><polygon fill="#000000" points="335.76,74.2,326.76,70.2,330.76,74.2,326.76,78.2,335.76,74.2" style="stroke:#000000;stroke-width:1;"/></g><!--link client to api--><g class="link" data-entity-1="client" data-entity-2="api" data-source-line="34" data-uid="lnk19" id="link_client_api"><path d="M427.01,74.2 C438.44,74.2 449.87,74.2 461.3,74.2" fill="none" id="client-api" style="stroke:#000000;stroke-width:1;"/></g><!--link api to service--><g class="link" data-entity-1="api" data-entity-2="service" data-source-line="35" data-uid="lnk20" id="link_api_service"><path d="M479.92,74.2 C491.12,74.2 496.33,74.2 507.53,74.2" fill="none" id="api-to-service" style="stroke:#000000;stroke-width:1;"/><polygon fill="#000000" points="513.53,74.2,504.53,70.2,508.53,74.2,504.53,78.2,513.53,74.2" style="stroke:#000000;stroke-width:1;"/></g><!--link service to store--><g class="link" data-entity-1="service" data-entity-2="store" data-source-line="36" data-uid="lnk21" id="link_service_store"><path d="M572.35,91.66 C583.34,112.02 599.2003,141.4099 611.2303,163.6999" fill="none" id="service-to-store" style="stroke:#000000;stroke-width:1;"/><polygon fill="#000000" points="614.08,168.98,613.3255,159.1601,611.7053,164.5799,606.2854,162.9597,614.08,168.98" style="stroke:#000000;stroke-width:1;"/></g><!--link service to bootloader--><!--link bootloader to store--><g class="link" data-entity-1="bootloader" data-entity-2="store" data-source-line="38" data-uid="lnk23" id="link_bootloader_store"><path d="M678.59,91.66 C667.61,112.02 651.7378,141.4089 639.7178,163.6989" fill="none" id="bootloader-to-store" style="stroke:#000000;stroke-width:1;"/><polygon fill="#000000" points="636.87,168.98,644.6625,162.957,639.2432,164.5791,637.6211,159.1598,636.87,168.98" style="stroke:#000000;stroke-width:1;"/></g><!--link bootloader to anchor--><g class="link" data-entity-1="bootloader" data-entity-2="anchor" data-source-line="39" data-uid="lnk24" id="link_bootloader_anchor"><path d="M727.11,74.2 C738.64,74.2 744.17,74.2 755.7,74.2" fill="none" id="bootloader-to-anchor" style="stroke:#000000;stroke-width:1;"/><polygon fill="#000000" points="761.7,74.2,752.7,70.2,756.7,74.2,752.7,78.2,761.7,74.2" style="stroke:#000000;stroke-width:1;"/></g><!--link server to drive--><!--link tls to usb--><!--reverse link drive to usb--><g class="link" data-entity-1="drive" data-entity-2="usb" data-source-line="43" data-uid="lnk27" id="link_drive_usb"><path d="M256.52,191.1 C268.08,191.1 273.64,191.1 285.2,191.1" fill="none" id="drive-backto-usb" style="stroke:#000000;stroke-width:1;"/><polygon fill="#000000" points="250.52,191.1,259.52,195.1,255.52,191.1,259.52,187.1,250.52,191.1" style="stroke:#000000;stroke-width:1;"/></g><!--link usb to client--><g class="link" data-entity-1="usb" data-entity-2="client" data-source-line="44" data-uid="lnk28" id="link_usb_client"><path d="M300.7,181.88 C314.94,163.06 346.4983,121.3936 365.3883,96.4436" fill="none" id="usb-to-client" style="stroke:#000000;stroke-width:1;"/><polygon fill="#000000" points="369.01,91.66,360.3883,96.4209,365.9919,95.6463,366.7665,101.2499,369.01,91.66" style="stroke:#000000;stroke-width:1;"/></g></g></svg>