<svg xmlns="http://www.w3.org/2000/svg" xmlns:xlink="http://www.w3.org/1999/xlink" contentStyleType="text/css" data-diagram-type="DESCRIPTION" height="200px" preserveAspectRatio="none" style="width:454px;height:200px;background:#FFFFFF55;" version="1.1" viewBox="0 0 454 200" width="454px" zoomAndPan="magnify"><defs/><g><rect fill="#FFFFFF" fill-opacity="0.33333" height="200" style="stroke:none;stroke-width:1;" width="454" x="0" y="0"/><!--cluster Internet--><g class="cluster" data-entity="Internet" data-source-line="14" data-uid="ent0003" id="cluster_Internet"><path d="M147.2949,18.4993 C149.3334,13.1362 152.5248,12.4608 156.8294,16.0991 C159.1514,10.8228 164.4286,9.9734 168.3963,14.0676 C171.4039,9.4253 176.0641,10.2217 178.607,14.5941 C181.8755,7.2095 186.1729,7.9201 191.4517,12.4218 C193.5932,6.5645 197.1397,6 201.3867,10.3782 C206.3983,6.066 209.7964,7.4735 212.5493,12.953 C216.8752,8.0785 220.0065,9.7162 222.8644,14.5179 C225.8136,10.0076 231.0573,9.7629 233.6798,14.8848 C238.1215,9.7893 242.2805,11.1355 244.5675,17.0212 C248.7295,10.6793 253.5774,11.1144 257.4183,17.3492 C263.4913,19.9914 263.3854,25.2442 258.5573,28.9561 C264.1496,31.8387 265.093,35.8066 259.812,39.9321 C266.9491,41.7967 267.0968,46.6988 262.9718,51.6106 C268.2199,56.1773 265.8945,61.2826 260.2637,63.337 C264.8177,67.2217 264.3872,71.1954 258.7856,73.6205 C263.6249,78.2128 262.9438,82.6609 256.4866,84.9636 C253.1879,89.1477 249.5475,89.301 246.215,85.0046 C242.6368,89.9107 238.4683,90.4201 235.3816,84.5122 C232.3277,91.2452 228.5337,91.6563 223.6731,86.2558 C220.5863,90.6797 216.7614,91.4177 213.5463,86.3933 C210.1314,91.2912 205.9691,91.4821 202.1231,86.9135 C198.1411,90.9108 194.2706,90.2609 191.4845,85.4665 C187.9813,90.0582 182.794,91.046 179.8395,84.8729 C176.4889,89.5431 172.2561,90.6956 169.0178,84.7585 C165.6279,89.5819 162.1383,90.0725 157.9099,85.7802 C153.3148,89.815 149.1368,89.5849 146.7405,83.3815 C141.5617,81.274 139.7726,76.7776 144.9123,72.8747 C138.9919,69.5386 138.8397,65.6955 144.6336,62.0576 C139.426,58.2571 139.7536,55.1315 144.9268,51.6227 C139.6301,47.2782 140.5261,43.2444 146.1197,40.0196 C141.2679,36.7815 141.6799,32.3084 146.4176,29.3377 C142.1313,25.4546 141.7046,21.5829 147.2949,18.4993" fill="#FFFFFF" style="stroke:#7D868C;stroke-width:1;"/><text fill="#000000" font-family="Lato,sans-serif" font-size="11" font-weight="bold" lengthAdjust="spacing" textLength="39.7045" x="180.6178" y="32.7421">Internet</text></g><g class="cluster" data-entity="##6" data-source-line="14" data-uid="ent0007" id="cluster_##6"><rect fill="#FFFFFF" fill-opacity="0.56471" height="185.8" style="stroke:#8B0000;stroke-width:1;stroke-dasharray:7.0,7.0;" width="132" x="316.47" y="8.8851"/><text fill="#000000" font-family="Lato,sans-serif" font-size="11" font-style="italic" lengthAdjust="spacing" textLength="39.7815" x="362.5792" y="21.7421">&#171;Device&#187;</text></g><!--entity server--><g class="entity" data-entity="server" data-source-line="15" data-uid="ent0004" id="entity_server"><rect fill="#7D868C" height="34.4" rx="4" ry="4" width="94.742" x="153.1" y="40.8851"/><text fill="#FFFFFF" font-family="Lato,sans-serif" font-size="12" lengthAdjust="spacing" textLength="74.742" x="163.1" y="62.7291">Update server</text></g><!--entity client--><g class="entity" data-entity="client" data-source-line="20" data-uid="ent0008" id="entity_client"><rect fill="#0091BD" height="34.4" rx="4" ry="4" width="90.722" x="336.11" y="40.8851"/><text fill="#FFFFFF" font-family="Lato,sans-serif" font-size="12" lengthAdjust="spacing" textLength="70.722" x="346.11" y="62.7291">Update client</text></g><!--entity store--><g class="entity" data-entity="store" data-source-line="21" data-uid="ent0009" id="entity_store"><path d="M332.43,145.2851 C332.43,135.2851 382.468,135.2851 382.468,135.2851 C382.468,135.2851 432.506,135.2851 432.506,145.2851 L432.506,168.6851 C432.506,178.6851 382.468,178.6851 382.468,178.6851 C382.468,178.6851 332.43,178.6851 332.43,168.6851 L332.43,145.2851" fill="#E5ECEB" style="stroke:#7D868C;stroke-width:1;"/><path d="M332.43,145.2851 C332.43,155.2851 382.468,155.2851 382.468,155.2851 C382.468,155.2851 432.506,155.2851 432.506,145.2851" fill="none" style="stroke:#7D868C;stroke-width:1;"/><text fill="#000000" font-family="Lato,sans-serif" font-size="12" lengthAdjust="spacing" textLength="80.076" x="342.43" y="171.1291">Firmware store</text></g><!--entity creator--><g class="entity" data-entity="creator" data-source-line="13" data-uid="ent0002" id="entity_creator"><rect fill="#002B49" height="34.4" rx="4" ry="4" width="110.942" x="7" y="40.8851"/><text fill="#FFFFFF" font-family="Lato,sans-serif" font-size="12" lengthAdjust="spacing" textLength="90.942" x="17" y="62.7291">Firmware creator</text></g><!--entity tls--><g class="entity" data-entity="tls" data-source-line="17" data-uid="ent0005" id="entity_tls"><ellipse cx="291.47" cy="58.0851" fill="#E5ECEB" rx="8" ry="8" style="stroke:#7D868C;stroke-width:1;"/><text fill="#000000" font-family="Lato,sans-serif" font-size="12" lengthAdjust="spacing" textLength="34.92" x="272.945" y="86.9291">MQTT</text><text fill="#000000" font-family="Lato,sans-serif" font-size="12" lengthAdjust="spacing" textLength="30.15" x="276.017" y="101.3291">CoAP</text><text fill="#000000" font-family="Lato,sans-serif" font-size="12" lengthAdjust="spacing" textLength="37.05" x="272.945" y="115.7291">HTTPS</text><text fill="#000000" font-family="Lato,sans-serif" font-size="12" lengthAdjust="spacing" textLength="8.496" x="288.305" y="130.1291">...</text></g><!--link creator to server--><g class="link" data-entity-1="creator" data-entity-2="server" data-source-line="24" data-uid="lnk10" id="link_creator_server"><path d="M118.26,58.0851 C129.72,58.0851 135.17,58.0851 146.62,58.0851" fill="none" id="creator-to-server" style="stroke:#000000;stroke-width:1;"/><polygon fill="#000000" points="152.62,58.0851,143.62,54.0851,147.62,58.0851,143.62,62.0851,152.62,58.0851" style="stroke:#000000;stroke-width:1;"/></g><!--reverse link server to tls--><g class="link" data-entity-1="server" data-entity-2="tls" data-source-line="25" data-uid="lnk12" id="link_server_tls"><path d="M254.1,58.0851 C265.4,58.0851 270.69,58.0851 281.98,58.0851" fill="none" id="server-backto-tls" style="stroke:#000000;stroke-width:1;"/><polygon fill="#000000" points="248.1,58.0851,257.1,62.0851,253.1,58.0851,257.1,54.0851,248.1,58.0851" style="stroke:#000000;stroke-width:1;"/></g><!--link tls to client--><g class="link" data-entity-1="tls" data-entity-2="client" data-source-line="26" data-uid="lnk13" id="link_tls_client"><path d="M300.96,58.0851 C312.6,58.0851 318.23,58.0851 329.87,58.0851" fill="none" id="tls-to-client" style="stroke:#000000;stroke-width:1;"/><polygon fill="#000000" points="335.87,58.0851,326.87,54.0851,330.87,58.0851,326.87,62.0851,335.87,58.0851" style="stroke:#000000;stroke-width:1;"/></g><!--link client to store--><g class="link" data-entity-1="client" data-entity-2="store" data-source-line="27" data-uid="lnk14" id="link_client_store"><path d="M381.64,75.5251 C381.81,91.9351 382.0061,111.2254 382.1961,129.0654" fill="none" id="client-to-store" style="stroke:#000000;stroke-width:1;"/><polygon fill="#000000" points="382.26,135.0651,386.1639,126.023,382.2068,130.0653,378.1644,126.1082,382.26,135.0651" style="stroke:#000000;stroke-width:1;"/></g></g></svg>