<svg xmlns="http://www.w3.org/2000/svg" xmlns:xlink="http://www.w3.org/1999/xlink" contentStyleType="text/css" data-diagram-type="DESCRIPTION" height="195px" preserveAspectRatio="none" style="width:895px;height:195px;background:#FFFFFF55;" version="1.1" viewBox="0 0 895 195" width="895px" zoomAndPan="magnify"><defs/><g><rect fill="#FFFFFF" fill-opacity="0.33333" height="195" style="stroke:none;stroke-width:1;" width="895" x="0" y="0"/><!--cluster p1--><g class="cluster" data-entity="p1" data-source-line="15" data-uid="ent0008" id="cluster_p1"><rect fill="#0091BD" fill-opacity="0.12549" height="112" width="290.96" x="7" y="60.4"/><line x1="7" x2="297.96" y1="77.6" y2="77.6"/><text fill="#000000" font-family="Lato,sans-serif" font-size="11" font-weight="bold" lengthAdjust="spacing" textLength="72.4185" x="116.2708" y="73.257">Manufacturing</text></g><!--cluster p3--><g class="cluster" data-entity="p3" data-source-line="19" data-uid="ent0011" id="cluster_p3"><rect fill="#0091BD" fill-opacity="0.12549" height="133" width="406.61" x="329.32" y="56.4"/><line x1="329.32" x2="735.93" y1="73.6" y2="73.6"/><text fill="#000000" font-family="Lato,sans-serif" font-size="11" font-weight="bold" lengthAdjust="spacing" textLength="50.105" x="507.5725" y="69.257">Operation</text></g><!--cluster p6--><g class="cluster" data-entity="p6" data-source-line="24" data-uid="ent0015" id="cluster_p6"><rect fill="#0091BD" fill-opacity="0.12549" height="96" width="124.45" x="763.93" y="77.4"/><line x1="763.93" x2="888.38" y1="94.6" y2="94.6"/><text fill="#000000" font-family="Lato,sans-serif" font-size="11" font-weight="bold" lengthAdjust="spacing" textLength="49.7255" x="801.2922" y="90.257">End of life</text></g><!--entity s1--><g class="entity" data-entity="s1" data-source-line="16" data-uid="ent0009" id="entity_s1"><rect fill="#0091BD" height="63.2" rx="4" ry="4" width="105.836" x="23" y="92.8"/><text fill="#FFFFFF" font-family="Lato,sans-serif" font-size="12" lengthAdjust="spacing" textLength="38.4" x="33" y="114.644">System</text><text fill="#FFFFFF" font-family="Lato,sans-serif" font-size="12" lengthAdjust="spacing" textLength="76.296" x="33" y="129.044">manufacturing</text><text fill="#FFFFFF" font-family="Lato,sans-serif" font-size="12" lengthAdjust="spacing" textLength="85.836" x="33" y="143.444">and initialization</text></g><!--entity s2--><g class="entity" data-entity="s2" data-source-line="17" data-uid="ent0010" id="entity_s2"><rect fill="#0091BD" height="63.2" rx="4" ry="4" width="89.774" x="192.19" y="92.8"/><text fill="#FFFFFF" font-family="Lato,sans-serif" font-size="12" lengthAdjust="spacing" textLength="63.108" x="202.19" y="114.644">Provision of</text><text fill="#FFFFFF" font-family="Lato,sans-serif" font-size="12" lengthAdjust="spacing" textLength="69.774" x="202.19" y="129.044">authorization</text><text fill="#FFFFFF" font-family="Lato,sans-serif" font-size="12" lengthAdjust="spacing" textLength="57.36" x="202.19" y="143.444">credentials</text></g><!--entity s3--><g class="entity" data-entity="s3" data-source-line="20" data-uid="ent0012" id="entity_s3"><rect fill="#0091BD" height="48.8" rx="4" ry="4" width="97.4" x="345.32" y="100"/><text fill="#FFFFFF" font-family="Lato,sans-serif" font-size="12" lengthAdjust="spacing" textLength="25.668" x="355.32" y="121.844">Boot</text><text fill="#FFFFFF" font-family="Lato,sans-serif" font-size="12" lengthAdjust="spacing" textLength="77.4" x="355.32" y="136.244">(Install update)</text></g><!--entity s4--><g class="entity" data-entity="s4" data-source-line="21" data-uid="ent0013" id="entity_s4"><rect fill="#0091BD" height="48.8" rx="4" ry="4" width="107.522" x="502.72" y="125"/><text fill="#FFFFFF" font-family="Lato,sans-serif" font-size="12" lengthAdjust="spacing" textLength="53.682" x="512.72" y="146.844">Operation</text><text fill="#FFFFFF" font-family="Lato,sans-serif" font-size="12" lengthAdjust="spacing" textLength="87.522" x="512.72" y="161.244">(Prepare update)</text></g><!--entity s5--><g class="entity" data-entity="s5" data-source-line="22" data-uid="ent0014" id="entity_s5"><rect fill="#0091BD" height="34.4" rx="4" ry="4" width="49.688" x="670.24" y="116.2"/><text fill="#FFFFFF" font-family="Lato,sans-serif" font-size="12" lengthAdjust="spacing" textLength="29.688" x="680.24" y="138.044">Reset</text></g><!--entity s6--><g class="entity" data-entity="s6" data-source-line="25" data-uid="ent0016" id="entity_s6"><rect fill="#0091BD" height="48.8" rx="4" ry="4" width="92.456" x="779.93" y="109"/><text fill="#FFFFFF" font-family="Lato,sans-serif" font-size="12" lengthAdjust="spacing" textLength="50.088" x="789.93" y="130.844">Return to</text><text fill="#FFFFFF" font-family="Lato,sans-serif" font-size="12" lengthAdjust="spacing" textLength="72.456" x="789.93" y="145.244">Manufacturer</text></g><g class="entity" data-entity="k1" data-source-line="8" data-uid="ent0002" id="entity_k1"><path d="M30.52,21.2 L30.52,37.6 A4,4 0 0 0 34.52,41.6 L117.318,41.6 A4,4 0 0 0 121.318,37.6 L121.318,27.2 L111.318,17.2 L34.52,17.2 A4,4 0 0 0 30.52,21.2" fill="#E8E8E8" style="stroke:#7D868C;stroke-width:1;"/><path d="M111.318,17.2 L111.318,25.2 A2,2 0 0 0 113.318,27.2 L121.318,27.2 L111.318,17.2" fill="#E8E8E8" style="stroke:#7D868C;stroke-width:1;"/><text fill="#000000" font-family="Lato,sans-serif" font-size="12" lengthAdjust="spacing" textLength="69.798" x="36.52" y="34.044">SiP and OEM</text></g><g class="entity" data-entity="k2" data-source-line="9" data-uid="ent0003" id="entity_k2"><path d="M188.84,10 L188.84,40.8 A4,4 0 0 0 192.84,44.8 L281.32,44.8 A4,4 0 0 0 285.32,40.8 L285.32,16 L275.32,6 L192.84,6 A4,4 0 0 0 188.84,10" fill="#E8E8E8" style="stroke:#7D868C;stroke-width:1;"/><path d="M275.32,6 L275.32,14 A2,2 0 0 0 277.32,16 L285.32,16 L275.32,6" fill="#E8E8E8" style="stroke:#7D868C;stroke-width:1;"/><text fill="#000000" font-family="Lato,sans-serif" font-size="12" lengthAdjust="spacing" textLength="52.794" x="194.84" y="22.844">SiP, OEM,</text><text fill="#000000" font-family="Lato,sans-serif" font-size="12" lengthAdjust="spacing" textLength="75.48" x="194.84" y="37.244">and/or Owner</text></g><g class="entity" data-entity="k3" data-source-line="10" data-uid="ent0004" id="entity_k3"><path d="M351.92,17.2 L351.92,33.6 A4,4 0 0 0 355.92,37.6 L432.112,37.6 A4,4 0 0 0 436.112,33.6 L436.112,23.2 L426.112,13.2 L355.92,13.2 A4,4 0 0 0 351.92,17.2" fill="#E8E8E8" style="stroke:#7D868C;stroke-width:1;"/><path d="M426.112,13.2 L426.112,21.2 A2,2 0 0 0 428.112,23.2 L436.112,23.2 L426.112,13.2" fill="#E8E8E8" style="stroke:#7D868C;stroke-width:1;"/><text fill="#000000" font-family="Lato,sans-serif" font-size="12" lengthAdjust="spacing" textLength="63.192" x="357.92" y="30.044">[everybody]</text></g><!--entity k4--><!--entity k5--><g class="entity" data-entity="k6" data-source-line="13" data-uid="ent0007" id="entity_k6"><path d="M786.21,10 L786.21,40.8 A4,4 0 0 0 790.21,44.8 L862.094,44.8 A4,4 0 0 0 866.094,40.8 L866.094,16 L856.094,6 L790.21,6 A4,4 0 0 0 786.21,10" fill="#E8E8E8" style="stroke:#7D868C;stroke-width:1;"/><path d="M856.094,6 L856.094,14 A2,2 0 0 0 858.094,16 L866.094,16 L856.094,6" fill="#E8E8E8" style="stroke:#7D868C;stroke-width:1;"/><text fill="#000000" font-family="Lato,sans-serif" font-size="12" lengthAdjust="spacing" textLength="52.794" x="792.21" y="22.844">SiP, OEM,</text><text fill="#000000" font-family="Lato,sans-serif" font-size="12" lengthAdjust="spacing" textLength="58.884" x="792.21" y="37.244">and Owner</text></g><!--link s1 to k1--><!--link s1 to s2--><g class="link" data-entity-1="s1" data-entity-2="s2" data-source-line="30" data-uid="lnk19" id="link_s1_s2"><path d="M129.03,124.4 C149.34,124.4 166.37,124.4 185.85,124.4" fill="none" id="s1-to-s2" style="stroke:#000000;stroke-width:1;"/><polygon fill="#000000" points="191.85,124.4,182.85,120.4,186.85,124.4,182.85,128.4,191.85,124.4" style="stroke:#000000;stroke-width:1;"/></g><!--link s2 to s3--><g class="link" data-entity-1="s2" data-entity-2="s3" data-source-line="31" data-uid="lnk20" id="link_s2_s3"><path d="M282.06,124.4 C301.65,124.4 318.79,124.4 338.84,124.4" fill="none" id="s2-to-s3" style="stroke:#000000;stroke-width:1;"/><polygon fill="#000000" points="344.84,124.4,335.84,120.4,339.84,124.4,335.84,128.4,344.84,124.4" style="stroke:#000000;stroke-width:1;"/></g><!--link s3 to s4--><g class="link" data-entity-1="s3" data-entity-2="s4" data-source-line="32" data-uid="lnk21" id="link_s3_s4"><path d="M443.16,131.9 C461.81,134.81 477.2917,137.2151 496.3917,140.1951" fill="none" id="s3-to-s4" style="stroke:#000000;stroke-width:1;"/><polygon fill="#000000" points="502.32,141.12,494.0442,135.7804,497.3798,140.3492,492.811,143.6848,502.32,141.12" style="stroke:#000000;stroke-width:1;"/></g><!--link s4 to s5--><g class="link" data-entity-1="s4" data-entity-2="s5" data-source-line="33" data-uid="lnk22" id="link_s4_s5"><path d="M610.68,143.17 C631.21,140.76 647.691,138.84 664.121,136.91" fill="none" id="s4-to-s5" style="stroke:#000000;stroke-width:1;"/><polygon fill="#000000" points="670.08,136.21,660.6748,133.2873,665.1141,136.7933,661.6081,141.2327,670.08,136.21" style="stroke:#000000;stroke-width:1;"/></g><!--reverse link s3 to s5--><g class="link" data-entity-1="s3" data-entity-2="s5" data-source-line="34" data-uid="lnk23" id="link_s3_s5"><path d="M449.0197,113.3031 C492.7897,105.6231 553.17,98.75 610.24,107.4 C630.88,110.53 653.44,117.75 669.96,123.8" fill="none" id="s3-backto-s5" style="stroke:#000000;stroke-width:1;"/><polygon fill="#000000" points="443.11,114.34,452.6659,116.7244,448.0348,113.4759,451.2833,108.8448,443.11,114.34" style="stroke:#000000;stroke-width:1;"/></g><!--link s5 to s6--><g class="link" data-entity-1="s5" data-entity-2="s6" data-source-line="35" data-uid="lnk24" id="link_s5_s6"><path d="M720.36,133.4 C737.01,133.4 753.61,133.4 773.56,133.4" fill="none" id="s5-to-s6" style="stroke:#000000;stroke-width:1;"/><polygon fill="#000000" points="779.56,133.4,770.56,129.4,774.56,133.4,770.56,137.4,779.56,133.4" style="stroke:#000000;stroke-width:1;"/></g><!--link k1 to k2--><!--link k2 to k3--><!--link k3 to k4--><!--link k4 to k5--><!--link k5 to k6--></g></svg>