<svg xmlns="http://www.w3.org/2000/svg" xmlns:xlink="http://www.w3.org/1999/xlink" contentStyleType="text/css" data-diagram-type="STATE" height="552px" preserveAspectRatio="none" style="width:328px;height:552px;background:#FFFFFF55;" version="1.1" viewBox="0 0 328 552" width="328px" zoomAndPan="magnify"><defs/><g><rect fill="#FFFFFF" fill-opacity="0.33333" height="552" style="stroke:none;stroke-width:1;" width="328" x="0" y="0"/><rect fill="#FFFFFF" height="40" rx="4" ry="4" style="stroke:#000000;stroke-width:1;" width="50" x="159.556" y="7"/><text fill="#000000" font-family="Lato,sans-serif" font-size="12" lengthAdjust="spacing" textLength="39.186" x="164.963" y="31.644">READY</text><rect fill="#FFFFFF" height="40" rx="4" ry="4" style="stroke:#000000;stroke-width:1;" width="71.71" x="65.696" y="121"/><text fill="#000000" font-family="Lato,sans-serif" font-size="12" lengthAdjust="spacing" textLength="61.71" x="70.696" y="145.644">WRITING &#8224;</text><rect fill="#FFFFFF" height="40" rx="4" ry="4" style="stroke:#000000;stroke-width:1;" width="79.054" x="62.026" y="235"/><text fill="#000000" font-family="Lato,sans-serif" font-size="12" lengthAdjust="spacing" textLength="69.054" x="67.026" y="259.644">CANDIDATE</text><rect fill="#FFFFFF" height="40" rx="4" ry="4" style="stroke:#000000;stroke-width:1;" width="60.52" x="213.296" y="235"/><text fill="#000000" font-family="Lato,sans-serif" font-size="12" lengthAdjust="spacing" textLength="50.52" x="218.296" y="259.644">FAILED &#8225;</text><rect fill="#FFFFFF" height="40" rx="4" ry="4" style="stroke:#000000;stroke-width:1;" width="76.456" x="63.326" y="365"/><text fill="#000000" font-family="Lato,sans-serif" font-size="12" lengthAdjust="spacing" textLength="66.456" x="68.326" y="389.644">UPDATED &#8225;</text><rect fill="#FFFFFF" height="40" rx="4" ry="4" style="stroke:#000000;stroke-width:1;" width="50" x="206.556" y="365"/><text fill="#000000" font-family="Lato,sans-serif" font-size="12" lengthAdjust="spacing" textLength="39.186" x="211.963" y="389.644">READY</text><!--link Start to Writing--><g class="link" data-entity-1="Start" data-entity-2="Writing" data-source-line="27" data-uid="lnk2" id="link_Start_Writing"><path d="M170.286,47.25 C155.086,67.77 134.7174,95.2387 119.4874,115.7987" fill="none" id="Start-to-Writing" style="stroke:#0000FF;stroke-width:1;"/><polygon fill="#0000FF" points="115.916,120.62,124.4873,115.769,118.8922,116.6022,118.0589,111.0071,115.916,120.62" style="stroke:#0000FF;stroke-width:1;"/><text fill="#000000" font-family="Inconsolata,monospace" font-size="12" lengthAdjust="spacing" textLength="30" x="149.026" y="88.308">start</text></g><!--link Writing to Writing--><g class="link" data-entity-1="Writing" data-entity-2="Writing" data-source-line="28" data-uid="lnk3" id="link_Writing_Writing"><path d="M137.646,130.66 C155.976,129.15 172.406,132.59 172.406,141 C172.406,149.41 161.9557,153.3426 143.6257,151.8326" fill="none" id="Writing-to-Writing" style="stroke:#0000FF;stroke-width:1;"/><polygon fill="#0000FF" points="137.646,151.34,146.2872,156.0654,142.6291,151.7505,146.944,148.0924,137.646,151.34" style="stroke:#0000FF;stroke-width:1;"/><text fill="#000000" font-family="Inconsolata,monospace" font-size="12" lengthAdjust="spacing" textLength="30" x="178.406" y="145.308">write</text></g><!--link Writing to Candidate--><g class="link" data-entity-1="Writing" data-entity-2="Candidate" data-source-line="29" data-uid="lnk4" id="link_Writing_Candidate"><path d="M101.556,161.25 C101.556,181.77 101.556,208.06 101.556,228.62" fill="none" id="Writing-to-Candidate" style="stroke:#0000FF;stroke-width:1;"/><polygon fill="#0000FF" points="101.556,234.62,105.556,225.62,101.556,229.62,97.556,225.62,101.556,234.62" style="stroke:#0000FF;stroke-width:1;"/><text fill="#000000" font-family="Inconsolata,monospace" font-size="12" lengthAdjust="spacing" textLength="36" x="102.556" y="202.308">finish</text></g><!--link Writing to Failed--><g class="link" data-entity-1="Writing" data-entity-2="Failed" data-source-line="30" data-uid="lnk5" id="link_Writing_Failed"><path d="M125.966,161.25 C151.976,181.77 188.2048,210.3445 214.2748,230.9045" fill="none" id="Writing-to-Failed" style="stroke:#0000FF;stroke-width:1;"/><polygon fill="#0000FF" points="218.986,234.62,214.3962,225.906,215.06,231.5238,209.4422,232.1876,218.986,234.62" style="stroke:#0000FF;stroke-width:1;"/><text fill="#000000" font-family="Inconsolata,monospace" font-size="12" lengthAdjust="spacing" textLength="36" x="182.056" y="202.308">cancel</text></g><!--link Candidate to Updated--><g class="link" data-entity-1="Candidate" data-entity-2="Updated" data-source-line="31" data-uid="lnk6" id="link_Candidate_Updated"><path d="M101.556,275.44 C101.556,299.64 101.556,334.71 101.556,358.8" fill="none" id="Candidate-to-Updated" style="stroke:#8B0000;stroke-width:1;"/><polygon fill="#8B0000" points="101.556,364.8,105.556,355.8,101.556,359.8,97.556,355.8,101.556,364.8" style="stroke:#8B0000;stroke-width:1;"/><text fill="#000000" font-family="Inconsolata,monospace" font-size="12" lengthAdjust="spacing" textLength="42" x="115.015" y="318.12">install</text><text fill="#000000" font-family="Lato,sans-serif" font-size="12" lengthAdjust="spacing" textLength="3" x="157.015" y="317.844">:</text><text fill="#000000" font-family="Lato,sans-serif" font-size="12" font-style="italic" lengthAdjust="spacing" textLength="69.918" x="102.556" y="332.244">install success</text></g><!--link Candidate to Failed--><g class="link" data-entity-1="Candidate" data-entity-2="Failed" data-source-line="32" data-uid="lnk7" id="link_Candidate_Failed"><path d="M141.486,255 C164.126,255 186.016,255 206.916,255" fill="none" id="Candidate-to-Failed" style="stroke:#0000FF;stroke-width:1;"/><polygon fill="#0000FF" points="212.916,255,203.916,251,207.916,255,203.916,259,212.916,255" style="stroke:#0000FF;stroke-width:1;"/><text fill="#000000" font-family="Inconsolata,monospace" font-size="12" lengthAdjust="spacing" textLength="36" x="159.186" y="249.308">cancel</text></g><!--reverse link Start to Failed--><g class="link" data-entity-1="Start" data-entity-2="Failed" data-source-line="34" data-uid="lnk9" id="link_Start_Failed"><path d="M193.3978,53.1002 C199.8678,71.8002 207.616,95.28 214.556,121 C225.386,161.16 235.026,208.96 239.996,234.92" fill="none" id="Start-backto-Failed" style="stroke:#0000FF;stroke-width:1;"/><polygon fill="#0000FF" points="191.436,47.43,190.5986,57.2432,193.0709,52.1552,198.1589,54.6274,191.436,47.43" style="stroke:#0000FF;stroke-width:1;"/><text fill="#000000" font-family="Inconsolata,monospace" font-size="12" lengthAdjust="spacing" textLength="30" x="225.096" y="145.308">clean</text></g><!--link Updated to End--><g class="link" data-entity-1="Updated" data-entity-2="End" data-source-line="36" data-uid="lnk10" id="link_Updated_End"><path d="M140.206,385 C161.606,385 181.606,385 200.386,385" fill="none" id="Updated-to-End" style="stroke:#0000FF;stroke-width:1;"/><polygon fill="#0000FF" points="206.386,385,197.386,381,201.386,385,197.386,389,206.386,385" style="stroke:#0000FF;stroke-width:1;"/><text fill="#000000" font-family="Inconsolata,monospace" font-size="12" lengthAdjust="spacing" textLength="30" x="158.166" y="379.308">clean</text></g><rect fill="#E8E8E8" height="110.8" rx="4" ry="4" style="stroke:#000000;stroke-width:1;" width="296.842" x="12" y="422"/><text fill="#000000" font-family="Lato,sans-serif" font-size="12" font-weight="bold" lengthAdjust="spacing" textLength="59.304" x="17" y="438.844">Transitions</text><text fill="#0000FF" font-family="Inconsolata,monospace" font-size="12" lengthAdjust="spacing" text-decoration="line-through" textLength="18" x="17" y="453.52">&#8212;&#8212;&#8212;</text><text fill="#000000" font-family="Lato,sans-serif" font-size="12" lengthAdjust="spacing" textLength="158.322" x="38.072" y="453.244">Applies to a single component</text><text fill="#8B0000" font-family="Inconsolata,monospace" font-size="12" lengthAdjust="spacing" text-decoration="line-through" textLength="18" x="17" y="467.92">&#8212;&#8212;&#8212;</text><text fill="#000000" font-family="Lato,sans-serif" font-size="12" lengthAdjust="spacing" textLength="135.93" x="38.072" y="467.644">Applies to all components</text><text fill="#000000" font-family="Lato,sans-serif" font-size="12" lengthAdjust="spacing" textLength="3.072" x="17" y="482.044">&#160;</text><text fill="#000000" font-family="Lato,sans-serif" font-size="12" font-weight="bold" lengthAdjust="spacing" textLength="76.092" x="17" y="496.444">Volatile states</text><text fill="#000000" font-family="Inconsolata,monospace" font-size="12" lengthAdjust="spacing" textLength="6" x="23" y="511.12">&#8224;</text><text fill="#000000" font-family="Lato,sans-serif" font-size="12" lengthAdjust="spacing" textLength="48.81" x="38.072" y="510.844">Optional:</text><text fill="#000000" font-family="Lato,sans-serif" font-size="12" font-weight="bold" lengthAdjust="spacing" textLength="35.946" x="89.954" y="510.844">reboot</text><text fill="#000000" font-family="Lato,sans-serif" font-size="12" lengthAdjust="spacing" textLength="80.274" x="128.972" y="510.844">is equivalent to</text><text fill="#000000" font-family="Inconsolata,monospace" font-size="12" lengthAdjust="spacing" textLength="36" x="212.318" y="511.12">cancel</text><text fill="#000000" font-family="Lato,sans-serif" font-size="12" lengthAdjust="spacing" textLength="19.38" x="251.39" y="510.844">and</text><text fill="#000000" font-family="Inconsolata,monospace" font-size="12" lengthAdjust="spacing" textLength="30" x="273.842" y="511.12">clean</text><text fill="#000000" font-family="Inconsolata,monospace" font-size="12" lengthAdjust="spacing" textLength="6" x="23" y="525.52">&#8225;</text><text fill="#000000" font-family="Lato,sans-serif" font-size="12" lengthAdjust="spacing" textLength="48.81" x="38.072" y="525.244">Optional:</text><text fill="#000000" font-family="Lato,sans-serif" font-size="12" font-weight="bold" lengthAdjust="spacing" textLength="35.946" x="89.954" y="525.244">reboot</text><text fill="#000000" font-family="Lato,sans-serif" font-size="12" lengthAdjust="spacing" textLength="80.274" x="128.972" y="525.244">is equivalent to</text><text fill="#000000" font-family="Inconsolata,monospace" font-size="12" lengthAdjust="spacing" textLength="30" x="212.318" y="525.52">clean</text></g></svg>