<?xml version="1.0" encoding="UTF-8" standalone="no"?><svg xmlns="http://www.w3.org/2000/svg" xmlns:xlink="http://www.w3.org/1999/xlink" contentStyleType="text/css" height="579px" preserveAspectRatio="none" style="width:477px;height:579px;background:#FFFFFF55;" version="1.1" viewBox="0 0 477 579" width="477px" zoomAndPan="magnify"><defs/><g><rect fill="#FFFFFF" height="40" rx="12.5" ry="12.5" style="stroke:#000000;stroke-width:1.0;" width="50" x="107.5" y="7"/><text fill="#000000" font-family="Lato,sans-serif" font-size="12" lengthAdjust="spacing" textLength="40" x="112.5" y="31.6414">READY</text><rect fill="#FFFFFF" height="40" rx="12.5" ry="12.5" style="stroke:#000000;stroke-width:1.0;" width="72" x="10.5" y="123"/><text fill="#000000" font-family="Lato,sans-serif" font-size="12" lengthAdjust="spacing" textLength="62" x="15.5" y="147.6414">WRITING †</text><rect fill="#FFFFFF" height="40" rx="12.5" ry="12.5" style="stroke:#000000;stroke-width:1.0;" width="79" x="7" y="239"/><text fill="#000000" font-family="Lato,sans-serif" font-size="12" lengthAdjust="spacing" textLength="69" x="12" y="263.6414">CANDIDATE</text><rect fill="#FFFFFF" height="40" rx="12.5" ry="12.5" style="stroke:#000000;stroke-width:1.0;" width="63" x="106" y="369"/><text fill="#000000" font-family="Lato,sans-serif" font-size="12" lengthAdjust="spacing" textLength="53" x="111" y="393.6414">STAGED *</text><rect fill="#FFFFFF" height="40" rx="12.5" ry="12.5" style="stroke:#000000;stroke-width:1.0;" width="60" x="164.5" y="239"/><text fill="#000000" font-family="Lato,sans-serif" font-size="12" lengthAdjust="spacing" textLength="50" x="169.5" y="263.6414">FAILED ‡</text><rect fill="#FFFFFF" height="40" rx="12.5" ry="12.5" style="stroke:#000000;stroke-width:1.0;" width="75" x="275" y="369"/><text fill="#000000" font-family="Lato,sans-serif" font-size="12" lengthAdjust="spacing" textLength="65" x="280" y="393.6414">UPDATED ‡</text><rect fill="#FFFFFF" height="40" rx="12.5" ry="12.5" style="stroke:#000000;stroke-width:1.0;" width="50" x="421.5" y="369"/><text fill="#000000" font-family="Lato,sans-serif" font-size="12" lengthAdjust="spacing" textLength="40" x="426.5" y="393.6414">READY</text><!--MD5=[28b091a9324bc665227cbdd5c64568c5]
link Start to Writing--><g id="link_Start_Writing"><path d="M118.11,47.08 C103.22,66.81 79.97,97.63 64.03,118.76 " fill="none" id="Start-to-Writing" style="stroke:#0000FF;stroke-width:1.0;"/><polygon fill="#0000FF" points="60.94,122.86,69.5591,118.0945,63.956,118.872,63.1784,113.2689,60.94,122.86" style="stroke:#0000FF;stroke-width:1.0;"/><text fill="#000000" font-family="Consolas,Menlo,monospace" font-size="12" lengthAdjust="spacing" textLength="35" x="96.5" y="89.9883">start</text></g><!--MD5=[809ec20dfa1295c4642186e63aa045f8]
link Writing to Writing--><g id="link_Writing_Writing"><path d="M82.67,132.48 C101.03,130.94 117.5,134.45 117.5,143 C117.5,150.75 103.98,154.36 87.77,153.82 " fill="none" id="Writing-to-Writing" style="stroke:#0000FF;stroke-width:1.0;"/><polygon fill="#0000FF" points="82.67,153.52,91.4264,158.0284,87.6618,153.8061,91.8841,150.0415,82.67,153.52" style="stroke:#0000FF;stroke-width:1.0;"/><text fill="#000000" font-family="Consolas,Menlo,monospace" font-size="12" lengthAdjust="spacing" textLength="35" x="123.5" y="147.9883">write</text></g><!--MD5=[c452d5c1487cc0f2a16ec09e1ebeb498]
link Writing to Candidate--><g id="link_Writing_Candidate"><path d="M46.5,163.08 C46.5,182.48 46.5,212.61 46.5,233.7 " fill="none" id="Writing-to-Candidate" style="stroke:#0000FF;stroke-width:1.0;"/><polygon fill="#0000FF" points="46.5,238.86,50.5,229.86,46.5,233.86,42.5,229.86,46.5,238.86" style="stroke:#0000FF;stroke-width:1.0;"/><text fill="#000000" font-family="Consolas,Menlo,monospace" font-size="12" lengthAdjust="spacing" textLength="42" x="47.5" y="205.9883">finish</text></g><!--MD5=[1e580f2a5c35a06e4aed74591dc8f2d0]
link Writing to Failed--><g id="link_Writing_Failed"><path d="M71.27,163.08 C97.2,183.06 137.9,214.4 165.36,235.55 " fill="none" id="Writing-to-Failed" style="stroke:#0000FF;stroke-width:1.0;"/><polygon fill="#0000FF" points="169.65,238.86,164.9537,230.2029,165.6863,235.8121,160.0771,236.5448,169.65,238.86" style="stroke:#0000FF;stroke-width:1.0;"/><text fill="#000000" font-family="Consolas,Menlo,monospace" font-size="12" lengthAdjust="spacing" textLength="42" x="130.5" y="205.9883">cancel</text></g><!--MD5=[6e8b06a321fbf587dbbb055d0b4e0f9e]
link Candidate to Failed--><g id="link_Candidate_Failed"><path d="M86.16,259 C108.83,259 137.03,259 158.97,259 " fill="none" id="Candidate-to-Failed" style="stroke:#0000FF;stroke-width:1.0;"/><polygon fill="#0000FF" points="164.12,259,155.12,255,159.12,259,155.12,263,164.12,259" style="stroke:#0000FF;stroke-width:1.0;"/><text fill="#000000" font-family="Consolas,Menlo,monospace" font-size="12" lengthAdjust="spacing" textLength="42" x="104.25" y="252.9883">cancel</text></g><!--MD5=[86e4efad9860276429e6c81242466072]
link Candidate to Staged--><g id="link_Candidate_Staged"><path d="M47.57,279.11 C49.35,296.15 54.07,321.11 66.5,339 C75.41,351.82 88.83,362.32 101.61,370.27 " fill="none" id="Candidate-to-Staged" style="stroke:#8B0000;stroke-width:1.0;"/><polygon fill="#8B0000" points="105.92,372.86,100.2803,364.7857,101.6388,370.277,96.1475,371.6356,105.92,372.86" style="stroke:#8B0000;stroke-width:1.0;"/><text fill="#000000" font-family="Consolas,Menlo,monospace" font-size="12" lengthAdjust="spacing" textLength="49" x="67.5" y="328.9883">install</text></g><!--MD5=[ffe6d1617caf564d97775b8dde2c381a]
link Staged to Updated--><g id="link_Staged_Updated"><path d="M169.19,389 C197.31,389 238.63,389 269.68,389 " fill="none" id="Staged-to-Updated" style="stroke:#8B0000;stroke-width:1.0;stroke-dasharray:7.0,7.0;"/><polygon fill="#8B0000" points="274.96,389,265.96,385,269.96,389,265.96,393,274.96,389" style="stroke:#8B0000;stroke-width:1.0;"/><text fill="#000000" font-family="Lato,sans-serif" font-size="12" font-weight="bold" lengthAdjust="spacing" textLength="37" x="202" y="368.8375">reboot</text><text fill="#000000" font-family="Lato,sans-serif" font-size="12" lengthAdjust="spacing" textLength="3" x="239" y="368.8375">:</text><text fill="#000000" font-family="Lato,sans-serif" font-size="12" font-style="italic" lengthAdjust="spacing" textLength="69" x="187.5" y="383.2296">install success</text></g><!--MD5=[6b849a9d54236769877241b12840d8d2]
reverse link Failed to Staged--><g id="link_Failed_Staged"><path d="M194.45,284.39 C193.55,300.58 190.69,321.92 182.5,339 C177.21,350.04 168.59,360.34 160.3,368.62 " fill="none" id="Failed-backto-Staged" style="stroke:#8B0000;stroke-width:1.0;stroke-dasharray:7.0,7.0;"/><polygon fill="#8B0000" points="194.68,279.11,190.2732,287.9179,194.4517,284.1048,198.2648,288.2833,194.68,279.11" style="stroke:#8B0000;stroke-width:1.0;"/><text fill="#000000" font-family="Lato,sans-serif" font-size="12" font-weight="bold" lengthAdjust="spacing" textLength="37" x="201.5" y="321.8375">reboot</text><text fill="#000000" font-family="Lato,sans-serif" font-size="12" lengthAdjust="spacing" textLength="3" x="238.5" y="321.8375">:</text><text fill="#000000" font-family="Lato,sans-serif" font-size="12" font-style="italic" lengthAdjust="spacing" textLength="60" x="191.5" y="336.2296">install failed</text></g><!--MD5=[6b849a9d54236769877241b12840d8d2]
reverse link Failed to Staged--><g id="link_Failed_Staged"><path d="M160.19,277.67 C148.56,285.56 136.9,296.04 130.5,309 C121.23,327.77 125.44,352.1 130.38,368.77 " fill="none" id="Failed-backto-Staged-1" style="stroke:#8B0000;stroke-width:1.0;"/><polygon fill="#8B0000" points="164.46,274.88,154.7361,276.4439,160.2714,277.6105,159.1049,283.1457,164.46,274.88" style="stroke:#8B0000;stroke-width:1.0;"/><text fill="#000000" font-family="Consolas,Menlo,monospace" font-size="12" lengthAdjust="spacing" textLength="42" x="131.5" y="328.9883">reject</text></g><!--MD5=[71ab68107f7e180decc84935bd3705da]
reverse link Start to Failed--><g id="link_Start_Failed"><path d="M141.74,52.24 C148.81,71.29 158.5,98.61 165.5,123 C174.3,153.67 174.81,161.79 181.5,193 C184.8,208.42 188.29,225.95 190.83,238.92 " fill="none" id="Start-backto-Failed" style="stroke:#0000FF;stroke-width:1.0;"/><polygon fill="#0000FF" points="139.82,47.09,139.2085,56.9199,141.5631,51.7763,146.7066,54.1309,139.82,47.09" style="stroke:#0000FF;stroke-width:1.0;"/><text fill="#000000" font-family="Consolas,Menlo,monospace" font-size="12" lengthAdjust="spacing" textLength="35" x="175.5" y="147.9883">clean</text></g><!--MD5=[43a8c4662c8a2715cf5aeba88f635b26]
link Updated to End--><g id="link_Updated_End"><path d="M350.18,389 C370.99,389 396.49,389 416.02,389 " fill="none" id="Updated-to-End" style="stroke:#0000FF;stroke-width:1.0;"/><polygon fill="#0000FF" points="421.36,389,412.36,385,416.36,389,412.36,393,421.36,389" style="stroke:#0000FF;stroke-width:1.0;"/><text fill="#000000" font-family="Consolas,Menlo,monospace" font-size="12" lengthAdjust="spacing" textLength="35" x="368.25" y="382.9883">clean</text></g><rect fill="#E8E8E8" height="141.5288" id="_legend" rx="7.5" ry="7.5" style="stroke:#000000;stroke-width:1.0;" width="307" x="78.25" y="422"/><text fill="#000000" font-family="Lato,sans-serif" font-size="12" font-weight="bold" lengthAdjust="spacing" textLength="60" x="84.25" y="439.8375">Transitions</text><text fill="#0000FF" font-family="Consolas,Menlo,monospace" font-size="12" lengthAdjust="spacing" text-decoration="line-through" textLength="21" x="84.25" y="454.7217">———</text><text fill="#000000" font-family="Lato,sans-serif" font-size="12" lengthAdjust="spacing" textLength="155" x="107.25" y="454.2296">Applies to a single component</text><text fill="#8B0000" font-family="Consolas,Menlo,monospace" font-size="12" lengthAdjust="spacing" text-decoration="line-through" textLength="21" x="84.25" y="469.1138">———</text><text fill="#000000" font-family="Lato,sans-serif" font-size="12" lengthAdjust="spacing" textLength="134" x="107.25" y="468.6217">Applies to all components</text><text fill="#000000" font-family="Consolas,Menlo,monospace" font-size="12" lengthAdjust="spacing" textLength="21" x="84.25" y="483.5059">---</text><text fill="#000000" font-family="Lato,sans-serif" font-size="12" lengthAdjust="spacing" textLength="80" x="107.25" y="483.0138">Transition over</text><text fill="#000000" font-family="Lato,sans-serif" font-size="12" font-weight="bold" lengthAdjust="spacing" textLength="37" x="189.25" y="483.0138">reboot</text><text fill="#000000" font-family="Lato,sans-serif" font-size="12" lengthAdjust="spacing" textLength="3" x="226.25" y="483.0138">.</text><text fill="#000000" font-family="Lato,sans-serif" font-size="12" lengthAdjust="spacing" textLength="2" x="84.25" y="497.4059"> </text><text fill="#000000" font-family="Lato,sans-serif" font-size="12" font-weight="bold" lengthAdjust="spacing" textLength="76" x="84.25" y="511.7979">Volatile states</text><text fill="#000000" font-family="Consolas,Menlo,monospace" font-size="12" lengthAdjust="spacing" textLength="7" x="91.25" y="526.6821">*</text><text fill="#000000" font-family="Lato,sans-serif" font-size="12" lengthAdjust="spacing" textLength="40" x="107.25" y="526.19">Always:</text><text fill="#000000" font-family="Lato,sans-serif" font-size="12" font-weight="bold" lengthAdjust="spacing" textLength="37" x="149.25" y="526.19">reboot</text><text fill="#000000" font-family="Lato,sans-serif" font-size="12" lengthAdjust="spacing" textLength="101" x="188.25" y="526.19">transition as shown</text><text fill="#000000" font-family="Consolas,Menlo,monospace" font-size="12" lengthAdjust="spacing" textLength="7" x="91.25" y="541.0742">†</text><text fill="#000000" font-family="Lato,sans-serif" font-size="12" lengthAdjust="spacing" textLength="50" x="107.25" y="540.5821">Optional:</text><text fill="#000000" font-family="Lato,sans-serif" font-size="12" font-weight="bold" lengthAdjust="spacing" textLength="37" x="159.25" y="540.5821">reboot</text><text fill="#000000" font-family="Lato,sans-serif" font-size="12" lengthAdjust="spacing" textLength="78" x="198.25" y="540.5821">is equivalent to</text><text fill="#000000" font-family="Consolas,Menlo,monospace" font-size="12" lengthAdjust="spacing" textLength="42" x="278.25" y="541.0742">cancel</text><text fill="#000000" font-family="Lato,sans-serif" font-size="12" lengthAdjust="spacing" textLength="20" x="322.25" y="540.5821">and</text><text fill="#000000" font-family="Consolas,Menlo,monospace" font-size="12" lengthAdjust="spacing" textLength="35" x="344.25" y="541.0742">clean</text><text fill="#000000" font-family="Consolas,Menlo,monospace" font-size="12" lengthAdjust="spacing" textLength="7" x="91.25" y="555.4663">‡</text><text fill="#000000" font-family="Lato,sans-serif" font-size="12" lengthAdjust="spacing" textLength="50" x="107.25" y="554.9742">Optional:</text><text fill="#000000" font-family="Lato,sans-serif" font-size="12" font-weight="bold" lengthAdjust="spacing" textLength="37" x="159.25" y="554.9742">reboot</text><text fill="#000000" font-family="Lato,sans-serif" font-size="12" lengthAdjust="spacing" textLength="78" x="198.25" y="554.9742">is equivalent to</text><text fill="#000000" font-family="Consolas,Menlo,monospace" font-size="12" lengthAdjust="spacing" textLength="35" x="278.25" y="555.4663">clean</text></g></svg>