<svg xmlns="http://www.w3.org/2000/svg" xmlns:xlink="http://www.w3.org/1999/xlink" contentStyleType="text/css" data-diagram-type="STATE" height="695px" preserveAspectRatio="none" style="width:429px;height:695px;background:#FFFFFF55;" version="1.1" viewBox="0 0 429 695" width="429px" zoomAndPan="magnify"><defs/><g><rect fill="#FFFFFF" fill-opacity="0.33333" height="695" style="stroke:none;stroke-width:1;" width="429" x="0" y="0"/><rect fill="#FFFFFF" height="40" rx="4" ry="4" style="stroke:#000000;stroke-width:1;" width="50" x="51.42" y="7"/><text fill="#000000" font-family="Lato,sans-serif" font-size="12" lengthAdjust="spacing" textLength="39.186" x="56.827" y="31.644">READY</text><rect fill="#FFFFFF" height="40" rx="4" ry="4" style="stroke:#000000;stroke-width:1;" width="71.71" x="40.56" y="121"/><text fill="#000000" font-family="Lato,sans-serif" font-size="12" lengthAdjust="spacing" textLength="61.71" x="45.56" y="145.644">WRITING &#8224;</text><rect fill="#FFFFFF" height="40" rx="4" ry="4" style="stroke:#000000;stroke-width:1;" width="89.086" x="41.88" y="251"/><text fill="#000000" font-family="Lato,sans-serif" font-size="12" lengthAdjust="spacing" textLength="79.086" x="46.88" y="275.644">CANDIDATE &#8224;</text><rect fill="#FFFFFF" height="40" rx="4" ry="4" style="stroke:#000000;stroke-width:1;" width="64.714" x="54.06" y="365"/><text fill="#000000" font-family="Lato,sans-serif" font-size="12" lengthAdjust="spacing" textLength="54.714" x="59.06" y="389.644">STAGED *</text><rect fill="#FFFFFF" height="40" rx="4" ry="4" style="stroke:#000000;stroke-width:1;" width="60.52" x="203.16" y="251"/><text fill="#000000" font-family="Lato,sans-serif" font-size="12" lengthAdjust="spacing" textLength="50.52" x="208.16" y="275.644">FAILED &#8225;</text><rect fill="#FFFFFF" height="40" rx="4" ry="4" style="stroke:#000000;stroke-width:1;" width="75.778" x="347.53" y="365"/><text fill="#000000" font-family="Lato,sans-serif" font-size="12" lengthAdjust="spacing" textLength="65.778" x="352.53" y="389.644">REJECTED *</text><rect fill="#FFFFFF" height="40" rx="4" ry="4" style="stroke:#000000;stroke-width:1;" width="50.422" x="224.21" y="365"/><text fill="#000000" font-family="Lato,sans-serif" font-size="12" lengthAdjust="spacing" textLength="40.422" x="229.21" y="389.644">TRIAL *</text><rect fill="#FFFFFF" height="40" rx="4" ry="4" style="stroke:#000000;stroke-width:1;" width="76.456" x="211.19" y="479"/><text fill="#000000" font-family="Lato,sans-serif" font-size="12" lengthAdjust="spacing" textLength="66.456" x="216.19" y="503.644">UPDATED &#8225;</text><rect fill="#FFFFFF" height="40" rx="4" ry="4" style="stroke:#000000;stroke-width:1;" width="50" x="354.42" y="479"/><text fill="#000000" font-family="Lato,sans-serif" font-size="12" lengthAdjust="spacing" textLength="39.186" x="359.827" y="503.644">READY</text><!--link Start to Writing--><g class="link" data-entity-1="Start" data-entity-2="Writing" data-source-line="32" data-uid="lnk2" id="link_Start_Writing"><path d="M76.42,47.25 C76.42,67.77 76.42,94.06 76.42,114.62" fill="none" id="Start-to-Writing" style="stroke:#0000FF;stroke-width:1;"/><polygon fill="#0000FF" points="76.42,120.62,80.42,111.62,76.42,115.62,72.42,111.62,76.42,120.62" style="stroke:#0000FF;stroke-width:1;"/><text fill="#000000" font-family="Inconsolata,monospace" font-size="12" lengthAdjust="spacing" textLength="30" x="77.42" y="88.308">start</text></g><!--link Writing to Writing--><g class="link" data-entity-1="Writing" data-entity-2="Writing" data-source-line="33" data-uid="lnk3" id="link_Writing_Writing"><path d="M112.51,130.66 C130.84,129.15 147.27,132.59 147.27,141 C147.27,149.41 136.8197,153.3426 118.4897,151.8326" fill="none" id="Writing-to-Writing" style="stroke:#0000FF;stroke-width:1;"/><polygon fill="#0000FF" points="112.51,151.34,121.1512,156.0654,117.4931,151.7505,121.808,148.0924,112.51,151.34" style="stroke:#0000FF;stroke-width:1;"/><text fill="#000000" font-family="Inconsolata,monospace" font-size="12" lengthAdjust="spacing" textLength="30" x="153.27" y="145.308">write</text></g><!--link Writing to Candidate--><g class="link" data-entity-1="Writing" data-entity-2="Candidate" data-source-line="34" data-uid="lnk4" id="link_Writing_Candidate"><path d="M77.94,161.44 C79.83,185.64 82.5732,220.7282 84.4532,244.8182" fill="none" id="Writing-to-Candidate" style="stroke:#0000FF;stroke-width:1;"/><polygon fill="#0000FF" points="84.92,250.8,88.2076,241.5161,84.531,245.8152,80.2319,242.1385,84.92,250.8" style="stroke:#0000FF;stroke-width:1;"/><text fill="#000000" font-family="Inconsolata,monospace" font-size="12" lengthAdjust="spacing" textLength="36" x="83.32" y="210.308">finish</text></g><!--link Writing to Failed--><g class="link" data-entity-1="Writing" data-entity-2="Failed" data-source-line="35" data-uid="lnk5" id="link_Writing_Failed"><path d="M100.26,161.44 C129.86,185.57 175.38,222.6783 204.96,246.7983" fill="none" id="Writing-to-Failed" style="stroke:#0000FF;stroke-width:1;"/><polygon fill="#0000FF" points="209.61,250.59,205.1627,241.8024,205.735,247.4302,200.1071,248.0025,209.61,250.59" style="stroke:#0000FF;stroke-width:1;"/><text fill="#000000" font-family="Inconsolata,monospace" font-size="12" lengthAdjust="spacing" textLength="36" x="169.98" y="210.308">cancel</text></g><!--link Candidate to Staged--><g class="link" data-entity-1="Candidate" data-entity-2="Staged" data-source-line="36" data-uid="lnk6" id="link_Candidate_Staged"><path d="M86.42,291.25 C86.42,311.77 86.42,338.06 86.42,358.62" fill="none" id="Candidate-to-Staged" style="stroke:#8B0000;stroke-width:1;"/><polygon fill="#8B0000" points="86.42,364.62,90.42,355.62,86.42,359.62,82.42,355.62,86.42,364.62" style="stroke:#8B0000;stroke-width:1;"/><text fill="#000000" font-family="Inconsolata,monospace" font-size="12" lengthAdjust="spacing" textLength="42" x="87.42" y="332.308">install</text></g><!--link Candidate to Failed--><g class="link" data-entity-1="Candidate" data-entity-2="Failed" data-source-line="37" data-uid="lnk7" id="link_Candidate_Failed"><path d="M131.32,271 C154.46,271 176.07,271 196.74,271" fill="none" id="Candidate-to-Failed" style="stroke:#0000FF;stroke-width:1;"/><polygon fill="#0000FF" points="202.74,271,193.74,267,197.74,271,193.74,275,202.74,271" style="stroke:#0000FF;stroke-width:1;"/><text fill="#000000" font-family="Inconsolata,monospace" font-size="12" lengthAdjust="spacing" textLength="36" x="149.06" y="265.308">cancel</text></g><!--link Staged to Trial--><g class="link" data-entity-1="Staged" data-entity-2="Trial" data-source-line="39" data-uid="lnk8" id="link_Staged_Trial"><path d="M119.01,385 C149.86,385 189.53,385 217.84,385" fill="none" id="Staged-to-Trial" style="stroke:#8B0000;stroke-width:1;stroke-dasharray:7.0,7.0;"/><polygon fill="#8B0000" points="223.84,385,214.84,381,218.84,385,214.84,389,223.84,385" style="stroke:#8B0000;stroke-width:1;"/><text fill="#000000" font-family="Lato,sans-serif" font-size="12" font-weight="bold" lengthAdjust="spacing" textLength="35.946" x="152.476" y="364.844">reboot</text><text fill="#000000" font-family="Lato,sans-serif" font-size="12" lengthAdjust="spacing" textLength="3" x="188.422" y="364.844">:</text><text fill="#000000" font-family="Lato,sans-serif" font-size="12" font-style="italic" lengthAdjust="spacing" textLength="69.918" x="136.99" y="379.244">install success</text></g><!--link Staged to Start--><g class="link" data-entity-1="Staged" data-entity-2="Start" data-source-line="40" data-uid="lnk9" id="link_Staged_Start"><path d="M70.18,364.62 C55.97,346.66 35.86,318.61 24.42,291 C12.28,261.69 13.55,252.57 10.42,221 C6,176.4 8.02,163.09 23.42,121 C33.32,93.95 47.3293,70.5506 59.4693,52.3606" fill="none" id="Staged-to-Start" style="stroke:#8B0000;stroke-width:1;stroke-dasharray:7.0,7.0;"/><polygon fill="#8B0000" points="62.8,47.37,54.4768,52.6354,60.0244,51.5288,61.131,57.0764,62.8,47.37" style="stroke:#8B0000;stroke-width:1;"/><text fill="#000000" font-family="Lato,sans-serif" font-size="12" font-weight="bold" lengthAdjust="spacing" textLength="35.946" x="21.968" y="203.844">reboot</text><text fill="#000000" font-family="Lato,sans-serif" font-size="12" lengthAdjust="spacing" textLength="3" x="57.914" y="203.844">:</text><text fill="#000000" font-family="Lato,sans-serif" font-size="12" font-style="italic" lengthAdjust="spacing" textLength="60.042" x="11.42" y="218.244">install failed</text></g><!--reverse link Failed to Staged--><g class="link" data-entity-1="Failed" data-entity-2="Staged" data-source-line="41" data-uid="lnk11" id="link_Failed_Staged"><path d="M203.3776,294.8865 C176.4476,315.4065 138.84,344.06 111.85,364.62" fill="none" id="Failed-backto-Staged" style="stroke:#8B0000;stroke-width:1;"/><polygon fill="#8B0000" points="208.15,291.25,198.567,293.5231,204.173,294.2804,203.4157,299.8863,208.15,291.25" style="stroke:#8B0000;stroke-width:1;"/><text fill="#000000" font-family="Inconsolata,monospace" font-size="12" lengthAdjust="spacing" textLength="36" x="169.72" y="332.308">reject</text></g><!--link Trial to Updated--><g class="link" data-entity-1="Trial" data-entity-2="Updated" data-source-line="43" data-uid="lnk12" id="link_Trial_Updated"><path d="M249.42,405.25 C249.42,425.77 249.42,452.06 249.42,472.62" fill="none" id="Trial-to-Updated" style="stroke:#8B0000;stroke-width:1;"/><polygon fill="#8B0000" points="249.42,478.62,253.42,469.62,249.42,473.62,245.42,469.62,249.42,478.62" style="stroke:#8B0000;stroke-width:1;"/><text fill="#000000" font-family="Inconsolata,monospace" font-size="12" lengthAdjust="spacing" textLength="36" x="250.42" y="446.308">accept</text></g><!--reverse link Start to Failed--><g class="link" data-entity-1="Start" data-entity-2="Failed" data-source-line="45" data-uid="lnk14" id="link_Start_Failed"><path d="M106.7937,46.3998 C132.1537,62.7398 165.69,87.68 189.42,121 C218.21,161.42 228.35,220.71 231.77,250.86" fill="none" id="Start-backto-Failed" style="stroke:#0000FF;stroke-width:1;"/><polygon fill="#0000FF" points="101.75,43.15,107.149,51.3871,105.9531,45.8581,111.4821,44.6622,101.75,43.15" style="stroke:#0000FF;stroke-width:1;"/><text fill="#000000" font-family="Inconsolata,monospace" font-size="12" lengthAdjust="spacing" textLength="30" x="211.26" y="145.308">clean</text></g><!--link Trial to Rejected--><g class="link" data-entity-1="Trial" data-entity-2="Rejected" data-source-line="46" data-uid="lnk15" id="link_Trial_Rejected"><path d="M275,385 C295.31,385 318.04,385 341.09,385" fill="none" id="Trial-to-Rejected" style="stroke:#8B0000;stroke-width:1;"/><polygon fill="#8B0000" points="347.09,385,338.09,381,342.09,385,338.09,389,347.09,385" style="stroke:#8B0000;stroke-width:1;"/><text fill="#000000" font-family="Inconsolata,monospace" font-size="12" lengthAdjust="spacing" textLength="36" x="293.08" y="379.308">reject</text></g><!--link Rejected to Start--><g class="link" data-entity-1="Rejected" data-entity-2="Start" data-source-line="47" data-uid="lnk16" id="link_Rejected_Start"><path d="M382.99,364.6 C378.02,328.91 364.75,251.02 337.42,191 C321.68,156.44 313.74,149.3 288.42,121 C268.68,98.94 264.29,91.39 238.42,77 C193.74,52.14 140.8563,39.5505 107.7763,33.3205" fill="none" id="Rejected-to-Start" style="stroke:#8B0000;stroke-width:1;stroke-dasharray:7.0,7.0;"/><polygon fill="#8B0000" points="101.88,32.21,109.9842,37.8066,106.7936,33.1354,111.4648,29.9448,101.88,32.21" style="stroke:#8B0000;stroke-width:1;"/><text fill="#000000" font-family="Lato,sans-serif" font-size="12" font-weight="bold" lengthAdjust="spacing" textLength="35.946" x="350.311" y="203.844">reboot</text><text fill="#000000" font-family="Lato,sans-serif" font-size="12" lengthAdjust="spacing" textLength="3" x="386.257" y="203.844">:</text><text fill="#000000" font-family="Lato,sans-serif" font-size="12" font-style="italic" lengthAdjust="spacing" textLength="39.348" x="350.11" y="218.244">rollback</text></g><!--link Trial to Start--><g class="link" data-entity-1="Trial" data-entity-2="Start" data-source-line="49" data-uid="lnk17" id="link_Trial_Start"><path d="M258.24,364.54 C266.1,346.06 277.03,317.27 281.42,291 C294.09,215.25 294.96,183.57 250.42,121 C213.97,69.79 146.1658,45.7621 107.4058,35.3821" fill="none" id="Trial-to-Start" style="stroke:#8B0000;stroke-width:1;stroke-dasharray:7.0,7.0;"/><polygon fill="#8B0000" points="101.61,33.83,109.2689,40.022,106.4398,35.1234,111.3384,32.2943,101.61,33.83" style="stroke:#8B0000;stroke-width:1;"/><text fill="#000000" font-family="Lato,sans-serif" font-size="12" font-weight="bold" lengthAdjust="spacing" textLength="35.946" x="290.121" y="203.844">reboot</text><text fill="#000000" font-family="Lato,sans-serif" font-size="12" lengthAdjust="spacing" textLength="3" x="326.067" y="203.844">:</text><text fill="#000000" font-family="Lato,sans-serif" font-size="12" font-style="italic" lengthAdjust="spacing" textLength="39.348" x="289.92" y="218.244">rollback</text></g><!--link Updated to End--><g class="link" data-entity-1="Updated" data-entity-2="End" data-source-line="51" data-uid="lnk18" id="link_Updated_End"><path d="M288.07,499 C309.48,499 329.47,499 348.25,499" fill="none" id="Updated-to-End" style="stroke:#0000FF;stroke-width:1;"/><polygon fill="#0000FF" points="354.25,499,345.25,495,349.25,499,345.25,503,354.25,499" style="stroke:#0000FF;stroke-width:1;"/><text fill="#000000" font-family="Inconsolata,monospace" font-size="12" lengthAdjust="spacing" textLength="30" x="306.03" y="493.308">clean</text></g><rect fill="#E8E8E8" height="139.6" rx="4" ry="4" style="stroke:#000000;stroke-width:1;" width="288.76" x="63.274" y="536"/><text fill="#000000" font-family="Lato,sans-serif" font-size="12" font-weight="bold" lengthAdjust="spacing" textLength="59.304" x="68.274" y="552.844">Transitions</text><text fill="#0000FF" font-family="Inconsolata,monospace" font-size="12" lengthAdjust="spacing" text-decoration="line-through" textLength="18" x="68.274" y="567.52">&#8212;&#8212;&#8212;</text><text fill="#000000" font-family="Lato,sans-serif" font-size="12" lengthAdjust="spacing" textLength="158.322" x="89.346" y="567.244">Applies to a single component</text><text fill="#8B0000" font-family="Inconsolata,monospace" font-size="12" lengthAdjust="spacing" text-decoration="line-through" textLength="18" x="68.274" y="581.92">&#8212;&#8212;&#8212;</text><text fill="#000000" font-family="Lato,sans-serif" font-size="12" lengthAdjust="spacing" textLength="135.93" x="89.346" y="581.644">Applies to all components</text><text fill="#000000" font-family="Inconsolata,monospace" font-size="12" lengthAdjust="spacing" textLength="18" x="68.274" y="596.32">---</text><text fill="#000000" font-family="Lato,sans-serif" font-size="12" lengthAdjust="spacing" textLength="79.644" x="89.346" y="596.044">Transition over</text><text fill="#000000" font-family="Lato,sans-serif" font-size="12" font-weight="bold" lengthAdjust="spacing" textLength="35.946" x="172.062" y="596.044">reboot</text><text fill="#000000" font-family="Lato,sans-serif" font-size="12" lengthAdjust="spacing" textLength="3.072" x="68.274" y="610.444">&#160;</text><text fill="#000000" font-family="Lato,sans-serif" font-size="12" font-weight="bold" lengthAdjust="spacing" textLength="76.092" x="68.274" y="624.844">Volatile states</text><text fill="#000000" font-family="Inconsolata,monospace" font-size="12" lengthAdjust="spacing" textLength="6" x="74.274" y="639.52">*</text><text fill="#000000" font-family="Lato,sans-serif" font-size="12" lengthAdjust="spacing" textLength="40.728" x="89.346" y="639.244">Always:</text><text fill="#000000" font-family="Lato,sans-serif" font-size="12" font-weight="bold" lengthAdjust="spacing" textLength="35.946" x="133.146" y="639.244">reboot</text><text fill="#000000" font-family="Lato,sans-serif" font-size="12" lengthAdjust="spacing" textLength="102.21" x="172.164" y="639.244">transition as shown</text><text fill="#000000" font-family="Inconsolata,monospace" font-size="12" lengthAdjust="spacing" textLength="6" x="74.274" y="653.92">&#8224;</text><text fill="#000000" font-family="Lato,sans-serif" font-size="12" lengthAdjust="spacing" textLength="40.728" x="89.346" y="653.644">Always:</text><text fill="#000000" font-family="Lato,sans-serif" font-size="12" font-weight="bold" lengthAdjust="spacing" textLength="35.946" x="133.146" y="653.644">reboot</text><text fill="#000000" font-family="Lato,sans-serif" font-size="12" lengthAdjust="spacing" textLength="80.274" x="172.164" y="653.644">is equivalent to</text><text fill="#000000" font-family="Inconsolata,monospace" font-size="12" lengthAdjust="spacing" textLength="36" x="255.51" y="653.92">cancel</text><text fill="#000000" font-family="Lato,sans-serif" font-size="12" lengthAdjust="spacing" textLength="19.38" x="294.582" y="653.644">and</text><text fill="#000000" font-family="Inconsolata,monospace" font-size="12" lengthAdjust="spacing" textLength="30" x="317.034" y="653.92">clean</text><text fill="#000000" font-family="Inconsolata,monospace" font-size="12" lengthAdjust="spacing" textLength="6" x="74.274" y="668.32">&#8225;</text><text fill="#000000" font-family="Lato,sans-serif" font-size="12" lengthAdjust="spacing" textLength="40.728" x="89.346" y="668.044">Always:</text><text fill="#000000" font-family="Lato,sans-serif" font-size="12" font-weight="bold" lengthAdjust="spacing" textLength="35.946" x="133.146" y="668.044">reboot</text><text fill="#000000" font-family="Lato,sans-serif" font-size="12" lengthAdjust="spacing" textLength="80.274" x="172.164" y="668.044">is equivalent to</text><text fill="#000000" font-family="Inconsolata,monospace" font-size="12" lengthAdjust="spacing" textLength="30" x="255.51" y="668.32">clean</text></g></svg>